<?xml version="1.0" encoding="UTF-8"?>
<svg width="1920" height="1080" xmlns="http://www.w3.org/2000/svg">
  <defs>
    <linearGradient id="bg" x1="0%" y1="0%" x2="100%" y2="100%">
      <stop offset="0%" style="stop-color:#1a1a2e;stop-opacity:1" />
      <stop offset="100%" style="stop-color:#000008;stop-opacity:1" />
    </linearGradient>
    <linearGradient id="accent" x1="0%" y1="0%" x2="100%" y2="0%">
      <stop offset="0%" style="stop-color:#e94560;stop-opacity:1" />
      <stop offset="100%" style="stop-color:#ff92ad;stop-opacity:1" />
    </linearGradient>
    <filter id="glow">
      <feGaussianBlur stdDeviation="3" result="coloredBlur"/>
      <feMerge><feMergeNode in="coloredBlur"/><feMergeNode in="SourceGraphic"/></feMerge>
    </filter>
  </defs>
  <rect width="100%" height="100%" fill="url(#bg)"/>
  <circle cx="1920" cy="0" r="700" fill="#e94560" opacity="0.08"/>
  <circle cx="0" cy="1080" r="500" fill="#ff92ad" opacity="0.06"/>
  <rect width="1920" height="6" fill="url(#accent)"/>
  <path d="M19.95-9.95L26.11-9.95Q25.76-5.13 22.55-2.36Q19.34 0.41 14.09 0.41L14.09 0.41Q8.35 0.41 5.06-3.46Q1.76-7.32 1.76-14.07L1.76-14.07L1.76-15.89Q1.76-20.20 3.28-23.48Q4.80-26.76 7.62-28.52Q10.44-30.27 14.17-30.27L14.17-30.27Q19.34-30.27 22.50-27.50Q25.66-24.73 26.15-19.73L26.15-19.73L20.00-19.73Q19.77-22.62 18.39-23.92Q17.00-25.22 14.17-25.22L14.17-25.22Q11.09-25.22 9.57-23.02Q8.04-20.82 8.00-16.18L8.00-16.18L8.00-13.92Q8.00-9.08 9.46-6.85Q10.93-4.61 14.09-4.61L14.09-4.61Q16.94-4.61 18.34-5.92Q19.75-7.22 19.95-9.95L19.95-9.95ZM35.54-31.50L35.54-19.77Q37.90-22.60 41.47-22.60L41.47-22.60Q48.69-22.60 48.79-14.21L48.79-14.21L48.79 0L42.86 0L42.86-14.05Q42.86-15.96 42.04-16.87Q41.22-17.78 39.31-17.78L39.31-17.78Q36.71-17.78 35.54-15.77L35.54-15.77L35.54 0L29.61 0L29.61-31.50L35.54-31.50ZM72.11 0L66.12 0Q65.71-0.80 65.52-1.99L65.52-1.99Q63.37 0.41 59.92 0.41L59.92 0.41Q56.66 0.41 54.52-1.48Q52.38-3.36 52.38-6.23L52.38-6.23Q52.38-9.76 54.99-11.65Q57.61-13.54 62.55-13.56L62.55-13.56L65.28-13.56L65.28-14.83Q65.28-16.37 64.49-17.29Q63.70-18.21 62.00-18.21L62.00-18.21Q60.50-18.21 59.65-17.49Q58.80-16.78 58.80-15.52L58.80-15.52L52.87-15.52Q52.87-17.45 54.06-19.09Q55.25-20.73 57.42-21.67Q59.60-22.60 62.30-22.60L62.30-22.60Q66.40-22.60 68.81-20.54Q71.22-18.48 71.22-14.75L71.22-14.75L71.22-5.13Q71.24-1.97 72.11-0.35L72.11-0.35L72.11 0ZM61.22-4.12L61.22-4.12Q62.53-4.12 63.64-4.71Q64.74-5.29 65.28-6.28L65.28-6.28L65.28-10.09L63.06-10.09Q58.61-10.09 58.32-7.01L58.32-7.01L58.30-6.67Q58.30-5.56 59.08-4.84Q59.86-4.12 61.22-4.12ZM75.65-22.19L81.23-22.19L81.42-19.63Q83.79-22.60 87.79-22.60L87.79-22.60Q91.32-22.60 93.04-20.53Q94.77-18.46 94.81-14.33L94.81-14.33L94.81 0L88.88 0L88.88-14.19Q88.88-16.08 88.06-16.93Q87.24-17.78 85.33-17.78L85.33-17.78Q82.83-17.78 81.58-15.65L81.58-15.65L81.58 0L75.65 0L75.65-22.19ZM116.98-9.95L123.13-9.95Q122.78-5.13 119.57-2.36Q116.36 0.41 111.11 0.41L111.11 0.41Q105.37 0.41 102.08-3.46Q98.79-7.32 98.79-14.07L98.79-14.07L98.79-15.89Q98.79-20.20 100.30-23.48Q101.82-26.76 104.64-28.52Q107.46-30.27 111.19-30.27L111.19-30.27Q116.36-30.27 119.52-27.50Q122.68-24.73 123.17-19.73L123.17-19.73L117.02-19.73Q116.79-22.62 115.41-23.92Q114.02-25.22 111.19-25.22L111.19-25.22Q108.12-25.22 106.59-23.02Q105.06-20.82 105.02-16.18L105.02-16.18L105.02-13.92Q105.02-9.08 106.49-6.85Q107.95-4.61 111.11-4.61L111.11-4.61Q113.96-4.61 115.37-5.92Q116.77-7.22 116.98-9.95L116.98-9.95ZM133.03-31.50L133.03 0L127.09 0L127.09-31.50L133.03-31.50ZM156.76 0L150.77 0Q150.36-0.80 150.18-1.99L150.18-1.99Q148.03 0.41 144.58 0.41L144.58 0.41Q141.32 0.41 139.18-1.48Q137.03-3.36 137.03-6.23L137.03-6.23Q137.03-9.76 139.65-11.65Q142.26-13.54 147.21-13.56L147.21-13.56L149.93-13.56L149.93-14.83Q149.93-16.37 149.14-17.29Q148.35-18.21 146.65-18.21L146.65-18.21Q145.15-18.21 144.30-17.49Q143.45-16.78 143.45-15.52L143.45-15.52L137.53-15.52Q137.53-17.45 138.71-19.09Q139.90-20.73 142.08-21.67Q144.25-22.60 146.96-22.60L146.96-22.60Q151.06-22.60 153.47-20.54Q155.88-18.48 155.88-14.75L155.88-14.75L155.88-5.13Q155.90-1.97 156.76-0.35L156.76-0.35L156.76 0ZM145.87-4.12L145.87-4.12Q147.18-4.12 148.29-4.71Q149.40-5.29 149.93-6.28L149.93-6.28L149.93-10.09L147.72-10.09Q143.27-10.09 142.98-7.01L142.98-7.01L142.96-6.67Q142.96-5.56 143.74-4.84Q144.52-4.12 145.87-4.12ZM175.69-22.19L179.73-8.06L182.64-22.19L188.36-22.19L182.70 0L177.74 0L173.54-13.97L169.33 0L164.39 0L158.73-22.19L164.45-22.19L167.34-8.08L171.40-22.19L175.69-22.19Z" transform="translate(50, 70)" fill="#e94560" />
  <text x="1870" y="70" font-family="Arial, sans-serif" font-size="24" fill="#888" text-anchor="end">10 / 10</text>
  <path d="M45.07-26.89L45.07-6.47Q42.22-3.06 37.02-1.18Q31.82 0.70 25.49 0.70L25.49 0.70Q18.84 0.70 13.83-2.20Q8.82-5.10 6.10-10.62Q3.38-16.14 3.30-23.59L3.30-23.59L3.30-27.07Q3.30-34.73 5.89-40.34Q8.47-45.95 13.34-48.92Q18.21-51.89 24.75-51.89L24.75-51.89Q33.86-51.89 38.99-47.55Q44.12-43.21 45.07-34.91L45.07-34.91L34.80-34.91Q34.10-39.30 31.69-41.34Q29.29-43.38 25.07-43.38L25.07-43.38Q19.69-43.38 16.88-39.34Q14.06-35.30 14.03-27.32L14.03-27.32L14.03-24.05Q14.03-16.00 17.09-11.88Q20.14-7.77 26.05-7.77L26.05-7.77Q31.99-7.77 34.52-10.30L34.52-10.30L34.52-19.13L24.93-19.13L24.93-26.89L45.07-26.89ZM70.45 0.70L70.45 0.70Q62.09 0.70 56.83-4.43Q51.57-9.56 51.57-18.11L51.57-18.11L51.57-19.09Q51.57-24.82 53.79-29.34Q56.00-33.86 60.06-36.30Q64.13-38.74 69.33-38.74L69.33-38.74Q77.13-38.74 81.62-33.82Q86.10-28.90 86.10-19.86L86.10-19.86L86.10-15.71L61.88-15.71Q62.37-11.99 64.85-9.74Q67.32-7.49 71.12-7.49L71.12-7.49Q76.99-7.49 80.30-11.74L80.30-11.74L85.29-6.15Q83.00-2.92 79.10-1.11Q75.20 0.70 70.45 0.70ZM69.29-30.52L69.29-30.52Q66.27-30.52 64.39-28.48Q62.51-26.44 61.98-22.64L61.98-22.64L76.11-22.64L76.11-23.45Q76.04-26.82 74.29-28.67Q72.53-30.52 69.29-30.52ZM93.87-47.39L104.03-47.39L104.03-38.04L110.53-38.04L110.53-30.59L104.03-30.59L104.03-11.60Q104.03-9.49 104.84-8.58Q105.64-7.66 107.93-7.66L107.93-7.66Q109.62-7.66 110.92-7.91L110.92-7.91L110.92-0.21Q107.93 0.70 104.77 0.70L104.77 0.70Q94.08 0.70 93.87-10.09L93.87-10.09L93.87-30.59L88.31-30.59L88.31-38.04L93.87-38.04L93.87-47.39ZM161.33-13.43L161.33-13.43Q161.33-16.42 159.22-18.02Q157.11-19.62 151.63-21.39Q146.14-23.17 142.95-24.89L142.95-24.89Q134.23-29.60 134.23-37.58L134.23-37.58Q134.23-41.73 136.56-44.98Q138.90-48.23 143.28-50.06Q147.66-51.89 153.11-51.89L153.11-51.89Q158.59-51.89 162.88-49.90Q167.17-47.92 169.54-44.30Q171.91-40.68 171.91-36.07L171.91-36.07L161.37-36.07Q161.37-39.59 159.15-41.54Q156.94-43.49 152.93-43.49L152.93-43.49Q149.06-43.49 146.92-41.85Q144.77-40.22 144.77-37.55L144.77-37.55Q144.77-35.05 147.29-33.36Q149.80-31.68 154.69-30.20L154.69-30.20Q163.69-27.49 167.80-23.48Q171.91-19.48 171.91-13.50L171.91-13.50Q171.91-6.86 166.89-3.08Q161.86 0.70 153.35 0.70L153.35 0.70Q147.45 0.70 142.59-1.46Q137.74-3.62 135.19-7.38Q132.64-11.14 132.64-16.10L132.64-16.10L143.23-16.10Q143.23-7.63 153.35-7.63L153.35-7.63Q157.11-7.63 159.22-9.16Q161.33-10.69 161.33-13.43ZM180.39-47.39L190.55-47.39L190.55-38.04L197.05-38.04L197.05-30.59L190.55-30.59L190.55-11.60Q190.55-9.49 191.36-8.58Q192.16-7.66 194.45-7.66L194.45-7.66Q196.14-7.66 197.44-7.91L197.44-7.91L197.44-0.21Q194.45 0.70 191.29 0.70L191.29 0.70Q180.60 0.70 180.39-10.09L180.39-10.09L180.39-30.59L174.83-30.59L174.83-38.04L180.39-38.04L180.39-47.39ZM235.02 0L224.75 0Q224.05-1.37 223.73-3.41L223.73-3.41Q220.04 0.70 214.14 0.70L214.14 0.70Q208.55 0.70 204.87-2.53Q201.20-5.77 201.20-10.69L201.20-10.69Q201.20-16.73 205.68-19.97Q210.16-23.20 218.64-23.24L218.64-23.24L223.31-23.24L223.31-25.42Q223.31-28.05 221.96-29.64Q220.61-31.22 217.69-31.22L217.69-31.22Q215.12-31.22 213.66-29.99Q212.20-28.76 212.20-26.61L212.20-26.61L202.04-26.61Q202.04-29.92 204.08-32.73Q206.12-35.54 209.85-37.14Q213.57-38.74 218.21-38.74L218.21-38.74Q225.25-38.74 229.38-35.21Q233.51-31.68 233.51-25.28L233.51-25.28L233.51-8.79Q233.54-3.38 235.02-0.60L235.02-0.60L235.02 0ZM216.35-7.07L216.35-7.07Q218.60-7.07 220.50-8.07Q222.40-9.07 223.31-10.76L223.31-10.76L223.31-17.30L219.52-17.30Q211.89-17.30 211.39-12.02L211.39-12.02L211.36-11.43Q211.36-9.53 212.70-8.30Q214.03-7.07 216.35-7.07ZM262.83-38.29L262.69-28.51Q260.61-28.79 259.03-28.79L259.03-28.79Q253.27-28.79 251.47-24.89L251.47-24.89L251.47 0L241.31 0L241.31-38.04L250.91-38.04L251.19-33.50Q254.25-38.74 259.66-38.74L259.66-38.74Q261.35-38.74 262.83-38.29L262.83-38.29ZM269.58-47.39L279.74-47.39L279.74-38.04L286.24-38.04L286.24-30.59L279.74-30.59L279.74-11.60Q279.74-9.49 280.55-8.58Q281.36-7.66 283.64-7.66L283.64-7.66Q285.33-7.66 286.63-7.91L286.63-7.91L286.63-0.21Q283.64 0.70 280.48 0.70L280.48 0.70Q269.79 0.70 269.58-10.09L269.58-10.09L269.58-30.59L264.02-30.59L264.02-38.04L269.58-38.04L269.58-47.39ZM309.41 0.70L309.41 0.70Q301.04 0.70 295.79-4.43Q290.53-9.56 290.53-18.11L290.53-18.11L290.53-19.09Q290.53-24.82 292.75-29.34Q294.96-33.86 299.02-36.30Q303.08-38.74 308.29-38.74L308.29-38.74Q316.09-38.74 320.57-33.82Q325.05-28.90 325.05-19.86L325.05-19.86L325.05-15.71L300.83-15.71Q301.32-11.99 303.80-9.74Q306.28-7.49 310.08-7.49L310.08-7.49Q315.95-7.49 319.25-11.74L319.25-11.74L324.25-6.15Q321.96-2.92 318.06-1.11Q314.16 0.70 309.41 0.70ZM308.25-30.52L308.25-30.52Q305.23-30.52 303.35-28.48Q301.46-26.44 300.94-22.64L300.94-22.64L315.07-22.64L315.07-23.45Q315-26.82 313.24-28.67Q311.48-30.52 308.25-30.52ZM329.24-19.30L329.24-19.30Q329.24-28.20 333.23-33.47Q337.22-38.74 344.14-38.74L344.14-38.74Q349.70-38.74 353.32-34.59L353.32-34.59L353.32-54L363.52-54L363.52 0L354.34 0L353.85-4.04Q350.05 0.70 344.07 0.70L344.07 0.70Q337.36 0.70 333.30-4.59Q329.24-9.88 329.24-19.30ZM339.40-18.56L339.40-18.56Q339.40-13.22 341.26-10.37Q343.13-7.52 346.68-7.52L346.68-7.52Q351.39-7.52 353.32-11.50L353.32-11.50L353.32-26.51Q351.42-30.48 346.75-30.48L346.75-30.48Q339.40-30.48 339.40-18.56Z" transform="translate(776.255859375, 380)" fill="#ffffff" />
  <line x1="760" y1="430" x2="1160" y2="430" stroke="#e94560" stroke-width="4"/>
  <circle cx="580" cy="500" r="6" fill="#e94560" /><path d="M1.85-19.02L6.63-19.02L6.79-16.82Q8.82-19.37 12.25-19.37L12.25-19.37Q15.28-19.37 16.75-17.60Q18.23-15.82 18.26-12.29L18.26-12.29L18.26 0L13.18 0L13.18-12.16Q13.18-13.78 12.48-14.51Q11.78-15.24 10.14-15.24L10.14-15.24Q8.00-15.24 6.93-13.41L6.93-13.41L6.93 0L1.85 0L1.85-19.02ZM39.23-9.60L39.23-9.33Q39.23-4.94 37.24-2.29Q35.24 0.35 31.85 0.35L31.85 0.35Q28.97 0.35 27.19-1.65L27.19-1.65L27.19 7.31L22.11 7.31L22.11-19.02L26.82-19.02L27-17.16Q28.85-19.37 31.82-19.37L31.82-19.37Q35.33-19.37 37.28-16.77Q39.23-14.17 39.23-9.60L39.23-9.60ZM34.15-9.70L34.15-9.70Q34.15-12.36 33.21-13.80Q32.27-15.24 30.48-15.24L30.48-15.24Q28.09-15.24 27.19-13.41L27.19-13.41L27.19-5.63Q28.13-3.74 30.52-3.74L30.52-3.74Q34.15-3.74 34.15-9.70ZM42.38-19.02L47.14-19.02L47.30-16.89Q49.32-19.37 52.77-19.37L52.77-19.37Q56.44-19.37 57.81-16.47L57.81-16.47Q59.82-19.37 63.53-19.37L63.53-19.37Q66.62-19.37 68.13-17.57Q69.64-15.77 69.64-12.15L69.64-12.15L69.64 0L64.55 0L64.55-12.13Q64.55-13.75 63.91-14.49Q63.28-15.24 61.68-15.24L61.68-15.24Q59.40-15.24 58.52-13.06L58.52-13.06L58.54 0L53.46 0L53.46-12.11Q53.46-13.76 52.80-14.50Q52.15-15.24 50.59-15.24L50.59-15.24Q48.43-15.24 47.46-13.45L47.46-13.45L47.46 0L42.38 0L42.38-19.02ZM87.87-19.02L87.87 0L82.78 0L82.78-19.02L87.87-19.02ZM82.48-23.94L82.48-23.94Q82.48-25.08 83.24-25.82Q84.01-26.56 85.32-26.56L85.32-26.56Q86.63-26.56 87.40-25.82Q88.17-25.08 88.17-23.94L88.17-23.94Q88.17-22.78 87.39-22.04Q86.61-21.30 85.32-21.30Q84.04-21.30 83.26-22.04Q82.48-22.78 82.48-23.94ZM110.90-13.01L110.90-8.91L101.00-8.91L101.00-13.01L110.90-13.01ZM114.24-9.44L114.24-9.65Q114.24-14.03 116.32-16.70Q118.41-19.37 121.94-19.37L121.94-19.37Q125.07-19.37 126.81-17.23L126.81-17.23L127.02-19.02L131.63-19.02L131.63-0.63Q131.63 1.86 130.49 3.71Q129.36 5.55 127.30 6.52Q125.24 7.49 122.48 7.49L122.48 7.49Q120.39 7.49 118.41 6.65Q116.42 5.82 115.40 4.50L115.40 4.50L117.65 1.41Q119.55 3.53 122.26 3.53L122.26 3.53Q124.28 3.53 125.40 2.45Q126.53 1.37 126.53-0.62L126.53-0.62L126.53-1.63Q124.77 0.35 121.90 0.35L121.90 0.35Q118.48 0.35 116.36-2.33Q114.24-5.01 114.24-9.44L114.24-9.44ZM119.32-9.28L119.32-9.28Q119.32-6.70 120.36-5.23Q121.39-3.76 123.21-3.76L123.21-3.76Q125.53-3.76 126.53-5.50L126.53-5.50L126.53-13.50Q125.51-15.24 123.24-15.24L123.24-15.24Q121.41-15.24 120.37-13.75Q119.32-12.25 119.32-9.28ZM143.70-9.46L143.70-9.69Q143.70-12.52 144.79-14.73Q145.88-16.95 147.93-18.16Q149.98-19.37 152.68-19.37L152.68-19.37Q156.53-19.37 158.97-17.02Q161.40-14.66 161.68-10.62L161.68-10.62L161.72-9.32Q161.72-4.94 159.28-2.29Q156.83 0.35 152.72 0.35Q148.61 0.35 146.15-2.29Q143.70-4.92 143.70-9.46L143.70-9.46ZM148.78-9.32L148.78-9.32Q148.78-6.61 149.80-5.18Q150.82-3.74 152.72-3.74L152.72-3.74Q154.56-3.74 155.60-5.16Q156.64-6.57 156.64-9.69L156.64-9.69Q156.64-12.34 155.60-13.80Q154.56-15.26 152.68-15.26L152.68-15.26Q150.82-15.26 149.80-13.81Q148.78-12.36 148.78-9.32ZM181.97-9.60L181.97-9.33Q181.97-4.94 179.97-2.29Q177.98 0.35 174.59 0.35L174.59 0.35Q171.70 0.35 169.93-1.65L169.93-1.65L169.93 7.31L164.85 7.31L164.85-19.02L169.56-19.02L169.73-17.16Q171.58-19.37 174.55-19.37L174.55-19.37Q178.07-19.37 180.02-16.77Q181.97-14.17 181.97-9.60L181.97-9.60ZM176.89-9.70L176.89-9.70Q176.89-12.36 175.95-13.80Q175.01-15.24 173.21-15.24L173.21-15.24Q170.82-15.24 169.93-13.41L169.93-13.41L169.93-5.63Q170.86-3.74 173.25-3.74L173.25-3.74Q176.89-3.74 176.89-9.70ZM193.87 0.35L193.87 0.35Q189.69 0.35 187.06-2.21Q184.43-4.78 184.43-9.05L184.43-9.05L184.43-9.54Q184.43-12.41 185.54-14.67Q186.64-16.93 188.67-18.15Q190.71-19.37 193.31-19.37L193.31-19.37Q197.21-19.37 199.45-16.91Q201.69-14.45 201.69-9.93L201.69-9.93L201.69-7.86L189.58-7.86Q189.83-5.99 191.07-4.87Q192.30-3.74 194.20-3.74L194.20-3.74Q197.14-3.74 198.79-5.87L198.79-5.87L201.29-3.08Q200.14-1.46 198.19-0.55Q196.24 0.35 193.87 0.35ZM193.29-15.26L193.29-15.26Q191.78-15.26 190.84-14.24Q189.90-13.22 189.63-11.32L189.63-11.32L196.70-11.32L196.70-11.72Q196.66-13.41 195.79-14.33Q194.91-15.26 193.29-15.26ZM204.47-19.02L209.25-19.02L209.41-16.82Q211.45-19.37 214.88-19.37L214.88-19.37Q217.90-19.37 219.38-17.60Q220.85-15.82 220.89-12.29L220.89-12.29L220.89 0L215.81 0L215.81-12.16Q215.81-13.78 215.10-14.51Q214.40-15.24 212.77-15.24L212.77-15.24Q210.62-15.24 209.55-13.41L209.55-13.41L209.55 0L204.47 0L204.47-19.02ZM232.65-3.74L232.65-3.74Q234.05-3.74 234.93-4.52Q235.81-5.29 235.85-6.57L235.85-6.57L240.61-6.57Q240.59-4.64 239.55-3.03Q238.52-1.42 236.72-0.54Q234.91 0.35 232.73 0.35L232.73 0.35Q228.66 0.35 226.30-2.24Q223.95-4.83 223.95-9.40L223.95-9.40L223.95-9.74Q223.95-14.13 226.28-16.75Q228.62-19.37 232.70-19.37L232.70-19.37Q236.27-19.37 238.42-17.34Q240.57-15.31 240.61-11.94L240.61-11.94L235.85-11.94Q235.81-13.41 234.93-14.33Q234.05-15.26 232.61-15.26L232.61-15.26Q230.84-15.26 229.93-13.97Q229.03-12.67 229.03-9.77L229.03-9.77L229.03-9.25Q229.03-6.31 229.92-5.03Q230.82-3.74 232.65-3.74ZM248.87-27L248.87 0L243.77 0L243.77-27L248.87-27ZM269.21 0L264.08 0Q263.72-0.69 263.57-1.71L263.57-1.71Q261.72 0.35 258.77 0.35L258.77 0.35Q255.97 0.35 254.14-1.27Q252.30-2.88 252.30-5.34L252.30-5.34Q252.30-8.37 254.54-9.98Q256.78-11.60 261.02-11.62L261.02-11.62L263.36-11.62L263.36-12.71Q263.36-14.03 262.68-14.82Q262.00-15.61 260.54-15.61L260.54-15.61Q259.26-15.61 258.53-14.99Q257.80-14.38 257.80-13.31L257.80-13.31L252.72-13.31Q252.72-14.96 253.74-16.37Q254.76-17.77 256.62-18.57Q258.49-19.37 260.81-19.37L260.81-19.37Q264.32-19.37 266.39-17.60Q268.45-15.84 268.45-12.64L268.45-12.64L268.45-4.39Q268.47-1.69 269.21-0.30L269.21-0.30L269.21 0ZM259.88-3.53L259.88-3.53Q261-3.53 261.95-4.03Q262.90-4.54 263.36-5.38L263.36-5.38L263.36-8.65L261.46-8.65Q257.64-8.65 257.40-6.01L257.40-6.01L257.38-5.71Q257.38-4.76 258.05-4.15Q258.71-3.53 259.88-3.53ZM285.43-19.02L288.90-6.91L291.39-19.02L296.30-19.02L291.45 0L287.19 0L283.59-11.97L279.98 0L275.75 0L270.90-19.02L275.80-19.02L278.28-6.93L281.76-19.02L285.43-19.02Z" transform="translate(620, 500)" fill="#ffffff" /><circle cx="580" cy="565" r="6" fill="#e94560" /><path d="M17.10-8.53L22.38-8.53Q22.08-4.39 19.33-2.02Q16.58 0.35 12.08 0.35L12.08 0.35Q7.15 0.35 4.33-2.96Q1.51-6.28 1.51-12.06L1.51-12.06L1.51-13.62Q1.51-17.31 2.81-20.13Q4.11-22.94 6.53-24.44Q8.95-25.95 12.15-25.95L12.15-25.95Q16.58-25.95 19.28-23.57Q21.99-21.20 22.41-16.91L22.41-16.91L17.14-16.91Q16.95-19.39 15.76-20.50Q14.57-21.62 12.15-21.62L12.15-21.62Q9.51-21.62 8.20-19.73Q6.89-17.84 6.86-13.87L6.86-13.87L6.86-11.94Q6.86-7.79 8.11-5.87Q9.37-3.96 12.08-3.96L12.08-3.96Q14.52-3.96 15.72-5.07Q16.93-6.19 17.10-8.53L17.10-8.53ZM24.71-9.46L24.71-9.69Q24.71-12.52 25.80-14.73Q26.89-16.95 28.94-18.16Q30.99-19.37 33.70-19.37L33.70-19.37Q37.55-19.37 39.98-17.02Q42.42-14.66 42.70-10.62L42.70-10.62L42.73-9.32Q42.73-4.94 40.29-2.29Q37.85 0.35 33.73 0.35Q29.62 0.35 27.17-2.29Q24.71-4.92 24.71-9.46L24.71-9.46ZM29.79-9.32L29.79-9.32Q29.79-6.61 30.81-5.18Q31.83-3.74 33.73-3.74L33.73-3.74Q35.58-3.74 36.62-5.16Q37.65-6.57 37.65-9.69L37.65-9.69Q37.65-12.34 36.62-13.80Q35.58-15.26 33.70-15.26L33.70-15.26Q31.83-15.26 30.81-13.81Q29.79-12.36 29.79-9.32ZM45.76-19.02L50.54-19.02L50.70-16.82Q52.73-19.37 56.16-19.37L56.16-19.37Q59.19-19.37 60.66-17.60Q62.14-15.82 62.17-12.29L62.17-12.29L62.17 0L57.09 0L57.09-12.16Q57.09-13.78 56.39-14.51Q55.69-15.24 54.05-15.24L54.05-15.24Q51.91-15.24 50.84-13.41L50.84-13.41L50.84 0L45.76 0L45.76-19.02ZM72.35 0L67.25 0L67.25-15.29L64.42-15.29L64.42-19.02L67.25-19.02L67.25-19.90Q67.29-23.48 69.46-25.43Q71.63-27.37 75.59-27.37L75.59-27.37Q77.96-27.37 81.35-26.33L81.35-26.33L80.61-22.13Q78.89-22.64 77.94-22.79Q76.99-22.94 75.90-22.94L75.90-22.94Q72.35-22.94 72.35-19.79L72.35-19.79L72.35-19.02L76.10-19.02L76.10-15.29L72.35-15.29L72.35 0ZM83.72-19.02L83.72 0L78.63 0L78.63-19.02L83.72-19.02ZM87.19-9.44L87.19-9.65Q87.19-14.03 89.27-16.70Q91.35-19.37 94.89-19.37L94.89-19.37Q98.02-19.37 99.76-17.23L99.76-17.23L99.97-19.02L104.57-19.02L104.57-0.63Q104.57 1.86 103.44 3.71Q102.30 5.55 100.25 6.52Q98.19 7.49 95.43 7.49L95.43 7.49Q93.34 7.49 91.35 6.65Q89.37 5.82 88.35 4.50L88.35 4.50L90.60 1.41Q92.50 3.53 95.20 3.53L95.20 3.53Q97.22 3.53 98.35 2.45Q99.47 1.37 99.47-0.62L99.47-0.62L99.47-1.63Q97.72 0.35 94.85 0.35L94.85 0.35Q91.42 0.35 89.31-2.33Q87.19-5.01 87.19-9.44L87.19-9.44ZM92.27-9.28L92.27-9.28Q92.27-6.70 93.30-5.23Q94.34-3.76 96.15-3.76L96.15-3.76Q98.47-3.76 99.47-5.50L99.47-5.50L99.47-13.50Q98.46-15.24 96.19-15.24L96.19-15.24Q94.36-15.24 93.31-13.75Q92.27-12.25 92.27-9.28ZM120.01 0L119.87-1.93Q117.98 0.35 114.66 0.35L114.66 0.35Q111.60 0.35 110.00-1.41Q108.39-3.16 108.35-6.56L108.35-6.56L108.35-19.02L113.43-19.02L113.43-6.73Q113.43-3.76 116.14-3.76L116.14-3.76Q118.72-3.76 119.69-5.55L119.69-5.55L119.69-19.02L124.79-19.02L124.79 0L120.01 0ZM139.38-19.14L139.31-14.26Q138.27-14.40 137.48-14.40L137.48-14.40Q134.60-14.40 133.70-12.45L133.70-12.45L133.70 0L128.62 0L128.62-19.02L133.42-19.02L133.56-16.75Q135.09-19.37 137.79-19.37L137.79-19.37Q138.64-19.37 139.38-19.14L139.38-19.14ZM150.50 0.35L150.50 0.35Q146.32 0.35 143.69-2.21Q141.06-4.78 141.06-9.05L141.06-9.05L141.06-9.54Q141.06-12.41 142.17-14.67Q143.28-16.93 145.31-18.15Q147.34-19.37 149.94-19.37L149.94-19.37Q153.84-19.37 156.08-16.91Q158.33-14.45 158.33-9.93L158.33-9.93L158.33-7.86L146.21-7.86Q146.46-5.99 147.70-4.87Q148.94-3.74 150.84-3.74L150.84-3.74Q153.77-3.74 155.43-5.87L155.43-5.87L157.92-3.08Q156.78-1.46 154.83-0.55Q152.88 0.35 150.50 0.35ZM149.92-15.26L149.92-15.26Q148.41-15.26 147.47-14.24Q146.53-13.22 146.27-11.32L146.27-11.32L153.33-11.32L153.33-11.72Q153.30-13.41 152.42-14.33Q151.54-15.26 149.92-15.26ZM173.74-19.02L177.28-7.19L180.79-19.02L186.24-19.02L178.59 2.95L178.17 3.96Q176.47 7.68 172.55 7.68L172.55 7.68Q171.44 7.68 170.30 7.35L170.30 7.35L170.30 3.50L171.07 3.52Q172.51 3.52 173.22 3.08Q173.94 2.64 174.34 1.62L174.34 1.62L174.94 0.05L168.28-19.02L173.74-19.02ZM187.45-9.46L187.45-9.69Q187.45-12.52 188.54-14.73Q189.63-16.95 191.68-18.16Q193.73-19.37 196.44-19.37L196.44-19.37Q200.29-19.37 202.72-17.02Q205.15-14.66 205.44-10.62L205.44-10.62L205.47-9.32Q205.47-4.94 203.03-2.29Q200.58 0.35 196.47 0.35Q192.36 0.35 189.91-2.29Q187.45-4.92 187.45-9.46L187.45-9.46ZM192.53-9.32L192.53-9.32Q192.53-6.61 193.55-5.18Q194.57-3.74 196.47-3.74L196.47-3.74Q198.32-3.74 199.35-5.16Q200.39-6.57 200.39-9.69L200.39-9.69Q200.39-12.34 199.35-13.80Q198.32-15.26 196.44-15.26L196.44-15.26Q194.57-15.26 193.55-13.81Q192.53-12.36 192.53-9.32ZM220.13 0L219.99-1.93Q218.11 0.35 214.79 0.35L214.79 0.35Q211.73 0.35 210.12-1.41Q208.51-3.16 208.48-6.56L208.48-6.56L208.48-19.02L213.56-19.02L213.56-6.73Q213.56-3.76 216.26-3.76L216.26-3.76Q218.85-3.76 219.81-5.55L219.81-5.55L219.81-19.02L224.91-19.02L224.91 0L220.13 0ZM239.50-19.14L239.43-14.26Q238.39-14.40 237.60-14.40L237.60-14.40Q234.72-14.40 233.82-12.45L233.82-12.45L233.82 0L228.74 0L228.74-19.02L233.54-19.02L233.68-16.75Q235.21-19.37 237.92-19.37L237.92-19.37Q238.76-19.37 239.50-19.14L239.50-19.14ZM258.75-3.74L258.75-3.74Q260.16-3.74 261.04-4.52Q261.91-5.29 261.95-6.57L261.95-6.57L266.71-6.57Q266.70-4.64 265.66-3.03Q264.62-1.42 262.82-0.54Q261.02 0.35 258.84 0.35L258.84 0.35Q254.76 0.35 252.40-2.24Q250.05-4.83 250.05-9.40L250.05-9.40L250.05-9.74Q250.05-14.13 252.39-16.75Q254.72-19.37 258.80-19.37L258.80-19.37Q262.37-19.37 264.52-17.34Q266.68-15.31 266.71-11.94L266.71-11.94L261.95-11.94Q261.91-13.41 261.04-14.33Q260.16-15.26 258.71-15.26L258.71-15.26Q256.94-15.26 256.03-13.97Q255.13-12.67 255.13-9.77L255.13-9.77L255.13-9.25Q255.13-6.31 256.03-5.03Q256.92-3.74 258.75-3.74ZM274.57-27L274.57-16.95Q276.59-19.37 279.65-19.37L279.65-19.37Q285.84-19.37 285.93-12.18L285.93-12.18L285.93 0L280.85 0L280.85-12.04Q280.85-13.68 280.14-14.46Q279.44-15.24 277.80-15.24L277.80-15.24Q275.57-15.24 274.57-13.52L274.57-13.52L274.57 0L269.49 0L269.49-27L274.57-27ZM305.91 0L300.78 0Q300.43-0.69 300.27-1.71L300.27-1.71Q298.42 0.35 295.47 0.35L295.47 0.35Q292.68 0.35 290.84-1.27Q289.00-2.88 289.00-5.34L289.00-5.34Q289.00-8.37 291.24-9.98Q293.48-11.60 297.72-11.62L297.72-11.62L300.06-11.62L300.06-12.71Q300.06-14.03 299.38-14.82Q298.71-15.61 297.25-15.61L297.25-15.61Q295.96-15.61 295.23-14.99Q294.50-14.38 294.50-13.31L294.50-13.31L289.42-13.31Q289.42-14.96 290.44-16.37Q291.46-17.77 293.33-18.57Q295.19-19.37 297.51-19.37L297.51-19.37Q301.03-19.37 303.09-17.60Q305.16-15.84 305.16-12.64L305.16-12.64L305.16-4.39Q305.17-1.69 305.91-0.30L305.91-0.30L305.91 0ZM296.58-3.53L296.58-3.53Q297.70-3.53 298.65-4.03Q299.60-4.54 300.06-5.38L300.06-5.38L300.06-8.65L298.16-8.65Q294.35-8.65 294.10-6.01L294.10-6.01L294.08-5.71Q294.08-4.76 294.75-4.15Q295.42-3.53 296.58-3.53ZM308.95-19.02L313.73-19.02L313.89-16.82Q315.93-19.37 319.36-19.37L319.36-19.37Q322.38-19.37 323.86-17.60Q325.34-15.82 325.37-12.29L325.37-12.29L325.37 0L320.29 0L320.29-12.16Q320.29-13.78 319.59-14.51Q318.88-15.24 317.25-15.24L317.25-15.24Q315.11-15.24 314.03-13.41L314.03-13.41L314.03 0L308.95 0L308.95-19.02ZM329.12-19.02L333.90-19.02L334.05-16.82Q336.09-19.37 339.52-19.37L339.52-19.37Q342.54-19.37 344.02-17.60Q345.50-15.82 345.53-12.29L345.53-12.29L345.53 0L340.45 0L340.45-12.16Q340.45-13.78 339.75-14.51Q339.05-15.24 337.41-15.24L337.41-15.24Q335.27-15.24 334.20-13.41L334.20-13.41L334.20 0L329.12 0L329.12-19.02ZM358.14 0.35L358.14 0.35Q353.95 0.35 351.33-2.21Q348.70-4.78 348.70-9.05L348.70-9.05L348.70-9.54Q348.70-12.41 349.80-14.67Q350.91-16.93 352.94-18.15Q354.97-19.37 357.57-19.37L357.57-19.37Q361.48-19.37 363.72-16.91Q365.96-14.45 365.96-9.93L365.96-9.93L365.96-7.86L353.85-7.86Q354.09-5.99 355.33-4.87Q356.57-3.74 358.47-3.74L358.47-3.74Q361.41-3.74 363.06-5.87L363.06-5.87L365.55-3.08Q364.41-1.46 362.46-0.55Q360.51 0.35 358.14 0.35ZM357.56-15.26L357.56-15.26Q356.04-15.26 355.10-14.24Q354.16-13.22 353.90-11.32L353.90-11.32L360.97-11.32L360.97-11.72Q360.93-13.41 360.05-14.33Q359.17-15.26 357.56-15.26ZM374.20-27L374.20 0L369.11 0L369.11-27L374.20-27ZM388.69-5.26L388.69-5.26Q388.69-6.19 387.76-6.72Q386.84-7.26 384.80-7.68L384.80-7.68Q378.02-9.11 378.02-13.45L378.02-13.45Q378.02-15.98 380.12-17.67Q382.22-19.37 385.61-19.37L385.61-19.37Q389.23-19.37 391.40-17.67Q393.57-15.96 393.57-13.24L393.57-13.24L388.49-13.24Q388.49-14.33 387.79-15.04Q387.09-15.75 385.59-15.75L385.59-15.75Q384.31-15.75 383.61-15.17Q382.90-14.59 382.90-13.69L382.90-13.69Q382.90-12.85 383.70-12.33Q384.50-11.81 386.40-11.43Q388.30-11.06 389.60-10.58L389.60-10.58Q393.63-9.11 393.63-5.47L393.63-5.47Q393.63-2.87 391.39-1.26Q389.16 0.35 385.63 0.35L385.63 0.35Q383.24 0.35 381.38-0.50Q379.53-1.35 378.47-2.84Q377.42-4.32 377.42-6.05L377.42-6.05L382.24-6.05Q382.31-4.69 383.24-3.97Q384.17-3.25 385.73-3.25L385.73-3.25Q387.19-3.25 387.94-3.81Q388.69-4.36 388.69-5.26Z" transform="translate(620, 565)" fill="#ffffff" /><circle cx="580" cy="630" r="6" fill="#e94560" /><path d="M7.89-25.59L7.89 0L2.62 0L2.62-25.59L7.89-25.59ZM12.34-19.02L17.12-19.02L17.28-16.82Q19.32-19.37 22.75-19.37L22.75-19.37Q25.77-19.37 27.25-17.60Q28.72-15.82 28.76-12.29L28.76-12.29L28.76 0L23.68 0L23.68-12.16Q23.68-13.78 22.97-14.51Q22.27-15.24 20.64-15.24L20.64-15.24Q18.49-15.24 17.42-13.41L17.42-13.41L17.42 0L12.34 0L12.34-19.02ZM42.91-5.26L42.91-5.26Q42.91-6.19 41.99-6.72Q41.06-7.26 39.02-7.68L39.02-7.68Q32.24-9.11 32.24-13.45L32.24-13.45Q32.24-15.98 34.34-17.67Q36.44-19.37 39.83-19.37L39.83-19.37Q43.45-19.37 45.62-17.67Q47.79-15.96 47.79-13.24L47.79-13.24L42.71-13.24Q42.71-14.33 42.01-15.04Q41.31-15.75 39.81-15.75L39.81-15.75Q38.53-15.75 37.83-15.17Q37.13-14.59 37.13-13.69L37.13-13.69Q37.13-12.85 37.92-12.33Q38.72-11.81 40.62-11.43Q42.52-11.06 43.82-10.58L43.82-10.58Q47.85-9.11 47.85-5.47L47.85-5.47Q47.85-2.87 45.62-1.26Q43.38 0.35 39.85 0.35L39.85 0.35Q37.46 0.35 35.60-0.50Q33.75-1.35 32.70-2.84Q31.64-4.32 31.64-6.05L31.64-6.05L36.46-6.05Q36.53-4.69 37.46-3.97Q38.39-3.25 39.96-3.25L39.96-3.25Q41.41-3.25 42.16-3.81Q42.91-4.36 42.91-5.26ZM52.12-23.70L57.20-23.70L57.20-19.02L60.45-19.02L60.45-15.29L57.20-15.29L57.20-5.80Q57.20-4.75 57.60-4.29Q58.01-3.83 59.15-3.83L59.15-3.83Q59.99-3.83 60.64-3.96L60.64-3.96L60.64-0.11Q59.15 0.35 57.57 0.35L57.57 0.35Q52.22 0.35 52.12-5.04L52.12-5.04L52.12-15.29L49.34-15.29L49.34-19.02L52.12-19.02L52.12-23.70ZM79.44 0L74.30 0Q73.95-0.69 73.79-1.71L73.79-1.71Q71.95 0.35 68.99 0.35L68.99 0.35Q66.20 0.35 64.36-1.27Q62.53-2.88 62.53-5.34L62.53-5.34Q62.53-8.37 64.77-9.98Q67.01-11.60 71.24-11.62L71.24-11.62L73.58-11.62L73.58-12.71Q73.58-14.03 72.91-14.82Q72.23-15.61 70.77-15.61L70.77-15.61Q69.49-15.61 68.76-14.99Q68.03-14.38 68.03-13.31L68.03-13.31L62.95-13.31Q62.95-14.96 63.97-16.37Q64.99-17.77 66.85-18.57Q68.71-19.37 71.03-19.37L71.03-19.37Q74.55-19.37 76.61-17.60Q78.68-15.84 78.68-12.64L78.68-12.64L78.68-4.39Q78.70-1.69 79.44-0.30L79.44-0.30L79.44 0ZM70.10-3.53L70.10-3.53Q71.23-3.53 72.18-4.03Q73.13-4.54 73.58-5.38L73.58-5.38L73.58-8.65L71.68-8.65Q67.87-8.65 67.62-6.01L67.62-6.01L67.61-5.71Q67.61-4.76 68.27-4.15Q68.94-3.53 70.10-3.53ZM87.94-27L87.94 0L82.85 0L82.85-27L87.94-27ZM97.49-27L97.49 0L92.39 0L92.39-27L97.49-27ZM120.94-5.26L120.94-5.26Q120.94-6.19 120.01-6.72Q119.09-7.26 117.05-7.68L117.05-7.68Q110.27-9.11 110.27-13.45L110.27-13.45Q110.27-15.98 112.37-17.67Q114.47-19.37 117.86-19.37L117.86-19.37Q121.48-19.37 123.65-17.67Q125.82-15.96 125.82-13.24L125.82-13.24L120.74-13.24Q120.74-14.33 120.04-15.04Q119.34-15.75 117.84-15.75L117.84-15.75Q116.56-15.75 115.86-15.17Q115.15-14.59 115.15-13.69L115.15-13.69Q115.15-12.85 115.95-12.33Q116.75-11.81 118.65-11.43Q120.55-11.06 121.85-10.58L121.85-10.58Q125.88-9.11 125.88-5.47L125.88-5.47Q125.88-2.87 123.64-1.26Q121.41 0.35 117.88 0.35L117.88 0.35Q115.49 0.35 113.63-0.50Q111.78-1.35 110.72-2.84Q109.67-4.32 109.67-6.05L109.67-6.05L114.49-6.05Q114.56-4.69 115.49-3.97Q116.42-3.25 117.98-3.25L117.98-3.25Q119.44-3.25 120.19-3.81Q120.94-4.36 120.94-5.26ZM140.94 0L136.05-7.63L134.23-5.80L134.23 0L129.15 0L129.15-27L134.23-27L134.23-12.04L135.21-13.31L140.08-19.02L146.18-19.02L139.31-11.09L146.78 0L140.94 0ZM153.74-19.02L153.74 0L148.64 0L148.64-19.02L153.74-19.02ZM148.34-23.94L148.34-23.94Q148.34-25.08 149.11-25.82Q149.87-26.56 151.19-26.56L151.19-26.56Q152.49-26.56 153.26-25.82Q154.04-25.08 154.04-23.94L154.04-23.94Q154.04-22.78 153.25-22.04Q152.47-21.30 151.19-21.30Q149.91-21.30 149.12-22.04Q148.34-22.78 148.34-23.94ZM163.28-27L163.28 0L158.19 0L158.19-27L163.28-27ZM172.83-27L172.83 0L167.73 0L167.73-27L172.83-27ZM187.31-5.26L187.31-5.26Q187.31-6.19 186.39-6.72Q185.47-7.26 183.43-7.68L183.43-7.68Q176.64-9.11 176.64-13.45L176.64-13.45Q176.64-15.98 178.74-17.67Q180.84-19.37 184.24-19.37L184.24-19.37Q187.86-19.37 190.03-17.67Q192.20-15.96 192.20-13.24L192.20-13.24L187.12-13.24Q187.12-14.33 186.42-15.04Q185.71-15.75 184.22-15.75L184.22-15.75Q182.94-15.75 182.23-15.17Q181.53-14.59 181.53-13.69L181.53-13.69Q181.53-12.85 182.33-12.33Q183.13-11.81 185.03-11.43Q186.93-11.06 188.23-10.58L188.23-10.58Q192.25-9.11 192.25-5.47L192.25-5.47Q192.25-2.87 190.02-1.26Q187.79 0.35 184.25 0.35L184.25 0.35Q181.86 0.35 180.01-0.50Q178.15-1.35 177.10-2.84Q176.04-4.32 176.04-6.05L176.04-6.05L180.86-6.05Q180.93-4.69 181.86-3.97Q182.79-3.25 184.36-3.25L184.36-3.25Q185.82-3.25 186.57-3.81Q187.31-4.36 187.31-5.26ZM208.07-19.02L211.61-6.21L215.14-19.02L220.45-19.02L214.03 0L209.18 0L202.76-19.02L208.07-19.02ZM228.04-19.02L228.04 0L222.94 0L222.94-19.02L228.04-19.02ZM222.64-23.94L222.64-23.94Q222.64-25.08 223.41-25.82Q224.17-26.56 225.49-26.56L225.49-26.56Q226.79-26.56 227.57-25.82Q228.34-25.08 228.34-23.94L228.34-23.94Q228.34-22.78 227.56-22.04Q226.78-21.30 225.49-21.30Q224.21-21.30 223.43-22.04Q222.64-22.78 222.64-23.94ZM248.38 0L243.25 0Q242.89-0.69 242.74-1.71L242.74-1.71Q240.89 0.35 237.94 0.35L237.94 0.35Q235.14 0.35 233.31-1.27Q231.47-2.88 231.47-5.34L231.47-5.34Q231.47-8.37 233.71-9.98Q235.95-11.60 240.19-11.62L240.19-11.62L242.53-11.62L242.53-12.71Q242.53-14.03 241.85-14.82Q241.17-15.61 239.71-15.61L239.71-15.61Q238.43-15.61 237.70-14.99Q236.97-14.38 236.97-13.31L236.97-13.31L231.89-13.31Q231.89-14.96 232.91-16.37Q233.93-17.77 235.79-18.57Q237.66-19.37 239.98-19.37L239.98-19.37Q243.49-19.37 245.56-17.60Q247.62-15.84 247.62-12.64L247.62-12.64L247.62-4.39Q247.64-1.69 248.38-0.30L248.38-0.30L248.38 0ZM239.04-3.53L239.04-3.53Q240.17-3.53 241.12-4.03Q242.07-4.54 242.53-5.38L242.53-5.38L242.53-8.65L240.63-8.65Q236.81-8.65 236.57-6.01L236.57-6.01L236.55-5.71Q236.55-4.76 237.22-4.15Q237.88-3.53 239.04-3.53ZM275.64-8.53L280.92-8.53Q280.62-4.39 277.87-2.02Q275.12 0.35 270.62 0.35L270.62 0.35Q265.69 0.35 262.87-2.96Q260.05-6.28 260.05-12.06L260.05-12.06L260.05-13.62Q260.05-17.31 261.35-20.13Q262.65-22.94 265.07-24.44Q267.49-25.95 270.69-25.95L270.69-25.95Q275.12-25.95 277.82-23.57Q280.53-21.20 280.95-16.91L280.95-16.91L275.68-16.91Q275.48-19.39 274.30-20.50Q273.11-21.62 270.69-21.62L270.69-21.62Q268.05-21.62 266.74-19.73Q265.43-17.84 265.39-13.87L265.39-13.87L265.39-11.94Q265.39-7.79 266.65-5.87Q267.91-3.96 270.62-3.96L270.62-3.96Q273.06-3.96 274.26-5.07Q275.47-6.19 275.64-8.53L275.64-8.53ZM289.41-27L289.41 0L284.31 0L284.31-27L289.41-27ZM309.74 0L304.61 0Q304.26-0.69 304.10-1.71L304.10-1.71Q302.26 0.35 299.30 0.35L299.30 0.35Q296.51 0.35 294.67-1.27Q292.83-2.88 292.83-5.34L292.83-5.34Q292.83-8.37 295.08-9.98Q297.32-11.60 301.55-11.62L301.55-11.62L303.89-11.62L303.89-12.71Q303.89-14.03 303.21-14.82Q302.54-15.61 301.08-15.61L301.08-15.61Q299.79-15.61 299.07-14.99Q298.34-14.38 298.34-13.31L298.34-13.31L293.26-13.31Q293.26-14.96 294.28-16.37Q295.29-17.77 297.16-18.57Q299.02-19.37 301.34-19.37L301.34-19.37Q304.86-19.37 306.92-17.60Q308.99-15.84 308.99-12.64L308.99-12.64L308.99-4.39Q309.01-1.69 309.74-0.30L309.74-0.30L309.74 0ZM300.41-3.53L300.41-3.53Q301.54-3.53 302.48-4.03Q303.43-4.54 303.89-5.38L303.89-5.38L303.89-8.65L301.99-8.65Q298.18-8.65 297.93-6.01L297.93-6.01L297.91-5.71Q297.91-4.76 298.58-4.15Q299.25-3.53 300.41-3.53ZM325.97-19.02L329.43-6.91L331.93-19.02L336.83-19.02L331.98 0L327.73 0L324.12-11.97L320.52 0L316.28 0L311.43-19.02L316.34-19.02L318.81-6.93L322.29-19.02L325.97-19.02ZM360.51-25.59L360.51 0L355.24 0L355.24-10.97L344.95-10.97L344.95 0L339.68 0L339.68-25.59L344.95-25.59L344.95-15.22L355.24-15.22L355.24-25.59L360.51-25.59ZM376.31 0L376.17-1.93Q374.29 0.35 370.97 0.35L370.97 0.35Q367.91 0.35 366.30-1.41Q364.69-3.16 364.66-6.56L364.66-6.56L364.66-19.02L369.74-19.02L369.74-6.73Q369.74-3.76 372.45-3.76L372.45-3.76Q375.03-3.76 376.00-5.55L376.00-5.55L376.00-19.02L381.09-19.02L381.09 0L376.31 0ZM402.06-9.62L402.06-9.33Q402.06-4.76 400.11-2.21Q398.16 0.35 394.66 0.35L394.66 0.35Q391.57 0.35 389.72-2.02L389.72-2.02L389.50 0L384.93 0L384.93-27L390.01-27L390.01-17.31Q391.76-19.37 394.63-19.37L394.63-19.37Q398.11-19.37 400.09-16.81Q402.06-14.26 402.06-9.62L402.06-9.62ZM396.98-9.70L396.98-9.70Q396.98-12.59 396.07-13.91Q395.16-15.24 393.35-15.24L393.35-15.24Q390.92-15.24 390.01-13.25L390.01-13.25L390.01-5.75Q390.94-3.74 393.38-3.74L393.38-3.74Q395.84-3.74 396.62-6.17L396.62-6.17Q396.98-7.33 396.98-9.70Z" transform="translate(620, 630)" fill="#ffffff" /><circle cx="580" cy="695" r="6" fill="#e94560" /><path d="M15.56-6.71L15.56-6.71Q15.56-8.21 14.50-9.01Q13.45-9.81 10.71-10.70Q7.96-11.58 6.36-12.45L6.36-12.45Q2.00-14.80 2.00-18.79L2.00-18.79Q2.00-20.87 3.17-22.49Q4.34-24.12 6.53-25.03Q8.72-25.95 11.44-25.95L11.44-25.95Q14.19-25.95 16.33-24.95Q18.47-23.96 19.66-22.15Q20.85-20.34 20.85-18.04L20.85-18.04L15.57-18.04Q15.57-19.79 14.47-20.77Q13.36-21.74 11.36-21.74L11.36-21.74Q9.42-21.74 8.35-20.93Q7.28-20.11 7.28-18.77L7.28-18.77Q7.28-17.53 8.53-16.68Q9.79-15.84 12.23-15.10L12.23-15.10Q16.73-13.75 18.79-11.74Q20.85-9.74 20.85-6.75L20.85-6.75Q20.85-3.43 18.33-1.54Q15.82 0.35 11.57 0.35L11.57 0.35Q8.61 0.35 6.19-0.73Q3.76-1.81 2.49-3.69Q1.21-5.57 1.21-8.05L1.21-8.05L6.50-8.05Q6.50-3.81 11.57-3.81L11.57-3.81Q13.45-3.81 14.50-4.58Q15.56-5.34 15.56-6.71ZM25.08-23.70L30.16-23.70L30.16-19.02L33.42-19.02L33.42-15.29L30.16-15.29L30.16-5.80Q30.16-4.75 30.57-4.29Q30.97-3.83 32.12-3.83L32.12-3.83Q32.96-3.83 33.61-3.96L33.61-3.96L33.61-0.11Q32.12 0.35 30.53 0.35L30.53 0.35Q25.19 0.35 25.08-5.04L25.08-5.04L25.08-15.29L22.31-15.29L22.31-19.02L25.08-19.02L25.08-23.70ZM52.40 0L47.27 0Q46.92-0.69 46.76-1.71L46.76-1.71Q44.91 0.35 41.96 0.35L41.96 0.35Q39.16 0.35 37.33-1.27Q35.49-2.88 35.49-5.34L35.49-5.34Q35.49-8.37 37.73-9.98Q39.97-11.60 44.21-11.62L44.21-11.62L46.55-11.62L46.55-12.71Q46.55-14.03 45.87-14.82Q45.19-15.61 43.73-15.61L43.73-15.61Q42.45-15.61 41.72-14.99Q40.99-14.38 40.99-13.31L40.99-13.31L35.91-13.31Q35.91-14.96 36.93-16.37Q37.95-17.77 39.81-18.57Q41.68-19.37 44.00-19.37L44.00-19.37Q47.51-19.37 49.58-17.60Q51.64-15.84 51.64-12.64L51.64-12.64L51.64-4.39Q51.66-1.69 52.40-0.30L52.40-0.30L52.40 0ZM43.07-3.53L43.07-3.53Q44.19-3.53 45.14-4.03Q46.09-4.54 46.55-5.38L46.55-5.38L46.55-8.65L44.65-8.65Q40.83-8.65 40.59-6.01L40.59-6.01L40.57-5.71Q40.57-4.76 41.24-4.15Q41.91-3.53 43.07-3.53ZM66.30-19.14L66.23-14.26Q65.20-14.40 64.41-14.40L64.41-14.40Q61.52-14.40 60.63-12.45L60.63-12.45L60.63 0L55.55 0L55.55-19.02L60.35-19.02L60.49-16.75Q62.02-19.37 64.72-19.37L64.72-19.37Q65.57-19.37 66.30-19.14L66.30-19.14ZM69.68-23.70L74.76-23.70L74.76-19.02L78.01-19.02L78.01-15.29L74.76-15.29L74.76-5.80Q74.76-4.75 75.16-4.29Q75.57-3.83 76.71-3.83L76.71-3.83Q77.55-3.83 78.21-3.96L78.21-3.96L78.21-0.11Q76.71 0.35 75.13 0.35L75.13 0.35Q69.79 0.35 69.68-5.04L69.68-5.04L69.68-15.29L66.90-15.29L66.90-19.02L69.68-19.02L69.68-23.70ZM105.96 0L100.83 0Q100.48-0.69 100.32-1.71L100.32-1.71Q98.47 0.35 95.52 0.35L95.52 0.35Q92.72 0.35 90.89-1.27Q89.05-2.88 89.05-5.34L89.05-5.34Q89.05-8.37 91.29-9.98Q93.53-11.60 97.77-11.62L97.77-11.62L100.11-11.62L100.11-12.71Q100.11-14.03 99.43-14.82Q98.75-15.61 97.29-15.61L97.29-15.61Q96.01-15.61 95.28-14.99Q94.55-14.38 94.55-13.31L94.55-13.31L89.47-13.31Q89.47-14.96 90.49-16.37Q91.51-17.77 93.38-18.57Q95.24-19.37 97.56-19.37L97.56-19.37Q101.07-19.37 103.14-17.60Q105.21-15.84 105.21-12.64L105.21-12.64L105.21-4.39Q105.22-1.69 105.96-0.30L105.96-0.30L105.96 0ZM96.63-3.53L96.63-3.53Q97.75-3.53 98.70-4.03Q99.65-4.54 100.11-5.38L100.11-5.38L100.11-8.65L98.21-8.65Q94.39-8.65 94.15-6.01L94.15-6.01L94.13-5.71Q94.13-4.76 94.80-4.15Q95.47-3.53 96.63-3.53ZM120.64 0L120.50-1.93Q118.62 0.35 115.29 0.35L115.29 0.35Q112.24 0.35 110.63-1.41Q109.02-3.16 108.98-6.56L108.98-6.56L108.98-19.02L114.06-19.02L114.06-6.73Q114.06-3.76 116.77-3.76L116.77-3.76Q119.36-3.76 120.32-5.55L120.32-5.55L120.32-19.02L125.42-19.02L125.42 0L120.64 0ZM130.25-23.70L135.33-23.70L135.33-19.02L138.59-19.02L138.59-15.29L135.33-15.29L135.33-5.80Q135.33-4.75 135.74-4.29Q136.14-3.83 137.29-3.83L137.29-3.83Q138.13-3.83 138.78-3.96L138.78-3.96L138.78-0.11Q137.29 0.35 135.70 0.35L135.70 0.35Q130.36 0.35 130.25-5.04L130.25-5.04L130.25-15.29L127.48-15.29L127.48-19.02L130.25-19.02L130.25-23.70ZM140.63-9.46L140.63-9.69Q140.63-12.52 141.71-14.73Q142.80-16.95 144.85-18.16Q146.90-19.37 149.61-19.37L149.61-19.37Q153.46-19.37 155.89-17.02Q158.33-14.66 158.61-10.62L158.61-10.62L158.64-9.32Q158.64-4.94 156.20-2.29Q153.76 0.35 149.64 0.35Q145.53 0.35 143.08-2.29Q140.63-4.92 140.63-9.46L140.63-9.46ZM145.71-9.32L145.71-9.32Q145.71-6.61 146.72-5.18Q147.74-3.74 149.64-3.74L149.64-3.74Q151.49-3.74 152.53-5.16Q153.56-6.57 153.56-9.69L153.56-9.69Q153.56-12.34 152.53-13.80Q151.49-15.26 149.61-15.26L149.61-15.26Q147.74-15.26 146.72-13.81Q145.71-12.36 145.71-9.32ZM161.77-19.02L166.54-19.02L166.69-16.89Q168.71-19.37 172.16-19.37L172.16-19.37Q175.83-19.37 177.21-16.47L177.21-16.47Q179.21-19.37 182.92-19.37L182.92-19.37Q186.01-19.37 187.52-17.57Q189.04-15.77 189.04-12.15L189.04-12.15L189.04 0L183.94 0L183.94-12.13Q183.94-13.75 183.30-14.49Q182.67-15.24 181.07-15.24L181.07-15.24Q178.79-15.24 177.91-13.06L177.91-13.06L177.93 0L172.85 0L172.85-12.11Q172.85-13.76 172.20-14.50Q171.54-15.24 169.98-15.24L169.98-15.24Q167.82-15.24 166.85-13.45L166.85-13.45L166.85 0L161.77 0L161.77-19.02ZM209.09 0L203.96 0Q203.61-0.69 203.45-1.71L203.45-1.71Q201.60 0.35 198.65 0.35L198.65 0.35Q195.86 0.35 194.02-1.27Q192.18-2.88 192.18-5.34L192.18-5.34Q192.18-8.37 194.42-9.98Q196.66-11.60 200.90-11.62L200.90-11.62L203.24-11.62L203.24-12.71Q203.24-14.03 202.56-14.82Q201.88-15.61 200.43-15.61L200.43-15.61Q199.14-15.61 198.41-14.99Q197.68-14.38 197.68-13.31L197.68-13.31L192.60-13.31Q192.60-14.96 193.62-16.37Q194.64-17.77 196.51-18.57Q198.37-19.37 200.69-19.37L200.69-19.37Q204.21-19.37 206.27-17.60Q208.34-15.84 208.34-12.64L208.34-12.64L208.34-4.39Q208.35-1.69 209.09-0.30L209.09-0.30L209.09 0ZM199.76-3.53L199.76-3.53Q200.88-3.53 201.83-4.03Q202.78-4.54 203.24-5.38L203.24-5.38L203.24-8.65L201.34-8.65Q197.53-8.65 197.28-6.01L197.28-6.01L197.26-5.71Q197.26-4.76 197.93-4.15Q198.60-3.53 199.76-3.53ZM213.24-23.70L218.32-23.70L218.32-19.02L221.57-19.02L221.57-15.29L218.32-15.29L218.32-5.80Q218.32-4.75 218.72-4.29Q219.13-3.83 220.27-3.83L220.27-3.83Q221.12-3.83 221.77-3.96L221.77-3.96L221.77-0.11Q220.27 0.35 218.69 0.35L218.69 0.35Q213.35 0.35 213.24-5.04L213.24-5.04L213.24-15.29L210.46-15.29L210.46-19.02L213.24-19.02L213.24-23.70ZM229.76-19.02L229.76 0L224.67 0L224.67-19.02L229.76-19.02ZM224.37-23.94L224.37-23.94Q224.37-25.08 225.13-25.82Q225.90-26.56 227.21-26.56L227.21-26.56Q228.52-26.56 229.29-25.82Q230.06-25.08 230.06-23.94L230.06-23.94Q230.06-22.78 229.28-22.04Q228.50-21.30 227.21-21.30Q225.93-21.30 225.15-22.04Q224.37-22.78 224.37-23.94ZM233.84-19.02L238.62-19.02L238.78-16.82Q240.82-19.37 244.25-19.37L244.25-19.37Q247.27-19.37 248.75-17.60Q250.22-15.82 250.26-12.29L250.26-12.29L250.26 0L245.18 0L245.18-12.16Q245.18-13.78 244.48-14.51Q243.77-15.24 242.14-15.24L242.14-15.24Q239.99-15.24 238.92-13.41L238.92-13.41L238.92 0L233.84 0L233.84-19.02ZM253.37-9.44L253.37-9.65Q253.37-14.03 255.45-16.70Q257.54-19.37 261.07-19.37L261.07-19.37Q264.20-19.37 265.94-17.23L265.94-17.23L266.15-19.02L270.76-19.02L270.76-0.63Q270.76 1.86 269.62 3.71Q268.49 5.55 266.43 6.52Q264.38 7.49 261.62 7.49L261.62 7.49Q259.52 7.49 257.54 6.65Q255.55 5.82 254.53 4.50L254.53 4.50L256.78 1.41Q258.68 3.53 261.39 3.53L261.39 3.53Q263.41 3.53 264.53 2.45Q265.66 1.37 265.66-0.62L265.66-0.62L265.66-1.63Q263.90 0.35 261.04 0.35L261.04 0.35Q257.61 0.35 255.49-2.33Q253.37-5.01 253.37-9.44L253.37-9.44ZM258.45-9.28L258.45-9.28Q258.45-6.70 259.49-5.23Q260.53-3.76 262.34-3.76L262.34-3.76Q264.66-3.76 265.66-5.50L265.66-5.50L265.66-13.50Q264.64-15.24 262.37-15.24L262.37-15.24Q260.54-15.24 259.50-13.75Q258.45-12.25 258.45-9.28ZM280.42-25.59L279.83-7.86L275.61-7.86L275.01-25.59L280.42-25.59ZM277.72-5.08L277.72-5.08Q279-5.08 279.78-4.32Q280.56-3.57 280.56-2.39L280.56-2.39Q280.56-1.23 279.78-0.47Q279 0.28 277.72 0.28L277.72 0.28Q276.45 0.28 275.67-0.47Q274.89-1.23 274.89-2.39Q274.89-3.55 275.67-4.32Q276.45-5.08 277.72-5.08Z" transform="translate(620, 695)" fill="#ffffff" />
  <text x="960" y="1040" font-family="Arial, sans-serif" font-size="20" fill="#666" text-anchor="middle">OpenClaw Documentation</text>
</svg>