<?xml version="1.0" encoding="UTF-8"?>
<svg width="1920" height="1080" xmlns="http://www.w3.org/2000/svg">
  <defs>
    <linearGradient id="bg" x1="0%" y1="0%" x2="100%" y2="100%">
      <stop offset="0%" style="stop-color:#1a1a2e;stop-opacity:1" />
      <stop offset="100%" style="stop-color:#000008;stop-opacity:1" />
    </linearGradient>
    <linearGradient id="accent" x1="0%" y1="0%" x2="100%" y2="0%">
      <stop offset="0%" style="stop-color:#e94560;stop-opacity:1" />
      <stop offset="100%" style="stop-color:#ff92ad;stop-opacity:1" />
    </linearGradient>
    <filter id="glow">
      <feGaussianBlur stdDeviation="3" result="coloredBlur"/>
      <feMerge><feMergeNode in="coloredBlur"/><feMergeNode in="SourceGraphic"/></feMerge>
    </filter>
  </defs>
  <rect width="100%" height="100%" fill="url(#bg)"/>
  <circle cx="1920" cy="0" r="700" fill="#e94560" opacity="0.08"/>
  <circle cx="0" cy="1080" r="500" fill="#ff92ad" opacity="0.06"/>
  <rect width="1920" height="6" fill="url(#accent)"/>
  <path d="M19.95-9.95L26.11-9.95Q25.76-5.13 22.55-2.36Q19.34 0.41 14.09 0.41L14.09 0.41Q8.35 0.41 5.06-3.46Q1.76-7.32 1.76-14.07L1.76-14.07L1.76-15.89Q1.76-20.20 3.28-23.48Q4.80-26.76 7.62-28.52Q10.44-30.27 14.17-30.27L14.17-30.27Q19.34-30.27 22.50-27.50Q25.66-24.73 26.15-19.73L26.15-19.73L20.00-19.73Q19.77-22.62 18.39-23.92Q17.00-25.22 14.17-25.22L14.17-25.22Q11.09-25.22 9.57-23.02Q8.04-20.82 8.00-16.18L8.00-16.18L8.00-13.92Q8.00-9.08 9.46-6.85Q10.93-4.61 14.09-4.61L14.09-4.61Q16.94-4.61 18.34-5.92Q19.75-7.22 19.95-9.95L19.95-9.95ZM35.54-31.50L35.54-19.77Q37.90-22.60 41.47-22.60L41.47-22.60Q48.69-22.60 48.79-14.21L48.79-14.21L48.79 0L42.86 0L42.86-14.05Q42.86-15.96 42.04-16.87Q41.22-17.78 39.31-17.78L39.31-17.78Q36.71-17.78 35.54-15.77L35.54-15.77L35.54 0L29.61 0L29.61-31.50L35.54-31.50ZM72.11 0L66.12 0Q65.71-0.80 65.52-1.99L65.52-1.99Q63.37 0.41 59.92 0.41L59.92 0.41Q56.66 0.41 54.52-1.48Q52.38-3.36 52.38-6.23L52.38-6.23Q52.38-9.76 54.99-11.65Q57.61-13.54 62.55-13.56L62.55-13.56L65.28-13.56L65.28-14.83Q65.28-16.37 64.49-17.29Q63.70-18.21 62.00-18.21L62.00-18.21Q60.50-18.21 59.65-17.49Q58.80-16.78 58.80-15.52L58.80-15.52L52.87-15.52Q52.87-17.45 54.06-19.09Q55.25-20.73 57.42-21.67Q59.60-22.60 62.30-22.60L62.30-22.60Q66.40-22.60 68.81-20.54Q71.22-18.48 71.22-14.75L71.22-14.75L71.22-5.13Q71.24-1.97 72.11-0.35L72.11-0.35L72.11 0ZM61.22-4.12L61.22-4.12Q62.53-4.12 63.64-4.71Q64.74-5.29 65.28-6.28L65.28-6.28L65.28-10.09L63.06-10.09Q58.61-10.09 58.32-7.01L58.32-7.01L58.30-6.67Q58.30-5.56 59.08-4.84Q59.86-4.12 61.22-4.12ZM75.65-22.19L81.23-22.19L81.42-19.63Q83.79-22.60 87.79-22.60L87.79-22.60Q91.32-22.60 93.04-20.53Q94.77-18.46 94.81-14.33L94.81-14.33L94.81 0L88.88 0L88.88-14.19Q88.88-16.08 88.06-16.93Q87.24-17.78 85.33-17.78L85.33-17.78Q82.83-17.78 81.58-15.65L81.58-15.65L81.58 0L75.65 0L75.65-22.19ZM116.98-9.95L123.13-9.95Q122.78-5.13 119.57-2.36Q116.36 0.41 111.11 0.41L111.11 0.41Q105.37 0.41 102.08-3.46Q98.79-7.32 98.79-14.07L98.79-14.07L98.79-15.89Q98.79-20.20 100.30-23.48Q101.82-26.76 104.64-28.52Q107.46-30.27 111.19-30.27L111.19-30.27Q116.36-30.27 119.52-27.50Q122.68-24.73 123.17-19.73L123.17-19.73L117.02-19.73Q116.79-22.62 115.41-23.92Q114.02-25.22 111.19-25.22L111.19-25.22Q108.12-25.22 106.59-23.02Q105.06-20.82 105.02-16.18L105.02-16.18L105.02-13.92Q105.02-9.08 106.49-6.85Q107.95-4.61 111.11-4.61L111.11-4.61Q113.96-4.61 115.37-5.92Q116.77-7.22 116.98-9.95L116.98-9.95ZM133.03-31.50L133.03 0L127.09 0L127.09-31.50L133.03-31.50ZM156.76 0L150.77 0Q150.36-0.80 150.18-1.99L150.18-1.99Q148.03 0.41 144.58 0.41L144.58 0.41Q141.32 0.41 139.18-1.48Q137.03-3.36 137.03-6.23L137.03-6.23Q137.03-9.76 139.65-11.65Q142.26-13.54 147.21-13.56L147.21-13.56L149.93-13.56L149.93-14.83Q149.93-16.37 149.14-17.29Q148.35-18.21 146.65-18.21L146.65-18.21Q145.15-18.21 144.30-17.49Q143.45-16.78 143.45-15.52L143.45-15.52L137.53-15.52Q137.53-17.45 138.71-19.09Q139.90-20.73 142.08-21.67Q144.25-22.60 146.96-22.60L146.96-22.60Q151.06-22.60 153.47-20.54Q155.88-18.48 155.88-14.75L155.88-14.75L155.88-5.13Q155.90-1.97 156.76-0.35L156.76-0.35L156.76 0ZM145.87-4.12L145.87-4.12Q147.18-4.12 148.29-4.71Q149.40-5.29 149.93-6.28L149.93-6.28L149.93-10.09L147.72-10.09Q143.27-10.09 142.98-7.01L142.98-7.01L142.96-6.67Q142.96-5.56 143.74-4.84Q144.52-4.12 145.87-4.12ZM175.69-22.19L179.73-8.06L182.64-22.19L188.36-22.19L182.70 0L177.74 0L173.54-13.97L169.33 0L164.39 0L158.73-22.19L164.45-22.19L167.34-8.08L171.40-22.19L175.69-22.19Z" transform="translate(50, 70)" fill="#e94560" />
  <text x="1870" y="70" font-family="Arial, sans-serif" font-size="24" fill="#888" text-anchor="end">4 / 10</text>
  <path d="M46.23-51.19L46.23 0L35.68 0L35.68-21.94L15.12-21.94L15.12 0L4.57 0L4.57-51.19L15.12-51.19L15.12-30.45L35.68-30.45L35.68-51.19L46.23-51.19ZM53.19-18.91L53.19-19.37Q53.19-25.03 55.37-29.46Q57.55-33.89 61.65-36.32Q65.74-38.74 71.16-38.74L71.16-38.74Q78.86-38.74 83.72-34.03Q88.59-29.32 89.16-21.23L89.16-21.23L89.23-18.63Q89.23-9.88 84.34-4.59Q79.45 0.70 71.23 0.70Q63 0.70 58.10-4.57Q53.19-9.84 53.19-18.91L53.19-18.91ZM63.35-18.63L63.35-18.63Q63.35-13.22 65.39-10.35Q67.43-7.49 71.23-7.49L71.23-7.49Q74.92-7.49 76.99-10.32Q79.07-13.15 79.07-19.37L79.07-19.37Q79.07-24.68 76.99-27.60Q74.92-30.52 71.16-30.52L71.16-30.52Q67.43-30.52 65.39-27.62Q63.35-24.71 63.35-18.63ZM121.64-38.04L128.57-13.82L133.56-38.04L143.37-38.04L133.66 0L125.16 0L117.95-23.94L110.74 0L102.27 0L92.57-38.04L102.38-38.04L107.33-13.85L114.29-38.04L121.64-38.04ZM178.21-51.19L178.21 0L167.66 0L167.66-51.19L178.21-51.19ZM189.32-47.39L199.48-47.39L199.48-38.04L205.98-38.04L205.98-30.59L199.48-30.59L199.48-11.60Q199.48-9.49 200.29-8.58Q201.09-7.66 203.38-7.66L203.38-7.66Q205.07-7.66 206.37-7.91L206.37-7.91L206.37-0.21Q203.38 0.70 200.21 0.70L200.21 0.70Q189.53 0.70 189.32-10.09L189.32-10.09L189.32-30.59L183.76-30.59L183.76-38.04L189.32-38.04L189.32-47.39ZM261.70-51.19L270.11-14.77L277.00-51.19L287.51-51.19L276.15 0L265.54 0L257.20-34.24L248.87 0L238.25 0L226.90-51.19L237.41-51.19L244.34-14.84L252.77-51.19L261.70-51.19ZM290.95-18.91L290.95-19.37Q290.95-25.03 293.13-29.46Q295.31-33.89 299.41-36.32Q303.50-38.74 308.92-38.74L308.92-38.74Q316.62-38.74 321.49-34.03Q326.36-29.32 326.92-21.23L326.92-21.23L326.99-18.63Q326.99-9.88 322.10-4.59Q317.21 0.70 308.99 0.70Q300.76 0.70 295.86-4.57Q290.95-9.84 290.95-18.91L290.95-18.91ZM301.11-18.63L301.11-18.63Q301.11-13.22 303.15-10.35Q305.19-7.49 308.99-7.49L308.99-7.49Q312.68-7.49 314.75-10.32Q316.83-13.15 316.83-19.37L316.83-19.37Q316.83-24.68 314.75-27.60Q312.68-30.52 308.92-30.52L308.92-30.52Q305.19-30.52 303.15-27.62Q301.11-24.71 301.11-18.63ZM354.76-38.29L354.62-28.51Q352.55-28.79 350.96-28.79L350.96-28.79Q345.20-28.79 343.41-24.89L343.41-24.89L343.41 0L333.25 0L333.25-38.04L342.84-38.04L343.13-33.50Q346.18-38.74 351.60-38.74L351.60-38.74Q353.29-38.74 354.76-38.29L354.76-38.29ZM383.10 0L373.32-15.26L369.67-11.60L369.67 0L359.51 0L359.51-54L369.67-54L369.67-24.08L371.64-26.61L381.38-38.04L393.57-38.04L379.83-22.18L394.77 0L383.10 0ZM418.57-10.51L418.57-10.51Q418.57-12.38 416.72-13.45Q414.88-14.52 410.80-15.36L410.80-15.36Q397.23-18.21 397.23-26.89L397.23-26.89Q397.23-31.96 401.43-35.35Q405.63-38.74 412.42-38.74L412.42-38.74Q419.66-38.74 424.00-35.33Q428.34-31.92 428.34-26.47L428.34-26.47L418.18-26.47Q418.18-28.65 416.78-30.08Q415.37-31.50 412.38-31.50L412.38-31.50Q409.82-31.50 408.41-30.34Q407.00-29.18 407.00-27.39L407.00-27.39Q407.00-25.70 408.60-24.66Q410.20-23.63 414-22.87Q417.80-22.11 420.40-21.16L420.40-21.16Q428.45-18.21 428.45-10.93L428.45-10.93Q428.45-5.73 423.98-2.51Q419.52 0.70 412.45 0.70L412.45 0.70Q407.67 0.70 403.96-1.00Q400.25-2.71 398.14-5.68Q396.04-8.65 396.04-12.09L396.04-12.09L405.67-12.09Q405.81-9.39 407.67-7.95Q409.54-6.50 412.66-6.50L412.66-6.50Q415.58-6.50 417.08-7.61Q418.57-8.72 418.57-10.51Z" transform="translate(744.45703125, 380)" fill="#ffffff" />
  <line x1="760" y1="430" x2="1160" y2="430" stroke="#e94560" stroke-width="4"/>
  <circle cx="580" cy="500" r="6" fill="#e94560" /><path d="M16.56 0L11.76-9.37L7.56-9.37L7.56 0L2.29 0L2.29-25.59L11.79-25.59Q16.33-25.59 18.79-23.57Q21.25-21.55 21.25-17.86L21.25-17.86Q21.25-15.24 20.12-13.49Q18.98-11.74 16.68-10.71L16.68-10.71L22.22-0.25L22.22 0L16.56 0ZM7.56-21.32L7.56-13.64L11.81-13.64Q13.80-13.64 14.89-14.65Q15.98-15.66 15.98-17.44L15.98-17.44Q15.98-19.25 14.95-20.29Q13.92-21.32 11.79-21.32L11.79-21.32L7.56-21.32ZM36.46 0L36.32-1.93Q34.44 0.35 31.11 0.35L31.11 0.35Q28.05 0.35 26.45-1.41Q24.84-3.16 24.80-6.56L24.80-6.56L24.80-19.02L29.88-19.02L29.88-6.73Q29.88-3.76 32.59-3.76L32.59-3.76Q35.17-3.76 36.14-5.55L36.14-5.55L36.14-19.02L41.24-19.02L41.24 0L36.46 0ZM44.96-19.02L49.75-19.02L49.90-16.82Q51.94-19.37 55.37-19.37L55.37-19.37Q58.39-19.37 59.87-17.60Q61.35-15.82 61.38-12.29L61.38-12.29L61.38 0L56.30 0L56.30-12.16Q56.30-13.78 55.60-14.51Q54.90-15.24 53.26-15.24L53.26-15.24Q51.12-15.24 50.04-13.41L50.04-13.41L50.04 0L44.96 0L44.96-19.02ZM75.53-5.26L75.53-5.26Q75.53-6.19 74.61-6.72Q73.69-7.26 71.65-7.68L71.65-7.68Q64.86-9.11 64.86-13.45L64.86-13.45Q64.86-15.98 66.96-17.67Q69.06-19.37 72.46-19.37L72.46-19.37Q76.08-19.37 78.25-17.67Q80.42-15.96 80.42-13.24L80.42-13.24L75.34-13.24Q75.34-14.33 74.64-15.04Q73.93-15.75 72.44-15.75L72.44-15.75Q71.16-15.75 70.45-15.17Q69.75-14.59 69.75-13.69L69.75-13.69Q69.75-12.85 70.55-12.33Q71.35-11.81 73.25-11.43Q75.15-11.06 76.45-10.58L76.45-10.58Q80.47-9.11 80.47-5.47L80.47-5.47Q80.47-2.87 78.24-1.26Q76.01 0.35 72.47 0.35L72.47 0.35Q70.08 0.35 68.23-0.50Q66.38-1.35 65.32-2.84Q64.27-4.32 64.27-6.05L64.27-6.05L69.08-6.05Q69.15-4.69 70.08-3.97Q71.02-3.25 72.58-3.25L72.58-3.25Q74.04-3.25 74.79-3.81Q75.53-4.36 75.53-5.26ZM108.86 0L103.73 0Q103.38-0.69 103.22-1.71L103.22-1.71Q101.37 0.35 98.42 0.35L98.42 0.35Q95.63 0.35 93.79-1.27Q91.95-2.88 91.95-5.34L91.95-5.34Q91.95-8.37 94.19-9.98Q96.43-11.60 100.67-11.62L100.67-11.62L103.01-11.62L103.01-12.71Q103.01-14.03 102.33-14.82Q101.65-15.61 100.20-15.61L100.20-15.61Q98.91-15.61 98.18-14.99Q97.45-14.38 97.45-13.31L97.45-13.31L92.37-13.31Q92.37-14.96 93.39-16.37Q94.41-17.77 96.28-18.57Q98.14-19.37 100.46-19.37L100.46-19.37Q103.97-19.37 106.04-17.60Q108.11-15.84 108.11-12.64L108.11-12.64L108.11-4.39Q108.12-1.69 108.86-0.30L108.86-0.30L108.86 0ZM99.53-3.53L99.53-3.53Q100.65-3.53 101.60-4.03Q102.55-4.54 103.01-5.38L103.01-5.38L103.01-8.65L101.11-8.65Q97.29-8.65 97.05-6.01L97.05-6.01L97.03-5.71Q97.03-4.76 97.70-4.15Q98.37-3.53 99.53-3.53ZM122.31-5.26L122.31-5.26Q122.31-6.19 121.39-6.72Q120.46-7.26 118.42-7.68L118.42-7.68Q111.64-9.11 111.64-13.45L111.64-13.45Q111.64-15.98 113.74-17.67Q115.84-19.37 119.23-19.37L119.23-19.37Q122.85-19.37 125.02-17.67Q127.20-15.96 127.20-13.24L127.20-13.24L122.12-13.24Q122.12-14.33 121.41-15.04Q120.71-15.75 119.21-15.75L119.21-15.75Q117.93-15.75 117.23-15.17Q116.53-14.59 116.53-13.69L116.53-13.69Q116.53-12.85 117.33-12.33Q118.13-11.81 120.02-11.43Q121.92-11.06 123.22-10.58L123.22-10.58Q127.25-9.11 127.25-5.47L127.25-5.47Q127.25-2.87 125.02-1.26Q122.78 0.35 119.25 0.35L119.25 0.35Q116.86 0.35 115.00-0.50Q113.15-1.35 112.10-2.84Q111.04-4.32 111.04-6.05L111.04-6.05L115.86-6.05Q115.93-4.69 116.86-3.97Q117.79-3.25 119.36-3.25L119.36-3.25Q120.81-3.25 121.56-3.81Q122.31-4.36 122.31-5.26ZM138.74-9.44L138.74-9.65Q138.74-14.03 140.83-16.70Q142.91-19.37 146.44-19.37L146.44-19.37Q149.57-19.37 151.31-17.23L151.31-17.23L151.52-19.02L156.13-19.02L156.13-0.63Q156.13 1.86 155.00 3.71Q153.86 5.55 151.80 6.52Q149.75 7.49 146.99 7.49L146.99 7.49Q144.90 7.49 142.91 6.65Q140.92 5.82 139.90 4.50L139.90 4.50L142.15 1.41Q144.05 3.53 146.76 3.53L146.76 3.53Q148.78 3.53 149.91 2.45Q151.03 1.37 151.03-0.62L151.03-0.62L151.03-1.63Q149.27 0.35 146.41 0.35L146.41 0.35Q142.98 0.35 140.86-2.33Q138.74-5.01 138.74-9.44L138.74-9.44ZM143.82-9.28L143.82-9.28Q143.82-6.70 144.86-5.23Q145.90-3.76 147.71-3.76L147.71-3.76Q150.03-3.76 151.03-5.50L151.03-5.50L151.03-13.50Q150.01-15.24 147.74-15.24L147.74-15.24Q145.92-15.24 144.87-13.75Q143.82-12.25 143.82-9.28ZM176.19 0L171.05 0Q170.70-0.69 170.54-1.71L170.54-1.71Q168.70 0.35 165.74 0.35L165.74 0.35Q162.95 0.35 161.11-1.27Q159.28-2.88 159.28-5.34L159.28-5.34Q159.28-8.37 161.52-9.98Q163.76-11.60 167.99-11.62L167.99-11.62L170.33-11.62L170.33-12.71Q170.33-14.03 169.66-14.82Q168.98-15.61 167.52-15.61L167.52-15.61Q166.24-15.61 165.51-14.99Q164.78-14.38 164.78-13.31L164.78-13.31L159.70-13.31Q159.70-14.96 160.72-16.37Q161.74-17.77 163.60-18.57Q165.46-19.37 167.78-19.37L167.78-19.37Q171.30-19.37 173.36-17.60Q175.43-15.84 175.43-12.64L175.43-12.64L175.43-4.39Q175.45-1.69 176.19-0.30L176.19-0.30L176.19 0ZM166.85-3.53L166.85-3.53Q167.98-3.53 168.93-4.03Q169.88-4.54 170.33-5.38L170.33-5.38L170.33-8.65L168.43-8.65Q164.62-8.65 164.37-6.01L164.37-6.01L164.36-5.71Q164.36-4.76 165.02-4.15Q165.69-3.53 166.85-3.53ZM180.33-23.70L185.41-23.70L185.41-19.02L188.67-19.02L188.67-15.29L185.41-15.29L185.41-5.80Q185.41-4.75 185.82-4.29Q186.22-3.83 187.37-3.83L187.37-3.83Q188.21-3.83 188.86-3.96L188.86-3.96L188.86-0.11Q187.37 0.35 185.78 0.35L185.78 0.35Q180.44 0.35 180.33-5.04L180.33-5.04L180.33-15.29L177.56-15.29L177.56-19.02L180.33-19.02L180.33-23.70ZM200.25 0.35L200.25 0.35Q196.07 0.35 193.44-2.21Q190.81-4.78 190.81-9.05L190.81-9.05L190.81-9.54Q190.81-12.41 191.92-14.67Q193.03-16.93 195.06-18.15Q197.09-19.37 199.69-19.37L199.69-19.37Q203.59-19.37 205.83-16.91Q208.07-14.45 208.07-9.93L208.07-9.93L208.07-7.86L195.96-7.86Q196.21-5.99 197.45-4.87Q198.69-3.74 200.58-3.74L200.58-3.74Q203.52-3.74 205.17-5.87L205.17-5.87L207.67-3.08Q206.53-1.46 204.57-0.55Q202.62 0.35 200.25 0.35ZM199.67-15.26L199.67-15.26Q198.16-15.26 197.22-14.24Q196.28-13.22 196.01-11.32L196.01-11.32L203.08-11.32L203.08-11.72Q203.04-13.41 202.17-14.33Q201.29-15.26 199.67-15.26ZM224.03-19.02L227.50-6.91L229.99-19.02L234.90-19.02L230.04 0L225.79 0L222.19-11.97L218.58 0L214.35 0L209.50-19.02L214.40-19.02L216.88-6.93L220.36-19.02L224.03-19.02ZM253.56 0L248.43 0Q248.08-0.69 247.92-1.71L247.92-1.71Q246.08 0.35 243.12 0.35L243.12 0.35Q240.33 0.35 238.49-1.27Q236.65-2.88 236.65-5.34L236.65-5.34Q236.65-8.37 238.90-9.98Q241.14-11.60 245.37-11.62L245.37-11.62L247.71-11.62L247.71-12.71Q247.71-14.03 247.03-14.82Q246.36-15.61 244.90-15.61L244.90-15.61Q243.62-15.61 242.89-14.99Q242.16-14.38 242.16-13.31L242.16-13.31L237.08-13.31Q237.08-14.96 238.10-16.37Q239.12-17.77 240.98-18.57Q242.84-19.37 245.16-19.37L245.16-19.37Q248.68-19.37 250.74-17.60Q252.81-15.84 252.81-12.64L252.81-12.64L252.81-4.39Q252.83-1.69 253.56-0.30L253.56-0.30L253.56 0ZM244.23-3.53L244.23-3.53Q245.36-3.53 246.30-4.03Q247.25-4.54 247.71-5.38L247.71-5.38L247.71-8.65L245.81-8.65Q242.00-8.65 241.75-6.01L241.75-6.01L241.73-5.71Q241.73-4.76 242.40-4.15Q243.07-3.53 244.23-3.53ZM260.28-19.02L263.81-7.19L267.33-19.02L272.78-19.02L265.13 2.95L264.71 3.96Q263.00 7.68 259.08 7.68L259.08 7.68Q257.98 7.68 256.83 7.35L256.83 7.35L256.83 3.50L257.61 3.52Q259.05 3.52 259.76 3.08Q260.47 2.64 260.88 1.62L260.88 1.62L261.47 0.05L254.81-19.02L260.28-19.02ZM282.96-9.65L282.96-9.65Q282.96-14.10 284.95-16.73Q286.95-19.37 290.41-19.37L290.41-19.37Q293.19-19.37 295.00-17.30L295.00-17.30L295.00-27L300.09-27L300.09 0L295.51 0L295.26-2.02Q293.36 0.35 290.37 0.35L290.37 0.35Q287.02 0.35 284.99-2.29Q282.96-4.94 282.96-9.65ZM288.04-9.28L288.04-9.28Q288.04-6.61 288.97-5.19Q289.90-3.76 291.67-3.76L291.67-3.76Q294.03-3.76 295.00-5.75L295.00-5.75L295.00-13.25Q294.05-15.24 291.71-15.24L291.71-15.24Q288.04-15.24 288.04-9.28ZM320.19 0L315.05 0Q314.70-0.69 314.54-1.71L314.54-1.71Q312.70 0.35 309.74 0.35L309.74 0.35Q306.95 0.35 305.11-1.27Q303.28-2.88 303.28-5.34L303.28-5.34Q303.28-8.37 305.52-9.98Q307.76-11.60 311.99-11.62L311.99-11.62L314.33-11.62L314.33-12.71Q314.33-14.03 313.66-14.82Q312.98-15.61 311.52-15.61L311.52-15.61Q310.24-15.61 309.51-14.99Q308.78-14.38 308.78-13.31L308.78-13.31L303.70-13.31Q303.70-14.96 304.72-16.37Q305.74-17.77 307.60-18.57Q309.46-19.37 311.78-19.37L311.78-19.37Q315.30-19.37 317.36-17.60Q319.43-15.84 319.43-12.64L319.43-12.64L319.43-4.39Q319.45-1.69 320.19-0.30L320.19-0.30L320.19 0ZM310.85-3.53L310.85-3.53Q311.98-3.53 312.93-4.03Q313.88-4.54 314.33-5.38L314.33-5.38L314.33-8.65L312.43-8.65Q308.62-8.65 308.37-6.01L308.37-6.01L308.36-5.71Q308.36-4.76 309.02-4.15Q309.69-3.53 310.85-3.53ZM332.09 0.35L332.09 0.35Q327.90 0.35 325.27-2.21Q322.65-4.78 322.65-9.05L322.65-9.05L322.65-9.54Q322.65-12.41 323.75-14.67Q324.86-16.93 326.89-18.15Q328.92-19.37 331.52-19.37L331.52-19.37Q335.43-19.37 337.67-16.91Q339.91-14.45 339.91-9.93L339.91-9.93L339.91-7.86L327.80-7.86Q328.04-5.99 329.28-4.87Q330.52-3.74 332.42-3.74L332.42-3.74Q335.36-3.74 337.01-5.87L337.01-5.87L339.50-3.08Q338.36-1.46 336.41-0.55Q334.46 0.35 332.09 0.35ZM331.51-15.26L331.51-15.26Q329.99-15.26 329.05-14.24Q328.11-13.22 327.85-11.32L327.85-11.32L334.92-11.32L334.92-11.72Q334.88-13.41 334.00-14.33Q333.12-15.26 331.51-15.26ZM342.79-19.02L347.55-19.02L347.71-16.89Q349.73-19.37 353.18-19.37L353.18-19.37Q356.85-19.37 358.22-16.47L358.22-16.47Q360.23-19.37 363.94-19.37L363.94-19.37Q367.03-19.37 368.54-17.57Q370.05-15.77 370.05-12.15L370.05-12.15L370.05 0L364.96 0L364.96-12.13Q364.96-13.75 364.32-14.49Q363.69-15.24 362.09-15.24L362.09-15.24Q359.81-15.24 358.93-13.06L358.93-13.06L358.95 0L353.87 0L353.87-12.11Q353.87-13.76 353.21-14.50Q352.56-15.24 351-15.24L351-15.24Q348.84-15.24 347.87-13.45L347.87-13.45L347.87 0L342.79 0L342.79-19.02ZM373.17-9.46L373.17-9.69Q373.17-12.52 374.26-14.73Q375.35-16.95 377.39-18.16Q379.44-19.37 382.15-19.37L382.15-19.37Q386.00-19.37 388.43-17.02Q390.87-14.66 391.15-10.62L391.15-10.62L391.18-9.32Q391.18-4.94 388.74-2.29Q386.30 0.35 382.18 0.35Q378.07 0.35 375.62-2.29Q373.17-4.92 373.17-9.46L373.17-9.46ZM378.25-9.32L378.25-9.32Q378.25-6.61 379.27-5.18Q380.29-3.74 382.18-3.74L382.18-3.74Q384.03-3.74 385.07-5.16Q386.10-6.57 386.10-9.69L386.10-9.69Q386.10-12.34 385.07-13.80Q384.03-15.26 382.15-15.26L382.15-15.26Q380.29-15.26 379.27-13.81Q378.25-12.36 378.25-9.32ZM394.21-19.02L398.99-19.02L399.15-16.82Q401.19-19.37 404.61-19.37L404.61-19.37Q407.64-19.37 409.11-17.60Q410.59-15.82 410.63-12.29L410.63-12.29L410.63 0L405.54 0L405.54-12.16Q405.54-13.78 404.84-14.51Q404.14-15.24 402.50-15.24L402.50-15.24Q400.36-15.24 399.29-13.41L399.29-13.41L399.29 0L394.21 0L394.21-19.02ZM433.74-5.26L433.74-5.26Q433.74-6.19 432.82-6.72Q431.89-7.26 429.86-7.68L429.86-7.68Q423.07-9.11 423.07-13.45L423.07-13.45Q423.07-15.98 425.17-17.67Q427.27-19.37 430.66-19.37L430.66-19.37Q434.29-19.37 436.46-17.67Q438.63-15.96 438.63-13.24L438.63-13.24L433.55-13.24Q433.55-14.33 432.84-15.04Q432.14-15.75 430.65-15.75L430.65-15.75Q429.36-15.75 428.66-15.17Q427.96-14.59 427.96-13.69L427.96-13.69Q427.96-12.85 428.76-12.33Q429.56-11.81 431.46-11.43Q433.35-11.06 434.65-10.58L434.65-10.58Q438.68-9.11 438.68-5.47L438.68-5.47Q438.68-2.87 436.45-1.26Q434.21 0.35 430.68 0.35L430.68 0.35Q428.29 0.35 426.44-0.50Q424.58-1.35 423.53-2.84Q422.47-4.32 422.47-6.05L422.47-6.05L427.29-6.05Q427.36-4.69 428.29-3.97Q429.22-3.25 430.79-3.25L430.79-3.25Q432.25-3.25 432.99-3.81Q433.74-4.36 433.74-5.26ZM450.70 0.35L450.70 0.35Q446.52 0.35 443.89-2.21Q441.26-4.78 441.26-9.05L441.26-9.05L441.26-9.54Q441.26-12.41 442.37-14.67Q443.48-16.93 445.51-18.15Q447.54-19.37 450.14-19.37L450.14-19.37Q454.04-19.37 456.28-16.91Q458.53-14.45 458.53-9.93L458.53-9.93L458.53-7.86L446.41-7.86Q446.66-5.99 447.90-4.87Q449.14-3.74 451.04-3.74L451.04-3.74Q453.97-3.74 455.63-5.87L455.63-5.87L458.12-3.08Q456.98-1.46 455.03-0.55Q453.08 0.35 450.70 0.35ZM450.12-15.26L450.12-15.26Q448.61-15.26 447.67-14.24Q446.73-13.22 446.47-11.32L446.47-11.32L453.53-11.32L453.53-11.72Q453.50-13.41 452.62-14.33Q451.74-15.26 450.12-15.26ZM472.17-19.14L472.10-14.26Q471.06-14.40 470.27-14.40L470.27-14.40Q467.38-14.40 466.49-12.45L466.49-12.45L466.49 0L461.41 0L461.41-19.02L466.21-19.02L466.35-16.75Q467.88-19.37 470.58-19.37L470.58-19.37Q471.43-19.37 472.17-19.14L472.17-19.14ZM478.13-19.02L481.66-6.21L485.19-19.02L490.50-19.02L484.08 0L479.23 0L472.82-19.02L478.13-19.02ZM498.09-19.02L498.09 0L493.00 0L493.00-19.02L498.09-19.02ZM492.70-23.94L492.70-23.94Q492.70-25.08 493.46-25.82Q494.23-26.56 495.54-26.56L495.54-26.56Q496.85-26.56 497.62-25.82Q498.39-25.08 498.39-23.94L498.39-23.94Q498.39-22.78 497.61-22.04Q496.83-21.30 495.54-21.30Q494.26-21.30 493.48-22.04Q492.70-22.78 492.70-23.94ZM510.19-3.74L510.19-3.74Q511.59-3.74 512.47-4.52Q513.35-5.29 513.39-6.57L513.39-6.57L518.15-6.57Q518.13-4.64 517.10-3.03Q516.06-1.42 514.26-0.54Q512.46 0.35 510.28 0.35L510.28 0.35Q506.20 0.35 503.84-2.24Q501.49-4.83 501.49-9.40L501.49-9.40L501.49-9.74Q501.49-14.13 503.82-16.75Q506.16-19.37 510.24-19.37L510.24-19.37Q513.81-19.37 515.96-17.34Q518.12-15.31 518.15-11.94L518.15-11.94L513.39-11.94Q513.35-13.41 512.47-14.33Q511.59-15.26 510.15-15.26L510.15-15.26Q508.38-15.26 507.47-13.97Q506.57-12.67 506.57-9.77L506.57-9.77L506.57-9.25Q506.57-6.31 507.46-5.03Q508.36-3.74 510.19-3.74ZM529.80 0.35L529.80 0.35Q525.62 0.35 522.99-2.21Q520.37-4.78 520.37-9.05L520.37-9.05L520.37-9.54Q520.37-12.41 521.47-14.67Q522.58-16.93 524.61-18.15Q526.64-19.37 529.24-19.37L529.24-19.37Q533.14-19.37 535.39-16.91Q537.63-14.45 537.63-9.93L537.63-9.93L537.63-7.86L525.52-7.86Q525.76-5.99 527.00-4.87Q528.24-3.74 530.14-3.74L530.14-3.74Q533.07-3.74 534.73-5.87L534.73-5.87L537.22-3.08Q536.08-1.46 534.13-0.55Q532.18 0.35 529.80 0.35ZM529.22-15.26L529.22-15.26Q527.71-15.26 526.77-14.24Q525.83-13.22 525.57-11.32L525.57-11.32L532.63-11.32L532.63-11.72Q532.60-13.41 531.72-14.33Q530.84-15.26 529.22-15.26Z" transform="translate(620, 500)" fill="#ffffff" /><circle cx="580" cy="565" r="6" fill="#e94560" /><path d="M17.10-8.53L22.38-8.53Q22.08-4.39 19.33-2.02Q16.58 0.35 12.08 0.35L12.08 0.35Q7.15 0.35 4.33-2.96Q1.51-6.28 1.51-12.06L1.51-12.06L1.51-13.62Q1.51-17.31 2.81-20.13Q4.11-22.94 6.53-24.44Q8.95-25.95 12.15-25.95L12.15-25.95Q16.58-25.95 19.28-23.57Q21.99-21.20 22.41-16.91L22.41-16.91L17.14-16.91Q16.95-19.39 15.76-20.50Q14.57-21.62 12.15-21.62L12.15-21.62Q9.51-21.62 8.20-19.73Q6.89-17.84 6.86-13.87L6.86-13.87L6.86-11.94Q6.86-7.79 8.11-5.87Q9.37-3.96 12.08-3.96L12.08-3.96Q14.52-3.96 15.72-5.07Q16.93-6.19 17.10-8.53L17.10-8.53ZM24.71-9.46L24.71-9.69Q24.71-12.52 25.80-14.73Q26.89-16.95 28.94-18.16Q30.99-19.37 33.70-19.37L33.70-19.37Q37.55-19.37 39.98-17.02Q42.42-14.66 42.70-10.62L42.70-10.62L42.73-9.32Q42.73-4.94 40.29-2.29Q37.85 0.35 33.73 0.35Q29.62 0.35 27.17-2.29Q24.71-4.92 24.71-9.46L24.71-9.46ZM29.79-9.32L29.79-9.32Q29.79-6.61 30.81-5.18Q31.83-3.74 33.73-3.74L33.73-3.74Q35.58-3.74 36.62-5.16Q37.65-6.57 37.65-9.69L37.65-9.69Q37.65-12.34 36.62-13.80Q35.58-15.26 33.70-15.26L33.70-15.26Q31.83-15.26 30.81-13.81Q29.79-12.36 29.79-9.32ZM45.76-19.02L50.54-19.02L50.70-16.82Q52.73-19.37 56.16-19.37L56.16-19.37Q59.19-19.37 60.66-17.60Q62.14-15.82 62.17-12.29L62.17-12.29L62.17 0L57.09 0L57.09-12.16Q57.09-13.78 56.39-14.51Q55.69-15.24 54.05-15.24L54.05-15.24Q51.91-15.24 50.84-13.41L50.84-13.41L50.84 0L45.76 0L45.76-19.02ZM67.03-23.70L72.11-23.70L72.11-19.02L75.36-19.02L75.36-15.29L72.11-15.29L72.11-5.80Q72.11-4.75 72.51-4.29Q72.91-3.83 74.06-3.83L74.06-3.83Q74.90-3.83 75.55-3.96L75.55-3.96L75.55-0.11Q74.06 0.35 72.47 0.35L72.47 0.35Q67.13 0.35 67.03-5.04L67.03-5.04L67.03-15.29L64.25-15.29L64.25-19.02L67.03-19.02L67.03-23.70ZM88.95-19.14L88.88-14.26Q87.84-14.40 87.05-14.40L87.05-14.40Q84.16-14.40 83.27-12.45L83.27-12.45L83.27 0L78.19 0L78.19-19.02L82.99-19.02L83.13-16.75Q84.66-19.37 87.36-19.37L87.36-19.37Q88.21-19.37 88.95-19.14L88.95-19.14ZM90.53-9.46L90.53-9.69Q90.53-12.52 91.62-14.73Q92.71-16.95 94.75-18.16Q96.80-19.37 99.51-19.37L99.51-19.37Q103.36-19.37 105.79-17.02Q108.23-14.66 108.51-10.62L108.51-10.62L108.54-9.32Q108.54-4.94 106.10-2.29Q103.66 0.35 99.54 0.35Q95.43 0.35 92.98-2.29Q90.53-4.92 90.53-9.46L90.53-9.46ZM95.61-9.32L95.61-9.32Q95.61-6.61 96.63-5.18Q97.65-3.74 99.54-3.74L99.54-3.74Q101.39-3.74 102.43-5.16Q103.46-6.57 103.46-9.69L103.46-9.69Q103.46-12.34 102.43-13.80Q101.39-15.26 99.51-15.26L99.51-15.26Q97.65-15.26 96.63-13.81Q95.61-12.36 95.61-9.32ZM117.04-27L117.04 0L111.94 0L111.94-27L117.04-27ZM126.58-27L126.58 0L121.48 0L121.48-27L126.58-27ZM139.52 0.35L139.52 0.35Q135.33 0.35 132.71-2.21Q130.08-4.78 130.08-9.05L130.08-9.05L130.08-9.54Q130.08-12.41 131.19-14.67Q132.29-16.93 134.32-18.15Q136.35-19.37 138.96-19.37L138.96-19.37Q142.86-19.37 145.10-16.91Q147.34-14.45 147.34-9.93L147.34-9.93L147.34-7.86L135.23-7.86Q135.47-5.99 136.71-4.87Q137.95-3.74 139.85-3.74L139.85-3.74Q142.79-3.74 144.44-5.87L144.44-5.87L146.94-3.08Q145.79-1.46 143.84-0.55Q141.89 0.35 139.52 0.35ZM138.94-15.26L138.94-15.26Q137.43-15.26 136.49-14.24Q135.54-13.22 135.28-11.32L135.28-11.32L142.35-11.32L142.35-11.72Q142.31-13.41 141.43-14.33Q140.55-15.26 138.94-15.26ZM149.43-9.65L149.43-9.65Q149.43-14.10 151.43-16.73Q153.42-19.37 156.88-19.37L156.88-19.37Q159.66-19.37 161.47-17.30L161.47-17.30L161.47-27L166.57-27L166.57 0L161.98 0L161.74-2.02Q159.84 0.35 156.85 0.35L156.85 0.35Q153.49 0.35 151.46-2.29Q149.43-4.94 149.43-9.65ZM154.51-9.28L154.51-9.28Q154.51-6.61 155.44-5.19Q156.38-3.76 158.15-3.76L158.15-3.76Q160.51-3.76 161.47-5.75L161.47-5.75L161.47-13.25Q160.52-15.24 158.19-15.24L158.19-15.24Q154.51-15.24 154.51-9.28ZM183.06-19.02L186.59-6.21L190.13-19.02L195.43-19.02L189.02 0L184.17 0L177.75-19.02L183.06-19.02ZM203.03-19.02L203.03 0L197.93 0L197.93-19.02L203.03-19.02ZM197.63-23.94L197.63-23.94Q197.63-25.08 198.40-25.82Q199.16-26.56 200.48-26.56L200.48-26.56Q201.78-26.56 202.55-25.82Q203.33-25.08 203.33-23.94L203.33-23.94Q203.33-22.78 202.54-22.04Q201.76-21.30 200.48-21.30Q199.20-21.30 198.41-22.04Q197.63-22.78 197.63-23.94ZM223.37 0L218.23 0Q217.88-0.69 217.72-1.71L217.72-1.71Q215.88 0.35 212.92 0.35L212.92 0.35Q210.13 0.35 208.29-1.27Q206.46-2.88 206.46-5.34L206.46-5.34Q206.46-8.37 208.70-9.98Q210.94-11.60 215.17-11.62L215.17-11.62L217.51-11.62L217.51-12.71Q217.51-14.03 216.83-14.82Q216.16-15.61 214.70-15.61L214.70-15.61Q213.42-15.61 212.69-14.99Q211.96-14.38 211.96-13.31L211.96-13.31L206.88-13.31Q206.88-14.96 207.90-16.37Q208.92-17.77 210.78-18.57Q212.64-19.37 214.96-19.37L214.96-19.37Q218.48-19.37 220.54-17.60Q222.61-15.84 222.61-12.64L222.61-12.64L222.61-4.39Q222.63-1.69 223.37-0.30L223.37-0.30L223.37 0ZM214.03-3.53L214.03-3.53Q215.16-3.53 216.11-4.03Q217.05-4.54 217.51-5.38L217.51-5.38L217.51-8.65L215.61-8.65Q211.80-8.65 211.55-6.01L211.55-6.01L211.54-5.71Q211.54-4.76 212.20-4.15Q212.87-3.53 214.03-3.53ZM250.63-8.53L255.90-8.53Q255.60-4.39 252.85-2.02Q250.10 0.35 245.60 0.35L245.60 0.35Q240.68 0.35 237.86-2.96Q235.04-6.28 235.04-12.06L235.04-12.06L235.04-13.62Q235.04-17.31 236.34-20.13Q237.64-22.94 240.06-24.44Q242.47-25.95 245.67-25.95L245.67-25.95Q250.10-25.95 252.81-23.57Q255.52-21.20 255.94-16.91L255.94-16.91L250.66-16.91Q250.47-19.39 249.28-20.50Q248.10-21.62 245.67-21.62L245.67-21.62Q243.04-21.62 241.73-19.73Q240.42-17.84 240.38-13.87L240.38-13.87L240.38-11.94Q240.38-7.79 241.64-5.87Q242.89-3.96 245.60-3.96L245.60-3.96Q248.04-3.96 249.25-5.07Q250.45-6.19 250.63-8.53L250.63-8.53ZM264.64-25.59L264.64-4.24L275.84-4.24L275.84 0L259.37 0L259.37-25.59L264.64-25.59ZM284.47-25.59L284.47 0L279.19 0L279.19-25.59L284.47-25.59ZM314.14 0L309.01 0Q308.65-0.69 308.50-1.71L308.50-1.71Q306.65 0.35 303.70 0.35L303.70 0.35Q300.90 0.35 299.07-1.27Q297.23-2.88 297.23-5.34L297.23-5.34Q297.23-8.37 299.47-9.98Q301.71-11.60 305.95-11.62L305.95-11.62L308.29-11.62L308.29-12.71Q308.29-14.03 307.61-14.82Q306.93-15.61 305.47-15.61L305.47-15.61Q304.19-15.61 303.46-14.99Q302.73-14.38 302.73-13.31L302.73-13.31L297.65-13.31Q297.65-14.96 298.67-16.37Q299.69-17.77 301.55-18.57Q303.42-19.37 305.74-19.37L305.74-19.37Q309.25-19.37 311.32-17.60Q313.38-15.84 313.38-12.64L313.38-12.64L313.38-4.39Q313.40-1.69 314.14-0.30L314.14-0.30L314.14 0ZM304.80-3.53L304.80-3.53Q305.93-3.53 306.88-4.03Q307.83-4.54 308.29-5.38L308.29-5.38L308.29-8.65L306.39-8.65Q302.57-8.65 302.33-6.01L302.33-6.01L302.31-5.71Q302.31-4.76 302.98-4.15Q303.64-3.53 304.80-3.53ZM317.18-19.02L321.96-19.02L322.12-16.82Q324.16-19.37 327.59-19.37L327.59-19.37Q330.61-19.37 332.09-17.60Q333.56-15.82 333.60-12.29L333.60-12.29L333.60 0L328.52 0L328.52-12.16Q328.52-13.78 327.81-14.51Q327.11-15.24 325.48-15.24L325.48-15.24Q323.33-15.24 322.26-13.41L322.26-13.41L322.26 0L317.18 0L317.18-19.02ZM336.66-9.65L336.66-9.65Q336.66-14.10 338.65-16.73Q340.65-19.37 344.11-19.37L344.11-19.37Q346.89-19.37 348.70-17.30L348.70-17.30L348.70-27L353.79-27L353.79 0L349.21 0L348.96-2.02Q347.06 0.35 344.07 0.35L344.07 0.35Q340.72 0.35 338.69-2.29Q336.66-4.94 336.66-9.65ZM341.74-9.28L341.74-9.28Q341.74-6.61 342.67-5.19Q343.60-3.76 345.38-3.76L345.38-3.76Q347.73-3.76 348.70-5.75L348.70-5.75L348.70-13.25Q347.75-15.24 345.41-15.24L345.41-15.24Q341.74-15.24 341.74-9.28ZM366.70-19.02L371.46-19.02L371.62-16.89Q373.64-19.37 377.09-19.37L377.09-19.37Q380.76-19.37 382.13-16.47L382.13-16.47Q384.13-19.37 387.84-19.37L387.84-19.37Q390.94-19.37 392.45-17.57Q393.96-15.77 393.96-12.15L393.96-12.15L393.96 0L388.86 0L388.86-12.13Q388.86-13.75 388.23-14.49Q387.60-15.24 386.00-15.24L386.00-15.24Q383.71-15.24 382.83-13.06L382.83-13.06L382.85 0L377.77 0L377.77-12.11Q377.77-13.76 377.12-14.50Q376.47-15.24 374.91-15.24L374.91-15.24Q372.74-15.24 371.78-13.45L371.78-13.45L371.78 0L366.70 0L366.70-19.02ZM406.62 0.35L406.62 0.35Q402.43 0.35 399.81-2.21Q397.18-4.78 397.18-9.05L397.18-9.05L397.18-9.54Q397.18-12.41 398.29-14.67Q399.39-16.93 401.42-18.15Q403.45-19.37 406.05-19.37L406.05-19.37Q409.96-19.37 412.20-16.91Q414.44-14.45 414.44-9.93L414.44-9.93L414.44-7.86L402.33-7.86Q402.57-5.99 403.81-4.87Q405.05-3.74 406.95-3.74L406.95-3.74Q409.89-3.74 411.54-5.87L411.54-5.87L414.04-3.08Q412.89-1.46 410.94-0.55Q408.99 0.35 406.62 0.35ZM406.04-15.26L406.04-15.26Q404.53-15.26 403.58-14.24Q402.64-13.22 402.38-11.32L402.38-11.32L409.45-11.32L409.45-11.72Q409.41-13.41 408.53-14.33Q407.65-15.26 406.04-15.26ZM427.62-5.26L427.62-5.26Q427.62-6.19 426.70-6.72Q425.78-7.26 423.74-7.68L423.74-7.68Q416.95-9.11 416.95-13.45L416.95-13.45Q416.95-15.98 419.05-17.67Q421.15-19.37 424.55-19.37L424.55-19.37Q428.17-19.37 430.34-17.67Q432.51-15.96 432.51-13.24L432.51-13.24L427.43-13.24Q427.43-14.33 426.73-15.04Q426.02-15.75 424.53-15.75L424.53-15.75Q423.25-15.75 422.54-15.17Q421.84-14.59 421.84-13.69L421.84-13.69Q421.84-12.85 422.64-12.33Q423.44-11.81 425.34-11.43Q427.24-11.06 428.54-10.58L428.54-10.58Q432.56-9.11 432.56-5.47L432.56-5.47Q432.56-2.87 430.33-1.26Q428.10 0.35 424.56 0.35L424.56 0.35Q422.17 0.35 420.32-0.50Q418.46-1.35 417.41-2.84Q416.36-4.32 416.36-6.05L416.36-6.05L421.17-6.05Q421.24-4.69 422.17-3.97Q423.11-3.25 424.67-3.25L424.67-3.25Q426.13-3.25 426.88-3.81Q427.62-4.36 427.62-5.26ZM446.13-5.26L446.13-5.26Q446.13-6.19 445.21-6.72Q444.29-7.26 442.25-7.68L442.25-7.68Q435.46-9.11 435.46-13.45L435.46-13.45Q435.46-15.98 437.56-17.67Q439.66-19.37 443.06-19.37L443.06-19.37Q446.68-19.37 448.85-17.67Q451.02-15.96 451.02-13.24L451.02-13.24L445.94-13.24Q445.94-14.33 445.24-15.04Q444.53-15.75 443.04-15.75L443.04-15.75Q441.76-15.75 441.05-15.17Q440.35-14.59 440.35-13.69L440.35-13.69Q440.35-12.85 441.15-12.33Q441.95-11.81 443.85-11.43Q445.75-11.06 447.05-10.58L447.05-10.58Q451.07-9.11 451.07-5.47L451.07-5.47Q451.07-2.87 448.84-1.26Q446.61 0.35 443.07 0.35L443.07 0.35Q440.68 0.35 438.83-0.50Q436.97-1.35 435.92-2.84Q434.87-4.32 434.87-6.05L434.87-6.05L439.68-6.05Q439.75-4.69 440.68-3.97Q441.62-3.25 443.18-3.25L443.18-3.25Q444.64-3.25 445.39-3.81Q446.13-4.36 446.13-5.26ZM470.50 0L465.36 0Q465.01-0.69 464.85-1.71L464.85-1.71Q463.01 0.35 460.05 0.35L460.05 0.35Q457.26 0.35 455.42-1.27Q453.59-2.88 453.59-5.34L453.59-5.34Q453.59-8.37 455.83-9.98Q458.07-11.60 462.30-11.62L462.30-11.62L464.64-11.62L464.64-12.71Q464.64-14.03 463.97-14.82Q463.29-15.61 461.83-15.61L461.83-15.61Q460.55-15.61 459.82-14.99Q459.09-14.38 459.09-13.31L459.09-13.31L454.01-13.31Q454.01-14.96 455.03-16.37Q456.05-17.77 457.91-18.57Q459.77-19.37 462.09-19.37L462.09-19.37Q465.61-19.37 467.67-17.60Q469.74-15.84 469.74-12.64L469.74-12.64L469.74-4.39Q469.76-1.69 470.50-0.30L470.50-0.30L470.50 0ZM461.16-3.53L461.16-3.53Q462.29-3.53 463.24-4.03Q464.19-4.54 464.64-5.38L464.64-5.38L464.64-8.65L462.74-8.65Q458.93-8.65 458.68-6.01L458.68-6.01L458.67-5.71Q458.67-4.76 459.33-4.15Q460.00-3.53 461.16-3.53ZM472.90-9.44L472.90-9.65Q472.90-14.03 474.99-16.70Q477.07-19.37 480.60-19.37L480.60-19.37Q483.73-19.37 485.47-17.23L485.47-17.23L485.68-19.02L490.29-19.02L490.29-0.63Q490.29 1.86 489.16 3.71Q488.02 5.55 485.96 6.52Q483.91 7.49 481.15 7.49L481.15 7.49Q479.06 7.49 477.07 6.65Q475.08 5.82 474.06 4.50L474.06 4.50L476.31 1.41Q478.21 3.53 480.92 3.53L480.92 3.53Q482.94 3.53 484.07 2.45Q485.19 1.37 485.19-0.62L485.19-0.62L485.19-1.63Q483.43 0.35 480.57 0.35L480.57 0.35Q477.14 0.35 475.02-2.33Q472.90-5.01 472.90-9.44L472.90-9.44ZM477.98-9.28L477.98-9.28Q477.98-6.70 479.02-5.23Q480.06-3.76 481.87-3.76L481.87-3.76Q484.19-3.76 485.19-5.50L485.19-5.50L485.19-13.50Q484.17-15.24 481.90-15.24L481.90-15.24Q480.08-15.24 479.03-13.75Q477.98-12.25 477.98-9.28ZM499.55-19.02L499.55 0L494.46 0L494.46-19.02L499.55-19.02ZM494.16-23.94L494.16-23.94Q494.16-25.08 494.92-25.82Q495.69-26.56 497.00-26.56L497.00-26.56Q498.30-26.56 499.08-25.82Q499.85-25.08 499.85-23.94L499.85-23.94Q499.85-22.78 499.07-22.04Q498.29-21.30 497.00-21.30Q495.72-21.30 494.94-22.04Q494.16-22.78 494.16-23.94ZM503.63-19.02L508.41-19.02L508.57-16.82Q510.61-19.37 514.04-19.37L514.04-19.37Q517.06-19.37 518.54-17.60Q520.01-15.82 520.05-12.29L520.05-12.29L520.05 0L514.97 0L514.97-12.16Q514.97-13.78 514.27-14.51Q513.56-15.24 511.93-15.24L511.93-15.24Q509.78-15.24 508.71-13.41L508.71-13.41L508.71 0L503.63 0L503.63-19.02ZM523.16-9.44L523.16-9.65Q523.16-14.03 525.24-16.70Q527.33-19.37 530.86-19.37L530.86-19.37Q533.99-19.37 535.73-17.23L535.73-17.23L535.94-19.02L540.54-19.02L540.54-0.63Q540.54 1.86 539.41 3.71Q538.28 5.55 536.22 6.52Q534.16 7.49 531.40 7.49L531.40 7.49Q529.31 7.49 527.33 6.65Q525.34 5.82 524.32 4.50L524.32 4.50L526.57 1.41Q528.47 3.53 531.18 3.53L531.18 3.53Q533.20 3.53 534.32 2.45Q535.45 1.37 535.45-0.62L535.45-0.62L535.45-1.63Q533.69 0.35 530.82 0.35L530.82 0.35Q527.40 0.35 525.28-2.33Q523.16-5.01 523.16-9.44L523.16-9.44ZM528.24-9.28L528.24-9.28Q528.24-6.70 529.28-5.23Q530.31-3.76 532.13-3.76L532.13-3.76Q534.45-3.76 535.45-5.50L535.45-5.50L535.45-13.50Q534.43-15.24 532.16-15.24L532.16-15.24Q530.33-15.24 529.29-13.75Q528.24-12.25 528.24-9.28ZM569.57 0L564.43 0Q564.08-0.69 563.92-1.71L563.92-1.71Q562.08 0.35 559.13 0.35L559.13 0.35Q556.33 0.35 554.49-1.27Q552.66-2.88 552.66-5.34L552.66-5.34Q552.66-8.37 554.90-9.98Q557.14-11.60 561.38-11.62L561.38-11.62L563.71-11.62L563.71-12.71Q563.71-14.03 563.04-14.82Q562.36-15.61 560.90-15.61L560.90-15.61Q559.62-15.61 558.89-14.99Q558.16-14.38 558.16-13.31L558.16-13.31L553.08-13.31Q553.08-14.96 554.10-16.37Q555.12-17.77 556.98-18.57Q558.84-19.37 561.16-19.37L561.16-19.37Q564.68-19.37 566.75-17.60Q568.81-15.84 568.81-12.64L568.81-12.64L568.81-4.39Q568.83-1.69 569.57-0.30L569.57-0.30L569.57 0ZM560.23-3.53L560.23-3.53Q561.36-3.53 562.31-4.03Q563.26-4.54 563.71-5.38L563.71-5.38L563.71-8.65L561.81-8.65Q558-8.65 557.75-6.01L557.75-6.01L557.74-5.71Q557.74-4.76 558.40-4.15Q559.07-3.53 560.23-3.53ZM589.83-9.60L589.83-9.33Q589.83-4.94 587.84-2.29Q585.84 0.35 582.45 0.35L582.45 0.35Q579.57 0.35 577.79-1.65L577.79-1.65L577.79 7.31L572.71 7.31L572.71-19.02L577.42-19.02L577.60-17.16Q579.45-19.37 582.42-19.37L582.42-19.37Q585.93-19.37 587.88-16.77Q589.83-14.17 589.83-9.60L589.83-9.60ZM584.75-9.70L584.75-9.70Q584.75-12.36 583.81-13.80Q582.87-15.24 581.08-15.24L581.08-15.24Q578.69-15.24 577.79-13.41L577.79-13.41L577.79-5.63Q578.72-3.74 581.12-3.74L581.12-3.74Q584.75-3.74 584.75-9.70ZM610.10-9.60L610.10-9.33Q610.10-4.94 608.11-2.29Q606.11 0.35 602.72 0.35L602.72 0.35Q599.84 0.35 598.06-1.65L598.06-1.65L598.06 7.31L592.98 7.31L592.98-19.02L597.69-19.02L597.87-17.16Q599.71-19.37 602.68-19.37L602.68-19.37Q606.20-19.37 608.15-16.77Q610.10-14.17 610.10-9.60L610.10-9.60ZM605.02-9.70L605.02-9.70Q605.02-12.36 604.08-13.80Q603.14-15.24 601.35-15.24L601.35-15.24Q598.96-15.24 598.06-13.41L598.06-13.41L598.06-5.63Q598.99-3.74 601.38-3.74L601.38-3.74Q605.02-3.74 605.02-9.70ZM623.55-5.26L623.55-5.26Q623.55-6.19 622.63-6.72Q621.70-7.26 619.66-7.68L619.66-7.68Q612.88-9.11 612.88-13.45L612.88-13.45Q612.88-15.98 614.98-17.67Q617.08-19.37 620.47-19.37L620.47-19.37Q624.09-19.37 626.26-17.67Q628.44-15.96 628.44-13.24L628.44-13.24L623.36-13.24Q623.36-14.33 622.65-15.04Q621.95-15.75 620.46-15.75L620.46-15.75Q619.17-15.75 618.47-15.17Q617.77-14.59 617.77-13.69L617.77-13.69Q617.77-12.85 618.57-12.33Q619.37-11.81 621.26-11.43Q623.16-11.06 624.46-10.58L624.46-10.58Q628.49-9.11 628.49-5.47L628.49-5.47Q628.49-2.87 626.26-1.26Q624.02 0.35 620.49 0.35L620.49 0.35Q618.10 0.35 616.25-0.50Q614.39-1.35 613.34-2.84Q612.28-4.32 612.28-6.05L612.28-6.05L617.10-6.05Q617.17-4.69 618.10-3.97Q619.03-3.25 620.60-3.25L620.60-3.25Q622.05-3.25 622.80-3.81Q623.55-4.36 623.55-5.26Z" transform="translate(620, 565)" fill="#ffffff" /><circle cx="580" cy="630" r="6" fill="#e94560" /><path d="M15.56-6.71L15.56-6.71Q15.56-8.21 14.50-9.01Q13.45-9.81 10.71-10.70Q7.96-11.58 6.36-12.45L6.36-12.45Q2.00-14.80 2.00-18.79L2.00-18.79Q2.00-20.87 3.17-22.49Q4.34-24.12 6.53-25.03Q8.72-25.95 11.44-25.95L11.44-25.95Q14.19-25.95 16.33-24.95Q18.47-23.96 19.66-22.15Q20.85-20.34 20.85-18.04L20.85-18.04L15.57-18.04Q15.57-19.79 14.47-20.77Q13.36-21.74 11.36-21.74L11.36-21.74Q9.42-21.74 8.35-20.93Q7.28-20.11 7.28-18.77L7.28-18.77Q7.28-17.53 8.53-16.68Q9.79-15.84 12.23-15.10L12.23-15.10Q16.73-13.75 18.79-11.74Q20.85-9.74 20.85-6.75L20.85-6.75Q20.85-3.43 18.33-1.54Q15.82 0.35 11.57 0.35L11.57 0.35Q8.61 0.35 6.19-0.73Q3.76-1.81 2.49-3.69Q1.21-5.57 1.21-8.05L1.21-8.05L6.50-8.05Q6.50-3.81 11.57-3.81L11.57-3.81Q13.45-3.81 14.50-4.58Q15.56-5.34 15.56-6.71ZM35.88 0L30.99-7.63L29.16-5.80L29.16 0L24.08 0L24.08-27L29.16-27L29.16-12.04L30.15-13.31L35.02-19.02L41.12-19.02L34.24-11.09L41.71 0L35.88 0ZM48.67-19.02L48.67 0L43.58 0L43.58-19.02L48.67-19.02ZM43.28-23.94L43.28-23.94Q43.28-25.08 44.04-25.82Q44.81-26.56 46.13-26.56L46.13-26.56Q47.43-26.56 48.20-25.82Q48.97-25.08 48.97-23.94L48.97-23.94Q48.97-22.78 48.19-22.04Q47.41-21.30 46.13-21.30Q44.84-21.30 44.06-22.04Q43.28-22.78 43.28-23.94ZM58.22-27L58.22 0L53.12 0L53.12-27L58.22-27ZM67.76-27L67.76 0L62.67 0L62.67-27L67.76-27ZM82.25-5.26L82.25-5.26Q82.25-6.19 81.33-6.72Q80.40-7.26 78.36-7.68L78.36-7.68Q71.58-9.11 71.58-13.45L71.58-13.45Q71.58-15.98 73.68-17.67Q75.78-19.37 79.17-19.37L79.17-19.37Q82.79-19.37 84.96-17.67Q87.13-15.96 87.13-13.24L87.13-13.24L82.05-13.24Q82.05-14.33 81.35-15.04Q80.65-15.75 79.15-15.75L79.15-15.75Q77.87-15.75 77.17-15.17Q76.46-14.59 76.46-13.69L76.46-13.69Q76.46-12.85 77.26-12.33Q78.06-11.81 79.96-11.43Q81.86-11.06 83.16-10.58L83.16-10.58Q87.19-9.11 87.19-5.47L87.19-5.47Q87.19-2.87 84.96-1.26Q82.72 0.35 79.19 0.35L79.19 0.35Q76.80 0.35 74.94-0.50Q73.09-1.35 72.04-2.84Q70.98-4.32 70.98-6.05L70.98-6.05L75.80-6.05Q75.87-4.69 76.80-3.97Q77.73-3.25 79.29-3.25L79.29-3.25Q80.75-3.25 81.50-3.81Q82.25-4.36 82.25-5.26ZM116.54-9.60L116.54-9.33Q116.54-4.94 114.55-2.29Q112.55 0.35 109.16 0.35L109.16 0.35Q106.28 0.35 104.50-1.65L104.50-1.65L104.50 7.31L99.42 7.31L99.42-19.02L104.13-19.02L104.31-17.16Q106.15-19.37 109.13-19.37L109.13-19.37Q112.64-19.37 114.59-16.77Q116.54-14.17 116.54-9.60L116.54-9.60ZM111.46-9.70L111.46-9.70Q111.46-12.36 110.52-13.80Q109.58-15.24 107.79-15.24L107.79-15.24Q105.40-15.24 104.50-13.41L104.50-13.41L104.50-5.63Q105.43-3.74 107.82-3.74L107.82-3.74Q111.46-3.74 111.46-9.70ZM130.45-19.14L130.38-14.26Q129.34-14.40 128.55-14.40L128.55-14.40Q125.67-14.40 124.77-12.45L124.77-12.45L124.77 0L119.69 0L119.69-19.02L124.49-19.02L124.63-16.75Q126.16-19.37 128.87-19.37L128.87-19.37Q129.71-19.37 130.45-19.14L130.45-19.14ZM132.03-9.46L132.03-9.69Q132.03-12.52 133.12-14.73Q134.21-16.95 136.26-18.16Q138.30-19.37 141.01-19.37L141.01-19.37Q144.86-19.37 147.30-17.02Q149.73-14.66 150.01-10.62L150.01-10.62L150.05-9.32Q150.05-4.94 147.60-2.29Q145.16 0.35 141.05 0.35Q136.93 0.35 134.48-2.29Q132.03-4.92 132.03-9.46L132.03-9.46ZM137.11-9.32L137.11-9.32Q137.11-6.61 138.13-5.18Q139.15-3.74 141.05-3.74L141.05-3.74Q142.89-3.74 143.93-5.16Q144.97-6.57 144.97-9.69L144.97-9.69Q144.97-12.34 143.93-13.80Q142.89-15.26 141.01-15.26L141.01-15.26Q139.15-15.26 138.13-13.81Q137.11-12.36 137.11-9.32ZM156.76-19.02L160.29-6.21L163.83-19.02L169.14-19.02L162.72 0L157.87 0L151.45-19.02L156.76-19.02ZM176.73-19.02L176.73 0L171.63 0L171.63-19.02L176.73-19.02ZM171.33-23.94L171.33-23.94Q171.33-25.08 172.10-25.82Q172.86-26.56 174.18-26.56L174.18-26.56Q175.48-26.56 176.26-25.82Q177.03-25.08 177.03-23.94L177.03-23.94Q177.03-22.78 176.25-22.04Q175.46-21.30 174.18-21.30Q172.90-21.30 172.12-22.04Q171.33-22.78 171.33-23.94ZM180.12-9.65L180.12-9.65Q180.12-14.10 182.12-16.73Q184.11-19.37 187.58-19.37L187.58-19.37Q190.35-19.37 192.16-17.30L192.16-17.30L192.16-27L197.26-27L197.26 0L192.67 0L192.43-2.02Q190.53 0.35 187.54 0.35L187.54 0.35Q184.18 0.35 182.15-2.29Q180.12-4.94 180.12-9.65ZM185.20-9.28L185.20-9.28Q185.20-6.61 186.13-5.19Q187.07-3.76 188.84-3.76L188.84-3.76Q191.20-3.76 192.16-5.75L192.16-5.75L192.16-13.25Q191.21-15.24 188.88-15.24L188.88-15.24Q185.20-15.24 185.20-9.28ZM209.95 0.35L209.95 0.35Q205.77 0.35 203.14-2.21Q200.51-4.78 200.51-9.05L200.51-9.05L200.51-9.54Q200.51-12.41 201.62-14.67Q202.73-16.93 204.76-18.15Q206.79-19.37 209.39-19.37L209.39-19.37Q213.29-19.37 215.53-16.91Q217.78-14.45 217.78-9.93L217.78-9.93L217.78-7.86L205.66-7.86Q205.91-5.99 207.15-4.87Q208.39-3.74 210.29-3.74L210.29-3.74Q213.22-3.74 214.88-5.87L214.88-5.87L217.37-3.08Q216.23-1.46 214.28-0.55Q212.33 0.35 209.95 0.35ZM209.37-15.26L209.37-15.26Q207.86-15.26 206.92-14.24Q205.98-13.22 205.72-11.32L205.72-11.32L212.78-11.32L212.78-11.72Q212.75-13.41 211.87-14.33Q210.99-15.26 209.37-15.26ZM239.92-5.26L239.92-5.26Q239.92-6.19 239.00-6.72Q238.08-7.26 236.04-7.68L236.04-7.68Q229.25-9.11 229.25-13.45L229.25-13.45Q229.25-15.98 231.35-17.67Q233.46-19.37 236.85-19.37L236.85-19.37Q240.47-19.37 242.64-17.67Q244.81-15.96 244.81-13.24L244.81-13.24L239.73-13.24Q239.73-14.33 239.03-15.04Q238.32-15.75 236.83-15.75L236.83-15.75Q235.55-15.75 234.84-15.17Q234.14-14.59 234.14-13.69L234.14-13.69Q234.14-12.85 234.94-12.33Q235.74-11.81 237.64-11.43Q239.54-11.06 240.84-10.58L240.84-10.58Q244.86-9.11 244.86-5.47L244.86-5.47Q244.86-2.87 242.63-1.26Q240.40 0.35 236.87 0.35L236.87 0.35Q234.47 0.35 232.62-0.50Q230.77-1.35 229.71-2.84Q228.66-4.32 228.66-6.05L228.66-6.05L233.47-6.05Q233.54-4.69 234.47-3.97Q235.41-3.25 236.97-3.25L236.97-3.25Q238.43-3.25 239.18-3.81Q239.92-4.36 239.92-5.26ZM265.25-9.60L265.25-9.33Q265.25-4.94 263.26-2.29Q261.26 0.35 257.87 0.35L257.87 0.35Q254.99 0.35 253.21-1.65L253.21-1.65L253.21 7.31L248.13 7.31L248.13-19.02L252.84-19.02L253.02-17.16Q254.87-19.37 257.84-19.37L257.84-19.37Q261.35-19.37 263.30-16.77Q265.25-14.17 265.25-9.60L265.25-9.60ZM260.17-9.70L260.17-9.70Q260.17-12.36 259.23-13.80Q258.29-15.24 256.50-15.24L256.50-15.24Q254.11-15.24 253.21-13.41L253.21-13.41L253.21-5.63Q254.14-3.74 256.54-3.74L256.54-3.74Q260.17-3.74 260.17-9.70ZM277.15 0.35L277.15 0.35Q272.97 0.35 270.34-2.21Q267.71-4.78 267.71-9.05L267.71-9.05L267.71-9.54Q267.71-12.41 268.82-14.67Q269.93-16.93 271.96-18.15Q273.99-19.37 276.59-19.37L276.59-19.37Q280.49-19.37 282.74-16.91Q284.98-14.45 284.98-9.93L284.98-9.93L284.98-7.86L272.87-7.86Q273.11-5.99 274.35-4.87Q275.59-3.74 277.49-3.74L277.49-3.74Q280.42-3.74 282.08-5.87L282.08-5.87L284.57-3.08Q283.43-1.46 281.48-0.55Q279.53 0.35 277.15 0.35ZM276.57-15.26L276.57-15.26Q275.06-15.26 274.12-14.24Q273.18-13.22 272.92-11.32L272.92-11.32L279.98-11.32L279.98-11.72Q279.95-13.41 279.07-14.33Q278.19-15.26 276.57-15.26ZM295.77-3.74L295.77-3.74Q297.18-3.74 298.05-4.52Q298.93-5.29 298.97-6.57L298.97-6.57L303.73-6.57Q303.71-4.64 302.68-3.03Q301.64-1.42 299.84-0.54Q298.04 0.35 295.86 0.35L295.86 0.35Q291.78 0.35 289.42-2.24Q287.07-4.83 287.07-9.40L287.07-9.40L287.07-9.74Q287.07-14.13 289.41-16.75Q291.74-19.37 295.82-19.37L295.82-19.37Q299.39-19.37 301.54-17.34Q303.70-15.31 303.73-11.94L303.73-11.94L298.97-11.94Q298.93-13.41 298.05-14.33Q297.18-15.26 295.73-15.26L295.73-15.26Q293.96-15.26 293.05-13.97Q292.15-12.67 292.15-9.77L292.15-9.77L292.15-9.25Q292.15-6.31 293.04-5.03Q293.94-3.74 295.77-3.74ZM311.99-19.02L311.99 0L306.90 0L306.90-19.02L311.99-19.02ZM306.60-23.94L306.60-23.94Q306.60-25.08 307.36-25.82Q308.13-26.56 309.45-26.56L309.45-26.56Q310.75-26.56 311.52-25.82Q312.29-25.08 312.29-23.94L312.29-23.94Q312.29-22.78 311.51-22.04Q310.73-21.30 309.45-21.30Q308.16-21.30 307.38-22.04Q306.60-22.78 306.60-23.94ZM332.33 0L327.20 0Q326.85-0.69 326.69-1.71L326.69-1.71Q324.84 0.35 321.89 0.35L321.89 0.35Q319.10 0.35 317.26-1.27Q315.42-2.88 315.42-5.34L315.42-5.34Q315.42-8.37 317.66-9.98Q319.90-11.60 324.14-11.62L324.14-11.62L326.48-11.62L326.48-12.71Q326.48-14.03 325.80-14.82Q325.13-15.61 323.67-15.61L323.67-15.61Q322.38-15.61 321.65-14.99Q320.92-14.38 320.92-13.31L320.92-13.31L315.84-13.31Q315.84-14.96 316.86-16.37Q317.88-17.77 319.75-18.57Q321.61-19.37 323.93-19.37L323.93-19.37Q327.45-19.37 329.51-17.60Q331.58-15.84 331.58-12.64L331.58-12.64L331.58-4.39Q331.59-1.69 332.33-0.30L332.33-0.30L332.33 0ZM323.00-3.53L323.00-3.53Q324.12-3.53 325.07-4.03Q326.02-4.54 326.48-5.38L326.48-5.38L326.48-8.65L324.58-8.65Q320.77-8.65 320.52-6.01L320.52-6.01L320.50-5.71Q320.50-4.76 321.17-4.15Q321.84-3.53 323.00-3.53ZM340.84-27L340.84 0L335.74 0L335.74-27L340.84-27ZM350.38-19.02L350.38 0L345.29 0L345.29-19.02L350.38-19.02ZM344.99-23.94L344.99-23.94Q344.99-25.08 345.75-25.82Q346.52-26.56 347.84-26.56L347.84-26.56Q349.14-26.56 349.91-25.82Q350.68-25.08 350.68-23.94L350.68-23.94Q350.68-22.78 349.90-22.04Q349.12-21.30 347.84-21.30Q346.55-21.30 345.77-22.04Q344.99-22.78 344.99-23.94ZM369.42-16.01L360.40-4.10L369.70-4.10L369.70 0L353.92 0L353.92-3.09L362.87-14.91L354.18-14.91L354.18-19.02L369.42-19.02L369.42-16.01ZM381.64 0.35L381.64 0.35Q377.46 0.35 374.83-2.21Q372.20-4.78 372.20-9.05L372.20-9.05L372.20-9.54Q372.20-12.41 373.31-14.67Q374.41-16.93 376.44-18.15Q378.47-19.37 381.08-19.37L381.08-19.37Q384.98-19.37 387.22-16.91Q389.46-14.45 389.46-9.93L389.46-9.93L389.46-7.86L377.35-7.86Q377.60-5.99 378.83-4.87Q380.07-3.74 381.97-3.74L381.97-3.74Q384.91-3.74 386.56-5.87L386.56-5.87L389.06-3.08Q387.91-1.46 385.96-0.55Q384.01 0.35 381.64 0.35ZM381.06-15.26L381.06-15.26Q379.55-15.26 378.61-14.24Q377.67-13.22 377.40-11.32L377.40-11.32L384.47-11.32L384.47-11.72Q384.43-13.41 383.55-14.33Q382.68-15.26 381.06-15.26ZM391.55-9.65L391.55-9.65Q391.55-14.10 393.55-16.73Q395.54-19.37 399.01-19.37L399.01-19.37Q401.78-19.37 403.59-17.30L403.59-17.30L403.59-27L408.69-27L408.69 0L404.10 0L403.86-2.02Q401.96 0.35 398.97 0.35L398.97 0.35Q395.61 0.35 393.58-2.29Q391.55-4.94 391.55-9.65ZM396.63-9.28L396.63-9.28Q396.63-6.61 397.56-5.19Q398.50-3.76 400.27-3.76L400.27-3.76Q402.63-3.76 403.59-5.75L403.59-5.75L403.59-13.25Q402.64-15.24 400.31-15.24L400.31-15.24Q396.63-15.24 396.63-9.28ZM429.50-3.74L429.50-3.74Q430.91-3.74 431.79-4.52Q432.67-5.29 432.70-6.57L432.70-6.57L437.47-6.57Q437.45-4.64 436.41-3.03Q435.38-1.42 433.57-0.54Q431.77 0.35 429.59 0.35L429.59 0.35Q425.51 0.35 423.16-2.24Q420.80-4.83 420.80-9.40L420.80-9.40L420.80-9.74Q420.80-14.13 423.14-16.75Q425.48-19.37 429.56-19.37L429.56-19.37Q433.13-19.37 435.28-17.34Q437.43-15.31 437.47-11.94L437.47-11.94L432.70-11.94Q432.67-13.41 431.79-14.33Q430.91-15.26 429.47-15.26L429.47-15.26Q427.69-15.26 426.79-13.97Q425.88-12.67 425.88-9.77L425.88-9.77L425.88-9.25Q425.88-6.31 426.78-5.03Q427.68-3.74 429.50-3.74ZM456.52 0L451.39 0Q451.04-0.69 450.88-1.71L450.88-1.71Q449.03 0.35 446.08 0.35L446.08 0.35Q443.29 0.35 441.45-1.27Q439.61-2.88 439.61-5.34L439.61-5.34Q439.61-8.37 441.85-9.98Q444.09-11.60 448.33-11.62L448.33-11.62L450.67-11.62L450.67-12.71Q450.67-14.03 449.99-14.82Q449.31-15.61 447.86-15.61L447.86-15.61Q446.57-15.61 445.84-14.99Q445.11-14.38 445.11-13.31L445.11-13.31L440.03-13.31Q440.03-14.96 441.05-16.37Q442.07-17.77 443.94-18.57Q445.80-19.37 448.12-19.37L448.12-19.37Q451.63-19.37 453.70-17.60Q455.77-15.84 455.77-12.64L455.77-12.64L455.77-4.39Q455.78-1.69 456.52-0.30L456.52-0.30L456.52 0ZM447.19-3.53L447.19-3.53Q448.31-3.53 449.26-4.03Q450.21-4.54 450.67-5.38L450.67-5.38L450.67-8.65L448.77-8.65Q444.96-8.65 444.71-6.01L444.71-6.01L444.69-5.71Q444.69-4.76 445.36-4.15Q446.03-3.53 447.19-3.53ZM476.79-9.60L476.79-9.33Q476.79-4.94 474.79-2.29Q472.80 0.35 469.41 0.35L469.41 0.35Q466.52 0.35 464.75-1.65L464.75-1.65L464.75 7.31L459.67 7.31L459.67-19.02L464.38-19.02L464.55-17.16Q466.40-19.37 469.37-19.37L469.37-19.37Q472.89-19.37 474.84-16.77Q476.79-14.17 476.79-9.60L476.79-9.60ZM471.71-9.70L471.71-9.70Q471.71-12.36 470.77-13.80Q469.83-15.24 468.04-15.24L468.04-15.24Q465.64-15.24 464.75-13.41L464.75-13.41L464.75-5.63Q465.68-3.74 468.07-3.74L468.07-3.74Q471.71-3.74 471.71-9.70ZM496.09 0L490.96 0Q490.61-0.69 490.45-1.71L490.45-1.71Q488.60 0.35 485.65 0.35L485.65 0.35Q482.85 0.35 481.02-1.27Q479.18-2.88 479.18-5.34L479.18-5.34Q479.18-8.37 481.42-9.98Q483.66-11.60 487.90-11.62L487.90-11.62L490.24-11.62L490.24-12.71Q490.24-14.03 489.56-14.82Q488.88-15.61 487.42-15.61L487.42-15.61Q486.14-15.61 485.41-14.99Q484.68-14.38 484.68-13.31L484.68-13.31L479.60-13.31Q479.60-14.96 480.62-16.37Q481.64-17.77 483.50-18.57Q485.37-19.37 487.69-19.37L487.69-19.37Q491.20-19.37 493.27-17.60Q495.33-15.84 495.33-12.64L495.33-12.64L495.33-4.39Q495.35-1.69 496.09-0.30L496.09-0.30L496.09 0ZM486.76-3.53L486.76-3.53Q487.88-3.53 488.83-4.03Q489.78-4.54 490.24-5.38L490.24-5.38L490.24-8.65L488.34-8.65Q484.52-8.65 484.28-6.01L484.28-6.01L484.26-5.71Q484.26-4.76 484.93-4.15Q485.60-3.53 486.76-3.53ZM516.38-9.62L516.38-9.33Q516.38-4.76 514.42-2.21Q512.47 0.35 508.97 0.35L508.97 0.35Q505.88 0.35 504.04-2.02L504.04-2.02L503.81 0L499.24 0L499.24-27L504.32-27L504.32-17.31Q506.07-19.37 508.94-19.37L508.94-19.37Q512.42-19.37 514.40-16.81Q516.38-14.26 516.38-9.62L516.38-9.62ZM511.29-9.70L511.29-9.70Q511.29-12.59 510.38-13.91Q509.47-15.24 507.66-15.24L507.66-15.24Q505.23-15.24 504.32-13.25L504.32-13.25L504.32-5.75Q505.25-3.74 507.69-3.74L507.69-3.74Q510.15-3.74 510.93-6.17L510.93-6.17Q511.29-7.33 511.29-9.70ZM524.87-19.02L524.87 0L519.77 0L519.77-19.02L524.87-19.02ZM519.47-23.94L519.47-23.94Q519.47-25.08 520.23-25.82Q521.00-26.56 522.32-26.56L522.32-26.56Q523.62-26.56 524.39-25.82Q525.16-25.08 525.16-23.94L525.16-23.94Q525.16-22.78 524.38-22.04Q523.60-21.30 522.32-21.30Q521.03-21.30 520.25-22.04Q519.47-22.78 519.47-23.94ZM534.41-27L534.41 0L529.31 0L529.31-27L534.41-27ZM543.96-19.02L543.96 0L538.86 0L538.86-19.02L543.96-19.02ZM538.56-23.94L538.56-23.94Q538.56-25.08 539.32-25.82Q540.09-26.56 541.41-26.56L541.41-26.56Q542.71-26.56 543.48-25.82Q544.25-25.08 544.25-23.94L544.25-23.94Q544.25-22.78 543.47-22.04Q542.69-21.30 541.41-21.30Q540.12-21.30 539.34-22.04Q538.56-22.78 538.56-23.94ZM549.14-23.70L554.22-23.70L554.22-19.02L557.47-19.02L557.47-15.29L554.22-15.29L554.22-5.80Q554.22-4.75 554.63-4.29Q555.03-3.83 556.17-3.83L556.17-3.83Q557.02-3.83 557.67-3.96L557.67-3.96L557.67-0.11Q556.17 0.35 554.59 0.35L554.59 0.35Q549.25 0.35 549.14-5.04L549.14-5.04L549.14-15.29L546.36-15.29L546.36-19.02L549.14-19.02L549.14-23.70ZM565.66-19.02L565.66 0L560.57 0L560.57-19.02L565.66-19.02ZM560.27-23.94L560.27-23.94Q560.27-25.08 561.03-25.82Q561.80-26.56 563.12-26.56L563.12-26.56Q564.42-26.56 565.19-25.82Q565.96-25.08 565.96-23.94L565.96-23.94Q565.96-22.78 565.18-22.04Q564.40-21.30 563.12-21.30Q561.83-21.30 561.05-22.04Q560.27-22.78 560.27-23.94ZM578.60 0.35L578.60 0.35Q574.42 0.35 571.79-2.21Q569.16-4.78 569.16-9.05L569.16-9.05L569.16-9.54Q569.16-12.41 570.27-14.67Q571.38-16.93 573.41-18.15Q575.44-19.37 578.04-19.37L578.04-19.37Q581.94-19.37 584.18-16.91Q586.42-14.45 586.42-9.93L586.42-9.93L586.42-7.86L574.31-7.86Q574.56-5.99 575.80-4.87Q577.04-3.74 578.94-3.74L578.94-3.74Q581.87-3.74 583.52-5.87L583.52-5.87L586.02-3.08Q584.88-1.46 582.93-0.55Q580.97 0.35 578.60 0.35ZM578.02-15.26L578.02-15.26Q576.51-15.26 575.57-14.24Q574.63-13.22 574.37-11.32L574.37-11.32L581.43-11.32L581.43-11.72Q581.40-13.41 580.52-14.33Q579.64-15.26 578.02-15.26ZM599.61-5.26L599.61-5.26Q599.61-6.19 598.68-6.72Q597.76-7.26 595.72-7.68L595.72-7.68Q588.94-9.11 588.94-13.45L588.94-13.45Q588.94-15.98 591.04-17.67Q593.14-19.37 596.53-19.37L596.53-19.37Q600.15-19.37 602.32-17.67Q604.49-15.96 604.49-13.24L604.49-13.24L599.41-13.24Q599.41-14.33 598.71-15.04Q598.01-15.75 596.51-15.75L596.51-15.75Q595.23-15.75 594.53-15.17Q593.82-14.59 593.82-13.69L593.82-13.69Q593.82-12.85 594.62-12.33Q595.42-11.81 597.32-11.43Q599.22-11.06 600.52-10.58L600.52-10.58Q604.55-9.11 604.55-5.47L604.55-5.47Q604.55-2.87 602.31-1.26Q600.08 0.35 596.55 0.35L596.55 0.35Q594.16 0.35 592.30-0.50Q590.45-1.35 589.39-2.84Q588.34-4.32 588.34-6.05L588.34-6.05L593.16-6.05Q593.23-4.69 594.16-3.97Q595.09-3.25 596.65-3.25L596.65-3.25Q598.11-3.25 598.86-3.81Q599.61-4.36 599.61-5.26Z" transform="translate(620, 630)" fill="#ffffff" /><circle cx="580" cy="695" r="6" fill="#e94560" /><path d="M15.56-6.71L15.56-6.71Q15.56-8.21 14.50-9.01Q13.45-9.81 10.71-10.70Q7.96-11.58 6.36-12.45L6.36-12.45Q2.00-14.80 2.00-18.79L2.00-18.79Q2.00-20.87 3.17-22.49Q4.34-24.12 6.53-25.03Q8.72-25.95 11.44-25.95L11.44-25.95Q14.19-25.95 16.33-24.95Q18.47-23.96 19.66-22.15Q20.85-20.34 20.85-18.04L20.85-18.04L15.57-18.04Q15.57-19.79 14.47-20.77Q13.36-21.74 11.36-21.74L11.36-21.74Q9.42-21.74 8.35-20.93Q7.28-20.11 7.28-18.77L7.28-18.77Q7.28-17.53 8.53-16.68Q9.79-15.84 12.23-15.10L12.23-15.10Q16.73-13.75 18.79-11.74Q20.85-9.74 20.85-6.75L20.85-6.75Q20.85-3.43 18.33-1.54Q15.82 0.35 11.57 0.35L11.57 0.35Q8.61 0.35 6.19-0.73Q3.76-1.81 2.49-3.69Q1.21-5.57 1.21-8.05L1.21-8.05L6.50-8.05Q6.50-3.81 11.57-3.81L11.57-3.81Q13.45-3.81 14.50-4.58Q15.56-5.34 15.56-6.71ZM32.84 0.35L32.84 0.35Q28.65 0.35 26.02-2.21Q23.40-4.78 23.40-9.05L23.40-9.05L23.40-9.54Q23.40-12.41 24.50-14.67Q25.61-16.93 27.64-18.15Q29.67-19.37 32.27-19.37L32.27-19.37Q36.18-19.37 38.42-16.91Q40.66-14.45 40.66-9.93L40.66-9.93L40.66-7.86L28.55-7.86Q28.79-5.99 30.03-4.87Q31.27-3.74 33.17-3.74L33.17-3.74Q36.11-3.74 37.76-5.87L37.76-5.87L40.25-3.08Q39.11-1.46 37.16-0.55Q35.21 0.35 32.84 0.35ZM32.26-15.26L32.26-15.26Q30.74-15.26 29.80-14.24Q28.86-13.22 28.60-11.32L28.60-11.32L35.67-11.32L35.67-11.72Q35.63-13.41 34.75-14.33Q33.87-15.26 32.26-15.26ZM53.84-5.26L53.84-5.26Q53.84-6.19 52.92-6.72Q52.00-7.26 49.96-7.68L49.96-7.68Q43.17-9.11 43.17-13.45L43.17-13.45Q43.17-15.98 45.27-17.67Q47.37-19.37 50.77-19.37L50.77-19.37Q54.39-19.37 56.56-17.67Q58.73-15.96 58.73-13.24L58.73-13.24L53.65-13.24Q53.65-14.33 52.95-15.04Q52.24-15.75 50.75-15.75L50.75-15.75Q49.46-15.75 48.76-15.17Q48.06-14.59 48.06-13.69L48.06-13.69Q48.06-12.85 48.86-12.33Q49.66-11.81 51.56-11.43Q53.46-11.06 54.76-10.58L54.76-10.58Q58.78-9.11 58.78-5.47L58.78-5.47Q58.78-2.87 56.55-1.26Q54.32 0.35 50.78 0.35L50.78 0.35Q48.39 0.35 46.54-0.50Q44.68-1.35 43.63-2.84Q42.57-4.32 42.57-6.05L42.57-6.05L47.39-6.05Q47.46-4.69 48.39-3.97Q49.32-3.25 50.89-3.25L50.89-3.25Q52.35-3.25 53.09-3.81Q53.84-4.36 53.84-5.26ZM72.35-5.26L72.35-5.26Q72.35-6.19 71.43-6.72Q70.51-7.26 68.47-7.68L68.47-7.68Q61.68-9.11 61.68-13.45L61.68-13.45Q61.68-15.98 63.78-17.67Q65.88-19.37 69.28-19.37L69.28-19.37Q72.90-19.37 75.07-17.67Q77.24-15.96 77.24-13.24L77.24-13.24L72.16-13.24Q72.16-14.33 71.46-15.04Q70.75-15.75 69.26-15.75L69.26-15.75Q67.97-15.75 67.27-15.17Q66.57-14.59 66.57-13.69L66.57-13.69Q66.57-12.85 67.37-12.33Q68.17-11.81 70.07-11.43Q71.96-11.06 73.27-10.58L73.27-10.58Q77.29-9.11 77.29-5.47L77.29-5.47Q77.29-2.87 75.06-1.26Q72.83 0.35 69.29 0.35L69.29 0.35Q66.90 0.35 65.05-0.50Q63.19-1.35 62.14-2.84Q61.08-4.32 61.08-6.05L61.08-6.05L65.90-6.05Q65.97-4.69 66.90-3.97Q67.83-3.25 69.40-3.25L69.40-3.25Q70.86-3.25 71.60-3.81Q72.35-4.36 72.35-5.26ZM85.92-19.02L85.92 0L80.82 0L80.82-19.02L85.92-19.02ZM80.53-23.94L80.53-23.94Q80.53-25.08 81.29-25.82Q82.05-26.56 83.37-26.56L83.37-26.56Q84.67-26.56 85.45-25.82Q86.22-25.08 86.22-23.94L86.22-23.94Q86.22-22.78 85.44-22.04Q84.66-21.30 83.37-21.30Q82.09-21.30 81.31-22.04Q80.53-22.78 80.53-23.94ZM89.31-9.46L89.31-9.69Q89.31-12.52 90.40-14.73Q91.49-16.95 93.54-18.16Q95.59-19.37 98.30-19.37L98.30-19.37Q102.15-19.37 104.58-17.02Q107.02-14.66 107.30-10.62L107.30-10.62L107.33-9.32Q107.33-4.94 104.89-2.29Q102.45 0.35 98.33 0.35Q94.22 0.35 91.77-2.29Q89.31-4.92 89.31-9.46L89.31-9.46ZM94.39-9.32L94.39-9.32Q94.39-6.61 95.41-5.18Q96.43-3.74 98.33-3.74L98.33-3.74Q100.18-3.74 101.21-5.16Q102.25-6.57 102.25-9.69L102.25-9.69Q102.25-12.34 101.21-13.80Q100.18-15.26 98.30-15.26L98.30-15.26Q96.43-15.26 95.41-13.81Q94.39-12.36 94.39-9.32ZM110.36-19.02L115.14-19.02L115.29-16.82Q117.33-19.37 120.76-19.37L120.76-19.37Q123.79-19.37 125.26-17.60Q126.74-15.82 126.77-12.29L126.77-12.29L126.77 0L121.69 0L121.69-12.16Q121.69-13.78 120.99-14.51Q120.29-15.24 118.65-15.24L118.65-15.24Q116.51-15.24 115.44-13.41L115.44-13.41L115.44 0L110.36 0L110.36-19.02ZM140.92-5.26L140.92-5.26Q140.92-6.19 140.00-6.72Q139.08-7.26 137.04-7.68L137.04-7.68Q130.25-9.11 130.25-13.45L130.25-13.45Q130.25-15.98 132.35-17.67Q134.46-19.37 137.85-19.37L137.85-19.37Q141.47-19.37 143.64-17.67Q145.81-15.96 145.81-13.24L145.81-13.24L140.73-13.24Q140.73-14.33 140.03-15.04Q139.32-15.75 137.83-15.75L137.83-15.75Q136.55-15.75 135.84-15.17Q135.14-14.59 135.14-13.69L135.14-13.69Q135.14-12.85 135.94-12.33Q136.74-11.81 138.64-11.43Q140.54-11.06 141.84-10.58L141.84-10.58Q145.86-9.11 145.86-5.47L145.86-5.47Q145.86-2.87 143.63-1.26Q141.40 0.35 137.87 0.35L137.87 0.35Q135.47 0.35 133.62-0.50Q131.77-1.35 130.71-2.84Q129.66-4.32 129.66-6.05L129.66-6.05L134.47-6.05Q134.54-4.69 135.47-3.97Q136.41-3.25 137.97-3.25L137.97-3.25Q139.43-3.25 140.18-3.81Q140.92-4.36 140.92-5.26ZM158.10-19.02L162.86-19.02L163.02-16.89Q165.04-19.37 168.49-19.37L168.49-19.37Q172.16-19.37 173.53-16.47L173.53-16.47Q175.54-19.37 179.24-19.37L179.24-19.37Q182.34-19.37 183.85-17.57Q185.36-15.77 185.36-12.15L185.36-12.15L185.36 0L180.26 0L180.26-12.13Q180.26-13.75 179.63-14.49Q179.00-15.24 177.40-15.24L177.40-15.24Q175.11-15.24 174.23-13.06L174.23-13.06L174.25 0L169.17 0L169.17-12.11Q169.17-13.76 168.52-14.50Q167.87-15.24 166.31-15.24L166.31-15.24Q164.14-15.24 163.18-13.45L163.18-13.45L163.18 0L158.10 0L158.10-19.02ZM205.42 0L200.29 0Q199.93-0.69 199.78-1.71L199.78-1.71Q197.93 0.35 194.98 0.35L194.98 0.35Q192.18 0.35 190.34-1.27Q188.51-2.88 188.51-5.34L188.51-5.34Q188.51-8.37 190.75-9.98Q192.99-11.60 197.23-11.62L197.23-11.62L199.56-11.62L199.56-12.71Q199.56-14.03 198.89-14.82Q198.21-15.61 196.75-15.61L196.75-15.61Q195.47-15.61 194.74-14.99Q194.01-14.38 194.01-13.31L194.01-13.31L188.93-13.31Q188.93-14.96 189.95-16.37Q190.97-17.77 192.83-18.57Q194.70-19.37 197.02-19.37L197.02-19.37Q200.53-19.37 202.60-17.60Q204.66-15.84 204.66-12.64L204.66-12.64L204.66-4.39Q204.68-1.69 205.42-0.30L205.42-0.30L205.42 0ZM196.08-3.53L196.08-3.53Q197.21-3.53 198.16-4.03Q199.11-4.54 199.56-5.38L199.56-5.38L199.56-8.65L197.67-8.65Q193.85-8.65 193.61-6.01L193.61-6.01L193.59-5.71Q193.59-4.76 194.26-4.15Q194.92-3.53 196.08-3.53ZM208.46-19.02L213.24-19.02L213.40-16.82Q215.44-19.37 218.87-19.37L218.87-19.37Q221.89-19.37 223.37-17.60Q224.84-15.82 224.88-12.29L224.88-12.29L224.88 0L219.80 0L219.80-12.16Q219.80-13.78 219.09-14.51Q218.39-15.24 216.76-15.24L216.76-15.24Q214.61-15.24 213.54-13.41L213.54-13.41L213.54 0L208.46 0L208.46-19.02ZM244.88 0L239.75 0Q239.40-0.69 239.24-1.71L239.24-1.71Q237.39 0.35 234.44 0.35L234.44 0.35Q231.64 0.35 229.81-1.27Q227.97-2.88 227.97-5.34L227.97-5.34Q227.97-8.37 230.21-9.98Q232.45-11.60 236.69-11.62L236.69-11.62L239.03-11.62L239.03-12.71Q239.03-14.03 238.35-14.82Q237.67-15.61 236.21-15.61L236.21-15.61Q234.93-15.61 234.20-14.99Q233.47-14.38 233.47-13.31L233.47-13.31L228.39-13.31Q228.39-14.96 229.41-16.37Q230.43-17.77 232.29-18.57Q234.16-19.37 236.48-19.37L236.48-19.37Q239.99-19.37 242.06-17.60Q244.13-15.84 244.13-12.64L244.13-12.64L244.13-4.39Q244.14-1.69 244.88-0.30L244.88-0.30L244.88 0ZM235.55-3.53L235.55-3.53Q236.67-3.53 237.62-4.03Q238.57-4.54 239.03-5.38L239.03-5.38L239.03-8.65L237.13-8.65Q233.31-8.65 233.07-6.01L233.07-6.01L233.05-5.71Q233.05-4.76 233.72-4.15Q234.39-3.53 235.55-3.53ZM247.29-9.44L247.29-9.65Q247.29-14.03 249.37-16.70Q251.46-19.37 254.99-19.37L254.99-19.37Q258.12-19.37 259.86-17.23L259.86-17.23L260.07-19.02L264.67-19.02L264.67-0.63Q264.67 1.86 263.54 3.71Q262.41 5.55 260.35 6.52Q258.29 7.49 255.53 7.49L255.53 7.49Q253.44 7.49 251.46 6.65Q249.47 5.82 248.45 4.50L248.45 4.50L250.70 1.41Q252.60 3.53 255.30 3.53L255.30 3.53Q257.33 3.53 258.45 2.45Q259.58 1.37 259.58-0.62L259.58-0.62L259.58-1.63Q257.82 0.35 254.95 0.35L254.95 0.35Q251.53 0.35 249.41-2.33Q247.29-5.01 247.29-9.44L247.29-9.44ZM252.37-9.28L252.37-9.28Q252.37-6.70 253.41-5.23Q254.44-3.76 256.25-3.76L256.25-3.76Q258.57-3.76 259.58-5.50L259.58-5.50L259.58-13.50Q258.56-15.24 256.29-15.24L256.29-15.24Q254.46-15.24 253.42-13.75Q252.37-12.25 252.37-9.28ZM277.33 0.35L277.33 0.35Q273.15 0.35 270.52-2.21Q267.89-4.78 267.89-9.05L267.89-9.05L267.89-9.54Q267.89-12.41 269.00-14.67Q270.11-16.93 272.14-18.15Q274.17-19.37 276.77-19.37L276.77-19.37Q280.67-19.37 282.91-16.91Q285.15-14.45 285.15-9.93L285.15-9.93L285.15-7.86L273.04-7.86Q273.29-5.99 274.53-4.87Q275.77-3.74 277.66-3.74L277.66-3.74Q280.60-3.74 282.25-5.87L282.25-5.87L284.75-3.08Q283.61-1.46 281.65-0.55Q279.70 0.35 277.33 0.35ZM276.75-15.26L276.75-15.26Q275.24-15.26 274.30-14.24Q273.36-13.22 273.09-11.32L273.09-11.32L280.16-11.32L280.16-11.72Q280.13-13.41 279.25-14.33Q278.37-15.26 276.75-15.26ZM307.30-5.26L307.30-5.26Q307.30-6.19 306.38-6.72Q305.46-7.26 303.42-7.68L303.42-7.68Q296.63-9.11 296.63-13.45L296.63-13.45Q296.63-15.98 298.73-17.67Q300.83-19.37 304.22-19.37L304.22-19.37Q307.85-19.37 310.02-17.67Q312.19-15.96 312.19-13.24L312.19-13.24L307.11-13.24Q307.11-14.33 306.40-15.04Q305.70-15.75 304.21-15.75L304.21-15.75Q302.92-15.75 302.22-15.17Q301.52-14.59 301.52-13.69L301.52-13.69Q301.52-12.85 302.32-12.33Q303.12-11.81 305.02-11.43Q306.91-11.06 308.21-10.58L308.21-10.58Q312.24-9.11 312.24-5.47L312.24-5.47Q312.24-2.87 310.01-1.26Q307.78 0.35 304.24 0.35L304.24 0.35Q301.85 0.35 300.00-0.50Q298.14-1.35 297.09-2.84Q296.03-4.32 296.03-6.05L296.03-6.05L300.85-6.05Q300.92-4.69 301.85-3.97Q302.78-3.25 304.35-3.25L304.35-3.25Q305.81-3.25 306.55-3.81Q307.30-4.36 307.30-5.26ZM324.26 0.35L324.26 0.35Q320.08 0.35 317.45-2.21Q314.82-4.78 314.82-9.05L314.82-9.05L314.82-9.54Q314.82-12.41 315.93-14.67Q317.04-16.93 319.07-18.15Q321.10-19.37 323.70-19.37L323.70-19.37Q327.60-19.37 329.84-16.91Q332.09-14.45 332.09-9.93L332.09-9.93L332.09-7.86L319.97-7.86Q320.22-5.99 321.46-4.87Q322.70-3.74 324.60-3.74L324.60-3.74Q327.53-3.74 329.19-5.87L329.19-5.87L331.68-3.08Q330.54-1.46 328.59-0.55Q326.64 0.35 324.26 0.35ZM323.68-15.26L323.68-15.26Q322.17-15.26 321.23-14.24Q320.29-13.22 320.03-11.32L320.03-11.32L327.09-11.32L327.09-11.72Q327.06-13.41 326.18-14.33Q325.30-15.26 323.68-15.26ZM352.09-9.60L352.09-9.33Q352.09-4.94 350.09-2.29Q348.10 0.35 344.71 0.35L344.71 0.35Q341.82 0.35 340.05-1.65L340.05-1.65L340.05 7.31L334.97 7.31L334.97-19.02L339.68-19.02L339.86-17.16Q341.70-19.37 344.67-19.37L344.67-19.37Q348.19-19.37 350.14-16.77Q352.09-14.17 352.09-9.60L352.09-9.60ZM347.01-9.70L347.01-9.70Q347.01-12.36 346.07-13.80Q345.13-15.24 343.34-15.24L343.34-15.24Q340.95-15.24 340.05-13.41L340.05-13.41L340.05-5.63Q340.98-3.74 343.37-3.74L343.37-3.74Q347.01-3.74 347.01-9.70ZM371.39 0L366.26 0Q365.91-0.69 365.75-1.71L365.75-1.71Q363.90 0.35 360.95 0.35L360.95 0.35Q358.15 0.35 356.32-1.27Q354.48-2.88 354.48-5.34L354.48-5.34Q354.48-8.37 356.72-9.98Q358.96-11.60 363.20-11.62L363.20-11.62L365.54-11.62L365.54-12.71Q365.54-14.03 364.86-14.82Q364.18-15.61 362.72-15.61L362.72-15.61Q361.44-15.61 360.71-14.99Q359.98-14.38 359.98-13.31L359.98-13.31L354.90-13.31Q354.90-14.96 355.92-16.37Q356.94-17.77 358.80-18.57Q360.67-19.37 362.99-19.37L362.99-19.37Q366.50-19.37 368.57-17.60Q370.63-15.84 370.63-12.64L370.63-12.64L370.63-4.39Q370.65-1.69 371.39-0.30L371.39-0.30L371.39 0ZM362.06-3.53L362.06-3.53Q363.18-3.53 364.13-4.03Q365.08-4.54 365.54-5.38L365.54-5.38L365.54-8.65L363.64-8.65Q359.82-8.65 359.58-6.01L359.58-6.01L359.56-5.71Q359.56-4.76 360.23-4.15Q360.90-3.53 362.06-3.53ZM385.29-19.14L385.22-14.26Q384.19-14.40 383.40-14.40L383.40-14.40Q380.51-14.40 379.62-12.45L379.62-12.45L379.62 0L374.54 0L374.54-19.02L379.34-19.02L379.48-16.75Q381.01-19.37 383.71-19.37L383.71-19.37Q384.56-19.37 385.29-19.14L385.29-19.14ZM403.82 0L398.69 0Q398.34-0.69 398.18-1.71L398.18-1.71Q396.33 0.35 393.38 0.35L393.38 0.35Q390.59 0.35 388.75-1.27Q386.91-2.88 386.91-5.34L386.91-5.34Q386.91-8.37 389.15-9.98Q391.39-11.60 395.63-11.62L395.63-11.62L397.97-11.62L397.97-12.71Q397.97-14.03 397.29-14.82Q396.62-15.61 395.16-15.61L395.16-15.61Q393.87-15.61 393.14-14.99Q392.41-14.38 392.41-13.31L392.41-13.31L387.33-13.31Q387.33-14.96 388.35-16.37Q389.37-17.77 391.24-18.57Q393.10-19.37 395.42-19.37L395.42-19.37Q398.94-19.37 401.00-17.60Q403.07-15.84 403.07-12.64L403.07-12.64L403.07-4.39Q403.08-1.69 403.82-0.30L403.82-0.30L403.82 0ZM394.49-3.53L394.49-3.53Q395.61-3.53 396.56-4.03Q397.51-4.54 397.97-5.38L397.97-5.38L397.97-8.65L396.07-8.65Q392.26-8.65 392.01-6.01L392.01-6.01L391.99-5.71Q391.99-4.76 392.66-4.15Q393.33-3.53 394.49-3.53ZM407.97-23.70L413.05-23.70L413.05-19.02L416.30-19.02L416.30-15.29L413.05-15.29L413.05-5.80Q413.05-4.75 413.46-4.29Q413.86-3.83 415.00-3.83L415.00-3.83Q415.85-3.83 416.50-3.96L416.50-3.96L416.50-0.11Q415.00 0.35 413.42 0.35L413.42 0.35Q408.08 0.35 407.97-5.04L407.97-5.04L407.97-15.29L405.19-15.29L405.19-19.02L407.97-19.02L407.97-23.70ZM427.89 0.35L427.89 0.35Q423.70 0.35 421.08-2.21Q418.45-4.78 418.45-9.05L418.45-9.05L418.45-9.54Q418.45-12.41 419.55-14.67Q420.66-16.93 422.69-18.15Q424.72-19.37 427.32-19.37L427.32-19.37Q431.23-19.37 433.47-16.91Q435.71-14.45 435.71-9.93L435.71-9.93L435.71-7.86L423.60-7.86Q423.84-5.99 425.08-4.87Q426.32-3.74 428.22-3.74L428.22-3.74Q431.16-3.74 432.81-5.87L432.81-5.87L435.30-3.08Q434.16-1.46 432.21-0.55Q430.26 0.35 427.89 0.35ZM427.31-15.26L427.31-15.26Q425.79-15.26 424.85-14.24Q423.91-13.22 423.65-11.32L423.65-11.32L430.72-11.32L430.72-11.72Q430.68-13.41 429.80-14.33Q428.92-15.26 427.31-15.26ZM455.47-3.74L455.47-3.74Q456.87-3.74 457.75-4.52Q458.63-5.29 458.67-6.57L458.67-6.57L463.43-6.57Q463.41-4.64 462.38-3.03Q461.34-1.42 459.54-0.54Q457.73 0.35 455.55 0.35L455.55 0.35Q451.48 0.35 449.12-2.24Q446.77-4.83 446.77-9.40L446.77-9.40L446.77-9.74Q446.77-14.13 449.10-16.75Q451.44-19.37 455.52-19.37L455.52-19.37Q459.09-19.37 461.24-17.34Q463.39-15.31 463.43-11.94L463.43-11.94L458.67-11.94Q458.63-13.41 457.75-14.33Q456.87-15.26 455.43-15.26L455.43-15.26Q453.66-15.26 452.75-13.97Q451.85-12.67 451.85-9.77L451.85-9.77L451.85-9.25Q451.85-6.31 452.74-5.03Q453.64-3.74 455.47-3.74ZM465.54-9.46L465.54-9.69Q465.54-12.52 466.63-14.73Q467.72-16.95 469.77-18.16Q471.81-19.37 474.52-19.37L474.52-19.37Q478.37-19.37 480.81-17.02Q483.24-14.66 483.52-10.62L483.52-10.62L483.56-9.32Q483.56-4.94 481.11-2.29Q478.67 0.35 474.56 0.35Q470.44 0.35 467.99-2.29Q465.54-4.92 465.54-9.46L465.54-9.46ZM470.62-9.32L470.62-9.32Q470.62-6.61 471.64-5.18Q472.66-3.74 474.56-3.74L474.56-3.74Q476.40-3.74 477.44-5.16Q478.48-6.57 478.48-9.69L478.48-9.69Q478.48-12.34 477.44-13.80Q476.40-15.26 474.52-15.26L474.52-15.26Q472.66-15.26 471.64-13.81Q470.62-12.36 470.62-9.32ZM486.58-19.02L491.36-19.02L491.52-16.82Q493.56-19.37 496.99-19.37L496.99-19.37Q500.01-19.37 501.49-17.60Q502.96-15.82 503.00-12.29L503.00-12.29L503.00 0L497.92 0L497.92-12.16Q497.92-13.78 497.21-14.51Q496.51-15.24 494.88-15.24L494.88-15.24Q492.73-15.24 491.66-13.41L491.66-13.41L491.66 0L486.58 0L486.58-19.02ZM507.85-23.70L512.93-23.70L512.93-19.02L516.18-19.02L516.18-15.29L512.93-15.29L512.93-5.80Q512.93-4.75 513.33-4.29Q513.74-3.83 514.88-3.83L514.88-3.83Q515.72-3.83 516.38-3.96L516.38-3.96L516.38-0.11Q514.88 0.35 513.30 0.35L513.30 0.35Q507.96 0.35 507.85-5.04L507.85-5.04L507.85-15.29L505.07-15.29L505.07-19.02L507.85-19.02L507.85-23.70ZM527.77 0.35L527.77 0.35Q523.58 0.35 520.95-2.21Q518.33-4.78 518.33-9.05L518.33-9.05L518.33-9.54Q518.33-12.41 519.43-14.67Q520.54-16.93 522.57-18.15Q524.60-19.37 527.20-19.37L527.20-19.37Q531.11-19.37 533.35-16.91Q535.59-14.45 535.59-9.93L535.59-9.93L535.59-7.86L523.48-7.86Q523.72-5.99 524.96-4.87Q526.20-3.74 528.10-3.74L528.10-3.74Q531.04-3.74 532.69-5.87L532.69-5.87L535.18-3.08Q534.04-1.46 532.09-0.55Q530.14 0.35 527.77 0.35ZM527.19-15.26L527.19-15.26Q525.67-15.26 524.73-14.24Q523.79-13.22 523.53-11.32L523.53-11.32L530.60-11.32L530.60-11.72Q530.56-13.41 529.68-14.33Q528.80-15.26 527.19-15.26ZM542.58-19.02L545.71-13.34L548.91-19.02L554.34-19.02L548.93-9.70L554.57 0L549.12 0L545.73-5.98L542.36 0L536.89 0L542.53-9.70L537.13-19.02L542.58-19.02ZM557.79-23.70L562.87-23.70L562.87-19.02L566.12-19.02L566.12-15.29L562.87-15.29L562.87-5.80Q562.87-4.75 563.27-4.29Q563.68-3.83 564.82-3.83L564.82-3.83Q565.66-3.83 566.31-3.96L566.31-3.96L566.31-0.11Q564.82 0.35 563.24 0.35L563.24 0.35Q557.89 0.35 557.79-5.04L557.79-5.04L557.79-15.29L555.01-15.29L555.01-19.02L557.79-19.02L557.79-23.70ZM579.25-5.26L579.25-5.26Q579.25-6.19 578.33-6.72Q577.41-7.26 575.37-7.68L575.37-7.68Q568.58-9.11 568.58-13.45L568.58-13.45Q568.58-15.98 570.68-17.67Q572.78-19.37 576.18-19.37L576.18-19.37Q579.80-19.37 581.97-17.67Q584.14-15.96 584.14-13.24L584.14-13.24L579.06-13.24Q579.06-14.33 578.36-15.04Q577.65-15.75 576.16-15.75L576.16-15.75Q574.88-15.75 574.17-15.17Q573.47-14.59 573.47-13.69L573.47-13.69Q573.47-12.85 574.27-12.33Q575.07-11.81 576.97-11.43Q578.87-11.06 580.17-10.58L580.17-10.58Q584.19-9.11 584.19-5.47L584.19-5.47Q584.19-2.87 581.96-1.26Q579.73 0.35 576.19 0.35L576.19 0.35Q573.80 0.35 571.95-0.50Q570.09-1.35 569.04-2.84Q567.98-4.32 567.98-6.05L567.98-6.05L572.80-6.05Q572.87-4.69 573.80-3.97Q574.73-3.25 576.30-3.25L576.30-3.25Q577.76-3.25 578.50-3.81Q579.25-4.36 579.25-5.26Z" transform="translate(620, 695)" fill="#ffffff" />
  <text x="960" y="1040" font-family="Arial, sans-serif" font-size="20" fill="#666" text-anchor="middle">OpenClaw Documentation</text>
</svg>