<?xml version="1.0" encoding="UTF-8"?>
<svg width="1920" height="1080" xmlns="http://www.w3.org/2000/svg">
  <defs>
    <linearGradient id="bg" x1="0%" y1="0%" x2="100%" y2="100%">
      <stop offset="0%" style="stop-color:#1a1a2e;stop-opacity:1" />
      <stop offset="100%" style="stop-color:#000008;stop-opacity:1" />
    </linearGradient>
    <linearGradient id="accent" x1="0%" y1="0%" x2="100%" y2="0%">
      <stop offset="0%" style="stop-color:#e94560;stop-opacity:1" />
      <stop offset="100%" style="stop-color:#ff92ad;stop-opacity:1" />
    </linearGradient>
    <filter id="glow">
      <feGaussianBlur stdDeviation="3" result="coloredBlur"/>
      <feMerge><feMergeNode in="coloredBlur"/><feMergeNode in="SourceGraphic"/></feMerge>
    </filter>
  </defs>
  <rect width="100%" height="100%" fill="url(#bg)"/>
  <circle cx="1920" cy="0" r="700" fill="#e94560" opacity="0.08"/>
  <circle cx="0" cy="1080" r="500" fill="#ff92ad" opacity="0.06"/>
  <rect width="1920" height="6" fill="url(#accent)"/>
  <path d="M19.95-9.95L26.11-9.95Q25.76-5.13 22.55-2.36Q19.34 0.41 14.09 0.41L14.09 0.41Q8.35 0.41 5.06-3.46Q1.76-7.32 1.76-14.07L1.76-14.07L1.76-15.89Q1.76-20.20 3.28-23.48Q4.80-26.76 7.62-28.52Q10.44-30.27 14.17-30.27L14.17-30.27Q19.34-30.27 22.50-27.50Q25.66-24.73 26.15-19.73L26.15-19.73L20.00-19.73Q19.77-22.62 18.39-23.92Q17.00-25.22 14.17-25.22L14.17-25.22Q11.09-25.22 9.57-23.02Q8.04-20.82 8.00-16.18L8.00-16.18L8.00-13.92Q8.00-9.08 9.46-6.85Q10.93-4.61 14.09-4.61L14.09-4.61Q16.94-4.61 18.34-5.92Q19.75-7.22 19.95-9.95L19.95-9.95ZM35.54-31.50L35.54-19.77Q37.90-22.60 41.47-22.60L41.47-22.60Q48.69-22.60 48.79-14.21L48.79-14.21L48.79 0L42.86 0L42.86-14.05Q42.86-15.96 42.04-16.87Q41.22-17.78 39.31-17.78L39.31-17.78Q36.71-17.78 35.54-15.77L35.54-15.77L35.54 0L29.61 0L29.61-31.50L35.54-31.50ZM72.11 0L66.12 0Q65.71-0.80 65.52-1.99L65.52-1.99Q63.37 0.41 59.92 0.41L59.92 0.41Q56.66 0.41 54.52-1.48Q52.38-3.36 52.38-6.23L52.38-6.23Q52.38-9.76 54.99-11.65Q57.61-13.54 62.55-13.56L62.55-13.56L65.28-13.56L65.28-14.83Q65.28-16.37 64.49-17.29Q63.70-18.21 62.00-18.21L62.00-18.21Q60.50-18.21 59.65-17.49Q58.80-16.78 58.80-15.52L58.80-15.52L52.87-15.52Q52.87-17.45 54.06-19.09Q55.25-20.73 57.42-21.67Q59.60-22.60 62.30-22.60L62.30-22.60Q66.40-22.60 68.81-20.54Q71.22-18.48 71.22-14.75L71.22-14.75L71.22-5.13Q71.24-1.97 72.11-0.35L72.11-0.35L72.11 0ZM61.22-4.12L61.22-4.12Q62.53-4.12 63.64-4.71Q64.74-5.29 65.28-6.28L65.28-6.28L65.28-10.09L63.06-10.09Q58.61-10.09 58.32-7.01L58.32-7.01L58.30-6.67Q58.30-5.56 59.08-4.84Q59.86-4.12 61.22-4.12ZM75.65-22.19L81.23-22.19L81.42-19.63Q83.79-22.60 87.79-22.60L87.79-22.60Q91.32-22.60 93.04-20.53Q94.77-18.46 94.81-14.33L94.81-14.33L94.81 0L88.88 0L88.88-14.19Q88.88-16.08 88.06-16.93Q87.24-17.78 85.33-17.78L85.33-17.78Q82.83-17.78 81.58-15.65L81.58-15.65L81.58 0L75.65 0L75.65-22.19ZM116.98-9.95L123.13-9.95Q122.78-5.13 119.57-2.36Q116.36 0.41 111.11 0.41L111.11 0.41Q105.37 0.41 102.08-3.46Q98.79-7.32 98.79-14.07L98.79-14.07L98.79-15.89Q98.79-20.20 100.30-23.48Q101.82-26.76 104.64-28.52Q107.46-30.27 111.19-30.27L111.19-30.27Q116.36-30.27 119.52-27.50Q122.68-24.73 123.17-19.73L123.17-19.73L117.02-19.73Q116.79-22.62 115.41-23.92Q114.02-25.22 111.19-25.22L111.19-25.22Q108.12-25.22 106.59-23.02Q105.06-20.82 105.02-16.18L105.02-16.18L105.02-13.92Q105.02-9.08 106.49-6.85Q107.95-4.61 111.11-4.61L111.11-4.61Q113.96-4.61 115.37-5.92Q116.77-7.22 116.98-9.95L116.98-9.95ZM133.03-31.50L133.03 0L127.09 0L127.09-31.50L133.03-31.50ZM156.76 0L150.77 0Q150.36-0.80 150.18-1.99L150.18-1.99Q148.03 0.41 144.58 0.41L144.58 0.41Q141.32 0.41 139.18-1.48Q137.03-3.36 137.03-6.23L137.03-6.23Q137.03-9.76 139.65-11.65Q142.26-13.54 147.21-13.56L147.21-13.56L149.93-13.56L149.93-14.83Q149.93-16.37 149.14-17.29Q148.35-18.21 146.65-18.21L146.65-18.21Q145.15-18.21 144.30-17.49Q143.45-16.78 143.45-15.52L143.45-15.52L137.53-15.52Q137.53-17.45 138.71-19.09Q139.90-20.73 142.08-21.67Q144.25-22.60 146.96-22.60L146.96-22.60Q151.06-22.60 153.47-20.54Q155.88-18.48 155.88-14.75L155.88-14.75L155.88-5.13Q155.90-1.97 156.76-0.35L156.76-0.35L156.76 0ZM145.87-4.12L145.87-4.12Q147.18-4.12 148.29-4.71Q149.40-5.29 149.93-6.28L149.93-6.28L149.93-10.09L147.72-10.09Q143.27-10.09 142.98-7.01L142.98-7.01L142.96-6.67Q142.96-5.56 143.74-4.84Q144.52-4.12 145.87-4.12ZM175.69-22.19L179.73-8.06L182.64-22.19L188.36-22.19L182.70 0L177.74 0L173.54-13.97L169.33 0L164.39 0L158.73-22.19L164.45-22.19L167.34-8.08L171.40-22.19L175.69-22.19Z" transform="translate(50, 70)" fill="#e94560" />
  <text x="1870" y="70" font-family="Arial, sans-serif" font-size="24" fill="#888" text-anchor="end">8 / 10</text>
  <path d="M32.73-51.19L43.31-51.19L43.31-17.47Q43.31-9.07 38.06-4.18Q32.80 0.70 23.70 0.70L23.70 0.70Q14.73 0.70 9.46-4.04Q4.18-8.79 4.08-17.09L4.08-17.09L4.08-51.19L14.63-51.19L14.63-17.40Q14.63-12.38 17.03-10.07Q19.44-7.77 23.70-7.77L23.70-7.77Q32.59-7.77 32.73-17.12L32.73-17.12L32.73-51.19ZM71.89-10.51L71.89-10.51Q71.89-12.38 70.05-13.45Q68.20-14.52 64.13-15.36L64.13-15.36Q50.55-18.21 50.55-26.89L50.55-26.89Q50.55-31.96 54.76-35.35Q58.96-38.74 65.74-38.74L65.74-38.74Q72.98-38.74 77.33-35.33Q81.67-31.92 81.67-26.47L81.67-26.47L71.51-26.47Q71.51-28.65 70.10-30.08Q68.70-31.50 65.71-31.50L65.71-31.50Q63.14-31.50 61.73-30.34Q60.33-29.18 60.33-27.39L60.33-27.39Q60.33-25.70 61.93-24.66Q63.53-23.63 67.32-22.87Q71.12-22.11 73.72-21.16L73.72-21.16Q81.77-18.21 81.77-10.93L81.77-10.93Q81.77-5.73 77.31-2.51Q72.84 0.70 65.78 0.70L65.78 0.70Q61.00 0.70 57.29-1.00Q53.58-2.71 51.47-5.68Q49.36-8.65 49.36-12.09L49.36-12.09L58.99-12.09Q59.13-9.39 61.00-7.95Q62.86-6.50 65.99-6.50L65.99-6.50Q68.91-6.50 70.40-7.61Q71.89-8.72 71.89-10.51ZM105.82 0.70L105.82 0.70Q97.45 0.70 92.20-4.43Q86.94-9.56 86.94-18.11L86.94-18.11L86.94-19.09Q86.94-24.82 89.16-29.34Q91.37-33.86 95.43-36.30Q99.49-38.74 104.70-38.74L104.70-38.74Q112.50-38.74 116.98-33.82Q121.46-28.90 121.46-19.86L121.46-19.86L121.46-15.71L97.24-15.71Q97.73-11.99 100.21-9.74Q102.69-7.49 106.49-7.49L106.49-7.49Q112.36-7.49 115.66-11.74L115.66-11.74L120.66-6.15Q118.37-2.92 114.47-1.11Q110.57 0.70 105.82 0.70ZM104.66-30.52L104.66-30.52Q101.64-30.52 99.76-28.48Q97.88-26.44 97.35-22.64L97.35-22.64L111.48-22.64L111.48-23.45Q111.41-26.82 109.65-28.67Q107.89-30.52 104.66-30.52ZM175.46-17.05L186.01-17.05Q185.41-8.79 179.91-4.04Q174.41 0.70 165.41 0.70L165.41 0.70Q155.57 0.70 149.92-5.92Q144.28-12.55 144.28-24.12L144.28-24.12L144.28-27.25Q144.28-34.63 146.88-40.25Q149.48-45.88 154.32-48.88Q159.15-51.89 165.55-51.89L165.55-51.89Q174.41-51.89 179.82-47.14Q185.24-42.40 186.08-33.82L186.08-33.82L175.54-33.82Q175.15-38.78 172.78-41.01Q170.40-43.24 165.55-43.24L165.55-43.24Q160.28-43.24 157.66-39.46Q155.04-35.68 154.97-27.74L154.97-27.74L154.97-23.87Q154.97-15.57 157.48-11.74Q160.00-7.91 165.41-7.91L165.41-7.91Q170.30-7.91 172.71-10.14Q175.11-12.38 175.46-17.05L175.46-17.05ZM224.58 0L214.31 0Q213.61-1.37 213.29-3.41L213.29-3.41Q209.60 0.70 203.70 0.70L203.70 0.70Q198.11 0.70 194.43-2.53Q190.76-5.77 190.76-10.69L190.76-10.69Q190.76-16.73 195.24-19.97Q199.72-23.20 208.20-23.24L208.20-23.24L212.87-23.24L212.87-25.42Q212.87-28.05 211.52-29.64Q210.16-31.22 207.25-31.22L207.25-31.22Q204.68-31.22 203.22-29.99Q201.76-28.76 201.76-26.61L201.76-26.61L191.60-26.61Q191.60-29.92 193.64-32.73Q195.68-35.54 199.41-37.14Q203.13-38.74 207.77-38.74L207.77-38.74Q214.80-38.74 218.94-35.21Q223.07-31.68 223.07-25.28L223.07-25.28L223.07-8.79Q223.10-3.38 224.58-0.60L224.58-0.60L224.58 0ZM205.91-7.07L205.91-7.07Q208.16-7.07 210.06-8.07Q211.96-9.07 212.87-10.76L212.87-10.76L212.87-17.30L209.07-17.30Q201.45-17.30 200.95-12.02L200.95-12.02L200.92-11.43Q200.92-9.53 202.25-8.30Q203.59-7.07 205.91-7.07ZM251.47-10.51L251.47-10.51Q251.47-12.38 249.63-13.45Q247.78-14.52 243.70-15.36L243.70-15.36Q230.13-18.21 230.13-26.89L230.13-26.89Q230.13-31.96 234.33-35.35Q238.54-38.74 245.32-38.74L245.32-38.74Q252.56-38.74 256.90-35.33Q261.25-31.92 261.25-26.47L261.25-26.47L251.09-26.47Q251.09-28.65 249.68-30.08Q248.27-31.50 245.29-31.50L245.29-31.50Q242.72-31.50 241.31-30.34Q239.91-29.18 239.91-27.39L239.91-27.39Q239.91-25.70 241.51-24.66Q243.11-23.63 246.90-22.87Q250.70-22.11 253.30-21.16L253.30-21.16Q261.35-18.21 261.35-10.93L261.35-10.93Q261.35-5.73 256.89-2.51Q252.42 0.70 245.36 0.70L245.36 0.70Q240.57 0.70 236.87-1.00Q233.16-2.71 231.05-5.68Q228.94-8.65 228.94-12.09L228.94-12.09L238.57-12.09Q238.71-9.39 240.57-7.95Q242.44-6.50 245.57-6.50L245.57-6.50Q248.48-6.50 249.98-7.61Q251.47-8.72 251.47-10.51ZM285.40 0.70L285.40 0.70Q277.03 0.70 271.78-4.43Q266.52-9.56 266.52-18.11L266.52-18.11L266.52-19.09Q266.52-24.82 268.73-29.34Q270.95-33.86 275.01-36.30Q279.07-38.74 284.27-38.74L284.27-38.74Q292.08-38.74 296.56-33.82Q301.04-28.90 301.04-19.86L301.04-19.86L301.04-15.71L276.82-15.71Q277.31-11.99 279.79-9.74Q282.27-7.49 286.07-7.49L286.07-7.49Q291.94-7.49 295.24-11.74L295.24-11.74L300.23-6.15Q297.95-2.92 294.05-1.11Q290.14 0.70 285.40 0.70ZM284.24-30.52L284.24-30.52Q281.21-30.52 279.33-28.48Q277.45-26.44 276.93-22.64L276.93-22.64L291.06-22.64L291.06-23.45Q290.99-26.82 289.23-28.67Q287.47-30.52 284.24-30.52ZM327.41-10.51L327.41-10.51Q327.41-12.38 325.56-13.45Q323.72-14.52 319.64-15.36L319.64-15.36Q306.07-18.21 306.07-26.89L306.07-26.89Q306.07-31.96 310.27-35.35Q314.47-38.74 321.26-38.74L321.26-38.74Q328.50-38.74 332.84-35.33Q337.18-31.92 337.18-26.47L337.18-26.47L327.02-26.47Q327.02-28.65 325.62-30.08Q324.21-31.50 321.22-31.50L321.22-31.50Q318.66-31.50 317.25-30.34Q315.84-29.18 315.84-27.39L315.84-27.39Q315.84-25.70 317.44-24.66Q319.04-23.63 322.84-22.87Q326.64-22.11 329.24-21.16L329.24-21.16Q337.29-18.21 337.29-10.93L337.29-10.93Q337.29-5.73 332.82-2.51Q328.36 0.70 321.29 0.70L321.29 0.70Q316.51 0.70 312.80-1.00Q309.09-2.71 306.98-5.68Q304.88-8.65 304.88-12.09L304.88-12.09L314.51-12.09Q314.65-9.39 316.51-7.95Q318.38-6.50 321.50-6.50L321.50-6.50Q324.42-6.50 325.92-7.61Q327.41-8.72 327.41-10.51Z" transform="translate(790.037109375, 380)" fill="#ffffff" />
  <line x1="760" y1="430" x2="1160" y2="430" stroke="#e94560" stroke-width="4"/>
  <circle cx="580" cy="500" r="6" fill="#e94560" /><path d="M18.51 0L16.73-5.27L7.49-5.27L5.73 0L0.12 0L9.65-25.59L14.54-25.59L24.12 0L18.51 0ZM12.09-19.13L8.91-9.54L15.31-9.54L12.09-19.13ZM37.71 0L37.56-1.93Q35.68 0.35 32.36 0.35L32.36 0.35Q29.30 0.35 27.69-1.41Q26.09-3.16 26.05-6.56L26.05-6.56L26.05-19.02L31.13-19.02L31.13-6.73Q31.13-3.76 33.84-3.76L33.84-3.76Q36.42-3.76 37.39-5.55L37.39-5.55L37.39-19.02L42.49-19.02L42.49 0L37.71 0ZM47.32-23.70L52.40-23.70L52.40-19.02L55.65-19.02L55.65-15.29L52.40-15.29L52.40-5.80Q52.40-4.75 52.80-4.29Q53.21-3.83 54.35-3.83L54.35-3.83Q55.20-3.83 55.85-3.96L55.85-3.96L55.85-0.11Q54.35 0.35 52.77 0.35L52.77 0.35Q47.43 0.35 47.32-5.04L47.32-5.04L47.32-15.29L44.54-15.29L44.54-19.02L47.32-19.02L47.32-23.70ZM57.69-9.46L57.69-9.69Q57.69-12.52 58.78-14.73Q59.87-16.95 61.92-18.16Q63.97-19.37 66.67-19.37L66.67-19.37Q70.52-19.37 72.96-17.02Q75.39-14.66 75.67-10.62L75.67-10.62L75.71-9.32Q75.71-4.94 73.27-2.29Q70.82 0.35 66.71 0.35Q62.60 0.35 60.14-2.29Q57.69-4.92 57.69-9.46L57.69-9.46ZM62.77-9.32L62.77-9.32Q62.77-6.61 63.79-5.18Q64.81-3.74 66.71-3.74L66.71-3.74Q68.55-3.74 69.59-5.16Q70.63-6.57 70.63-9.69L70.63-9.69Q70.63-12.34 69.59-13.80Q68.55-15.26 66.67-15.26L66.67-15.26Q64.81-15.26 63.79-13.81Q62.77-12.36 62.77-9.32ZM78.84-19.02L83.60-19.02L83.76-16.89Q85.78-19.37 89.23-19.37L89.23-19.37Q92.90-19.37 94.27-16.47L94.27-16.47Q96.28-19.37 99.98-19.37L99.98-19.37Q103.08-19.37 104.59-17.57Q106.10-15.77 106.10-12.15L106.10-12.15L106.10 0L101.00 0L101.00-12.13Q101.00-13.75 100.37-14.49Q99.74-15.24 98.14-15.24L98.14-15.24Q95.85-15.24 94.97-13.06L94.97-13.06L94.99 0L89.91 0L89.91-12.11Q89.91-13.76 89.26-14.50Q88.61-15.24 87.05-15.24L87.05-15.24Q84.88-15.24 83.92-13.45L83.92-13.45L83.92 0L78.84 0L78.84-19.02ZM126.16 0L121.03 0Q120.67-0.69 120.52-1.71L120.52-1.71Q118.67 0.35 115.72 0.35L115.72 0.35Q112.92 0.35 111.08-1.27Q109.25-2.88 109.25-5.34L109.25-5.34Q109.25-8.37 111.49-9.98Q113.73-11.60 117.97-11.62L117.97-11.62L120.30-11.62L120.30-12.71Q120.30-14.03 119.63-14.82Q118.95-15.61 117.49-15.61L117.49-15.61Q116.21-15.61 115.48-14.99Q114.75-14.38 114.75-13.31L114.75-13.31L109.67-13.31Q109.67-14.96 110.69-16.37Q111.71-17.77 113.57-18.57Q115.44-19.37 117.76-19.37L117.76-19.37Q121.27-19.37 123.34-17.60Q125.40-15.84 125.40-12.64L125.40-12.64L125.40-4.39Q125.42-1.69 126.16-0.30L126.16-0.30L126.16 0ZM116.82-3.53L116.82-3.53Q117.95-3.53 118.90-4.03Q119.85-4.54 120.30-5.38L120.30-5.38L120.30-8.65L118.41-8.65Q114.59-8.65 114.35-6.01L114.35-6.01L114.33-5.71Q114.33-4.76 115.00-4.15Q115.66-3.53 116.82-3.53ZM130.31-23.70L135.39-23.70L135.39-19.02L138.64-19.02L138.64-15.29L135.39-15.29L135.39-5.80Q135.39-4.75 135.79-4.29Q136.20-3.83 137.34-3.83L137.34-3.83Q138.18-3.83 138.83-3.96L138.83-3.96L138.83-0.11Q137.34 0.35 135.76 0.35L135.76 0.35Q130.41 0.35 130.31-5.04L130.31-5.04L130.31-15.29L127.53-15.29L127.53-19.02L130.31-19.02L130.31-23.70ZM146.83-19.02L146.83 0L141.73 0L141.73-19.02L146.83-19.02ZM141.43-23.94L141.43-23.94Q141.43-25.08 142.20-25.82Q142.96-26.56 144.28-26.56L144.28-26.56Q145.58-26.56 146.36-25.82Q147.13-25.08 147.13-23.94L147.13-23.94Q147.13-22.78 146.35-22.04Q145.56-21.30 144.28-21.30Q143.00-21.30 142.22-22.04Q141.43-22.78 141.43-23.94ZM150.22-9.46L150.22-9.69Q150.22-12.52 151.31-14.73Q152.40-16.95 154.45-18.16Q156.50-19.37 159.21-19.37L159.21-19.37Q163.05-19.37 165.49-17.02Q167.92-14.66 168.21-10.62L168.21-10.62L168.24-9.32Q168.24-4.94 165.80-2.29Q163.35 0.35 159.24 0.35Q155.13 0.35 152.67-2.29Q150.22-4.92 150.22-9.46L150.22-9.46ZM155.30-9.32L155.30-9.32Q155.30-6.61 156.32-5.18Q157.34-3.74 159.24-3.74L159.24-3.74Q161.09-3.74 162.12-5.16Q163.16-6.57 163.16-9.69L163.16-9.69Q163.16-12.34 162.12-13.80Q161.09-15.26 159.21-15.26L159.21-15.26Q157.34-15.26 156.32-13.81Q155.30-12.36 155.30-9.32ZM171.26-19.02L176.04-19.02L176.20-16.82Q178.24-19.37 181.67-19.37L181.67-19.37Q184.69-19.37 186.17-17.60Q187.65-15.82 187.68-12.29L187.68-12.29L187.68 0L182.60 0L182.60-12.16Q182.60-13.78 181.90-14.51Q181.20-15.24 179.56-15.24L179.56-15.24Q177.42-15.24 176.34-13.41L176.34-13.41L176.34 0L171.26 0L171.26-19.02ZM213.57-19.02L217.04-6.91L219.53-19.02L224.44-19.02L219.59 0L215.33 0L211.73-11.97L208.13 0L203.89 0L199.04-19.02L203.94-19.02L206.42-6.93L209.90-19.02L213.57-19.02ZM226.16-9.46L226.16-9.69Q226.16-12.52 227.25-14.73Q228.34-16.95 230.39-18.16Q232.44-19.37 235.14-19.37L235.14-19.37Q238.99-19.37 241.43-17.02Q243.86-14.66 244.14-10.62L244.14-10.62L244.18-9.32Q244.18-4.94 241.73-2.29Q239.29 0.35 235.18 0.35Q231.06 0.35 228.61-2.29Q226.16-4.92 226.16-9.46L226.16-9.46ZM231.24-9.32L231.24-9.32Q231.24-6.61 232.26-5.18Q233.28-3.74 235.18-3.74L235.18-3.74Q237.02-3.74 238.06-5.16Q239.10-6.57 239.10-9.69L239.10-9.69Q239.10-12.34 238.06-13.80Q237.02-15.26 235.14-15.26L235.14-15.26Q233.28-15.26 232.26-13.81Q231.24-12.36 231.24-9.32ZM258.06-19.14L257.99-14.26Q256.96-14.40 256.17-14.40L256.17-14.40Q253.28-14.40 252.39-12.45L252.39-12.45L252.39 0L247.31 0L247.31-19.02L252.11-19.02L252.25-16.75Q253.78-19.37 256.48-19.37L256.48-19.37Q257.33-19.37 258.06-19.14L258.06-19.14ZM272.23 0L267.35-7.63L265.52-5.80L265.52 0L260.44 0L260.44-27L265.52-27L265.52-12.04L266.50-13.31L271.37-19.02L277.47-19.02L270.60-11.09L278.07 0L272.23 0ZM292.41 0L292.41-23.06Q290.90-23.24 289.60-23.24L289.60-23.24Q286.15-23.24 286.15-20.30L286.15-20.30L286.15-19.02L289.93-19.02L289.93-15.29L286.15-15.29L286.15 0L281.06 0L281.06-15.29L278.23-15.29L278.23-19.02L281.06-19.02L281.06-20.50Q281.09-23.80 283.13-25.58Q285.17-27.37 288.90-27.37L288.90-27.37Q291.55-27.37 297.51-26.81L297.51-26.81L297.51 0L292.41 0ZM300.94-9.46L300.94-9.69Q300.94-12.52 302.03-14.73Q303.12-16.95 305.17-18.16Q307.21-19.37 309.92-19.37L309.92-19.37Q313.77-19.37 316.20-17.02Q318.64-14.66 318.92-10.62L318.92-10.62L318.96-9.32Q318.96-4.94 316.51-2.29Q314.07 0.35 309.96 0.35Q305.84 0.35 303.39-2.29Q300.94-4.92 300.94-9.46L300.94-9.46ZM306.02-9.32L306.02-9.32Q306.02-6.61 307.04-5.18Q308.06-3.74 309.96-3.74L309.96-3.74Q311.80-3.74 312.84-5.16Q313.88-6.57 313.88-9.69L313.88-9.69Q313.88-12.34 312.84-13.80Q311.80-15.26 309.92-15.26L309.92-15.26Q308.06-15.26 307.04-13.81Q306.02-12.36 306.02-9.32ZM335.16-19.02L338.63-6.91L341.12-19.02L346.03-19.02L341.17 0L336.92 0L333.32-11.97L329.71 0L325.48 0L320.63-19.02L325.53-19.02L328.01-6.93L331.49-19.02L335.16-19.02ZM358.84-5.26L358.84-5.26Q358.84-6.19 357.92-6.72Q356.99-7.26 354.96-7.68L354.96-7.68Q348.17-9.11 348.17-13.45L348.17-13.45Q348.17-15.98 350.27-17.67Q352.37-19.37 355.76-19.37L355.76-19.37Q359.38-19.37 361.56-17.67Q363.73-15.96 363.73-13.24L363.73-13.24L358.65-13.24Q358.65-14.33 357.94-15.04Q357.24-15.75 355.75-15.75L355.75-15.75Q354.46-15.75 353.76-15.17Q353.06-14.59 353.06-13.69L353.06-13.69Q353.06-12.85 353.86-12.33Q354.66-11.81 356.55-11.43Q358.45-11.06 359.75-10.58L359.75-10.58Q363.78-9.11 363.78-5.47L363.78-5.47Q363.78-2.87 361.55-1.26Q359.31 0.35 355.78 0.35L355.78 0.35Q353.39 0.35 351.54-0.50Q349.68-1.35 348.63-2.84Q347.57-4.32 347.57-6.05L347.57-6.05L352.39-6.05Q352.46-4.69 353.39-3.97Q354.32-3.25 355.89-3.25L355.89-3.25Q357.35-3.25 358.09-3.81Q358.84-4.36 358.84-5.26Z" transform="translate(620, 500)" fill="#ffffff" /><circle cx="580" cy="565" r="6" fill="#e94560" /><path d="M12.18-9.02L7.56-9.02L7.56 0L2.29 0L2.29-25.59L12.27-25.59Q15.15-25.59 17.34-24.54Q19.53-23.48 20.71-21.54Q21.88-19.60 21.88-17.12L21.88-17.12Q21.88-13.36 19.31-11.19Q16.73-9.02 12.18-9.02L12.18-9.02ZM7.56-21.32L7.56-13.29L12.27-13.29Q14.36-13.29 15.46-14.27Q16.56-15.26 16.56-17.09L16.56-17.09Q16.56-18.97 15.45-20.13Q14.34-21.29 12.39-21.32L12.39-21.32L7.56-21.32ZM33.93 0.35L33.93 0.35Q29.74 0.35 27.11-2.21Q24.49-4.78 24.49-9.05L24.49-9.05L24.49-9.54Q24.49-12.41 25.59-14.67Q26.70-16.93 28.73-18.15Q30.76-19.37 33.36-19.37L33.36-19.37Q37.27-19.37 39.51-16.91Q41.75-14.45 41.75-9.93L41.75-9.93L41.75-7.86L29.64-7.86Q29.88-5.99 31.12-4.87Q32.36-3.74 34.26-3.74L34.26-3.74Q37.20-3.74 38.85-5.87L38.85-5.87L41.34-3.08Q40.20-1.46 38.25-0.55Q36.30 0.35 33.93 0.35ZM33.35-15.26L33.35-15.26Q31.83-15.26 30.89-14.24Q29.95-13.22 29.69-11.32L29.69-11.32L36.76-11.32L36.76-11.72Q36.72-13.41 35.84-14.33Q34.96-15.26 33.35-15.26ZM55.39-19.14L55.32-14.26Q54.28-14.40 53.49-14.40L53.49-14.40Q50.61-14.40 49.71-12.45L49.71-12.45L49.71 0L44.63 0L44.63-19.02L49.43-19.02L49.57-16.75Q51.10-19.37 53.81-19.37L53.81-19.37Q54.65-19.37 55.39-19.14L55.39-19.14ZM68.06-5.26L68.06-5.26Q68.06-6.19 67.14-6.72Q66.22-7.26 64.18-7.68L64.18-7.68Q57.39-9.11 57.39-13.45L57.39-13.45Q57.39-15.98 59.49-17.67Q61.59-19.37 64.99-19.37L64.99-19.37Q68.61-19.37 70.78-17.67Q72.95-15.96 72.95-13.24L72.95-13.24L67.87-13.24Q67.87-14.33 67.17-15.04Q66.46-15.75 64.97-15.75L64.97-15.75Q63.69-15.75 62.98-15.17Q62.28-14.59 62.28-13.69L62.28-13.69Q62.28-12.85 63.08-12.33Q63.88-11.81 65.78-11.43Q67.68-11.06 68.98-10.58L68.98-10.58Q73.00-9.11 73.00-5.47L73.00-5.47Q73.00-2.87 70.77-1.26Q68.54 0.35 65.00 0.35L65.00 0.35Q62.61 0.35 60.76-0.50Q58.90-1.35 57.85-2.84Q56.79-4.32 56.79-6.05L56.79-6.05L61.61-6.05Q61.68-4.69 62.61-3.97Q63.54-3.25 65.11-3.25L65.11-3.25Q66.57-3.25 67.32-3.81Q68.06-4.36 68.06-5.26ZM75.48-9.46L75.48-9.69Q75.48-12.52 76.57-14.73Q77.66-16.95 79.71-18.16Q81.76-19.37 84.46-19.37L84.46-19.37Q88.31-19.37 90.75-17.02Q93.18-14.66 93.46-10.62L93.46-10.62L93.50-9.32Q93.50-4.94 91.05-2.29Q88.61 0.35 84.50 0.35Q80.38 0.35 77.93-2.29Q75.48-4.92 75.48-9.46L75.48-9.46ZM80.56-9.32L80.56-9.32Q80.56-6.61 81.58-5.18Q82.60-3.74 84.50-3.74L84.50-3.74Q86.34-3.74 87.38-5.16Q88.42-6.57 88.42-9.69L88.42-9.69Q88.42-12.34 87.38-13.80Q86.34-15.26 84.46-15.26L84.46-15.26Q82.60-15.26 81.58-13.81Q80.56-12.36 80.56-9.32ZM96.52-19.02L101.30-19.02L101.46-16.82Q103.50-19.37 106.93-19.37L106.93-19.37Q109.95-19.37 111.43-17.60Q112.90-15.82 112.94-12.29L112.94-12.29L112.94 0L107.86 0L107.86-12.16Q107.86-13.78 107.16-14.51Q106.45-15.24 104.82-15.24L104.82-15.24Q102.67-15.24 101.60-13.41L101.60-13.41L101.60 0L96.52 0L96.52-19.02ZM132.94 0L127.81 0Q127.46-0.69 127.30-1.71L127.30-1.71Q125.46 0.35 122.50 0.35L122.50 0.35Q119.71 0.35 117.87-1.27Q116.03-2.88 116.03-5.34L116.03-5.34Q116.03-8.37 118.27-9.98Q120.52-11.60 124.75-11.62L124.75-11.62L127.09-11.62L127.09-12.71Q127.09-14.03 126.41-14.82Q125.74-15.61 124.28-15.61L124.28-15.61Q122.99-15.61 122.26-14.99Q121.54-14.38 121.54-13.31L121.54-13.31L116.46-13.31Q116.46-14.96 117.47-16.37Q118.49-17.77 120.36-18.57Q122.22-19.37 124.54-19.37L124.54-19.37Q128.06-19.37 130.12-17.60Q132.19-15.84 132.19-12.64L132.19-12.64L132.19-4.39Q132.21-1.69 132.94-0.30L132.94-0.30L132.94 0ZM123.61-3.53L123.61-3.53Q124.73-3.53 125.68-4.03Q126.63-4.54 127.09-5.38L127.09-5.38L127.09-8.65L125.19-8.65Q121.38-8.65 121.13-6.01L121.13-6.01L121.11-5.71Q121.11-4.76 121.78-4.15Q122.45-3.53 123.61-3.53ZM141.45-27L141.45 0L136.35 0L136.35-27L141.45-27ZM170.75 0L165.62 0Q165.27-0.69 165.11-1.71L165.11-1.71Q163.27 0.35 160.31 0.35L160.31 0.35Q157.52 0.35 155.68-1.27Q153.84-2.88 153.84-5.34L153.84-5.34Q153.84-8.37 156.08-9.98Q158.33-11.60 162.56-11.62L162.56-11.62L164.90-11.62L164.90-12.71Q164.90-14.03 164.22-14.82Q163.55-15.61 162.09-15.61L162.09-15.61Q160.80-15.61 160.08-14.99Q159.35-14.38 159.35-13.31L159.35-13.31L154.27-13.31Q154.27-14.96 155.29-16.37Q156.30-17.77 158.17-18.57Q160.03-19.37 162.35-19.37L162.35-19.37Q165.87-19.37 167.93-17.60Q170.00-15.84 170.00-12.64L170.00-12.64L170.00-4.39Q170.02-1.69 170.75-0.30L170.75-0.30L170.75 0ZM161.42-3.53L161.42-3.53Q162.54-3.53 163.49-4.03Q164.44-4.54 164.90-5.38L164.90-5.38L164.90-8.65L163.00-8.65Q159.19-8.65 158.94-6.01L158.94-6.01L158.92-5.71Q158.92-4.76 159.59-4.15Q160.26-3.53 161.42-3.53ZM184.20-5.26L184.20-5.26Q184.20-6.19 183.28-6.72Q182.36-7.26 180.32-7.68L180.32-7.68Q173.53-9.11 173.53-13.45L173.53-13.45Q173.53-15.98 175.63-17.67Q177.73-19.37 181.13-19.37L181.13-19.37Q184.75-19.37 186.92-17.67Q189.09-15.96 189.09-13.24L189.09-13.24L184.01-13.24Q184.01-14.33 183.30-15.04Q182.60-15.75 181.11-15.75L181.11-15.75Q179.82-15.75 179.12-15.17Q178.42-14.59 178.42-13.69L178.42-13.69Q178.42-12.85 179.22-12.33Q180.02-11.81 181.92-11.43Q183.81-11.06 185.12-10.58L185.12-10.58Q189.14-9.11 189.14-5.47L189.14-5.47Q189.14-2.87 186.91-1.26Q184.68 0.35 181.14 0.35L181.14 0.35Q178.75 0.35 176.90-0.50Q175.04-1.35 173.99-2.84Q172.93-4.32 172.93-6.05L172.93-6.05L177.75-6.05Q177.82-4.69 178.75-3.97Q179.68-3.25 181.25-3.25L181.25-3.25Q182.71-3.25 183.45-3.81Q184.20-4.36 184.20-5.26ZM202.71-5.26L202.71-5.26Q202.71-6.19 201.79-6.72Q200.87-7.26 198.83-7.68L198.83-7.68Q192.04-9.11 192.04-13.45L192.04-13.45Q192.04-15.98 194.14-17.67Q196.24-19.37 199.63-19.37L199.63-19.37Q203.26-19.37 205.43-17.67Q207.60-15.96 207.60-13.24L207.60-13.24L202.52-13.24Q202.52-14.33 201.81-15.04Q201.11-15.75 199.62-15.75L199.62-15.75Q198.33-15.75 197.63-15.17Q196.93-14.59 196.93-13.69L196.93-13.69Q196.93-12.85 197.73-12.33Q198.53-11.81 200.43-11.43Q202.32-11.06 203.63-10.58L203.63-10.58Q207.65-9.11 207.65-5.47L207.65-5.47Q207.65-2.87 205.42-1.26Q203.19 0.35 199.65 0.35L199.65 0.35Q197.26 0.35 195.41-0.50Q193.55-1.35 192.50-2.84Q191.44-4.32 191.44-6.05L191.44-6.05L196.26-6.05Q196.33-4.69 197.26-3.97Q198.19-3.25 199.76-3.25L199.76-3.25Q201.22-3.25 201.96-3.81Q202.71-4.36 202.71-5.26ZM216.28-19.02L216.28 0L211.18 0L211.18-19.02L216.28-19.02ZM210.88-23.94L210.88-23.94Q210.88-25.08 211.65-25.82Q212.41-26.56 213.73-26.56L213.73-26.56Q215.03-26.56 215.81-25.82Q216.58-25.08 216.58-23.94L216.58-23.94Q216.58-22.78 215.80-22.04Q215.02-21.30 213.73-21.30Q212.45-21.30 211.67-22.04Q210.88-22.78 210.88-23.94ZM230.77-5.26L230.77-5.26Q230.77-6.19 229.84-6.72Q228.92-7.26 226.88-7.68L226.88-7.68Q220.10-9.11 220.10-13.45L220.10-13.45Q220.10-15.98 222.20-17.67Q224.30-19.37 227.69-19.37L227.69-19.37Q231.31-19.37 233.48-17.67Q235.65-15.96 235.65-13.24L235.65-13.24L230.57-13.24Q230.57-14.33 229.87-15.04Q229.17-15.75 227.67-15.75L227.67-15.75Q226.39-15.75 225.69-15.17Q224.98-14.59 224.98-13.69L224.98-13.69Q224.98-12.85 225.78-12.33Q226.58-11.81 228.48-11.43Q230.38-11.06 231.68-10.58L231.68-10.58Q235.71-9.11 235.71-5.47L235.71-5.47Q235.71-2.87 233.47-1.26Q231.24 0.35 227.71 0.35L227.71 0.35Q225.32 0.35 223.46-0.50Q221.61-1.35 220.55-2.84Q219.50-4.32 219.50-6.05L219.50-6.05L224.31-6.05Q224.38-4.69 225.32-3.97Q226.25-3.25 227.81-3.25L227.81-3.25Q229.27-3.25 230.02-3.81Q230.77-4.36 230.77-5.26ZM239.98-23.70L245.06-23.70L245.06-19.02L248.31-19.02L248.31-15.29L245.06-15.29L245.06-5.80Q245.06-4.75 245.46-4.29Q245.87-3.83 247.01-3.83L247.01-3.83Q247.85-3.83 248.50-3.96L248.50-3.96L248.50-0.11Q247.01 0.35 245.43 0.35L245.43 0.35Q240.08 0.35 239.98-5.04L239.98-5.04L239.98-15.29L237.20-15.29L237.20-19.02L239.98-19.02L239.98-23.70ZM267.29 0L262.16 0Q261.81-0.69 261.65-1.71L261.65-1.71Q259.80 0.35 256.85 0.35L256.85 0.35Q254.06 0.35 252.22-1.27Q250.38-2.88 250.38-5.34L250.38-5.34Q250.38-8.37 252.62-9.98Q254.87-11.60 259.10-11.62L259.10-11.62L261.44-11.62L261.44-12.71Q261.44-14.03 260.76-14.82Q260.09-15.61 258.63-15.61L258.63-15.61Q257.34-15.61 256.61-14.99Q255.88-14.38 255.88-13.31L255.88-13.31L250.80-13.31Q250.80-14.96 251.82-16.37Q252.84-17.77 254.71-18.57Q256.57-19.37 258.89-19.37L258.89-19.37Q262.41-19.37 264.47-17.60Q266.54-15.84 266.54-12.64L266.54-12.64L266.54-4.39Q266.55-1.69 267.29-0.30L267.29-0.30L267.29 0ZM257.96-3.53L257.96-3.53Q259.08-3.53 260.03-4.03Q260.98-4.54 261.44-5.38L261.44-5.38L261.44-8.65L259.54-8.65Q255.73-8.65 255.48-6.01L255.48-6.01L255.46-5.71Q255.46-4.76 256.13-4.15Q256.80-3.53 257.96-3.53ZM270.33-19.02L275.12-19.02L275.27-16.82Q277.31-19.37 280.74-19.37L280.74-19.37Q283.76-19.37 285.24-17.60Q286.72-15.82 286.75-12.29L286.75-12.29L286.75 0L281.67 0L281.67-12.16Q281.67-13.78 280.97-14.51Q280.27-15.24 278.63-15.24L278.63-15.24Q276.49-15.24 275.41-13.41L275.41-13.41L275.41 0L270.33 0L270.33-19.02ZM291.60-23.70L296.68-23.70L296.68-19.02L299.94-19.02L299.94-15.29L296.68-15.29L296.68-5.80Q296.68-4.75 297.09-4.29Q297.49-3.83 298.63-3.83L298.63-3.83Q299.48-3.83 300.13-3.96L300.13-3.96L300.13-0.11Q298.63 0.35 297.05 0.35L297.05 0.35Q291.71 0.35 291.60-5.04L291.60-5.04L291.60-15.29L288.83-15.29L288.83-19.02L291.60-19.02L291.60-23.70Z" transform="translate(620, 565)" fill="#ffffff" /><circle cx="580" cy="630" r="6" fill="#e94560" /><path d="M10.21 0L2.29 0L2.29-25.59L10.16-25.59Q13.54-25.59 16.20-24.07Q18.86-22.55 20.36-19.75Q21.85-16.95 21.85-13.38L21.85-13.38L21.85-12.20Q21.85-8.63 20.38-5.85Q18.91-3.08 16.24-1.55Q13.57-0.02 10.21 0L10.21 0ZM10.16-21.32L7.56-21.32L7.56-4.24L10.11-4.24Q13.20-4.24 14.84-6.26Q16.47-8.28 16.51-12.04L16.51-12.04L16.51-13.39Q16.51-17.30 14.89-19.31Q13.27-21.32 10.16-21.32L10.16-21.32ZM34.10 0.35L34.10 0.35Q29.92 0.35 27.29-2.21Q24.66-4.78 24.66-9.05L24.66-9.05L24.66-9.54Q24.66-12.41 25.77-14.67Q26.88-16.93 28.91-18.15Q30.94-19.37 33.54-19.37L33.54-19.37Q37.44-19.37 39.68-16.91Q41.92-14.45 41.92-9.93L41.92-9.93L41.92-7.86L29.81-7.86Q30.06-5.99 31.30-4.87Q32.54-3.74 34.44-3.74L34.44-3.74Q37.37-3.74 39.02-5.87L39.02-5.87L41.52-3.08Q40.38-1.46 38.43-0.55Q36.47 0.35 34.10 0.35ZM33.52-15.26L33.52-15.26Q32.01-15.26 31.07-14.24Q30.13-13.22 29.87-11.32L29.87-11.32L36.93-11.32L36.93-11.72Q36.90-13.41 36.02-14.33Q35.14-15.26 33.52-15.26ZM48.39-19.02L51.93-6.21L55.46-19.02L60.77-19.02L54.35 0L49.50 0L43.08-19.02L48.39-19.02ZM71.75 0.35L71.75 0.35Q67.57 0.35 64.94-2.21Q62.31-4.78 62.31-9.05L62.31-9.05L62.31-9.54Q62.31-12.41 63.42-14.67Q64.53-16.93 66.56-18.15Q68.59-19.37 71.19-19.37L71.19-19.37Q75.09-19.37 77.33-16.91Q79.58-14.45 79.58-9.93L79.58-9.93L79.58-7.86L67.46-7.86Q67.71-5.99 68.95-4.87Q70.19-3.74 72.09-3.74L72.09-3.74Q75.02-3.74 76.68-5.87L76.68-5.87L79.17-3.08Q78.03-1.46 76.08-0.55Q74.13 0.35 71.75 0.35ZM71.17-15.26L71.17-15.26Q69.66-15.26 68.72-14.24Q67.78-13.22 67.52-11.32L67.52-11.32L74.58-11.32L74.58-11.72Q74.55-13.41 73.67-14.33Q72.79-15.26 71.17-15.26ZM87.82-27L87.82 0L82.72 0L82.72-27L87.82-27ZM91.21-9.46L91.21-9.69Q91.21-12.52 92.30-14.73Q93.39-16.95 95.44-18.16Q97.49-19.37 100.20-19.37L100.20-19.37Q104.04-19.37 106.48-17.02Q108.91-14.66 109.20-10.62L109.20-10.62L109.23-9.32Q109.23-4.94 106.79-2.29Q104.34 0.35 100.23 0.35Q96.12 0.35 93.67-2.29Q91.21-4.92 91.21-9.46L91.21-9.46ZM96.29-9.32L96.29-9.32Q96.29-6.61 97.31-5.18Q98.33-3.74 100.23-3.74L100.23-3.74Q102.08-3.74 103.11-5.16Q104.15-6.57 104.15-9.69L104.15-9.69Q104.15-12.34 103.11-13.80Q102.08-15.26 100.20-15.26L100.20-15.26Q98.33-15.26 97.31-13.81Q96.29-12.36 96.29-9.32ZM129.48-9.60L129.48-9.33Q129.48-4.94 127.49-2.29Q125.49 0.35 122.10 0.35L122.10 0.35Q119.21 0.35 117.44-1.65L117.44-1.65L117.44 7.31L112.36 7.31L112.36-19.02L117.07-19.02L117.25-17.16Q119.09-19.37 122.06-19.37L122.06-19.37Q125.58-19.37 127.53-16.77Q129.48-14.17 129.48-9.60L129.48-9.60ZM124.40-9.70L124.40-9.70Q124.40-12.36 123.46-13.80Q122.52-15.24 120.73-15.24L120.73-15.24Q118.34-15.24 117.44-13.41L117.44-13.41L117.44-5.63Q118.37-3.74 120.76-3.74L120.76-3.74Q124.40-3.74 124.40-9.70ZM132.63-19.02L137.39-19.02L137.55-16.89Q139.57-19.37 143.02-19.37L143.02-19.37Q146.69-19.37 148.06-16.47L148.06-16.47Q150.06-19.37 153.77-19.37L153.77-19.37Q156.87-19.37 158.38-17.57Q159.89-15.77 159.89-12.15L159.89-12.15L159.89 0L154.79 0L154.79-12.13Q154.79-13.75 154.16-14.49Q153.53-15.24 151.93-15.24L151.93-15.24Q149.64-15.24 148.76-13.06L148.76-13.06L148.78 0L143.70 0L143.70-12.11Q143.70-13.76 143.05-14.50Q142.40-15.24 140.84-15.24L140.84-15.24Q138.67-15.24 137.71-13.45L137.71-13.45L137.71 0L132.63 0L132.63-19.02ZM172.55 0.35L172.55 0.35Q168.36 0.35 165.74-2.21Q163.11-4.78 163.11-9.05L163.11-9.05L163.11-9.54Q163.11-12.41 164.21-14.67Q165.32-16.93 167.35-18.15Q169.38-19.37 171.98-19.37L171.98-19.37Q175.89-19.37 178.13-16.91Q180.37-14.45 180.37-9.93L180.37-9.93L180.37-7.86L168.26-7.86Q168.50-5.99 169.74-4.87Q170.98-3.74 172.88-3.74L172.88-3.74Q175.82-3.74 177.47-5.87L177.47-5.87L179.96-3.08Q178.82-1.46 176.87-0.55Q174.92 0.35 172.55 0.35ZM171.97-15.26L171.97-15.26Q170.46-15.26 169.51-14.24Q168.57-13.22 168.31-11.32L168.31-11.32L175.38-11.32L175.38-11.72Q175.34-13.41 174.46-14.33Q173.58-15.26 171.97-15.26ZM183.15-19.02L187.93-19.02L188.09-16.82Q190.13-19.37 193.55-19.37L193.55-19.37Q196.58-19.37 198.05-17.60Q199.53-15.82 199.56-12.29L199.56-12.29L199.56 0L194.48 0L194.48-12.16Q194.48-13.78 193.78-14.51Q193.08-15.24 191.44-15.24L191.44-15.24Q189.30-15.24 188.23-13.41L188.23-13.41L188.23 0L183.15 0L183.15-19.02ZM204.42-23.70L209.50-23.70L209.50-19.02L212.75-19.02L212.75-15.29L209.50-15.29L209.50-5.80Q209.50-4.75 209.90-4.29Q210.30-3.83 211.45-3.83L211.45-3.83Q212.29-3.83 212.94-3.96L212.94-3.96L212.94-0.11Q211.45 0.35 209.87 0.35L209.87 0.35Q204.52 0.35 204.42-5.04L204.42-5.04L204.42-15.29L201.64-15.29L201.64-19.02L204.42-19.02L204.42-23.70ZM229.50-27L229.50-16.95Q231.52-19.37 234.58-19.37L234.58-19.37Q240.77-19.37 240.86-12.18L240.86-12.18L240.86 0L235.78 0L235.78-12.04Q235.78-13.68 235.07-14.46Q234.37-15.24 232.73-15.24L232.73-15.24Q230.50-15.24 229.50-13.52L229.50-13.52L229.50 0L224.42 0L224.42-27L229.50-27ZM253.44 0.35L253.44 0.35Q249.26 0.35 246.63-2.21Q244.00-4.78 244.00-9.05L244.00-9.05L244.00-9.54Q244.00-12.41 245.11-14.67Q246.22-16.93 248.25-18.15Q250.28-19.37 252.88-19.37L252.88-19.37Q256.78-19.37 259.02-16.91Q261.26-14.45 261.26-9.93L261.26-9.93L261.26-7.86L249.15-7.86Q249.40-5.99 250.64-4.87Q251.88-3.74 253.78-3.74L253.78-3.74Q256.71-3.74 258.36-5.87L258.36-5.87L260.86-3.08Q259.72-1.46 257.77-0.55Q255.81 0.35 253.44 0.35ZM252.86-15.26L252.86-15.26Q251.35-15.26 250.41-14.24Q249.47-13.22 249.21-11.32L249.21-11.32L256.27-11.32L256.27-11.72Q256.24-13.41 255.36-14.33Q254.48-15.26 252.86-15.26ZM269.51-27L269.51 0L264.41 0L264.41-27L269.51-27ZM290.81-9.60L290.81-9.33Q290.81-4.94 288.82-2.29Q286.82 0.35 283.43 0.35L283.43 0.35Q280.55 0.35 278.77-1.65L278.77-1.65L278.77 7.31L273.69 7.31L273.69-19.02L278.40-19.02L278.58-17.16Q280.42-19.37 283.39-19.37L283.39-19.37Q286.91-19.37 288.86-16.77Q290.81-14.17 290.81-9.60L290.81-9.60ZM285.73-9.70L285.73-9.70Q285.73-12.36 284.79-13.80Q283.85-15.24 282.06-15.24L282.06-15.24Q279.67-15.24 278.77-13.41L278.77-13.41L278.77-5.63Q279.70-3.74 282.09-3.74L282.09-3.74Q285.73-3.74 285.73-9.70ZM302.71 0.35L302.71 0.35Q298.53 0.35 295.90-2.21Q293.27-4.78 293.27-9.05L293.27-9.05L293.27-9.54Q293.27-12.41 294.38-14.67Q295.49-16.93 297.52-18.15Q299.55-19.37 302.15-19.37L302.15-19.37Q306.05-19.37 308.29-16.91Q310.54-14.45 310.54-9.93L310.54-9.93L310.54-7.86L298.42-7.86Q298.67-5.99 299.91-4.87Q301.15-3.74 303.05-3.74L303.05-3.74Q305.98-3.74 307.63-5.87L307.63-5.87L310.13-3.08Q308.99-1.46 307.04-0.55Q305.09 0.35 302.71 0.35ZM302.13-15.26L302.13-15.26Q300.62-15.26 299.68-14.24Q298.74-13.22 298.48-11.32L298.48-11.32L305.54-11.32L305.54-11.72Q305.51-13.41 304.63-14.33Q303.75-15.26 302.13-15.26ZM324.18-19.14L324.11-14.26Q323.07-14.40 322.28-14.40L322.28-14.40Q319.39-14.40 318.50-12.45L318.50-12.45L318.50 0L313.42 0L313.42-19.02L318.22-19.02L318.36-16.75Q319.89-19.37 322.59-19.37L322.59-19.37Q323.44-19.37 324.18-19.14L324.18-19.14Z" transform="translate(620, 630)" fill="#ffffff" /><circle cx="580" cy="695" r="6" fill="#e94560" /><path d="M16.56 0L11.76-9.37L7.56-9.37L7.56 0L2.29 0L2.29-25.59L11.79-25.59Q16.33-25.59 18.79-23.57Q21.25-21.55 21.25-17.86L21.25-17.86Q21.25-15.24 20.12-13.49Q18.98-11.74 16.68-10.71L16.68-10.71L22.22-0.25L22.22 0L16.56 0ZM7.56-21.32L7.56-13.64L11.81-13.64Q13.80-13.64 14.89-14.65Q15.98-15.66 15.98-17.44L15.98-17.44Q15.98-19.25 14.95-20.29Q13.92-21.32 11.79-21.32L11.79-21.32L7.56-21.32ZM33.68 0.35L33.68 0.35Q29.50 0.35 26.87-2.21Q24.24-4.78 24.24-9.05L24.24-9.05L24.24-9.54Q24.24-12.41 25.35-14.67Q26.46-16.93 28.49-18.15Q30.52-19.37 33.12-19.37L33.12-19.37Q37.02-19.37 39.26-16.91Q41.50-14.45 41.50-9.93L41.50-9.93L41.50-7.86L29.39-7.86Q29.64-5.99 30.88-4.87Q32.12-3.74 34.01-3.74L34.01-3.74Q36.95-3.74 38.60-5.87L38.60-5.87L41.10-3.08Q39.96-1.46 38.00-0.55Q36.05 0.35 33.68 0.35ZM33.10-15.26L33.10-15.26Q31.59-15.26 30.65-14.24Q29.71-13.22 29.44-11.32L29.44-11.32L36.51-11.32L36.51-11.72Q36.47-13.41 35.60-14.33Q34.72-15.26 33.10-15.26ZM54.69-5.26L54.69-5.26Q54.69-6.19 53.76-6.72Q52.84-7.26 50.80-7.68L50.80-7.68Q44.02-9.11 44.02-13.45L44.02-13.45Q44.02-15.98 46.12-17.67Q48.22-19.37 51.61-19.37L51.61-19.37Q55.23-19.37 57.40-17.67Q59.57-15.96 59.57-13.24L59.57-13.24L54.49-13.24Q54.49-14.33 53.79-15.04Q53.09-15.75 51.59-15.75L51.59-15.75Q50.31-15.75 49.61-15.17Q48.90-14.59 48.90-13.69L48.90-13.69Q48.90-12.85 49.70-12.33Q50.50-11.81 52.40-11.43Q54.30-11.06 55.60-10.58L55.60-10.58Q59.63-9.11 59.63-5.47L59.63-5.47Q59.63-2.87 57.39-1.26Q55.16 0.35 51.63 0.35L51.63 0.35Q49.24 0.35 47.38-0.50Q45.53-1.35 44.47-2.84Q43.42-4.32 43.42-6.05L43.42-6.05L48.23-6.05Q48.30-4.69 49.24-3.97Q50.17-3.25 51.73-3.25L51.73-3.25Q53.19-3.25 53.94-3.81Q54.69-4.36 54.69-5.26ZM71.65 0.35L71.65 0.35Q67.46 0.35 64.84-2.21Q62.21-4.78 62.21-9.05L62.21-9.05L62.21-9.54Q62.21-12.41 63.32-14.67Q64.42-16.93 66.45-18.15Q68.48-19.37 71.09-19.37L71.09-19.37Q74.99-19.37 77.23-16.91Q79.47-14.45 79.47-9.93L79.47-9.93L79.47-7.86L67.36-7.86Q67.61-5.99 68.84-4.87Q70.08-3.74 71.98-3.74L71.98-3.74Q74.92-3.74 76.57-5.87L76.57-5.87L79.07-3.08Q77.92-1.46 75.97-0.55Q74.02 0.35 71.65 0.35ZM71.07-15.26L71.07-15.26Q69.56-15.26 68.62-14.24Q67.68-13.22 67.41-11.32L67.41-11.32L74.48-11.32L74.48-11.72Q74.44-13.41 73.56-14.33Q72.69-15.26 71.07-15.26ZM98.51 0L93.38 0Q93.02-0.69 92.87-1.71L92.87-1.71Q91.02 0.35 88.07 0.35L88.07 0.35Q85.27 0.35 83.43-1.27Q81.60-2.88 81.60-5.34L81.60-5.34Q81.60-8.37 83.84-9.98Q86.08-11.60 90.32-11.62L90.32-11.62L92.65-11.62L92.65-12.71Q92.65-14.03 91.98-14.82Q91.30-15.61 89.84-15.61L89.84-15.61Q88.56-15.61 87.83-14.99Q87.10-14.38 87.10-13.31L87.10-13.31L82.02-13.31Q82.02-14.96 83.04-16.37Q84.06-17.77 85.92-18.57Q87.79-19.37 90.11-19.37L90.11-19.37Q93.62-19.37 95.69-17.60Q97.75-15.84 97.75-12.64L97.75-12.64L97.75-4.39Q97.77-1.69 98.51-0.30L98.51-0.30L98.51 0ZM89.17-3.53L89.17-3.53Q90.30-3.53 91.25-4.03Q92.20-4.54 92.65-5.38L92.65-5.38L92.65-8.65L90.76-8.65Q86.94-8.65 86.70-6.01L86.70-6.01L86.68-5.71Q86.68-4.76 87.35-4.15Q88.01-3.53 89.17-3.53ZM112.41-19.14L112.34-14.26Q111.30-14.40 110.51-14.40L110.51-14.40Q107.63-14.40 106.73-12.45L106.73-12.45L106.73 0L101.65 0L101.65-19.02L106.45-19.02L106.59-16.75Q108.12-19.37 110.83-19.37L110.83-19.37Q111.67-19.37 112.41-19.14L112.41-19.14ZM122.70-3.74L122.70-3.74Q124.10-3.74 124.98-4.52Q125.86-5.29 125.89-6.57L125.89-6.57L130.66-6.57Q130.64-4.64 129.60-3.03Q128.57-1.42 126.76-0.54Q124.96 0.35 122.78 0.35L122.78 0.35Q118.71 0.35 116.35-2.24Q113.99-4.83 113.99-9.40L113.99-9.40L113.99-9.74Q113.99-14.13 116.33-16.75Q118.67-19.37 122.75-19.37L122.75-19.37Q126.32-19.37 128.47-17.34Q130.62-15.31 130.66-11.94L130.66-11.94L125.89-11.94Q125.86-13.41 124.98-14.33Q124.10-15.26 122.66-15.26L122.66-15.26Q120.88-15.26 119.98-13.97Q119.07-12.67 119.07-9.77L119.07-9.77L119.07-9.25Q119.07-6.31 119.97-5.03Q120.87-3.74 122.70-3.74ZM138.52-27L138.52-16.95Q140.54-19.37 143.60-19.37L143.60-19.37Q149.78-19.37 149.87-12.18L149.87-12.18L149.87 0L144.79 0L144.79-12.04Q144.79-13.68 144.09-14.46Q143.38-15.24 141.75-15.24L141.75-15.24Q139.52-15.24 138.52-13.52L138.52-13.52L138.52 0L133.44 0L133.44-27L138.52-27ZM178.82 0L173.69 0Q173.34-0.69 173.18-1.71L173.18-1.71Q171.33 0.35 168.38 0.35L168.38 0.35Q165.59 0.35 163.75-1.27Q161.91-2.88 161.91-5.34L161.91-5.34Q161.91-8.37 164.15-9.98Q166.39-11.60 170.63-11.62L170.63-11.62L172.97-11.62L172.97-12.71Q172.97-14.03 172.29-14.82Q171.62-15.61 170.16-15.61L170.16-15.61Q168.87-15.61 168.14-14.99Q167.41-14.38 167.41-13.31L167.41-13.31L162.33-13.31Q162.33-14.96 163.35-16.37Q164.37-17.77 166.24-18.57Q168.10-19.37 170.42-19.37L170.42-19.37Q173.94-19.37 176.00-17.60Q178.07-15.84 178.07-12.64L178.07-12.64L178.07-4.39Q178.08-1.69 178.82-0.30L178.82-0.30L178.82 0ZM169.49-3.53L169.49-3.53Q170.61-3.53 171.56-4.03Q172.51-4.54 172.97-5.38L172.97-5.38L172.97-8.65L171.07-8.65Q167.26-8.65 167.01-6.01L167.01-6.01L166.99-5.71Q166.99-4.76 167.66-4.15Q168.33-3.53 169.49-3.53ZM181.86-19.02L186.64-19.02L186.80-16.82Q188.84-19.37 192.27-19.37L192.27-19.37Q195.29-19.37 196.77-17.60Q198.25-15.82 198.28-12.29L198.28-12.29L198.28 0L193.20 0L193.20-12.16Q193.20-13.78 192.50-14.51Q191.79-15.24 190.16-15.24L190.16-15.24Q188.02-15.24 186.94-13.41L186.94-13.41L186.94 0L181.86 0L181.86-19.02ZM201.34-9.65L201.34-9.65Q201.34-14.10 203.33-16.73Q205.33-19.37 208.79-19.37L208.79-19.37Q211.57-19.37 213.38-17.30L213.38-17.30L213.38-27L218.48-27L218.48 0L213.89 0L213.64-2.02Q211.75 0.35 208.76 0.35L208.76 0.35Q205.40 0.35 203.37-2.29Q201.34-4.94 201.34-9.65ZM206.42-9.28L206.42-9.28Q206.42-6.61 207.35-5.19Q208.28-3.76 210.06-3.76L210.06-3.76Q212.41-3.76 213.38-5.75L213.38-5.75L213.38-13.25Q212.43-15.24 210.09-15.24L210.09-15.24Q206.42-15.24 206.42-9.28ZM248.52-9.62L248.52-9.33Q248.52-4.76 246.57-2.21Q244.62 0.35 241.12 0.35L241.12 0.35Q238.03 0.35 236.18-2.02L236.18-2.02L235.95 0L231.38 0L231.38-27L236.46-27L236.46-17.31Q238.22-19.37 241.08-19.37L241.08-19.37Q244.56-19.37 246.54-16.81Q248.52-14.26 248.52-9.62L248.52-9.62ZM243.44-9.70L243.44-9.70Q243.44-12.59 242.53-13.91Q241.61-15.24 239.80-15.24L239.80-15.24Q237.38-15.24 236.46-13.25L236.46-13.25L236.46-5.75Q237.39-3.74 239.84-3.74L239.84-3.74Q242.30-3.74 243.07-6.17L243.07-6.17Q243.44-7.33 243.44-9.70ZM262.41-19.14L262.34-14.26Q261.30-14.40 260.51-14.40L260.51-14.40Q257.63-14.40 256.73-12.45L256.73-12.45L256.73 0L251.65 0L251.65-19.02L256.45-19.02L256.59-16.75Q258.12-19.37 260.82-19.37L260.82-19.37Q261.67-19.37 262.41-19.14L262.41-19.14ZM263.99-9.46L263.99-9.69Q263.99-12.52 265.08-14.73Q266.17-16.95 268.22-18.16Q270.26-19.37 272.97-19.37L272.97-19.37Q276.82-19.37 279.25-17.02Q281.69-14.66 281.97-10.62L281.97-10.62L282.01-9.32Q282.01-4.94 279.56-2.29Q277.12 0.35 273.01 0.35Q268.89 0.35 266.44-2.29Q263.99-4.92 263.99-9.46L263.99-9.46ZM269.07-9.32L269.07-9.32Q269.07-6.61 270.09-5.18Q271.11-3.74 273.01-3.74L273.01-3.74Q274.85-3.74 275.89-5.16Q276.93-6.57 276.93-9.69L276.93-9.69Q276.93-12.34 275.89-13.80Q274.85-15.26 272.97-15.26L272.97-15.26Q271.11-15.26 270.09-13.81Q269.07-12.36 269.07-9.32ZM298.21-19.02L301.68-6.91L304.17-19.02L309.08-19.02L304.22 0L299.97 0L296.37-11.97L292.76 0L288.53 0L283.68-19.02L288.58-19.02L291.06-6.93L294.54-19.02L298.21-19.02ZM321.89-5.26L321.89-5.26Q321.89-6.19 320.97-6.72Q320.04-7.26 318.01-7.68L318.01-7.68Q311.22-9.11 311.22-13.45L311.22-13.45Q311.22-15.98 313.32-17.67Q315.42-19.37 318.81-19.37L318.81-19.37Q322.44-19.37 324.61-17.67Q326.78-15.96 326.78-13.24L326.78-13.24L321.70-13.24Q321.70-14.33 320.99-15.04Q320.29-15.75 318.80-15.75L318.80-15.75Q317.51-15.75 316.81-15.17Q316.11-14.59 316.11-13.69L316.11-13.69Q316.11-12.85 316.91-12.33Q317.71-11.81 319.61-11.43Q321.50-11.06 322.80-10.58L322.80-10.58Q326.83-9.11 326.83-5.47L326.83-5.47Q326.83-2.87 324.60-1.26Q322.37 0.35 318.83 0.35L318.83 0.35Q316.44 0.35 314.59-0.50Q312.73-1.35 311.68-2.84Q310.62-4.32 310.62-6.05L310.62-6.05L315.44-6.05Q315.51-4.69 316.44-3.97Q317.37-3.25 318.94-3.25L318.94-3.25Q320.40-3.25 321.14-3.81Q321.89-4.36 321.89-5.26ZM335.46-19.02L335.46 0L330.36 0L330.36-19.02L335.46-19.02ZM330.06-23.94L330.06-23.94Q330.06-25.08 330.83-25.82Q331.59-26.56 332.91-26.56L332.91-26.56Q334.21-26.56 334.99-25.82Q335.76-25.08 335.76-23.94L335.76-23.94Q335.76-22.78 334.98-22.04Q334.20-21.30 332.91-21.30Q331.63-21.30 330.85-22.04Q330.06-22.78 330.06-23.94ZM339.54-19.02L344.32-19.02L344.48-16.82Q346.52-19.37 349.95-19.37L349.95-19.37Q352.97-19.37 354.45-17.60Q355.92-15.82 355.96-12.29L355.96-12.29L355.96 0L350.88 0L350.88-12.16Q350.88-13.78 350.17-14.51Q349.47-15.24 347.84-15.24L347.84-15.24Q345.69-15.24 344.62-13.41L344.62-13.41L344.62 0L339.54 0L339.54-19.02ZM359.07-9.44L359.07-9.65Q359.07-14.03 361.15-16.70Q363.23-19.37 366.77-19.37L366.77-19.37Q369.90-19.37 371.64-17.23L371.64-17.23L371.85-19.02L376.45-19.02L376.45-0.63Q376.45 1.86 375.32 3.71Q374.19 5.55 372.13 6.52Q370.07 7.49 367.31 7.49L367.31 7.49Q365.22 7.49 363.23 6.65Q361.25 5.82 360.23 4.50L360.23 4.50L362.48 1.41Q364.38 3.53 367.08 3.53L367.08 3.53Q369.11 3.53 370.23 2.45Q371.36 1.37 371.36-0.62L371.36-0.62L371.36-1.63Q369.60 0.35 366.73 0.35L366.73 0.35Q363.30 0.35 361.19-2.33Q359.07-5.01 359.07-9.44L359.07-9.44ZM364.15-9.28L364.15-9.28Q364.15-6.70 365.19-5.23Q366.22-3.76 368.03-3.76L368.03-3.76Q370.35-3.76 371.36-5.50L371.36-5.50L371.36-13.50Q370.34-15.24 368.07-15.24L368.07-15.24Q366.24-15.24 365.19-13.75Q364.15-12.25 364.15-9.28Z" transform="translate(620, 695)" fill="#ffffff" />
  <text x="960" y="1040" font-family="Arial, sans-serif" font-size="20" fill="#666" text-anchor="middle">OpenClaw Documentation</text>
</svg>