<?xml version="1.0" encoding="UTF-8"?>
<svg width="1920" height="1080" xmlns="http://www.w3.org/2000/svg">
  <defs>
    <linearGradient id="bg" x1="0%" y1="0%" x2="100%" y2="100%">
      <stop offset="0%" style="stop-color:#1a1a2e;stop-opacity:1" />
      <stop offset="100%" style="stop-color:#000008;stop-opacity:1" />
    </linearGradient>
    <linearGradient id="accent" x1="0%" y1="0%" x2="100%" y2="0%">
      <stop offset="0%" style="stop-color:#e94560;stop-opacity:1" />
      <stop offset="100%" style="stop-color:#ff92ad;stop-opacity:1" />
    </linearGradient>
    <filter id="glow">
      <feGaussianBlur stdDeviation="3" result="coloredBlur"/>
      <feMerge><feMergeNode in="coloredBlur"/><feMergeNode in="SourceGraphic"/></feMerge>
    </filter>
  </defs>
  <rect width="100%" height="100%" fill="url(#bg)"/>
  <circle cx="1920" cy="0" r="700" fill="#e94560" opacity="0.08"/>
  <circle cx="0" cy="1080" r="500" fill="#ff92ad" opacity="0.06"/>
  <rect width="1920" height="6" fill="url(#accent)"/>
  <path d="M19.95-9.95L26.11-9.95Q25.76-5.13 22.55-2.36Q19.34 0.41 14.09 0.41L14.09 0.41Q8.35 0.41 5.06-3.46Q1.76-7.32 1.76-14.07L1.76-14.07L1.76-15.89Q1.76-20.20 3.28-23.48Q4.80-26.76 7.62-28.52Q10.44-30.27 14.17-30.27L14.17-30.27Q19.34-30.27 22.50-27.50Q25.66-24.73 26.15-19.73L26.15-19.73L20.00-19.73Q19.77-22.62 18.39-23.92Q17.00-25.22 14.17-25.22L14.17-25.22Q11.09-25.22 9.57-23.02Q8.04-20.82 8.00-16.18L8.00-16.18L8.00-13.92Q8.00-9.08 9.46-6.85Q10.93-4.61 14.09-4.61L14.09-4.61Q16.94-4.61 18.34-5.92Q19.75-7.22 19.95-9.95L19.95-9.95ZM35.54-31.50L35.54-19.77Q37.90-22.60 41.47-22.60L41.47-22.60Q48.69-22.60 48.79-14.21L48.79-14.21L48.79 0L42.86 0L42.86-14.05Q42.86-15.96 42.04-16.87Q41.22-17.78 39.31-17.78L39.31-17.78Q36.71-17.78 35.54-15.77L35.54-15.77L35.54 0L29.61 0L29.61-31.50L35.54-31.50ZM72.11 0L66.12 0Q65.71-0.80 65.52-1.99L65.52-1.99Q63.37 0.41 59.92 0.41L59.92 0.41Q56.66 0.41 54.52-1.48Q52.38-3.36 52.38-6.23L52.38-6.23Q52.38-9.76 54.99-11.65Q57.61-13.54 62.55-13.56L62.55-13.56L65.28-13.56L65.28-14.83Q65.28-16.37 64.49-17.29Q63.70-18.21 62.00-18.21L62.00-18.21Q60.50-18.21 59.65-17.49Q58.80-16.78 58.80-15.52L58.80-15.52L52.87-15.52Q52.87-17.45 54.06-19.09Q55.25-20.73 57.42-21.67Q59.60-22.60 62.30-22.60L62.30-22.60Q66.40-22.60 68.81-20.54Q71.22-18.48 71.22-14.75L71.22-14.75L71.22-5.13Q71.24-1.97 72.11-0.35L72.11-0.35L72.11 0ZM61.22-4.12L61.22-4.12Q62.53-4.12 63.64-4.71Q64.74-5.29 65.28-6.28L65.28-6.28L65.28-10.09L63.06-10.09Q58.61-10.09 58.32-7.01L58.32-7.01L58.30-6.67Q58.30-5.56 59.08-4.84Q59.86-4.12 61.22-4.12ZM75.65-22.19L81.23-22.19L81.42-19.63Q83.79-22.60 87.79-22.60L87.79-22.60Q91.32-22.60 93.04-20.53Q94.77-18.46 94.81-14.33L94.81-14.33L94.81 0L88.88 0L88.88-14.19Q88.88-16.08 88.06-16.93Q87.24-17.78 85.33-17.78L85.33-17.78Q82.83-17.78 81.58-15.65L81.58-15.65L81.58 0L75.65 0L75.65-22.19ZM116.98-9.95L123.13-9.95Q122.78-5.13 119.57-2.36Q116.36 0.41 111.11 0.41L111.11 0.41Q105.37 0.41 102.08-3.46Q98.79-7.32 98.79-14.07L98.79-14.07L98.79-15.89Q98.79-20.20 100.30-23.48Q101.82-26.76 104.64-28.52Q107.46-30.27 111.19-30.27L111.19-30.27Q116.36-30.27 119.52-27.50Q122.68-24.73 123.17-19.73L123.17-19.73L117.02-19.73Q116.79-22.62 115.41-23.92Q114.02-25.22 111.19-25.22L111.19-25.22Q108.12-25.22 106.59-23.02Q105.06-20.82 105.02-16.18L105.02-16.18L105.02-13.92Q105.02-9.08 106.49-6.85Q107.95-4.61 111.11-4.61L111.11-4.61Q113.96-4.61 115.37-5.92Q116.77-7.22 116.98-9.95L116.98-9.95ZM133.03-31.50L133.03 0L127.09 0L127.09-31.50L133.03-31.50ZM156.76 0L150.77 0Q150.36-0.80 150.18-1.99L150.18-1.99Q148.03 0.41 144.58 0.41L144.58 0.41Q141.32 0.41 139.18-1.48Q137.03-3.36 137.03-6.23L137.03-6.23Q137.03-9.76 139.65-11.65Q142.26-13.54 147.21-13.56L147.21-13.56L149.93-13.56L149.93-14.83Q149.93-16.37 149.14-17.29Q148.35-18.21 146.65-18.21L146.65-18.21Q145.15-18.21 144.30-17.49Q143.45-16.78 143.45-15.52L143.45-15.52L137.53-15.52Q137.53-17.45 138.71-19.09Q139.90-20.73 142.08-21.67Q144.25-22.60 146.96-22.60L146.96-22.60Q151.06-22.60 153.47-20.54Q155.88-18.48 155.88-14.75L155.88-14.75L155.88-5.13Q155.90-1.97 156.76-0.35L156.76-0.35L156.76 0ZM145.87-4.12L145.87-4.12Q147.18-4.12 148.29-4.71Q149.40-5.29 149.93-6.28L149.93-6.28L149.93-10.09L147.72-10.09Q143.27-10.09 142.98-7.01L142.98-7.01L142.96-6.67Q142.96-5.56 143.74-4.84Q144.52-4.12 145.87-4.12ZM175.69-22.19L179.73-8.06L182.64-22.19L188.36-22.19L182.70 0L177.74 0L173.54-13.97L169.33 0L164.39 0L158.73-22.19L164.45-22.19L167.34-8.08L171.40-22.19L175.69-22.19Z" transform="translate(50, 70)" fill="#e94560" />
  <text x="1870" y="70" font-family="Arial, sans-serif" font-size="24" fill="#888" text-anchor="end">5 / 10</text>
  <path d="M31.11-13.43L31.11-13.43Q31.11-16.42 29.00-18.02Q26.89-19.62 21.41-21.39Q15.93-23.17 12.73-24.89L12.73-24.89Q4.01-29.60 4.01-37.58L4.01-37.58Q4.01-41.73 6.35-44.98Q8.68-48.23 13.06-50.06Q17.44-51.89 22.89-51.89L22.89-51.89Q28.37-51.89 32.66-49.90Q36.95-47.92 39.32-44.30Q41.70-40.68 41.70-36.07L41.70-36.07L31.15-36.07Q31.15-39.59 28.93-41.54Q26.72-43.49 22.71-43.49L22.71-43.49Q18.84-43.49 16.70-41.85Q14.55-40.22 14.55-37.55L14.55-37.55Q14.55-35.05 17.07-33.36Q19.58-31.68 24.47-30.20L24.47-30.20Q33.47-27.49 37.58-23.48Q41.70-19.48 41.70-13.50L41.70-13.50Q41.70-6.86 36.67-3.08Q31.64 0.70 23.13 0.70L23.13 0.70Q17.23 0.70 12.38-1.46Q7.52-3.62 4.97-7.38Q2.43-11.14 2.43-16.10L2.43-16.10L13.01-16.10Q13.01-7.63 23.13-7.63L23.13-7.63Q26.89-7.63 29.00-9.16Q31.11-10.69 31.11-13.43ZM71.75 0L61.98-15.26L58.32-11.60L58.32 0L48.16 0L48.16-54L58.32-54L58.32-24.08L60.29-26.61L70.03-38.04L82.23-38.04L68.48-22.18L83.43 0L71.75 0ZM97.35-38.04L97.35 0L87.15 0L87.15-38.04L97.35-38.04ZM86.55-47.88L86.55-47.88Q86.55-50.17 88.08-51.64Q89.61-53.12 92.25-53.12L92.25-53.12Q94.85-53.12 96.40-51.64Q97.95-50.17 97.95-47.88L97.95-47.88Q97.95-45.56 96.38-44.09Q94.82-42.61 92.25-42.61Q89.68-42.61 88.12-44.09Q86.55-45.56 86.55-47.88ZM116.44-54L116.44 0L106.24 0L106.24-54L116.44-54ZM135.53-54L135.53 0L125.33 0L125.33-54L135.53-54ZM164.50-10.51L164.50-10.51Q164.50-12.38 162.65-13.45Q160.80-14.52 156.73-15.36L156.73-15.36Q143.16-18.21 143.16-26.89L143.16-26.89Q143.16-31.96 147.36-35.35Q151.56-38.74 158.34-38.74L158.34-38.74Q165.59-38.74 169.93-35.33Q174.27-31.92 174.27-26.47L174.27-26.47L164.11-26.47Q164.11-28.65 162.70-30.08Q161.30-31.50 158.31-31.50L158.31-31.50Q155.74-31.50 154.34-30.34Q152.93-29.18 152.93-27.39L152.93-27.39Q152.93-25.70 154.53-24.66Q156.13-23.63 159.93-22.87Q163.72-22.11 166.32-21.16L166.32-21.16Q174.38-18.21 174.38-10.93L174.38-10.93Q174.38-5.73 169.91-2.51Q165.45 0.70 158.38 0.70L158.38 0.70Q153.60 0.70 149.89-1.00Q146.18-2.71 144.07-5.68Q141.96-8.65 141.96-12.09L141.96-12.09L151.59-12.09Q151.73-9.39 153.60-7.95Q155.46-6.50 158.59-6.50L158.59-6.50Q161.51-6.50 163.00-7.61Q164.50-8.72 164.50-10.51ZM226.05-13.43L226.05-13.43Q226.05-16.42 223.95-18.02Q221.84-19.62 216.35-21.39Q210.87-23.17 207.67-24.89L207.67-24.89Q198.95-29.60 198.95-37.58L198.95-37.58Q198.95-41.73 201.29-44.98Q203.63-48.23 208.00-50.06Q212.38-51.89 217.83-51.89L217.83-51.89Q223.31-51.89 227.60-49.90Q231.89-47.92 234.26-44.30Q236.64-40.68 236.64-36.07L236.64-36.07L226.09-36.07Q226.09-39.59 223.88-41.54Q221.66-43.49 217.65-43.49L217.65-43.49Q213.79-43.49 211.64-41.85Q209.50-40.22 209.50-37.55L209.50-37.55Q209.50-35.05 212.01-33.36Q214.52-31.68 219.41-30.20L219.41-30.20Q228.41-27.49 232.52-23.48Q236.64-19.48 236.64-13.50L236.64-13.50Q236.64-6.86 231.61-3.08Q226.58 0.70 218.07 0.70L218.07 0.70Q212.17 0.70 207.32-1.46Q202.46-3.62 199.92-7.38Q197.37-11.14 197.37-16.10L197.37-16.10L207.95-16.10Q207.95-7.63 218.07-7.63L218.07-7.63Q221.84-7.63 223.95-9.16Q226.05-10.69 226.05-13.43ZM250.24-38.04L257.31-14.38L264.34-38.04L275.24-38.04L259.95 5.91L259.10 7.91Q255.69 15.36 247.85 15.36L247.85 15.36Q245.64 15.36 243.35 14.70L243.35 14.70L243.35 7.00L244.90 7.03Q247.78 7.03 249.21 6.15Q250.63 5.27 251.44 3.23L251.44 3.23L252.63 0.11L239.31-38.04L250.24-38.04ZM299.85-10.51L299.85-10.51Q299.85-12.38 298.00-13.45Q296.16-14.52 292.08-15.36L292.08-15.36Q278.51-18.21 278.51-26.89L278.51-26.89Q278.51-31.96 282.71-35.35Q286.91-38.74 293.70-38.74L293.70-38.74Q300.94-38.74 305.28-35.33Q309.62-31.92 309.62-26.47L309.62-26.47L299.46-26.47Q299.46-28.65 298.05-30.08Q296.65-31.50 293.66-31.50L293.66-31.50Q291.09-31.50 289.69-30.34Q288.28-29.18 288.28-27.39L288.28-27.39Q288.28-25.70 289.88-24.66Q291.48-23.63 295.28-22.87Q299.07-22.11 301.68-21.16L301.68-21.16Q309.73-18.21 309.73-10.93L309.73-10.93Q309.73-5.73 305.26-2.51Q300.80 0.70 293.73 0.70L293.73 0.70Q288.95 0.70 285.24-1.00Q281.53-2.71 279.42-5.68Q277.31-8.65 277.31-12.09L277.31-12.09L286.95-12.09Q287.09-9.39 288.95-7.95Q290.81-6.50 293.94-6.50L293.94-6.50Q296.86-6.50 298.35-7.61Q299.85-8.72 299.85-10.51ZM318.27-47.39L328.43-47.39L328.43-38.04L334.93-38.04L334.93-30.59L328.43-30.59L328.43-11.60Q328.43-9.49 329.24-8.58Q330.05-7.66 332.33-7.66L332.33-7.66Q334.02-7.66 335.32-7.91L335.32-7.91L335.32-0.21Q332.33 0.70 329.17 0.70L329.17 0.70Q318.48 0.70 318.27-10.09L318.27-10.09L318.27-30.59L312.71-30.59L312.71-38.04L318.27-38.04L318.27-47.39ZM358.10 0.70L358.10 0.70Q349.73 0.70 344.48-4.43Q339.22-9.56 339.22-18.11L339.22-18.11L339.22-19.09Q339.22-24.82 341.44-29.34Q343.65-33.86 347.71-36.30Q351.77-38.74 356.98-38.74L356.98-38.74Q364.78-38.74 369.26-33.82Q373.75-28.90 373.75-19.86L373.75-19.86L373.75-15.71L349.52-15.71Q350.02-11.99 352.49-9.74Q354.97-7.49 358.77-7.49L358.77-7.49Q364.64-7.49 367.95-11.74L367.95-11.74L372.94-6.15Q370.65-2.92 366.75-1.11Q362.85 0.70 358.10 0.70ZM356.94-30.52L356.94-30.52Q353.92-30.52 352.04-28.48Q350.16-26.44 349.63-22.64L349.63-22.64L363.76-22.64L363.76-23.45Q363.69-26.82 361.93-28.67Q360.18-30.52 356.94-30.52ZM379.51-38.04L389.04-38.04L389.36-33.79Q393.40-38.74 400.29-38.74L400.29-38.74Q407.64-38.74 410.38-32.94L410.38-32.94Q414.39-38.74 421.80-38.74L421.80-38.74Q427.99-38.74 431.02-35.14Q434.04-31.54 434.04-24.29L434.04-24.29L434.04 0L423.84 0L423.84-24.26Q423.84-27.49 422.58-28.99Q421.31-30.48 418.11-30.48L418.11-30.48Q413.54-30.48 411.79-26.12L411.79-26.12L411.82 0L401.66 0L401.66-24.22Q401.66-27.53 400.36-29.00Q399.06-30.48 395.93-30.48L395.93-30.48Q391.61-30.48 389.67-26.89L389.67-26.89L389.67 0L379.51 0L379.51-38.04Z" transform="translate(741.029296875, 380)" fill="#ffffff" />
  <line x1="760" y1="430" x2="1160" y2="430" stroke="#e94560" stroke-width="4"/>
  <circle cx="580" cy="500" r="6" fill="#e94560" /><path d="M2.29-25.59L9.18-25.59L15.75-7.03L22.29-25.59L29.21-25.59L29.21 0L23.92 0L23.92-7.00L24.45-19.07L17.54 0L13.92 0L7.03-19.05L7.56-7.00L7.56 0L2.29 0L2.29-25.59ZM32.70-9.46L32.70-9.69Q32.70-12.52 33.79-14.73Q34.88-16.95 36.92-18.16Q38.97-19.37 41.68-19.37L41.68-19.37Q45.53-19.37 47.96-17.02Q50.40-14.66 50.68-10.62L50.68-10.62L50.71-9.32Q50.71-4.94 48.27-2.29Q45.83 0.35 41.71 0.35Q37.60 0.35 35.15-2.29Q32.70-4.92 32.70-9.46L32.70-9.46ZM37.78-9.32L37.78-9.32Q37.78-6.61 38.79-5.18Q39.81-3.74 41.71-3.74L41.71-3.74Q43.56-3.74 44.60-5.16Q45.63-6.57 45.63-9.69L45.63-9.69Q45.63-12.34 44.60-13.80Q43.56-15.26 41.68-15.26L41.68-15.26Q39.81-15.26 38.79-13.81Q37.78-12.36 37.78-9.32ZM53.05-9.65L53.05-9.65Q53.05-14.10 55.05-16.73Q57.04-19.37 60.50-19.37L60.50-19.37Q63.28-19.37 65.09-17.30L65.09-17.30L65.09-27L70.19-27L70.19 0L65.60 0L65.36-2.02Q63.46 0.35 60.47 0.35L60.47 0.35Q57.11 0.35 55.08-2.29Q53.05-4.94 53.05-9.65ZM58.13-9.28L58.13-9.28Q58.13-6.61 59.06-5.19Q59.99-3.76 61.77-3.76L61.77-3.76Q64.13-3.76 65.09-5.75L65.09-5.75L65.09-13.25Q64.14-15.24 61.80-15.24L61.80-15.24Q58.13-15.24 58.13-9.28ZM85.66 0L85.52-1.93Q83.64 0.35 80.31 0.35L80.31 0.35Q77.26 0.35 75.65-1.41Q74.04-3.16 74.00-6.56L74.00-6.56L74.00-19.02L79.08-19.02L79.08-6.73Q79.08-3.76 81.79-3.76L81.79-3.76Q84.38-3.76 85.34-5.55L85.34-5.55L85.34-19.02L90.44-19.02L90.44 0L85.66 0ZM99.63-27L99.63 0L94.54 0L94.54-27L99.63-27ZM119.97 0L114.84 0Q114.49-0.69 114.33-1.71L114.33-1.71Q112.48 0.35 109.53 0.35L109.53 0.35Q106.73 0.35 104.90-1.27Q103.06-2.88 103.06-5.34L103.06-5.34Q103.06-8.37 105.30-9.98Q107.54-11.60 111.78-11.62L111.78-11.62L114.12-11.62L114.12-12.71Q114.12-14.03 113.44-14.82Q112.76-15.61 111.30-15.61L111.30-15.61Q110.02-15.61 109.29-14.99Q108.56-14.38 108.56-13.31L108.56-13.31L103.48-13.31Q103.48-14.96 104.50-16.37Q105.52-17.77 107.38-18.57Q109.25-19.37 111.57-19.37L111.57-19.37Q115.08-19.37 117.15-17.60Q119.21-15.84 119.21-12.64L119.21-12.64L119.21-4.39Q119.23-1.69 119.97-0.30L119.97-0.30L119.97 0ZM110.64-3.53L110.64-3.53Q111.76-3.53 112.71-4.03Q113.66-4.54 114.12-5.38L114.12-5.38L114.12-8.65L112.22-8.65Q108.40-8.65 108.16-6.01L108.16-6.01L108.14-5.71Q108.14-4.76 108.81-4.15Q109.48-3.53 110.64-3.53ZM133.88-19.14L133.80-14.26Q132.77-14.40 131.98-14.40L131.98-14.40Q129.09-14.40 128.20-12.45L128.20-12.45L128.20 0L123.12 0L123.12-19.02L127.92-19.02L128.06-16.75Q129.59-19.37 132.29-19.37L132.29-19.37Q133.14-19.37 133.88-19.14L133.88-19.14ZM162.33-9.60L162.33-9.33Q162.33-4.94 160.34-2.29Q158.34 0.35 154.95 0.35L154.95 0.35Q152.07 0.35 150.29-1.65L150.29-1.65L150.29 7.31L145.21 7.31L145.21-19.02L149.92-19.02L150.10-17.16Q151.95-19.37 154.92-19.37L154.92-19.37Q158.43-19.37 160.38-16.77Q162.33-14.17 162.33-9.60L162.33-9.60ZM157.25-9.70L157.25-9.70Q157.25-12.36 156.31-13.80Q155.37-15.24 153.58-15.24L153.58-15.24Q151.19-15.24 150.29-13.41L150.29-13.41L150.29-5.63Q151.22-3.74 153.62-3.74L153.62-3.74Q157.25-3.74 157.25-9.70ZM170.84-27L170.84 0L165.74 0L165.74-27L170.84-27ZM186.56 0L186.42-1.93Q184.54 0.35 181.21 0.35L181.21 0.35Q178.15 0.35 176.55-1.41Q174.94-3.16 174.90-6.56L174.90-6.56L174.90-19.02L179.98-19.02L179.98-6.73Q179.98-3.76 182.69-3.76L182.69-3.76Q185.27-3.76 186.24-5.55L186.24-5.55L186.24-19.02L191.34-19.02L191.34 0L186.56 0ZM194.43-9.44L194.43-9.65Q194.43-14.03 196.51-16.70Q198.60-19.37 202.13-19.37L202.13-19.37Q205.26-19.37 207-17.23L207-17.23L207.21-19.02L211.82-19.02L211.82-0.63Q211.82 1.86 210.68 3.71Q209.55 5.55 207.49 6.52Q205.44 7.49 202.68 7.49L202.68 7.49Q200.58 7.49 198.60 6.65Q196.61 5.82 195.59 4.50L195.59 4.50L197.84 1.41Q199.74 3.53 202.45 3.53L202.45 3.53Q204.47 3.53 205.59 2.45Q206.72 1.37 206.72-0.62L206.72-0.62L206.72-1.63Q204.96 0.35 202.10 0.35L202.10 0.35Q198.67 0.35 196.55-2.33Q194.43-5.01 194.43-9.44L194.43-9.44ZM199.51-9.28L199.51-9.28Q199.51-6.70 200.55-5.23Q201.59-3.76 203.40-3.76L203.40-3.76Q205.72-3.76 206.72-5.50L206.72-5.50L206.72-13.50Q205.70-15.24 203.43-15.24L203.43-15.24Q201.60-15.24 200.56-13.75Q199.51-12.25 199.51-9.28ZM221.08-19.02L221.08 0L215.98 0L215.98-19.02L221.08-19.02ZM215.68-23.94L215.68-23.94Q215.68-25.08 216.45-25.82Q217.21-26.56 218.53-26.56L218.53-26.56Q219.83-26.56 220.61-25.82Q221.38-25.08 221.38-23.94L221.38-23.94Q221.38-22.78 220.60-22.04Q219.81-21.30 218.53-21.30Q217.25-21.30 216.47-22.04Q215.68-22.78 215.68-23.94ZM225.16-19.02L229.94-19.02L230.10-16.82Q232.14-19.37 235.56-19.37L235.56-19.37Q238.59-19.37 240.06-17.60Q241.54-15.82 241.58-12.29L241.58-12.29L241.58 0L236.50 0L236.50-12.16Q236.50-13.78 235.79-14.51Q235.09-15.24 233.46-15.24L233.46-15.24Q231.31-15.24 230.24-13.41L230.24-13.41L230.24 0L225.16 0L225.16-19.02ZM270.54 0L265.41 0Q265.06-0.69 264.90-1.71L264.90-1.71Q263.06 0.35 260.10 0.35L260.10 0.35Q257.31 0.35 255.47-1.27Q253.63-2.88 253.63-5.34L253.63-5.34Q253.63-8.37 255.88-9.98Q258.12-11.60 262.35-11.62L262.35-11.62L264.69-11.62L264.69-12.71Q264.69-14.03 264.01-14.82Q263.34-15.61 261.88-15.61L261.88-15.61Q260.60-15.61 259.87-14.99Q259.14-14.38 259.14-13.31L259.14-13.31L254.06-13.31Q254.06-14.96 255.08-16.37Q256.10-17.77 257.96-18.57Q259.82-19.37 262.14-19.37L262.14-19.37Q265.66-19.37 267.72-17.60Q269.79-15.84 269.79-12.64L269.79-12.64L269.79-4.39Q269.81-1.69 270.54-0.30L270.54-0.30L270.54 0ZM261.21-3.53L261.21-3.53Q262.34-3.53 263.29-4.03Q264.23-4.54 264.69-5.38L264.69-5.38L264.69-8.65L262.79-8.65Q258.98-8.65 258.73-6.01L258.73-6.01L258.71-5.71Q258.71-4.76 259.38-4.15Q260.05-3.53 261.21-3.53ZM284.45-19.14L284.38-14.26Q283.34-14.40 282.55-14.40L282.55-14.40Q279.67-14.40 278.77-12.45L278.77-12.45L278.77 0L273.69 0L273.69-19.02L278.49-19.02L278.63-16.75Q280.16-19.37 282.87-19.37L282.87-19.37Q283.71-19.37 284.45-19.14L284.45-19.14ZM294.73-3.74L294.73-3.74Q296.14-3.74 297.02-4.52Q297.90-5.29 297.93-6.57L297.93-6.57L302.70-6.57Q302.68-4.64 301.64-3.03Q300.60-1.42 298.80-0.54Q297 0.35 294.82 0.35L294.82 0.35Q290.74 0.35 288.39-2.24Q286.03-4.83 286.03-9.40L286.03-9.40L286.03-9.74Q286.03-14.13 288.37-16.75Q290.71-19.37 294.79-19.37L294.79-19.37Q298.35-19.37 300.51-17.34Q302.66-15.31 302.70-11.94L302.70-11.94L297.93-11.94Q297.90-13.41 297.02-14.33Q296.14-15.26 294.70-15.26L294.70-15.26Q292.92-15.26 292.02-13.97Q291.11-12.67 291.11-9.77L291.11-9.77L291.11-9.25Q291.11-6.31 292.01-5.03Q292.90-3.74 294.73-3.74ZM310.55-27L310.55-16.95Q312.57-19.37 315.63-19.37L315.63-19.37Q321.82-19.37 321.91-12.18L321.91-12.18L321.91 0L316.83 0L316.83-12.04Q316.83-13.68 316.13-14.46Q315.42-15.24 313.79-15.24L313.79-15.24Q311.55-15.24 310.55-13.52L310.55-13.52L310.55 0L305.47 0L305.47-27L310.55-27ZM331.10-19.02L331.10 0L326.00 0L326.00-19.02L331.10-19.02ZM325.71-23.94L325.71-23.94Q325.71-25.08 326.47-25.82Q327.23-26.56 328.55-26.56L328.55-26.56Q329.85-26.56 330.63-25.82Q331.40-25.08 331.40-23.94L331.40-23.94Q331.40-22.78 330.62-22.04Q329.84-21.30 328.55-21.30Q327.27-21.30 326.49-22.04Q325.71-22.78 325.71-23.94ZM336.29-23.70L341.37-23.70L341.37-19.02L344.62-19.02L344.62-15.29L341.37-15.29L341.37-5.80Q341.37-4.75 341.77-4.29Q342.18-3.83 343.32-3.83L343.32-3.83Q344.16-3.83 344.81-3.96L344.81-3.96L344.81-0.11Q343.32 0.35 341.74 0.35L341.74 0.35Q336.39 0.35 336.29-5.04L336.29-5.04L336.29-15.29L333.51-15.29L333.51-19.02L336.29-19.02L336.29-23.70ZM356.20 0.35L356.20 0.35Q352.02 0.35 349.39-2.21Q346.76-4.78 346.76-9.05L346.76-9.05L346.76-9.54Q346.76-12.41 347.87-14.67Q348.98-16.93 351.01-18.15Q353.04-19.37 355.64-19.37L355.64-19.37Q359.54-19.37 361.78-16.91Q364.03-14.45 364.03-9.93L364.03-9.93L364.03-7.86L351.91-7.86Q352.16-5.99 353.40-4.87Q354.64-3.74 356.54-3.74L356.54-3.74Q359.47-3.74 361.13-5.87L361.13-5.87L363.62-3.08Q362.48-1.46 360.53-0.55Q358.58 0.35 356.20 0.35ZM355.62-15.26L355.62-15.26Q354.11-15.26 353.17-14.24Q352.23-13.22 351.97-11.32L351.97-11.32L359.03-11.32L359.03-11.72Q359.00-13.41 358.12-14.33Q357.24-15.26 355.62-15.26ZM374.82-3.74L374.82-3.74Q376.22-3.74 377.10-4.52Q377.98-5.29 378.02-6.57L378.02-6.57L382.78-6.57Q382.76-4.64 381.73-3.03Q380.69-1.42 378.89-0.54Q377.09 0.35 374.91 0.35L374.91 0.35Q370.83 0.35 368.47-2.24Q366.12-4.83 366.12-9.40L366.12-9.40L366.12-9.74Q366.12-14.13 368.46-16.75Q370.79-19.37 374.87-19.37L374.87-19.37Q378.44-19.37 380.59-17.34Q382.75-15.31 382.78-11.94L382.78-11.94L378.02-11.94Q377.98-13.41 377.10-14.33Q376.22-15.26 374.78-15.26L374.78-15.26Q373.01-15.26 372.10-13.97Q371.20-12.67 371.20-9.77L371.20-9.77L371.20-9.25Q371.20-6.31 372.09-5.03Q372.99-3.74 374.82-3.74ZM386.68-23.70L391.76-23.70L391.76-19.02L395.02-19.02L395.02-15.29L391.76-15.29L391.76-5.80Q391.76-4.75 392.17-4.29Q392.57-3.83 393.71-3.83L393.71-3.83Q394.56-3.83 395.21-3.96L395.21-3.96L395.21-0.11Q393.71 0.35 392.13 0.35L392.13 0.35Q386.79 0.35 386.68-5.04L386.68-5.04L386.68-15.29L383.91-15.29L383.91-19.02L386.68-19.02L386.68-23.70ZM409.38 0L409.24-1.93Q407.36 0.35 404.03 0.35L404.03 0.35Q400.97 0.35 399.37-1.41Q397.76-3.16 397.72-6.56L397.72-6.56L397.72-19.02L402.80-19.02L402.80-6.73Q402.80-3.76 405.51-3.76L405.51-3.76Q408.09-3.76 409.06-5.55L409.06-5.55L409.06-19.02L414.16-19.02L414.16 0L409.38 0ZM428.75-19.14L428.68-14.26Q427.64-14.40 426.85-14.40L426.85-14.40Q423.97-14.40 423.07-12.45L423.07-12.45L423.07 0L417.99 0L417.99-19.02L422.79-19.02L422.93-16.75Q424.46-19.37 427.17-19.37L427.17-19.37Q428.01-19.37 428.75-19.14L428.75-19.14ZM439.88 0.35L439.88 0.35Q435.69 0.35 433.06-2.21Q430.44-4.78 430.44-9.05L430.44-9.05L430.44-9.54Q430.44-12.41 431.54-14.67Q432.65-16.93 434.68-18.15Q436.71-19.37 439.31-19.37L439.31-19.37Q443.21-19.37 445.46-16.91Q447.70-14.45 447.70-9.93L447.70-9.93L447.70-7.86L435.59-7.86Q435.83-5.99 437.07-4.87Q438.31-3.74 440.21-3.74L440.21-3.74Q443.14-3.74 444.80-5.87L444.80-5.87L447.29-3.08Q446.15-1.46 444.20-0.55Q442.25 0.35 439.88 0.35ZM439.29-15.26L439.29-15.26Q437.78-15.26 436.84-14.24Q435.90-13.22 435.64-11.32L435.64-11.32L442.71-11.32L442.71-11.72Q442.67-13.41 441.79-14.33Q440.91-15.26 439.29-15.26Z" transform="translate(620, 500)" fill="#ffffff" /><circle cx="580" cy="565" r="6" fill="#e94560" /><path d="M7.89-25.59L7.89 0L2.62 0L2.62-25.59L7.89-25.59ZM12.34-19.02L17.12-19.02L17.28-16.82Q19.32-19.37 22.75-19.37L22.75-19.37Q25.77-19.37 27.25-17.60Q28.72-15.82 28.76-12.29L28.76-12.29L28.76 0L23.68 0L23.68-12.16Q23.68-13.78 22.97-14.51Q22.27-15.24 20.64-15.24L20.64-15.24Q18.49-15.24 17.42-13.41L17.42-13.41L17.42 0L12.34 0L12.34-19.02ZM42.91-5.26L42.91-5.26Q42.91-6.19 41.99-6.72Q41.06-7.26 39.02-7.68L39.02-7.68Q32.24-9.11 32.24-13.45L32.24-13.45Q32.24-15.98 34.34-17.67Q36.44-19.37 39.83-19.37L39.83-19.37Q43.45-19.37 45.62-17.67Q47.79-15.96 47.79-13.24L47.79-13.24L42.71-13.24Q42.71-14.33 42.01-15.04Q41.31-15.75 39.81-15.75L39.81-15.75Q38.53-15.75 37.83-15.17Q37.13-14.59 37.13-13.69L37.13-13.69Q37.13-12.85 37.92-12.33Q38.72-11.81 40.62-11.43Q42.52-11.06 43.82-10.58L43.82-10.58Q47.85-9.11 47.85-5.47L47.85-5.47Q47.85-2.87 45.62-1.26Q43.38 0.35 39.85 0.35L39.85 0.35Q37.46 0.35 35.60-0.50Q33.75-1.35 32.70-2.84Q31.64-4.32 31.64-6.05L31.64-6.05L36.46-6.05Q36.53-4.69 37.46-3.97Q38.39-3.25 39.96-3.25L39.96-3.25Q41.41-3.25 42.16-3.81Q42.91-4.36 42.91-5.26ZM52.12-23.70L57.20-23.70L57.20-19.02L60.45-19.02L60.45-15.29L57.20-15.29L57.20-5.80Q57.20-4.75 57.60-4.29Q58.01-3.83 59.15-3.83L59.15-3.83Q59.99-3.83 60.64-3.96L60.64-3.96L60.64-0.11Q59.15 0.35 57.57 0.35L57.57 0.35Q52.22 0.35 52.12-5.04L52.12-5.04L52.12-15.29L49.34-15.29L49.34-19.02L52.12-19.02L52.12-23.70ZM79.44 0L74.30 0Q73.95-0.69 73.79-1.71L73.79-1.71Q71.95 0.35 68.99 0.35L68.99 0.35Q66.20 0.35 64.36-1.27Q62.53-2.88 62.53-5.34L62.53-5.34Q62.53-8.37 64.77-9.98Q67.01-11.60 71.24-11.62L71.24-11.62L73.58-11.62L73.58-12.71Q73.58-14.03 72.91-14.82Q72.23-15.61 70.77-15.61L70.77-15.61Q69.49-15.61 68.76-14.99Q68.03-14.38 68.03-13.31L68.03-13.31L62.95-13.31Q62.95-14.96 63.97-16.37Q64.99-17.77 66.85-18.57Q68.71-19.37 71.03-19.37L71.03-19.37Q74.55-19.37 76.61-17.60Q78.68-15.84 78.68-12.64L78.68-12.64L78.68-4.39Q78.70-1.69 79.44-0.30L79.44-0.30L79.44 0ZM70.10-3.53L70.10-3.53Q71.23-3.53 72.18-4.03Q73.13-4.54 73.58-5.38L73.58-5.38L73.58-8.65L71.68-8.65Q67.87-8.65 67.62-6.01L67.62-6.01L67.61-5.71Q67.61-4.76 68.27-4.15Q68.94-3.53 70.10-3.53ZM87.94-27L87.94 0L82.85 0L82.85-27L87.94-27ZM97.49-27L97.49 0L92.39 0L92.39-27L97.49-27ZM114.22-19.02L117.76-6.21L121.29-19.02L126.60-19.02L120.18 0L115.33 0L108.91-19.02L114.22-19.02ZM134.19-19.02L134.19 0L129.09 0L129.09-19.02L134.19-19.02ZM128.79-23.94L128.79-23.94Q128.79-25.08 129.56-25.82Q130.32-26.56 131.64-26.56L131.64-26.56Q132.94-26.56 133.72-25.82Q134.49-25.08 134.49-23.94L134.49-23.94Q134.49-22.78 133.71-22.04Q132.93-21.30 131.64-21.30Q130.36-21.30 129.58-22.04Q128.79-22.78 128.79-23.94ZM154.53 0L149.40 0Q149.04-0.69 148.89-1.71L148.89-1.71Q147.04 0.35 144.09 0.35L144.09 0.35Q141.29 0.35 139.46-1.27Q137.62-2.88 137.62-5.34L137.62-5.34Q137.62-8.37 139.86-9.98Q142.10-11.60 146.34-11.62L146.34-11.62L148.68-11.62L148.68-12.71Q148.68-14.03 148.00-14.82Q147.32-15.61 145.86-15.61L145.86-15.61Q144.58-15.61 143.85-14.99Q143.12-14.38 143.12-13.31L143.12-13.31L138.04-13.31Q138.04-14.96 139.06-16.37Q140.08-17.77 141.94-18.57Q143.81-19.37 146.13-19.37L146.13-19.37Q149.64-19.37 151.71-17.60Q153.77-15.84 153.77-12.64L153.77-12.64L153.77-4.39Q153.79-1.69 154.53-0.30L154.53-0.30L154.53 0ZM145.20-3.53L145.20-3.53Q146.32-3.53 147.27-4.03Q148.22-4.54 148.68-5.38L148.68-5.38L148.68-8.65L146.78-8.65Q142.96-8.65 142.72-6.01L142.72-6.01L142.70-5.71Q142.70-4.76 143.37-4.15Q144.04-3.53 145.20-3.53ZM181.79-8.53L187.07-8.53Q186.77-4.39 184.02-2.02Q181.27 0.35 176.77 0.35L176.77 0.35Q171.84 0.35 169.02-2.96Q166.20-6.28 166.20-12.06L166.20-12.06L166.20-13.62Q166.20-17.31 167.50-20.13Q168.80-22.94 171.22-24.44Q173.64-25.95 176.84-25.95L176.84-25.95Q181.27-25.95 183.97-23.57Q186.68-21.20 187.10-16.91L187.10-16.91L181.83-16.91Q181.63-19.39 180.45-20.50Q179.26-21.62 176.84-21.62L176.84-21.62Q174.20-21.62 172.89-19.73Q171.58-17.84 171.54-13.87L171.54-13.87L171.54-11.94Q171.54-7.79 172.80-5.87Q174.06-3.96 176.77-3.96L176.77-3.96Q179.21-3.96 180.41-5.07Q181.62-6.19 181.79-8.53L181.79-8.53ZM195.56-27L195.56 0L190.46 0L190.46-27L195.56-27ZM215.89 0L210.76 0Q210.41-0.69 210.25-1.71L210.25-1.71Q208.41 0.35 205.45 0.35L205.45 0.35Q202.66 0.35 200.82-1.27Q198.98-2.88 198.98-5.34L198.98-5.34Q198.98-8.37 201.23-9.98Q203.47-11.60 207.70-11.62L207.70-11.62L210.04-11.62L210.04-12.71Q210.04-14.03 209.36-14.82Q208.69-15.61 207.23-15.61L207.23-15.61Q205.95-15.61 205.22-14.99Q204.49-14.38 204.49-13.31L204.49-13.31L199.41-13.31Q199.41-14.96 200.43-16.37Q201.45-17.77 203.31-18.57Q205.17-19.37 207.49-19.37L207.49-19.37Q211.01-19.37 213.07-17.60Q215.14-15.84 215.14-12.64L215.14-12.64L215.14-4.39Q215.16-1.69 215.89-0.30L215.89-0.30L215.89 0ZM206.56-3.53L206.56-3.53Q207.69-3.53 208.63-4.03Q209.58-4.54 210.04-5.38L210.04-5.38L210.04-8.65L208.14-8.65Q204.33-8.65 204.08-6.01L204.08-6.01L204.06-5.71Q204.06-4.76 204.73-4.15Q205.40-3.53 206.56-3.53ZM232.12-19.02L235.58-6.91L238.08-19.02L242.98-19.02L238.13 0L233.88 0L230.27-11.97L226.67 0L222.43 0L217.58-19.02L222.49-19.02L224.96-6.93L228.45-19.02L232.12-19.02ZM266.66-25.59L266.66 0L261.39 0L261.39-10.97L251.10-10.97L251.10 0L245.83 0L245.83-25.59L251.10-25.59L251.10-15.22L261.39-15.22L261.39-25.59L266.66-25.59ZM282.46 0L282.32-1.93Q280.44 0.35 277.12 0.35L277.12 0.35Q274.06 0.35 272.45-1.41Q270.84-3.16 270.81-6.56L270.81-6.56L270.81-19.02L275.89-19.02L275.89-6.73Q275.89-3.76 278.60-3.76L278.60-3.76Q281.18-3.76 282.15-5.55L282.15-5.55L282.15-19.02L287.24-19.02L287.24 0L282.46 0ZM308.21-9.62L308.21-9.33Q308.21-4.76 306.26-2.21Q304.31 0.35 300.81 0.35L300.81 0.35Q297.72 0.35 295.88-2.02L295.88-2.02L295.65 0L291.08 0L291.08-27L296.16-27L296.16-17.31Q297.91-19.37 300.78-19.37L300.78-19.37Q304.26-19.37 306.24-16.81Q308.21-14.26 308.21-9.62L308.21-9.62ZM303.13-9.70L303.13-9.70Q303.13-12.59 302.22-13.91Q301.31-15.24 299.50-15.24L299.50-15.24Q297.07-15.24 296.16-13.25L296.16-13.25L296.16-5.75Q297.09-3.74 299.53-3.74L299.53-3.74Q301.99-3.74 302.77-6.17L302.77-6.17Q303.13-7.33 303.13-9.70Z" transform="translate(620, 565)" fill="#ffffff" /><circle cx="580" cy="630" r="6" fill="#e94560" /><path d="M12.23 0L2.29 0L2.29-25.59L11.25-25.59Q15.91-25.59 18.32-23.81Q20.72-22.03 20.72-18.58L20.72-18.58Q20.72-16.70 19.76-15.27Q18.79-13.83 17.07-13.17L17.07-13.17Q19.04-12.67 20.17-11.18Q21.30-9.69 21.30-7.52L21.30-7.52Q21.30-3.83 18.95-1.93Q16.59-0.04 12.23 0L12.23 0ZM12.39-11.14L7.56-11.14L7.56-4.24L12.08-4.24Q13.94-4.24 14.99-5.12Q16.03-6.01 16.03-7.58L16.03-7.58Q16.03-11.09 12.39-11.14L12.39-11.14ZM7.56-21.32L7.56-14.87L11.46-14.87Q15.45-14.94 15.45-18.05L15.45-18.05Q15.45-19.79 14.44-20.56Q13.43-21.32 11.25-21.32L11.25-21.32L7.56-21.32ZM36.46 0L36.32-1.93Q34.44 0.35 31.11 0.35L31.11 0.35Q28.05 0.35 26.45-1.41Q24.84-3.16 24.80-6.56L24.80-6.56L24.80-19.02L29.88-19.02L29.88-6.73Q29.88-3.76 32.59-3.76L32.59-3.76Q35.17-3.76 36.14-5.55L36.14-5.55L36.14-19.02L41.24-19.02L41.24 0L36.46 0ZM50.43-19.02L50.43 0L45.33 0L45.33-19.02L50.43-19.02ZM45.04-23.94L45.04-23.94Q45.04-25.08 45.80-25.82Q46.56-26.56 47.88-26.56L47.88-26.56Q49.18-26.56 49.96-25.82Q50.73-25.08 50.73-23.94L50.73-23.94Q50.73-22.78 49.95-22.04Q49.17-21.30 47.88-21.30Q46.60-21.30 45.82-22.04Q45.04-22.78 45.04-23.94ZM59.98-27L59.98 0L54.88 0L54.88-27L59.98-27ZM65.16-23.70L70.24-23.70L70.24-19.02L73.49-19.02L73.49-15.29L70.24-15.29L70.24-5.80Q70.24-4.75 70.65-4.29Q71.05-3.83 72.19-3.83L72.19-3.83Q73.04-3.83 73.69-3.96L73.69-3.96L73.69-0.11Q72.19 0.35 70.61 0.35L70.61 0.35Q65.27 0.35 65.16-5.04L65.16-5.04L65.16-15.29L62.38-15.29L62.38-19.02L65.16-19.02L65.16-23.70ZM86.20-13.01L86.20-8.91L76.31-8.91L76.31-13.01L86.20-13.01ZM95.64-19.02L95.64 0L90.54 0L90.54-19.02L95.64-19.02ZM90.25-23.94L90.25-23.94Q90.25-25.08 91.01-25.82Q91.78-26.56 93.09-26.56L93.09-26.56Q94.39-26.56 95.17-25.82Q95.94-25.08 95.94-23.94L95.94-23.94Q95.94-22.78 95.16-22.04Q94.38-21.30 93.09-21.30Q91.81-21.30 91.03-22.04Q90.25-22.78 90.25-23.94ZM99.72-19.02L104.50-19.02L104.66-16.82Q106.70-19.37 110.13-19.37L110.13-19.37Q113.15-19.37 114.63-17.60Q116.10-15.82 116.14-12.29L116.14-12.29L116.14 0L111.06 0L111.06-12.16Q111.06-13.78 110.36-14.51Q109.65-15.24 108.02-15.24L108.02-15.24Q105.87-15.24 104.80-13.41L104.80-13.41L104.80 0L99.72 0L99.72-19.02ZM120.23-2.50L120.23-2.50Q120.23-3.71 121.05-4.46Q121.87-5.22 123.10-5.22L123.10-5.22Q124.35-5.22 125.17-4.46Q125.98-3.71 125.98-2.50L125.98-2.50Q125.98-1.30 125.17-0.55Q124.37 0.19 123.10 0.19L123.10 0.19Q121.85 0.19 121.04-0.55Q120.23-1.30 120.23-2.50ZM120.23-16.89L120.23-16.89Q120.23-18.11 121.05-18.86Q121.87-19.62 123.10-19.62L123.10-19.62Q124.35-19.62 125.17-18.86Q125.98-18.11 125.98-16.89L125.98-16.89Q125.98-15.70 125.17-14.95Q124.37-14.20 123.10-14.20L123.10-14.20Q121.85-14.20 121.04-14.95Q120.23-15.70 120.23-16.89ZM147.02-3.74L147.02-3.74Q148.43-3.74 149.31-4.52Q150.19-5.29 150.22-6.57L150.22-6.57L154.99-6.57Q154.97-4.64 153.93-3.03Q152.89-1.42 151.09-0.54Q149.29 0.35 147.11 0.35L147.11 0.35Q143.03 0.35 140.68-2.24Q138.32-4.83 138.32-9.40L138.32-9.40L138.32-9.74Q138.32-14.13 140.66-16.75Q143.00-19.37 147.08-19.37L147.08-19.37Q150.64-19.37 152.80-17.34Q154.95-15.31 154.99-11.94L154.99-11.94L150.22-11.94Q150.19-13.41 149.31-14.33Q148.43-15.26 146.99-15.26L146.99-15.26Q145.21-15.26 144.31-13.97Q143.40-12.67 143.40-9.77L143.40-9.77L143.40-9.25Q143.40-6.31 144.30-5.03Q145.20-3.74 147.02-3.74ZM157.10-9.46L157.10-9.69Q157.10-12.52 158.19-14.73Q159.28-16.95 161.32-18.16Q163.37-19.37 166.08-19.37L166.08-19.37Q169.93-19.37 172.36-17.02Q174.80-14.66 175.08-10.62L175.08-10.62L175.11-9.32Q175.11-4.94 172.67-2.29Q170.23 0.35 166.11 0.35Q162 0.35 159.55-2.29Q157.10-4.92 157.10-9.46L157.10-9.46ZM162.18-9.32L162.18-9.32Q162.18-6.61 163.20-5.18Q164.21-3.74 166.11-3.74L166.11-3.74Q167.96-3.74 169.00-5.16Q170.03-6.57 170.03-9.69L170.03-9.69Q170.03-12.34 169.00-13.80Q167.96-15.26 166.08-15.26L166.08-15.26Q164.21-15.26 163.20-13.81Q162.18-12.36 162.18-9.32ZM177.45-9.65L177.45-9.65Q177.45-14.10 179.45-16.73Q181.44-19.37 184.90-19.37L184.90-19.37Q187.68-19.37 189.49-17.30L189.49-17.30L189.49-27L194.59-27L194.59 0L190.00 0L189.76-2.02Q187.86 0.35 184.87 0.35L184.87 0.35Q181.51 0.35 179.48-2.29Q177.45-4.94 177.45-9.65ZM182.53-9.28L182.53-9.28Q182.53-6.61 183.46-5.19Q184.39-3.76 186.17-3.76L186.17-3.76Q188.53-3.76 189.49-5.75L189.49-5.75L189.49-13.25Q188.54-15.24 186.21-15.24L186.21-15.24Q182.53-15.24 182.53-9.28ZM203.89-19.02L203.89 0L198.79 0L198.79-19.02L203.89-19.02ZM198.49-23.94L198.49-23.94Q198.49-25.08 199.26-25.82Q200.02-26.56 201.34-26.56L201.34-26.56Q202.64-26.56 203.41-25.82Q204.19-25.08 204.19-23.94L204.19-23.94Q204.19-22.78 203.41-22.04Q202.62-21.30 201.34-21.30Q200.06-21.30 199.27-22.04Q198.49-22.78 198.49-23.94ZM207.97-19.02L212.75-19.02L212.91-16.82Q214.95-19.37 218.37-19.37L218.37-19.37Q221.40-19.37 222.87-17.60Q224.35-15.82 224.38-12.29L224.38-12.29L224.38 0L219.30 0L219.30-12.16Q219.30-13.78 218.60-14.51Q217.90-15.24 216.26-15.24L216.26-15.24Q214.12-15.24 213.05-13.41L213.05-13.41L213.05 0L207.97 0L207.97-19.02ZM227.50-9.44L227.50-9.65Q227.50-14.03 229.58-16.70Q231.66-19.37 235.20-19.37L235.20-19.37Q238.32-19.37 240.06-17.23L240.06-17.23L240.28-19.02L244.88-19.02L244.88-0.63Q244.88 1.86 243.75 3.71Q242.61 5.55 240.56 6.52Q238.50 7.49 235.74 7.49L235.74 7.49Q233.65 7.49 231.66 6.65Q229.68 5.82 228.66 4.50L228.66 4.50L230.91 1.41Q232.80 3.53 235.51 3.53L235.51 3.53Q237.53 3.53 238.66 2.45Q239.78 1.37 239.78-0.62L239.78-0.62L239.78-1.63Q238.03 0.35 235.16 0.35L235.16 0.35Q231.73 0.35 229.61-2.33Q227.50-5.01 227.50-9.44L227.50-9.44ZM232.58-9.28L232.58-9.28Q232.58-6.70 233.61-5.23Q234.65-3.76 236.46-3.76L236.46-3.76Q238.78-3.76 239.78-5.50L239.78-5.50L239.78-13.50Q238.76-15.24 236.50-15.24L236.50-15.24Q234.67-15.24 233.62-13.75Q232.58-12.25 232.58-9.28ZM258.66-13.01L258.66-8.91L248.77-8.91L248.77-13.01L258.66-13.01ZM278.89 0L273.76 0Q273.41-0.69 273.25-1.71L273.25-1.71Q271.41 0.35 268.45 0.35L268.45 0.35Q265.66 0.35 263.82-1.27Q261.98-2.88 261.98-5.34L261.98-5.34Q261.98-8.37 264.23-9.98Q266.47-11.60 270.70-11.62L270.70-11.62L273.04-11.62L273.04-12.71Q273.04-14.03 272.36-14.82Q271.69-15.61 270.23-15.61L270.23-15.61Q268.95-15.61 268.22-14.99Q267.49-14.38 267.49-13.31L267.49-13.31L262.41-13.31Q262.41-14.96 263.43-16.37Q264.45-17.77 266.31-18.57Q268.17-19.37 270.49-19.37L270.49-19.37Q274.01-19.37 276.07-17.60Q278.14-15.84 278.14-12.64L278.14-12.64L278.14-4.39Q278.16-1.69 278.89-0.30L278.89-0.30L278.89 0ZM269.56-3.53L269.56-3.53Q270.69-3.53 271.63-4.03Q272.58-4.54 273.04-5.38L273.04-5.38L273.04-8.65L271.14-8.65Q267.33-8.65 267.08-6.01L267.08-6.01L267.06-5.71Q267.06-4.76 267.73-4.15Q268.40-3.53 269.56-3.53ZM281.30-9.44L281.30-9.65Q281.30-14.03 283.39-16.70Q285.47-19.37 289.00-19.37L289.00-19.37Q292.13-19.37 293.87-17.23L293.87-17.23L294.08-19.02L298.69-19.02L298.69-0.63Q298.69 1.86 297.55 3.71Q296.42 5.55 294.36 6.52Q292.31 7.49 289.55 7.49L289.55 7.49Q287.46 7.49 285.47 6.65Q283.48 5.82 282.46 4.50L282.46 4.50L284.71 1.41Q286.61 3.53 289.32 3.53L289.32 3.53Q291.34 3.53 292.46 2.45Q293.59 1.37 293.59-0.62L293.59-0.62L293.59-1.63Q291.83 0.35 288.97 0.35L288.97 0.35Q285.54 0.35 283.42-2.33Q281.30-5.01 281.30-9.44L281.30-9.44ZM286.38-9.28L286.38-9.28Q286.38-6.70 287.42-5.23Q288.46-3.76 290.27-3.76L290.27-3.76Q292.59-3.76 293.59-5.50L293.59-5.50L293.59-13.50Q292.57-15.24 290.30-15.24L290.30-15.24Q288.47-15.24 287.43-13.75Q286.38-12.25 286.38-9.28ZM311.34 0.35L311.34 0.35Q307.16 0.35 304.53-2.21Q301.90-4.78 301.90-9.05L301.90-9.05L301.90-9.54Q301.90-12.41 303.01-14.67Q304.12-16.93 306.15-18.15Q308.18-19.37 310.78-19.37L310.78-19.37Q314.68-19.37 316.92-16.91Q319.17-14.45 319.17-9.93L319.17-9.93L319.17-7.86L307.05-7.86Q307.30-5.99 308.54-4.87Q309.78-3.74 311.68-3.74L311.68-3.74Q314.61-3.74 316.27-5.87L316.27-5.87L318.76-3.08Q317.62-1.46 315.67-0.55Q313.72 0.35 311.34 0.35ZM310.76-15.26L310.76-15.26Q309.25-15.26 308.31-14.24Q307.37-13.22 307.11-11.32L307.11-11.32L314.17-11.32L314.17-11.72Q314.14-13.41 313.26-14.33Q312.38-15.26 310.76-15.26ZM321.94-19.02L326.72-19.02L326.88-16.82Q328.92-19.37 332.35-19.37L332.35-19.37Q335.37-19.37 336.85-17.60Q338.33-15.82 338.36-12.29L338.36-12.29L338.36 0L333.28 0L333.28-12.16Q333.28-13.78 332.58-14.51Q331.88-15.24 330.24-15.24L330.24-15.24Q328.10-15.24 327.02-13.41L327.02-13.41L327.02 0L321.94 0L321.94-19.02ZM343.21-23.70L348.29-23.70L348.29-19.02L351.54-19.02L351.54-15.29L348.29-15.29L348.29-5.80Q348.29-4.75 348.70-4.29Q349.10-3.83 350.24-3.83L350.24-3.83Q351.09-3.83 351.74-3.96L351.74-3.96L351.74-0.11Q350.24 0.35 348.66 0.35L348.66 0.35Q343.32 0.35 343.21-5.04L343.21-5.04L343.21-15.29L340.44-15.29L340.44-19.02L343.21-19.02L343.21-23.70ZM355.69 6.42L355.69 6.42L353.04 5.03L353.67 3.88Q354.85 1.74 354.88-0.39L354.88-0.39L354.88-4.32L359.17-4.32L359.16-0.81Q359.14 1.14 358.17 3.13Q357.21 5.12 355.69 6.42ZM380.04-3.74L380.04-3.74Q381.45-3.74 382.32-4.52Q383.20-5.29 383.24-6.57L383.24-6.57L388.00-6.57Q387.98-4.64 386.95-3.03Q385.91-1.42 384.11-0.54Q382.31 0.35 380.13 0.35L380.13 0.35Q376.05 0.35 373.69-2.24Q371.34-4.83 371.34-9.40L371.34-9.40L371.34-9.74Q371.34-14.13 373.68-16.75Q376.01-19.37 380.09-19.37L380.09-19.37Q383.66-19.37 385.81-17.34Q387.97-15.31 388.00-11.94L388.00-11.94L383.24-11.94Q383.20-13.41 382.32-14.33Q381.45-15.26 380.00-15.26L380.00-15.26Q378.23-15.26 377.32-13.97Q376.42-12.67 376.42-9.77L376.42-9.77L376.42-9.25Q376.42-6.31 377.31-5.03Q378.21-3.74 380.04-3.74ZM407.06 0L401.92 0Q401.57-0.69 401.41-1.71L401.41-1.71Q399.57 0.35 396.62 0.35L396.62 0.35Q393.82 0.35 391.98-1.27Q390.15-2.88 390.15-5.34L390.15-5.34Q390.15-8.37 392.39-9.98Q394.63-11.60 398.87-11.62L398.87-11.62L401.20-11.62L401.20-12.71Q401.20-14.03 400.53-14.82Q399.85-15.61 398.39-15.61L398.39-15.61Q397.11-15.61 396.38-14.99Q395.65-14.38 395.65-13.31L395.65-13.31L390.57-13.31Q390.57-14.96 391.59-16.37Q392.61-17.77 394.47-18.57Q396.33-19.37 398.65-19.37L398.65-19.37Q402.17-19.37 404.24-17.60Q406.30-15.84 406.30-12.64L406.30-12.64L406.30-4.39Q406.32-1.69 407.06-0.30L407.06-0.30L407.06 0ZM397.72-3.53L397.72-3.53Q398.85-3.53 399.80-4.03Q400.75-4.54 401.20-5.38L401.20-5.38L401.20-8.65L399.30-8.65Q395.49-8.65 395.24-6.01L395.24-6.01L395.23-5.71Q395.23-4.76 395.89-4.15Q396.56-3.53 397.72-3.53ZM410.10-19.02L414.88-19.02L415.04-16.82Q417.08-19.37 420.50-19.37L420.50-19.37Q423.53-19.37 425.00-17.60Q426.48-15.82 426.52-12.29L426.52-12.29L426.52 0L421.44 0L421.44-12.16Q421.44-13.78 420.73-14.51Q420.03-15.24 418.39-15.24L418.39-15.24Q416.25-15.24 415.18-13.41L415.18-13.41L415.18 0L410.10 0L410.10-19.02ZM433.95-19.02L437.48-6.21L441.02-19.02L446.33-19.02L439.91 0L435.06 0L428.64-19.02L433.95-19.02ZM464.71 0L459.58 0Q459.23-0.69 459.07-1.71L459.07-1.71Q457.22 0.35 454.27 0.35L454.27 0.35Q451.48 0.35 449.64-1.27Q447.80-2.88 447.80-5.34L447.80-5.34Q447.80-8.37 450.04-9.98Q452.29-11.60 456.52-11.62L456.52-11.62L458.86-11.62L458.86-12.71Q458.86-14.03 458.18-14.82Q457.51-15.61 456.05-15.61L456.05-15.61Q454.76-15.61 454.03-14.99Q453.30-14.38 453.30-13.31L453.30-13.31L448.22-13.31Q448.22-14.96 449.24-16.37Q450.26-17.77 452.13-18.57Q453.99-19.37 456.31-19.37L456.31-19.37Q459.83-19.37 461.89-17.60Q463.96-15.84 463.96-12.64L463.96-12.64L463.96-4.39Q463.97-1.69 464.71-0.30L464.71-0.30L464.71 0ZM455.38-3.53L455.38-3.53Q456.50-3.53 457.45-4.03Q458.40-4.54 458.86-5.38L458.86-5.38L458.86-8.65L456.96-8.65Q453.15-8.65 452.90-6.01L452.90-6.01L452.88-5.71Q452.88-4.76 453.55-4.15Q454.22-3.53 455.38-3.53ZM478.16-5.26L478.16-5.26Q478.16-6.19 477.24-6.72Q476.31-7.26 474.28-7.68L474.28-7.68Q467.49-9.11 467.49-13.45L467.49-13.45Q467.49-15.98 469.59-17.67Q471.69-19.37 475.08-19.37L475.08-19.37Q478.71-19.37 480.88-17.67Q483.05-15.96 483.05-13.24L483.05-13.24L477.97-13.24Q477.97-14.33 477.26-15.04Q476.56-15.75 475.07-15.75L475.07-15.75Q473.78-15.75 473.08-15.17Q472.38-14.59 472.38-13.69L472.38-13.69Q472.38-12.85 473.18-12.33Q473.98-11.81 475.88-11.43Q477.77-11.06 479.07-10.58L479.07-10.58Q483.10-9.11 483.10-5.47L483.10-5.47Q483.10-2.87 480.87-1.26Q478.63 0.35 475.10 0.35L475.10 0.35Q472.71 0.35 470.86-0.50Q469.00-1.35 467.95-2.84Q466.89-4.32 466.89-6.05L466.89-6.05L471.71-6.05Q471.78-4.69 472.71-3.97Q473.64-3.25 475.21-3.25L475.21-3.25Q476.67-3.25 477.41-3.81Q478.16-4.36 478.16-5.26ZM487.69 6.42L487.69 6.42L485.03 5.03L485.67 3.88Q486.84 1.74 486.88-0.39L486.88-0.39L486.88-4.32L491.17-4.32L491.15-0.81Q491.13 1.14 490.17 3.13Q489.20 5.12 487.69 6.42ZM512.03-3.74L512.03-3.74Q513.44-3.74 514.32-4.52Q515.20-5.29 515.23-6.57L515.23-6.57L520.00-6.57Q519.98-4.64 518.94-3.03Q517.90-1.42 516.10-0.54Q514.30 0.35 512.12 0.35L512.12 0.35Q508.04 0.35 505.69-2.24Q503.33-4.83 503.33-9.40L503.33-9.40L503.33-9.74Q503.33-14.13 505.67-16.75Q508.01-19.37 512.09-19.37L512.09-19.37Q515.65-19.37 517.81-17.34Q519.96-15.31 520.00-11.94L520.00-11.94L515.23-11.94Q515.20-13.41 514.32-14.33Q513.44-15.26 512.00-15.26L512.00-15.26Q510.22-15.26 509.32-13.97Q508.41-12.67 508.41-9.77L508.41-9.77L508.41-9.25Q508.41-6.31 509.31-5.03Q510.21-3.74 512.03-3.74ZM522.11-9.46L522.11-9.69Q522.11-12.52 523.20-14.73Q524.29-16.95 526.33-18.16Q528.38-19.37 531.09-19.37L531.09-19.37Q534.94-19.37 537.37-17.02Q539.81-14.66 540.09-10.62L540.09-10.62L540.12-9.32Q540.12-4.94 537.68-2.29Q535.24 0.35 531.12 0.35Q527.01 0.35 524.56-2.29Q522.11-4.92 522.11-9.46L522.11-9.46ZM527.19-9.32L527.19-9.32Q527.19-6.61 528.21-5.18Q529.22-3.74 531.12-3.74L531.12-3.74Q532.97-3.74 534.01-5.16Q535.04-6.57 535.04-9.69L535.04-9.69Q535.04-12.34 534.01-13.80Q532.97-15.26 531.09-15.26L531.09-15.26Q529.22-15.26 528.21-13.81Q527.19-12.36 527.19-9.32ZM542.46-9.65L542.46-9.65Q542.46-14.10 544.46-16.73Q546.45-19.37 549.91-19.37L549.91-19.37Q552.69-19.37 554.50-17.30L554.50-17.30L554.50-27L559.60-27L559.60 0L555.01 0L554.77-2.02Q552.87 0.35 549.88 0.35L549.88 0.35Q546.52 0.35 544.49-2.29Q542.46-4.94 542.46-9.65ZM547.54-9.28L547.54-9.28Q547.54-6.61 548.47-5.19Q549.40-3.76 551.18-3.76L551.18-3.76Q553.54-3.76 554.50-5.75L554.50-5.75L554.50-13.25Q553.55-15.24 551.21-15.24L551.21-15.24Q547.54-15.24 547.54-9.28ZM572.29 0.35L572.29 0.35Q568.11 0.35 565.48-2.21Q562.85-4.78 562.85-9.05L562.85-9.05L562.85-9.54Q562.85-12.41 563.96-14.67Q565.07-16.93 567.10-18.15Q569.13-19.37 571.73-19.37L571.73-19.37Q575.63-19.37 577.87-16.91Q580.11-14.45 580.11-9.93L580.11-9.93L580.11-7.86L568.00-7.86Q568.25-5.99 569.49-4.87Q570.73-3.74 572.63-3.74L572.63-3.74Q575.56-3.74 577.21-5.87L577.21-5.87L579.71-3.08Q578.57-1.46 576.62-0.55Q574.66 0.35 572.29 0.35ZM571.71-15.26L571.71-15.26Q570.20-15.26 569.26-14.24Q568.32-13.22 568.05-11.32L568.05-11.32L575.12-11.32L575.12-11.72Q575.09-13.41 574.21-14.33Q573.33-15.26 571.71-15.26ZM593.30-5.26L593.30-5.26Q593.30-6.19 592.37-6.72Q591.45-7.26 589.41-7.68L589.41-7.68Q582.63-9.11 582.63-13.45L582.63-13.45Q582.63-15.98 584.73-17.67Q586.83-19.37 590.22-19.37L590.22-19.37Q593.84-19.37 596.01-17.67Q598.18-15.96 598.18-13.24L598.18-13.24L593.10-13.24Q593.10-14.33 592.40-15.04Q591.70-15.75 590.20-15.75L590.20-15.75Q588.92-15.75 588.22-15.17Q587.51-14.59 587.51-13.69L587.51-13.69Q587.51-12.85 588.31-12.33Q589.11-11.81 591.01-11.43Q592.91-11.06 594.21-10.58L594.21-10.58Q598.24-9.11 598.24-5.47L598.24-5.47Q598.24-2.87 596.00-1.26Q593.77 0.35 590.24 0.35L590.24 0.35Q587.85 0.35 585.99-0.50Q584.14-1.35 583.08-2.84Q582.03-4.32 582.03-6.05L582.03-6.05L586.85-6.05Q586.92-4.69 587.85-3.97Q588.78-3.25 590.34-3.25L590.34-3.25Q591.80-3.25 592.55-3.81Q593.30-4.36 593.30-5.26ZM610.26 0.35L610.26 0.35Q606.08 0.35 603.45-2.21Q600.82-4.78 600.82-9.05L600.82-9.05L600.82-9.54Q600.82-12.41 601.93-14.67Q603.04-16.93 605.07-18.15Q607.10-19.37 609.70-19.37L609.70-19.37Q613.60-19.37 615.84-16.91Q618.08-14.45 618.08-9.93L618.08-9.93L618.08-7.86L605.97-7.86Q606.22-5.99 607.46-4.87Q608.70-3.74 610.59-3.74L610.59-3.74Q613.53-3.74 615.18-5.87L615.18-5.87L617.68-3.08Q616.54-1.46 614.58-0.55Q612.63 0.35 610.26 0.35ZM609.68-15.26L609.68-15.26Q608.17-15.26 607.23-14.24Q606.29-13.22 606.02-11.32L606.02-11.32L613.09-11.32L613.09-11.72Q613.05-13.41 612.18-14.33Q611.30-15.26 609.68-15.26ZM631.27-5.26L631.27-5.26Q631.27-6.19 630.34-6.72Q629.42-7.26 627.38-7.68L627.38-7.68Q620.60-9.11 620.60-13.45L620.60-13.45Q620.60-15.98 622.70-17.67Q624.80-19.37 628.19-19.37L628.19-19.37Q631.81-19.37 633.98-17.67Q636.15-15.96 636.15-13.24L636.15-13.24L631.07-13.24Q631.07-14.33 630.37-15.04Q629.67-15.75 628.17-15.75L628.17-15.75Q626.89-15.75 626.19-15.17Q625.48-14.59 625.48-13.69L625.48-13.69Q625.48-12.85 626.28-12.33Q627.08-11.81 628.98-11.43Q630.88-11.06 632.18-10.58L632.18-10.58Q636.21-9.11 636.21-5.47L636.21-5.47Q636.21-2.87 633.97-1.26Q631.74 0.35 628.21 0.35L628.21 0.35Q625.82 0.35 623.96-0.50Q622.11-1.35 621.05-2.84Q620.00-4.32 620.00-6.05L620.00-6.05L624.81-6.05Q624.88-4.69 625.82-3.97Q626.75-3.25 628.31-3.25L628.31-3.25Q629.77-3.25 630.52-3.81Q631.27-4.36 631.27-5.26ZM649.78-5.26L649.78-5.26Q649.78-6.19 648.85-6.72Q647.93-7.26 645.89-7.68L645.89-7.68Q639.11-9.11 639.11-13.45L639.11-13.45Q639.11-15.98 641.21-17.67Q643.31-19.37 646.70-19.37L646.70-19.37Q650.32-19.37 652.49-17.67Q654.66-15.96 654.66-13.24L654.66-13.24L649.58-13.24Q649.58-14.33 648.88-15.04Q648.18-15.75 646.68-15.75L646.68-15.75Q645.40-15.75 644.70-15.17Q643.99-14.59 643.99-13.69L643.99-13.69Q643.99-12.85 644.79-12.33Q645.59-11.81 647.49-11.43Q649.39-11.06 650.69-10.58L650.69-10.58Q654.71-9.11 654.71-5.47L654.71-5.47Q654.71-2.87 652.48-1.26Q650.25 0.35 646.72 0.35L646.72 0.35Q644.33 0.35 642.47-0.50Q640.62-1.35 639.56-2.84Q638.51-4.32 638.51-6.05L638.51-6.05L643.32-6.05Q643.39-4.69 644.33-3.97Q645.26-3.25 646.82-3.25L646.82-3.25Q648.28-3.25 649.03-3.81Q649.78-4.36 649.78-5.26ZM663.35-19.02L663.35 0L658.25 0L658.25-19.02L663.35-19.02ZM657.95-23.94L657.95-23.94Q657.95-25.08 658.71-25.82Q659.48-26.56 660.80-26.56L660.80-26.56Q662.10-26.56 662.87-25.82Q663.64-25.08 663.64-23.94L663.64-23.94Q663.64-22.78 662.86-22.04Q662.08-21.30 660.80-21.30Q659.51-21.30 658.73-22.04Q657.95-22.78 657.95-23.94ZM666.74-9.46L666.74-9.69Q666.74-12.52 667.83-14.73Q668.92-16.95 670.97-18.16Q673.01-19.37 675.72-19.37L675.72-19.37Q679.57-19.37 682.00-17.02Q684.44-14.66 684.72-10.62L684.72-10.62L684.76-9.32Q684.76-4.94 682.31-2.29Q679.87 0.35 675.76 0.35Q671.64 0.35 669.19-2.29Q666.74-4.92 666.74-9.46L666.74-9.46ZM671.82-9.32L671.82-9.32Q671.82-6.61 672.84-5.18Q673.86-3.74 675.76-3.74L675.76-3.74Q677.60-3.74 678.64-5.16Q679.68-6.57 679.68-9.69L679.68-9.69Q679.68-12.34 678.64-13.80Q677.60-15.26 675.72-15.26L675.72-15.26Q673.86-15.26 672.84-13.81Q671.82-12.36 671.82-9.32ZM687.78-19.02L692.56-19.02L692.72-16.82Q694.76-19.37 698.19-19.37L698.19-19.37Q701.21-19.37 702.69-17.60Q704.16-15.82 704.20-12.29L704.20-12.29L704.20 0L699.12 0L699.12-12.16Q699.12-13.78 698.41-14.51Q697.71-15.24 696.08-15.24L696.08-15.24Q693.93-15.24 692.86-13.41L692.86-13.41L692.86 0L687.78 0L687.78-19.02Z" transform="translate(620, 630)" fill="#ffffff" /><circle cx="580" cy="695" r="6" fill="#e94560" /><path d="M17.10-8.53L22.38-8.53Q22.08-4.39 19.33-2.02Q16.58 0.35 12.08 0.35L12.08 0.35Q7.15 0.35 4.33-2.96Q1.51-6.28 1.51-12.06L1.51-12.06L1.51-13.62Q1.51-17.31 2.81-20.13Q4.11-22.94 6.53-24.44Q8.95-25.95 12.15-25.95L12.15-25.95Q16.58-25.95 19.28-23.57Q21.99-21.20 22.41-16.91L22.41-16.91L17.14-16.91Q16.95-19.39 15.76-20.50Q14.57-21.62 12.15-21.62L12.15-21.62Q9.51-21.62 8.20-19.73Q6.89-17.84 6.86-13.87L6.86-13.87L6.86-11.94Q6.86-7.79 8.11-5.87Q9.37-3.96 12.08-3.96L12.08-3.96Q14.52-3.96 15.72-5.07Q16.93-6.19 17.10-8.53L17.10-8.53ZM37.04 0L36.90-1.93Q35.02 0.35 31.69 0.35L31.69 0.35Q28.63 0.35 27.03-1.41Q25.42-3.16 25.38-6.56L25.38-6.56L25.38-19.02L30.46-19.02L30.46-6.73Q30.46-3.76 33.17-3.76L33.17-3.76Q35.75-3.76 36.72-5.55L36.72-5.55L36.72-19.02L41.82-19.02L41.82 0L37.04 0ZM55.95-5.26L55.95-5.26Q55.95-6.19 55.03-6.72Q54.11-7.26 52.07-7.68L52.07-7.68Q45.28-9.11 45.28-13.45L45.28-13.45Q45.28-15.98 47.38-17.67Q49.48-19.37 52.88-19.37L52.88-19.37Q56.50-19.37 58.67-17.67Q60.84-15.96 60.84-13.24L60.84-13.24L55.76-13.24Q55.76-14.33 55.05-15.04Q54.35-15.75 52.86-15.75L52.86-15.75Q51.57-15.75 50.87-15.17Q50.17-14.59 50.17-13.69L50.17-13.69Q50.17-12.85 50.97-12.33Q51.77-11.81 53.67-11.43Q55.56-11.06 56.87-10.58L56.87-10.58Q60.89-9.11 60.89-5.47L60.89-5.47Q60.89-2.87 58.66-1.26Q56.43 0.35 52.89 0.35L52.89 0.35Q50.50 0.35 48.65-0.50Q46.79-1.35 45.74-2.84Q44.68-4.32 44.68-6.05L44.68-6.05L49.50-6.05Q49.57-4.69 50.50-3.97Q51.43-3.25 53.00-3.25L53.00-3.25Q54.46-3.25 55.20-3.81Q55.95-4.36 55.95-5.26ZM65.16-23.70L70.24-23.70L70.24-19.02L73.49-19.02L73.49-15.29L70.24-15.29L70.24-5.80Q70.24-4.75 70.65-4.29Q71.05-3.83 72.19-3.83L72.19-3.83Q73.04-3.83 73.69-3.96L73.69-3.96L73.69-0.11Q72.19 0.35 70.61 0.35L70.61 0.35Q65.27 0.35 65.16-5.04L65.16-5.04L65.16-15.29L62.38-15.29L62.38-19.02L65.16-19.02L65.16-23.70ZM75.53-9.46L75.53-9.69Q75.53-12.52 76.62-14.73Q77.71-16.95 79.76-18.16Q81.81-19.37 84.52-19.37L84.52-19.37Q88.37-19.37 90.80-17.02Q93.23-14.66 93.52-10.62L93.52-10.62L93.55-9.32Q93.55-4.94 91.11-2.29Q88.66 0.35 84.55 0.35Q80.44 0.35 77.99-2.29Q75.53-4.92 75.53-9.46L75.53-9.46ZM80.61-9.32L80.61-9.32Q80.61-6.61 81.63-5.18Q82.65-3.74 84.55-3.74L84.55-3.74Q86.40-3.74 87.43-5.16Q88.47-6.57 88.47-9.69L88.47-9.69Q88.47-12.34 87.43-13.80Q86.40-15.26 84.52-15.26L84.52-15.26Q82.65-15.26 81.63-13.81Q80.61-12.36 80.61-9.32ZM96.68-19.02L101.44-19.02L101.60-16.89Q103.62-19.37 107.07-19.37L107.07-19.37Q110.74-19.37 112.11-16.47L112.11-16.47Q114.12-19.37 117.83-19.37L117.83-19.37Q120.92-19.37 122.43-17.57Q123.94-15.77 123.94-12.15L123.94-12.15L123.94 0L118.85 0L118.85-12.13Q118.85-13.75 118.21-14.49Q117.58-15.24 115.98-15.24L115.98-15.24Q113.70-15.24 112.82-13.06L112.82-13.06L112.83 0L107.75 0L107.75-12.11Q107.75-13.76 107.10-14.50Q106.45-15.24 104.89-15.24L104.89-15.24Q102.73-15.24 101.76-13.45L101.76-13.45L101.76 0L96.68 0L96.68-19.02ZM147.11-5.26L147.11-5.26Q147.11-6.19 146.19-6.72Q145.27-7.26 143.23-7.68L143.23-7.68Q136.44-9.11 136.44-13.45L136.44-13.45Q136.44-15.98 138.54-17.67Q140.64-19.37 144.04-19.37L144.04-19.37Q147.66-19.37 149.83-17.67Q152.00-15.96 152.00-13.24L152.00-13.24L146.92-13.24Q146.92-14.33 146.21-15.04Q145.51-15.75 144.02-15.75L144.02-15.75Q142.73-15.75 142.03-15.17Q141.33-14.59 141.33-13.69L141.33-13.69Q141.33-12.85 142.13-12.33Q142.93-11.81 144.83-11.43Q146.72-11.06 148.03-10.58L148.03-10.58Q152.05-9.11 152.05-5.47L152.05-5.47Q152.05-2.87 149.82-1.26Q147.59 0.35 144.05 0.35L144.05 0.35Q141.66 0.35 139.81-0.50Q137.95-1.35 136.90-2.84Q135.84-4.32 135.84-6.05L135.84-6.05L140.66-6.05Q140.73-4.69 141.66-3.97Q142.59-3.25 144.16-3.25L144.16-3.25Q145.62-3.25 146.36-3.81Q147.11-4.36 147.11-5.26ZM167.12 0L162.23-7.63L160.40-5.80L160.40 0L155.32 0L155.32-27L160.40-27L160.40-12.04L161.38-13.31L166.25-19.02L172.35-19.02L165.48-11.09L172.95 0L167.12 0ZM179.91-19.02L179.91 0L174.81 0L174.81-19.02L179.91-19.02ZM174.52-23.94L174.52-23.94Q174.52-25.08 175.28-25.82Q176.04-26.56 177.36-26.56L177.36-26.56Q178.66-26.56 179.44-25.82Q180.21-25.08 180.21-23.94L180.21-23.94Q180.21-22.78 179.43-22.04Q178.65-21.30 177.36-21.30Q176.08-21.30 175.30-22.04Q174.52-22.78 174.52-23.94ZM189.46-27L189.46 0L184.36 0L184.36-27L189.46-27ZM199.00-27L199.00 0L193.90 0L193.90-27L199.00-27ZM213.49-5.26L213.49-5.26Q213.49-6.19 212.56-6.72Q211.64-7.26 209.60-7.68L209.60-7.68Q202.82-9.11 202.82-13.45L202.82-13.45Q202.82-15.98 204.92-17.67Q207.02-19.37 210.41-19.37L210.41-19.37Q214.03-19.37 216.20-17.67Q218.37-15.96 218.37-13.24L218.37-13.24L213.29-13.24Q213.29-14.33 212.59-15.04Q211.89-15.75 210.39-15.75L210.39-15.75Q209.11-15.75 208.41-15.17Q207.70-14.59 207.70-13.69L207.70-13.69Q207.70-12.85 208.50-12.33Q209.30-11.81 211.20-11.43Q213.10-11.06 214.40-10.58L214.40-10.58Q218.43-9.11 218.43-5.47L218.43-5.47Q218.43-2.87 216.19-1.26Q213.96 0.35 210.43 0.35L210.43 0.35Q208.04 0.35 206.18-0.50Q204.33-1.35 203.27-2.84Q202.22-4.32 202.22-6.05L202.22-6.05L207.04-6.05Q207.11-4.69 208.04-3.97Q208.97-3.25 210.53-3.25L210.53-3.25Q211.99-3.25 212.74-3.81Q213.49-4.36 213.49-5.26ZM246.81 0L241.68 0Q241.33-0.69 241.17-1.71L241.17-1.71Q239.33 0.35 236.37 0.35L236.37 0.35Q233.58 0.35 231.74-1.27Q229.90-2.88 229.90-5.34L229.90-5.34Q229.90-8.37 232.15-9.98Q234.39-11.60 238.62-11.62L238.62-11.62L240.96-11.62L240.96-12.71Q240.96-14.03 240.28-14.82Q239.61-15.61 238.15-15.61L238.15-15.61Q236.87-15.61 236.14-14.99Q235.41-14.38 235.41-13.31L235.41-13.31L230.33-13.31Q230.33-14.96 231.35-16.37Q232.37-17.77 234.23-18.57Q236.09-19.37 238.41-19.37L238.41-19.37Q241.93-19.37 243.99-17.60Q246.06-15.84 246.06-12.64L246.06-12.64L246.06-4.39Q246.08-1.69 246.81-0.30L246.81-0.30L246.81 0ZM237.48-3.53L237.48-3.53Q238.61-3.53 239.55-4.03Q240.50-4.54 240.96-5.38L240.96-5.38L240.96-8.65L239.06-8.65Q235.25-8.65 235.00-6.01L235.00-6.01L234.98-5.71Q234.98-4.76 235.65-4.15Q236.32-3.53 237.48-3.53ZM253.55-19.02L257.08-6.21L260.61-19.02L265.92-19.02L259.51 0L254.65 0L248.24-19.02L253.55-19.02ZM284.31 0L279.18 0Q278.82-0.69 278.67-1.71L278.67-1.71Q276.82 0.35 273.87 0.35L273.87 0.35Q271.07 0.35 269.24-1.27Q267.40-2.88 267.40-5.34L267.40-5.34Q267.40-8.37 269.64-9.98Q271.88-11.60 276.12-11.62L276.12-11.62L278.46-11.62L278.46-12.71Q278.46-14.03 277.78-14.82Q277.10-15.61 275.64-15.61L275.64-15.61Q274.36-15.61 273.63-14.99Q272.90-14.38 272.90-13.31L272.90-13.31L267.82-13.31Q267.82-14.96 268.84-16.37Q269.86-17.77 271.72-18.57Q273.59-19.37 275.91-19.37L275.91-19.37Q279.42-19.37 281.49-17.60Q283.55-15.84 283.55-12.64L283.55-12.64L283.55-4.39Q283.57-1.69 284.31-0.30L284.31-0.30L284.31 0ZM274.97-3.53L274.97-3.53Q276.10-3.53 277.05-4.03Q278.00-4.54 278.46-5.38L278.46-5.38L278.46-8.65L276.56-8.65Q272.74-8.65 272.50-6.01L272.50-6.01L272.48-5.71Q272.48-4.76 273.15-4.15Q273.81-3.53 274.97-3.53ZM292.82-19.02L292.82 0L287.72 0L287.72-19.02L292.82-19.02ZM287.42-23.94L287.42-23.94Q287.42-25.08 288.18-25.82Q288.95-26.56 290.27-26.56L290.27-26.56Q291.57-26.56 292.34-25.82Q293.12-25.08 293.12-23.94L293.12-23.94Q293.12-22.78 292.33-22.04Q291.55-21.30 290.27-21.30Q288.98-21.30 288.20-22.04Q287.42-22.78 287.42-23.94ZM302.36-27L302.36 0L297.26 0L297.26-27L302.36-27ZM322.70 0L317.57 0Q317.21-0.69 317.06-1.71L317.06-1.71Q315.21 0.35 312.26 0.35L312.26 0.35Q309.46 0.35 307.63-1.27Q305.79-2.88 305.79-5.34L305.79-5.34Q305.79-8.37 308.03-9.98Q310.27-11.60 314.51-11.62L314.51-11.62L316.85-11.62L316.85-12.71Q316.85-14.03 316.17-14.82Q315.49-15.61 314.03-15.61L314.03-15.61Q312.75-15.61 312.02-14.99Q311.29-14.38 311.29-13.31L311.29-13.31L306.21-13.31Q306.21-14.96 307.23-16.37Q308.25-17.77 310.11-18.57Q311.98-19.37 314.30-19.37L314.30-19.37Q317.81-19.37 319.88-17.60Q321.94-15.84 321.94-12.64L321.94-12.64L321.94-4.39Q321.96-1.69 322.70-0.30L322.70-0.30L322.70 0ZM313.37-3.53L313.37-3.53Q314.49-3.53 315.44-4.03Q316.39-4.54 316.85-5.38L316.85-5.38L316.85-8.65L314.95-8.65Q311.13-8.65 310.89-6.01L310.89-6.01L310.87-5.71Q310.87-4.76 311.54-4.15Q312.21-3.53 313.37-3.53ZM342.98-9.62L342.98-9.33Q342.98-4.76 341.03-2.21Q339.08 0.35 335.58 0.35L335.58 0.35Q332.49 0.35 330.64-2.02L330.64-2.02L330.42 0L325.85 0L325.85-27L330.93-27L330.93-17.31Q332.68-19.37 335.55-19.37L335.55-19.37Q339.03-19.37 341.01-16.81Q342.98-14.26 342.98-9.62L342.98-9.62ZM337.90-9.70L337.90-9.70Q337.90-12.59 336.99-13.91Q336.08-15.24 334.27-15.24L334.27-15.24Q331.84-15.24 330.93-13.25L330.93-13.25L330.93-5.75Q331.86-3.74 334.30-3.74L334.30-3.74Q336.76-3.74 337.54-6.17L337.54-6.17Q337.90-7.33 337.90-9.70ZM351.47-27L351.47 0L346.38 0L346.38-27L351.47-27ZM364.41 0.35L364.41 0.35Q360.23 0.35 357.60-2.21Q354.97-4.78 354.97-9.05L354.97-9.05L354.97-9.54Q354.97-12.41 356.08-14.67Q357.19-16.93 359.22-18.15Q361.25-19.37 363.85-19.37L363.85-19.37Q367.75-19.37 369.99-16.91Q372.23-14.45 372.23-9.93L372.23-9.93L372.23-7.86L360.12-7.86Q360.37-5.99 361.61-4.87Q362.85-3.74 364.75-3.74L364.75-3.74Q367.68-3.74 369.33-5.87L369.33-5.87L371.83-3.08Q370.69-1.46 368.74-0.55Q366.79 0.35 364.41 0.35ZM363.83-15.26L363.83-15.26Q362.32-15.26 361.38-14.24Q360.44-13.22 360.18-11.32L360.18-11.32L367.24-11.32L367.24-11.72Q367.21-13.41 366.33-14.33Q365.45-15.26 363.83-15.26Z" transform="translate(620, 695)" fill="#ffffff" />
  <text x="960" y="1040" font-family="Arial, sans-serif" font-size="20" fill="#666" text-anchor="middle">OpenClaw Documentation</text>
</svg>