<?xml version="1.0" encoding="UTF-8"?>
<svg width="1920" height="1080" xmlns="http://www.w3.org/2000/svg">
  <defs>
    <linearGradient id="bg" x1="0%" y1="0%" x2="100%" y2="100%">
      <stop offset="0%" style="stop-color:#1a1a2e;stop-opacity:1" />
      <stop offset="100%" style="stop-color:#000008;stop-opacity:1" />
    </linearGradient>
    <linearGradient id="accent" x1="0%" y1="0%" x2="100%" y2="0%">
      <stop offset="0%" style="stop-color:#e94560;stop-opacity:1" />
      <stop offset="100%" style="stop-color:#ff92ad;stop-opacity:1" />
    </linearGradient>
    <filter id="glow">
      <feGaussianBlur stdDeviation="3" result="coloredBlur"/>
      <feMerge><feMergeNode in="coloredBlur"/><feMergeNode in="SourceGraphic"/></feMerge>
    </filter>
  </defs>
  <rect width="100%" height="100%" fill="url(#bg)"/>
  <circle cx="1920" cy="0" r="700" fill="#e94560" opacity="0.08"/>
  <circle cx="0" cy="1080" r="500" fill="#ff92ad" opacity="0.06"/>
  <rect width="1920" height="6" fill="url(#accent)"/>
  <path d="M19.95-9.95L26.11-9.95Q25.76-5.13 22.55-2.36Q19.34 0.41 14.09 0.41L14.09 0.41Q8.35 0.41 5.06-3.46Q1.76-7.32 1.76-14.07L1.76-14.07L1.76-15.89Q1.76-20.20 3.28-23.48Q4.80-26.76 7.62-28.52Q10.44-30.27 14.17-30.27L14.17-30.27Q19.34-30.27 22.50-27.50Q25.66-24.73 26.15-19.73L26.15-19.73L20.00-19.73Q19.77-22.62 18.39-23.92Q17.00-25.22 14.17-25.22L14.17-25.22Q11.09-25.22 9.57-23.02Q8.04-20.82 8.00-16.18L8.00-16.18L8.00-13.92Q8.00-9.08 9.46-6.85Q10.93-4.61 14.09-4.61L14.09-4.61Q16.94-4.61 18.34-5.92Q19.75-7.22 19.95-9.95L19.95-9.95ZM35.54-31.50L35.54-19.77Q37.90-22.60 41.47-22.60L41.47-22.60Q48.69-22.60 48.79-14.21L48.79-14.21L48.79 0L42.86 0L42.86-14.05Q42.86-15.96 42.04-16.87Q41.22-17.78 39.31-17.78L39.31-17.78Q36.71-17.78 35.54-15.77L35.54-15.77L35.54 0L29.61 0L29.61-31.50L35.54-31.50ZM72.11 0L66.12 0Q65.71-0.80 65.52-1.99L65.52-1.99Q63.37 0.41 59.92 0.41L59.92 0.41Q56.66 0.41 54.52-1.48Q52.38-3.36 52.38-6.23L52.38-6.23Q52.38-9.76 54.99-11.65Q57.61-13.54 62.55-13.56L62.55-13.56L65.28-13.56L65.28-14.83Q65.28-16.37 64.49-17.29Q63.70-18.21 62.00-18.21L62.00-18.21Q60.50-18.21 59.65-17.49Q58.80-16.78 58.80-15.52L58.80-15.52L52.87-15.52Q52.87-17.45 54.06-19.09Q55.25-20.73 57.42-21.67Q59.60-22.60 62.30-22.60L62.30-22.60Q66.40-22.60 68.81-20.54Q71.22-18.48 71.22-14.75L71.22-14.75L71.22-5.13Q71.24-1.97 72.11-0.35L72.11-0.35L72.11 0ZM61.22-4.12L61.22-4.12Q62.53-4.12 63.64-4.71Q64.74-5.29 65.28-6.28L65.28-6.28L65.28-10.09L63.06-10.09Q58.61-10.09 58.32-7.01L58.32-7.01L58.30-6.67Q58.30-5.56 59.08-4.84Q59.86-4.12 61.22-4.12ZM75.65-22.19L81.23-22.19L81.42-19.63Q83.79-22.60 87.79-22.60L87.79-22.60Q91.32-22.60 93.04-20.53Q94.77-18.46 94.81-14.33L94.81-14.33L94.81 0L88.88 0L88.88-14.19Q88.88-16.08 88.06-16.93Q87.24-17.78 85.33-17.78L85.33-17.78Q82.83-17.78 81.58-15.65L81.58-15.65L81.58 0L75.65 0L75.65-22.19ZM116.98-9.95L123.13-9.95Q122.78-5.13 119.57-2.36Q116.36 0.41 111.11 0.41L111.11 0.41Q105.37 0.41 102.08-3.46Q98.79-7.32 98.79-14.07L98.79-14.07L98.79-15.89Q98.79-20.20 100.30-23.48Q101.82-26.76 104.64-28.52Q107.46-30.27 111.19-30.27L111.19-30.27Q116.36-30.27 119.52-27.50Q122.68-24.73 123.17-19.73L123.17-19.73L117.02-19.73Q116.79-22.62 115.41-23.92Q114.02-25.22 111.19-25.22L111.19-25.22Q108.12-25.22 106.59-23.02Q105.06-20.82 105.02-16.18L105.02-16.18L105.02-13.92Q105.02-9.08 106.49-6.85Q107.95-4.61 111.11-4.61L111.11-4.61Q113.96-4.61 115.37-5.92Q116.77-7.22 116.98-9.95L116.98-9.95ZM133.03-31.50L133.03 0L127.09 0L127.09-31.50L133.03-31.50ZM156.76 0L150.77 0Q150.36-0.80 150.18-1.99L150.18-1.99Q148.03 0.41 144.58 0.41L144.58 0.41Q141.32 0.41 139.18-1.48Q137.03-3.36 137.03-6.23L137.03-6.23Q137.03-9.76 139.65-11.65Q142.26-13.54 147.21-13.56L147.21-13.56L149.93-13.56L149.93-14.83Q149.93-16.37 149.14-17.29Q148.35-18.21 146.65-18.21L146.65-18.21Q145.15-18.21 144.30-17.49Q143.45-16.78 143.45-15.52L143.45-15.52L137.53-15.52Q137.53-17.45 138.71-19.09Q139.90-20.73 142.08-21.67Q144.25-22.60 146.96-22.60L146.96-22.60Q151.06-22.60 153.47-20.54Q155.88-18.48 155.88-14.75L155.88-14.75L155.88-5.13Q155.90-1.97 156.76-0.35L156.76-0.35L156.76 0ZM145.87-4.12L145.87-4.12Q147.18-4.12 148.29-4.71Q149.40-5.29 149.93-6.28L149.93-6.28L149.93-10.09L147.72-10.09Q143.27-10.09 142.98-7.01L142.98-7.01L142.96-6.67Q142.96-5.56 143.74-4.84Q144.52-4.12 145.87-4.12ZM175.69-22.19L179.73-8.06L182.64-22.19L188.36-22.19L182.70 0L177.74 0L173.54-13.97L169.33 0L164.39 0L158.73-22.19L164.45-22.19L167.34-8.08L171.40-22.19L175.69-22.19Z" transform="translate(50, 70)" fill="#e94560" />
  <text x="1870" y="70" font-family="Arial, sans-serif" font-size="24" fill="#888" text-anchor="end">1 / 10</text>
  <path d="M34.21-17.05L44.75-17.05Q44.16-8.79 38.65-4.04Q33.15 0.70 24.15 0.70L24.15 0.70Q14.31 0.70 8.67-5.92Q3.02-12.55 3.02-24.12L3.02-24.12L3.02-27.25Q3.02-34.63 5.63-40.25Q8.23-45.88 13.06-48.88Q17.89-51.89 24.29-51.89L24.29-51.89Q33.15-51.89 38.57-47.14Q43.98-42.40 44.82-33.82L44.82-33.82L34.28-33.82Q33.89-38.78 31.52-41.01Q29.14-43.24 24.29-43.24L24.29-43.24Q19.02-43.24 16.40-39.46Q13.78-35.68 13.71-27.74L13.71-27.74L13.71-23.87Q13.71-15.57 16.22-11.74Q18.74-7.91 24.15-7.91L24.15-7.91Q29.04-7.91 31.45-10.14Q33.86-12.38 34.21-17.05L34.21-17.05ZM60.93-54L60.93-33.89Q64.97-38.74 71.09-38.74L71.09-38.74Q83.46-38.74 83.64-24.36L83.64-24.36L83.64 0L73.48 0L73.48-24.08Q73.48-27.35 72.07-28.92Q70.66-30.48 67.39-30.48L67.39-30.48Q62.93-30.48 60.93-27.04L60.93-27.04L60.93 0L50.77 0L50.77-54L60.93-54ZM123.61 0L113.34 0Q112.64-1.37 112.32-3.41L112.32-3.41Q108.63 0.70 102.73 0.70L102.73 0.70Q97.14 0.70 93.46-2.53Q89.79-5.77 89.79-10.69L89.79-10.69Q89.79-16.73 94.27-19.97Q98.75-23.20 107.23-23.24L107.23-23.24L111.90-23.24L111.90-25.42Q111.90-28.05 110.55-29.64Q109.20-31.22 106.28-31.22L106.28-31.22Q103.71-31.22 102.25-29.99Q100.79-28.76 100.79-26.61L100.79-26.61L90.63-26.61Q90.63-29.92 92.67-32.73Q94.71-35.54 98.44-37.14Q102.16-38.74 106.80-38.74L106.80-38.74Q113.84-38.74 117.97-35.21Q122.10-31.68 122.10-25.28L122.10-25.28L122.10-8.79Q122.13-3.38 123.61-0.60L123.61-0.60L123.61 0ZM104.94-7.07L104.94-7.07Q107.19-7.07 109.09-8.07Q110.99-9.07 111.90-10.76L111.90-10.76L111.90-17.30L108.11-17.30Q100.48-17.30 99.98-12.02L99.98-12.02L99.95-11.43Q99.95-9.53 101.29-8.30Q102.62-7.07 104.94-7.07ZM129.69-38.04L139.25-38.04L139.57-33.64Q143.65-38.74 150.50-38.74L150.50-38.74Q156.55-38.74 159.50-35.19Q162.46-31.64 162.53-24.57L162.53-24.57L162.53 0L152.37 0L152.37-24.33Q152.37-27.56 150.96-29.02Q149.55-30.48 146.29-30.48L146.29-30.48Q142.00-30.48 139.85-26.82L139.85-26.82L139.85 0L129.69 0L129.69-38.04ZM200.53-17.05L211.08-17.05Q210.48-8.79 204.98-4.04Q199.48 0.70 190.48 0.70L190.48 0.70Q180.63 0.70 174.99-5.92Q169.35-12.55 169.35-24.12L169.35-24.12L169.35-27.25Q169.35-34.63 171.95-40.25Q174.55-45.88 179.38-48.88Q184.22-51.89 190.62-51.89L190.62-51.89Q199.48-51.89 204.89-47.14Q210.30-42.40 211.15-33.82L211.15-33.82L200.60-33.82Q200.21-38.78 197.84-41.01Q195.47-43.24 190.62-43.24L190.62-43.24Q185.34-43.24 182.72-39.46Q180.11-35.68 180.04-27.74L180.04-27.74L180.04-23.87Q180.04-15.57 182.55-11.74Q185.06-7.91 190.48-7.91L190.48-7.91Q195.36-7.91 197.77-10.14Q200.18-12.38 200.53-17.05L200.53-17.05ZM228.06-54L228.06 0L217.86 0L217.86-54L228.06-54ZM268.73 0L258.47 0Q257.77-1.37 257.45-3.41L257.45-3.41Q253.76 0.70 247.85 0.70L247.85 0.70Q242.26 0.70 238.59-2.53Q234.91-5.77 234.91-10.69L234.91-10.69Q234.91-16.73 239.40-19.97Q243.88-23.20 252.35-23.24L252.35-23.24L257.03-23.24L257.03-25.42Q257.03-28.05 255.67-29.64Q254.32-31.22 251.40-31.22L251.40-31.22Q248.84-31.22 247.38-29.99Q245.92-28.76 245.92-26.61L245.92-26.61L235.76-26.61Q235.76-29.92 237.80-32.73Q239.84-35.54 243.56-37.14Q247.29-38.74 251.93-38.74L251.93-38.74Q258.96-38.74 263.09-35.21Q267.22-31.68 267.22-25.28L267.22-25.28L267.22-8.79Q267.26-3.38 268.73-0.60L268.73-0.60L268.73 0ZM250.07-7.07L250.07-7.07Q252.32-7.07 254.21-8.07Q256.11-9.07 257.03-10.76L257.03-10.76L257.03-17.30L253.23-17.30Q245.60-17.30 245.11-12.02L245.11-12.02L245.07-11.43Q245.07-9.53 246.41-8.30Q247.75-7.07 250.07-7.07ZM301.18-38.04L308.11-13.82L313.10-38.04L322.91-38.04L313.21 0L304.70 0L297.49-23.94L290.29 0L281.81 0L272.11-38.04L281.92-38.04L286.88-13.85L293.84-38.04L301.18-38.04Z" transform="translate(797.982421875, 380)" fill="#ffffff" />
  <line x1="760" y1="430" x2="1160" y2="430" stroke="#e94560" stroke-width="4"/>
  <circle cx="580" cy="500" r="6" fill="#e94560" /><path d="M5.82-25.59L11.11-14.06L16.44-25.59L22.20-25.59L13.80-9.28L13.80 0L8.44 0L8.44-9.28L0.04-25.59L5.82-25.59ZM23.41-9.46L23.41-9.69Q23.41-12.52 24.50-14.73Q25.59-16.95 27.64-18.16Q29.69-19.37 32.40-19.37L32.40-19.37Q36.25-19.37 38.68-17.02Q41.12-14.66 41.40-10.62L41.40-10.62L41.43-9.32Q41.43-4.94 38.99-2.29Q36.54 0.35 32.43 0.35Q28.32 0.35 25.87-2.29Q23.41-4.92 23.41-9.46L23.41-9.46ZM28.49-9.32L28.49-9.32Q28.49-6.61 29.51-5.18Q30.53-3.74 32.43-3.74L32.43-3.74Q34.28-3.74 35.31-5.16Q36.35-6.57 36.35-9.69L36.35-9.69Q36.35-12.34 35.31-13.80Q34.28-15.26 32.40-15.26L32.40-15.26Q30.53-15.26 29.51-13.81Q28.49-12.36 28.49-9.32ZM56.09 0L55.95-1.93Q54.07 0.35 50.75 0.35L50.75 0.35Q47.69 0.35 46.08-1.41Q44.47-3.16 44.44-6.56L44.44-6.56L44.44-19.02L49.52-19.02L49.52-6.73Q49.52-3.76 52.22-3.76L52.22-3.76Q54.81-3.76 55.78-5.55L55.78-5.55L55.78-19.02L60.87-19.02L60.87 0L56.09 0ZM75.46-19.14L75.39-14.26Q74.36-14.40 73.56-14.40L73.56-14.40Q70.68-14.40 69.79-12.45L69.79-12.45L69.79 0L64.71 0L64.71-19.02L69.50-19.02L69.64-16.75Q71.17-19.37 73.88-19.37L73.88-19.37Q74.72-19.37 75.46-19.14L75.46-19.14ZM103.36 0L101.58-5.27L92.34-5.27L90.58 0L84.97 0L94.50-25.59L99.39-25.59L108.97 0L103.36 0ZM96.94-19.13L93.76-9.54L100.16-9.54L96.94-19.13ZM116.96-25.59L116.96 0L111.69 0L111.69-25.59L116.96-25.59ZM131.40-13.01L131.40-8.91L121.50-8.91L121.50-13.01L131.40-13.01ZM145.71-9.02L141.08-9.02L141.08 0L135.81 0L135.81-25.59L145.79-25.59Q148.68-25.59 150.86-24.54Q153.05-23.48 154.23-21.54Q155.41-19.60 155.41-17.12L155.41-17.12Q155.41-13.36 152.83-11.19Q150.26-9.02 145.71-9.02L145.71-9.02ZM141.08-21.32L141.08-13.29L145.79-13.29Q147.88-13.29 148.98-14.27Q150.08-15.26 150.08-17.09L150.08-17.09Q150.08-18.97 148.97-20.13Q147.87-21.29 145.92-21.32L145.92-21.32L141.08-21.32ZM157.90-9.46L157.90-9.69Q157.90-12.52 158.99-14.73Q160.08-16.95 162.13-18.16Q164.18-19.37 166.89-19.37L166.89-19.37Q170.74-19.37 173.17-17.02Q175.61-14.66 175.89-10.62L175.89-10.62L175.92-9.32Q175.92-4.94 173.48-2.29Q171.04 0.35 166.92 0.35Q162.81 0.35 160.36-2.29Q157.90-4.92 157.90-9.46L157.90-9.46ZM162.98-9.32L162.98-9.32Q162.98-6.61 164.00-5.18Q165.02-3.74 166.92-3.74L166.92-3.74Q168.77-3.74 169.80-5.16Q170.84-6.57 170.84-9.69L170.84-9.69Q170.84-12.34 169.80-13.80Q168.77-15.26 166.89-15.26L166.89-15.26Q165.02-15.26 164.00-13.81Q162.98-12.36 162.98-9.32ZM192.13-19.02L195.59-6.91L198.09-19.02L202.99-19.02L198.14 0L193.89 0L190.28-11.97L186.68 0L182.44 0L177.59-19.02L182.50-19.02L184.97-6.93L188.46-19.02L192.13-19.02ZM214.26 0.35L214.26 0.35Q210.08 0.35 207.45-2.21Q204.82-4.78 204.82-9.05L204.82-9.05L204.82-9.54Q204.82-12.41 205.93-14.67Q207.04-16.93 209.07-18.15Q211.10-19.37 213.70-19.37L213.70-19.37Q217.60-19.37 219.84-16.91Q222.08-14.45 222.08-9.93L222.08-9.93L222.08-7.86L209.97-7.86Q210.22-5.99 211.46-4.87Q212.70-3.74 214.59-3.74L214.59-3.74Q217.53-3.74 219.18-5.87L219.18-5.87L221.68-3.08Q220.54-1.46 218.58-0.55Q216.63 0.35 214.26 0.35ZM213.68-15.26L213.68-15.26Q212.17-15.26 211.23-14.24Q210.29-13.22 210.02-11.32L210.02-11.32L217.09-11.32L217.09-11.72Q217.05-13.41 216.18-14.33Q215.30-15.26 213.68-15.26ZM235.72-19.14L235.65-14.26Q234.62-14.40 233.82-14.40L233.82-14.40Q230.94-14.40 230.04-12.45L230.04-12.45L230.04 0L224.96 0L224.96-19.02L229.76-19.02L229.90-16.75Q231.43-19.37 234.14-19.37L234.14-19.37Q234.98-19.37 235.72-19.14L235.72-19.14ZM246.85 0.35L246.85 0.35Q242.67 0.35 240.04-2.21Q237.41-4.78 237.41-9.05L237.41-9.05L237.41-9.54Q237.41-12.41 238.52-14.67Q239.63-16.93 241.66-18.15Q243.69-19.37 246.29-19.37L246.29-19.37Q250.19-19.37 252.43-16.91Q254.67-14.45 254.67-9.93L254.67-9.93L254.67-7.86L242.56-7.86Q242.81-5.99 244.05-4.87Q245.29-3.74 247.18-3.74L247.18-3.74Q250.12-3.74 251.77-5.87L251.77-5.87L254.27-3.08Q253.13-1.46 251.17-0.55Q249.22 0.35 246.85 0.35ZM246.27-15.26L246.27-15.26Q244.76-15.26 243.82-14.24Q242.88-13.22 242.61-11.32L242.61-11.32L249.68-11.32L249.68-11.72Q249.64-13.41 248.77-14.33Q247.89-15.26 246.27-15.26ZM256.76-9.65L256.76-9.65Q256.76-14.10 258.76-16.73Q260.75-19.37 264.22-19.37L264.22-19.37Q266.99-19.37 268.80-17.30L268.80-17.30L268.80-27L273.90-27L273.90 0L269.31 0L269.07-2.02Q267.17 0.35 264.18 0.35L264.18 0.35Q260.82 0.35 258.79-2.29Q256.76-4.94 256.76-9.65ZM261.84-9.28L261.84-9.28Q261.84-6.61 262.78-5.19Q263.71-3.76 265.48-3.76L265.48-3.76Q267.84-3.76 268.80-5.75L268.80-5.75L268.80-13.25Q267.86-15.24 265.52-15.24L265.52-15.24Q261.84-15.24 261.84-9.28ZM297.04-9.02L292.41-9.02L292.41 0L287.14 0L287.14-25.59L297.12-25.59Q300.01-25.59 302.19-24.54Q304.38-23.48 305.56-21.54Q306.74-19.60 306.74-17.12L306.74-17.12Q306.74-13.36 304.16-11.19Q301.59-9.02 297.04-9.02L297.04-9.02ZM292.41-21.32L292.41-13.29L297.12-13.29Q299.21-13.29 300.31-14.27Q301.41-15.26 301.41-17.09L301.41-17.09Q301.41-18.97 300.30-20.13Q299.20-21.29 297.25-21.32L297.25-21.32L292.41-21.32ZM318.78 0.35L318.78 0.35Q314.60 0.35 311.97-2.21Q309.34-4.78 309.34-9.05L309.34-9.05L309.34-9.54Q309.34-12.41 310.45-14.67Q311.55-16.93 313.58-18.15Q315.62-19.37 318.22-19.37L318.22-19.37Q322.12-19.37 324.36-16.91Q326.60-14.45 326.60-9.93L326.60-9.93L326.60-7.86L314.49-7.86Q314.74-5.99 315.98-4.87Q317.21-3.74 319.11-3.74L319.11-3.74Q322.05-3.74 323.70-5.87L323.70-5.87L326.20-3.08Q325.05-1.46 323.10-0.55Q321.15 0.35 318.78 0.35ZM318.20-15.26L318.20-15.26Q316.69-15.26 315.75-14.24Q314.81-13.22 314.54-11.32L314.54-11.32L321.61-11.32L321.61-11.72Q321.57-13.41 320.70-14.33Q319.82-15.26 318.20-15.26ZM340.24-19.14L340.17-14.26Q339.13-14.40 338.34-14.40L338.34-14.40Q335.46-14.40 334.56-12.45L334.56-12.45L334.56 0L329.48 0L329.48-19.02L334.28-19.02L334.42-16.75Q335.95-19.37 338.66-19.37L338.66-19.37Q339.50-19.37 340.24-19.14L340.24-19.14ZM352.92-5.26L352.92-5.26Q352.92-6.19 351.99-6.72Q351.07-7.26 349.03-7.68L349.03-7.68Q342.25-9.11 342.25-13.45L342.25-13.45Q342.25-15.98 344.35-17.67Q346.45-19.37 349.84-19.37L349.84-19.37Q353.46-19.37 355.63-17.67Q357.80-15.96 357.80-13.24L357.80-13.24L352.72-13.24Q352.72-14.33 352.02-15.04Q351.32-15.75 349.82-15.75L349.82-15.75Q348.54-15.75 347.84-15.17Q347.13-14.59 347.13-13.69L347.13-13.69Q347.13-12.85 347.93-12.33Q348.73-11.81 350.63-11.43Q352.53-11.06 353.83-10.58L353.83-10.58Q357.86-9.11 357.86-5.47L357.86-5.47Q357.86-2.87 355.62-1.26Q353.39 0.35 349.86 0.35L349.86 0.35Q347.47 0.35 345.61-0.50Q343.76-1.35 342.70-2.84Q341.65-4.32 341.65-6.05L341.65-6.05L346.46-6.05Q346.54-4.69 347.47-3.97Q348.40-3.25 349.96-3.25L349.96-3.25Q351.42-3.25 352.17-3.81Q352.92-4.36 352.92-5.26ZM360.33-9.46L360.33-9.69Q360.33-12.52 361.42-14.73Q362.51-16.95 364.56-18.16Q366.61-19.37 369.32-19.37L369.32-19.37Q373.17-19.37 375.60-17.02Q378.04-14.66 378.32-10.62L378.32-10.62L378.35-9.32Q378.35-4.94 375.91-2.29Q373.46 0.35 369.35 0.35Q365.24 0.35 362.79-2.29Q360.33-4.92 360.33-9.46L360.33-9.46ZM365.41-9.32L365.41-9.32Q365.41-6.61 366.43-5.18Q367.45-3.74 369.35-3.74L369.35-3.74Q371.20-3.74 372.23-5.16Q373.27-6.57 373.27-9.69L373.27-9.69Q373.27-12.34 372.23-13.80Q371.20-15.26 369.32-15.26L369.32-15.26Q367.45-15.26 366.43-13.81Q365.41-12.36 365.41-9.32ZM381.38-19.02L386.16-19.02L386.31-16.82Q388.35-19.37 391.78-19.37L391.78-19.37Q394.80-19.37 396.28-17.60Q397.76-15.82 397.79-12.29L397.79-12.29L397.79 0L392.71 0L392.71-12.16Q392.71-13.78 392.01-14.51Q391.31-15.24 389.67-15.24L389.67-15.24Q387.53-15.24 386.46-13.41L386.46-13.41L386.46 0L381.38 0L381.38-19.02ZM417.80 0L412.66 0Q412.31-0.69 412.15-1.71L412.15-1.71Q410.31 0.35 407.36 0.35L407.36 0.35Q404.56 0.35 402.72-1.27Q400.89-2.88 400.89-5.34L400.89-5.34Q400.89-8.37 403.13-9.98Q405.37-11.60 409.61-11.62L409.61-11.62L411.94-11.62L411.94-12.71Q411.94-14.03 411.27-14.82Q410.59-15.61 409.13-15.61L409.13-15.61Q407.85-15.61 407.12-14.99Q406.39-14.38 406.39-13.31L406.39-13.31L401.31-13.31Q401.31-14.96 402.33-16.37Q403.35-17.77 405.21-18.57Q407.07-19.37 409.39-19.37L409.39-19.37Q412.91-19.37 414.98-17.60Q417.04-15.84 417.04-12.64L417.04-12.64L417.04-4.39Q417.06-1.69 417.80-0.30L417.80-0.30L417.80 0ZM408.46-3.53L408.46-3.53Q409.59-3.53 410.54-4.03Q411.49-4.54 411.94-5.38L411.94-5.38L411.94-8.65L410.04-8.65Q406.23-8.65 405.98-6.01L405.98-6.01L405.97-5.71Q405.97-4.76 406.63-4.15Q407.30-3.53 408.46-3.53ZM426.30-27L426.30 0L421.21 0L421.21-27L426.30-27ZM456.01 0L454.24-5.27L444.99-5.27L443.23 0L437.63 0L447.15-25.59L452.04-25.59L461.62 0L456.01 0ZM449.60-19.13L446.41-9.54L452.81-9.54L449.60-19.13ZM473.98-5.26L473.98-5.26Q473.98-6.19 473.05-6.72Q472.13-7.26 470.09-7.68L470.09-7.68Q463.31-9.11 463.31-13.45L463.31-13.45Q463.31-15.98 465.41-17.67Q467.51-19.37 470.90-19.37L470.90-19.37Q474.52-19.37 476.69-17.67Q478.86-15.96 478.86-13.24L478.86-13.24L473.78-13.24Q473.78-14.33 473.08-15.04Q472.38-15.75 470.88-15.75L470.88-15.75Q469.60-15.75 468.90-15.17Q468.19-14.59 468.19-13.69L468.19-13.69Q468.19-12.85 468.99-12.33Q469.79-11.81 471.69-11.43Q473.59-11.06 474.89-10.58L474.89-10.58Q478.92-9.11 478.92-5.47L478.92-5.47Q478.92-2.87 476.68-1.26Q474.45 0.35 470.92 0.35L470.92 0.35Q468.53 0.35 466.67-0.50Q464.82-1.35 463.76-2.84Q462.71-4.32 462.71-6.05L462.71-6.05L467.53-6.05Q467.60-4.69 468.53-3.97Q469.46-3.25 471.02-3.25L471.02-3.25Q472.48-3.25 473.23-3.81Q473.98-4.36 473.98-5.26ZM492.49-5.26L492.49-5.26Q492.49-6.19 491.56-6.72Q490.64-7.26 488.60-7.68L488.60-7.68Q481.82-9.11 481.82-13.45L481.82-13.45Q481.82-15.98 483.92-17.67Q486.02-19.37 489.41-19.37L489.41-19.37Q493.03-19.37 495.20-17.67Q497.37-15.96 497.37-13.24L497.37-13.24L492.29-13.24Q492.29-14.33 491.59-15.04Q490.89-15.75 489.39-15.75L489.39-15.75Q488.11-15.75 487.41-15.17Q486.70-14.59 486.70-13.69L486.70-13.69Q486.70-12.85 487.50-12.33Q488.30-11.81 490.20-11.43Q492.10-11.06 493.40-10.58L493.40-10.58Q497.43-9.11 497.43-5.47L497.43-5.47Q497.43-2.87 495.19-1.26Q492.96 0.35 489.43 0.35L489.43 0.35Q487.04 0.35 485.18-0.50Q483.33-1.35 482.27-2.84Q481.22-4.32 481.22-6.05L481.22-6.05L486.04-6.05Q486.11-4.69 487.04-3.97Q487.97-3.25 489.53-3.25L489.53-3.25Q490.99-3.25 491.74-3.81Q492.49-4.36 492.49-5.26ZM506.06-19.02L506.06 0L500.96 0L500.96-19.02L506.06-19.02ZM500.66-23.94L500.66-23.94Q500.66-25.08 501.42-25.82Q502.19-26.56 503.51-26.56L503.51-26.56Q504.81-26.56 505.58-25.82Q506.36-25.08 506.36-23.94L506.36-23.94Q506.36-22.78 505.57-22.04Q504.79-21.30 503.51-21.30Q502.22-21.30 501.44-22.04Q500.66-22.78 500.66-23.94ZM520.54-5.26L520.54-5.26Q520.54-6.19 519.62-6.72Q518.70-7.26 516.66-7.68L516.66-7.68Q509.87-9.11 509.87-13.45L509.87-13.45Q509.87-15.98 511.97-17.67Q514.07-19.37 517.46-19.37L517.46-19.37Q521.09-19.37 523.26-17.67Q525.43-15.96 525.43-13.24L525.43-13.24L520.35-13.24Q520.35-14.33 519.64-15.04Q518.94-15.75 517.45-15.75L517.45-15.75Q516.16-15.75 515.46-15.17Q514.76-14.59 514.76-13.69L514.76-13.69Q514.76-12.85 515.56-12.33Q516.36-11.81 518.26-11.43Q520.15-11.06 521.46-10.58L521.46-10.58Q525.48-9.11 525.48-5.47L525.48-5.47Q525.48-2.87 523.25-1.26Q521.02 0.35 517.48 0.35L517.48 0.35Q515.09 0.35 513.24-0.50Q511.38-1.35 510.33-2.84Q509.27-4.32 509.27-6.05L509.27-6.05L514.09-6.05Q514.16-4.69 515.09-3.97Q516.02-3.25 517.59-3.25L517.59-3.25Q519.05-3.25 519.79-3.81Q520.54-4.36 520.54-5.26ZM529.75-23.70L534.83-23.70L534.83-19.02L538.08-19.02L538.08-15.29L534.83-15.29L534.83-5.80Q534.83-4.75 535.24-4.29Q535.64-3.83 536.78-3.83L536.78-3.83Q537.63-3.83 538.28-3.96L538.28-3.96L538.28-0.11Q536.78 0.35 535.20 0.35L535.20 0.35Q529.86 0.35 529.75-5.04L529.75-5.04L529.75-15.29L526.97-15.29L526.97-19.02L529.75-19.02L529.75-23.70ZM557.07 0L551.94 0Q551.58-0.69 551.43-1.71L551.43-1.71Q549.58 0.35 546.63 0.35L546.63 0.35Q543.83 0.35 542.00-1.27Q540.16-2.88 540.16-5.34L540.16-5.34Q540.16-8.37 542.40-9.98Q544.64-11.60 548.88-11.62L548.88-11.62L551.21-11.62L551.21-12.71Q551.21-14.03 550.54-14.82Q549.86-15.61 548.40-15.61L548.40-15.61Q547.12-15.61 546.39-14.99Q545.66-14.38 545.66-13.31L545.66-13.31L540.58-13.31Q540.58-14.96 541.60-16.37Q542.62-17.77 544.48-18.57Q546.35-19.37 548.67-19.37L548.67-19.37Q552.18-19.37 554.25-17.60Q556.31-15.84 556.31-12.64L556.31-12.64L556.31-4.39Q556.33-1.69 557.07-0.30L557.07-0.30L557.07 0ZM547.73-3.53L547.73-3.53Q548.86-3.53 549.81-4.03Q550.76-4.54 551.21-5.38L551.21-5.38L551.21-8.65L549.32-8.65Q545.50-8.65 545.26-6.01L545.26-6.01L545.24-5.71Q545.24-4.76 545.91-4.15Q546.57-3.53 547.73-3.53ZM560.11-19.02L564.89-19.02L565.05-16.82Q567.09-19.37 570.52-19.37L570.52-19.37Q573.54-19.37 575.02-17.60Q576.49-15.82 576.53-12.29L576.53-12.29L576.53 0L571.45 0L571.45-12.16Q571.45-13.78 570.74-14.51Q570.04-15.24 568.41-15.24L568.41-15.24Q566.26-15.24 565.19-13.41L565.19-13.41L565.19 0L560.11 0L560.11-19.02ZM581.38-23.70L586.46-23.70L586.46-19.02L589.71-19.02L589.71-15.29L586.46-15.29L586.46-5.80Q586.46-4.75 586.86-4.29Q587.27-3.83 588.41-3.83L588.41-3.83Q589.25-3.83 589.90-3.96L589.90-3.96L589.90-0.11Q588.41 0.35 586.83 0.35L586.83 0.35Q581.48 0.35 581.38-5.04L581.38-5.04L581.38-15.29L578.60-15.29L578.60-19.02L581.38-19.02L581.38-23.70Z" transform="translate(620, 500)" fill="#ffffff" /><circle cx="580" cy="565" r="6" fill="#e94560" /><path d="M5.82-25.59L11.11-14.06L16.44-25.59L22.20-25.59L13.80-9.28L13.80 0L8.44 0L8.44-9.28L0.04-25.59L5.82-25.59ZM23.41-9.46L23.41-9.69Q23.41-12.52 24.50-14.73Q25.59-16.95 27.64-18.16Q29.69-19.37 32.40-19.37L32.40-19.37Q36.25-19.37 38.68-17.02Q41.12-14.66 41.40-10.62L41.40-10.62L41.43-9.32Q41.43-4.94 38.99-2.29Q36.54 0.35 32.43 0.35Q28.32 0.35 25.87-2.29Q23.41-4.92 23.41-9.46L23.41-9.46ZM28.49-9.32L28.49-9.32Q28.49-6.61 29.51-5.18Q30.53-3.74 32.43-3.74L32.43-3.74Q34.28-3.74 35.31-5.16Q36.35-6.57 36.35-9.69L36.35-9.69Q36.35-12.34 35.31-13.80Q34.28-15.26 32.40-15.26L32.40-15.26Q30.53-15.26 29.51-13.81Q28.49-12.36 28.49-9.32ZM56.09 0L55.95-1.93Q54.07 0.35 50.75 0.35L50.75 0.35Q47.69 0.35 46.08-1.41Q44.47-3.16 44.44-6.56L44.44-6.56L44.44-19.02L49.52-19.02L49.52-6.73Q49.52-3.76 52.22-3.76L52.22-3.76Q54.81-3.76 55.78-5.55L55.78-5.55L55.78-19.02L60.87-19.02L60.87 0L56.09 0ZM75.46-19.14L75.39-14.26Q74.36-14.40 73.56-14.40L73.56-14.40Q70.68-14.40 69.79-12.45L69.79-12.45L69.79 0L64.71 0L64.71-19.02L69.50-19.02L69.64-16.75Q71.17-19.37 73.88-19.37L73.88-19.37Q74.72-19.37 75.46-19.14L75.46-19.14ZM103.36 0L101.58-5.27L92.34-5.27L90.58 0L84.97 0L94.50-25.59L99.39-25.59L108.97 0L103.36 0ZM96.94-19.13L93.76-9.54L100.16-9.54L96.94-19.13ZM116.96-25.59L116.96 0L111.69 0L111.69-25.59L116.96-25.59ZM122.84 6.42L122.84 6.42L120.18 5.03L120.81 3.88Q121.99 1.74 122.03-0.39L122.03-0.39L122.03-4.32L126.32-4.32L126.30-0.81Q126.28 1.14 125.31 3.13Q124.35 5.12 122.84 6.42ZM138.48-9.46L138.48-9.69Q138.48-12.52 139.57-14.73Q140.66-16.95 142.71-18.16Q144.76-19.37 147.46-19.37L147.46-19.37Q151.31-19.37 153.75-17.02Q156.18-14.66 156.46-10.62L156.46-10.62L156.50-9.32Q156.50-4.94 154.05-2.29Q151.61 0.35 147.50 0.35Q143.38 0.35 140.93-2.29Q138.48-4.92 138.48-9.46L138.48-9.46ZM143.56-9.32L143.56-9.32Q143.56-6.61 144.58-5.18Q145.60-3.74 147.50-3.74L147.50-3.74Q149.34-3.74 150.38-5.16Q151.42-6.57 151.42-9.69L151.42-9.69Q151.42-12.34 150.38-13.80Q149.34-15.26 147.46-15.26L147.46-15.26Q145.60-15.26 144.58-13.81Q143.56-12.36 143.56-9.32ZM159.52-19.02L164.30-19.02L164.46-16.82Q166.50-19.37 169.93-19.37L169.93-19.37Q172.95-19.37 174.43-17.60Q175.90-15.82 175.94-12.29L175.94-12.29L175.94 0L170.86 0L170.86-12.16Q170.86-13.78 170.16-14.51Q169.45-15.24 167.82-15.24L167.82-15.24Q165.67-15.24 164.60-13.41L164.60-13.41L164.60 0L159.52 0L159.52-19.02ZM192.32-19.02L195.86-7.19L199.37-19.02L204.82-19.02L197.17 2.95L196.75 3.96Q195.05 7.68 191.13 7.68L191.13 7.68Q190.02 7.68 188.88 7.35L188.88 7.35L188.88 3.50L189.65 3.52Q191.09 3.52 191.80 3.08Q192.52 2.64 192.92 1.62L192.92 1.62L193.52 0.05L186.86-19.02L192.32-19.02ZM206.03-9.46L206.03-9.69Q206.03-12.52 207.12-14.73Q208.21-16.95 210.26-18.16Q212.31-19.37 215.02-19.37L215.02-19.37Q218.87-19.37 221.30-17.02Q223.73-14.66 224.02-10.62L224.02-10.62L224.05-9.32Q224.05-4.94 221.61-2.29Q219.16 0.35 215.05 0.35Q210.94 0.35 208.49-2.29Q206.03-4.92 206.03-9.46L206.03-9.46ZM211.11-9.32L211.11-9.32Q211.11-6.61 212.13-5.18Q213.15-3.74 215.05-3.74L215.05-3.74Q216.90-3.74 217.93-5.16Q218.97-6.57 218.97-9.69L218.97-9.69Q218.97-12.34 217.93-13.80Q216.90-15.26 215.02-15.26L215.02-15.26Q213.15-15.26 212.13-13.81Q211.11-12.36 211.11-9.32ZM238.71 0L238.57-1.93Q236.69 0.35 233.37 0.35L233.37 0.35Q230.31 0.35 228.70-1.41Q227.09-3.16 227.06-6.56L227.06-6.56L227.06-19.02L232.14-19.02L232.14-6.73Q232.14-3.76 234.84-3.76L234.84-3.76Q237.43-3.76 238.39-5.55L238.39-5.55L238.39-19.02L243.49-19.02L243.49 0L238.71 0ZM258.08-19.14L258.01-14.26Q256.97-14.40 256.18-14.40L256.18-14.40Q253.30-14.40 252.40-12.45L252.40-12.45L252.40 0L247.32 0L247.32-19.02L252.12-19.02L252.26-16.75Q253.79-19.37 256.50-19.37L256.50-19.37Q257.34-19.37 258.08-19.14L258.08-19.14ZM270.42-23.70L275.50-23.70L275.50-19.02L278.75-19.02L278.75-15.29L275.50-15.29L275.50-5.80Q275.50-4.75 275.91-4.29Q276.31-3.83 277.45-3.83L277.45-3.83Q278.30-3.83 278.95-3.96L278.95-3.96L278.95-0.11Q277.45 0.35 275.87 0.35L275.87 0.35Q270.53 0.35 270.42-5.04L270.42-5.04L270.42-15.29L267.64-15.29L267.64-19.02L270.42-19.02L270.42-23.70ZM290.34 0.35L290.34 0.35Q286.15 0.35 283.53-2.21Q280.90-4.78 280.90-9.05L280.90-9.05L280.90-9.54Q280.90-12.41 282.01-14.67Q283.11-16.93 285.14-18.15Q287.17-19.37 289.78-19.37L289.78-19.37Q293.68-19.37 295.92-16.91Q298.16-14.45 298.16-9.93L298.16-9.93L298.16-7.86L286.05-7.86Q286.29-5.99 287.53-4.87Q288.77-3.74 290.67-3.74L290.67-3.74Q293.61-3.74 295.26-5.87L295.26-5.87L297.76-3.08Q296.61-1.46 294.66-0.55Q292.71 0.35 290.34 0.35ZM289.76-15.26L289.76-15.26Q288.25-15.26 287.31-14.24Q286.37-13.22 286.10-11.32L286.10-11.32L293.17-11.32L293.17-11.72Q293.13-13.41 292.25-14.33Q291.38-15.26 289.76-15.26ZM311.80-19.14L311.73-14.26Q310.69-14.40 309.90-14.40L309.90-14.40Q307.02-14.40 306.12-12.45L306.12-12.45L306.12 0L301.04 0L301.04-19.02L305.84-19.02L305.98-16.75Q307.51-19.37 310.22-19.37L310.22-19.37Q311.06-19.37 311.80-19.14L311.80-19.14ZM314.17-19.02L318.94-19.02L319.10-16.89Q321.12-19.37 324.56-19.37L324.56-19.37Q328.24-19.37 329.61-16.47L329.61-16.47Q331.61-19.37 335.32-19.37L335.32-19.37Q338.41-19.37 339.93-17.57Q341.44-15.77 341.44-12.15L341.44-12.15L341.44 0L336.34 0L336.34-12.13Q336.34-13.75 335.71-14.49Q335.07-15.24 333.47-15.24L333.47-15.24Q331.19-15.24 330.31-13.06L330.31-13.06L330.33 0L325.25 0L325.25-12.11Q325.25-13.76 324.60-14.50Q323.95-15.24 322.38-15.24L322.38-15.24Q320.22-15.24 319.25-13.45L319.25-13.45L319.25 0L314.17 0L314.17-19.02ZM355.64-5.26L355.64-5.26Q355.64-6.19 354.72-6.72Q353.79-7.26 351.76-7.68L351.76-7.68Q344.97-9.11 344.97-13.45L344.97-13.45Q344.97-15.98 347.07-17.67Q349.17-19.37 352.56-19.37L352.56-19.37Q356.19-19.37 358.36-17.67Q360.53-15.96 360.53-13.24L360.53-13.24L355.45-13.24Q355.45-14.33 354.74-15.04Q354.04-15.75 352.55-15.75L352.55-15.75Q351.26-15.75 350.56-15.17Q349.86-14.59 349.86-13.69L349.86-13.69Q349.86-12.85 350.66-12.33Q351.46-11.81 353.36-11.43Q355.25-11.06 356.55-10.58L356.55-10.58Q360.58-9.11 360.58-5.47L360.58-5.47Q360.58-2.87 358.35-1.26Q356.12 0.35 352.58 0.35L352.58 0.35Q350.19 0.35 348.34-0.50Q346.48-1.35 345.43-2.84Q344.37-4.32 344.37-6.05L344.37-6.05L349.19-6.05Q349.26-4.69 350.19-3.97Q351.12-3.25 352.69-3.25L352.69-3.25Q354.15-3.25 354.89-3.81Q355.64-4.36 355.64-5.26Z" transform="translate(620, 565)" fill="#ffffff" />
  <text x="960" y="1040" font-family="Arial, sans-serif" font-size="20" fill="#666" text-anchor="middle">OpenClaw Documentation</text>
</svg>