<?xml version="1.0" encoding="UTF-8"?>
<svg width="1920" height="1080" xmlns="http://www.w3.org/2000/svg">
  <defs>
    <linearGradient id="bg" x1="0%" y1="0%" x2="100%" y2="100%">
      <stop offset="0%" style="stop-color:#1a1a2e;stop-opacity:1" />
      <stop offset="100%" style="stop-color:#000008;stop-opacity:1" />
    </linearGradient>
    <linearGradient id="accent" x1="0%" y1="0%" x2="100%" y2="0%">
      <stop offset="0%" style="stop-color:#e94560;stop-opacity:1" />
      <stop offset="100%" style="stop-color:#ff92ad;stop-opacity:1" />
    </linearGradient>
    <filter id="glow">
      <feGaussianBlur stdDeviation="3" result="coloredBlur"/>
      <feMerge><feMergeNode in="coloredBlur"/><feMergeNode in="SourceGraphic"/></feMerge>
    </filter>
  </defs>
  <rect width="100%" height="100%" fill="url(#bg)"/>
  <circle cx="1920" cy="0" r="700" fill="#e94560" opacity="0.08"/>
  <circle cx="0" cy="1080" r="500" fill="#ff92ad" opacity="0.06"/>
  <rect width="1920" height="6" fill="url(#accent)"/>
  <path d="M19.95-9.95L26.11-9.95Q25.76-5.13 22.55-2.36Q19.34 0.41 14.09 0.41L14.09 0.41Q8.35 0.41 5.06-3.46Q1.76-7.32 1.76-14.07L1.76-14.07L1.76-15.89Q1.76-20.20 3.28-23.48Q4.80-26.76 7.62-28.52Q10.44-30.27 14.17-30.27L14.17-30.27Q19.34-30.27 22.50-27.50Q25.66-24.73 26.15-19.73L26.15-19.73L20.00-19.73Q19.77-22.62 18.39-23.92Q17.00-25.22 14.17-25.22L14.17-25.22Q11.09-25.22 9.57-23.02Q8.04-20.82 8.00-16.18L8.00-16.18L8.00-13.92Q8.00-9.08 9.46-6.85Q10.93-4.61 14.09-4.61L14.09-4.61Q16.94-4.61 18.34-5.92Q19.75-7.22 19.95-9.95L19.95-9.95ZM35.54-31.50L35.54-19.77Q37.90-22.60 41.47-22.60L41.47-22.60Q48.69-22.60 48.79-14.21L48.79-14.21L48.79 0L42.86 0L42.86-14.05Q42.86-15.96 42.04-16.87Q41.22-17.78 39.31-17.78L39.31-17.78Q36.71-17.78 35.54-15.77L35.54-15.77L35.54 0L29.61 0L29.61-31.50L35.54-31.50ZM72.11 0L66.12 0Q65.71-0.80 65.52-1.99L65.52-1.99Q63.37 0.41 59.92 0.41L59.92 0.41Q56.66 0.41 54.52-1.48Q52.38-3.36 52.38-6.23L52.38-6.23Q52.38-9.76 54.99-11.65Q57.61-13.54 62.55-13.56L62.55-13.56L65.28-13.56L65.28-14.83Q65.28-16.37 64.49-17.29Q63.70-18.21 62.00-18.21L62.00-18.21Q60.50-18.21 59.65-17.49Q58.80-16.78 58.80-15.52L58.80-15.52L52.87-15.52Q52.87-17.45 54.06-19.09Q55.25-20.73 57.42-21.67Q59.60-22.60 62.30-22.60L62.30-22.60Q66.40-22.60 68.81-20.54Q71.22-18.48 71.22-14.75L71.22-14.75L71.22-5.13Q71.24-1.97 72.11-0.35L72.11-0.35L72.11 0ZM61.22-4.12L61.22-4.12Q62.53-4.12 63.64-4.71Q64.74-5.29 65.28-6.28L65.28-6.28L65.28-10.09L63.06-10.09Q58.61-10.09 58.32-7.01L58.32-7.01L58.30-6.67Q58.30-5.56 59.08-4.84Q59.86-4.12 61.22-4.12ZM75.65-22.19L81.23-22.19L81.42-19.63Q83.79-22.60 87.79-22.60L87.79-22.60Q91.32-22.60 93.04-20.53Q94.77-18.46 94.81-14.33L94.81-14.33L94.81 0L88.88 0L88.88-14.19Q88.88-16.08 88.06-16.93Q87.24-17.78 85.33-17.78L85.33-17.78Q82.83-17.78 81.58-15.65L81.58-15.65L81.58 0L75.65 0L75.65-22.19ZM116.98-9.95L123.13-9.95Q122.78-5.13 119.57-2.36Q116.36 0.41 111.11 0.41L111.11 0.41Q105.37 0.41 102.08-3.46Q98.79-7.32 98.79-14.07L98.79-14.07L98.79-15.89Q98.79-20.20 100.30-23.48Q101.82-26.76 104.64-28.52Q107.46-30.27 111.19-30.27L111.19-30.27Q116.36-30.27 119.52-27.50Q122.68-24.73 123.17-19.73L123.17-19.73L117.02-19.73Q116.79-22.62 115.41-23.92Q114.02-25.22 111.19-25.22L111.19-25.22Q108.12-25.22 106.59-23.02Q105.06-20.82 105.02-16.18L105.02-16.18L105.02-13.92Q105.02-9.08 106.49-6.85Q107.95-4.61 111.11-4.61L111.11-4.61Q113.96-4.61 115.37-5.92Q116.77-7.22 116.98-9.95L116.98-9.95ZM133.03-31.50L133.03 0L127.09 0L127.09-31.50L133.03-31.50ZM156.76 0L150.77 0Q150.36-0.80 150.18-1.99L150.18-1.99Q148.03 0.41 144.58 0.41L144.58 0.41Q141.32 0.41 139.18-1.48Q137.03-3.36 137.03-6.23L137.03-6.23Q137.03-9.76 139.65-11.65Q142.26-13.54 147.21-13.56L147.21-13.56L149.93-13.56L149.93-14.83Q149.93-16.37 149.14-17.29Q148.35-18.21 146.65-18.21L146.65-18.21Q145.15-18.21 144.30-17.49Q143.45-16.78 143.45-15.52L143.45-15.52L137.53-15.52Q137.53-17.45 138.71-19.09Q139.90-20.73 142.08-21.67Q144.25-22.60 146.96-22.60L146.96-22.60Q151.06-22.60 153.47-20.54Q155.88-18.48 155.88-14.75L155.88-14.75L155.88-5.13Q155.90-1.97 156.76-0.35L156.76-0.35L156.76 0ZM145.87-4.12L145.87-4.12Q147.18-4.12 148.29-4.71Q149.40-5.29 149.93-6.28L149.93-6.28L149.93-10.09L147.72-10.09Q143.27-10.09 142.98-7.01L142.98-7.01L142.96-6.67Q142.96-5.56 143.74-4.84Q144.52-4.12 145.87-4.12ZM175.69-22.19L179.73-8.06L182.64-22.19L188.36-22.19L182.70 0L177.74 0L173.54-13.97L169.33 0L164.39 0L158.73-22.19L164.45-22.19L167.34-8.08L171.40-22.19L175.69-22.19Z" transform="translate(50, 70)" fill="#e94560" />
  <text x="1870" y="70" font-family="Arial, sans-serif" font-size="24" fill="#888" text-anchor="end">3 / 10</text>
  <path d="M34.21-17.05L44.75-17.05Q44.16-8.79 38.65-4.04Q33.15 0.70 24.15 0.70L24.15 0.70Q14.31 0.70 8.67-5.92Q3.02-12.55 3.02-24.12L3.02-24.12L3.02-27.25Q3.02-34.63 5.63-40.25Q8.23-45.88 13.06-48.88Q17.89-51.89 24.29-51.89L24.29-51.89Q33.15-51.89 38.57-47.14Q43.98-42.40 44.82-33.82L44.82-33.82L34.28-33.82Q33.89-38.78 31.52-41.01Q29.14-43.24 24.29-43.24L24.29-43.24Q19.02-43.24 16.40-39.46Q13.78-35.68 13.71-27.74L13.71-27.74L13.71-23.87Q13.71-15.57 16.22-11.74Q18.74-7.91 24.15-7.91L24.15-7.91Q29.04-7.91 31.45-10.14Q33.86-12.38 34.21-17.05L34.21-17.05ZM49.43-18.91L49.43-19.37Q49.43-25.03 51.61-29.46Q53.79-33.89 57.88-36.32Q61.98-38.74 67.39-38.74L67.39-38.74Q75.09-38.74 79.96-34.03Q84.83-29.32 85.39-21.23L85.39-21.23L85.46-18.63Q85.46-9.88 80.58-4.59Q75.69 0.70 67.46 0.70Q59.24 0.70 54.33-4.57Q49.43-9.84 49.43-18.91L49.43-18.91ZM59.59-18.63L59.59-18.63Q59.59-13.22 61.63-10.35Q63.67-7.49 67.46-7.49L67.46-7.49Q71.16-7.49 73.23-10.32Q75.30-13.15 75.30-19.37L75.30-19.37Q75.30-24.68 73.23-27.60Q71.16-30.52 67.39-30.52L67.39-30.52Q63.67-30.52 61.63-27.62Q59.59-24.71 59.59-18.63ZM113.24-38.29L113.10-28.51Q111.02-28.79 109.44-28.79L109.44-28.79Q103.68-28.79 101.88-24.89L101.88-24.89L101.88 0L91.72 0L91.72-38.04L101.32-38.04L101.60-33.50Q104.66-38.74 110.07-38.74L110.07-38.74Q111.76-38.74 113.24-38.29L113.24-38.29ZM135.49 0.70L135.49 0.70Q127.13 0.70 121.87-4.43Q116.61-9.56 116.61-18.11L116.61-18.11L116.61-19.09Q116.61-24.82 118.83-29.34Q121.04-33.86 125.10-36.30Q129.16-38.74 134.37-38.74L134.37-38.74Q142.17-38.74 146.65-33.82Q151.14-28.90 151.14-19.86L151.14-19.86L151.14-15.71L126.91-15.71Q127.41-11.99 129.88-9.74Q132.36-7.49 136.16-7.49L136.16-7.49Q142.03-7.49 145.34-11.74L145.34-11.74L150.33-6.15Q148.04-2.92 144.14-1.11Q140.24 0.70 135.49 0.70ZM134.33-30.52L134.33-30.52Q131.31-30.52 129.43-28.48Q127.55-26.44 127.02-22.64L127.02-22.64L141.15-22.64L141.15-23.45Q141.08-26.82 139.32-28.67Q137.57-30.52 134.33-30.52ZM205.14-17.05L215.68-17.05Q215.09-8.79 209.58-4.04Q204.08 0.70 195.08 0.70L195.08 0.70Q185.24 0.70 179.60-5.92Q173.95-12.55 173.95-24.12L173.95-24.12L173.95-27.25Q173.95-34.63 176.55-40.25Q179.16-45.88 183.99-48.88Q188.82-51.89 195.22-51.89L195.22-51.89Q204.08-51.89 209.50-47.14Q214.91-42.40 215.75-33.82L215.75-33.82L205.21-33.82Q204.82-38.78 202.45-41.01Q200.07-43.24 195.22-43.24L195.22-43.24Q189.95-43.24 187.33-39.46Q184.71-35.68 184.64-27.74L184.64-27.74L184.64-23.87Q184.64-15.57 187.15-11.74Q189.67-7.91 195.08-7.91L195.08-7.91Q199.97-7.91 202.38-10.14Q204.79-12.38 205.14-17.05L205.14-17.05ZM254.25 0L243.98 0Q243.28-1.37 242.96-3.41L242.96-3.41Q239.27 0.70 233.37 0.70L233.37 0.70Q227.78 0.70 224.10-2.53Q220.43-5.77 220.43-10.69L220.43-10.69Q220.43-16.73 224.91-19.97Q229.39-23.20 237.87-23.24L237.87-23.24L242.54-23.24L242.54-25.42Q242.54-28.05 241.19-29.64Q239.84-31.22 236.92-31.22L236.92-31.22Q234.35-31.22 232.89-29.99Q231.43-28.76 231.43-26.61L231.43-26.61L221.27-26.61Q221.27-29.92 223.31-32.73Q225.35-35.54 229.08-37.14Q232.80-38.74 237.45-38.74L237.45-38.74Q244.48-38.74 248.61-35.21Q252.74-31.68 252.74-25.28L252.74-25.28L252.74-8.79Q252.77-3.38 254.25-0.60L254.25-0.60L254.25 0ZM235.58-7.07L235.58-7.07Q237.83-7.07 239.73-8.07Q241.63-9.07 242.54-10.76L242.54-10.76L242.54-17.30L238.75-17.30Q231.12-17.30 230.63-12.02L230.63-12.02L230.59-11.43Q230.59-9.53 231.93-8.30Q233.26-7.07 235.58-7.07ZM294.79-19.20L294.79-18.67Q294.79-9.88 290.79-4.59Q286.80 0.70 280.02 0.70L280.02 0.70Q274.25 0.70 270.70-3.30L270.70-3.30L270.70 14.63L260.54 14.63L260.54-38.04L269.96-38.04L270.32-34.31Q274.01-38.74 279.95-38.74L279.95-38.74Q286.98-38.74 290.88-33.54Q294.79-28.34 294.79-19.20L294.79-19.20ZM284.63-19.41L284.63-19.41Q284.63-24.71 282.74-27.60Q280.86-30.48 277.28-30.48L277.28-30.48Q272.50-30.48 270.70-26.82L270.70-26.82L270.70-11.25Q272.57-7.49 277.35-7.49L277.35-7.49Q284.63-7.49 284.63-19.41ZM333.39 0L323.12 0Q322.42-1.37 322.10-3.41L322.10-3.41Q318.41 0.70 312.50 0.70L312.50 0.70Q306.91 0.70 303.24-2.53Q299.57-5.77 299.57-10.69L299.57-10.69Q299.57-16.73 304.05-19.97Q308.53-23.20 317.00-23.24L317.00-23.24L321.68-23.24L321.68-25.42Q321.68-28.05 320.33-29.64Q318.97-31.22 316.05-31.22L316.05-31.22Q313.49-31.22 312.03-29.99Q310.57-28.76 310.57-26.61L310.57-26.61L300.41-26.61Q300.41-29.92 302.45-32.73Q304.49-35.54 308.21-37.14Q311.94-38.74 316.58-38.74L316.58-38.74Q323.61-38.74 327.74-35.21Q331.88-31.68 331.88-25.28L331.88-25.28L331.88-8.79Q331.91-3.38 333.39-0.60L333.39-0.60L333.39 0ZM314.72-7.07L314.72-7.07Q316.97-7.07 318.87-8.07Q320.77-9.07 321.68-10.76L321.68-10.76L321.68-17.30L317.88-17.30Q310.25-17.30 309.76-12.02L309.76-12.02L309.73-11.43Q309.73-9.53 311.06-8.30Q312.40-7.07 314.72-7.07ZM373.96-19.23L373.96-18.67Q373.96-9.53 370.05-4.41Q366.15 0.70 359.16 0.70L359.16 0.70Q352.97 0.70 349.28-4.04L349.28-4.04L348.82 0L339.68 0L339.68-54L349.84-54L349.84-34.63Q353.36-38.74 359.09-38.74L359.09-38.74Q366.05-38.74 370.00-33.63Q373.96-28.51 373.96-19.23L373.96-19.23ZM363.80-19.41L363.80-19.41Q363.80-25.17 361.97-27.83Q360.14-30.48 356.52-30.48L356.52-30.48Q351.67-30.48 349.84-26.51L349.84-26.51L349.84-11.50Q351.70-7.49 356.59-7.49L356.59-7.49Q361.51-7.49 363.06-12.34L363.06-12.34Q363.80-14.66 363.80-19.41ZM390.94-38.04L390.94 0L380.74 0L380.74-38.04L390.94-38.04ZM380.14-47.88L380.14-47.88Q380.14-50.17 381.67-51.64Q383.20-53.12 385.84-53.12L385.84-53.12Q388.44-53.12 389.99-51.64Q391.54-50.17 391.54-47.88L391.54-47.88Q391.54-45.56 389.97-44.09Q388.41-42.61 385.84-42.61Q383.27-42.61 381.71-44.09Q380.14-45.56 380.14-47.88ZM410.03-54L410.03 0L399.83 0L399.83-54L410.03-54ZM429.12-38.04L429.12 0L418.92 0L418.92-38.04L429.12-38.04ZM418.32-47.88L418.32-47.88Q418.32-50.17 419.85-51.64Q421.38-53.12 424.02-53.12L424.02-53.12Q426.62-53.12 428.17-51.64Q429.71-50.17 429.71-47.88L429.71-47.88Q429.71-45.56 428.15-44.09Q426.59-42.61 424.02-42.61Q421.45-42.61 419.89-44.09Q418.32-45.56 418.32-47.88ZM439.49-47.39L449.65-47.39L449.65-38.04L456.15-38.04L456.15-30.59L449.65-30.59L449.65-11.60Q449.65-9.49 450.46-8.58Q451.27-7.66 453.55-7.66L453.55-7.66Q455.24-7.66 456.54-7.91L456.54-7.91L456.54-0.21Q453.55 0.70 450.39 0.70L450.39 0.70Q439.70 0.70 439.49-10.09L439.49-10.09L439.49-30.59L433.93-30.59L433.93-38.04L439.49-38.04L439.49-47.39ZM472.54-38.04L472.54 0L462.34 0L462.34-38.04L472.54-38.04ZM461.74-47.88L461.74-47.88Q461.74-50.17 463.27-51.64Q464.80-53.12 467.44-53.12L467.44-53.12Q470.04-53.12 471.59-51.64Q473.13-50.17 473.13-47.88L473.13-47.88Q473.13-45.56 471.57-44.09Q470.00-42.61 467.44-42.61Q464.87-42.61 463.31-44.09Q461.74-45.56 461.74-47.88ZM498.41 0.70L498.41 0.70Q490.04 0.70 484.79-4.43Q479.53-9.56 479.53-18.11L479.53-18.11L479.53-19.09Q479.53-24.82 481.75-29.34Q483.96-33.86 488.02-36.30Q492.08-38.74 497.29-38.74L497.29-38.74Q505.09-38.74 509.57-33.82Q514.05-28.90 514.05-19.86L514.05-19.86L514.05-15.71L489.83-15.71Q490.32-11.99 492.80-9.74Q495.28-7.49 499.08-7.49L499.08-7.49Q504.95-7.49 508.25-11.74L508.25-11.74L513.25-6.15Q510.96-2.92 507.06-1.11Q503.16 0.70 498.41 0.70ZM497.25-30.52L497.25-30.52Q494.23-30.52 492.35-28.48Q490.46-26.44 489.94-22.64L489.94-22.64L504.07-22.64L504.07-23.45Q504-26.82 502.24-28.67Q500.48-30.52 497.25-30.52ZM540.42-10.51L540.42-10.51Q540.42-12.38 538.58-13.45Q536.73-14.52 532.65-15.36L532.65-15.36Q519.08-18.21 519.08-26.89L519.08-26.89Q519.08-31.96 523.28-35.35Q527.48-38.74 534.27-38.74L534.27-38.74Q541.51-38.74 545.85-35.33Q550.20-31.92 550.20-26.47L550.20-26.47L540.04-26.47Q540.04-28.65 538.63-30.08Q537.22-31.50 534.23-31.50L534.23-31.50Q531.67-31.50 530.26-30.34Q528.86-29.18 528.86-27.39L528.86-27.39Q528.86-25.70 530.46-24.66Q532.05-23.63 535.85-22.87Q539.65-22.11 542.25-21.16L542.25-21.16Q550.30-18.21 550.30-10.93L550.30-10.93Q550.30-5.73 545.84-2.51Q541.37 0.70 534.30 0.70L534.30 0.70Q529.52 0.70 525.81-1.00Q522.11-2.71 520.00-5.68Q517.89-8.65 517.89-12.09L517.89-12.09L527.52-12.09Q527.66-9.39 529.52-7.95Q531.39-6.50 534.52-6.50L534.52-6.50Q537.43-6.50 538.93-7.61Q540.42-8.72 540.42-10.51Z" transform="translate(683.53125, 380)" fill="#ffffff" />
  <line x1="760" y1="430" x2="1160" y2="430" stroke="#e94560" stroke-width="4"/>
  <circle cx="580" cy="500" r="6" fill="#e94560" /><path d="M2.29-25.59L9.18-25.59L15.75-7.03L22.29-25.59L29.21-25.59L29.21 0L23.92 0L23.92-7.00L24.45-19.07L17.54 0L13.92 0L7.03-19.05L7.56-7.00L7.56 0L2.29 0L2.29-25.59ZM45.02 0L44.88-1.93Q43.00 0.35 39.67 0.35L39.67 0.35Q36.62 0.35 35.01-1.41Q33.40-3.16 33.36-6.56L33.36-6.56L33.36-19.02L38.44-19.02L38.44-6.73Q38.44-3.76 41.15-3.76L41.15-3.76Q43.73-3.76 44.70-5.55L44.70-5.55L44.70-19.02L49.80-19.02L49.80 0L45.02 0ZM58.99-27L58.99 0L53.89 0L53.89-27L58.99-27ZM64.18-23.70L69.26-23.70L69.26-19.02L72.51-19.02L72.51-15.29L69.26-15.29L69.26-5.80Q69.26-4.75 69.66-4.29Q70.07-3.83 71.21-3.83L71.21-3.83Q72.05-3.83 72.70-3.96L72.70-3.96L72.70-0.11Q71.21 0.35 69.63 0.35L69.63 0.35Q64.28 0.35 64.18-5.04L64.18-5.04L64.18-15.29L61.40-15.29L61.40-19.02L64.18-19.02L64.18-23.70ZM80.70-19.02L80.70 0L75.60 0L75.60-19.02L80.70-19.02ZM75.30-23.94L75.30-23.94Q75.30-25.08 76.07-25.82Q76.83-26.56 78.15-26.56L78.15-26.56Q79.45-26.56 80.23-25.82Q81-25.08 81-23.94L81-23.94Q81-22.78 80.22-22.04Q79.44-21.30 78.15-21.30Q76.87-21.30 76.09-22.04Q75.30-22.78 75.30-23.94ZM94.76-13.01L94.76-8.91L84.87-8.91L84.87-13.01L94.76-13.01ZM106.75-3.74L106.75-3.74Q108.16-3.74 109.04-4.52Q109.92-5.29 109.95-6.57L109.95-6.57L114.71-6.57Q114.70-4.64 113.66-3.03Q112.62-1.42 110.82-0.54Q109.02 0.35 106.84 0.35L106.84 0.35Q102.76 0.35 100.41-2.24Q98.05-4.83 98.05-9.40L98.05-9.40L98.05-9.74Q98.05-14.13 100.39-16.75Q102.73-19.37 106.80-19.37L106.80-19.37Q110.37-19.37 112.53-17.34Q114.68-15.31 114.71-11.94L114.71-11.94L109.95-11.94Q109.92-13.41 109.04-14.33Q108.16-15.26 106.72-15.26L106.72-15.26Q104.94-15.26 104.04-13.97Q103.13-12.67 103.13-9.77L103.13-9.77L103.13-9.25Q103.13-6.31 104.03-5.03Q104.92-3.74 106.75-3.74ZM122.57-27L122.57-16.95Q124.59-19.37 127.65-19.37L127.65-19.37Q133.84-19.37 133.93-12.18L133.93-12.18L133.93 0L128.85 0L128.85-12.04Q128.85-13.68 128.14-14.46Q127.44-15.24 125.81-15.24L125.81-15.24Q123.57-15.24 122.57-13.52L122.57-13.52L122.57 0L117.49 0L117.49-27L122.57-27ZM153.91 0L148.78 0Q148.43-0.69 148.27-1.71L148.27-1.71Q146.43 0.35 143.47 0.35L143.47 0.35Q140.68 0.35 138.84-1.27Q137.00-2.88 137.00-5.34L137.00-5.34Q137.00-8.37 139.25-9.98Q141.49-11.60 145.72-11.62L145.72-11.62L148.06-11.62L148.06-12.71Q148.06-14.03 147.38-14.82Q146.71-15.61 145.25-15.61L145.25-15.61Q143.96-15.61 143.24-14.99Q142.51-14.38 142.51-13.31L142.51-13.31L137.43-13.31Q137.43-14.96 138.45-16.37Q139.46-17.77 141.33-18.57Q143.19-19.37 145.51-19.37L145.51-19.37Q149.03-19.37 151.09-17.60Q153.16-15.84 153.16-12.64L153.16-12.64L153.16-4.39Q153.18-1.69 153.91-0.30L153.91-0.30L153.91 0ZM144.58-3.53L144.58-3.53Q145.71-3.53 146.65-4.03Q147.60-4.54 148.06-5.38L148.06-5.38L148.06-8.65L146.16-8.65Q142.35-8.65 142.10-6.01L142.10-6.01L142.08-5.71Q142.08-4.76 142.75-4.15Q143.42-3.53 144.58-3.53ZM156.96-19.02L161.74-19.02L161.89-16.82Q163.93-19.37 167.36-19.37L167.36-19.37Q170.38-19.37 171.86-17.60Q173.34-15.82 173.37-12.29L173.37-12.29L173.37 0L168.29 0L168.29-12.16Q168.29-13.78 167.59-14.51Q166.89-15.24 165.25-15.24L165.25-15.24Q163.11-15.24 162.04-13.41L162.04-13.41L162.04 0L156.96 0L156.96-19.02ZM177.12-19.02L181.90-19.02L182.06-16.82Q184.10-19.37 187.52-19.37L187.52-19.37Q190.55-19.37 192.02-17.60Q193.50-15.82 193.54-12.29L193.54-12.29L193.54 0L188.46 0L188.46-12.16Q188.46-13.78 187.75-14.51Q187.05-15.24 185.41-15.24L185.41-15.24Q183.27-15.24 182.20-13.41L182.20-13.41L182.20 0L177.12 0L177.12-19.02ZM206.14 0.35L206.14 0.35Q201.96 0.35 199.33-2.21Q196.70-4.78 196.70-9.05L196.70-9.05L196.70-9.54Q196.70-12.41 197.81-14.67Q198.91-16.93 200.94-18.15Q202.97-19.37 205.58-19.37L205.58-19.37Q209.48-19.37 211.72-16.91Q213.96-14.45 213.96-9.93L213.96-9.93L213.96-7.86L201.85-7.86Q202.10-5.99 203.33-4.87Q204.57-3.74 206.47-3.74L206.47-3.74Q209.41-3.74 211.06-5.87L211.06-5.87L213.56-3.08Q212.41-1.46 210.46-0.55Q208.51 0.35 206.14 0.35ZM205.56-15.26L205.56-15.26Q204.05-15.26 203.11-14.24Q202.17-13.22 201.90-11.32L201.90-11.32L208.97-11.32L208.97-11.72Q208.93-13.41 208.05-14.33Q207.18-15.26 205.56-15.26ZM222.21-27L222.21 0L217.11 0L217.11-27L222.21-27ZM235.35-19.02L240.12-19.02L240.28-16.89Q242.30-19.37 245.74-19.37L245.74-19.37Q249.42-19.37 250.79-16.47L250.79-16.47Q252.79-19.37 256.50-19.37L256.50-19.37Q259.59-19.37 261.11-17.57Q262.62-15.77 262.62-12.15L262.62-12.15L262.62 0L257.52 0L257.52-12.13Q257.52-13.75 256.89-14.49Q256.25-15.24 254.65-15.24L254.65-15.24Q252.37-15.24 251.49-13.06L251.49-13.06L251.51 0L246.43 0L246.43-12.11Q246.43-13.76 245.78-14.50Q245.13-15.24 243.56-15.24L243.56-15.24Q241.40-15.24 240.43-13.45L240.43-13.45L240.43 0L235.35 0L235.35-19.02ZM275.27 0.35L275.27 0.35Q271.09 0.35 268.46-2.21Q265.83-4.78 265.83-9.05L265.83-9.05L265.83-9.54Q265.83-12.41 266.94-14.67Q268.05-16.93 270.08-18.15Q272.11-19.37 274.71-19.37L274.71-19.37Q278.61-19.37 280.85-16.91Q283.10-14.45 283.10-9.93L283.10-9.93L283.10-7.86L270.98-7.86Q271.23-5.99 272.47-4.87Q273.71-3.74 275.61-3.74L275.61-3.74Q278.54-3.74 280.20-5.87L280.20-5.87L282.69-3.08Q281.55-1.46 279.60-0.55Q277.65 0.35 275.27 0.35ZM274.69-15.26L274.69-15.26Q273.18-15.26 272.24-14.24Q271.30-13.22 271.04-11.32L271.04-11.32L278.10-11.32L278.10-11.72Q278.07-13.41 277.19-14.33Q276.31-15.26 274.69-15.26ZM296.28-5.26L296.28-5.26Q296.28-6.19 295.36-6.72Q294.43-7.26 292.39-7.68L292.39-7.68Q285.61-9.11 285.61-13.45L285.61-13.45Q285.61-15.98 287.71-17.67Q289.81-19.37 293.20-19.37L293.20-19.37Q296.82-19.37 299.00-17.67Q301.17-15.96 301.17-13.24L301.17-13.24L296.09-13.24Q296.09-14.33 295.38-15.04Q294.68-15.75 293.19-15.75L293.19-15.75Q291.90-15.75 291.20-15.17Q290.50-14.59 290.50-13.69L290.50-13.69Q290.50-12.85 291.30-12.33Q292.10-11.81 293.99-11.43Q295.89-11.06 297.19-10.58L297.19-10.58Q301.22-9.11 301.22-5.47L301.22-5.47Q301.22-2.87 298.99-1.26Q296.75 0.35 293.22 0.35L293.22 0.35Q290.83 0.35 288.98-0.50Q287.12-1.35 286.07-2.84Q285.01-4.32 285.01-6.05L285.01-6.05L289.83-6.05Q289.90-4.69 290.83-3.97Q291.76-3.25 293.33-3.25L293.33-3.25Q294.79-3.25 295.53-3.81Q296.28-4.36 296.28-5.26ZM314.79-5.26L314.79-5.26Q314.79-6.19 313.87-6.72Q312.94-7.26 310.90-7.68L310.90-7.68Q304.12-9.11 304.12-13.45L304.12-13.45Q304.12-15.98 306.22-17.67Q308.32-19.37 311.71-19.37L311.71-19.37Q315.33-19.37 317.50-17.67Q319.68-15.96 319.68-13.24L319.68-13.24L314.60-13.24Q314.60-14.33 313.89-15.04Q313.19-15.75 311.70-15.75L311.70-15.75Q310.41-15.75 309.71-15.17Q309.01-14.59 309.01-13.69L309.01-13.69Q309.01-12.85 309.81-12.33Q310.61-11.81 312.50-11.43Q314.40-11.06 315.70-10.58L315.70-10.58Q319.73-9.11 319.73-5.47L319.73-5.47Q319.73-2.87 317.50-1.26Q315.26 0.35 311.73 0.35L311.73 0.35Q309.34 0.35 307.49-0.50Q305.63-1.35 304.58-2.84Q303.52-4.32 303.52-6.05L303.52-6.05L308.34-6.05Q308.41-4.69 309.34-3.97Q310.27-3.25 311.84-3.25L311.84-3.25Q313.29-3.25 314.04-3.81Q314.79-4.36 314.79-5.26ZM339.15 0L334.02 0Q333.67-0.69 333.51-1.71L333.51-1.71Q331.66 0.35 328.71 0.35L328.71 0.35Q325.92 0.35 324.08-1.27Q322.24-2.88 322.24-5.34L322.24-5.34Q322.24-8.37 324.48-9.98Q326.72-11.60 330.96-11.62L330.96-11.62L333.30-11.62L333.30-12.71Q333.30-14.03 332.62-14.82Q331.95-15.61 330.49-15.61L330.49-15.61Q329.20-15.61 328.47-14.99Q327.74-14.38 327.74-13.31L327.74-13.31L322.66-13.31Q322.66-14.96 323.68-16.37Q324.70-17.77 326.57-18.57Q328.43-19.37 330.75-19.37L330.75-19.37Q334.27-19.37 336.33-17.60Q338.40-15.84 338.40-12.64L338.40-12.64L338.40-4.39Q338.41-1.69 339.15-0.30L339.15-0.30L339.15 0ZM329.82-3.53L329.82-3.53Q330.94-3.53 331.89-4.03Q332.84-4.54 333.30-5.38L333.30-5.38L333.30-8.65L331.40-8.65Q327.59-8.65 327.34-6.01L327.34-6.01L327.32-5.71Q327.32-4.76 327.99-4.15Q328.66-3.53 329.82-3.53ZM341.56-9.44L341.56-9.65Q341.56-14.03 343.64-16.70Q345.73-19.37 349.26-19.37L349.26-19.37Q352.39-19.37 354.13-17.23L354.13-17.23L354.34-19.02L358.95-19.02L358.95-0.63Q358.95 1.86 357.81 3.71Q356.68 5.55 354.62 6.52Q352.56 7.49 349.80 7.49L349.80 7.49Q347.71 7.49 345.73 6.65Q343.74 5.82 342.72 4.50L342.72 4.50L344.97 1.41Q346.87 3.53 349.58 3.53L349.58 3.53Q351.60 3.53 352.72 2.45Q353.85 1.37 353.85-0.62L353.85-0.62L353.85-1.63Q352.09 0.35 349.22 0.35L349.22 0.35Q345.80 0.35 343.68-2.33Q341.56-5.01 341.56-9.44L341.56-9.44ZM346.64-9.28L346.64-9.28Q346.64-6.70 347.68-5.23Q348.71-3.76 350.53-3.76L350.53-3.76Q352.85-3.76 353.85-5.50L353.85-5.50L353.85-13.50Q352.83-15.24 350.56-15.24L350.56-15.24Q348.73-15.24 347.69-13.75Q346.64-12.25 346.64-9.28ZM368.21-19.02L368.21 0L363.11 0L363.11-19.02L368.21-19.02ZM362.81-23.94L362.81-23.94Q362.81-25.08 363.58-25.82Q364.34-26.56 365.66-26.56L365.66-26.56Q366.96-26.56 367.73-25.82Q368.51-25.08 368.51-23.94L368.51-23.94Q368.51-22.78 367.73-22.04Q366.94-21.30 365.66-21.30Q364.38-21.30 363.59-22.04Q362.81-22.78 362.81-23.94ZM372.29-19.02L377.07-19.02L377.23-16.82Q379.27-19.37 382.69-19.37L382.69-19.37Q385.72-19.37 387.19-17.60Q388.67-15.82 388.71-12.29L388.71-12.29L388.71 0L383.63 0L383.63-12.16Q383.63-13.78 382.92-14.51Q382.22-15.24 380.58-15.24L380.58-15.24Q378.44-15.24 377.37-13.41L377.37-13.41L377.37 0L372.29 0L372.29-19.02ZM391.82-9.44L391.82-9.65Q391.82-14.03 393.90-16.70Q395.98-19.37 399.52-19.37L399.52-19.37Q402.64-19.37 404.38-17.23L404.38-17.23L404.60-19.02L409.20-19.02L409.20-0.63Q409.20 1.86 408.07 3.71Q406.93 5.55 404.88 6.52Q402.82 7.49 400.06 7.49L400.06 7.49Q397.97 7.49 395.98 6.65Q394.00 5.82 392.98 4.50L392.98 4.50L395.23 1.41Q397.13 3.53 399.83 3.53L399.83 3.53Q401.85 3.53 402.98 2.45Q404.10 1.37 404.10-0.62L404.10-0.62L404.10-1.63Q402.35 0.35 399.48 0.35L399.48 0.35Q396.05 0.35 393.93-2.33Q391.82-5.01 391.82-9.44L391.82-9.44ZM396.90-9.28L396.90-9.28Q396.90-6.70 397.93-5.23Q398.97-3.76 400.78-3.76L400.78-3.76Q403.10-3.76 404.10-5.50L404.10-5.50L404.10-13.50Q403.08-15.24 400.82-15.24L400.82-15.24Q398.99-15.24 397.94-13.75Q396.90-12.25 396.90-9.28Z" transform="translate(620, 500)" fill="#ffffff" /><circle cx="580" cy="565" r="6" fill="#e94560" /><path d="M17.68-14.71L17.68-10.46L7.56-10.46L7.56 0L2.29 0L2.29-25.59L18.95-25.59L18.95-21.32L7.56-21.32L7.56-14.71L17.68-14.71ZM27.04-19.02L27.04 0L21.94 0L21.94-19.02L27.04-19.02ZM21.64-23.94L21.64-23.94Q21.64-25.08 22.40-25.82Q23.17-26.56 24.49-26.56L24.49-26.56Q25.79-26.56 26.56-25.82Q27.33-25.08 27.33-23.94L27.33-23.94Q27.33-22.78 26.55-22.04Q25.77-21.30 24.49-21.30Q23.20-21.30 22.42-22.04Q21.64-22.78 21.64-23.94ZM36.58-27L36.58 0L31.48 0L31.48-27L36.58-27ZM49.52 0.35L49.52 0.35Q45.33 0.35 42.71-2.21Q40.08-4.78 40.08-9.05L40.08-9.05L40.08-9.54Q40.08-12.41 41.19-14.67Q42.29-16.93 44.32-18.15Q46.35-19.37 48.96-19.37L48.96-19.37Q52.86-19.37 55.10-16.91Q57.34-14.45 57.34-9.93L57.34-9.93L57.34-7.86L45.23-7.86Q45.47-5.99 46.71-4.87Q47.95-3.74 49.85-3.74L49.85-3.74Q52.79-3.74 54.44-5.87L54.44-5.87L56.94-3.08Q55.79-1.46 53.84-0.55Q51.89 0.35 49.52 0.35ZM48.94-15.26L48.94-15.26Q47.43-15.26 46.49-14.24Q45.54-13.22 45.28-11.32L45.28-11.32L52.35-11.32L52.35-11.72Q52.31-13.41 51.43-14.33Q50.55-15.26 48.94-15.26ZM69.19-19.02L73.95-19.02L74.11-16.89Q76.13-19.37 79.58-19.37L79.58-19.37Q83.25-19.37 84.62-16.47L84.62-16.47Q86.63-19.37 90.33-19.37L90.33-19.37Q93.43-19.37 94.94-17.57Q96.45-15.77 96.45-12.15L96.45-12.15L96.45 0L91.35 0L91.35-12.13Q91.35-13.75 90.72-14.49Q90.09-15.24 88.49-15.24L88.49-15.24Q86.20-15.24 85.32-13.06L85.32-13.06L85.34 0L80.26 0L80.26-12.11Q80.26-13.76 79.61-14.50Q78.96-15.24 77.40-15.24L77.40-15.24Q75.23-15.24 74.27-13.45L74.27-13.45L74.27 0L69.19 0L69.19-19.02ZM116.51 0L111.38 0Q111.02-0.69 110.87-1.71L110.87-1.71Q109.02 0.35 106.07 0.35L106.07 0.35Q103.27 0.35 101.43-1.27Q99.60-2.88 99.60-5.34L99.60-5.34Q99.60-8.37 101.84-9.98Q104.08-11.60 108.32-11.62L108.32-11.62L110.65-11.62L110.65-12.71Q110.65-14.03 109.98-14.82Q109.30-15.61 107.84-15.61L107.84-15.61Q106.56-15.61 105.83-14.99Q105.10-14.38 105.10-13.31L105.10-13.31L100.02-13.31Q100.02-14.96 101.04-16.37Q102.06-17.77 103.92-18.57Q105.79-19.37 108.11-19.37L108.11-19.37Q111.62-19.37 113.69-17.60Q115.75-15.84 115.75-12.64L115.75-12.64L115.75-4.39Q115.77-1.69 116.51-0.30L116.51-0.30L116.51 0ZM107.17-3.53L107.17-3.53Q108.30-3.53 109.25-4.03Q110.20-4.54 110.65-5.38L110.65-5.38L110.65-8.65L108.76-8.65Q104.94-8.65 104.70-6.01L104.70-6.01L104.68-5.71Q104.68-4.76 105.35-4.15Q106.01-3.53 107.17-3.53ZM119.55-19.02L124.33-19.02L124.49-16.82Q126.53-19.37 129.96-19.37L129.96-19.37Q132.98-19.37 134.46-17.60Q135.93-15.82 135.97-12.29L135.97-12.29L135.97 0L130.89 0L130.89-12.16Q130.89-13.78 130.18-14.51Q129.48-15.24 127.85-15.24L127.85-15.24Q125.70-15.24 124.63-13.41L124.63-13.41L124.63 0L119.55 0L119.55-19.02ZM155.97 0L150.84 0Q150.49-0.69 150.33-1.71L150.33-1.71Q148.48 0.35 145.53 0.35L145.53 0.35Q142.73 0.35 140.90-1.27Q139.06-2.88 139.06-5.34L139.06-5.34Q139.06-8.37 141.30-9.98Q143.54-11.60 147.78-11.62L147.78-11.62L150.12-11.62L150.12-12.71Q150.12-14.03 149.44-14.82Q148.76-15.61 147.30-15.61L147.30-15.61Q146.02-15.61 145.29-14.99Q144.56-14.38 144.56-13.31L144.56-13.31L139.48-13.31Q139.48-14.96 140.50-16.37Q141.52-17.77 143.38-18.57Q145.25-19.37 147.57-19.37L147.57-19.37Q151.08-19.37 153.15-17.60Q155.21-15.84 155.21-12.64L155.21-12.64L155.21-4.39Q155.23-1.69 155.97-0.30L155.97-0.30L155.97 0ZM146.64-3.53L146.64-3.53Q147.76-3.53 148.71-4.03Q149.66-4.54 150.12-5.38L150.12-5.38L150.12-8.65L148.22-8.65Q144.40-8.65 144.16-6.01L144.16-6.01L144.14-5.71Q144.14-4.76 144.81-4.15Q145.48-3.53 146.64-3.53ZM158.38-9.44L158.38-9.65Q158.38-14.03 160.46-16.70Q162.54-19.37 166.08-19.37L166.08-19.37Q169.21-19.37 170.95-17.23L170.95-17.23L171.16-19.02L175.76-19.02L175.76-0.63Q175.76 1.86 174.63 3.71Q173.50 5.55 171.44 6.52Q169.38 7.49 166.62 7.49L166.62 7.49Q164.53 7.49 162.54 6.65Q160.56 5.82 159.54 4.50L159.54 4.50L161.79 1.41Q163.69 3.53 166.39 3.53L166.39 3.53Q168.42 3.53 169.54 2.45Q170.67 1.37 170.67-0.62L170.67-0.62L170.67-1.63Q168.91 0.35 166.04 0.35L166.04 0.35Q162.62 0.35 160.50-2.33Q158.38-5.01 158.38-9.44L158.38-9.44ZM163.46-9.28L163.46-9.28Q163.46-6.70 164.50-5.23Q165.53-3.76 167.34-3.76L167.34-3.76Q169.66-3.76 170.67-5.50L170.67-5.50L170.67-13.50Q169.65-15.24 167.38-15.24L167.38-15.24Q165.55-15.24 164.50-13.75Q163.46-12.25 163.46-9.28ZM188.42 0.35L188.42 0.35Q184.24 0.35 181.61-2.21Q178.98-4.78 178.98-9.05L178.98-9.05L178.98-9.54Q178.98-12.41 180.09-14.67Q181.20-16.93 183.23-18.15Q185.26-19.37 187.86-19.37L187.86-19.37Q191.76-19.37 194.00-16.91Q196.24-14.45 196.24-9.93L196.24-9.93L196.24-7.86L184.13-7.86Q184.38-5.99 185.62-4.87Q186.86-3.74 188.75-3.74L188.75-3.74Q191.69-3.74 193.34-5.87L193.34-5.87L195.84-3.08Q194.70-1.46 192.74-0.55Q190.79 0.35 188.42 0.35ZM187.84-15.26L187.84-15.26Q186.33-15.26 185.39-14.24Q184.45-13.22 184.18-11.32L184.18-11.32L191.25-11.32L191.25-11.72Q191.21-13.41 190.34-14.33Q189.46-15.26 187.84-15.26ZM199.13-19.02L203.89-19.02L204.05-16.89Q206.07-19.37 209.51-19.37L209.51-19.37Q213.19-19.37 214.56-16.47L214.56-16.47Q216.56-19.37 220.27-19.37L220.27-19.37Q223.37-19.37 224.88-17.57Q226.39-15.77 226.39-12.15L226.39-12.15L226.39 0L221.29 0L221.29-12.13Q221.29-13.75 220.66-14.49Q220.03-15.24 218.43-15.24L218.43-15.24Q216.14-15.24 215.26-13.06L215.26-13.06L215.28 0L210.20 0L210.20-12.11Q210.20-13.76 209.55-14.50Q208.90-15.24 207.33-15.24L207.33-15.24Q205.17-15.24 204.21-13.45L204.21-13.45L204.21 0L199.13 0L199.13-19.02ZM239.04 0.35L239.04 0.35Q234.86 0.35 232.23-2.21Q229.61-4.78 229.61-9.05L229.61-9.05L229.61-9.54Q229.61-12.41 230.71-14.67Q231.82-16.93 233.85-18.15Q235.88-19.37 238.48-19.37L238.48-19.37Q242.38-19.37 244.63-16.91Q246.87-14.45 246.87-9.93L246.87-9.93L246.87-7.86L234.76-7.86Q235.00-5.99 236.24-4.87Q237.48-3.74 239.38-3.74L239.38-3.74Q242.31-3.74 243.97-5.87L243.97-5.87L246.46-3.08Q245.32-1.46 243.37-0.55Q241.42 0.35 239.04 0.35ZM238.46-15.26L238.46-15.26Q236.95-15.26 236.01-14.24Q235.07-13.22 234.81-11.32L234.81-11.32L241.88-11.32L241.88-11.72Q241.84-13.41 240.96-14.33Q240.08-15.26 238.46-15.26ZM249.64-19.02L254.43-19.02L254.58-16.82Q256.62-19.37 260.05-19.37L260.05-19.37Q263.07-19.37 264.55-17.60Q266.03-15.82 266.06-12.29L266.06-12.29L266.06 0L260.98 0L260.98-12.16Q260.98-13.78 260.28-14.51Q259.58-15.24 257.94-15.24L257.94-15.24Q255.80-15.24 254.72-13.41L254.72-13.41L254.72 0L249.64 0L249.64-19.02ZM270.91-23.70L275.99-23.70L275.99-19.02L279.25-19.02L279.25-15.29L275.99-15.29L275.99-5.80Q275.99-4.75 276.40-4.29Q276.80-3.83 277.95-3.83L277.95-3.83Q278.79-3.83 279.44-3.96L279.44-3.96L279.44-0.11Q277.95 0.35 276.36 0.35L276.36 0.35Q271.02 0.35 270.91-5.04L270.91-5.04L270.91-15.29L268.14-15.29L268.14-19.02L270.91-19.02L270.91-23.70ZM307.20 0L302.06 0Q301.71-0.69 301.55-1.71L301.55-1.71Q299.71 0.35 296.75 0.35L296.75 0.35Q293.96 0.35 292.12-1.27Q290.29-2.88 290.29-5.34L290.29-5.34Q290.29-8.37 292.53-9.98Q294.77-11.60 299.00-11.62L299.00-11.62L301.34-11.62L301.34-12.71Q301.34-14.03 300.67-14.82Q299.99-15.61 298.53-15.61L298.53-15.61Q297.25-15.61 296.52-14.99Q295.79-14.38 295.79-13.31L295.79-13.31L290.71-13.31Q290.71-14.96 291.73-16.37Q292.75-17.77 294.61-18.57Q296.47-19.37 298.79-19.37L298.79-19.37Q302.31-19.37 304.37-17.60Q306.44-15.84 306.44-12.64L306.44-12.64L306.44-4.39Q306.46-1.69 307.20-0.30L307.20-0.30L307.20 0ZM297.86-3.53L297.86-3.53Q298.99-3.53 299.94-4.03Q300.88-4.54 301.34-5.38L301.34-5.38L301.34-8.65L299.44-8.65Q295.63-8.65 295.38-6.01L295.38-6.01L295.37-5.71Q295.37-4.76 296.03-4.15Q296.70-3.53 297.86-3.53ZM310.24-19.02L315.02-19.02L315.18-16.82Q317.21-19.37 320.64-19.37L320.64-19.37Q323.67-19.37 325.14-17.60Q326.62-15.82 326.65-12.29L326.65-12.29L326.65 0L321.57 0L321.57-12.16Q321.57-13.78 320.87-14.51Q320.17-15.24 318.53-15.24L318.53-15.24Q316.39-15.24 315.32-13.41L315.32-13.41L315.32 0L310.24 0L310.24-19.02ZM329.71-9.65L329.71-9.65Q329.71-14.10 331.71-16.73Q333.70-19.37 337.17-19.37L337.17-19.37Q339.94-19.37 341.75-17.30L341.75-17.30L341.75-27L346.85-27L346.85 0L342.26 0L342.02-2.02Q340.12 0.35 337.13 0.35L337.13 0.35Q333.77 0.35 331.74-2.29Q329.71-4.94 329.71-9.65ZM334.79-9.28L334.79-9.28Q334.79-6.61 335.72-5.19Q336.66-3.76 338.43-3.76L338.43-3.76Q340.79-3.76 341.75-5.75L341.75-5.75L341.75-13.25Q340.80-15.24 338.47-15.24L338.47-15.24Q334.79-15.24 334.79-9.28ZM367.66-3.74L367.66-3.74Q369.07-3.74 369.95-4.52Q370.83-5.29 370.86-6.57L370.86-6.57L375.63-6.57Q375.61-4.64 374.57-3.03Q373.54-1.42 371.73-0.54Q369.93 0.35 367.75 0.35L367.75 0.35Q363.67 0.35 361.32-2.24Q358.96-4.83 358.96-9.40L358.96-9.40L358.96-9.74Q358.96-14.13 361.30-16.75Q363.64-19.37 367.72-19.37L367.72-19.37Q371.29-19.37 373.44-17.34Q375.59-15.31 375.63-11.94L375.63-11.94L370.86-11.94Q370.83-13.41 369.95-14.33Q369.07-15.26 367.63-15.26L367.63-15.26Q365.85-15.26 364.95-13.97Q364.04-12.67 364.04-9.77L364.04-9.77L364.04-9.25Q364.04-6.31 364.94-5.03Q365.84-3.74 367.66-3.74ZM377.74-9.46L377.74-9.69Q377.74-12.52 378.83-14.73Q379.92-16.95 381.96-18.16Q384.01-19.37 386.72-19.37L386.72-19.37Q390.57-19.37 393.00-17.02Q395.44-14.66 395.72-10.62L395.72-10.62L395.75-9.32Q395.75-4.94 393.31-2.29Q390.87 0.35 386.75 0.35Q382.64 0.35 380.19-2.29Q377.74-4.92 377.74-9.46L377.74-9.46ZM382.82-9.32L382.82-9.32Q382.82-6.61 383.84-5.18Q384.86-3.74 386.75-3.74L386.75-3.74Q388.60-3.74 389.64-5.16Q390.67-6.57 390.67-9.69L390.67-9.69Q390.67-12.34 389.64-13.80Q388.60-15.26 386.72-15.26L386.72-15.26Q384.86-15.26 383.84-13.81Q382.82-12.36 382.82-9.32ZM398.09-9.65L398.09-9.65Q398.09-14.10 400.09-16.73Q402.08-19.37 405.54-19.37L405.54-19.37Q408.32-19.37 410.13-17.30L410.13-17.30L410.13-27L415.23-27L415.23 0L410.64 0L410.40-2.02Q408.50 0.35 405.51 0.35L405.51 0.35Q402.15 0.35 400.12-2.29Q398.09-4.94 398.09-9.65ZM403.17-9.28L403.17-9.28Q403.17-6.61 404.10-5.19Q405.04-3.76 406.81-3.76L406.81-3.76Q409.17-3.76 410.13-5.75L410.13-5.75L410.13-13.25Q409.18-15.24 406.85-15.24L406.85-15.24Q403.17-15.24 403.17-9.28ZM427.92 0.35L427.92 0.35Q423.74 0.35 421.11-2.21Q418.48-4.78 418.48-9.05L418.48-9.05L418.48-9.54Q418.48-12.41 419.59-14.67Q420.70-16.93 422.73-18.15Q424.76-19.37 427.36-19.37L427.36-19.37Q431.26-19.37 433.50-16.91Q435.74-14.45 435.74-9.93L435.74-9.93L435.74-7.86L423.63-7.86Q423.88-5.99 425.12-4.87Q426.36-3.74 428.26-3.74L428.26-3.74Q431.19-3.74 432.84-5.87L432.84-5.87L435.34-3.08Q434.20-1.46 432.25-0.55Q430.29 0.35 427.92 0.35ZM427.34-15.26L427.34-15.26Q425.83-15.26 424.89-14.24Q423.95-13.22 423.69-11.32L423.69-11.32L430.75-11.32L430.75-11.72Q430.72-13.41 429.84-14.33Q428.96-15.26 427.34-15.26ZM456.35 0.35L456.35 0.35Q452.16 0.35 449.53-2.21Q446.91-4.78 446.91-9.05L446.91-9.05L446.91-9.54Q446.91-12.41 448.01-14.67Q449.12-16.93 451.15-18.15Q453.18-19.37 455.78-19.37L455.78-19.37Q459.69-19.37 461.93-16.91Q464.17-14.45 464.17-9.93L464.17-9.93L464.17-7.86L452.06-7.86Q452.30-5.99 453.54-4.87Q454.78-3.74 456.68-3.74L456.68-3.74Q459.62-3.74 461.27-5.87L461.27-5.87L463.76-3.08Q462.62-1.46 460.67-0.55Q458.72 0.35 456.35 0.35ZM455.77-15.26L455.77-15.26Q454.25-15.26 453.31-14.24Q452.37-13.22 452.11-11.32L452.11-11.32L459.18-11.32L459.18-11.72Q459.14-13.41 458.26-14.33Q457.38-15.26 455.77-15.26ZM471.16-19.02L474.29-13.34L477.49-19.02L482.92-19.02L477.51-9.70L483.15 0L477.70 0L474.31-5.98L470.94 0L465.47 0L471.11-9.70L465.71-19.02L471.16-19.02ZM494.12 0.35L494.12 0.35Q489.94 0.35 487.31-2.21Q484.68-4.78 484.68-9.05L484.68-9.05L484.68-9.54Q484.68-12.41 485.79-14.67Q486.90-16.93 488.93-18.15Q490.96-19.37 493.56-19.37L493.56-19.37Q497.46-19.37 499.70-16.91Q501.94-14.45 501.94-9.93L501.94-9.93L501.94-7.86L489.83-7.86Q490.08-5.99 491.32-4.87Q492.56-3.74 494.46-3.74L494.46-3.74Q497.39-3.74 499.04-5.87L499.04-5.87L501.54-3.08Q500.40-1.46 498.45-0.55Q496.49 0.35 494.12 0.35ZM493.54-15.26L493.54-15.26Q492.03-15.26 491.09-14.24Q490.15-13.22 489.88-11.32L489.88-11.32L496.95-11.32L496.95-11.72Q496.92-13.41 496.04-14.33Q495.16-15.26 493.54-15.26ZM512.74-3.74L512.74-3.74Q514.14-3.74 515.02-4.52Q515.90-5.29 515.94-6.57L515.94-6.57L520.70-6.57Q520.68-4.64 519.64-3.03Q518.61-1.42 516.81-0.54Q515.00 0.35 512.82 0.35L512.82 0.35Q508.75 0.35 506.39-2.24Q504.04-4.83 504.04-9.40L504.04-9.40L504.04-9.74Q504.04-14.13 506.37-16.75Q508.71-19.37 512.79-19.37L512.79-19.37Q516.36-19.37 518.51-17.34Q520.66-15.31 520.70-11.94L520.70-11.94L515.94-11.94Q515.90-13.41 515.02-14.33Q514.14-15.26 512.70-15.26L512.70-15.26Q510.93-15.26 510.02-13.97Q509.12-12.67 509.12-9.77L509.12-9.77L509.12-9.25Q509.12-6.31 510.01-5.03Q510.91-3.74 512.74-3.74ZM535.13 0L534.99-1.93Q533.11 0.35 529.79 0.35L529.79 0.35Q526.73 0.35 525.12-1.41Q523.51-3.16 523.48-6.56L523.48-6.56L523.48-19.02L528.56-19.02L528.56-6.73Q528.56-3.76 531.26-3.76L531.26-3.76Q533.85-3.76 534.81-5.55L534.81-5.55L534.81-19.02L539.91-19.02L539.91 0L535.13 0ZM544.75-23.70L549.83-23.70L549.83-19.02L553.08-19.02L553.08-15.29L549.83-15.29L549.83-5.80Q549.83-4.75 550.23-4.29Q550.63-3.83 551.78-3.83L551.78-3.83Q552.62-3.83 553.27-3.96L553.27-3.96L553.27-0.11Q551.78 0.35 550.20 0.35L550.20 0.35Q544.85 0.35 544.75-5.04L544.75-5.04L544.75-15.29L541.97-15.29L541.97-19.02L544.75-19.02L544.75-23.70ZM561.27-19.02L561.27 0L556.17 0L556.17-19.02L561.27-19.02ZM555.87-23.94L555.87-23.94Q555.87-25.08 556.64-25.82Q557.40-26.56 558.72-26.56L558.72-26.56Q560.02-26.56 560.79-25.82Q561.57-25.08 561.57-23.94L561.57-23.94Q561.57-22.78 560.79-22.04Q560.00-21.30 558.72-21.30Q557.44-21.30 556.66-22.04Q555.87-22.78 555.87-23.94ZM564.66-9.46L564.66-9.69Q564.66-12.52 565.75-14.73Q566.84-16.95 568.89-18.16Q570.94-19.37 573.64-19.37L573.64-19.37Q577.49-19.37 579.93-17.02Q582.36-14.66 582.64-10.62L582.64-10.62L582.68-9.32Q582.68-4.94 580.24-2.29Q577.79 0.35 573.68 0.35Q569.57 0.35 567.11-2.29Q564.66-4.92 564.66-9.46L564.66-9.46ZM569.74-9.32L569.74-9.32Q569.74-6.61 570.76-5.18Q571.78-3.74 573.68-3.74L573.68-3.74Q575.53-3.74 576.56-5.16Q577.60-6.57 577.60-9.69L577.60-9.69Q577.60-12.34 576.56-13.80Q575.53-15.26 573.64-15.26L573.64-15.26Q571.78-15.26 570.76-13.81Q569.74-12.36 569.74-9.32ZM585.70-19.02L590.48-19.02L590.64-16.82Q592.68-19.37 596.11-19.37L596.11-19.37Q599.13-19.37 600.61-17.60Q602.09-15.82 602.12-12.29L602.12-12.29L602.12 0L597.04 0L597.04-12.16Q597.04-13.78 596.34-14.51Q595.63-15.24 594-15.24L594-15.24Q591.86-15.24 590.78-13.41L590.78-13.41L590.78 0L585.70 0L585.70-19.02Z" transform="translate(620, 565)" fill="#ffffff" /><circle cx="580" cy="630" r="6" fill="#e94560" /><path d="M18.02-25.59L22.22-7.38L25.66-25.59L30.92-25.59L25.24 0L19.93 0L15.77-17.12L11.60 0L6.29 0L0.62-25.59L5.87-25.59L9.33-7.42L13.55-25.59L18.02-25.59ZM42.19 0.35L42.19 0.35Q38.00 0.35 35.38-2.21Q32.75-4.78 32.75-9.05L32.75-9.05L32.75-9.54Q32.75-12.41 33.86-14.67Q34.96-16.93 36.99-18.15Q39.02-19.37 41.63-19.37L41.63-19.37Q45.53-19.37 47.77-16.91Q50.01-14.45 50.01-9.93L50.01-9.93L50.01-7.86L37.90-7.86Q38.14-5.99 39.38-4.87Q40.62-3.74 42.52-3.74L42.52-3.74Q45.46-3.74 47.11-5.87L47.11-5.87L49.61-3.08Q48.46-1.46 46.51-0.55Q44.56 0.35 42.19 0.35ZM41.61-15.26L41.61-15.26Q40.10-15.26 39.16-14.24Q38.21-13.22 37.95-11.32L37.95-11.32L45.02-11.32L45.02-11.72Q44.98-13.41 44.10-14.33Q43.22-15.26 41.61-15.26ZM70.03-9.62L70.03-9.33Q70.03-4.76 68.08-2.21Q66.13 0.35 62.63 0.35L62.63 0.35Q59.54 0.35 57.69-2.02L57.69-2.02L57.46 0L52.89 0L52.89-27L57.97-27L57.97-17.31Q59.73-19.37 62.60-19.37L62.60-19.37Q66.08-19.37 68.05-16.81Q70.03-14.26 70.03-9.62L70.03-9.62ZM64.95-9.70L64.95-9.70Q64.95-12.59 64.04-13.91Q63.12-15.24 61.31-15.24L61.31-15.24Q58.89-15.24 57.97-13.25L57.97-13.25L57.97-5.75Q58.90-3.74 61.35-3.74L61.35-3.74Q63.81-3.74 64.58-6.17L64.58-6.17Q64.95-7.33 64.95-9.70ZM99.26-9.62L99.26-9.33Q99.26-4.76 97.31-2.21Q95.36 0.35 91.86 0.35L91.86 0.35Q88.77 0.35 86.92-2.02L86.92-2.02L86.70 0L82.13 0L82.13-27L87.21-27L87.21-17.31Q88.96-19.37 91.83-19.37L91.83-19.37Q95.31-19.37 97.29-16.81Q99.26-14.26 99.26-9.62L99.26-9.62ZM94.18-9.70L94.18-9.70Q94.18-12.59 93.27-13.91Q92.36-15.24 90.54-15.24L90.54-15.24Q88.12-15.24 87.21-13.25L87.21-13.25L87.21-5.75Q88.14-3.74 90.58-3.74L90.58-3.74Q93.04-3.74 93.81-6.17L93.81-6.17Q94.18-7.33 94.18-9.70ZM113.15-19.14L113.08-14.26Q112.04-14.40 111.25-14.40L111.25-14.40Q108.37-14.40 107.47-12.45L107.47-12.45L107.47 0L102.39 0L102.39-19.02L107.19-19.02L107.33-16.75Q108.86-19.37 111.57-19.37L111.57-19.37Q112.41-19.37 113.15-19.14L113.15-19.14ZM114.73-9.46L114.73-9.69Q114.73-12.52 115.82-14.73Q116.91-16.95 118.96-18.16Q121.01-19.37 123.71-19.37L123.71-19.37Q127.56-19.37 130.00-17.02Q132.43-14.66 132.71-10.62L132.71-10.62L132.75-9.32Q132.75-4.94 130.31-2.29Q127.86 0.35 123.75 0.35Q119.64 0.35 117.18-2.29Q114.73-4.92 114.73-9.46L114.73-9.46ZM119.81-9.32L119.81-9.32Q119.81-6.61 120.83-5.18Q121.85-3.74 123.75-3.74L123.75-3.74Q125.60-3.74 126.63-5.16Q127.67-6.57 127.67-9.69L127.67-9.69Q127.67-12.34 126.63-13.80Q125.60-15.26 123.71-15.26L123.71-15.26Q121.85-15.26 120.83-13.81Q119.81-12.36 119.81-9.32ZM148.96-19.02L152.42-6.91L154.92-19.02L159.82-19.02L154.97 0L150.71 0L147.11-11.97L143.51 0L139.27 0L134.42-19.02L139.32-19.02L141.80-6.93L145.28-19.02L148.96-19.02ZM172.63-5.26L172.63-5.26Q172.63-6.19 171.71-6.72Q170.79-7.26 168.75-7.68L168.75-7.68Q161.96-9.11 161.96-13.45L161.96-13.45Q161.96-15.98 164.07-17.67Q166.17-19.37 169.56-19.37L169.56-19.37Q173.18-19.37 175.35-17.67Q177.52-15.96 177.52-13.24L177.52-13.24L172.44-13.24Q172.44-14.33 171.74-15.04Q171.04-15.75 169.54-15.75L169.54-15.75Q168.26-15.75 167.55-15.17Q166.85-14.59 166.85-13.69L166.85-13.69Q166.85-12.85 167.65-12.33Q168.45-11.81 170.35-11.43Q172.25-11.06 173.55-10.58L173.55-10.58Q177.57-9.11 177.57-5.47L177.57-5.47Q177.57-2.87 175.34-1.26Q173.11 0.35 169.58 0.35L169.58 0.35Q167.19 0.35 165.33-0.50Q163.48-1.35 162.42-2.84Q161.37-4.32 161.37-6.05L161.37-6.05L166.18-6.05Q166.25-4.69 167.19-3.97Q168.12-3.25 169.68-3.25L169.68-3.25Q171.14-3.25 171.89-3.81Q172.63-4.36 172.63-5.26ZM186.21-19.02L186.21 0L181.11 0L181.11-19.02L186.21-19.02ZM180.81-23.94L180.81-23.94Q180.81-25.08 181.57-25.82Q182.34-26.56 183.66-26.56L183.66-26.56Q184.96-26.56 185.73-25.82Q186.50-25.08 186.50-23.94L186.50-23.94Q186.50-22.78 185.72-22.04Q184.94-21.30 183.66-21.30Q182.37-21.30 181.59-22.04Q180.81-22.78 180.81-23.94ZM190.28-19.02L195.06-19.02L195.22-16.82Q197.26-19.37 200.69-19.37L200.69-19.37Q203.71-19.37 205.19-17.60Q206.67-15.82 206.70-12.29L206.70-12.29L206.70 0L201.62 0L201.62-12.16Q201.62-13.78 200.92-14.51Q200.21-15.24 198.58-15.24L198.58-15.24Q196.44-15.24 195.36-13.41L195.36-13.41L195.36 0L190.28 0L190.28-19.02ZM209.81-9.44L209.81-9.65Q209.81-14.03 211.90-16.70Q213.98-19.37 217.51-19.37L217.51-19.37Q220.64-19.37 222.38-17.23L222.38-17.23L222.59-19.02L227.20-19.02L227.20-0.63Q227.20 1.86 226.06 3.71Q224.93 5.55 222.87 6.52Q220.82 7.49 218.06 7.49L218.06 7.49Q215.96 7.49 213.98 6.65Q211.99 5.82 210.97 4.50L210.97 4.50L213.22 1.41Q215.12 3.53 217.83 3.53L217.83 3.53Q219.85 3.53 220.97 2.45Q222.10 1.37 222.10-0.62L222.10-0.62L222.10-1.63Q220.34 0.35 217.48 0.35L217.48 0.35Q214.05 0.35 211.93-2.33Q209.81-5.01 209.81-9.44L209.81-9.44ZM214.89-9.28L214.89-9.28Q214.89-6.70 215.93-5.23Q216.97-3.76 218.78-3.76L218.78-3.76Q221.10-3.76 222.10-5.50L222.10-5.50L222.10-13.50Q221.08-15.24 218.81-15.24L218.81-15.24Q216.98-15.24 215.94-13.75Q214.89-12.25 214.89-9.28ZM256.22 0L251.09 0Q250.73-0.69 250.58-1.71L250.58-1.71Q248.73 0.35 245.78 0.35L245.78 0.35Q242.98 0.35 241.15-1.27Q239.31-2.88 239.31-5.34L239.31-5.34Q239.31-8.37 241.55-9.98Q243.79-11.60 248.03-11.62L248.03-11.62L250.37-11.62L250.37-12.71Q250.37-14.03 249.69-14.82Q249.01-15.61 247.55-15.61L247.55-15.61Q246.27-15.61 245.54-14.99Q244.81-14.38 244.81-13.31L244.81-13.31L239.73-13.31Q239.73-14.96 240.75-16.37Q241.77-17.77 243.63-18.57Q245.50-19.37 247.82-19.37L247.82-19.37Q251.33-19.37 253.40-17.60Q255.46-15.84 255.46-12.64L255.46-12.64L255.46-4.39Q255.48-1.69 256.22-0.30L256.22-0.30L256.22 0ZM246.88-3.53L246.88-3.53Q248.01-3.53 248.96-4.03Q249.91-4.54 250.37-5.38L250.37-5.38L250.37-8.65L248.47-8.65Q244.65-8.65 244.41-6.01L244.41-6.01L244.39-5.71Q244.39-4.76 245.06-4.15Q245.72-3.53 246.88-3.53ZM259.26-19.02L264.04-19.02L264.20-16.82Q266.24-19.37 269.67-19.37L269.67-19.37Q272.69-19.37 274.17-17.60Q275.64-15.82 275.68-12.29L275.68-12.29L275.68 0L270.60 0L270.60-12.16Q270.60-13.78 269.89-14.51Q269.19-15.24 267.56-15.24L267.56-15.24Q265.41-15.24 264.34-13.41L264.34-13.41L264.34 0L259.26 0L259.26-19.02ZM278.74-9.65L278.74-9.65Q278.74-14.10 280.73-16.73Q282.73-19.37 286.19-19.37L286.19-19.37Q288.97-19.37 290.78-17.30L290.78-17.30L290.78-27L295.88-27L295.88 0L291.29 0L291.04-2.02Q289.14 0.35 286.15 0.35L286.15 0.35Q282.80 0.35 280.77-2.29Q278.74-4.94 278.74-9.65ZM283.82-9.28L283.82-9.28Q283.82-6.61 284.75-5.19Q285.68-3.76 287.46-3.76L287.46-3.76Q289.81-3.76 290.78-5.75L290.78-5.75L290.78-13.25Q289.83-15.24 287.49-15.24L287.49-15.24Q283.82-15.24 283.82-9.28ZM319.54-19.14L319.46-14.26Q318.43-14.40 317.64-14.40L317.64-14.40Q314.75-14.40 313.86-12.45L313.86-12.45L313.86 0L308.78 0L308.78-19.02L313.58-19.02L313.72-16.75Q315.25-19.37 317.95-19.37L317.95-19.37Q318.80-19.37 319.54-19.14L319.54-19.14ZM330.66 0.35L330.66 0.35Q326.48 0.35 323.85-2.21Q321.22-4.78 321.22-9.05L321.22-9.05L321.22-9.54Q321.22-12.41 322.33-14.67Q323.44-16.93 325.47-18.15Q327.50-19.37 330.10-19.37L330.10-19.37Q334.00-19.37 336.24-16.91Q338.48-14.45 338.48-9.93L338.48-9.93L338.48-7.86L326.37-7.86Q326.62-5.99 327.86-4.87Q329.10-3.74 331.00-3.74L331.00-3.74Q333.93-3.74 335.58-5.87L335.58-5.87L338.08-3.08Q336.94-1.46 334.99-0.55Q333.04 0.35 330.66 0.35ZM330.08-15.26L330.08-15.26Q328.57-15.26 327.63-14.24Q326.69-13.22 326.43-11.32L326.43-11.32L333.49-11.32L333.49-11.72Q333.46-13.41 332.58-14.33Q331.70-15.26 330.08-15.26ZM351.67-5.26L351.67-5.26Q351.67-6.19 350.75-6.72Q349.82-7.26 347.78-7.68L347.78-7.68Q341.00-9.11 341.00-13.45L341.00-13.45Q341.00-15.98 343.10-17.67Q345.20-19.37 348.59-19.37L348.59-19.37Q352.21-19.37 354.38-17.67Q356.55-15.96 356.55-13.24L356.55-13.24L351.47-13.24Q351.47-14.33 350.77-15.04Q350.07-15.75 348.57-15.75L348.57-15.75Q347.29-15.75 346.59-15.17Q345.88-14.59 345.88-13.69L345.88-13.69Q345.88-12.85 346.68-12.33Q347.48-11.81 349.38-11.43Q351.28-11.06 352.58-10.58L352.58-10.58Q356.61-9.11 356.61-5.47L356.61-5.47Q356.61-2.87 354.38-1.26Q352.14 0.35 348.61 0.35L348.61 0.35Q346.22 0.35 344.36-0.50Q342.51-1.35 341.46-2.84Q340.40-4.32 340.40-6.05L340.40-6.05L345.22-6.05Q345.29-4.69 346.22-3.97Q347.15-3.25 348.71-3.25L348.71-3.25Q350.17-3.25 350.92-3.81Q351.67-4.36 351.67-5.26ZM368.63 0.35L368.63 0.35Q364.45 0.35 361.82-2.21Q359.19-4.78 359.19-9.05L359.19-9.05L359.19-9.54Q359.19-12.41 360.30-14.67Q361.41-16.93 363.44-18.15Q365.47-19.37 368.07-19.37L368.07-19.37Q371.97-19.37 374.21-16.91Q376.45-14.45 376.45-9.93L376.45-9.93L376.45-7.86L364.34-7.86Q364.59-5.99 365.83-4.87Q367.07-3.74 368.96-3.74L368.96-3.74Q371.90-3.74 373.55-5.87L373.55-5.87L376.05-3.08Q374.91-1.46 372.96-0.55Q371.00 0.35 368.63 0.35ZM368.05-15.26L368.05-15.26Q366.54-15.26 365.60-14.24Q364.66-13.22 364.39-11.32L364.39-11.32L371.46-11.32L371.46-11.72Q371.43-13.41 370.55-14.33Q369.67-15.26 368.05-15.26ZM395.49 0L390.36 0Q390.01-0.69 389.85-1.71L389.85-1.71Q388.00 0.35 385.05 0.35L385.05 0.35Q382.25 0.35 380.42-1.27Q378.58-2.88 378.58-5.34L378.58-5.34Q378.58-8.37 380.82-9.98Q383.06-11.60 387.30-11.62L387.30-11.62L389.64-11.62L389.64-12.71Q389.64-14.03 388.96-14.82Q388.28-15.61 386.82-15.61L386.82-15.61Q385.54-15.61 384.81-14.99Q384.08-14.38 384.08-13.31L384.08-13.31L379.00-13.31Q379.00-14.96 380.02-16.37Q381.04-17.77 382.90-18.57Q384.77-19.37 387.09-19.37L387.09-19.37Q390.60-19.37 392.67-17.60Q394.73-15.84 394.73-12.64L394.73-12.64L394.73-4.39Q394.75-1.69 395.49-0.30L395.49-0.30L395.49 0ZM386.16-3.53L386.16-3.53Q387.28-3.53 388.23-4.03Q389.18-4.54 389.64-5.38L389.64-5.38L389.64-8.65L387.74-8.65Q383.92-8.65 383.68-6.01L383.68-6.01L383.66-5.71Q383.66-4.76 384.33-4.15Q385.00-3.53 386.16-3.53ZM409.39-19.14L409.32-14.26Q408.29-14.40 407.50-14.40L407.50-14.40Q404.61-14.40 403.72-12.45L403.72-12.45L403.72 0L398.64 0L398.64-19.02L403.44-19.02L403.58-16.75Q405.11-19.37 407.81-19.37L407.81-19.37Q408.66-19.37 409.39-19.14L409.39-19.14ZM419.68-3.74L419.68-3.74Q421.08-3.74 421.96-4.52Q422.84-5.29 422.88-6.57L422.88-6.57L427.64-6.57Q427.62-4.64 426.59-3.03Q425.55-1.42 423.75-0.54Q421.95 0.35 419.77 0.35L419.77 0.35Q415.69 0.35 413.33-2.24Q410.98-4.83 410.98-9.40L410.98-9.40L410.98-9.74Q410.98-14.13 413.31-16.75Q415.65-19.37 419.73-19.37L419.73-19.37Q423.30-19.37 425.45-17.34Q427.61-15.31 427.64-11.94L427.64-11.94L422.88-11.94Q422.84-13.41 421.96-14.33Q421.08-15.26 419.64-15.26L419.64-15.26Q417.87-15.26 416.96-13.97Q416.06-12.67 416.06-9.77L416.06-9.77L416.06-9.25Q416.06-6.31 416.95-5.03Q417.85-3.74 419.68-3.74ZM435.50-27L435.50-16.95Q437.52-19.37 440.58-19.37L440.58-19.37Q446.77-19.37 446.85-12.18L446.85-12.18L446.85 0L441.77 0L441.77-12.04Q441.77-13.68 441.07-14.46Q440.37-15.24 438.73-15.24L438.73-15.24Q436.50-15.24 435.50-13.52L435.50-13.52L435.50 0L430.42 0L430.42-27L435.50-27Z" transform="translate(620, 630)" fill="#ffffff" /><circle cx="580" cy="695" r="6" fill="#e94560" /><path d="M5.98-25.59L11.74-6.35L17.54-25.59L23.41-25.59L14.50 0L9 0L0.12-25.59L5.98-25.59ZM24.70-9.46L24.70-9.69Q24.70-12.52 25.79-14.73Q26.88-16.95 28.92-18.16Q30.97-19.37 33.68-19.37L33.68-19.37Q37.53-19.37 39.96-17.02Q42.40-14.66 42.68-10.62L42.68-10.62L42.71-9.32Q42.71-4.94 40.27-2.29Q37.83 0.35 33.71 0.35Q29.60 0.35 27.15-2.29Q24.70-4.92 24.70-9.46L24.70-9.46ZM29.78-9.32L29.78-9.32Q29.78-6.61 30.80-5.18Q31.82-3.74 33.71-3.74L33.71-3.74Q35.56-3.74 36.60-5.16Q37.63-6.57 37.63-9.69L37.63-9.69Q37.63-12.34 36.60-13.80Q35.56-15.26 33.68-15.26L33.68-15.26Q31.82-15.26 30.80-13.81Q29.78-12.36 29.78-9.32ZM51.21-19.02L51.21 0L46.11 0L46.11-19.02L51.21-19.02ZM45.81-23.94L45.81-23.94Q45.81-25.08 46.57-25.82Q47.34-26.56 48.66-26.56L48.66-26.56Q49.96-26.56 50.73-25.82Q51.50-25.08 51.50-23.94L51.50-23.94Q51.50-22.78 50.72-22.04Q49.94-21.30 48.66-21.30Q47.37-21.30 46.59-22.04Q45.81-22.78 45.81-23.94ZM63.30-3.74L63.30-3.74Q64.71-3.74 65.58-4.52Q66.46-5.29 66.50-6.57L66.50-6.57L71.26-6.57Q71.24-4.64 70.21-3.03Q69.17-1.42 67.37-0.54Q65.57 0.35 63.39 0.35L63.39 0.35Q59.31 0.35 56.95-2.24Q54.60-4.83 54.60-9.40L54.60-9.40L54.60-9.74Q54.60-14.13 56.94-16.75Q59.27-19.37 63.35-19.37L63.35-19.37Q66.92-19.37 69.07-17.34Q71.23-15.31 71.26-11.94L71.26-11.94L66.50-11.94Q66.46-13.41 65.58-14.33Q64.71-15.26 63.26-15.26L63.26-15.26Q61.49-15.26 60.58-13.97Q59.68-12.67 59.68-9.77L59.68-9.77L59.68-9.25Q59.68-6.31 60.57-5.03Q61.47-3.74 63.30-3.74ZM82.92 0.35L82.92 0.35Q78.73 0.35 76.10-2.21Q73.48-4.78 73.48-9.05L73.48-9.05L73.48-9.54Q73.48-12.41 74.58-14.67Q75.69-16.93 77.72-18.15Q79.75-19.37 82.35-19.37L82.35-19.37Q86.26-19.37 88.50-16.91Q90.74-14.45 90.74-9.93L90.74-9.93L90.74-7.86L78.63-7.86Q78.87-5.99 80.11-4.87Q81.35-3.74 83.25-3.74L83.25-3.74Q86.19-3.74 87.84-5.87L87.84-5.87L90.33-3.08Q89.19-1.46 87.24-0.55Q85.29 0.35 82.92 0.35ZM82.34-15.26L82.34-15.26Q80.82-15.26 79.88-14.24Q78.94-13.22 78.68-11.32L78.68-11.32L85.75-11.32L85.75-11.72Q85.71-13.41 84.83-14.33Q83.95-15.26 82.34-15.26ZM112.89-5.26L112.89-5.26Q112.89-6.19 111.96-6.72Q111.04-7.26 109.00-7.68L109.00-7.68Q102.22-9.11 102.22-13.45L102.22-13.45Q102.22-15.98 104.32-17.67Q106.42-19.37 109.81-19.37L109.81-19.37Q113.43-19.37 115.60-17.67Q117.77-15.96 117.77-13.24L117.77-13.24L112.69-13.24Q112.69-14.33 111.99-15.04Q111.29-15.75 109.79-15.75L109.79-15.75Q108.51-15.75 107.81-15.17Q107.10-14.59 107.10-13.69L107.10-13.69Q107.10-12.85 107.90-12.33Q108.70-11.81 110.60-11.43Q112.50-11.06 113.80-10.58L113.80-10.58Q117.83-9.11 117.83-5.47L117.83-5.47Q117.83-2.87 115.59-1.26Q113.36 0.35 109.83 0.35L109.83 0.35Q107.44 0.35 105.58-0.50Q103.73-1.35 102.67-2.84Q101.62-4.32 101.62-6.05L101.62-6.05L106.44-6.05Q106.51-4.69 107.44-3.97Q108.37-3.25 109.93-3.25L109.93-3.25Q111.39-3.25 112.14-3.81Q112.89-4.36 112.89-5.26ZM124.66-19.02L128.20-7.19L131.71-19.02L137.16-19.02L129.52 2.95L129.09 3.96Q127.39 7.68 123.47 7.68L123.47 7.68Q122.36 7.68 121.22 7.35L121.22 7.35L121.22 3.50L121.99 3.52Q123.43 3.52 124.15 3.08Q124.86 2.64 125.26 1.62L125.26 1.62L125.86 0.05L119.20-19.02L124.66-19.02ZM139.06-19.02L143.84-19.02L144-16.82Q146.04-19.37 149.47-19.37L149.47-19.37Q152.49-19.37 153.97-17.60Q155.44-15.82 155.48-12.29L155.48-12.29L155.48 0L150.40 0L150.40-12.16Q150.40-13.78 149.70-14.51Q148.99-15.24 147.36-15.24L147.36-15.24Q145.21-15.24 144.14-13.41L144.14-13.41L144.14 0L139.06 0L139.06-19.02ZM160.33-23.70L165.41-23.70L165.41-19.02L168.66-19.02L168.66-15.29L165.41-15.29L165.41-5.80Q165.41-4.75 165.81-4.29Q166.22-3.83 167.36-3.83L167.36-3.83Q168.21-3.83 168.86-3.96L168.86-3.96L168.86-0.11Q167.36 0.35 165.78 0.35L165.78 0.35Q160.44 0.35 160.33-5.04L160.33-5.04L160.33-15.29L157.55-15.29L157.55-19.02L160.33-19.02L160.33-23.70ZM176.45-27L176.45-16.95Q178.47-19.37 181.53-19.37L181.53-19.37Q187.72-19.37 187.80-12.18L187.80-12.18L187.80 0L182.72 0L182.72-12.04Q182.72-13.68 182.02-14.46Q181.32-15.24 179.68-15.24L179.68-15.24Q177.45-15.24 176.45-13.52L176.45-13.52L176.45 0L171.37 0L171.37-27L176.45-27ZM200.39 0.35L200.39 0.35Q196.21 0.35 193.58-2.21Q190.95-4.78 190.95-9.05L190.95-9.05L190.95-9.54Q190.95-12.41 192.06-14.67Q193.17-16.93 195.20-18.15Q197.23-19.37 199.83-19.37L199.83-19.37Q203.73-19.37 205.97-16.91Q208.21-14.45 208.21-9.93L208.21-9.93L208.21-7.86L196.10-7.86Q196.35-5.99 197.59-4.87Q198.83-3.74 200.72-3.74L200.72-3.74Q203.66-3.74 205.31-5.87L205.31-5.87L207.81-3.08Q206.67-1.46 204.71-0.55Q202.76 0.35 200.39 0.35ZM199.81-15.26L199.81-15.26Q198.30-15.26 197.36-14.24Q196.42-13.22 196.15-11.32L196.15-11.32L203.22-11.32L203.22-11.72Q203.19-13.41 202.31-14.33Q201.43-15.26 199.81-15.26ZM221.40-5.26L221.40-5.26Q221.40-6.19 220.47-6.72Q219.55-7.26 217.51-7.68L217.51-7.68Q210.73-9.11 210.73-13.45L210.73-13.45Q210.73-15.98 212.83-17.67Q214.93-19.37 218.32-19.37L218.32-19.37Q221.94-19.37 224.11-17.67Q226.28-15.96 226.28-13.24L226.28-13.24L221.20-13.24Q221.20-14.33 220.50-15.04Q219.80-15.75 218.30-15.75L218.30-15.75Q217.02-15.75 216.32-15.17Q215.61-14.59 215.61-13.69L215.61-13.69Q215.61-12.85 216.41-12.33Q217.21-11.81 219.11-11.43Q221.01-11.06 222.31-10.58L222.31-10.58Q226.34-9.11 226.34-5.47L226.34-5.47Q226.34-2.87 224.10-1.26Q221.87 0.35 218.34 0.35L218.34 0.35Q215.95 0.35 214.09-0.50Q212.24-1.35 211.18-2.84Q210.13-4.32 210.13-6.05L210.13-6.05L214.95-6.05Q215.02-4.69 215.95-3.97Q216.88-3.25 218.44-3.25L218.44-3.25Q219.90-3.25 220.65-3.81Q221.40-4.36 221.40-5.26ZM234.97-19.02L234.97 0L229.87 0L229.87-19.02L234.97-19.02ZM229.57-23.94L229.57-23.94Q229.57-25.08 230.33-25.82Q231.10-26.56 232.42-26.56L232.42-26.56Q233.72-26.56 234.49-25.82Q235.27-25.08 235.27-23.94L235.27-23.94Q235.27-22.78 234.48-22.04Q233.70-21.30 232.42-21.30Q231.13-21.30 230.35-22.04Q229.57-22.78 229.57-23.94ZM249.45-5.26L249.45-5.26Q249.45-6.19 248.53-6.72Q247.61-7.26 245.57-7.68L245.57-7.68Q238.78-9.11 238.78-13.45L238.78-13.45Q238.78-15.98 240.88-17.67Q242.98-19.37 246.38-19.37L246.38-19.37Q250.00-19.37 252.17-17.67Q254.34-15.96 254.34-13.24L254.34-13.24L249.26-13.24Q249.26-14.33 248.55-15.04Q247.85-15.75 246.36-15.75L246.36-15.75Q245.07-15.75 244.37-15.17Q243.67-14.59 243.67-13.69L243.67-13.69Q243.67-12.85 244.47-12.33Q245.27-11.81 247.17-11.43Q249.06-11.06 250.37-10.58L250.37-10.58Q254.39-9.11 254.39-5.47L254.39-5.47Q254.39-2.87 252.16-1.26Q249.93 0.35 246.39 0.35L246.39 0.35Q244.00 0.35 242.15-0.50Q240.29-1.35 239.24-2.84Q238.18-4.32 238.18-6.05L238.18-6.05L243-6.05Q243.07-4.69 244.00-3.97Q244.93-3.25 246.50-3.25L246.50-3.25Q247.96-3.25 248.70-3.81Q249.45-4.36 249.45-5.26ZM266.85-9.47L266.85-10.41Q266.85-14.43 267.93-18.07Q269.00-21.71 271.09-24.51Q273.18-27.32 275.63-28.41L275.63-28.41L276.61-25.66Q274.04-23.77 272.60-19.79Q271.16-15.82 271.16-10.51L271.16-10.51L271.16-9.97Q271.16-4.64 272.58-0.65Q274.01 3.34 276.61 5.31L276.61 5.31L275.63 8.00Q273.23 6.93 271.17 4.21Q269.10 1.49 268.01-2.06Q266.92-5.61 266.85-9.47L266.85-9.47ZM298.86-25.59L298.86-21.32L291.02-21.32L291.02 0L285.75 0L285.75-21.32L278.02-21.32L278.02-25.59L298.86-25.59ZM321.13-25.59L321.13-21.32L313.29-21.32L313.29 0L308.02 0L308.02-21.32L300.29-21.32L300.29-25.59L321.13-25.59ZM337.41-6.71L337.41-6.71Q337.41-8.21 336.36-9.01Q335.30-9.81 332.56-10.70Q329.82-11.58 328.22-12.45L328.22-12.45Q323.86-14.80 323.86-18.79L323.86-18.79Q323.86-20.87 325.03-22.49Q326.20-24.12 328.39-25.03Q330.57-25.95 333.30-25.95L333.30-25.95Q336.04-25.95 338.19-24.95Q340.33-23.96 341.52-22.15Q342.70-20.34 342.70-18.04L342.70-18.04L337.43-18.04Q337.43-19.79 336.32-20.77Q335.21-21.74 333.21-21.74L333.21-21.74Q331.28-21.74 330.21-20.93Q329.13-20.11 329.13-18.77L329.13-18.77Q329.13-17.53 330.39-16.68Q331.65-15.84 334.09-15.10L334.09-15.10Q338.59-13.75 340.65-11.74Q342.70-9.74 342.70-6.75L342.70-6.75Q342.70-3.43 340.19-1.54Q337.68 0.35 333.42 0.35L333.42 0.35Q330.47 0.35 328.04-0.73Q325.62-1.81 324.34-3.69Q323.07-5.57 323.07-8.05L323.07-8.05L328.36-8.05Q328.36-3.81 333.42-3.81L333.42-3.81Q335.30-3.81 336.36-4.58Q337.41-5.34 337.41-6.71ZM354.69-10.79L354.69-10.00Q354.69-6.03 353.55-2.36Q352.41 1.32 350.26 4.13Q348.12 6.94 345.67 8.00L345.67 8.00L344.69 5.31Q347.19 3.43 348.63-0.49Q350.07-4.41 350.12-9.51L350.12-9.51L350.12-10.44Q350.12-15.70 348.69-19.71Q347.26-23.71 344.69-25.72L344.69-25.72L345.67-28.41Q348.06-27.37 350.18-24.64Q352.30-21.92 353.47-18.30Q354.64-14.68 354.69-10.79L354.69-10.79Z" transform="translate(620, 695)" fill="#ffffff" /><circle cx="580" cy="760" r="6" fill="#e94560" /><path d="M15.56-6.71L15.56-6.71Q15.56-8.21 14.50-9.01Q13.45-9.81 10.71-10.70Q7.96-11.58 6.36-12.45L6.36-12.45Q2.00-14.80 2.00-18.79L2.00-18.79Q2.00-20.87 3.17-22.49Q4.34-24.12 6.53-25.03Q8.72-25.95 11.44-25.95L11.44-25.95Q14.19-25.95 16.33-24.95Q18.47-23.96 19.66-22.15Q20.85-20.34 20.85-18.04L20.85-18.04L15.57-18.04Q15.57-19.79 14.47-20.77Q13.36-21.74 11.36-21.74L11.36-21.74Q9.42-21.74 8.35-20.93Q7.28-20.11 7.28-18.77L7.28-18.77Q7.28-17.53 8.53-16.68Q9.79-15.84 12.23-15.10L12.23-15.10Q16.73-13.75 18.79-11.74Q20.85-9.74 20.85-6.75L20.85-6.75Q20.85-3.43 18.33-1.54Q15.82 0.35 11.57 0.35L11.57 0.35Q8.61 0.35 6.19-0.73Q3.76-1.81 2.49-3.69Q1.21-5.57 1.21-8.05L1.21-8.05L6.50-8.05Q6.50-3.81 11.57-3.81L11.57-3.81Q13.45-3.81 14.50-4.58Q15.56-5.34 15.56-6.71ZM35.61 0L35.47-1.93Q33.59 0.35 30.27 0.35L30.27 0.35Q27.21 0.35 25.60-1.41Q23.99-3.16 23.96-6.56L23.96-6.56L23.96-19.02L29.04-19.02L29.04-6.73Q29.04-3.76 31.75-3.76L31.75-3.76Q34.33-3.76 35.30-5.55L35.30-5.55L35.30-19.02L40.39-19.02L40.39 0L35.61 0ZM61.37-9.62L61.37-9.33Q61.37-4.76 59.41-2.21Q57.46 0.35 53.96 0.35L53.96 0.35Q50.87 0.35 49.03-2.02L49.03-2.02L48.80 0L44.23 0L44.23-27L49.31-27L49.31-17.31Q51.06-19.37 53.93-19.37L53.93-19.37Q57.41-19.37 59.39-16.81Q61.37-14.26 61.37-9.62L61.37-9.62ZM56.29-9.70L56.29-9.70Q56.29-12.59 55.37-13.91Q54.46-15.24 52.65-15.24L52.65-15.24Q50.22-15.24 49.31-13.25L49.31-13.25L49.31-5.75Q50.24-3.74 52.68-3.74L52.68-3.74Q55.14-3.74 55.92-6.17L55.92-6.17Q56.29-7.33 56.29-9.70ZM74.37-13.01L74.37-8.91L64.48-8.91L64.48-13.01L74.37-13.01ZM94.61 0L89.47 0Q89.12-0.69 88.96-1.71L88.96-1.71Q87.12 0.35 84.16 0.35L84.16 0.35Q81.37 0.35 79.53-1.27Q77.70-2.88 77.70-5.34L77.70-5.34Q77.70-8.37 79.94-9.98Q82.18-11.60 86.41-11.62L86.41-11.62L88.75-11.62L88.75-12.71Q88.75-14.03 88.08-14.82Q87.40-15.61 85.94-15.61L85.94-15.61Q84.66-15.61 83.93-14.99Q83.20-14.38 83.20-13.31L83.20-13.31L78.12-13.31Q78.12-14.96 79.14-16.37Q80.16-17.77 82.02-18.57Q83.88-19.37 86.20-19.37L86.20-19.37Q89.72-19.37 91.78-17.60Q93.85-15.84 93.85-12.64L93.85-12.64L93.85-4.39Q93.87-1.69 94.61-0.30L94.61-0.30L94.61 0ZM85.27-3.53L85.27-3.53Q86.40-3.53 87.35-4.03Q88.29-4.54 88.75-5.38L88.75-5.38L88.75-8.65L86.85-8.65Q83.04-8.65 82.79-6.01L82.79-6.01L82.78-5.71Q82.78-4.76 83.44-4.15Q84.11-3.53 85.27-3.53ZM97.01-9.44L97.01-9.65Q97.01-14.03 99.10-16.70Q101.18-19.37 104.71-19.37L104.71-19.37Q107.84-19.37 109.58-17.23L109.58-17.23L109.79-19.02L114.40-19.02L114.40-0.63Q114.40 1.86 113.26 3.71Q112.13 5.55 110.07 6.52Q108.02 7.49 105.26 7.49L105.26 7.49Q103.17 7.49 101.18 6.65Q99.19 5.82 98.17 4.50L98.17 4.50L100.42 1.41Q102.32 3.53 105.03 3.53L105.03 3.53Q107.05 3.53 108.18 2.45Q109.30 1.37 109.30-0.62L109.30-0.62L109.30-1.63Q107.54 0.35 104.68 0.35L104.68 0.35Q101.25 0.35 99.13-2.33Q97.01-5.01 97.01-9.44L97.01-9.44ZM102.09-9.28L102.09-9.28Q102.09-6.70 103.13-5.23Q104.17-3.76 105.98-3.76L105.98-3.76Q108.30-3.76 109.30-5.50L109.30-5.50L109.30-13.50Q108.28-15.24 106.01-15.24L106.01-15.24Q104.19-15.24 103.14-13.75Q102.09-12.25 102.09-9.28ZM127.05 0.35L127.05 0.35Q122.87 0.35 120.24-2.21Q117.62-4.78 117.62-9.05L117.62-9.05L117.62-9.54Q117.62-12.41 118.72-14.67Q119.83-16.93 121.86-18.15Q123.89-19.37 126.49-19.37L126.49-19.37Q130.39-19.37 132.64-16.91Q134.88-14.45 134.88-9.93L134.88-9.93L134.88-7.86L122.77-7.86Q123.01-5.99 124.25-4.87Q125.49-3.74 127.39-3.74L127.39-3.74Q130.32-3.74 131.98-5.87L131.98-5.87L134.47-3.08Q133.33-1.46 131.38-0.55Q129.43 0.35 127.05 0.35ZM126.47-15.26L126.47-15.26Q124.96-15.26 124.02-14.24Q123.08-13.22 122.82-11.32L122.82-11.32L129.88-11.32L129.88-11.72Q129.85-13.41 128.97-14.33Q128.09-15.26 126.47-15.26ZM137.65-19.02L142.44-19.02L142.59-16.82Q144.63-19.37 148.06-19.37L148.06-19.37Q151.08-19.37 152.56-17.60Q154.04-15.82 154.07-12.29L154.07-12.29L154.07 0L148.99 0L148.99-12.16Q148.99-13.78 148.29-14.51Q147.59-15.24 145.95-15.24L145.95-15.24Q143.81-15.24 142.73-13.41L142.73-13.41L142.73 0L137.65 0L137.65-19.02ZM158.92-23.70L164.00-23.70L164.00-19.02L167.26-19.02L167.26-15.29L164.00-15.29L164.00-5.80Q164.00-4.75 164.41-4.29Q164.81-3.83 165.96-3.83L165.96-3.83Q166.80-3.83 167.45-3.96L167.45-3.96L167.45-0.11Q165.96 0.35 164.37 0.35L164.37 0.35Q159.03 0.35 158.92-5.04L158.92-5.04L158.92-15.29L156.15-15.29L156.15-19.02L158.92-19.02L158.92-23.70ZM189.35-5.26L189.35-5.26Q189.35-6.19 188.43-6.72Q187.51-7.26 185.47-7.68L185.47-7.68Q178.68-9.11 178.68-13.45L178.68-13.45Q178.68-15.98 180.78-17.67Q182.88-19.37 186.28-19.37L186.28-19.37Q189.90-19.37 192.07-17.67Q194.24-15.96 194.24-13.24L194.24-13.24L189.16-13.24Q189.16-14.33 188.46-15.04Q187.75-15.75 186.26-15.75L186.26-15.75Q184.97-15.75 184.27-15.17Q183.57-14.59 183.57-13.69L183.57-13.69Q183.57-12.85 184.37-12.33Q185.17-11.81 187.07-11.43Q188.96-11.06 190.27-10.58L190.27-10.58Q194.29-9.11 194.29-5.47L194.29-5.47Q194.29-2.87 192.06-1.26Q189.83 0.35 186.29 0.35L186.29 0.35Q183.90 0.35 182.05-0.50Q180.19-1.35 179.14-2.84Q178.08-4.32 178.08-6.05L178.08-6.05L182.90-6.05Q182.97-4.69 183.90-3.97Q184.83-3.25 186.40-3.25L186.40-3.25Q187.86-3.25 188.60-3.81Q189.35-4.36 189.35-5.26ZM206.31 0.35L206.31 0.35Q202.13 0.35 199.50-2.21Q196.88-4.78 196.88-9.05L196.88-9.05L196.88-9.54Q196.88-12.41 197.98-14.67Q199.09-16.93 201.12-18.15Q203.15-19.37 205.75-19.37L205.75-19.37Q209.65-19.37 211.90-16.91Q214.14-14.45 214.14-9.93L214.14-9.93L214.14-7.86L202.03-7.86Q202.27-5.99 203.51-4.87Q204.75-3.74 206.65-3.74L206.65-3.74Q209.58-3.74 211.24-5.87L211.24-5.87L213.73-3.08Q212.59-1.46 210.64-0.55Q208.69 0.35 206.31 0.35ZM205.73-15.26L205.73-15.26Q204.22-15.26 203.28-14.24Q202.34-13.22 202.08-11.32L202.08-11.32L209.14-11.32L209.14-11.72Q209.11-13.41 208.23-14.33Q207.35-15.26 205.73-15.26ZM227.32-5.26L227.32-5.26Q227.32-6.19 226.40-6.72Q225.47-7.26 223.44-7.68L223.44-7.68Q216.65-9.11 216.65-13.45L216.65-13.45Q216.65-15.98 218.75-17.67Q220.85-19.37 224.24-19.37L224.24-19.37Q227.87-19.37 230.04-17.67Q232.21-15.96 232.21-13.24L232.21-13.24L227.13-13.24Q227.13-14.33 226.42-15.04Q225.72-15.75 224.23-15.75L224.23-15.75Q222.94-15.75 222.24-15.17Q221.54-14.59 221.54-13.69L221.54-13.69Q221.54-12.85 222.34-12.33Q223.14-11.81 225.04-11.43Q226.93-11.06 228.23-10.58L228.23-10.58Q232.26-9.11 232.26-5.47L232.26-5.47Q232.26-2.87 230.03-1.26Q227.79 0.35 224.26 0.35L224.26 0.35Q221.87 0.35 220.02-0.50Q218.16-1.35 217.11-2.84Q216.05-4.32 216.05-6.05L216.05-6.05L220.87-6.05Q220.94-4.69 221.87-3.97Q222.80-3.25 224.37-3.25L224.37-3.25Q225.83-3.25 226.57-3.81Q227.32-4.36 227.32-5.26ZM245.83-5.26L245.83-5.26Q245.83-6.19 244.91-6.72Q243.98-7.26 241.95-7.68L241.95-7.68Q235.16-9.11 235.16-13.45L235.16-13.45Q235.16-15.98 237.26-17.67Q239.36-19.37 242.75-19.37L242.75-19.37Q246.38-19.37 248.55-17.67Q250.72-15.96 250.72-13.24L250.72-13.24L245.64-13.24Q245.64-14.33 244.93-15.04Q244.23-15.75 242.74-15.75L242.74-15.75Q241.45-15.75 240.75-15.17Q240.05-14.59 240.05-13.69L240.05-13.69Q240.05-12.85 240.85-12.33Q241.65-11.81 243.54-11.43Q245.44-11.06 246.74-10.58L246.74-10.58Q250.77-9.11 250.77-5.47L250.77-5.47Q250.77-2.87 248.54-1.26Q246.30 0.35 242.77 0.35L242.77 0.35Q240.38 0.35 238.53-0.50Q236.67-1.35 235.62-2.84Q234.56-4.32 234.56-6.05L234.56-6.05L239.38-6.05Q239.45-4.69 240.38-3.97Q241.31-3.25 242.88-3.25L242.88-3.25Q244.34-3.25 245.08-3.81Q245.83-4.36 245.83-5.26ZM259.40-19.02L259.40 0L254.30 0L254.30-19.02L259.40-19.02ZM254.00-23.94L254.00-23.94Q254.00-25.08 254.77-25.82Q255.53-26.56 256.85-26.56L256.85-26.56Q258.15-26.56 258.93-25.82Q259.70-25.08 259.70-23.94L259.70-23.94Q259.70-22.78 258.92-22.04Q258.13-21.30 256.85-21.30Q255.57-21.30 254.79-22.04Q254.00-22.78 254.00-23.94ZM262.79-9.46L262.79-9.69Q262.79-12.52 263.88-14.73Q264.97-16.95 267.02-18.16Q269.07-19.37 271.78-19.37L271.78-19.37Q275.63-19.37 278.06-17.02Q280.49-14.66 280.78-10.62L280.78-10.62L280.81-9.32Q280.81-4.94 278.37-2.29Q275.92 0.35 271.81 0.35Q267.70 0.35 265.25-2.29Q262.79-4.92 262.79-9.46L262.79-9.46ZM267.87-9.32L267.87-9.32Q267.87-6.61 268.89-5.18Q269.91-3.74 271.81-3.74L271.81-3.74Q273.66-3.74 274.69-5.16Q275.73-6.57 275.73-9.69L275.73-9.69Q275.73-12.34 274.69-13.80Q273.66-15.26 271.78-15.26L271.78-15.26Q269.91-15.26 268.89-13.81Q267.87-12.36 267.87-9.32ZM283.83-19.02L288.62-19.02L288.77-16.82Q290.81-19.37 294.24-19.37L294.24-19.37Q297.26-19.37 298.74-17.60Q300.22-15.82 300.25-12.29L300.25-12.29L300.25 0L295.17 0L295.17-12.16Q295.17-13.78 294.47-14.51Q293.77-15.24 292.13-15.24L292.13-15.24Q289.99-15.24 288.91-13.41L288.91-13.41L288.91 0L283.83 0L283.83-19.02ZM314.40-5.26L314.40-5.26Q314.40-6.19 313.48-6.72Q312.56-7.26 310.52-7.68L310.52-7.68Q303.73-9.11 303.73-13.45L303.73-13.45Q303.73-15.98 305.83-17.67Q307.93-19.37 311.33-19.37L311.33-19.37Q314.95-19.37 317.12-17.67Q319.29-15.96 319.29-13.24L319.29-13.24L314.21-13.24Q314.21-14.33 313.51-15.04Q312.80-15.75 311.31-15.75L311.31-15.75Q310.03-15.75 309.32-15.17Q308.62-14.59 308.62-13.69L308.62-13.69Q308.62-12.85 309.42-12.33Q310.22-11.81 312.12-11.43Q314.02-11.06 315.32-10.58L315.32-10.58Q319.34-9.11 319.34-5.47L319.34-5.47Q319.34-2.87 317.11-1.26Q314.88 0.35 311.34 0.35L311.34 0.35Q308.95 0.35 307.10-0.50Q305.24-1.35 304.19-2.84Q303.13-4.32 303.13-6.05L303.13-6.05L307.95-6.05Q308.02-4.69 308.95-3.97Q309.88-3.25 311.45-3.25L311.45-3.25Q312.91-3.25 313.66-3.81Q314.40-4.36 314.40-5.26Z" transform="translate(620, 760)" fill="#ffffff" />
  <text x="960" y="1040" font-family="Arial, sans-serif" font-size="20" fill="#666" text-anchor="middle">OpenClaw Documentation</text>
</svg>