<?xml version="1.0" encoding="UTF-8"?>
<svg width="1920" height="1080" xmlns="http://www.w3.org/2000/svg">
  <defs>
    <linearGradient id="bg" x1="0%" y1="0%" x2="100%" y2="100%">
      <stop offset="0%" style="stop-color:#1a1a2e;stop-opacity:1" />
      <stop offset="100%" style="stop-color:#000008;stop-opacity:1" />
    </linearGradient>
    <linearGradient id="accent" x1="0%" y1="0%" x2="100%" y2="0%">
      <stop offset="0%" style="stop-color:#e94560;stop-opacity:1" />
      <stop offset="100%" style="stop-color:#ff92ad;stop-opacity:1" />
    </linearGradient>
    <filter id="glow">
      <feGaussianBlur stdDeviation="3" result="coloredBlur"/>
      <feMerge><feMergeNode in="coloredBlur"/><feMergeNode in="SourceGraphic"/></feMerge>
    </filter>
  </defs>
  <rect width="100%" height="100%" fill="url(#bg)"/>
  <circle cx="1920" cy="0" r="700" fill="#e94560" opacity="0.08"/>
  <circle cx="0" cy="1080" r="500" fill="#ff92ad" opacity="0.06"/>
  <rect width="1920" height="6" fill="url(#accent)"/>
  <path d="M19.95-9.95L26.11-9.95Q25.76-5.13 22.55-2.36Q19.34 0.41 14.09 0.41L14.09 0.41Q8.35 0.41 5.06-3.46Q1.76-7.32 1.76-14.07L1.76-14.07L1.76-15.89Q1.76-20.20 3.28-23.48Q4.80-26.76 7.62-28.52Q10.44-30.27 14.17-30.27L14.17-30.27Q19.34-30.27 22.50-27.50Q25.66-24.73 26.15-19.73L26.15-19.73L20.00-19.73Q19.77-22.62 18.39-23.92Q17.00-25.22 14.17-25.22L14.17-25.22Q11.09-25.22 9.57-23.02Q8.04-20.82 8.00-16.18L8.00-16.18L8.00-13.92Q8.00-9.08 9.46-6.85Q10.93-4.61 14.09-4.61L14.09-4.61Q16.94-4.61 18.34-5.92Q19.75-7.22 19.95-9.95L19.95-9.95ZM35.54-31.50L35.54-19.77Q37.90-22.60 41.47-22.60L41.47-22.60Q48.69-22.60 48.79-14.21L48.79-14.21L48.79 0L42.86 0L42.86-14.05Q42.86-15.96 42.04-16.87Q41.22-17.78 39.31-17.78L39.31-17.78Q36.71-17.78 35.54-15.77L35.54-15.77L35.54 0L29.61 0L29.61-31.50L35.54-31.50ZM72.11 0L66.12 0Q65.71-0.80 65.52-1.99L65.52-1.99Q63.37 0.41 59.92 0.41L59.92 0.41Q56.66 0.41 54.52-1.48Q52.38-3.36 52.38-6.23L52.38-6.23Q52.38-9.76 54.99-11.65Q57.61-13.54 62.55-13.56L62.55-13.56L65.28-13.56L65.28-14.83Q65.28-16.37 64.49-17.29Q63.70-18.21 62.00-18.21L62.00-18.21Q60.50-18.21 59.65-17.49Q58.80-16.78 58.80-15.52L58.80-15.52L52.87-15.52Q52.87-17.45 54.06-19.09Q55.25-20.73 57.42-21.67Q59.60-22.60 62.30-22.60L62.30-22.60Q66.40-22.60 68.81-20.54Q71.22-18.48 71.22-14.75L71.22-14.75L71.22-5.13Q71.24-1.97 72.11-0.35L72.11-0.35L72.11 0ZM61.22-4.12L61.22-4.12Q62.53-4.12 63.64-4.71Q64.74-5.29 65.28-6.28L65.28-6.28L65.28-10.09L63.06-10.09Q58.61-10.09 58.32-7.01L58.32-7.01L58.30-6.67Q58.30-5.56 59.08-4.84Q59.86-4.12 61.22-4.12ZM75.65-22.19L81.23-22.19L81.42-19.63Q83.79-22.60 87.79-22.60L87.79-22.60Q91.32-22.60 93.04-20.53Q94.77-18.46 94.81-14.33L94.81-14.33L94.81 0L88.88 0L88.88-14.19Q88.88-16.08 88.06-16.93Q87.24-17.78 85.33-17.78L85.33-17.78Q82.83-17.78 81.58-15.65L81.58-15.65L81.58 0L75.65 0L75.65-22.19ZM116.98-9.95L123.13-9.95Q122.78-5.13 119.57-2.36Q116.36 0.41 111.11 0.41L111.11 0.41Q105.37 0.41 102.08-3.46Q98.79-7.32 98.79-14.07L98.79-14.07L98.79-15.89Q98.79-20.20 100.30-23.48Q101.82-26.76 104.64-28.52Q107.46-30.27 111.19-30.27L111.19-30.27Q116.36-30.27 119.52-27.50Q122.68-24.73 123.17-19.73L123.17-19.73L117.02-19.73Q116.79-22.62 115.41-23.92Q114.02-25.22 111.19-25.22L111.19-25.22Q108.12-25.22 106.59-23.02Q105.06-20.82 105.02-16.18L105.02-16.18L105.02-13.92Q105.02-9.08 106.49-6.85Q107.95-4.61 111.11-4.61L111.11-4.61Q113.96-4.61 115.37-5.92Q116.77-7.22 116.98-9.95L116.98-9.95ZM133.03-31.50L133.03 0L127.09 0L127.09-31.50L133.03-31.50ZM156.76 0L150.77 0Q150.36-0.80 150.18-1.99L150.18-1.99Q148.03 0.41 144.58 0.41L144.58 0.41Q141.32 0.41 139.18-1.48Q137.03-3.36 137.03-6.23L137.03-6.23Q137.03-9.76 139.65-11.65Q142.26-13.54 147.21-13.56L147.21-13.56L149.93-13.56L149.93-14.83Q149.93-16.37 149.14-17.29Q148.35-18.21 146.65-18.21L146.65-18.21Q145.15-18.21 144.30-17.49Q143.45-16.78 143.45-15.52L143.45-15.52L137.53-15.52Q137.53-17.45 138.71-19.09Q139.90-20.73 142.08-21.67Q144.25-22.60 146.96-22.60L146.96-22.60Q151.06-22.60 153.47-20.54Q155.88-18.48 155.88-14.75L155.88-14.75L155.88-5.13Q155.90-1.97 156.76-0.35L156.76-0.35L156.76 0ZM145.87-4.12L145.87-4.12Q147.18-4.12 148.29-4.71Q149.40-5.29 149.93-6.28L149.93-6.28L149.93-10.09L147.72-10.09Q143.27-10.09 142.98-7.01L142.98-7.01L142.96-6.67Q142.96-5.56 143.74-4.84Q144.52-4.12 145.87-4.12ZM175.69-22.19L179.73-8.06L182.64-22.19L188.36-22.19L182.70 0L177.74 0L173.54-13.97L169.33 0L164.39 0L158.73-22.19L164.45-22.19L167.34-8.08L171.40-22.19L175.69-22.19Z" transform="translate(50, 70)" fill="#e94560" />
  <text x="1870" y="70" font-family="Arial, sans-serif" font-size="24" fill="#888" text-anchor="end">7 / 10</text>
  <path d="M31.11-13.43L31.11-13.43Q31.11-16.42 29.00-18.02Q26.89-19.62 21.41-21.39Q15.93-23.17 12.73-24.89L12.73-24.89Q4.01-29.60 4.01-37.58L4.01-37.58Q4.01-41.73 6.35-44.98Q8.68-48.23 13.06-50.06Q17.44-51.89 22.89-51.89L22.89-51.89Q28.37-51.89 32.66-49.90Q36.95-47.92 39.32-44.30Q41.70-40.68 41.70-36.07L41.70-36.07L31.15-36.07Q31.15-39.59 28.93-41.54Q26.72-43.49 22.71-43.49L22.71-43.49Q18.84-43.49 16.70-41.85Q14.55-40.22 14.55-37.55L14.55-37.55Q14.55-35.05 17.07-33.36Q19.58-31.68 24.47-30.20L24.47-30.20Q33.47-27.49 37.58-23.48Q41.70-19.48 41.70-13.50L41.70-13.50Q41.70-6.86 36.67-3.08Q31.64 0.70 23.13 0.70L23.13 0.70Q17.23 0.70 12.38-1.46Q7.52-3.62 4.97-7.38Q2.43-11.14 2.43-16.10L2.43-16.10L13.01-16.10Q13.01-7.63 23.13-7.63L23.13-7.63Q26.89-7.63 29.00-9.16Q31.11-10.69 31.11-13.43ZM65.67 0.70L65.67 0.70Q57.30 0.70 52.05-4.43Q46.79-9.56 46.79-18.11L46.79-18.11L46.79-19.09Q46.79-24.82 49.01-29.34Q51.22-33.86 55.28-36.30Q59.34-38.74 64.55-38.74L64.55-38.74Q72.35-38.74 76.83-33.82Q81.32-28.90 81.32-19.86L81.32-19.86L81.32-15.71L57.09-15.71Q57.59-11.99 60.06-9.74Q62.54-7.49 66.34-7.49L66.34-7.49Q72.21-7.49 75.52-11.74L75.52-11.74L80.51-6.15Q78.22-2.92 74.32-1.11Q70.42 0.70 65.67 0.70ZM64.51-30.52L64.51-30.52Q61.49-30.52 59.61-28.48Q57.73-26.44 57.20-22.64L57.20-22.64L71.33-22.64L71.33-23.45Q71.26-26.82 69.50-28.67Q67.75-30.52 64.51-30.52ZM108.60-38.29L108.46-28.51Q106.38-28.79 104.80-28.79L104.80-28.79Q99.04-28.79 97.24-24.89L97.24-24.89L97.24 0L87.08 0L87.08-38.04L96.68-38.04L96.96-33.50Q100.02-38.74 105.43-38.74L105.43-38.74Q107.12-38.74 108.60-38.29L108.60-38.29ZM120.52-38.04L127.58-12.41L134.65-38.04L145.27-38.04L132.43 0L122.73 0L109.90-38.04L120.52-38.04ZM167.24 0.70L167.24 0.70Q158.87 0.70 153.62-4.43Q148.36-9.56 148.36-18.11L148.36-18.11L148.36-19.09Q148.36-24.82 150.57-29.34Q152.79-33.86 156.85-36.30Q160.91-38.74 166.11-38.74L166.11-38.74Q173.92-38.74 178.40-33.82Q182.88-28.90 182.88-19.86L182.88-19.86L182.88-15.71L158.66-15.71Q159.15-11.99 161.63-9.74Q164.11-7.49 167.91-7.49L167.91-7.49Q173.78-7.49 177.08-11.74L177.08-11.74L182.07-6.15Q179.79-2.92 175.89-1.11Q171.98 0.70 167.24 0.70ZM166.08-30.52L166.08-30.52Q163.05-30.52 161.17-28.48Q159.29-26.44 158.77-22.64L158.77-22.64L172.90-22.64L172.90-23.45Q172.83-26.82 171.07-28.67Q169.31-30.52 166.08-30.52ZM210.16-38.29L210.02-28.51Q207.95-28.79 206.37-28.79L206.37-28.79Q200.60-28.79 198.81-24.89L198.81-24.89L198.81 0L188.65 0L188.65-38.04L198.25-38.04L198.53-33.50Q201.59-38.74 207-38.74L207-38.74Q208.69-38.74 210.16-38.29L210.16-38.29ZM244.72-51.19L244.72 0L234.18 0L234.18-51.19L244.72-51.19ZM253.62-38.04L263.18-38.04L263.50-33.64Q267.57-38.74 274.43-38.74L274.43-38.74Q280.48-38.74 283.43-35.19Q286.38-31.64 286.45-24.57L286.45-24.57L286.45 0L276.29 0L276.29-24.33Q276.29-27.56 274.89-29.02Q273.48-30.48 270.21-30.48L270.21-30.48Q265.92-30.48 263.78-26.82L263.78-26.82L263.78 0L253.62 0L253.62-38.04ZM296.16-47.39L306.32-47.39L306.32-38.04L312.82-38.04L312.82-30.59L306.32-30.59L306.32-11.60Q306.32-9.49 307.13-8.58Q307.93-7.66 310.22-7.66L310.22-7.66Q311.91-7.66 313.21-7.91L313.21-7.91L313.21-0.21Q310.22 0.70 307.05 0.70L307.05 0.70Q296.37 0.70 296.16-10.09L296.16-10.09L296.16-30.59L290.60-30.59L290.60-38.04L296.16-38.04L296.16-47.39ZM335.99 0.70L335.99 0.70Q327.62 0.70 322.37-4.43Q317.11-9.56 317.11-18.11L317.11-18.11L317.11-19.09Q317.11-24.82 319.32-29.34Q321.54-33.86 325.60-36.30Q329.66-38.74 334.86-38.74L334.86-38.74Q342.67-38.74 347.15-33.82Q351.63-28.90 351.63-19.86L351.63-19.86L351.63-15.71L327.41-15.71Q327.90-11.99 330.38-9.74Q332.86-7.49 336.66-7.49L336.66-7.49Q342.53-7.49 345.83-11.74L345.83-11.74L350.82-6.15Q348.54-2.92 344.64-1.11Q340.73 0.70 335.99 0.70ZM334.83-30.52L334.83-30.52Q331.80-30.52 329.92-28.48Q328.04-26.44 327.52-22.64L327.52-22.64L341.65-22.64L341.65-23.45Q341.58-26.82 339.82-28.67Q338.06-30.52 334.83-30.52ZM355.92-18.88L355.92-19.30Q355.92-28.05 360.09-33.40Q364.25-38.74 371.32-38.74L371.32-38.74Q377.58-38.74 381.06-34.45L381.06-34.45L381.48-38.04L390.69-38.04L390.69-1.27Q390.69 3.73 388.42 7.42Q386.16 11.11 382.04 13.04Q377.93 14.98 372.41 14.98L372.41 14.98Q368.23 14.98 364.25 13.31Q360.28 11.64 358.24 9L358.24 9L362.74 2.81Q366.54 7.07 371.95 7.07L371.95 7.07Q376.00 7.07 378.25 4.90Q380.50 2.74 380.50-1.23L380.50-1.23L380.50-3.27Q376.98 0.70 371.25 0.70L371.25 0.70Q364.39 0.70 360.16-4.66Q355.92-10.02 355.92-18.88L355.92-18.88ZM366.08-18.56L366.08-18.56Q366.08-13.39 368.16-10.46Q370.23-7.52 373.85-7.52L373.85-7.52Q378.49-7.52 380.50-11.00L380.50-11.00L380.50-27Q378.46-30.48 373.92-30.48L373.92-30.48Q370.27-30.48 368.17-27.49Q366.08-24.50 366.08-18.56ZM420.01-38.29L419.87-28.51Q417.80-28.79 416.21-28.79L416.21-28.79Q410.45-28.79 408.66-24.89L408.66-24.89L408.66 0L398.50 0L398.50-38.04L408.09-38.04L408.38-33.50Q411.43-38.74 416.85-38.74L416.85-38.74Q418.54-38.74 420.01-38.29L420.01-38.29ZM457.07 0L446.80 0Q446.10-1.37 445.78-3.41L445.78-3.41Q442.09 0.70 436.18 0.70L436.18 0.70Q430.59 0.70 426.92-2.53Q423.25-5.77 423.25-10.69L423.25-10.69Q423.25-16.73 427.73-19.97Q432.21-23.20 440.68-23.24L440.68-23.24L445.36-23.24L445.36-25.42Q445.36-28.05 444.01-29.64Q442.65-31.22 439.73-31.22L439.73-31.22Q437.17-31.22 435.71-29.99Q434.25-28.76 434.25-26.61L434.25-26.61L424.09-26.61Q424.09-29.92 426.13-32.73Q428.17-35.54 431.89-37.14Q435.62-38.74 440.26-38.74L440.26-38.74Q447.29-38.74 451.42-35.21Q455.55-31.68 455.55-25.28L455.55-25.28L455.55-8.79Q455.59-3.38 457.07-0.60L457.07-0.60L457.07 0ZM438.40-7.07L438.40-7.07Q440.65-7.07 442.55-8.07Q444.45-9.07 445.36-10.76L445.36-10.76L445.36-17.30L441.56-17.30Q433.93-17.30 433.44-12.02L433.44-12.02L433.41-11.43Q433.41-9.53 434.74-8.30Q436.08-7.07 438.40-7.07ZM465.36-47.39L475.52-47.39L475.52-38.04L482.03-38.04L482.03-30.59L475.52-30.59L475.52-11.60Q475.52-9.49 476.33-8.58Q477.14-7.66 479.43-7.66L479.43-7.66Q481.11-7.66 482.41-7.91L482.41-7.91L482.41-0.21Q479.43 0.70 476.26 0.70L476.26 0.70Q465.57 0.70 465.36-10.09L465.36-10.09L465.36-30.59L459.81-30.59L459.81-38.04L465.36-38.04L465.36-47.39ZM498.41-38.04L498.41 0L488.21 0L488.21-38.04L498.41-38.04ZM487.62-47.88L487.62-47.88Q487.62-50.17 489.15-51.64Q490.68-53.12 493.31-53.12L493.31-53.12Q495.91-53.12 497.46-51.64Q499.01-50.17 499.01-47.88L499.01-47.88Q499.01-45.56 497.44-44.09Q495.88-42.61 493.31-42.61Q490.75-42.61 489.18-44.09Q487.62-45.56 487.62-47.88ZM505.20-18.91L505.20-19.37Q505.20-25.03 507.38-29.46Q509.55-33.89 513.65-36.32Q517.75-38.74 523.16-38.74L523.16-38.74Q530.86-38.74 535.73-34.03Q540.60-29.32 541.16-21.23L541.16-21.23L541.23-18.63Q541.23-9.88 536.34-4.59Q531.46 0.70 523.23 0.70Q515.00 0.70 510.10-4.57Q505.20-9.84 505.20-18.91L505.20-18.91ZM515.36-18.63L515.36-18.63Q515.36-13.22 517.39-10.35Q519.43-7.49 523.23-7.49L523.23-7.49Q526.92-7.49 529.00-10.32Q531.07-13.15 531.07-19.37L531.07-19.37Q531.07-24.68 529.00-27.60Q526.92-30.52 523.16-30.52L523.16-30.52Q519.43-30.52 517.39-27.62Q515.36-24.71 515.36-18.63ZM547.28-38.04L556.84-38.04L557.16-33.64Q561.23-38.74 568.09-38.74L568.09-38.74Q574.14-38.74 577.09-35.19Q580.04-31.64 580.11-24.57L580.11-24.57L580.11 0L569.95 0L569.95-24.33Q569.95-27.56 568.55-29.02Q567.14-30.48 563.87-30.48L563.87-30.48Q559.58-30.48 557.44-26.82L557.44-26.82L557.44 0L547.28 0L547.28-38.04Z" transform="translate(668.044921875, 380)" fill="#ffffff" />
  <line x1="760" y1="430" x2="1160" y2="430" stroke="#e94560" stroke-width="4"/>
  <circle cx="580" cy="500" r="6" fill="#e94560" /><path d="M16.56 0L11.76-9.37L7.56-9.37L7.56 0L2.29 0L2.29-25.59L11.79-25.59Q16.33-25.59 18.79-23.57Q21.25-21.55 21.25-17.86L21.25-17.86Q21.25-15.24 20.12-13.49Q18.98-11.74 16.68-10.71L16.68-10.71L22.22-0.25L22.22 0L16.56 0ZM7.56-21.32L7.56-13.64L11.81-13.64Q13.80-13.64 14.89-14.65Q15.98-15.66 15.98-17.44L15.98-17.44Q15.98-19.25 14.95-20.29Q13.92-21.32 11.79-21.32L11.79-21.32L7.56-21.32ZM36.46 0L36.32-1.93Q34.44 0.35 31.11 0.35L31.11 0.35Q28.05 0.35 26.45-1.41Q24.84-3.16 24.80-6.56L24.80-6.56L24.80-19.02L29.88-19.02L29.88-6.73Q29.88-3.76 32.59-3.76L32.59-3.76Q35.17-3.76 36.14-5.55L36.14-5.55L36.14-19.02L41.24-19.02L41.24 0L36.46 0ZM44.96-19.02L49.75-19.02L49.90-16.82Q51.94-19.37 55.37-19.37L55.37-19.37Q58.39-19.37 59.87-17.60Q61.35-15.82 61.38-12.29L61.38-12.29L61.38 0L56.30 0L56.30-12.16Q56.30-13.78 55.60-14.51Q54.90-15.24 53.26-15.24L53.26-15.24Q51.12-15.24 50.04-13.41L50.04-13.41L50.04 0L44.96 0L44.96-19.02ZM75.53-5.26L75.53-5.26Q75.53-6.19 74.61-6.72Q73.69-7.26 71.65-7.68L71.65-7.68Q64.86-9.11 64.86-13.45L64.86-13.45Q64.86-15.98 66.96-17.67Q69.06-19.37 72.46-19.37L72.46-19.37Q76.08-19.37 78.25-17.67Q80.42-15.96 80.42-13.24L80.42-13.24L75.34-13.24Q75.34-14.33 74.64-15.04Q73.93-15.75 72.44-15.75L72.44-15.75Q71.16-15.75 70.45-15.17Q69.75-14.59 69.75-13.69L69.75-13.69Q69.75-12.85 70.55-12.33Q71.35-11.81 73.25-11.43Q75.15-11.06 76.45-10.58L76.45-10.58Q80.47-9.11 80.47-5.47L80.47-5.47Q80.47-2.87 78.24-1.26Q76.01 0.35 72.47 0.35L72.47 0.35Q70.08 0.35 68.23-0.50Q66.38-1.35 65.32-2.84Q64.27-4.32 64.27-6.05L64.27-6.05L69.08-6.05Q69.15-4.69 70.08-3.97Q71.02-3.25 72.58-3.25L72.58-3.25Q74.04-3.25 74.79-3.81Q75.53-4.36 75.53-5.26ZM91.92-9.46L91.92-9.69Q91.92-12.52 93.01-14.73Q94.10-16.95 96.14-18.16Q98.19-19.37 100.90-19.37L100.90-19.37Q104.75-19.37 107.18-17.02Q109.62-14.66 109.90-10.62L109.90-10.62L109.93-9.32Q109.93-4.94 107.49-2.29Q105.05 0.35 100.93 0.35Q96.82 0.35 94.37-2.29Q91.92-4.92 91.92-9.46L91.92-9.46ZM97.00-9.32L97.00-9.32Q97.00-6.61 98.02-5.18Q99.04-3.74 100.93-3.74L100.93-3.74Q102.78-3.74 103.82-5.16Q104.85-6.57 104.85-9.69L104.85-9.69Q104.85-12.34 103.82-13.80Q102.78-15.26 100.90-15.26L100.90-15.26Q99.04-15.26 98.02-13.81Q97.00-12.36 97.00-9.32ZM112.96-19.02L117.74-19.02L117.90-16.82Q119.94-19.37 123.36-19.37L123.36-19.37Q126.39-19.37 127.86-17.60Q129.34-15.82 129.38-12.29L129.38-12.29L129.38 0L124.29 0L124.29-12.16Q124.29-13.78 123.59-14.51Q122.89-15.24 121.25-15.24L121.25-15.24Q119.11-15.24 118.04-13.41L118.04-13.41L118.04 0L112.96 0L112.96-19.02ZM147.80-25.59L147.80-4.24L158.99-4.24L158.99 0L142.52 0L142.52-25.59L147.80-25.59ZM167.04-19.02L167.04 0L161.95 0L161.95-19.02L167.04-19.02ZM161.65-23.94L161.65-23.94Q161.65-25.08 162.41-25.82Q163.18-26.56 164.50-26.56L164.50-26.56Q165.80-26.56 166.57-25.82Q167.34-25.08 167.34-23.94L167.34-23.94Q167.34-22.78 166.56-22.04Q165.78-21.30 164.50-21.30Q163.21-21.30 162.43-22.04Q161.65-22.78 161.65-23.94ZM171.12-19.02L175.90-19.02L176.06-16.82Q178.10-19.37 181.53-19.37L181.53-19.37Q184.55-19.37 186.03-17.60Q187.51-15.82 187.54-12.29L187.54-12.29L187.54 0L182.46 0L182.46-12.16Q182.46-13.78 181.76-14.51Q181.05-15.24 179.42-15.24L179.42-15.24Q177.28-15.24 176.20-13.41L176.20-13.41L176.20 0L171.12 0L171.12-19.02ZM202.92 0L202.78-1.93Q200.90 0.35 197.58 0.35L197.58 0.35Q194.52 0.35 192.91-1.41Q191.30-3.16 191.27-6.56L191.27-6.56L191.27-19.02L196.35-19.02L196.35-6.73Q196.35-3.76 199.05-3.76L199.05-3.76Q201.64-3.76 202.61-5.55L202.61-5.55L202.61-19.02L207.70-19.02L207.70 0L202.92 0ZM215.65-19.02L218.78-13.34L221.98-19.02L227.41-19.02L221.99-9.70L227.64 0L222.19 0L218.79-5.98L215.42 0L209.95 0L215.60-9.70L210.20-19.02L215.65-19.02ZM239.04-9.47L239.04-10.41Q239.04-14.43 240.12-18.07Q241.19-21.71 243.28-24.51Q245.37-27.32 247.82-28.41L247.82-28.41L248.80-25.66Q246.23-23.77 244.79-19.79Q243.35-15.82 243.35-10.51L243.35-10.51L243.35-9.97Q243.35-4.64 244.78-0.65Q246.20 3.34 248.80 5.31L248.80 5.31L247.82 8.00Q245.43 6.93 243.36 4.21Q241.29 1.49 240.21-2.06Q239.12-5.61 239.04-9.47L239.04-9.47ZM255.57-19.02L258.70-13.34L261.90-19.02L267.33-19.02L261.91-9.70L267.56 0L262.11 0L258.71-5.98L255.34 0L249.87 0L255.52-9.70L250.12-19.02L255.57-19.02ZM282.50-25.86L283.34-25.86L283.34-21.67L282.85-21.67Q279.40-21.62 277.30-19.88Q275.20-18.14 274.78-15.05L274.78-15.05Q276.82-17.12 279.93-17.12L279.93-17.12Q283.27-17.12 285.24-14.73Q287.21-12.34 287.21-8.44L287.21-8.44Q287.21-5.94 286.13-3.92Q285.05-1.90 283.07-0.77Q281.09 0.35 278.60 0.35L278.60 0.35Q274.55 0.35 272.07-2.46Q269.58-5.27 269.58-9.97L269.58-9.97L269.58-11.79Q269.58-15.96 271.15-19.15Q272.72-22.34 275.67-24.09Q278.61-25.84 282.50-25.86L282.50-25.86ZM278.38-13.04L278.38-13.04Q277.15-13.04 276.15-12.40Q275.15-11.76 274.68-10.71L274.68-10.71L274.68-9.16Q274.68-6.61 275.68-5.18Q276.68-3.74 278.49-3.74L278.49-3.74Q280.13-3.74 281.14-5.04Q282.15-6.33 282.15-8.38L282.15-8.38Q282.15-10.48 281.13-11.76Q280.11-13.04 278.38-13.04ZM305.24-25.59L305.24-9.63L308.14-9.63L308.14-5.54L305.24-5.54L305.24 0L300.16 0L300.16-5.54L289.67-5.54L289.44-8.74L300.11-25.59L305.24-25.59ZM299.83-18.09L294.50-9.63L300.16-9.63L300.16-18.67L299.83-18.09ZM312.40 6.42L312.40 6.42L309.74 5.03L310.38 3.88Q311.55 1.74 311.59-0.39L311.59-0.39L311.59-4.32L315.88-4.32L315.86-0.81Q315.84 1.14 314.88 3.13Q313.91 5.12 312.40 6.42ZM345.39 0L343.62-5.27L334.37-5.27L332.61 0L327.01 0L336.53-25.59L341.42-25.59L351 0L345.39 0ZM338.98-19.13L335.79-9.54L342.19-9.54L338.98-19.13ZM367.66 0L362.87-9.37L358.66-9.37L358.66 0L353.39 0L353.39-25.59L362.90-25.59Q367.44-25.59 369.90-23.57Q372.36-21.55 372.36-17.86L372.36-17.86Q372.36-15.24 371.22-13.49Q370.09-11.74 367.79-10.71L367.79-10.71L373.32-0.25L373.32 0L367.66 0ZM358.66-21.32L358.66-13.64L362.92-13.64Q364.90-13.64 365.99-14.65Q367.08-15.66 367.08-17.44L367.08-17.44Q367.08-19.25 366.06-20.29Q365.03-21.32 362.90-21.32L362.90-21.32L358.66-21.32ZM376.37-25.59L383.26-25.59L389.83-7.03L396.37-25.59L403.29-25.59L403.29 0L398.00 0L398.00-7.00L398.53-19.07L391.62 0L388.00 0L381.11-19.05L381.64-7.00L381.64 0L376.37 0L376.37-25.59ZM420.29-25.86L421.14-25.86L421.14-21.67L420.64-21.67Q417.20-21.62 415.10-19.88Q413.00-18.14 412.58-15.05L412.58-15.05Q414.62-17.12 417.73-17.12L417.73-17.12Q421.07-17.12 423.04-14.73Q425.00-12.34 425.00-8.44L425.00-8.44Q425.00-5.94 423.92-3.92Q422.84-1.90 420.86-0.77Q418.89 0.35 416.39 0.35L416.39 0.35Q412.35 0.35 409.86-2.46Q407.37-5.27 407.37-9.97L407.37-9.97L407.37-11.79Q407.37-15.96 408.95-19.15Q410.52-22.34 413.46-24.09Q416.41-25.84 420.29-25.86L420.29-25.86ZM416.18-13.04L416.18-13.04Q414.95-13.04 413.95-12.40Q412.95-11.76 412.47-10.71L412.47-10.71L412.47-9.16Q412.47-6.61 413.47-5.18Q414.47-3.74 416.29-3.74L416.29-3.74Q417.92-3.74 418.93-5.04Q419.94-6.33 419.94-8.38L419.94-8.38Q419.94-10.48 418.92-11.76Q417.90-13.04 416.18-13.04ZM443.04-25.59L443.04-9.63L445.94-9.63L445.94-5.54L443.04-5.54L443.04 0L437.96 0L437.96-5.54L427.46-5.54L427.24-8.74L437.91-25.59L443.04-25.59ZM437.63-18.09L432.30-9.63L437.96-9.63L437.96-18.67L437.63-18.09ZM457.63-10.79L457.63-10.00Q457.63-6.03 456.49-2.36Q455.34 1.32 453.20 4.13Q451.05 6.94 448.61 8.00L448.61 8.00L447.63 5.31Q450.12 3.43 451.56-0.49Q453.01-4.41 453.06-9.51L453.06-9.51L453.06-10.44Q453.06-15.70 451.63-19.71Q450.19-23.71 447.63-25.72L447.63-25.72L448.61-28.41Q451.00-27.37 453.12-24.64Q455.24-21.92 456.41-18.30Q457.58-14.68 457.63-10.79L457.63-10.79Z" transform="translate(620, 500)" fill="#ffffff" /><circle cx="580" cy="565" r="6" fill="#e94560" /><path d="M15.56-6.71L15.56-6.71Q15.56-8.21 14.50-9.01Q13.45-9.81 10.71-10.70Q7.96-11.58 6.36-12.45L6.36-12.45Q2.00-14.80 2.00-18.79L2.00-18.79Q2.00-20.87 3.17-22.49Q4.34-24.12 6.53-25.03Q8.72-25.95 11.44-25.95L11.44-25.95Q14.19-25.95 16.33-24.95Q18.47-23.96 19.66-22.15Q20.85-20.34 20.85-18.04L20.85-18.04L15.57-18.04Q15.57-19.79 14.47-20.77Q13.36-21.74 11.36-21.74L11.36-21.74Q9.42-21.74 8.35-20.93Q7.28-20.11 7.28-18.77L7.28-18.77Q7.28-17.53 8.53-16.68Q9.79-15.84 12.23-15.10L12.23-15.10Q16.73-13.75 18.79-11.74Q20.85-9.74 20.85-6.75L20.85-6.75Q20.85-3.43 18.33-1.54Q15.82 0.35 11.57 0.35L11.57 0.35Q8.61 0.35 6.19-0.73Q3.76-1.81 2.49-3.69Q1.21-5.57 1.21-8.05L1.21-8.05L6.50-8.05Q6.50-3.81 11.57-3.81L11.57-3.81Q13.45-3.81 14.50-4.58Q15.56-5.34 15.56-6.71ZM37.69-6.71L37.69-6.71Q37.69-8.21 36.63-9.01Q35.58-9.81 32.84-10.70Q30.09-11.58 28.49-12.45L28.49-12.45Q24.13-14.80 24.13-18.79L24.13-18.79Q24.13-20.87 25.30-22.49Q26.47-24.12 28.66-25.03Q30.85-25.95 33.57-25.95L33.57-25.95Q36.32-25.95 38.46-24.95Q40.61-23.96 41.79-22.15Q42.98-20.34 42.98-18.04L42.98-18.04L37.71-18.04Q37.71-19.79 36.60-20.77Q35.49-21.74 33.49-21.74L33.49-21.74Q31.55-21.74 30.48-20.93Q29.41-20.11 29.41-18.77L29.41-18.77Q29.41-17.53 30.67-16.68Q31.92-15.84 34.37-15.10L34.37-15.10Q38.87-13.75 40.92-11.74Q42.98-9.74 42.98-6.75L42.98-6.75Q42.98-3.43 40.46-1.54Q37.95 0.35 33.70 0.35L33.70 0.35Q30.74 0.35 28.32-0.73Q25.89-1.81 24.62-3.69Q23.34-5.57 23.34-8.05L23.34-8.05L28.63-8.05Q28.63-3.81 33.70-3.81L33.70-3.81Q35.58-3.81 36.63-4.58Q37.69-5.34 37.69-6.71ZM67.38-25.59L67.38 0L62.10 0L62.10-10.97L51.82-10.97L51.82 0L46.55 0L46.55-25.59L51.82-25.59L51.82-15.22L62.10-15.22L62.10-25.59L67.38-25.59ZM96.77 0L91.63 0Q91.28-0.69 91.13-1.71L91.13-1.71Q89.28 0.35 86.33 0.35L86.33 0.35Q83.53 0.35 81.69-1.27Q79.86-2.88 79.86-5.34L79.86-5.34Q79.86-8.37 82.10-9.98Q84.34-11.60 88.58-11.62L88.58-11.62L90.91-11.62L90.91-12.71Q90.91-14.03 90.24-14.82Q89.56-15.61 88.10-15.61L88.10-15.61Q86.82-15.61 86.09-14.99Q85.36-14.38 85.36-13.31L85.36-13.31L80.28-13.31Q80.28-14.96 81.30-16.37Q82.32-17.77 84.18-18.57Q86.04-19.37 88.37-19.37L88.37-19.37Q91.88-19.37 93.95-17.60Q96.01-15.84 96.01-12.64L96.01-12.64L96.01-4.39Q96.03-1.69 96.77-0.30L96.77-0.30L96.77 0ZM87.43-3.53L87.43-3.53Q88.56-3.53 89.51-4.03Q90.46-4.54 90.91-5.38L90.91-5.38L90.91-8.65L89.02-8.65Q85.20-8.65 84.96-6.01L84.96-6.01L84.94-5.71Q84.94-4.76 85.61-4.15Q86.27-3.53 87.43-3.53ZM107.82-3.74L107.82-3.74Q109.23-3.74 110.11-4.52Q110.99-5.29 111.02-6.57L111.02-6.57L115.79-6.57Q115.77-4.64 114.73-3.03Q113.70-1.42 111.89-0.54Q110.09 0.35 107.91 0.35L107.91 0.35Q103.83 0.35 101.48-2.24Q99.12-4.83 99.12-9.40L99.12-9.40L99.12-9.74Q99.12-14.13 101.46-16.75Q103.80-19.37 107.88-19.37L107.88-19.37Q111.45-19.37 113.60-17.34Q115.75-15.31 115.79-11.94L115.79-11.94L111.02-11.94Q110.99-13.41 110.11-14.33Q109.23-15.26 107.79-15.26L107.79-15.26Q106.01-15.26 105.11-13.97Q104.20-12.67 104.20-9.77L104.20-9.77L104.20-9.25Q104.20-6.31 105.10-5.03Q106.00-3.74 107.82-3.74ZM126.60-3.74L126.60-3.74Q128.00-3.74 128.88-4.52Q129.76-5.29 129.80-6.57L129.80-6.57L134.56-6.57Q134.54-4.64 133.51-3.03Q132.47-1.42 130.67-0.54Q128.87 0.35 126.69 0.35L126.69 0.35Q122.61 0.35 120.25-2.24Q117.90-4.83 117.90-9.40L117.90-9.40L117.90-9.74Q117.90-14.13 120.23-16.75Q122.57-19.37 126.65-19.37L126.65-19.37Q130.22-19.37 132.37-17.34Q134.53-15.31 134.56-11.94L134.56-11.94L129.80-11.94Q129.76-13.41 128.88-14.33Q128.00-15.26 126.56-15.26L126.56-15.26Q124.79-15.26 123.88-13.97Q122.98-12.67 122.98-9.77L122.98-9.77L122.98-9.25Q122.98-6.31 123.87-5.03Q124.77-3.74 126.60-3.74ZM146.21 0.35L146.21 0.35Q142.03 0.35 139.40-2.21Q136.78-4.78 136.78-9.05L136.78-9.05L136.78-9.54Q136.78-12.41 137.88-14.67Q138.99-16.93 141.02-18.15Q143.05-19.37 145.65-19.37L145.65-19.37Q149.55-19.37 151.80-16.91Q154.04-14.45 154.04-9.93L154.04-9.93L154.04-7.86L141.93-7.86Q142.17-5.99 143.41-4.87Q144.65-3.74 146.55-3.74L146.55-3.74Q149.48-3.74 151.14-5.87L151.14-5.87L153.63-3.08Q152.49-1.46 150.54-0.55Q148.59 0.35 146.21 0.35ZM145.63-15.26L145.63-15.26Q144.12-15.26 143.18-14.24Q142.24-13.22 141.98-11.32L141.98-11.32L149.04-11.32L149.04-11.72Q149.01-13.41 148.13-14.33Q147.25-15.26 145.63-15.26ZM167.22-5.26L167.22-5.26Q167.22-6.19 166.30-6.72Q165.38-7.26 163.34-7.68L163.34-7.68Q156.55-9.11 156.55-13.45L156.55-13.45Q156.55-15.98 158.65-17.67Q160.75-19.37 164.14-19.37L164.14-19.37Q167.77-19.37 169.94-17.67Q172.11-15.96 172.11-13.24L172.11-13.24L167.03-13.24Q167.03-14.33 166.32-15.04Q165.62-15.75 164.13-15.75L164.13-15.75Q162.84-15.75 162.14-15.17Q161.44-14.59 161.44-13.69L161.44-13.69Q161.44-12.85 162.24-12.33Q163.04-11.81 164.94-11.43Q166.83-11.06 168.13-10.58L168.13-10.58Q172.16-9.11 172.16-5.47L172.16-5.47Q172.16-2.87 169.93-1.26Q167.70 0.35 164.16 0.35L164.16 0.35Q161.77 0.35 159.92-0.50Q158.06-1.35 157.01-2.84Q155.95-4.32 155.95-6.05L155.95-6.05L160.77-6.05Q160.84-4.69 161.77-3.97Q162.70-3.25 164.27-3.25L164.27-3.25Q165.73-3.25 166.47-3.81Q167.22-4.36 167.22-5.26ZM185.73-5.26L185.73-5.26Q185.73-6.19 184.81-6.72Q183.88-7.26 181.85-7.68L181.85-7.68Q175.06-9.11 175.06-13.45L175.06-13.45Q175.06-15.98 177.16-17.67Q179.26-19.37 182.65-19.37L182.65-19.37Q186.28-19.37 188.45-17.67Q190.62-15.96 190.62-13.24L190.62-13.24L185.54-13.24Q185.54-14.33 184.83-15.04Q184.13-15.75 182.64-15.75L182.64-15.75Q181.35-15.75 180.65-15.17Q179.95-14.59 179.95-13.69L179.95-13.69Q179.95-12.85 180.75-12.33Q181.55-11.81 183.45-11.43Q185.34-11.06 186.64-10.58L186.64-10.58Q190.67-9.11 190.67-5.47L190.67-5.47Q190.67-2.87 188.44-1.26Q186.21 0.35 182.67 0.35L182.67 0.35Q180.28 0.35 178.43-0.50Q176.57-1.35 175.52-2.84Q174.46-4.32 174.46-6.05L174.46-6.05L179.28-6.05Q179.35-4.69 180.28-3.97Q181.21-3.25 182.78-3.25L182.78-3.25Q184.24-3.25 184.98-3.81Q185.73-4.36 185.73-5.26ZM219.06 0L213.93 0Q213.57-0.69 213.42-1.71L213.42-1.71Q211.57 0.35 208.62 0.35L208.62 0.35Q205.82 0.35 203.99-1.27Q202.15-2.88 202.15-5.34L202.15-5.34Q202.15-8.37 204.39-9.98Q206.63-11.60 210.87-11.62L210.87-11.62L213.21-11.62L213.21-12.71Q213.21-14.03 212.53-14.82Q211.85-15.61 210.39-15.61L210.39-15.61Q209.11-15.61 208.38-14.99Q207.65-14.38 207.65-13.31L207.65-13.31L202.57-13.31Q202.57-14.96 203.59-16.37Q204.61-17.77 206.47-18.57Q208.34-19.37 210.66-19.37L210.66-19.37Q214.17-19.37 216.24-17.60Q218.30-15.84 218.30-12.64L218.30-12.64L218.30-4.39Q218.32-1.69 219.06-0.30L219.06-0.30L219.06 0ZM209.72-3.53L209.72-3.53Q210.85-3.53 211.80-4.03Q212.75-4.54 213.21-5.38L213.21-5.38L213.21-8.65L211.31-8.65Q207.49-8.65 207.25-6.01L207.25-6.01L207.23-5.71Q207.23-4.76 207.90-4.15Q208.56-3.53 209.72-3.53ZM222.10-19.02L226.88-19.02L227.04-16.82Q229.08-19.37 232.51-19.37L232.51-19.37Q235.53-19.37 237.01-17.60Q238.48-15.82 238.52-12.29L238.52-12.29L238.52 0L233.44 0L233.44-12.16Q233.44-13.78 232.73-14.51Q232.03-15.24 230.40-15.24L230.40-15.24Q228.25-15.24 227.18-13.41L227.18-13.41L227.18 0L222.10 0L222.10-19.02ZM241.58-9.65L241.58-9.65Q241.58-14.10 243.57-16.73Q245.57-19.37 249.03-19.37L249.03-19.37Q251.81-19.37 253.62-17.30L253.62-17.30L253.62-27L258.71-27L258.71 0L254.13 0L253.88-2.02Q251.98 0.35 248.99 0.35L248.99 0.35Q245.64 0.35 243.61-2.29Q241.58-4.94 241.58-9.65ZM246.66-9.28L246.66-9.28Q246.66-6.61 247.59-5.19Q248.52-3.76 250.29-3.76L250.29-3.76Q252.65-3.76 253.62-5.75L253.62-5.75L253.62-13.25Q252.67-15.24 250.33-15.24L250.33-15.24Q246.66-15.24 246.66-9.28ZM279.53-3.74L279.53-3.74Q280.93-3.74 281.81-4.52Q282.69-5.29 282.73-6.57L282.73-6.57L287.49-6.57Q287.47-4.64 286.44-3.03Q285.40-1.42 283.60-0.54Q281.79 0.35 279.62 0.35L279.62 0.35Q275.54 0.35 273.18-2.24Q270.83-4.83 270.83-9.40L270.83-9.40L270.83-9.74Q270.83-14.13 273.16-16.75Q275.50-19.37 279.58-19.37L279.58-19.37Q283.15-19.37 285.30-17.34Q287.46-15.31 287.49-11.94L287.49-11.94L282.73-11.94Q282.69-13.41 281.81-14.33Q280.93-15.26 279.49-15.26L279.49-15.26Q277.72-15.26 276.81-13.97Q275.91-12.67 275.91-9.77L275.91-9.77L275.91-9.25Q275.91-6.31 276.80-5.03Q277.70-3.74 279.53-3.74ZM289.60-9.46L289.60-9.69Q289.60-12.52 290.69-14.73Q291.78-16.95 293.83-18.16Q295.88-19.37 298.58-19.37L298.58-19.37Q302.43-19.37 304.87-17.02Q307.30-14.66 307.58-10.62L307.58-10.62L307.62-9.32Q307.62-4.94 305.17-2.29Q302.73 0.35 298.62 0.35Q294.50 0.35 292.05-2.29Q289.60-4.92 289.60-9.46L289.60-9.46ZM294.68-9.32L294.68-9.32Q294.68-6.61 295.70-5.18Q296.72-3.74 298.62-3.74L298.62-3.74Q300.46-3.74 301.50-5.16Q302.54-6.57 302.54-9.69L302.54-9.69Q302.54-12.34 301.50-13.80Q300.46-15.26 298.58-15.26L298.58-15.26Q296.72-15.26 295.70-13.81Q294.68-12.36 294.68-9.32ZM310.75-19.02L315.51-19.02L315.67-16.89Q317.69-19.37 321.13-19.37L321.13-19.37Q324.81-19.37 326.18-16.47L326.18-16.47Q328.18-19.37 331.89-19.37L331.89-19.37Q334.99-19.37 336.50-17.57Q338.01-15.77 338.01-12.15L338.01-12.15L338.01 0L332.91 0L332.91-12.13Q332.91-13.75 332.28-14.49Q331.65-15.24 330.05-15.24L330.05-15.24Q327.76-15.24 326.88-13.06L326.88-13.06L326.90 0L321.82 0L321.82-12.11Q321.82-13.76 321.17-14.50Q320.52-15.24 318.96-15.24L318.96-15.24Q316.79-15.24 315.83-13.45L315.83-13.45L315.83 0L310.75 0L310.75-19.02ZM341.91-19.02L346.68-19.02L346.83-16.89Q348.86-19.37 352.30-19.37L352.30-19.37Q355.97-19.37 357.35-16.47L357.35-16.47Q359.35-19.37 363.06-19.37L363.06-19.37Q366.15-19.37 367.66-17.57Q369.18-15.77 369.18-12.15L369.18-12.15L369.18 0L364.08 0L364.08-12.13Q364.08-13.75 363.45-14.49Q362.81-15.24 361.21-15.24L361.21-15.24Q358.93-15.24 358.05-13.06L358.05-13.06L358.07 0L352.99 0L352.99-12.11Q352.99-13.76 352.34-14.50Q351.69-15.24 350.12-15.24L350.12-15.24Q347.96-15.24 346.99-13.45L346.99-13.45L346.99 0L341.91 0L341.91-19.02ZM389.23 0L384.10 0Q383.75-0.69 383.59-1.71L383.59-1.71Q381.74 0.35 378.79 0.35L378.79 0.35Q376.00 0.35 374.16-1.27Q372.32-2.88 372.32-5.34L372.32-5.34Q372.32-8.37 374.56-9.98Q376.80-11.60 381.04-11.62L381.04-11.62L383.38-11.62L383.38-12.71Q383.38-14.03 382.70-14.82Q382.03-15.61 380.57-15.61L380.57-15.61Q379.28-15.61 378.55-14.99Q377.82-14.38 377.82-13.31L377.82-13.31L372.74-13.31Q372.74-14.96 373.76-16.37Q374.78-17.77 376.65-18.57Q378.51-19.37 380.83-19.37L380.83-19.37Q384.35-19.37 386.41-17.60Q388.48-15.84 388.48-12.64L388.48-12.64L388.48-4.39Q388.49-1.69 389.23-0.30L389.23-0.30L389.23 0ZM379.90-3.53L379.90-3.53Q381.02-3.53 381.97-4.03Q382.92-4.54 383.38-5.38L383.38-5.38L383.38-8.65L381.48-8.65Q377.67-8.65 377.42-6.01L377.42-6.01L377.40-5.71Q377.40-4.76 378.07-4.15Q378.74-3.53 379.90-3.53ZM392.27-19.02L397.05-19.02L397.21-16.82Q399.25-19.37 402.68-19.37L402.68-19.37Q405.70-19.37 407.18-17.60Q408.66-15.82 408.69-12.29L408.69-12.29L408.69 0L403.61 0L403.61-12.16Q403.61-13.78 402.91-14.51Q402.21-15.24 400.57-15.24L400.57-15.24Q398.43-15.24 397.35-13.41L397.35-13.41L397.35 0L392.27 0L392.27-19.02ZM411.75-9.65L411.75-9.65Q411.75-14.10 413.75-16.73Q415.74-19.37 419.20-19.37L419.20-19.37Q421.98-19.37 423.79-17.30L423.79-17.30L423.79-27L428.89-27L428.89 0L424.30 0L424.05-2.02Q422.16 0.35 419.17 0.35L419.17 0.35Q415.81 0.35 413.78-2.29Q411.75-4.94 411.75-9.65ZM416.83-9.28L416.83-9.28Q416.83-6.61 417.76-5.19Q418.69-3.76 420.47-3.76L420.47-3.76Q422.82-3.76 423.79-5.75L423.79-5.75L423.79-13.25Q422.84-15.24 420.50-15.24L420.50-15.24Q416.83-15.24 416.83-9.28ZM450.54 0.35L450.54 0.35Q446.36 0.35 443.73-2.21Q441.11-4.78 441.11-9.05L441.11-9.05L441.11-9.54Q441.11-12.41 442.21-14.67Q443.32-16.93 445.35-18.15Q447.38-19.37 449.98-19.37L449.98-19.37Q453.88-19.37 456.13-16.91Q458.37-14.45 458.37-9.93L458.37-9.93L458.37-7.86L446.26-7.86Q446.50-5.99 447.74-4.87Q448.98-3.74 450.88-3.74L450.88-3.74Q453.81-3.74 455.47-5.87L455.47-5.87L457.96-3.08Q456.82-1.46 454.87-0.55Q452.92 0.35 450.54 0.35ZM449.96-15.26L449.96-15.26Q448.45-15.26 447.51-14.24Q446.57-13.22 446.31-11.32L446.31-11.32L453.38-11.32L453.38-11.72Q453.34-13.41 452.46-14.33Q451.58-15.26 449.96-15.26ZM465.36-19.02L468.49-13.34L471.69-19.02L477.12-19.02L471.71-9.70L477.35 0L471.90 0L468.51-5.98L465.13 0L459.67 0L465.31-9.70L459.91-19.02L465.36-19.02ZM488.32 0.35L488.32 0.35Q484.14 0.35 481.51-2.21Q478.88-4.78 478.88-9.05L478.88-9.05L478.88-9.54Q478.88-12.41 479.99-14.67Q481.10-16.93 483.13-18.15Q485.16-19.37 487.76-19.37L487.76-19.37Q491.66-19.37 493.90-16.91Q496.14-14.45 496.14-9.93L496.14-9.93L496.14-7.86L484.03-7.86Q484.28-5.99 485.52-4.87Q486.76-3.74 488.65-3.74L488.65-3.74Q491.59-3.74 493.24-5.87L493.24-5.87L495.74-3.08Q494.60-1.46 492.64-0.55Q490.69 0.35 488.32 0.35ZM487.74-15.26L487.74-15.26Q486.23-15.26 485.29-14.24Q484.35-13.22 484.08-11.32L484.08-11.32L491.15-11.32L491.15-11.72Q491.12-13.41 490.24-14.33Q489.36-15.26 487.74-15.26ZM506.94-3.74L506.94-3.74Q508.34-3.74 509.22-4.52Q510.10-5.29 510.13-6.57L510.13-6.57L514.90-6.57Q514.88-4.64 513.84-3.03Q512.81-1.42 511.00-0.54Q509.20 0.35 507.02 0.35L507.02 0.35Q502.95 0.35 500.59-2.24Q498.23-4.83 498.23-9.40L498.23-9.40L498.23-9.74Q498.23-14.13 500.57-16.75Q502.91-19.37 506.99-19.37L506.99-19.37Q510.56-19.37 512.71-17.34Q514.86-15.31 514.90-11.94L514.90-11.94L510.13-11.94Q510.10-13.41 509.22-14.33Q508.34-15.26 506.90-15.26L506.90-15.26Q505.13-15.26 504.22-13.97Q503.31-12.67 503.31-9.77L503.31-9.77L503.31-9.25Q503.31-6.31 504.21-5.03Q505.11-3.74 506.94-3.74ZM529.33 0L529.19-1.93Q527.31 0.35 523.99 0.35L523.99 0.35Q520.93 0.35 519.32-1.41Q517.71-3.16 517.68-6.56L517.68-6.56L517.68-19.02L522.76-19.02L522.76-6.73Q522.76-3.76 525.46-3.76L525.46-3.76Q528.05-3.76 529.01-5.55L529.01-5.55L529.01-19.02L534.11-19.02L534.11 0L529.33 0ZM538.95-23.70L544.03-23.70L544.03-19.02L547.28-19.02L547.28-15.29L544.03-15.29L544.03-5.80Q544.03-4.75 544.43-4.29Q544.83-3.83 545.98-3.83L545.98-3.83Q546.82-3.83 547.47-3.96L547.47-3.96L547.47-0.11Q545.98 0.35 544.39 0.35L544.39 0.35Q539.05 0.35 538.95-5.04L538.95-5.04L538.95-15.29L536.17-15.29L536.17-19.02L538.95-19.02L538.95-23.70ZM555.47-19.02L555.47 0L550.37 0L550.37-19.02L555.47-19.02ZM550.07-23.94L550.07-23.94Q550.07-25.08 550.84-25.82Q551.60-26.56 552.92-26.56L552.92-26.56Q554.22-26.56 554.99-25.82Q555.77-25.08 555.77-23.94L555.77-23.94Q555.77-22.78 554.99-22.04Q554.20-21.30 552.92-21.30Q551.64-21.30 550.85-22.04Q550.07-22.78 550.07-23.94ZM558.86-9.46L558.86-9.69Q558.86-12.52 559.95-14.73Q561.04-16.95 563.09-18.16Q565.14-19.37 567.84-19.37L567.84-19.37Q571.69-19.37 574.13-17.02Q576.56-14.66 576.84-10.62L576.84-10.62L576.88-9.32Q576.88-4.94 574.44-2.29Q571.99 0.35 567.88 0.35Q563.77 0.35 561.31-2.29Q558.86-4.92 558.86-9.46L558.86-9.46ZM563.94-9.32L563.94-9.32Q563.94-6.61 564.96-5.18Q565.98-3.74 567.88-3.74L567.88-3.74Q569.72-3.74 570.76-5.16Q571.80-6.57 571.80-9.69L571.80-9.69Q571.80-12.34 570.76-13.80Q569.72-15.26 567.84-15.26L567.84-15.26Q565.98-15.26 564.96-13.81Q563.94-12.36 563.94-9.32ZM579.90-19.02L584.68-19.02L584.84-16.82Q586.88-19.37 590.31-19.37L590.31-19.37Q593.33-19.37 594.81-17.60Q596.29-15.82 596.32-12.29L596.32-12.29L596.32 0L591.24 0L591.24-12.16Q591.24-13.78 590.54-14.51Q589.83-15.24 588.20-15.24L588.20-15.24Q586.05-15.24 584.98-13.41L584.98-13.41L584.98 0L579.90 0L579.90-19.02Z" transform="translate(620, 565)" fill="#ffffff" /><circle cx="580" cy="630" r="6" fill="#e94560" /><path d="M17.68-14.71L17.68-10.46L7.56-10.46L7.56 0L2.29 0L2.29-25.59L18.95-25.59L18.95-21.32L7.56-21.32L7.56-14.71L17.68-14.71ZM27.04-19.02L27.04 0L21.94 0L21.94-19.02L27.04-19.02ZM21.64-23.94L21.64-23.94Q21.64-25.08 22.40-25.82Q23.17-26.56 24.49-26.56L24.49-26.56Q25.79-26.56 26.56-25.82Q27.33-25.08 27.33-23.94L27.33-23.94Q27.33-22.78 26.55-22.04Q25.77-21.30 24.49-21.30Q23.20-21.30 22.42-22.04Q21.64-22.78 21.64-23.94ZM36.58-27L36.58 0L31.48 0L31.48-27L36.58-27ZM49.52 0.35L49.52 0.35Q45.33 0.35 42.71-2.21Q40.08-4.78 40.08-9.05L40.08-9.05L40.08-9.54Q40.08-12.41 41.19-14.67Q42.29-16.93 44.32-18.15Q46.35-19.37 48.96-19.37L48.96-19.37Q52.86-19.37 55.10-16.91Q57.34-14.45 57.34-9.93L57.34-9.93L57.34-7.86L45.23-7.86Q45.47-5.99 46.71-4.87Q47.95-3.74 49.85-3.74L49.85-3.74Q52.79-3.74 54.44-5.87L54.44-5.87L56.94-3.08Q55.79-1.46 53.84-0.55Q51.89 0.35 49.52 0.35ZM48.94-15.26L48.94-15.26Q47.43-15.26 46.49-14.24Q45.54-13.22 45.28-11.32L45.28-11.32L52.35-11.32L52.35-11.72Q52.31-13.41 51.43-14.33Q50.55-15.26 48.94-15.26ZM79.49-5.26L79.49-5.26Q79.49-6.19 78.57-6.72Q77.64-7.26 75.60-7.68L75.60-7.68Q68.82-9.11 68.82-13.45L68.82-13.45Q68.82-15.98 70.92-17.67Q73.02-19.37 76.41-19.37L76.41-19.37Q80.03-19.37 82.20-17.67Q84.38-15.96 84.38-13.24L84.38-13.24L79.29-13.24Q79.29-14.33 78.59-15.04Q77.89-15.75 76.39-15.75L76.39-15.75Q75.11-15.75 74.41-15.17Q73.71-14.59 73.71-13.69L73.71-13.69Q73.71-12.85 74.50-12.33Q75.30-11.81 77.20-11.43Q79.10-11.06 80.40-10.58L80.40-10.58Q84.43-9.11 84.43-5.47L84.43-5.47Q84.43-2.87 82.20-1.26Q79.96 0.35 76.43 0.35L76.43 0.35Q74.04 0.35 72.18-0.50Q70.33-1.35 69.28-2.84Q68.22-4.32 68.22-6.05L68.22-6.05L73.04-6.05Q73.11-4.69 74.04-3.97Q74.97-3.25 76.54-3.25L76.54-3.25Q77.99-3.25 78.74-3.81Q79.49-4.36 79.49-5.26ZM91.27-19.02L94.80-7.19L98.31-19.02L103.76-19.02L96.12 2.95L95.70 3.96Q93.99 7.68 90.07 7.68L90.07 7.68Q88.96 7.68 87.82 7.35L87.82 7.35L87.82 3.50L88.59 3.52Q90.04 3.52 90.75 3.08Q91.46 2.64 91.86 1.62L91.86 1.62L92.46 0.05L85.80-19.02L91.27-19.02ZM116.07-5.26L116.07-5.26Q116.07-6.19 115.15-6.72Q114.22-7.26 112.18-7.68L112.18-7.68Q105.40-9.11 105.40-13.45L105.40-13.45Q105.40-15.98 107.50-17.67Q109.60-19.37 112.99-19.37L112.99-19.37Q116.61-19.37 118.78-17.67Q120.96-15.96 120.96-13.24L120.96-13.24L115.88-13.24Q115.88-14.33 115.17-15.04Q114.47-15.75 112.97-15.75L112.97-15.75Q111.69-15.75 110.99-15.17Q110.29-14.59 110.29-13.69L110.29-13.69Q110.29-12.85 111.08-12.33Q111.88-11.81 113.78-11.43Q115.68-11.06 116.98-10.58L116.98-10.58Q121.01-9.11 121.01-5.47L121.01-5.47Q121.01-2.87 118.78-1.26Q116.54 0.35 113.01 0.35L113.01 0.35Q110.62 0.35 108.76-0.50Q106.91-1.35 105.86-2.84Q104.80-4.32 104.80-6.05L104.80-6.05L109.62-6.05Q109.69-4.69 110.62-3.97Q111.55-3.25 113.12-3.25L113.12-3.25Q114.57-3.25 115.32-3.81Q116.07-4.36 116.07-5.26ZM125.28-23.70L130.36-23.70L130.36-19.02L133.61-19.02L133.61-15.29L130.36-15.29L130.36-5.80Q130.36-4.75 130.76-4.29Q131.17-3.83 132.31-3.83L132.31-3.83Q133.15-3.83 133.80-3.96L133.80-3.96L133.80-0.11Q132.31 0.35 130.73 0.35L130.73 0.35Q125.38 0.35 125.28-5.04L125.28-5.04L125.28-15.29L122.50-15.29L122.50-19.02L125.28-19.02L125.28-23.70ZM145.20 0.35L145.20 0.35Q141.01 0.35 138.38-2.21Q135.76-4.78 135.76-9.05L135.76-9.05L135.76-9.54Q135.76-12.41 136.86-14.67Q137.97-16.93 140.00-18.15Q142.03-19.37 144.63-19.37L144.63-19.37Q148.54-19.37 150.78-16.91Q153.02-14.45 153.02-9.93L153.02-9.93L153.02-7.86L140.91-7.86Q141.15-5.99 142.39-4.87Q143.63-3.74 145.53-3.74L145.53-3.74Q148.46-3.74 150.12-5.87L150.12-5.87L152.61-3.08Q151.47-1.46 149.52-0.55Q147.57 0.35 145.20 0.35ZM144.62-15.26L144.62-15.26Q143.10-15.26 142.16-14.24Q141.22-13.22 140.96-11.32L140.96-11.32L148.03-11.32L148.03-11.72Q147.99-13.41 147.11-14.33Q146.23-15.26 144.62-15.26ZM155.90-19.02L160.66-19.02L160.82-16.89Q162.84-19.37 166.29-19.37L166.29-19.37Q169.96-19.37 171.33-16.47L171.33-16.47Q173.34-19.37 177.05-19.37L177.05-19.37Q180.14-19.37 181.65-17.57Q183.16-15.77 183.16-12.15L183.16-12.15L183.16 0L178.07 0L178.07-12.13Q178.07-13.75 177.43-14.49Q176.80-15.24 175.20-15.24L175.20-15.24Q172.92-15.24 172.04-13.06L172.04-13.06L172.05 0L166.97 0L166.97-12.11Q166.97-13.76 166.32-14.50Q165.67-15.24 164.11-15.24L164.11-15.24Q161.95-15.24 160.98-13.45L160.98-13.45L160.98 0L155.90 0L155.90-19.02ZM195.24-9.46L195.24-9.69Q195.24-12.52 196.33-14.73Q197.42-16.95 199.47-18.16Q201.52-19.37 204.22-19.37L204.22-19.37Q208.07-19.37 210.51-17.02Q212.94-14.66 213.22-10.62L213.22-10.62L213.26-9.32Q213.26-4.94 210.81-2.29Q208.37 0.35 204.26 0.35Q200.14 0.35 197.69-2.29Q195.24-4.92 195.24-9.46L195.24-9.46ZM200.32-9.32L200.32-9.32Q200.32-6.61 201.34-5.18Q202.36-3.74 204.26-3.74L204.26-3.74Q206.10-3.74 207.14-5.16Q208.18-6.57 208.18-9.69L208.18-9.69Q208.18-12.34 207.14-13.80Q206.10-15.26 204.22-15.26L204.22-15.26Q202.36-15.26 201.34-13.81Q200.32-12.36 200.32-9.32ZM233.51-9.60L233.51-9.33Q233.51-4.94 231.51-2.29Q229.52 0.35 226.13 0.35L226.13 0.35Q223.24 0.35 221.47-1.65L221.47-1.65L221.47 7.31L216.39 7.31L216.39-19.02L221.10-19.02L221.27-17.16Q223.12-19.37 226.09-19.37L226.09-19.37Q229.61-19.37 231.56-16.77Q233.51-14.17 233.51-9.60L233.51-9.60ZM228.43-9.70L228.43-9.70Q228.43-12.36 227.49-13.80Q226.55-15.24 224.75-15.24L224.75-15.24Q222.36-15.24 221.47-13.41L221.47-13.41L221.47-5.63Q222.40-3.74 224.79-3.74L224.79-3.74Q228.43-3.74 228.43-9.70ZM245.41 0.35L245.41 0.35Q241.22 0.35 238.60-2.21Q235.97-4.78 235.97-9.05L235.97-9.05L235.97-9.54Q235.97-12.41 237.08-14.67Q238.18-16.93 240.21-18.15Q242.24-19.37 244.85-19.37L244.85-19.37Q248.75-19.37 250.99-16.91Q253.23-14.45 253.23-9.93L253.23-9.93L253.23-7.86L241.12-7.86Q241.37-5.99 242.60-4.87Q243.84-3.74 245.74-3.74L245.74-3.74Q248.68-3.74 250.33-5.87L250.33-5.87L252.83-3.08Q251.68-1.46 249.73-0.55Q247.78 0.35 245.41 0.35ZM244.83-15.26L244.83-15.26Q243.32-15.26 242.38-14.24Q241.44-13.22 241.17-11.32L241.17-11.32L248.24-11.32L248.24-11.72Q248.20-13.41 247.32-14.33Q246.45-15.26 244.83-15.26ZM266.87-19.14L266.80-14.26Q265.76-14.40 264.97-14.40L264.97-14.40Q262.09-14.40 261.19-12.45L261.19-12.45L261.19 0L256.11 0L256.11-19.02L260.91-19.02L261.05-16.75Q262.58-19.37 265.29-19.37L265.29-19.37Q266.13-19.37 266.87-19.14L266.87-19.14ZM285.40 0L280.27 0Q279.91-0.69 279.76-1.71L279.76-1.71Q277.91 0.35 274.96 0.35L274.96 0.35Q272.16 0.35 270.33-1.27Q268.49-2.88 268.49-5.34L268.49-5.34Q268.49-8.37 270.73-9.98Q272.97-11.60 277.21-11.62L277.21-11.62L279.54-11.62L279.54-12.71Q279.54-14.03 278.87-14.82Q278.19-15.61 276.73-15.61L276.73-15.61Q275.45-15.61 274.72-14.99Q273.99-14.38 273.99-13.31L273.99-13.31L268.91-13.31Q268.91-14.96 269.93-16.37Q270.95-17.77 272.81-18.57Q274.68-19.37 277.00-19.37L277.00-19.37Q280.51-19.37 282.58-17.60Q284.64-15.84 284.64-12.64L284.64-12.64L284.64-4.39Q284.66-1.69 285.40-0.30L285.40-0.30L285.40 0ZM276.06-3.53L276.06-3.53Q277.19-3.53 278.14-4.03Q279.09-4.54 279.54-5.38L279.54-5.38L279.54-8.65L277.65-8.65Q273.83-8.65 273.59-6.01L273.59-6.01L273.57-5.71Q273.57-4.76 274.24-4.15Q274.90-3.53 276.06-3.53ZM289.55-23.70L294.63-23.70L294.63-19.02L297.88-19.02L297.88-15.29L294.63-15.29L294.63-5.80Q294.63-4.75 295.03-4.29Q295.44-3.83 296.58-3.83L296.58-3.83Q297.42-3.83 298.07-3.96L298.07-3.96L298.07-0.11Q296.58 0.35 295.00 0.35L295.00 0.35Q289.65 0.35 289.55-5.04L289.55-5.04L289.55-15.29L286.77-15.29L286.77-19.02L289.55-19.02L289.55-23.70ZM306.07-19.02L306.07 0L300.97 0L300.97-19.02L306.07-19.02ZM300.67-23.94L300.67-23.94Q300.67-25.08 301.44-25.82Q302.20-26.56 303.52-26.56L303.52-26.56Q304.82-26.56 305.60-25.82Q306.37-25.08 306.37-23.94L306.37-23.94Q306.37-22.78 305.59-22.04Q304.80-21.30 303.52-21.30Q302.24-21.30 301.46-22.04Q300.67-22.78 300.67-23.94ZM309.46-9.46L309.46-9.69Q309.46-12.52 310.55-14.73Q311.64-16.95 313.69-18.16Q315.74-19.37 318.45-19.37L318.45-19.37Q322.29-19.37 324.73-17.02Q327.16-14.66 327.45-10.62L327.45-10.62L327.48-9.32Q327.48-4.94 325.04-2.29Q322.59 0.35 318.48 0.35Q314.37 0.35 311.92-2.29Q309.46-4.92 309.46-9.46L309.46-9.46ZM314.54-9.32L314.54-9.32Q314.54-6.61 315.56-5.18Q316.58-3.74 318.48-3.74L318.48-3.74Q320.33-3.74 321.36-5.16Q322.40-6.57 322.40-9.69L322.40-9.69Q322.40-12.34 321.36-13.80Q320.33-15.26 318.45-15.26L318.45-15.26Q316.58-15.26 315.56-13.81Q314.54-12.36 314.54-9.32ZM330.50-19.02L335.29-19.02L335.44-16.82Q337.48-19.37 340.91-19.37L340.91-19.37Q343.93-19.37 345.41-17.60Q346.89-15.82 346.92-12.29L346.92-12.29L346.92 0L341.84 0L341.84-12.16Q341.84-13.78 341.14-14.51Q340.44-15.24 338.80-15.24L338.80-15.24Q336.66-15.24 335.58-13.41L335.58-13.41L335.58 0L330.50 0L330.50-19.02ZM361.07-5.26L361.07-5.26Q361.07-6.19 360.15-6.72Q359.23-7.26 357.19-7.68L357.19-7.68Q350.40-9.11 350.40-13.45L350.40-13.45Q350.40-15.98 352.50-17.67Q354.60-19.37 358.00-19.37L358.00-19.37Q361.62-19.37 363.79-17.67Q365.96-15.96 365.96-13.24L365.96-13.24L360.88-13.24Q360.88-14.33 360.18-15.04Q359.47-15.75 357.98-15.75L357.98-15.75Q356.70-15.75 355.99-15.17Q355.29-14.59 355.29-13.69L355.29-13.69Q355.29-12.85 356.09-12.33Q356.89-11.81 358.79-11.43Q360.69-11.06 361.99-10.58L361.99-10.58Q366.01-9.11 366.01-5.47L366.01-5.47Q366.01-2.87 363.78-1.26Q361.55 0.35 358.01 0.35L358.01 0.35Q355.62 0.35 353.77-0.50Q351.91-1.35 350.86-2.84Q349.80-4.32 349.80-6.05L349.80-6.05L354.62-6.05Q354.69-4.69 355.62-3.97Q356.55-3.25 358.12-3.25L358.12-3.25Q359.58-3.25 360.33-3.81Q361.07-4.36 361.07-5.26Z" transform="translate(620, 630)" fill="#ffffff" /><circle cx="580" cy="695" r="6" fill="#e94560" /><path d="M15.56-6.71L15.56-6.71Q15.56-8.21 14.50-9.01Q13.45-9.81 10.71-10.70Q7.96-11.58 6.36-12.45L6.36-12.45Q2.00-14.80 2.00-18.79L2.00-18.79Q2.00-20.87 3.17-22.49Q4.34-24.12 6.53-25.03Q8.72-25.95 11.44-25.95L11.44-25.95Q14.19-25.95 16.33-24.95Q18.47-23.96 19.66-22.15Q20.85-20.34 20.85-18.04L20.85-18.04L15.57-18.04Q15.57-19.79 14.47-20.77Q13.36-21.74 11.36-21.74L11.36-21.74Q9.42-21.74 8.35-20.93Q7.28-20.11 7.28-18.77L7.28-18.77Q7.28-17.53 8.53-16.68Q9.79-15.84 12.23-15.10L12.23-15.10Q16.73-13.75 18.79-11.74Q20.85-9.74 20.85-6.75L20.85-6.75Q20.85-3.43 18.33-1.54Q15.82 0.35 11.57 0.35L11.57 0.35Q8.61 0.35 6.19-0.73Q3.76-1.81 2.49-3.69Q1.21-5.57 1.21-8.05L1.21-8.05L6.50-8.05Q6.50-3.81 11.57-3.81L11.57-3.81Q13.45-3.81 14.50-4.58Q15.56-5.34 15.56-6.71ZM27.65-19.02L31.18-7.19L34.70-19.02L40.15-19.02L32.50 2.95L32.08 3.96Q30.38 7.68 26.46 7.68L26.46 7.68Q25.35 7.68 24.21 7.35L24.21 7.35L24.21 3.50L24.98 3.52Q26.42 3.52 27.13 3.08Q27.84 2.64 28.25 1.62L28.25 1.62L28.85 0.05L22.18-19.02L27.65-19.02ZM52.45-5.26L52.45-5.26Q52.45-6.19 51.53-6.72Q50.61-7.26 48.57-7.68L48.57-7.68Q41.78-9.11 41.78-13.45L41.78-13.45Q41.78-15.98 43.88-17.67Q45.98-19.37 49.38-19.37L49.38-19.37Q53.00-19.37 55.17-17.67Q57.34-15.96 57.34-13.24L57.34-13.24L52.26-13.24Q52.26-14.33 51.56-15.04Q50.85-15.75 49.36-15.75L49.36-15.75Q48.08-15.75 47.37-15.17Q46.67-14.59 46.67-13.69L46.67-13.69Q46.67-12.85 47.47-12.33Q48.27-11.81 50.17-11.43Q52.07-11.06 53.37-10.58L53.37-10.58Q57.39-9.11 57.39-5.47L57.39-5.47Q57.39-2.87 55.16-1.26Q52.93 0.35 49.39 0.35L49.39 0.35Q47.00 0.35 45.15-0.50Q43.29-1.35 42.24-2.84Q41.19-4.32 41.19-6.05L41.19-6.05L46.00-6.05Q46.07-4.69 47.00-3.97Q47.94-3.25 49.50-3.25L49.50-3.25Q50.96-3.25 51.71-3.81Q52.45-4.36 52.45-5.26ZM61.66-23.70L66.74-23.70L66.74-19.02L70.00-19.02L70.00-15.29L66.74-15.29L66.74-5.80Q66.74-4.75 67.15-4.29Q67.55-3.83 68.70-3.83L68.70-3.83Q69.54-3.83 70.19-3.96L70.19-3.96L70.19-0.11Q68.70 0.35 67.11 0.35L67.11 0.35Q61.77 0.35 61.66-5.04L61.66-5.04L61.66-15.29L58.89-15.29L58.89-19.02L61.66-19.02L61.66-23.70ZM81.58 0.35L81.58 0.35Q77.40 0.35 74.77-2.21Q72.14-4.78 72.14-9.05L72.14-9.05L72.14-9.54Q72.14-12.41 73.25-14.67Q74.36-16.93 76.39-18.15Q78.42-19.37 81.02-19.37L81.02-19.37Q84.92-19.37 87.16-16.91Q89.40-14.45 89.40-9.93L89.40-9.93L89.40-7.86L77.29-7.86Q77.54-5.99 78.78-4.87Q80.02-3.74 81.91-3.74L81.91-3.74Q84.85-3.74 86.50-5.87L86.50-5.87L89.00-3.08Q87.86-1.46 85.90-0.55Q83.95 0.35 81.58 0.35ZM81-15.26L81-15.26Q79.49-15.26 78.55-14.24Q77.61-13.22 77.34-11.32L77.34-11.32L84.41-11.32L84.41-11.72Q84.38-13.41 83.50-14.33Q82.62-15.26 81-15.26ZM92.29-19.02L97.05-19.02L97.21-16.89Q99.23-19.37 102.67-19.37L102.67-19.37Q106.35-19.37 107.72-16.47L107.72-16.47Q109.72-19.37 113.43-19.37L113.43-19.37Q116.53-19.37 118.04-17.57Q119.55-15.77 119.55-12.15L119.55-12.15L119.55 0L114.45 0L114.45-12.13Q114.45-13.75 113.82-14.49Q113.19-15.24 111.59-15.24L111.59-15.24Q109.30-15.24 108.42-13.06L108.42-13.06L108.44 0L103.36 0L103.36-12.11Q103.36-13.76 102.71-14.50Q102.06-15.24 100.49-15.24L100.49-15.24Q98.33-15.24 97.37-13.45L97.37-13.45L97.37 0L92.29 0L92.29-19.02ZM122.66-9.65L122.66-9.65Q122.66-14.10 124.66-16.73Q126.65-19.37 130.11-19.37L130.11-19.37Q132.89-19.37 134.70-17.30L134.70-17.30L134.70-27L139.80-27L139.80 0L135.21 0L134.96-2.02Q133.07 0.35 130.08 0.35L130.08 0.35Q126.72 0.35 124.69-2.29Q122.66-4.94 122.66-9.65ZM127.74-9.28L127.74-9.28Q127.74-6.61 128.67-5.19Q129.60-3.76 131.38-3.76L131.38-3.76Q133.73-3.76 134.70-5.75L134.70-5.75L134.70-13.25Q133.75-15.24 131.41-15.24L131.41-15.24Q127.74-15.24 127.74-9.28ZM163.00-5.26L163.00-5.26Q163.00-6.19 162.08-6.72Q161.16-7.26 159.12-7.68L159.12-7.68Q152.33-9.11 152.33-13.45L152.33-13.45Q152.33-15.98 154.43-17.67Q156.53-19.37 159.93-19.37L159.93-19.37Q163.55-19.37 165.72-17.67Q167.89-15.96 167.89-13.24L167.89-13.24L162.81-13.24Q162.81-14.33 162.11-15.04Q161.40-15.75 159.91-15.75L159.91-15.75Q158.63-15.75 157.92-15.17Q157.22-14.59 157.22-13.69L157.22-13.69Q157.22-12.85 158.02-12.33Q158.82-11.81 160.72-11.43Q162.62-11.06 163.92-10.58L163.92-10.58Q167.94-9.11 167.94-5.47L167.94-5.47Q167.94-2.87 165.71-1.26Q163.48 0.35 159.94 0.35L159.94 0.35Q157.55 0.35 155.70-0.50Q153.84-1.35 152.79-2.84Q151.73-4.32 151.73-6.05L151.73-6.05L156.55-6.05Q156.62-4.69 157.55-3.97Q158.48-3.25 160.05-3.25L160.05-3.25Q161.51-3.25 162.25-3.81Q163.00-4.36 163.00-5.26ZM179.96 0.35L179.96 0.35Q175.78 0.35 173.15-2.21Q170.53-4.78 170.53-9.05L170.53-9.05L170.53-9.54Q170.53-12.41 171.63-14.67Q172.74-16.93 174.77-18.15Q176.80-19.37 179.40-19.37L179.40-19.37Q183.30-19.37 185.55-16.91Q187.79-14.45 187.79-9.93L187.79-9.93L187.79-7.86L175.68-7.86Q175.92-5.99 177.16-4.87Q178.40-3.74 180.30-3.74L180.30-3.74Q183.23-3.74 184.89-5.87L184.89-5.87L187.38-3.08Q186.24-1.46 184.29-0.55Q182.34 0.35 179.96 0.35ZM179.38-15.26L179.38-15.26Q177.87-15.26 176.93-14.24Q175.99-13.22 175.73-11.32L175.73-11.32L182.79-11.32L182.79-11.72Q182.76-13.41 181.88-14.33Q181.00-15.26 179.38-15.26ZM201.43-19.14L201.36-14.26Q200.32-14.40 199.53-14.40L199.53-14.40Q196.65-14.40 195.75-12.45L195.75-12.45L195.75 0L190.67 0L190.67-19.02L195.47-19.02L195.61-16.75Q197.14-19.37 199.85-19.37L199.85-19.37Q200.69-19.37 201.43-19.14L201.43-19.14ZM207.39-19.02L210.92-6.21L214.45-19.02L219.76-19.02L213.35 0L208.49 0L202.08-19.02L207.39-19.02ZM227.36-19.02L227.36 0L222.26 0L222.26-19.02L227.36-19.02ZM221.96-23.94L221.96-23.94Q221.96-25.08 222.72-25.82Q223.49-26.56 224.81-26.56L224.81-26.56Q226.11-26.56 226.88-25.82Q227.65-25.08 227.65-23.94L227.65-23.94Q227.65-22.78 226.87-22.04Q226.09-21.30 224.81-21.30Q223.52-21.30 222.74-22.04Q221.96-22.78 221.96-23.94ZM239.45-3.74L239.45-3.74Q240.86-3.74 241.73-4.52Q242.61-5.29 242.65-6.57L242.65-6.57L247.41-6.57Q247.39-4.64 246.36-3.03Q245.32-1.42 243.52-0.54Q241.72 0.35 239.54 0.35L239.54 0.35Q235.46 0.35 233.10-2.24Q230.75-4.83 230.75-9.40L230.75-9.40L230.75-9.74Q230.75-14.13 233.09-16.75Q235.42-19.37 239.50-19.37L239.50-19.37Q243.07-19.37 245.22-17.34Q247.38-15.31 247.41-11.94L247.41-11.94L242.65-11.94Q242.61-13.41 241.73-14.33Q240.86-15.26 239.41-15.26L239.41-15.26Q237.64-15.26 236.73-13.97Q235.83-12.67 235.83-9.77L235.83-9.77L235.83-9.25Q235.83-6.31 236.72-5.03Q237.62-3.74 239.45-3.74ZM259.07 0.35L259.07 0.35Q254.88 0.35 252.25-2.21Q249.63-4.78 249.63-9.05L249.63-9.05L249.63-9.54Q249.63-12.41 250.73-14.67Q251.84-16.93 253.87-18.15Q255.90-19.37 258.50-19.37L258.50-19.37Q262.41-19.37 264.65-16.91Q266.89-14.45 266.89-9.93L266.89-9.93L266.89-7.86L254.78-7.86Q255.02-5.99 256.26-4.87Q257.50-3.74 259.40-3.74L259.40-3.74Q262.34-3.74 263.99-5.87L263.99-5.87L266.48-3.08Q265.34-1.46 263.39-0.55Q261.44 0.35 259.07 0.35ZM258.49-15.26L258.49-15.26Q256.97-15.26 256.03-14.24Q255.09-13.22 254.83-11.32L254.83-11.32L261.90-11.32L261.90-11.72Q261.86-13.41 260.98-14.33Q260.10-15.26 258.49-15.26ZM278.74-19.02L283.50-19.02L283.66-16.89Q285.68-19.37 289.13-19.37L289.13-19.37Q292.80-19.37 294.17-16.47L294.17-16.47Q296.17-19.37 299.88-19.37L299.88-19.37Q302.98-19.37 304.49-17.57Q306-15.77 306-12.15L306-12.15L306 0L300.90 0L300.90-12.13Q300.90-13.75 300.27-14.49Q299.64-15.24 298.04-15.24L298.04-15.24Q295.75-15.24 294.87-13.06L294.87-13.06L294.89 0L289.81 0L289.81-12.11Q289.81-13.76 289.16-14.50Q288.51-15.24 286.95-15.24L286.95-15.24Q284.78-15.24 283.82-13.45L283.82-13.45L283.82 0L278.74 0L278.74-19.02ZM326.06 0L320.92 0Q320.57-0.69 320.41-1.71L320.41-1.71Q318.57 0.35 315.62 0.35L315.62 0.35Q312.82 0.35 310.98-1.27Q309.15-2.88 309.15-5.34L309.15-5.34Q309.15-8.37 311.39-9.98Q313.63-11.60 317.87-11.62L317.87-11.62L320.20-11.62L320.20-12.71Q320.20-14.03 319.53-14.82Q318.85-15.61 317.39-15.61L317.39-15.61Q316.11-15.61 315.38-14.99Q314.65-14.38 314.65-13.31L314.65-13.31L309.57-13.31Q309.57-14.96 310.59-16.37Q311.61-17.77 313.47-18.57Q315.33-19.37 317.65-19.37L317.65-19.37Q321.17-19.37 323.24-17.60Q325.30-15.84 325.30-12.64L325.30-12.64L325.30-4.39Q325.32-1.69 326.06-0.30L326.06-0.30L326.06 0ZM316.72-3.53L316.72-3.53Q317.85-3.53 318.80-4.03Q319.75-4.54 320.20-5.38L320.20-5.38L320.20-8.65L318.30-8.65Q314.49-8.65 314.24-6.01L314.24-6.01L314.23-5.71Q314.23-4.76 314.89-4.15Q315.56-3.53 316.72-3.53ZM329.10-19.02L333.88-19.02L334.04-16.82Q336.08-19.37 339.50-19.37L339.50-19.37Q342.53-19.37 344.00-17.60Q345.48-15.82 345.52-12.29L345.52-12.29L345.52 0L340.44 0L340.44-12.16Q340.44-13.78 339.73-14.51Q339.03-15.24 337.39-15.24L337.39-15.24Q335.25-15.24 334.18-13.41L334.18-13.41L334.18 0L329.10 0L329.10-19.02ZM365.52 0L360.39 0Q360.04-0.69 359.88-1.71L359.88-1.71Q358.03 0.35 355.08 0.35L355.08 0.35Q352.28 0.35 350.45-1.27Q348.61-2.88 348.61-5.34L348.61-5.34Q348.61-8.37 350.85-9.98Q353.09-11.60 357.33-11.62L357.33-11.62L359.67-11.62L359.67-12.71Q359.67-14.03 358.99-14.82Q358.31-15.61 356.85-15.61L356.85-15.61Q355.57-15.61 354.84-14.99Q354.11-14.38 354.11-13.31L354.11-13.31L349.03-13.31Q349.03-14.96 350.05-16.37Q351.07-17.77 352.93-18.57Q354.80-19.37 357.12-19.37L357.12-19.37Q360.63-19.37 362.70-17.60Q364.76-15.84 364.76-12.64L364.76-12.64L364.76-4.39Q364.78-1.69 365.52-0.30L365.52-0.30L365.52 0ZM356.19-3.53L356.19-3.53Q357.31-3.53 358.26-4.03Q359.21-4.54 359.67-5.38L359.67-5.38L359.67-8.65L357.77-8.65Q353.95-8.65 353.71-6.01L353.71-6.01L353.69-5.71Q353.69-4.76 354.36-4.15Q355.03-3.53 356.19-3.53ZM367.93-9.44L367.93-9.65Q367.93-14.03 370.01-16.70Q372.09-19.37 375.63-19.37L375.63-19.37Q378.76-19.37 380.50-17.23L380.50-17.23L380.71-19.02L385.31-19.02L385.31-0.63Q385.31 1.86 384.18 3.71Q383.04 5.55 380.99 6.52Q378.93 7.49 376.17 7.49L376.17 7.49Q374.08 7.49 372.09 6.65Q370.11 5.82 369.09 4.50L369.09 4.50L371.34 1.41Q373.24 3.53 375.94 3.53L375.94 3.53Q377.96 3.53 379.09 2.45Q380.21 1.37 380.21-0.62L380.21-0.62L380.21-1.63Q378.46 0.35 375.59 0.35L375.59 0.35Q372.16 0.35 370.05-2.33Q367.93-5.01 367.93-9.44L367.93-9.44ZM373.01-9.28L373.01-9.28Q373.01-6.70 374.04-5.23Q375.08-3.76 376.89-3.76L376.89-3.76Q379.21-3.76 380.21-5.50L380.21-5.50L380.21-13.50Q379.20-15.24 376.93-15.24L376.93-15.24Q375.10-15.24 374.05-13.75Q373.01-12.25 373.01-9.28ZM397.97 0.35L397.97 0.35Q393.79 0.35 391.16-2.21Q388.53-4.78 388.53-9.05L388.53-9.05L388.53-9.54Q388.53-12.41 389.64-14.67Q390.74-16.93 392.77-18.15Q394.80-19.37 397.41-19.37L397.41-19.37Q401.31-19.37 403.55-16.91Q405.79-14.45 405.79-9.93L405.79-9.93L405.79-7.86L393.68-7.86Q393.93-5.99 395.17-4.87Q396.40-3.74 398.30-3.74L398.30-3.74Q401.24-3.74 402.89-5.87L402.89-5.87L405.39-3.08Q404.24-1.46 402.29-0.55Q400.34 0.35 397.97 0.35ZM397.39-15.26L397.39-15.26Q395.88-15.26 394.94-14.24Q394.00-13.22 393.73-11.32L393.73-11.32L400.80-11.32L400.80-11.72Q400.76-13.41 399.88-14.33Q399.01-15.26 397.39-15.26ZM408.67-19.02L413.44-19.02L413.60-16.89Q415.62-19.37 419.06-19.37L419.06-19.37Q422.74-19.37 424.11-16.47L424.11-16.47Q426.11-19.37 429.82-19.37L429.82-19.37Q432.91-19.37 434.43-17.57Q435.94-15.77 435.94-12.15L435.94-12.15L435.94 0L430.84 0L430.84-12.13Q430.84-13.75 430.21-14.49Q429.57-15.24 427.97-15.24L427.97-15.24Q425.69-15.24 424.81-13.06L424.81-13.06L424.83 0L419.75 0L419.75-12.11Q419.75-13.76 419.10-14.50Q418.45-15.24 416.88-15.24L416.88-15.24Q414.72-15.24 413.75-13.45L413.75-13.45L413.75 0L408.67 0L408.67-19.02ZM448.59 0.35L448.59 0.35Q444.41 0.35 441.78-2.21Q439.15-4.78 439.15-9.05L439.15-9.05L439.15-9.54Q439.15-12.41 440.26-14.67Q441.37-16.93 443.40-18.15Q445.43-19.37 448.03-19.37L448.03-19.37Q451.93-19.37 454.17-16.91Q456.42-14.45 456.42-9.93L456.42-9.93L456.42-7.86L444.30-7.86Q444.55-5.99 445.79-4.87Q447.03-3.74 448.93-3.74L448.93-3.74Q451.86-3.74 453.52-5.87L453.52-5.87L456.01-3.08Q454.87-1.46 452.92-0.55Q450.97 0.35 448.59 0.35ZM448.01-15.26L448.01-15.26Q446.50-15.26 445.56-14.24Q444.62-13.22 444.36-11.32L444.36-11.32L451.42-11.32L451.42-11.72Q451.39-13.41 450.51-14.33Q449.63-15.26 448.01-15.26ZM459.19-19.02L463.97-19.02L464.13-16.82Q466.17-19.37 469.60-19.37L469.60-19.37Q472.62-19.37 474.10-17.60Q475.58-15.82 475.61-12.29L475.61-12.29L475.61 0L470.53 0L470.53-12.16Q470.53-13.78 469.83-14.51Q469.13-15.24 467.49-15.24L467.49-15.24Q465.35-15.24 464.27-13.41L464.27-13.41L464.27 0L459.19 0L459.19-19.02ZM480.46-23.70L485.54-23.70L485.54-19.02L488.79-19.02L488.79-15.29L485.54-15.29L485.54-5.80Q485.54-4.75 485.95-4.29Q486.35-3.83 487.49-3.83L487.49-3.83Q488.34-3.83 488.99-3.96L488.99-3.96L488.99-0.11Q487.49 0.35 485.91 0.35L485.91 0.35Q480.57 0.35 480.46-5.04L480.46-5.04L480.46-15.29L477.69-15.29L477.69-19.02L480.46-19.02L480.46-23.70Z" transform="translate(620, 695)" fill="#ffffff" />
  <text x="960" y="1040" font-family="Arial, sans-serif" font-size="20" fill="#666" text-anchor="middle">OpenClaw Documentation</text>
</svg>