<?xml version="1.0" encoding="UTF-8"?>
<svg width="1920" height="1080" xmlns="http://www.w3.org/2000/svg">
  <defs>
    <linearGradient id="bg" x1="0%" y1="0%" x2="100%" y2="100%">
      <stop offset="0%" style="stop-color:#1a1a2e;stop-opacity:1" />
      <stop offset="100%" style="stop-color:#000008;stop-opacity:1" />
    </linearGradient>
    <linearGradient id="accent" x1="0%" y1="0%" x2="100%" y2="0%">
      <stop offset="0%" style="stop-color:#e94560;stop-opacity:1" />
      <stop offset="100%" style="stop-color:#ff92ad;stop-opacity:1" />
    </linearGradient>
    <filter id="glow">
      <feGaussianBlur stdDeviation="3" result="coloredBlur"/>
      <feMerge><feMergeNode in="coloredBlur"/><feMergeNode in="SourceGraphic"/></feMerge>
    </filter>
  </defs>
  <rect width="100%" height="100%" fill="url(#bg)"/>
  <circle cx="1920" cy="0" r="700" fill="#e94560" opacity="0.08"/>
  <circle cx="0" cy="1080" r="500" fill="#ff92ad" opacity="0.06"/>
  <rect width="1920" height="6" fill="url(#accent)"/>
  <path d="M19.95-9.95L26.11-9.95Q25.76-5.13 22.55-2.36Q19.34 0.41 14.09 0.41L14.09 0.41Q8.35 0.41 5.06-3.46Q1.76-7.32 1.76-14.07L1.76-14.07L1.76-15.89Q1.76-20.20 3.28-23.48Q4.80-26.76 7.62-28.52Q10.44-30.27 14.17-30.27L14.17-30.27Q19.34-30.27 22.50-27.50Q25.66-24.73 26.15-19.73L26.15-19.73L20.00-19.73Q19.77-22.62 18.39-23.92Q17.00-25.22 14.17-25.22L14.17-25.22Q11.09-25.22 9.57-23.02Q8.04-20.82 8.00-16.18L8.00-16.18L8.00-13.92Q8.00-9.08 9.46-6.85Q10.93-4.61 14.09-4.61L14.09-4.61Q16.94-4.61 18.34-5.92Q19.75-7.22 19.95-9.95L19.95-9.95ZM35.54-31.50L35.54-19.77Q37.90-22.60 41.47-22.60L41.47-22.60Q48.69-22.60 48.79-14.21L48.79-14.21L48.79 0L42.86 0L42.86-14.05Q42.86-15.96 42.04-16.87Q41.22-17.78 39.31-17.78L39.31-17.78Q36.71-17.78 35.54-15.77L35.54-15.77L35.54 0L29.61 0L29.61-31.50L35.54-31.50ZM72.11 0L66.12 0Q65.71-0.80 65.52-1.99L65.52-1.99Q63.37 0.41 59.92 0.41L59.92 0.41Q56.66 0.41 54.52-1.48Q52.38-3.36 52.38-6.23L52.38-6.23Q52.38-9.76 54.99-11.65Q57.61-13.54 62.55-13.56L62.55-13.56L65.28-13.56L65.28-14.83Q65.28-16.37 64.49-17.29Q63.70-18.21 62.00-18.21L62.00-18.21Q60.50-18.21 59.65-17.49Q58.80-16.78 58.80-15.52L58.80-15.52L52.87-15.52Q52.87-17.45 54.06-19.09Q55.25-20.73 57.42-21.67Q59.60-22.60 62.30-22.60L62.30-22.60Q66.40-22.60 68.81-20.54Q71.22-18.48 71.22-14.75L71.22-14.75L71.22-5.13Q71.24-1.97 72.11-0.35L72.11-0.35L72.11 0ZM61.22-4.12L61.22-4.12Q62.53-4.12 63.64-4.71Q64.74-5.29 65.28-6.28L65.28-6.28L65.28-10.09L63.06-10.09Q58.61-10.09 58.32-7.01L58.32-7.01L58.30-6.67Q58.30-5.56 59.08-4.84Q59.86-4.12 61.22-4.12ZM75.65-22.19L81.23-22.19L81.42-19.63Q83.79-22.60 87.79-22.60L87.79-22.60Q91.32-22.60 93.04-20.53Q94.77-18.46 94.81-14.33L94.81-14.33L94.81 0L88.88 0L88.88-14.19Q88.88-16.08 88.06-16.93Q87.24-17.78 85.33-17.78L85.33-17.78Q82.83-17.78 81.58-15.65L81.58-15.65L81.58 0L75.65 0L75.65-22.19ZM116.98-9.95L123.13-9.95Q122.78-5.13 119.57-2.36Q116.36 0.41 111.11 0.41L111.11 0.41Q105.37 0.41 102.08-3.46Q98.79-7.32 98.79-14.07L98.79-14.07L98.79-15.89Q98.79-20.20 100.30-23.48Q101.82-26.76 104.64-28.52Q107.46-30.27 111.19-30.27L111.19-30.27Q116.36-30.27 119.52-27.50Q122.68-24.73 123.17-19.73L123.17-19.73L117.02-19.73Q116.79-22.62 115.41-23.92Q114.02-25.22 111.19-25.22L111.19-25.22Q108.12-25.22 106.59-23.02Q105.06-20.82 105.02-16.18L105.02-16.18L105.02-13.92Q105.02-9.08 106.49-6.85Q107.95-4.61 111.11-4.61L111.11-4.61Q113.96-4.61 115.37-5.92Q116.77-7.22 116.98-9.95L116.98-9.95ZM133.03-31.50L133.03 0L127.09 0L127.09-31.50L133.03-31.50ZM156.76 0L150.77 0Q150.36-0.80 150.18-1.99L150.18-1.99Q148.03 0.41 144.58 0.41L144.58 0.41Q141.32 0.41 139.18-1.48Q137.03-3.36 137.03-6.23L137.03-6.23Q137.03-9.76 139.65-11.65Q142.26-13.54 147.21-13.56L147.21-13.56L149.93-13.56L149.93-14.83Q149.93-16.37 149.14-17.29Q148.35-18.21 146.65-18.21L146.65-18.21Q145.15-18.21 144.30-17.49Q143.45-16.78 143.45-15.52L143.45-15.52L137.53-15.52Q137.53-17.45 138.71-19.09Q139.90-20.73 142.08-21.67Q144.25-22.60 146.96-22.60L146.96-22.60Q151.06-22.60 153.47-20.54Q155.88-18.48 155.88-14.75L155.88-14.75L155.88-5.13Q155.90-1.97 156.76-0.35L156.76-0.35L156.76 0ZM145.87-4.12L145.87-4.12Q147.18-4.12 148.29-4.71Q149.40-5.29 149.93-6.28L149.93-6.28L149.93-10.09L147.72-10.09Q143.27-10.09 142.98-7.01L142.98-7.01L142.96-6.67Q142.96-5.56 143.74-4.84Q144.52-4.12 145.87-4.12ZM175.69-22.19L179.73-8.06L182.64-22.19L188.36-22.19L182.70 0L177.74 0L173.54-13.97L169.33 0L164.39 0L158.73-22.19L164.45-22.19L167.34-8.08L171.40-22.19L175.69-22.19Z" transform="translate(50, 70)" fill="#e94560" />
  <text x="1870" y="70" font-family="Arial, sans-serif" font-size="24" fill="#888" text-anchor="end">6 / 10</text>
  <path d="M11.95-51.19L23.48-12.69L35.09-51.19L46.83-51.19L29.00 0L18 0L0.25-51.19L11.95-51.19ZM49.39-18.91L49.39-19.37Q49.39-25.03 51.57-29.46Q53.75-33.89 57.85-36.32Q61.95-38.74 67.36-38.74L67.36-38.74Q75.06-38.74 79.93-34.03Q84.80-29.32 85.36-21.23L85.36-21.23L85.43-18.63Q85.43-9.88 80.54-4.59Q75.66 0.70 67.43 0.70Q59.20 0.70 54.30-4.57Q49.39-9.84 49.39-18.91L49.39-18.91ZM59.55-18.63L59.55-18.63Q59.55-13.22 61.59-10.35Q63.63-7.49 67.43-7.49L67.43-7.49Q71.12-7.49 73.20-10.32Q75.27-13.15 75.27-19.37L75.27-19.37Q75.27-24.68 73.20-27.60Q71.12-30.52 67.36-30.52L67.36-30.52Q63.63-30.52 61.59-27.62Q59.55-24.71 59.55-18.63ZM102.41-38.04L102.41 0L92.21 0L92.21-38.04L102.41-38.04ZM91.62-47.88L91.62-47.88Q91.62-50.17 93.15-51.64Q94.68-53.12 97.31-53.12L97.31-53.12Q99.91-53.12 101.46-51.64Q103.01-50.17 103.01-47.88L103.01-47.88Q103.01-45.56 101.44-44.09Q99.88-42.61 97.31-42.61Q94.75-42.61 93.18-44.09Q91.62-45.56 91.62-47.88ZM126.60-7.49L126.60-7.49Q129.41-7.49 131.17-9.04Q132.93-10.58 133.00-13.15L133.00-13.15L142.52-13.15Q142.49-9.28 140.41-6.06Q138.34-2.85 134.74-1.07Q131.13 0.70 126.77 0.70L126.77 0.70Q118.62 0.70 113.91-4.48Q109.20-9.67 109.20-18.81L109.20-18.81L109.20-19.48Q109.20-28.27 113.87-33.50Q118.55-38.74 126.70-38.74L126.70-38.74Q133.84-38.74 138.15-34.68Q142.45-30.62 142.52-23.87L142.52-23.87L133.00-23.87Q132.93-26.82 131.17-28.67Q129.41-30.52 126.53-30.52L126.53-30.52Q122.98-30.52 121.17-27.93Q119.36-25.35 119.36-19.55L119.36-19.55L119.36-18.49Q119.36-12.62 121.15-10.05Q122.94-7.49 126.60-7.49ZM165.83 0.70L165.83 0.70Q157.46 0.70 152.21-4.43Q146.95-9.56 146.95-18.11L146.95-18.11L146.95-19.09Q146.95-24.82 149.17-29.34Q151.38-33.86 155.44-36.30Q159.50-38.74 164.71-38.74L164.71-38.74Q172.51-38.74 176.99-33.82Q181.48-28.90 181.48-19.86L181.48-19.86L181.48-15.71L157.25-15.71Q157.75-11.99 160.22-9.74Q162.70-7.49 166.50-7.49L166.50-7.49Q172.37-7.49 175.68-11.74L175.68-11.74L180.67-6.15Q178.38-2.92 174.48-1.11Q170.58 0.70 165.83 0.70ZM164.67-30.52L164.67-30.52Q161.65-30.52 159.77-28.48Q157.89-26.44 157.36-22.64L157.36-22.64L171.49-22.64L171.49-23.45Q171.42-26.82 169.66-28.67Q167.91-30.52 164.67-30.52ZM237.48 0L227.21 0Q226.51-1.37 226.20-3.41L226.20-3.41Q222.50 0.70 216.60 0.70L216.60 0.70Q211.01 0.70 207.33-2.53Q203.66-5.77 203.66-10.69L203.66-10.69Q203.66-16.73 208.14-19.97Q212.63-23.20 221.10-23.24L221.10-23.24L225.77-23.24L225.77-25.42Q225.77-28.05 224.42-29.64Q223.07-31.22 220.15-31.22L220.15-31.22Q217.58-31.22 216.12-29.99Q214.66-28.76 214.66-26.61L214.66-26.61L204.50-26.61Q204.50-29.92 206.54-32.73Q208.58-35.54 212.31-37.14Q216.04-38.74 220.68-38.74L220.68-38.74Q227.71-38.74 231.84-35.21Q235.97-31.68 235.97-25.28L235.97-25.28L235.97-8.79Q236.00-3.38 237.48-0.60L237.48-0.60L237.48 0ZM218.81-7.07L218.81-7.07Q221.06-7.07 222.96-8.07Q224.86-9.07 225.77-10.76L225.77-10.76L225.77-17.30L221.98-17.30Q214.35-17.30 213.86-12.02L213.86-12.02L213.82-11.43Q213.82-9.53 215.16-8.30Q216.49-7.07 218.81-7.07ZM243.56-38.04L253.13-38.04L253.44-33.64Q257.52-38.74 264.38-38.74L264.38-38.74Q270.42-38.74 273.38-35.19Q276.33-31.64 276.40-24.57L276.40-24.57L276.40 0L266.24 0L266.24-24.33Q266.24-27.56 264.83-29.02Q263.43-30.48 260.16-30.48L260.16-30.48Q255.87-30.48 253.72-26.82L253.72-26.82L253.72 0L243.56 0L243.56-38.04ZM282.52-19.30L282.52-19.30Q282.52-28.20 286.51-33.47Q290.50-38.74 297.42-38.74L297.42-38.74Q302.98-38.74 306.60-34.59L306.60-34.59L306.60-54L316.79-54L316.79 0L307.62 0L307.13-4.04Q303.33 0.70 297.35 0.70L297.35 0.70Q290.64 0.70 286.58-4.59Q282.52-9.88 282.52-19.30ZM292.68-18.56L292.68-18.56Q292.68-13.22 294.54-10.37Q296.40-7.52 299.95-7.52L299.95-7.52Q304.66-7.52 306.60-11.50L306.60-11.50L306.60-26.51Q304.70-30.48 300.02-30.48L300.02-30.48Q292.68-30.48 292.68-18.56ZM343.27-51.19L357.05-51.19L370.20-14.06L383.27-51.19L397.13-51.19L397.13 0L386.54 0L386.54-13.99L387.60-38.14L373.78 0L366.54 0L352.76-38.11L353.81-13.99L353.81 0L343.27 0L343.27-51.19ZM423.18 0.70L423.18 0.70Q414.81 0.70 409.55-4.43Q404.30-9.56 404.30-18.11L404.30-18.11L404.30-19.09Q404.30-24.82 406.51-29.34Q408.73-33.86 412.79-36.30Q416.85-38.74 422.05-38.74L422.05-38.74Q429.86-38.74 434.34-33.82Q438.82-28.90 438.82-19.86L438.82-19.86L438.82-15.71L414.60-15.71Q415.09-11.99 417.57-9.74Q420.05-7.49 423.84-7.49L423.84-7.49Q429.71-7.49 433.02-11.74L433.02-11.74L438.01-6.15Q435.73-2.92 431.82-1.11Q427.92 0.70 423.18 0.70ZM422.02-30.52L422.02-30.52Q418.99-30.52 417.11-28.48Q415.23-26.44 414.70-22.64L414.70-22.64L428.84-22.64L428.84-23.45Q428.77-26.82 427.01-28.67Q425.25-30.52 422.02-30.52ZM443.00-19.30L443.00-19.30Q443.00-28.20 446.99-33.47Q450.98-38.74 457.91-38.74L457.91-38.74Q463.46-38.74 467.09-34.59L467.09-34.59L467.09-54L477.28-54L477.28 0L468.11 0L467.61-4.04Q463.82 0.70 457.84 0.70L457.84 0.70Q451.13 0.70 447.06-4.59Q443.00-9.88 443.00-19.30ZM453.16-18.56L453.16-18.56Q453.16-13.22 455.03-10.37Q456.89-7.52 460.44-7.52L460.44-7.52Q465.15-7.52 467.09-11.50L467.09-11.50L467.09-26.51Q465.19-30.48 460.51-30.48L460.51-30.48Q453.16-30.48 453.16-18.56ZM495.88-38.04L495.88 0L485.68 0L485.68-38.04L495.88-38.04ZM485.09-47.88L485.09-47.88Q485.09-50.17 486.62-51.64Q488.14-53.12 490.78-53.12L490.78-53.12Q493.38-53.12 494.93-51.64Q496.48-50.17 496.48-47.88L496.48-47.88Q496.48-45.56 494.91-44.09Q493.35-42.61 490.78-42.61Q488.21-42.61 486.65-44.09Q485.09-45.56 485.09-47.88ZM536.55 0L526.29 0Q525.59-1.37 525.27-3.41L525.27-3.41Q521.58 0.70 515.67 0.70L515.67 0.70Q510.08 0.70 506.41-2.53Q502.73-5.77 502.73-10.69L502.73-10.69Q502.73-16.73 507.22-19.97Q511.70-23.20 520.17-23.24L520.17-23.24L524.85-23.24L524.85-25.42Q524.85-28.05 523.49-29.64Q522.14-31.22 519.22-31.22L519.22-31.22Q516.66-31.22 515.20-29.99Q513.74-28.76 513.74-26.61L513.74-26.61L503.58-26.61Q503.58-29.92 505.62-32.73Q507.66-35.54 511.38-37.14Q515.11-38.74 519.75-38.74L519.75-38.74Q526.78-38.74 530.91-35.21Q535.04-31.68 535.04-25.28L535.04-25.28L535.04-8.79Q535.08-3.38 536.55-0.60L536.55-0.60L536.55 0ZM517.89-7.07L517.89-7.07Q520.14-7.07 522.04-8.07Q523.93-9.07 524.85-10.76L524.85-10.76L524.85-17.30L521.05-17.30Q513.42-17.30 512.93-12.02L512.93-12.02L512.89-11.43Q512.89-9.53 514.23-8.30Q515.57-7.07 517.89-7.07Z" transform="translate(690.52734375, 380)" fill="#ffffff" />
  <line x1="760" y1="430" x2="1160" y2="430" stroke="#e94560" stroke-width="4"/>
  <circle cx="580" cy="500" r="6" fill="#e94560" /><path d="M17.68-15.22L17.68-11.09L7.56-11.09L7.56-4.24L19.44-4.24L19.44 0L2.29 0L2.29-25.59L19.41-25.59L19.41-21.32L7.56-21.32L7.56-15.22L17.68-15.22ZM27.56-27L27.56 0L22.46 0L22.46-27L27.56-27ZM40.50 0.35L40.50 0.35Q36.32 0.35 33.69-2.21Q31.06-4.78 31.06-9.05L31.06-9.05L31.06-9.54Q31.06-12.41 32.17-14.67Q33.28-16.93 35.31-18.15Q37.34-19.37 39.94-19.37L39.94-19.37Q43.84-19.37 46.08-16.91Q48.32-14.45 48.32-9.93L48.32-9.93L48.32-7.86L36.21-7.86Q36.46-5.99 37.70-4.87Q38.94-3.74 40.83-3.74L40.83-3.74Q43.77-3.74 45.42-5.87L45.42-5.87L47.92-3.08Q46.78-1.46 44.82-0.55Q42.87 0.35 40.50 0.35ZM39.92-15.26L39.92-15.26Q38.41-15.26 37.47-14.24Q36.53-13.22 36.26-11.32L36.26-11.32L43.33-11.32L43.33-11.72Q43.29-13.41 42.42-14.33Q41.54-15.26 39.92-15.26ZM54.79-19.02L58.32-6.21L61.86-19.02L67.17-19.02L60.75 0L55.90 0L49.48-19.02L54.79-19.02ZM78.15 0.35L78.15 0.35Q73.97 0.35 71.34-2.21Q68.71-4.78 68.71-9.05L68.71-9.05L68.71-9.54Q68.71-12.41 69.82-14.67Q70.93-16.93 72.96-18.15Q74.99-19.37 77.59-19.37L77.59-19.37Q81.49-19.37 83.73-16.91Q85.97-14.45 85.97-9.93L85.97-9.93L85.97-7.86L73.86-7.86Q74.11-5.99 75.35-4.87Q76.59-3.74 78.49-3.74L78.49-3.74Q81.42-3.74 83.07-5.87L83.07-5.87L85.57-3.08Q84.43-1.46 82.48-0.55Q80.53 0.35 78.15 0.35ZM77.57-15.26L77.57-15.26Q76.06-15.26 75.12-14.24Q74.18-13.22 73.92-11.32L73.92-11.32L80.98-11.32L80.98-11.72Q80.95-13.41 80.07-14.33Q79.19-15.26 77.57-15.26ZM88.75-19.02L93.53-19.02L93.69-16.82Q95.73-19.37 99.16-19.37L99.16-19.37Q102.18-19.37 103.66-17.60Q105.13-15.82 105.17-12.29L105.17-12.29L105.17 0L100.09 0L100.09-12.16Q100.09-13.78 99.39-14.51Q98.68-15.24 97.05-15.24L97.05-15.24Q94.90-15.24 93.83-13.41L93.83-13.41L93.83 0L88.75 0L88.75-19.02ZM114.63-25.59L114.63-4.24L125.82-4.24L125.82 0L109.35 0L109.35-25.59L114.63-25.59ZM144.67 0L139.54 0Q139.18-0.69 139.03-1.71L139.03-1.71Q137.18 0.35 134.23 0.35L134.23 0.35Q131.43 0.35 129.59-1.27Q127.76-2.88 127.76-5.34L127.76-5.34Q127.76-8.37 130.00-9.98Q132.24-11.60 136.48-11.62L136.48-11.62L138.81-11.62L138.81-12.71Q138.81-14.03 138.14-14.82Q137.46-15.61 136.00-15.61L136.00-15.61Q134.72-15.61 133.99-14.99Q133.26-14.38 133.26-13.31L133.26-13.31L128.18-13.31Q128.18-14.96 129.20-16.37Q130.22-17.77 132.08-18.57Q133.95-19.37 136.27-19.37L136.27-19.37Q139.78-19.37 141.85-17.60Q143.91-15.84 143.91-12.64L143.91-12.64L143.91-4.39Q143.93-1.69 144.67-0.30L144.67-0.30L144.67 0ZM135.33-3.53L135.33-3.53Q136.46-3.53 137.41-4.03Q138.36-4.54 138.81-5.38L138.81-5.38L138.81-8.65L136.92-8.65Q133.10-8.65 132.86-6.01L132.86-6.01L132.84-5.71Q132.84-4.76 133.51-4.15Q134.17-3.53 135.33-3.53ZM164.95-9.62L164.95-9.33Q164.95-4.76 163.00-2.21Q161.05 0.35 157.55 0.35L157.55 0.35Q154.46 0.35 152.61-2.02L152.61-2.02L152.38 0L147.81 0L147.81-27L152.89-27L152.89-17.31Q154.65-19.37 157.52-19.37L157.52-19.37Q161.00-19.37 162.98-16.81Q164.95-14.26 164.95-9.62L164.95-9.62ZM159.87-9.70L159.87-9.70Q159.87-12.59 158.96-13.91Q158.04-15.24 156.23-15.24L156.23-15.24Q153.81-15.24 152.89-13.25L152.89-13.25L152.89-5.75Q153.83-3.74 156.27-3.74L156.27-3.74Q158.73-3.74 159.50-6.17L159.50-6.17Q159.87-7.33 159.87-9.70ZM178.38-5.26L178.38-5.26Q178.38-6.19 177.46-6.72Q176.54-7.26 174.50-7.68L174.50-7.68Q167.71-9.11 167.71-13.45L167.71-13.45Q167.71-15.98 169.81-17.67Q171.91-19.37 175.31-19.37L175.31-19.37Q178.93-19.37 181.10-17.67Q183.27-15.96 183.27-13.24L183.27-13.24L178.19-13.24Q178.19-14.33 177.49-15.04Q176.78-15.75 175.29-15.75L175.29-15.75Q174.01-15.75 173.30-15.17Q172.60-14.59 172.60-13.69L172.60-13.69Q172.60-12.85 173.40-12.33Q174.20-11.81 176.10-11.43Q178.00-11.06 179.30-10.58L179.30-10.58Q183.32-9.11 183.32-5.47L183.32-5.47Q183.32-2.87 181.09-1.26Q178.86 0.35 175.32 0.35L175.32 0.35Q172.93 0.35 171.08-0.50Q169.22-1.35 168.17-2.84Q167.12-4.32 167.12-6.05L167.12-6.05L171.93-6.05Q172.00-4.69 172.93-3.97Q173.87-3.25 175.43-3.25L175.43-3.25Q176.89-3.25 177.64-3.81Q178.38-4.36 178.38-5.26ZM215.16-25.59L215.16-21.32L207.32-21.32L207.32 0L202.04 0L202.04-21.32L194.31-21.32L194.31-25.59L215.16-25.59ZM237.43-25.59L237.43-21.32L229.59-21.32L229.59 0L224.31 0L224.31-21.32L216.58-21.32L216.58-25.59L237.43-25.59ZM253.71-6.71L253.71-6.71Q253.71-8.21 252.65-9.01Q251.60-9.81 248.85-10.70Q246.11-11.58 244.51-12.45L244.51-12.45Q240.15-14.80 240.15-18.79L240.15-18.79Q240.15-20.87 241.32-22.49Q242.49-24.12 244.68-25.03Q246.87-25.95 249.59-25.95L249.59-25.95Q252.33-25.95 254.48-24.95Q256.62-23.96 257.81-22.15Q259.00-20.34 259.00-18.04L259.00-18.04L253.72-18.04Q253.72-19.79 252.62-20.77Q251.51-21.74 249.50-21.74L249.50-21.74Q247.57-21.74 246.50-20.93Q245.43-20.11 245.43-18.77L245.43-18.77Q245.43-17.53 246.68-16.68Q247.94-15.84 250.38-15.10L250.38-15.10Q254.88-13.75 256.94-11.74Q259.00-9.74 259.00-6.75L259.00-6.75Q259.00-3.43 256.48-1.54Q253.97 0.35 249.71 0.35L249.71 0.35Q246.76 0.35 244.34-0.73Q241.91-1.81 240.64-3.69Q239.36-5.57 239.36-8.05L239.36-8.05L244.65-8.05Q244.65-3.81 249.71-3.81L249.71-3.81Q251.60-3.81 252.65-4.58Q253.71-5.34 253.71-6.71ZM276.56-19.02L276.56 0L271.46 0L271.46-19.02L276.56-19.02ZM271.16-23.94L271.16-23.94Q271.16-25.08 271.92-25.82Q272.69-26.56 274.01-26.56L274.01-26.56Q275.31-26.56 276.08-25.82Q276.86-25.08 276.86-23.94L276.86-23.94Q276.86-22.78 276.07-22.04Q275.29-21.30 274.01-21.30Q272.72-21.30 271.94-22.04Q271.16-22.78 271.16-23.94ZM280.63-19.02L285.42-19.02L285.57-16.82Q287.61-19.37 291.04-19.37L291.04-19.37Q294.06-19.37 295.54-17.60Q297.02-15.82 297.05-12.29L297.05-12.29L297.05 0L291.97 0L291.97-12.16Q291.97-13.78 291.27-14.51Q290.57-15.24 288.93-15.24L288.93-15.24Q286.79-15.24 285.71-13.41L285.71-13.41L285.71 0L280.63 0L280.63-19.02ZM301.90-23.70L306.98-23.70L306.98-19.02L310.24-19.02L310.24-15.29L306.98-15.29L306.98-5.80Q306.98-4.75 307.39-4.29Q307.79-3.83 308.94-3.83L308.94-3.83Q309.78-3.83 310.43-3.96L310.43-3.96L310.43-0.11Q308.94 0.35 307.35 0.35L307.35 0.35Q302.01 0.35 301.90-5.04L301.90-5.04L301.90-15.29L299.13-15.29L299.13-19.02L301.90-19.02L301.90-23.70ZM321.82 0.35L321.82 0.35Q317.64 0.35 315.01-2.21Q312.38-4.78 312.38-9.05L312.38-9.05L312.38-9.54Q312.38-12.41 313.49-14.67Q314.60-16.93 316.63-18.15Q318.66-19.37 321.26-19.37L321.26-19.37Q325.16-19.37 327.40-16.91Q329.64-14.45 329.64-9.93L329.64-9.93L329.64-7.86L317.53-7.86Q317.78-5.99 319.02-4.87Q320.26-3.74 322.15-3.74L322.15-3.74Q325.09-3.74 326.74-5.87L326.74-5.87L329.24-3.08Q328.10-1.46 326.14-0.55Q324.19 0.35 321.82 0.35ZM321.24-15.26L321.24-15.26Q319.73-15.26 318.79-14.24Q317.85-13.22 317.58-11.32L317.58-11.32L324.65-11.32L324.65-11.72Q324.62-13.41 323.74-14.33Q322.86-15.26 321.24-15.26ZM331.79-9.44L331.79-9.65Q331.79-14.03 333.87-16.70Q335.95-19.37 339.49-19.37L339.49-19.37Q342.62-19.37 344.36-17.23L344.36-17.23L344.57-19.02L349.17-19.02L349.17-0.63Q349.17 1.86 348.04 3.71Q346.90 5.55 344.85 6.52Q342.79 7.49 340.03 7.49L340.03 7.49Q337.94 7.49 335.95 6.65Q333.97 5.82 332.95 4.50L332.95 4.50L335.20 1.41Q337.10 3.53 339.80 3.53L339.80 3.53Q341.82 3.53 342.95 2.45Q344.07 1.37 344.07-0.62L344.07-0.62L344.07-1.63Q342.32 0.35 339.45 0.35L339.45 0.35Q336.02 0.35 333.91-2.33Q331.79-5.01 331.79-9.44L331.79-9.44ZM336.87-9.28L336.87-9.28Q336.87-6.70 337.90-5.23Q338.94-3.76 340.75-3.76L340.75-3.76Q343.07-3.76 344.07-5.50L344.07-5.50L344.07-13.50Q343.05-15.24 340.79-15.24L340.79-15.24Q338.96-15.24 337.91-13.75Q336.87-12.25 336.87-9.28ZM363.83-19.14L363.76-14.26Q362.72-14.40 361.93-14.40L361.93-14.40Q359.05-14.40 358.15-12.45L358.15-12.45L358.15 0L353.07 0L353.07-19.02L357.87-19.02L358.01-16.75Q359.54-19.37 362.25-19.37L362.25-19.37Q363.09-19.37 363.83-19.14L363.83-19.14ZM382.36 0L377.23 0Q376.88-0.69 376.72-1.71L376.72-1.71Q374.87 0.35 371.92 0.35L371.92 0.35Q369.12 0.35 367.29-1.27Q365.45-2.88 365.45-5.34L365.45-5.34Q365.45-8.37 367.69-9.98Q369.93-11.60 374.17-11.62L374.17-11.62L376.51-11.62L376.51-12.71Q376.51-14.03 375.83-14.82Q375.15-15.61 373.69-15.61L373.69-15.61Q372.41-15.61 371.68-14.99Q370.95-14.38 370.95-13.31L370.95-13.31L365.87-13.31Q365.87-14.96 366.89-16.37Q367.91-17.77 369.77-18.57Q371.64-19.37 373.96-19.37L373.96-19.37Q377.47-19.37 379.54-17.60Q381.60-15.84 381.60-12.64L381.60-12.64L381.60-4.39Q381.62-1.69 382.36-0.30L382.36-0.30L382.36 0ZM373.03-3.53L373.03-3.53Q374.15-3.53 375.10-4.03Q376.05-4.54 376.51-5.38L376.51-5.38L376.51-8.65L374.61-8.65Q370.79-8.65 370.55-6.01L370.55-6.01L370.53-5.71Q370.53-4.76 371.20-4.15Q371.87-3.53 373.03-3.53ZM386.51-23.70L391.59-23.70L391.59-19.02L394.84-19.02L394.84-15.29L391.59-15.29L391.59-5.80Q391.59-4.75 391.99-4.29Q392.40-3.83 393.54-3.83L393.54-3.83Q394.38-3.83 395.03-3.96L395.03-3.96L395.03-0.11Q393.54 0.35 391.96 0.35L391.96 0.35Q386.61 0.35 386.51-5.04L386.51-5.04L386.51-15.29L383.73-15.29L383.73-19.02L386.51-19.02L386.51-23.70ZM403.03-19.02L403.03 0L397.93 0L397.93-19.02L403.03-19.02ZM397.63-23.94L397.63-23.94Q397.63-25.08 398.40-25.82Q399.16-26.56 400.48-26.56L400.48-26.56Q401.78-26.56 402.56-25.82Q403.33-25.08 403.33-23.94L403.33-23.94Q403.33-22.78 402.55-22.04Q401.77-21.30 400.48-21.30Q399.20-21.30 398.42-22.04Q397.63-22.78 397.63-23.94ZM406.42-9.46L406.42-9.69Q406.42-12.52 407.51-14.73Q408.60-16.95 410.65-18.16Q412.70-19.37 415.41-19.37L415.41-19.37Q419.26-19.37 421.69-17.02Q424.13-14.66 424.41-10.62L424.41-10.62L424.44-9.32Q424.44-4.94 422.00-2.29Q419.55 0.35 415.44 0.35Q411.33 0.35 408.88-2.29Q406.42-4.92 406.42-9.46L406.42-9.46ZM411.50-9.32L411.50-9.32Q411.50-6.61 412.52-5.18Q413.54-3.74 415.44-3.74L415.44-3.74Q417.29-3.74 418.32-5.16Q419.36-6.57 419.36-9.69L419.36-9.69Q419.36-12.34 418.32-13.80Q417.29-15.26 415.41-15.26L415.41-15.26Q413.54-15.26 412.52-13.81Q411.50-12.36 411.50-9.32ZM427.46-19.02L432.25-19.02L432.40-16.82Q434.44-19.37 437.87-19.37L437.87-19.37Q440.89-19.37 442.37-17.60Q443.85-15.82 443.88-12.29L443.88-12.29L443.88 0L438.80 0L438.80-12.16Q438.80-13.78 438.10-14.51Q437.40-15.24 435.76-15.24L435.76-15.24Q433.62-15.24 432.54-13.41L432.54-13.41L432.54 0L427.46 0L427.46-19.02Z" transform="translate(620, 500)" fill="#ffffff" /><circle cx="580" cy="565" r="6" fill="#e94560" /><path d="M17.10-8.53L22.38-8.53Q22.08-4.39 19.33-2.02Q16.58 0.35 12.08 0.35L12.08 0.35Q7.15 0.35 4.33-2.96Q1.51-6.28 1.51-12.06L1.51-12.06L1.51-13.62Q1.51-17.31 2.81-20.13Q4.11-22.94 6.53-24.44Q8.95-25.95 12.15-25.95L12.15-25.95Q16.58-25.95 19.28-23.57Q21.99-21.20 22.41-16.91L22.41-16.91L17.14-16.91Q16.95-19.39 15.76-20.50Q14.57-21.62 12.15-21.62L12.15-21.62Q9.51-21.62 8.20-19.73Q6.89-17.84 6.86-13.87L6.86-13.87L6.86-11.94Q6.86-7.79 8.11-5.87Q9.37-3.96 12.08-3.96L12.08-3.96Q14.52-3.96 15.72-5.07Q16.93-6.19 17.10-8.53L17.10-8.53ZM41.66 0L36.53 0Q36.18-0.69 36.02-1.71L36.02-1.71Q34.17 0.35 31.22 0.35L31.22 0.35Q28.42 0.35 26.59-1.27Q24.75-2.88 24.75-5.34L24.75-5.34Q24.75-8.37 26.99-9.98Q29.23-11.60 33.47-11.62L33.47-11.62L35.81-11.62L35.81-12.71Q35.81-14.03 35.13-14.82Q34.45-15.61 32.99-15.61L32.99-15.61Q31.71-15.61 30.98-14.99Q30.25-14.38 30.25-13.31L30.25-13.31L25.17-13.31Q25.17-14.96 26.19-16.37Q27.21-17.77 29.07-18.57Q30.94-19.37 33.26-19.37L33.26-19.37Q36.77-19.37 38.84-17.60Q40.90-15.84 40.90-12.64L40.90-12.64L40.90-4.39Q40.92-1.69 41.66-0.30L41.66-0.30L41.66 0ZM32.33-3.53L32.33-3.53Q33.45-3.53 34.40-4.03Q35.35-4.54 35.81-5.38L35.81-5.38L35.81-8.65L33.91-8.65Q30.09-8.65 29.85-6.01L29.85-6.01L29.83-5.71Q29.83-4.76 30.50-4.15Q31.17-3.53 32.33-3.53ZM44.70-19.02L49.48-19.02L49.64-16.82Q51.68-19.37 55.11-19.37L55.11-19.37Q58.13-19.37 59.61-17.60Q61.08-15.82 61.12-12.29L61.12-12.29L61.12 0L56.04 0L56.04-12.16Q56.04-13.78 55.34-14.51Q54.63-15.24 53.00-15.24L53.00-15.24Q50.85-15.24 49.78-13.41L49.78-13.41L49.78 0L44.70 0L44.70-19.02ZM68.55-19.02L72.09-6.21L75.62-19.02L80.93-19.02L74.51 0L69.66 0L63.25-19.02L68.55-19.02ZM99.32 0L94.18 0Q93.83-0.69 93.67-1.71L93.67-1.71Q91.83 0.35 88.88 0.35L88.88 0.35Q86.08 0.35 84.24-1.27Q82.41-2.88 82.41-5.34L82.41-5.34Q82.41-8.37 84.65-9.98Q86.89-11.60 91.13-11.62L91.13-11.62L93.46-11.62L93.46-12.71Q93.46-14.03 92.79-14.82Q92.11-15.61 90.65-15.61L90.65-15.61Q89.37-15.61 88.64-14.99Q87.91-14.38 87.91-13.31L87.91-13.31L82.83-13.31Q82.83-14.96 83.85-16.37Q84.87-17.77 86.73-18.57Q88.59-19.37 90.91-19.37L90.91-19.37Q94.43-19.37 96.50-17.60Q98.56-15.84 98.56-12.64L98.56-12.64L98.56-4.39Q98.58-1.69 99.32-0.30L99.32-0.30L99.32 0ZM89.98-3.53L89.98-3.53Q91.11-3.53 92.06-4.03Q93.01-4.54 93.46-5.38L93.46-5.38L93.46-8.65L91.56-8.65Q87.75-8.65 87.50-6.01L87.50-6.01L87.49-5.71Q87.49-4.76 88.15-4.15Q88.82-3.53 89.98-3.53ZM112.76-5.26L112.76-5.26Q112.76-6.19 111.84-6.72Q110.92-7.26 108.88-7.68L108.88-7.68Q102.09-9.11 102.09-13.45L102.09-13.45Q102.09-15.98 104.19-17.67Q106.29-19.37 109.69-19.37L109.69-19.37Q113.31-19.37 115.48-17.67Q117.65-15.96 117.65-13.24L117.65-13.24L112.57-13.24Q112.57-14.33 111.87-15.04Q111.16-15.75 109.67-15.75L109.67-15.75Q108.39-15.75 107.68-15.17Q106.98-14.59 106.98-13.69L106.98-13.69Q106.98-12.85 107.78-12.33Q108.58-11.81 110.48-11.43Q112.38-11.06 113.68-10.58L113.68-10.58Q117.70-9.11 117.70-5.47L117.70-5.47Q117.70-2.87 115.47-1.26Q113.24 0.35 109.71 0.35L109.71 0.35Q107.31 0.35 105.46-0.50Q103.61-1.35 102.55-2.84Q101.50-4.32 101.50-6.05L101.50-6.05L106.31-6.05Q106.38-4.69 107.31-3.97Q108.25-3.25 109.81-3.25L109.81-3.25Q111.27-3.25 112.02-3.81Q112.76-4.36 112.76-5.26ZM136.42 0L131.33 0L131.33-15.29L128.50-15.29L128.50-19.02L131.33-19.02L131.33-20.64Q131.33-23.84 133.16-25.60Q135-27.37 138.30-27.37L138.30-27.37Q139.36-27.37 140.89-27.02L140.89-27.02L140.84-23.08Q140.20-23.24 139.29-23.24L139.29-23.24Q136.42-23.24 136.42-20.55L136.42-20.55L136.42-19.02L140.20-19.02L140.20-15.29L136.42-15.29L136.42 0ZM142.05-9.46L142.05-9.69Q142.05-12.52 143.14-14.73Q144.23-16.95 146.28-18.16Q148.32-19.37 151.03-19.37L151.03-19.37Q154.88-19.37 157.32-17.02Q159.75-14.66 160.03-10.62L160.03-10.62L160.07-9.32Q160.07-4.94 157.62-2.29Q155.18 0.35 151.07 0.35Q146.95 0.35 144.50-2.29Q142.05-4.92 142.05-9.46L142.05-9.46ZM147.13-9.32L147.13-9.32Q147.13-6.61 148.15-5.18Q149.17-3.74 151.07-3.74L151.07-3.74Q152.91-3.74 153.95-5.16Q154.99-6.57 154.99-9.69L154.99-9.69Q154.99-12.34 153.95-13.80Q152.91-15.26 151.03-15.26L151.03-15.26Q149.17-15.26 148.15-13.81Q147.13-12.36 147.13-9.32ZM173.95-19.14L173.88-14.26Q172.85-14.40 172.05-14.40L172.05-14.40Q169.17-14.40 168.28-12.45L168.28-12.45L168.28 0L163.20 0L163.20-19.02L167.99-19.02L168.13-16.75Q169.66-19.37 172.37-19.37L172.37-19.37Q173.21-19.37 173.95-19.14L173.95-19.14ZM199.71-25.59L205.00-25.59L205.00-8.74Q205.00-4.54 202.37-2.09Q199.74 0.35 195.19 0.35L195.19 0.35Q190.71 0.35 188.07-2.02Q185.43-4.39 185.38-8.54L185.38-8.54L185.38-25.59L190.65-25.59L190.65-8.70Q190.65-6.19 191.86-5.04Q193.06-3.88 195.19-3.88L195.19-3.88Q199.63-3.88 199.71-8.56L199.71-8.56L199.71-25.59ZM214.93-25.59L214.93 0L209.65 0L209.65-25.59L214.93-25.59ZM245.57-9.60L245.57-9.33Q245.57-4.94 243.57-2.29Q241.58 0.35 238.18 0.35L238.18 0.35Q235.30 0.35 233.53-1.65L233.53-1.65L233.53 7.31L228.45 7.31L228.45-19.02L233.16-19.02L233.33-17.16Q235.18-19.37 238.15-19.37L238.15-19.37Q241.66-19.37 243.62-16.77Q245.57-14.17 245.57-9.60L245.57-9.60ZM240.49-9.70L240.49-9.70Q240.49-12.36 239.55-13.80Q238.61-15.24 236.81-15.24L236.81-15.24Q234.42-15.24 233.53-13.41L233.53-13.41L233.53-5.63Q234.46-3.74 236.85-3.74L236.85-3.74Q240.49-3.74 240.49-9.70ZM259.47-19.14L259.40-14.26Q258.36-14.40 257.57-14.40L257.57-14.40Q254.69-14.40 253.79-12.45L253.79-12.45L253.79 0L248.71 0L248.71-19.02L253.51-19.02L253.65-16.75Q255.18-19.37 257.89-19.37L257.89-19.37Q258.73-19.37 259.47-19.14L259.47-19.14ZM270.60 0.35L270.60 0.35Q266.41 0.35 263.79-2.21Q261.16-4.78 261.16-9.05L261.16-9.05L261.16-9.54Q261.16-12.41 262.27-14.67Q263.37-16.93 265.40-18.15Q267.43-19.37 270.04-19.37L270.04-19.37Q273.94-19.37 276.18-16.91Q278.42-14.45 278.42-9.93L278.42-9.93L278.42-7.86L266.31-7.86Q266.55-5.99 267.79-4.87Q269.03-3.74 270.93-3.74L270.93-3.74Q273.87-3.74 275.52-5.87L275.52-5.87L278.02-3.08Q276.87-1.46 274.92-0.55Q272.97 0.35 270.60 0.35ZM270.02-15.26L270.02-15.26Q268.51-15.26 267.57-14.24Q266.63-13.22 266.36-11.32L266.36-11.32L273.43-11.32L273.43-11.72Q273.39-13.41 272.51-14.33Q271.63-15.26 270.02-15.26ZM291.60-5.26L291.60-5.26Q291.60-6.19 290.68-6.72Q289.76-7.26 287.72-7.68L287.72-7.68Q280.93-9.11 280.93-13.45L280.93-13.45Q280.93-15.98 283.03-17.67Q285.13-19.37 288.53-19.37L288.53-19.37Q292.15-19.37 294.32-17.67Q296.49-15.96 296.49-13.24L296.49-13.24L291.41-13.24Q291.41-14.33 290.71-15.04Q290.00-15.75 288.51-15.75L288.51-15.75Q287.23-15.75 286.52-15.17Q285.82-14.59 285.82-13.69L285.82-13.69Q285.82-12.85 286.62-12.33Q287.42-11.81 289.32-11.43Q291.22-11.06 292.52-10.58L292.52-10.58Q296.54-9.11 296.54-5.47L296.54-5.47Q296.54-2.87 294.31-1.26Q292.08 0.35 288.54 0.35L288.54 0.35Q286.15 0.35 284.30-0.50Q282.45-1.35 281.39-2.84Q280.34-4.32 280.34-6.05L280.34-6.05L285.15-6.05Q285.22-4.69 286.15-3.97Q287.09-3.25 288.65-3.25L288.65-3.25Q290.11-3.25 290.86-3.81Q291.60-4.36 291.60-5.26ZM308.57 0.35L308.57 0.35Q304.38 0.35 301.75-2.21Q299.13-4.78 299.13-9.05L299.13-9.05L299.13-9.54Q299.13-12.41 300.23-14.67Q301.34-16.93 303.37-18.15Q305.40-19.37 308.00-19.37L308.00-19.37Q311.91-19.37 314.15-16.91Q316.39-14.45 316.39-9.93L316.39-9.93L316.39-7.86L304.28-7.86Q304.52-5.99 305.76-4.87Q307.00-3.74 308.90-3.74L308.90-3.74Q311.84-3.74 313.49-5.87L313.49-5.87L315.98-3.08Q314.84-1.46 312.89-0.55Q310.94 0.35 308.57 0.35ZM307.99-15.26L307.99-15.26Q306.47-15.26 305.53-14.24Q304.59-13.22 304.33-11.32L304.33-11.32L311.40-11.32L311.40-11.72Q311.36-13.41 310.48-14.33Q309.60-15.26 307.99-15.26ZM319.17-19.02L323.95-19.02L324.11-16.82Q326.14-19.37 329.57-19.37L329.57-19.37Q332.60-19.37 334.07-17.60Q335.55-15.82 335.58-12.29L335.58-12.29L335.58 0L330.50 0L330.50-12.16Q330.50-13.78 329.80-14.51Q329.10-15.24 327.46-15.24L327.46-15.24Q325.32-15.24 324.25-13.41L324.25-13.41L324.25 0L319.17 0L319.17-19.02ZM340.44-23.70L345.52-23.70L345.52-19.02L348.77-19.02L348.77-15.29L345.52-15.29L345.52-5.80Q345.52-4.75 345.92-4.29Q346.32-3.83 347.47-3.83L347.47-3.83Q348.31-3.83 348.96-3.96L348.96-3.96L348.96-0.11Q347.47 0.35 345.88 0.35L345.88 0.35Q340.54 0.35 340.44-5.04L340.44-5.04L340.44-15.29L337.66-15.29L337.66-19.02L340.44-19.02L340.44-23.70ZM367.75 0L362.62 0Q362.27-0.69 362.11-1.71L362.11-1.71Q360.26 0.35 357.31 0.35L357.31 0.35Q354.52 0.35 352.68-1.27Q350.84-2.88 350.84-5.34L350.84-5.34Q350.84-8.37 353.08-9.98Q355.32-11.60 359.56-11.62L359.56-11.62L361.90-11.62L361.90-12.71Q361.90-14.03 361.22-14.82Q360.54-15.61 359.09-15.61L359.09-15.61Q357.80-15.61 357.07-14.99Q356.34-14.38 356.34-13.31L356.34-13.31L351.26-13.31Q351.26-14.96 352.28-16.37Q353.30-17.77 355.17-18.57Q357.03-19.37 359.35-19.37L359.35-19.37Q362.87-19.37 364.93-17.60Q367.00-15.84 367.00-12.64L367.00-12.64L367.00-4.39Q367.01-1.69 367.75-0.30L367.75-0.30L367.75 0ZM358.42-3.53L358.42-3.53Q359.54-3.53 360.49-4.03Q361.44-4.54 361.90-5.38L361.90-5.38L361.90-8.65L360-8.65Q356.19-8.65 355.94-6.01L355.94-6.01L355.92-5.71Q355.92-4.76 356.59-4.15Q357.26-3.53 358.42-3.53ZM371.90-23.70L376.98-23.70L376.98-19.02L380.23-19.02L380.23-15.29L376.98-15.29L376.98-5.80Q376.98-4.75 377.38-4.29Q377.79-3.83 378.93-3.83L378.93-3.83Q379.78-3.83 380.43-3.96L380.43-3.96L380.43-0.11Q378.93 0.35 377.35 0.35L377.35 0.35Q372.01 0.35 371.90-5.04L371.90-5.04L371.90-15.29L369.12-15.29L369.12-19.02L371.90-19.02L371.90-23.70ZM388.42-19.02L388.42 0L383.33 0L383.33-19.02L388.42-19.02ZM383.03-23.94L383.03-23.94Q383.03-25.08 383.79-25.82Q384.56-26.56 385.88-26.56L385.88-26.56Q387.18-26.56 387.95-25.82Q388.72-25.08 388.72-23.94L388.72-23.94Q388.72-22.78 387.94-22.04Q387.16-21.30 385.88-21.30Q384.59-21.30 383.81-22.04Q383.03-22.78 383.03-23.94ZM391.82-9.46L391.82-9.69Q391.82-12.52 392.91-14.73Q394.00-16.95 396.04-18.16Q398.09-19.37 400.80-19.37L400.80-19.37Q404.65-19.37 407.08-17.02Q409.52-14.66 409.80-10.62L409.80-10.62L409.83-9.32Q409.83-4.94 407.39-2.29Q404.95 0.35 400.83 0.35Q396.72 0.35 394.27-2.29Q391.82-4.92 391.82-9.46L391.82-9.46ZM396.90-9.32L396.90-9.32Q396.90-6.61 397.92-5.18Q398.94-3.74 400.83-3.74L400.83-3.74Q402.68-3.74 403.72-5.16Q404.75-6.57 404.75-9.69L404.75-9.69Q404.75-12.34 403.72-13.80Q402.68-15.26 400.80-15.26L400.80-15.26Q398.94-15.26 397.92-13.81Q396.90-12.36 396.90-9.32ZM412.86-19.02L417.64-19.02L417.80-16.82Q419.84-19.37 423.26-19.37L423.26-19.37Q426.29-19.37 427.76-17.60Q429.24-15.82 429.28-12.29L429.28-12.29L429.28 0L424.20 0L424.20-12.16Q424.20-13.78 423.49-14.51Q422.79-15.24 421.15-15.24L421.15-15.24Q419.01-15.24 417.94-13.41L417.94-13.41L417.94 0L412.86 0L412.86-19.02Z" transform="translate(620, 565)" fill="#ffffff" /><circle cx="580" cy="630" r="6" fill="#e94560" /><path d="M23.31-13.36L23.31-12.22Q23.31-8.44 21.97-5.59Q20.64-2.74 18.15-1.20Q15.66 0.35 12.45 0.35L12.45 0.35Q9.26 0.35 6.77-1.18Q4.27-2.71 2.90-5.55Q1.53-8.38 1.51-12.08L1.51-12.08L1.51-13.34Q1.51-17.12 2.87-20.00Q4.24-22.87 6.72-24.41Q9.21-25.95 12.41-25.95Q15.61-25.95 18.10-24.41Q20.58-22.87 21.95-20.00Q23.31-17.12 23.31-13.36L23.31-13.36ZM17.96-12.13L17.96-13.38Q17.96-17.40 16.52-19.49Q15.08-21.59 12.41-21.59L12.41-21.59Q9.76-21.59 8.31-19.52Q6.87-17.46 6.86-13.46L6.86-13.46L6.86-12.22Q6.86-8.30 8.30-6.13Q9.74-3.97 12.45-3.97L12.45-3.97Q15.10-3.97 16.52-6.06Q17.95-8.14 17.96-12.13L17.96-12.13ZM37.09 0L27.14 0L27.14-25.59L36.11-25.59Q40.76-25.59 43.17-23.81Q45.58-22.03 45.58-18.58L45.58-18.58Q45.58-16.70 44.61-15.27Q43.65-13.83 41.92-13.17L41.92-13.17Q43.89-12.67 45.03-11.18Q46.16-9.69 46.16-7.52L46.16-7.52Q46.16-3.83 43.80-1.93Q41.45-0.04 37.09 0L37.09 0ZM37.25-11.14L32.41-11.14L32.41-4.24L36.93-4.24Q38.79-4.24 39.84-5.12Q40.89-6.01 40.89-7.58L40.89-7.58Q40.89-11.09 37.25-11.14L37.25-11.14ZM32.41-21.32L32.41-14.87L36.32-14.87Q40.31-14.94 40.31-18.05L40.31-18.05Q40.31-19.79 39.30-20.56Q38.29-21.32 36.11-21.32L36.11-21.32L32.41-21.32ZM63.39-6.71L63.39-6.71Q63.39-8.21 62.33-9.01Q61.28-9.81 58.54-10.70Q55.79-11.58 54.19-12.45L54.19-12.45Q49.83-14.80 49.83-18.79L49.83-18.79Q49.83-20.87 51.00-22.49Q52.17-24.12 54.36-25.03Q56.55-25.95 59.27-25.95L59.27-25.95Q62.02-25.95 64.16-24.95Q66.30-23.96 67.49-22.15Q68.68-20.34 68.68-18.04L68.68-18.04L63.40-18.04Q63.40-19.79 62.30-20.77Q61.19-21.74 59.19-21.74L59.19-21.74Q57.25-21.74 56.18-20.93Q55.11-20.11 55.11-18.77L55.11-18.77Q55.11-17.53 56.36-16.68Q57.62-15.84 60.06-15.10L60.06-15.10Q64.56-13.75 66.62-11.74Q68.68-9.74 68.68-6.75L68.68-6.75Q68.68-3.43 66.16-1.54Q63.65 0.35 59.40 0.35L59.40 0.35Q56.44 0.35 54.02-0.73Q51.59-1.81 50.32-3.69Q49.04-5.57 49.04-8.05L49.04-8.05L54.33-8.05Q54.33-3.81 59.40-3.81L59.40-3.81Q61.28-3.81 62.33-4.58Q63.39-5.34 63.39-6.71ZM81.79-13.01L81.79-8.91L71.89-8.91L71.89-13.01L81.79-13.01ZM93.78-3.74L93.78-3.74Q95.19-3.74 96.06-4.52Q96.94-5.29 96.98-6.57L96.98-6.57L101.74-6.57Q101.72-4.64 100.69-3.03Q99.65-1.42 97.85-0.54Q96.05 0.35 93.87 0.35L93.87 0.35Q89.79 0.35 87.43-2.24Q85.08-4.83 85.08-9.40L85.08-9.40L85.08-9.74Q85.08-14.13 87.42-16.75Q89.75-19.37 93.83-19.37L93.83-19.37Q97.40-19.37 99.55-17.34Q101.71-15.31 101.74-11.94L101.74-11.94L96.98-11.94Q96.94-13.41 96.06-14.33Q95.19-15.26 93.74-15.26L93.74-15.26Q91.97-15.26 91.06-13.97Q90.16-12.67 90.16-9.77L90.16-9.77L90.16-9.25Q90.16-6.31 91.05-5.03Q91.95-3.74 93.78-3.74ZM103.85-9.46L103.85-9.69Q103.85-12.52 104.94-14.73Q106.03-16.95 108.08-18.16Q110.13-19.37 112.83-19.37L112.83-19.37Q116.68-19.37 119.12-17.02Q121.55-14.66 121.83-10.62L121.83-10.62L121.87-9.32Q121.87-4.94 119.43-2.29Q116.98 0.35 112.87 0.35Q108.76 0.35 106.30-2.29Q103.85-4.92 103.85-9.46L103.85-9.46ZM108.93-9.32L108.93-9.32Q108.93-6.61 109.95-5.18Q110.97-3.74 112.87-3.74L112.87-3.74Q114.71-3.74 115.75-5.16Q116.79-6.57 116.79-9.69L116.79-9.69Q116.79-12.34 115.75-13.80Q114.71-15.26 112.83-15.26L112.83-15.26Q110.97-15.26 109.95-13.81Q108.93-12.36 108.93-9.32ZM125.00-19.02L129.76-19.02L129.92-16.89Q131.94-19.37 135.39-19.37L135.39-19.37Q139.06-19.37 140.43-16.47L140.43-16.47Q142.44-19.37 146.14-19.37L146.14-19.37Q149.24-19.37 150.75-17.57Q152.26-15.77 152.26-12.15L152.26-12.15L152.26 0L147.16 0L147.16-12.13Q147.16-13.75 146.53-14.49Q145.90-15.24 144.30-15.24L144.30-15.24Q142.01-15.24 141.13-13.06L141.13-13.06L141.15 0L136.07 0L136.07-12.11Q136.07-13.76 135.42-14.50Q134.77-15.24 133.21-15.24L133.21-15.24Q131.04-15.24 130.08-13.45L130.08-13.45L130.08 0L125.00 0L125.00-19.02ZM173.29-9.60L173.29-9.33Q173.29-4.94 171.29-2.29Q169.29 0.35 165.90 0.35L165.90 0.35Q163.02 0.35 161.24-1.65L161.24-1.65L161.24 7.31L156.16 7.31L156.16-19.02L160.88-19.02L161.05-17.16Q162.90-19.37 165.87-19.37L165.87-19.37Q169.38-19.37 171.33-16.77Q173.29-14.17 173.29-9.60L173.29-9.60ZM168.21-9.70L168.21-9.70Q168.21-12.36 167.26-13.80Q166.32-15.24 164.53-15.24L164.53-15.24Q162.14-15.24 161.24-13.41L161.24-13.41L161.24-5.63Q162.18-3.74 164.57-3.74L164.57-3.74Q168.21-3.74 168.21-9.70ZM192.59 0L187.45 0Q187.10-0.69 186.94-1.71L186.94-1.71Q185.10 0.35 182.14 0.35L182.14 0.35Q179.35 0.35 177.51-1.27Q175.68-2.88 175.68-5.34L175.68-5.34Q175.68-8.37 177.92-9.98Q180.16-11.60 184.39-11.62L184.39-11.62L186.73-11.62L186.73-12.71Q186.73-14.03 186.06-14.82Q185.38-15.61 183.92-15.61L183.92-15.61Q182.64-15.61 181.91-14.99Q181.18-14.38 181.18-13.31L181.18-13.31L176.10-13.31Q176.10-14.96 177.12-16.37Q178.14-17.77 180-18.57Q181.86-19.37 184.18-19.37L184.18-19.37Q187.70-19.37 189.76-17.60Q191.83-15.84 191.83-12.64L191.83-12.64L191.83-4.39Q191.85-1.69 192.59-0.30L192.59-0.30L192.59 0ZM183.25-3.53L183.25-3.53Q184.38-3.53 185.33-4.03Q186.28-4.54 186.73-5.38L186.73-5.38L186.73-8.65L184.83-8.65Q181.02-8.65 180.77-6.01L180.77-6.01L180.76-5.71Q180.76-4.76 181.42-4.15Q182.09-3.53 183.25-3.53ZM196.73-23.70L201.81-23.70L201.81-19.02L205.07-19.02L205.07-15.29L201.81-15.29L201.81-5.80Q201.81-4.75 202.22-4.29Q202.62-3.83 203.77-3.83L203.77-3.83Q204.61-3.83 205.26-3.96L205.26-3.96L205.26-0.11Q203.77 0.35 202.18 0.35L202.18 0.35Q196.84 0.35 196.73-5.04L196.73-5.04L196.73-15.29L193.96-15.29L193.96-19.02L196.73-19.02L196.73-23.70ZM213.26-19.02L213.26 0L208.16 0L208.16-19.02L213.26-19.02ZM207.86-23.94L207.86-23.94Q207.86-25.08 208.63-25.82Q209.39-26.56 210.71-26.56L210.71-26.56Q212.01-26.56 212.78-25.82Q213.56-25.08 213.56-23.94L213.56-23.94Q213.56-22.78 212.77-22.04Q211.99-21.30 210.71-21.30Q209.43-21.30 208.64-22.04Q207.86-22.78 207.86-23.94ZM234.58-9.62L234.58-9.33Q234.58-4.76 232.63-2.21Q230.68 0.35 227.18 0.35L227.18 0.35Q224.09 0.35 222.24-2.02L222.24-2.02L222.01 0L217.44 0L217.44-27L222.52-27L222.52-17.31Q224.28-19.37 227.14-19.37L227.14-19.37Q230.63-19.37 232.60-16.81Q234.58-14.26 234.58-9.62L234.58-9.62ZM229.50-9.70L229.50-9.70Q229.50-12.59 228.59-13.91Q227.67-15.24 225.86-15.24L225.86-15.24Q223.44-15.24 222.52-13.25L222.52-13.25L222.52-5.75Q223.45-3.74 225.90-3.74L225.90-3.74Q228.36-3.74 229.13-6.17L229.13-6.17Q229.50-7.33 229.50-9.70ZM243.07-27L243.07 0L237.97 0L237.97-27L243.07-27ZM256.01 0.35L256.01 0.35Q251.82 0.35 249.20-2.21Q246.57-4.78 246.57-9.05L246.57-9.05L246.57-9.54Q246.57-12.41 247.68-14.67Q248.78-16.93 250.81-18.15Q252.84-19.37 255.45-19.37L255.45-19.37Q259.35-19.37 261.59-16.91Q263.83-14.45 263.83-9.93L263.83-9.93L263.83-7.86L251.72-7.86Q251.96-5.99 253.20-4.87Q254.44-3.74 256.34-3.74L256.34-3.74Q259.28-3.74 260.93-5.87L260.93-5.87L263.43-3.08Q262.28-1.46 260.33-0.55Q258.38 0.35 256.01 0.35ZM255.43-15.26L255.43-15.26Q253.92-15.26 252.98-14.24Q252.04-13.22 251.77-11.32L251.77-11.32L258.84-11.32L258.84-11.72Q258.80-13.41 257.92-14.33Q257.04-15.26 255.43-15.26ZM279.26-19.02L282.80-6.21L286.33-19.02L291.64-19.02L285.22 0L280.37 0L273.96-19.02L279.26-19.02ZM299.23-19.02L299.23 0L294.13 0L294.13-19.02L299.23-19.02ZM293.84-23.94L293.84-23.94Q293.84-25.08 294.60-25.82Q295.37-26.56 296.68-26.56L296.68-26.56Q297.98-26.56 298.76-25.82Q299.53-25.08 299.53-23.94L299.53-23.94Q299.53-22.78 298.75-22.04Q297.97-21.30 296.68-21.30Q295.40-21.30 294.62-22.04Q293.84-22.78 293.84-23.94ZM302.63-9.65L302.63-9.65Q302.63-14.10 304.62-16.73Q306.62-19.37 310.08-19.37L310.08-19.37Q312.86-19.37 314.67-17.30L314.67-17.30L314.67-27L319.76-27L319.76 0L315.18 0L314.93-2.02Q313.03 0.35 310.04 0.35L310.04 0.35Q306.69 0.35 304.66-2.29Q302.63-4.94 302.63-9.65ZM307.71-9.28L307.71-9.28Q307.71-6.61 308.64-5.19Q309.57-3.76 311.34-3.76L311.34-3.76Q313.70-3.76 314.67-5.75L314.67-5.75L314.67-13.25Q313.72-15.24 311.38-15.24L311.38-15.24Q307.71-15.24 307.71-9.28ZM332.46 0.35L332.46 0.35Q328.27 0.35 325.64-2.21Q323.02-4.78 323.02-9.05L323.02-9.05L323.02-9.54Q323.02-12.41 324.12-14.67Q325.23-16.93 327.26-18.15Q329.29-19.37 331.89-19.37L331.89-19.37Q335.79-19.37 338.04-16.91Q340.28-14.45 340.28-9.93L340.28-9.93L340.28-7.86L328.17-7.86Q328.41-5.99 329.65-4.87Q330.89-3.74 332.79-3.74L332.79-3.74Q335.72-3.74 337.38-5.87L337.38-5.87L339.87-3.08Q338.73-1.46 336.78-0.55Q334.83 0.35 332.46 0.35ZM331.88-15.26L331.88-15.26Q330.36-15.26 329.42-14.24Q328.48-13.22 328.22-11.32L328.22-11.32L335.29-11.32L335.29-11.72Q335.25-13.41 334.37-14.33Q333.49-15.26 331.88-15.26ZM342.37-9.46L342.37-9.69Q342.37-12.52 343.46-14.73Q344.55-16.95 346.60-18.16Q348.64-19.37 351.35-19.37L351.35-19.37Q355.20-19.37 357.64-17.02Q360.07-14.66 360.35-10.62L360.35-10.62L360.39-9.32Q360.39-4.94 357.94-2.29Q355.50 0.35 351.39 0.35Q347.27 0.35 344.82-2.29Q342.37-4.92 342.37-9.46L342.37-9.46ZM347.45-9.32L347.45-9.32Q347.45-6.61 348.47-5.18Q349.49-3.74 351.39-3.74L351.39-3.74Q353.23-3.74 354.27-5.16Q355.31-6.57 355.31-9.69L355.31-9.69Q355.31-12.34 354.27-13.80Q353.23-15.26 351.35-15.26L351.35-15.26Q349.49-15.26 348.47-13.81Q347.45-12.36 347.45-9.32ZM371.69-9.46L371.69-9.69Q371.69-12.52 372.78-14.73Q373.87-16.95 375.92-18.16Q377.96-19.37 380.67-19.37L380.67-19.37Q384.52-19.37 386.96-17.02Q389.39-14.66 389.67-10.62L389.67-10.62L389.71-9.32Q389.71-4.94 387.26-2.29Q384.82 0.35 380.71 0.35Q376.59 0.35 374.14-2.29Q371.69-4.92 371.69-9.46L371.69-9.46ZM376.77-9.32L376.77-9.32Q376.77-6.61 377.79-5.18Q378.81-3.74 380.71-3.74L380.71-3.74Q382.55-3.74 383.59-5.16Q384.63-6.57 384.63-9.69L384.63-9.69Q384.63-12.34 383.59-13.80Q382.55-15.26 380.67-15.26L380.67-15.26Q378.81-15.26 377.79-13.81Q376.77-12.36 376.77-9.32ZM404.37 0L404.23-1.93Q402.35 0.35 399.02 0.35L399.02 0.35Q395.96 0.35 394.36-1.41Q392.75-3.16 392.71-6.56L392.71-6.56L392.71-19.02L397.79-19.02L397.79-6.73Q397.79-3.76 400.50-3.76L400.50-3.76Q403.08-3.76 404.05-5.55L404.05-5.55L404.05-19.02L409.15-19.02L409.15 0L404.37 0ZM413.98-23.70L419.06-23.70L419.06-19.02L422.31-19.02L422.31-15.29L419.06-15.29L419.06-5.80Q419.06-4.75 419.47-4.29Q419.87-3.83 421.01-3.83L421.01-3.83Q421.86-3.83 422.51-3.96L422.51-3.96L422.51-0.11Q421.01 0.35 419.43 0.35L419.43 0.35Q414.09 0.35 413.98-5.04L413.98-5.04L413.98-15.29L411.21-15.29L411.21-19.02L413.98-19.02L413.98-23.70ZM442.27-9.60L442.27-9.33Q442.27-4.94 440.27-2.29Q438.28 0.35 434.88 0.35L434.88 0.35Q432 0.35 430.22-1.65L430.22-1.65L430.22 7.31L425.14 7.31L425.14-19.02L429.86-19.02L430.03-17.16Q431.88-19.37 434.85-19.37L434.85-19.37Q438.36-19.37 440.31-16.77Q442.27-14.17 442.27-9.60L442.27-9.60ZM437.19-9.70L437.19-9.70Q437.19-12.36 436.25-13.80Q435.30-15.24 433.51-15.24L433.51-15.24Q431.12-15.24 430.22-13.41L430.22-13.41L430.22-5.63Q431.16-3.74 433.55-3.74L433.55-3.74Q437.19-3.74 437.19-9.70ZM456.94 0L456.80-1.93Q454.92 0.35 451.60 0.35L451.60 0.35Q448.54 0.35 446.93-1.41Q445.32-3.16 445.29-6.56L445.29-6.56L445.29-19.02L450.37-19.02L450.37-6.73Q450.37-3.76 453.08-3.76L453.08-3.76Q455.66-3.76 456.63-5.55L456.63-5.55L456.63-19.02L461.72-19.02L461.72 0L456.94 0ZM466.56-23.70L471.64-23.70L471.64-19.02L474.89-19.02L474.89-15.29L471.64-15.29L471.64-5.80Q471.64-4.75 472.04-4.29Q472.45-3.83 473.59-3.83L473.59-3.83Q474.43-3.83 475.08-3.96L475.08-3.96L475.08-0.11Q473.59 0.35 472.01 0.35L472.01 0.35Q466.66 0.35 466.56-5.04L466.56-5.04L466.56-15.29L463.78-15.29L463.78-19.02L466.56-19.02L466.56-23.70Z" transform="translate(620, 630)" fill="#ffffff" /><circle cx="580" cy="695" r="6" fill="#e94560" /><path d="M18.51 0L16.73-5.27L7.49-5.27L5.73 0L0.12 0L9.65-25.59L14.54-25.59L24.12 0L18.51 0ZM12.09-19.13L8.91-9.54L15.31-9.54L12.09-19.13ZM37.71 0L37.56-1.93Q35.68 0.35 32.36 0.35L32.36 0.35Q29.30 0.35 27.69-1.41Q26.09-3.16 26.05-6.56L26.05-6.56L26.05-19.02L31.13-19.02L31.13-6.73Q31.13-3.76 33.84-3.76L33.84-3.76Q36.42-3.76 37.39-5.55L37.39-5.55L37.39-19.02L42.49-19.02L42.49 0L37.71 0ZM45.53-9.65L45.53-9.65Q45.53-14.10 47.52-16.73Q49.52-19.37 52.98-19.37L52.98-19.37Q55.76-19.37 57.57-17.30L57.57-17.30L57.57-27L62.67-27L62.67 0L58.08 0L57.83-2.02Q55.93 0.35 52.95 0.35L52.95 0.35Q49.59 0.35 47.56-2.29Q45.53-4.94 45.53-9.65ZM50.61-9.28L50.61-9.28Q50.61-6.61 51.54-5.19Q52.47-3.76 54.25-3.76L54.25-3.76Q56.60-3.76 57.57-5.75L57.57-5.75L57.57-13.25Q56.62-15.24 54.28-15.24L54.28-15.24Q50.61-15.24 50.61-9.28ZM71.96-19.02L71.96 0L66.87 0L66.87-19.02L71.96-19.02ZM66.57-23.94L66.57-23.94Q66.57-25.08 67.33-25.82Q68.10-26.56 69.42-26.56L69.42-26.56Q70.72-26.56 71.49-25.82Q72.26-25.08 72.26-23.94L72.26-23.94Q72.26-22.78 71.48-22.04Q70.70-21.30 69.42-21.30Q68.13-21.30 67.35-22.04Q66.57-22.78 66.57-23.94ZM75.36-9.46L75.36-9.69Q75.36-12.52 76.45-14.73Q77.54-16.95 79.58-18.16Q81.63-19.37 84.34-19.37L84.34-19.37Q88.19-19.37 90.62-17.02Q93.06-14.66 93.34-10.62L93.34-10.62L93.38-9.32Q93.38-4.94 90.93-2.29Q88.49 0.35 84.38 0.35Q80.26 0.35 77.81-2.29Q75.36-4.92 75.36-9.46L75.36-9.46ZM80.44-9.32L80.44-9.32Q80.44-6.61 81.46-5.18Q82.48-3.74 84.38-3.74L84.38-3.74Q86.22-3.74 87.26-5.16Q88.29-6.57 88.29-9.69L88.29-9.69Q88.29-12.34 87.26-13.80Q86.22-15.26 84.34-15.26L84.34-15.26Q82.48-15.26 81.46-13.81Q80.44-12.36 80.44-9.32ZM122.59-9.60L122.59-9.33Q122.59-4.94 120.59-2.29Q118.60 0.35 115.21 0.35L115.21 0.35Q112.32 0.35 110.55-1.65L110.55-1.65L110.55 7.31L105.47 7.31L105.47-19.02L110.18-19.02L110.36-17.16Q112.20-19.37 115.17-19.37L115.17-19.37Q118.69-19.37 120.64-16.77Q122.59-14.17 122.59-9.60L122.59-9.60ZM117.51-9.70L117.51-9.70Q117.51-12.36 116.57-13.80Q115.63-15.24 113.84-15.24L113.84-15.24Q111.45-15.24 110.55-13.41L110.55-13.41L110.55-5.63Q111.48-3.74 113.87-3.74L113.87-3.74Q117.51-3.74 117.51-9.70ZM131.10-27L131.10 0L126 0L126-27L131.10-27ZM151.44 0L146.30 0Q145.95-0.69 145.79-1.71L145.79-1.71Q143.95 0.35 140.99 0.35L140.99 0.35Q138.20 0.35 136.36-1.27Q134.53-2.88 134.53-5.34L134.53-5.34Q134.53-8.37 136.77-9.98Q139.01-11.60 143.24-11.62L143.24-11.62L145.58-11.62L145.58-12.71Q145.58-14.03 144.91-14.82Q144.23-15.61 142.77-15.61L142.77-15.61Q141.49-15.61 140.76-14.99Q140.03-14.38 140.03-13.31L140.03-13.31L134.95-13.31Q134.95-14.96 135.97-16.37Q136.99-17.77 138.85-18.57Q140.71-19.37 143.03-19.37L143.03-19.37Q146.55-19.37 148.61-17.60Q150.68-15.84 150.68-12.64L150.68-12.64L150.68-4.39Q150.70-1.69 151.44-0.30L151.44-0.30L151.44 0ZM142.10-3.53L142.10-3.53Q143.23-3.53 144.18-4.03Q145.13-4.54 145.58-5.38L145.58-5.38L145.58-8.65L143.68-8.65Q139.87-8.65 139.62-6.01L139.62-6.01L139.61-5.71Q139.61-4.76 140.27-4.15Q140.94-3.53 142.10-3.53ZM158.15-19.02L161.68-7.19L165.20-19.02L170.65-19.02L163.00 2.95L162.58 3.96Q160.88 7.68 156.96 7.68L156.96 7.68Q155.85 7.68 154.71 7.35L154.71 7.35L154.71 3.50L155.48 3.52Q156.92 3.52 157.63 3.08Q158.34 2.64 158.75 1.62L158.75 1.62L159.35 0.05L152.68-19.02L158.15-19.02ZM189.79-9.62L189.79-9.33Q189.79-4.76 187.84-2.21Q185.89 0.35 182.39 0.35L182.39 0.35Q179.30 0.35 177.45-2.02L177.45-2.02L177.22 0L172.65 0L172.65-27L177.73-27L177.73-17.31Q179.49-19.37 182.36-19.37L182.36-19.37Q185.84-19.37 187.81-16.81Q189.79-14.26 189.79-9.62L189.79-9.62ZM184.71-9.70L184.71-9.70Q184.71-12.59 183.80-13.91Q182.88-15.24 181.07-15.24L181.07-15.24Q178.65-15.24 177.73-13.25L177.73-13.25L177.73-5.75Q178.66-3.74 181.11-3.74L181.11-3.74Q183.57-3.74 184.34-6.17L184.34-6.17Q184.71-7.33 184.71-9.70ZM209.07 0L203.94 0Q203.59-0.69 203.43-1.71L203.43-1.71Q201.59 0.35 198.63 0.35L198.63 0.35Q195.84 0.35 194.00-1.27Q192.16-2.88 192.16-5.34L192.16-5.34Q192.16-8.37 194.41-9.98Q196.65-11.60 200.88-11.62L200.88-11.62L203.22-11.62L203.22-12.71Q203.22-14.03 202.54-14.82Q201.87-15.61 200.41-15.61L200.41-15.61Q199.13-15.61 198.40-14.99Q197.67-14.38 197.67-13.31L197.67-13.31L192.59-13.31Q192.59-14.96 193.61-16.37Q194.63-17.77 196.49-18.57Q198.35-19.37 200.67-19.37L200.67-19.37Q204.19-19.37 206.25-17.60Q208.32-15.84 208.32-12.64L208.32-12.64L208.32-4.39Q208.34-1.69 209.07-0.30L209.07-0.30L209.07 0ZM199.74-3.53L199.74-3.53Q200.87-3.53 201.81-4.03Q202.76-4.54 203.22-5.38L203.22-5.38L203.22-8.65L201.32-8.65Q197.51-8.65 197.26-6.01L197.26-6.01L197.24-5.71Q197.24-4.76 197.91-4.15Q198.58-3.53 199.74-3.53ZM220.13-3.74L220.13-3.74Q221.54-3.74 222.42-4.52Q223.29-5.29 223.33-6.57L223.33-6.57L228.09-6.57Q228.08-4.64 227.04-3.03Q226.00-1.42 224.20-0.54Q222.40 0.35 220.22 0.35L220.22 0.35Q216.14 0.35 213.79-2.24Q211.43-4.83 211.43-9.40L211.43-9.40L211.43-9.74Q211.43-14.13 213.77-16.75Q216.11-19.37 220.18-19.37L220.18-19.37Q223.75-19.37 225.91-17.34Q228.06-15.31 228.09-11.94L228.09-11.94L223.33-11.94Q223.29-13.41 222.42-14.33Q221.54-15.26 220.10-15.26L220.10-15.26Q218.32-15.26 217.42-13.97Q216.51-12.67 216.51-9.77L216.51-9.77L216.51-9.25Q216.51-6.31 217.41-5.03Q218.30-3.74 220.13-3.74ZM242.79 0L237.90-7.63L236.07-5.80L236.07 0L230.99 0L230.99-27L236.07-27L236.07-12.04L237.06-13.31L241.93-19.02L248.03-19.02L241.15-11.09L248.63 0L242.79 0ZM269.49-5.26L269.49-5.26Q269.49-6.19 268.57-6.72Q267.64-7.26 265.61-7.68L265.61-7.68Q258.82-9.11 258.82-13.45L258.82-13.45Q258.82-15.98 260.92-17.67Q263.02-19.37 266.41-19.37L266.41-19.37Q270.04-19.37 272.21-17.67Q274.38-15.96 274.38-13.24L274.38-13.24L269.30-13.24Q269.30-14.33 268.59-15.04Q267.89-15.75 266.40-15.75L266.40-15.75Q265.11-15.75 264.41-15.17Q263.71-14.59 263.71-13.69L263.71-13.69Q263.71-12.85 264.51-12.33Q265.31-11.81 267.21-11.43Q269.10-11.06 270.40-10.58L270.40-10.58Q274.43-9.11 274.43-5.47L274.43-5.47Q274.43-2.87 272.20-1.26Q269.96 0.35 266.43 0.35L266.43 0.35Q264.04 0.35 262.19-0.50Q260.33-1.35 259.28-2.84Q258.22-4.32 258.22-6.05L258.22-6.05L263.04-6.05Q263.11-4.69 264.04-3.97Q264.97-3.25 266.54-3.25L266.54-3.25Q268.00-3.25 268.74-3.81Q269.49-4.36 269.49-5.26ZM289.23 0L289.09-1.93Q287.21 0.35 283.89 0.35L283.89 0.35Q280.83 0.35 279.22-1.41Q277.61-3.16 277.58-6.56L277.58-6.56L277.58-19.02L282.66-19.02L282.66-6.73Q282.66-3.76 285.36-3.76L285.36-3.76Q287.95-3.76 288.91-5.55L288.91-5.55L288.91-19.02L294.01-19.02L294.01 0L289.23 0ZM314.96-9.60L314.96-9.33Q314.96-4.94 312.97-2.29Q310.97 0.35 307.58 0.35L307.58 0.35Q304.70 0.35 302.92-1.65L302.92-1.65L302.92 7.31L297.84 7.31L297.84-19.02L302.55-19.02L302.73-17.16Q304.58-19.37 307.55-19.37L307.55-19.37Q311.06-19.37 313.01-16.77Q314.96-14.17 314.96-9.60L314.96-9.60ZM309.88-9.70L309.88-9.70Q309.88-12.36 308.94-13.80Q308.00-15.24 306.21-15.24L306.21-15.24Q303.82-15.24 302.92-13.41L302.92-13.41L302.92-5.63Q303.86-3.74 306.25-3.74L306.25-3.74Q309.88-3.74 309.88-9.70ZM335.23-9.60L335.23-9.33Q335.23-4.94 333.24-2.29Q331.24 0.35 327.85 0.35L327.85 0.35Q324.97 0.35 323.19-1.65L323.19-1.65L323.19 7.31L318.11 7.31L318.11-19.02L322.82-19.02L323.00-17.16Q324.84-19.37 327.81-19.37L327.81-19.37Q331.33-19.37 333.28-16.77Q335.23-14.17 335.23-9.60L335.23-9.60ZM330.15-9.70L330.15-9.70Q330.15-12.36 329.21-13.80Q328.27-15.24 326.48-15.24L326.48-15.24Q324.09-15.24 323.19-13.41L323.19-13.41L323.19-5.63Q324.12-3.74 326.51-3.74L326.51-3.74Q330.15-3.74 330.15-9.70ZM337.59-9.46L337.59-9.69Q337.59-12.52 338.68-14.73Q339.77-16.95 341.82-18.16Q343.86-19.37 346.57-19.37L346.57-19.37Q350.42-19.37 352.85-17.02Q355.29-14.66 355.57-10.62L355.57-10.62L355.61-9.32Q355.61-4.94 353.16-2.29Q350.72 0.35 346.61 0.35Q342.49 0.35 340.04-2.29Q337.59-4.92 337.59-9.46L337.59-9.46ZM342.67-9.32L342.67-9.32Q342.67-6.61 343.69-5.18Q344.71-3.74 346.61-3.74L346.61-3.74Q348.45-3.74 349.49-5.16Q350.53-6.57 350.53-9.69L350.53-9.69Q350.53-12.34 349.49-13.80Q348.45-15.26 346.57-15.26L346.57-15.26Q344.71-15.26 343.69-13.81Q342.67-12.36 342.67-9.32ZM369.49-19.14L369.42-14.26Q368.38-14.40 367.59-14.40L367.59-14.40Q364.71-14.40 363.81-12.45L363.81-12.45L363.81 0L358.73 0L358.73-19.02L363.53-19.02L363.67-16.75Q365.20-19.37 367.91-19.37L367.91-19.37Q368.75-19.37 369.49-19.14L369.49-19.14ZM372.87-23.70L377.95-23.70L377.95-19.02L381.20-19.02L381.20-15.29L377.95-15.29L377.95-5.80Q377.95-4.75 378.35-4.29Q378.76-3.83 379.90-3.83L379.90-3.83Q380.74-3.83 381.39-3.96L381.39-3.96L381.39-0.11Q379.90 0.35 378.32 0.35L378.32 0.35Q372.97 0.35 372.87-5.04L372.87-5.04L372.87-15.29L370.09-15.29L370.09-19.02L372.87-19.02L372.87-23.70Z" transform="translate(620, 695)" fill="#ffffff" />
  <text x="960" y="1040" font-family="Arial, sans-serif" font-size="20" fill="#666" text-anchor="middle">OpenClaw Documentation</text>
</svg>