<?xml version="1.0" encoding="UTF-8"?>
<svg width="1920" height="1080" xmlns="http://www.w3.org/2000/svg">
  <defs>
    <linearGradient id="bg" x1="0%" y1="0%" x2="100%" y2="100%">
      <stop offset="0%" style="stop-color:#1a1a2e;stop-opacity:1" />
      <stop offset="100%" style="stop-color:#000008;stop-opacity:1" />
    </linearGradient>
    <linearGradient id="accent" x1="0%" y1="0%" x2="100%" y2="0%">
      <stop offset="0%" style="stop-color:#e94560;stop-opacity:1" />
      <stop offset="100%" style="stop-color:#ff92ad;stop-opacity:1" />
    </linearGradient>
    <filter id="glow">
      <feGaussianBlur stdDeviation="3" result="coloredBlur"/>
      <feMerge><feMergeNode in="coloredBlur"/><feMergeNode in="SourceGraphic"/></feMerge>
    </filter>
  </defs>
  <rect width="100%" height="100%" fill="url(#bg)"/>
  <circle cx="1920" cy="0" r="700" fill="#e94560" opacity="0.08"/>
  <circle cx="0" cy="1080" r="500" fill="#ff92ad" opacity="0.06"/>
  <rect width="1920" height="6" fill="url(#accent)"/>
  <path d="M19.95-9.95L26.11-9.95Q25.76-5.13 22.55-2.36Q19.34 0.41 14.09 0.41L14.09 0.41Q8.35 0.41 5.06-3.46Q1.76-7.32 1.76-14.07L1.76-14.07L1.76-15.89Q1.76-20.20 3.28-23.48Q4.80-26.76 7.62-28.52Q10.44-30.27 14.17-30.27L14.17-30.27Q19.34-30.27 22.50-27.50Q25.66-24.73 26.15-19.73L26.15-19.73L20.00-19.73Q19.77-22.62 18.39-23.92Q17.00-25.22 14.17-25.22L14.17-25.22Q11.09-25.22 9.57-23.02Q8.04-20.82 8.00-16.18L8.00-16.18L8.00-13.92Q8.00-9.08 9.46-6.85Q10.93-4.61 14.09-4.61L14.09-4.61Q16.94-4.61 18.34-5.92Q19.75-7.22 19.95-9.95L19.95-9.95ZM35.54-31.50L35.54-19.77Q37.90-22.60 41.47-22.60L41.47-22.60Q48.69-22.60 48.79-14.21L48.79-14.21L48.79 0L42.86 0L42.86-14.05Q42.86-15.96 42.04-16.87Q41.22-17.78 39.31-17.78L39.31-17.78Q36.71-17.78 35.54-15.77L35.54-15.77L35.54 0L29.61 0L29.61-31.50L35.54-31.50ZM72.11 0L66.12 0Q65.71-0.80 65.52-1.99L65.52-1.99Q63.37 0.41 59.92 0.41L59.92 0.41Q56.66 0.41 54.52-1.48Q52.38-3.36 52.38-6.23L52.38-6.23Q52.38-9.76 54.99-11.65Q57.61-13.54 62.55-13.56L62.55-13.56L65.28-13.56L65.28-14.83Q65.28-16.37 64.49-17.29Q63.70-18.21 62.00-18.21L62.00-18.21Q60.50-18.21 59.65-17.49Q58.80-16.78 58.80-15.52L58.80-15.52L52.87-15.52Q52.87-17.45 54.06-19.09Q55.25-20.73 57.42-21.67Q59.60-22.60 62.30-22.60L62.30-22.60Q66.40-22.60 68.81-20.54Q71.22-18.48 71.22-14.75L71.22-14.75L71.22-5.13Q71.24-1.97 72.11-0.35L72.11-0.35L72.11 0ZM61.22-4.12L61.22-4.12Q62.53-4.12 63.64-4.71Q64.74-5.29 65.28-6.28L65.28-6.28L65.28-10.09L63.06-10.09Q58.61-10.09 58.32-7.01L58.32-7.01L58.30-6.67Q58.30-5.56 59.08-4.84Q59.86-4.12 61.22-4.12ZM75.65-22.19L81.23-22.19L81.42-19.63Q83.79-22.60 87.79-22.60L87.79-22.60Q91.32-22.60 93.04-20.53Q94.77-18.46 94.81-14.33L94.81-14.33L94.81 0L88.88 0L88.88-14.19Q88.88-16.08 88.06-16.93Q87.24-17.78 85.33-17.78L85.33-17.78Q82.83-17.78 81.58-15.65L81.58-15.65L81.58 0L75.65 0L75.65-22.19ZM116.98-9.95L123.13-9.95Q122.78-5.13 119.57-2.36Q116.36 0.41 111.11 0.41L111.11 0.41Q105.37 0.41 102.08-3.46Q98.79-7.32 98.79-14.07L98.79-14.07L98.79-15.89Q98.79-20.20 100.30-23.48Q101.82-26.76 104.64-28.52Q107.46-30.27 111.19-30.27L111.19-30.27Q116.36-30.27 119.52-27.50Q122.68-24.73 123.17-19.73L123.17-19.73L117.02-19.73Q116.79-22.62 115.41-23.92Q114.02-25.22 111.19-25.22L111.19-25.22Q108.12-25.22 106.59-23.02Q105.06-20.82 105.02-16.18L105.02-16.18L105.02-13.92Q105.02-9.08 106.49-6.85Q107.95-4.61 111.11-4.61L111.11-4.61Q113.96-4.61 115.37-5.92Q116.77-7.22 116.98-9.95L116.98-9.95ZM133.03-31.50L133.03 0L127.09 0L127.09-31.50L133.03-31.50ZM156.76 0L150.77 0Q150.36-0.80 150.18-1.99L150.18-1.99Q148.03 0.41 144.58 0.41L144.58 0.41Q141.32 0.41 139.18-1.48Q137.03-3.36 137.03-6.23L137.03-6.23Q137.03-9.76 139.65-11.65Q142.26-13.54 147.21-13.56L147.21-13.56L149.93-13.56L149.93-14.83Q149.93-16.37 149.14-17.29Q148.35-18.21 146.65-18.21L146.65-18.21Q145.15-18.21 144.30-17.49Q143.45-16.78 143.45-15.52L143.45-15.52L137.53-15.52Q137.53-17.45 138.71-19.09Q139.90-20.73 142.08-21.67Q144.25-22.60 146.96-22.60L146.96-22.60Q151.06-22.60 153.47-20.54Q155.88-18.48 155.88-14.75L155.88-14.75L155.88-5.13Q155.90-1.97 156.76-0.35L156.76-0.35L156.76 0ZM145.87-4.12L145.87-4.12Q147.18-4.12 148.29-4.71Q149.40-5.29 149.93-6.28L149.93-6.28L149.93-10.09L147.72-10.09Q143.27-10.09 142.98-7.01L142.98-7.01L142.96-6.67Q142.96-5.56 143.74-4.84Q144.52-4.12 145.87-4.12ZM175.69-22.19L179.73-8.06L182.64-22.19L188.36-22.19L182.70 0L177.74 0L173.54-13.97L169.33 0L164.39 0L158.73-22.19L164.45-22.19L167.34-8.08L171.40-22.19L175.69-22.19Z" transform="translate(50, 70)" fill="#e94560" />
  <text x="1870" y="70" font-family="Arial, sans-serif" font-size="24" fill="#888" text-anchor="end">2 / 10</text>
  <path d="M36.04-51.19L44.44-14.77L51.33-51.19L61.84-51.19L50.48 0L39.87 0L31.54-34.24L23.20 0L12.59 0L1.23-51.19L11.74-51.19L18.67-14.84L27.11-51.19L36.04-51.19ZM76.78-54L76.78-33.89Q80.82-38.74 86.94-38.74L86.94-38.74Q99.32-38.74 99.49-24.36L99.49-24.36L99.49 0L89.33 0L89.33-24.08Q89.33-27.35 87.93-28.92Q86.52-30.48 83.25-30.48L83.25-30.48Q78.79-30.48 76.78-27.04L76.78-27.04L76.78 0L66.62 0L66.62-54L76.78-54ZM139.46 0L129.20 0Q128.50-1.37 128.18-3.41L128.18-3.41Q124.49 0.70 118.58 0.70L118.58 0.70Q112.99 0.70 109.32-2.53Q105.64-5.77 105.64-10.69L105.64-10.69Q105.64-16.73 110.13-19.97Q114.61-23.20 123.08-23.24L123.08-23.24L127.76-23.24L127.76-25.42Q127.76-28.05 126.40-29.64Q125.05-31.22 122.13-31.22L122.13-31.22Q119.57-31.22 118.11-29.99Q116.65-28.76 116.65-26.61L116.65-26.61L106.49-26.61Q106.49-29.92 108.53-32.73Q110.57-35.54 114.29-37.14Q118.02-38.74 122.66-38.74L122.66-38.74Q129.69-38.74 133.82-35.21Q137.95-31.68 137.95-25.28L137.95-25.28L137.95-8.79Q137.99-3.38 139.46-0.60L139.46-0.60L139.46 0ZM120.80-7.07L120.80-7.07Q123.05-7.07 124.95-8.07Q126.84-9.07 127.76-10.76L127.76-10.76L127.76-17.30L123.96-17.30Q116.33-17.30 115.84-12.02L115.84-12.02L115.80-11.43Q115.80-9.53 117.14-8.30Q118.48-7.07 120.80-7.07ZM147.76-47.39L157.92-47.39L157.92-38.04L164.43-38.04L164.43-30.59L157.92-30.59L157.92-11.60Q157.92-9.49 158.73-8.58Q159.54-7.66 161.82-7.66L161.82-7.66Q163.51-7.66 164.81-7.91L164.81-7.91L164.81-0.21Q161.82 0.70 158.66 0.70L158.66 0.70Q147.97 0.70 147.76-10.09L147.76-10.09L147.76-30.59L142.21-30.59L142.21-38.04L147.76-38.04L147.76-47.39ZM198.74-38.04L198.74 0L188.54 0L188.54-38.04L198.74-38.04ZM187.95-47.88L187.95-47.88Q187.95-50.17 189.47-51.64Q191.00-53.12 193.64-53.12L193.64-53.12Q196.24-53.12 197.79-51.64Q199.34-50.17 199.34-47.88L199.34-47.88Q199.34-45.56 197.77-44.09Q196.21-42.61 193.64-42.61Q191.07-42.61 189.51-44.09Q187.95-45.56 187.95-47.88ZM227.71-10.51L227.71-10.51Q227.71-12.38 225.86-13.45Q224.02-14.52 219.94-15.36L219.94-15.36Q206.37-18.21 206.37-26.89L206.37-26.89Q206.37-31.96 210.57-35.35Q214.77-38.74 221.55-38.74L221.55-38.74Q228.80-38.74 233.14-35.33Q237.48-31.92 237.48-26.47L237.48-26.47L227.32-26.47Q227.32-28.65 225.91-30.08Q224.51-31.50 221.52-31.50L221.52-31.50Q218.95-31.50 217.55-30.34Q216.14-29.18 216.14-27.39L216.14-27.39Q216.14-25.70 217.74-24.66Q219.34-23.63 223.14-22.87Q226.93-22.11 229.54-21.16L229.54-21.16Q237.59-18.21 237.59-10.93L237.59-10.93Q237.59-5.73 233.12-2.51Q228.66 0.70 221.59 0.70L221.59 0.70Q216.81 0.70 213.10-1.00Q209.39-2.71 207.28-5.68Q205.17-8.65 205.17-12.09L205.17-12.09L214.80-12.09Q214.95-9.39 216.81-7.95Q218.67-6.50 221.80-6.50L221.80-6.50Q224.72-6.50 226.21-7.61Q227.71-8.72 227.71-10.51ZM304.77-26.72L304.77-24.43Q304.77-16.88 302.10-11.18Q299.43-5.48 294.45-2.39Q289.48 0.70 283.04 0.70L283.04 0.70Q276.68 0.70 271.69-2.36Q266.70-5.41 263.95-11.09Q261.21-16.77 261.18-24.15L261.18-24.15L261.18-26.68Q261.18-34.24 263.90-39.99Q266.63-45.74 271.60-48.81Q276.57-51.89 282.97-51.89Q289.37-51.89 294.35-48.81Q299.32-45.74 302.04-39.99Q304.77-34.24 304.77-26.72L304.77-26.72ZM294.08-24.26L294.08-26.75Q294.08-34.80 291.20-38.99Q288.32-43.17 282.97-43.17L282.97-43.17Q277.66-43.17 274.78-39.04Q271.90-34.91 271.86-26.93L271.86-26.93L271.86-24.43Q271.86-16.59 274.75-12.27Q277.63-7.95 283.04-7.95L283.04-7.95Q288.35-7.95 291.20-12.11Q294.05-16.28 294.08-24.26L294.08-24.26ZM346.01-19.20L346.01-18.67Q346.01-9.88 342.02-4.59Q338.03 0.70 331.24 0.70L331.24 0.70Q325.48 0.70 321.93-3.30L321.93-3.30L321.93 14.63L311.77 14.63L311.77-38.04L321.19-38.04L321.54-34.31Q325.23-38.74 331.17-38.74L331.17-38.74Q338.20-38.74 342.11-33.54Q346.01-28.34 346.01-19.20L346.01-19.20ZM335.85-19.41L335.85-19.41Q335.85-24.71 333.97-27.60Q332.09-30.48 328.50-30.48L328.50-30.48Q323.72-30.48 321.93-26.82L321.93-26.82L321.93-11.25Q323.79-7.49 328.57-7.49L328.57-7.49Q335.85-7.49 335.85-19.41ZM369.81 0.70L369.81 0.70Q361.44 0.70 356.19-4.43Q350.93-9.56 350.93-18.11L350.93-18.11L350.93-19.09Q350.93-24.82 353.14-29.34Q355.36-33.86 359.42-36.30Q363.48-38.74 368.68-38.74L368.68-38.74Q376.49-38.74 380.97-33.82Q385.45-28.90 385.45-19.86L385.45-19.86L385.45-15.71L361.23-15.71Q361.72-11.99 364.20-9.74Q366.68-7.49 370.48-7.49L370.48-7.49Q376.35-7.49 379.65-11.74L379.65-11.74L384.64-6.15Q382.36-2.92 378.46-1.11Q374.55 0.70 369.81 0.70ZM368.65-30.52L368.65-30.52Q365.63-30.52 363.74-28.48Q361.86-26.44 361.34-22.64L361.34-22.64L375.47-22.64L375.47-23.45Q375.40-26.82 373.64-28.67Q371.88-30.52 368.65-30.52ZM391.01-38.04L400.57-38.04L400.89-33.64Q404.96-38.74 411.82-38.74L411.82-38.74Q417.87-38.74 420.82-35.19Q423.77-31.64 423.84-24.57L423.84-24.57L423.84 0L413.68 0L413.68-24.33Q413.68-27.56 412.28-29.02Q410.87-30.48 407.60-30.48L407.60-30.48Q403.31-30.48 401.17-26.82L401.17-26.82L401.17 0L391.01 0L391.01-38.04ZM461.85-17.05L472.39-17.05Q471.80-8.79 466.29-4.04Q460.79 0.70 451.79 0.70L451.79 0.70Q441.95 0.70 436.31-5.92Q430.66-12.55 430.66-24.12L430.66-24.12L430.66-27.25Q430.66-34.63 433.27-40.25Q435.87-45.88 440.70-48.88Q445.54-51.89 451.93-51.89L451.93-51.89Q460.79-51.89 466.21-47.14Q471.62-42.40 472.46-33.82L472.46-33.82L461.92-33.82Q461.53-38.78 459.16-41.01Q456.79-43.24 451.93-43.24L451.93-43.24Q446.66-43.24 444.04-39.46Q441.42-35.68 441.35-27.74L441.35-27.74L441.35-23.87Q441.35-15.57 443.87-11.74Q446.38-7.91 451.79-7.91L451.79-7.91Q456.68-7.91 459.09-10.14Q461.50-12.38 461.85-17.05L461.85-17.05ZM489.38-54L489.38 0L479.18 0L479.18-54L489.38-54ZM530.05 0L519.79 0Q519.08-1.37 518.77-3.41L518.77-3.41Q515.07 0.70 509.17 0.70L509.17 0.70Q503.58 0.70 499.90-2.53Q496.23-5.77 496.23-10.69L496.23-10.69Q496.23-16.73 500.71-19.97Q505.20-23.20 513.67-23.24L513.67-23.24L518.34-23.24L518.34-25.42Q518.34-28.05 516.99-29.64Q515.64-31.22 512.72-31.22L512.72-31.22Q510.15-31.22 508.69-29.99Q507.23-28.76 507.23-26.61L507.23-26.61L497.07-26.61Q497.07-29.92 499.11-32.73Q501.15-35.54 504.88-37.14Q508.61-38.74 513.25-38.74L513.25-38.74Q520.28-38.74 524.41-35.21Q528.54-31.68 528.54-25.28L528.54-25.28L528.54-8.79Q528.57-3.38 530.05-0.60L530.05-0.60L530.05 0ZM511.38-7.07L511.38-7.07Q513.63-7.07 515.53-8.07Q517.43-9.07 518.34-10.76L518.34-10.76L518.34-17.30L514.55-17.30Q506.92-17.30 506.43-12.02L506.43-12.02L506.39-11.43Q506.39-9.53 507.73-8.30Q509.06-7.07 511.38-7.07ZM562.50-38.04L569.43-13.82L574.42-38.04L584.23-38.04L574.52 0L566.02 0L558.81-23.94L551.60 0L543.13 0L533.43-38.04L543.23-38.04L548.19-13.85L555.15-38.04L562.50-38.04ZM606.55-15.71L597.55-15.71Q597.55-20.64 598.75-23.55Q599.94-26.47 603.12-29.30Q606.30-32.13 607.36-33.91Q608.41-35.68 608.41-37.65L608.41-37.65Q608.41-43.59 602.93-43.59L602.93-43.59Q600.33-43.59 598.76-41.99Q597.20-40.39 597.13-37.58L597.13-37.58L586.93-37.58Q587.00-44.30 591.28-48.09Q595.55-51.89 602.93-51.89L602.93-51.89Q610.38-51.89 614.50-48.29Q618.61-44.68 618.61-38.11L618.61-38.11Q618.61-35.12 617.27-32.47Q615.94-29.81 612.60-26.58L612.60-26.58L609.75-23.87Q607.08-21.30 606.69-17.86L606.69-17.86L606.55-15.71ZM596.53-4.92L596.53-4.92Q596.53-7.28 598.13-8.81Q599.73-10.34 602.23-10.34Q604.72-10.34 606.32-8.81Q607.92-7.28 607.92-4.92L607.92-4.92Q607.92-2.60 606.36-1.09Q604.79 0.42 602.23 0.42Q599.66 0.42 598.10-1.09Q596.53-2.60 596.53-4.92Z" transform="translate(649.412109375, 380)" fill="#ffffff" />
  <line x1="760" y1="430" x2="1160" y2="430" stroke="#e94560" stroke-width="4"/>
  <circle cx="580" cy="500" r="6" fill="#e94560" /><path d="M18.51 0L16.73-5.27L7.49-5.27L5.73 0L0.12 0L9.65-25.59L14.54-25.59L24.12 0L18.51 0ZM12.09-19.13L8.91-9.54L15.31-9.54L12.09-19.13ZM32.12-25.59L32.12 0L26.84 0L26.84-25.59L32.12-25.59ZM46.55-13.01L46.55-8.91L36.65-8.91L36.65-13.01L46.55-13.01ZM67.75-9.60L67.75-9.33Q67.75-4.94 65.75-2.29Q63.76 0.35 60.36 0.35L60.36 0.35Q57.48 0.35 55.71-1.65L55.71-1.65L55.71 7.31L50.63 7.31L50.63-19.02L55.34-19.02L55.51-17.16Q57.36-19.37 60.33-19.37L60.33-19.37Q63.84-19.37 65.79-16.77Q67.75-14.17 67.75-9.60L67.75-9.60ZM62.67-9.70L62.67-9.70Q62.67-12.36 61.73-13.80Q60.79-15.24 58.99-15.24L58.99-15.24Q56.60-15.24 55.71-13.41L55.71-13.41L55.71-5.63Q56.64-3.74 59.03-3.74L59.03-3.74Q62.67-3.74 62.67-9.70ZM70.10-9.46L70.10-9.69Q70.10-12.52 71.19-14.73Q72.28-16.95 74.33-18.16Q76.38-19.37 79.08-19.37L79.08-19.37Q82.93-19.37 85.37-17.02Q87.80-14.66 88.08-10.62L88.08-10.62L88.12-9.32Q88.12-4.94 85.68-2.29Q83.23 0.35 79.12 0.35Q75.01 0.35 72.55-2.29Q70.10-4.92 70.10-9.46L70.10-9.46ZM75.18-9.32L75.18-9.32Q75.18-6.61 76.20-5.18Q77.22-3.74 79.12-3.74L79.12-3.74Q80.96-3.74 82.00-5.16Q83.04-6.57 83.04-9.69L83.04-9.69Q83.04-12.34 82.00-13.80Q80.96-15.26 79.08-15.26L79.08-15.26Q77.22-15.26 76.20-13.81Q75.18-12.36 75.18-9.32ZM104.33-19.02L107.79-6.91L110.29-19.02L115.19-19.02L110.34 0L106.08 0L102.48-11.97L98.88 0L94.64 0L89.79-19.02L94.69-19.02L97.17-6.93L100.65-19.02L104.33-19.02ZM126.46 0.35L126.46 0.35Q122.27 0.35 119.65-2.21Q117.02-4.78 117.02-9.05L117.02-9.05L117.02-9.54Q117.02-12.41 118.13-14.67Q119.23-16.93 121.26-18.15Q123.29-19.37 125.89-19.37L125.89-19.37Q129.80-19.37 132.04-16.91Q134.28-14.45 134.28-9.93L134.28-9.93L134.28-7.86L122.17-7.86Q122.41-5.99 123.65-4.87Q124.89-3.74 126.79-3.74L126.79-3.74Q129.73-3.74 131.38-5.87L131.38-5.87L133.88-3.08Q132.73-1.46 130.78-0.55Q128.83 0.35 126.46 0.35ZM125.88-15.26L125.88-15.26Q124.37-15.26 123.42-14.24Q122.48-13.22 122.22-11.32L122.22-11.32L129.29-11.32L129.29-11.72Q129.25-13.41 128.37-14.33Q127.49-15.26 125.88-15.26ZM147.92-19.14L147.85-14.26Q146.81-14.40 146.02-14.40L146.02-14.40Q143.14-14.40 142.24-12.45L142.24-12.45L142.24 0L137.16 0L137.16-19.02L141.96-19.02L142.10-16.75Q143.63-19.37 146.34-19.37L146.34-19.37Q147.18-19.37 147.92-19.14L147.92-19.14ZM159.05 0.35L159.05 0.35Q154.86 0.35 152.24-2.21Q149.61-4.78 149.61-9.05L149.61-9.05L149.61-9.54Q149.61-12.41 150.71-14.67Q151.82-16.93 153.85-18.15Q155.88-19.37 158.48-19.37L158.48-19.37Q162.39-19.37 164.63-16.91Q166.87-14.45 166.87-9.93L166.87-9.93L166.87-7.86L154.76-7.86Q155.00-5.99 156.24-4.87Q157.48-3.74 159.38-3.74L159.38-3.74Q162.32-3.74 163.97-5.87L163.97-5.87L166.46-3.08Q165.32-1.46 163.37-0.55Q161.42 0.35 159.05 0.35ZM158.47-15.26L158.47-15.26Q156.96-15.26 156.01-14.24Q155.07-13.22 154.81-11.32L154.81-11.32L161.88-11.32L161.88-11.72Q161.84-13.41 160.96-14.33Q160.08-15.26 158.47-15.26ZM168.96-9.65L168.96-9.65Q168.96-14.10 170.96-16.73Q172.95-19.37 176.41-19.37L176.41-19.37Q179.19-19.37 181.00-17.30L181.00-17.30L181.00-27L186.10-27L186.10 0L181.51 0L181.27-2.02Q179.37 0.35 176.38 0.35L176.38 0.35Q173.02 0.35 170.99-2.29Q168.96-4.94 168.96-9.65ZM174.04-9.28L174.04-9.28Q174.04-6.61 174.97-5.19Q175.90-3.76 177.68-3.76L177.68-3.76Q180.04-3.76 181.00-5.75L181.00-5.75L181.00-13.25Q180.05-15.24 177.71-15.24L177.71-15.24Q174.04-15.24 174.04-9.28ZM216.12-9.60L216.12-9.33Q216.12-4.94 214.13-2.29Q212.13 0.35 208.74 0.35L208.74 0.35Q205.86 0.35 204.08-1.65L204.08-1.65L204.08 7.31L199.00 7.31L199.00-19.02L203.71-19.02L203.89-17.16Q205.73-19.37 208.71-19.37L208.71-19.37Q212.22-19.37 214.17-16.77Q216.12-14.17 216.12-9.60L216.12-9.60ZM211.04-9.70L211.04-9.70Q211.04-12.36 210.10-13.80Q209.16-15.24 207.37-15.24L207.37-15.24Q204.98-15.24 204.08-13.41L204.08-13.41L204.08-5.63Q205.01-3.74 207.40-3.74L207.40-3.74Q211.04-3.74 211.04-9.70ZM228.02 0.35L228.02 0.35Q223.84 0.35 221.21-2.21Q218.58-4.78 218.58-9.05L218.58-9.05L218.58-9.54Q218.58-12.41 219.69-14.67Q220.80-16.93 222.83-18.15Q224.86-19.37 227.46-19.37L227.46-19.37Q231.36-19.37 233.60-16.91Q235.85-14.45 235.85-9.93L235.85-9.93L235.85-7.86L223.73-7.86Q223.98-5.99 225.22-4.87Q226.46-3.74 228.36-3.74L228.36-3.74Q231.29-3.74 232.95-5.87L232.95-5.87L235.44-3.08Q234.30-1.46 232.35-0.55Q230.40 0.35 228.02 0.35ZM227.44-15.26L227.44-15.26Q225.93-15.26 224.99-14.24Q224.05-13.22 223.79-11.32L223.79-11.32L230.85-11.32L230.85-11.72Q230.82-13.41 229.94-14.33Q229.06-15.26 227.44-15.26ZM249.49-19.14L249.42-14.26Q248.38-14.40 247.59-14.40L247.59-14.40Q244.71-14.40 243.81-12.45L243.81-12.45L243.81 0L238.73 0L238.73-19.02L243.53-19.02L243.67-16.75Q245.20-19.37 247.90-19.37L247.90-19.37Q248.75-19.37 249.49-19.14L249.49-19.14ZM262.16-5.26L262.16-5.26Q262.16-6.19 261.24-6.72Q260.31-7.26 258.28-7.68L258.28-7.68Q251.49-9.11 251.49-13.45L251.49-13.45Q251.49-15.98 253.59-17.67Q255.69-19.37 259.08-19.37L259.08-19.37Q262.71-19.37 264.88-17.67Q267.05-15.96 267.05-13.24L267.05-13.24L261.97-13.24Q261.97-14.33 261.26-15.04Q260.56-15.75 259.07-15.75L259.07-15.75Q257.78-15.75 257.08-15.17Q256.38-14.59 256.38-13.69L256.38-13.69Q256.38-12.85 257.18-12.33Q257.98-11.81 259.88-11.43Q261.77-11.06 263.07-10.58L263.07-10.58Q267.10-9.11 267.10-5.47L267.10-5.47Q267.10-2.87 264.87-1.26Q262.63 0.35 259.10 0.35L259.10 0.35Q256.71 0.35 254.86-0.50Q253.00-1.35 251.95-2.84Q250.89-4.32 250.89-6.05L250.89-6.05L255.71-6.05Q255.78-4.69 256.71-3.97Q257.64-3.25 259.21-3.25L259.21-3.25Q260.67-3.25 261.41-3.81Q262.16-4.36 262.16-5.26ZM269.58-9.46L269.58-9.69Q269.58-12.52 270.67-14.73Q271.76-16.95 273.81-18.16Q275.85-19.37 278.56-19.37L278.56-19.37Q282.41-19.37 284.84-17.02Q287.28-14.66 287.56-10.62L287.56-10.62L287.60-9.32Q287.60-4.94 285.15-2.29Q282.71 0.35 278.60 0.35Q274.48 0.35 272.03-2.29Q269.58-4.92 269.58-9.46L269.58-9.46ZM274.66-9.32L274.66-9.32Q274.66-6.61 275.68-5.18Q276.70-3.74 278.60-3.74L278.60-3.74Q280.44-3.74 281.48-5.16Q282.52-6.57 282.52-9.69L282.52-9.69Q282.52-12.34 281.48-13.80Q280.44-15.26 278.56-15.26L278.56-15.26Q276.70-15.26 275.68-13.81Q274.66-12.36 274.66-9.32ZM290.62-19.02L295.40-19.02L295.56-16.82Q297.60-19.37 301.03-19.37L301.03-19.37Q304.05-19.37 305.53-17.60Q307.00-15.82 307.04-12.29L307.04-12.29L307.04 0L301.96 0L301.96-12.16Q301.96-13.78 301.25-14.51Q300.55-15.24 298.92-15.24L298.92-15.24Q296.77-15.24 295.70-13.41L295.70-13.41L295.70 0L290.62 0L290.62-19.02ZM327.04 0L321.91 0Q321.56-0.69 321.40-1.71L321.40-1.71Q319.55 0.35 316.60 0.35L316.60 0.35Q313.80 0.35 311.97-1.27Q310.13-2.88 310.13-5.34L310.13-5.34Q310.13-8.37 312.37-9.98Q314.61-11.60 318.85-11.62L318.85-11.62L321.19-11.62L321.19-12.71Q321.19-14.03 320.51-14.82Q319.83-15.61 318.38-15.61L318.38-15.61Q317.09-15.61 316.36-14.99Q315.63-14.38 315.63-13.31L315.63-13.31L310.55-13.31Q310.55-14.96 311.57-16.37Q312.59-17.77 314.46-18.57Q316.32-19.37 318.64-19.37L318.64-19.37Q322.15-19.37 324.22-17.60Q326.29-15.84 326.29-12.64L326.29-12.64L326.29-4.39Q326.30-1.69 327.04-0.30L327.04-0.30L327.04 0ZM317.71-3.53L317.71-3.53Q318.83-3.53 319.78-4.03Q320.73-4.54 321.19-5.38L321.19-5.38L321.19-8.65L319.29-8.65Q315.47-8.65 315.23-6.01L315.23-6.01L315.21-5.71Q315.21-4.76 315.88-4.15Q316.55-3.53 317.71-3.53ZM335.55-27L335.55 0L330.45 0L330.45-27L335.55-27ZM364.85 0L359.72 0Q359.37-0.69 359.21-1.71L359.21-1.71Q357.36 0.35 354.41 0.35L354.41 0.35Q351.62 0.35 349.78-1.27Q347.94-2.88 347.94-5.34L347.94-5.34Q347.94-8.37 350.18-9.98Q352.42-11.60 356.66-11.62L356.66-11.62L359.00-11.62L359.00-12.71Q359.00-14.03 358.32-14.82Q357.64-15.61 356.19-15.61L356.19-15.61Q354.90-15.61 354.17-14.99Q353.44-14.38 353.44-13.31L353.44-13.31L348.36-13.31Q348.36-14.96 349.38-16.37Q350.40-17.77 352.27-18.57Q354.13-19.37 356.45-19.37L356.45-19.37Q359.96-19.37 362.03-17.60Q364.10-15.84 364.10-12.64L364.10-12.64L364.10-4.39Q364.11-1.69 364.85-0.30L364.85-0.30L364.85 0ZM355.52-3.53L355.52-3.53Q356.64-3.53 357.59-4.03Q358.54-4.54 359.00-5.38L359.00-5.38L359.00-8.65L357.10-8.65Q353.29-8.65 353.04-6.01L353.04-6.01L353.02-5.71Q353.02-4.76 353.69-4.15Q354.36-3.53 355.52-3.53ZM378.30-5.26L378.30-5.26Q378.30-6.19 377.38-6.72Q376.45-7.26 374.41-7.68L374.41-7.68Q367.63-9.11 367.63-13.45L367.63-13.45Q367.63-15.98 369.73-17.67Q371.83-19.37 375.22-19.37L375.22-19.37Q378.84-19.37 381.01-17.67Q383.19-15.96 383.19-13.24L383.19-13.24L378.11-13.24Q378.11-14.33 377.40-15.04Q376.70-15.75 375.21-15.75L375.21-15.75Q373.92-15.75 373.22-15.17Q372.52-14.59 372.52-13.69L372.52-13.69Q372.52-12.85 373.32-12.33Q374.12-11.81 376.01-11.43Q377.91-11.06 379.21-10.58L379.21-10.58Q383.24-9.11 383.24-5.47L383.24-5.47Q383.24-2.87 381.01-1.26Q378.77 0.35 375.24 0.35L375.24 0.35Q372.85 0.35 371.00-0.50Q369.14-1.35 368.09-2.84Q367.03-4.32 367.03-6.05L367.03-6.05L371.85-6.05Q371.92-4.69 372.85-3.97Q373.78-3.25 375.35-3.25L375.35-3.25Q376.80-3.25 377.55-3.81Q378.30-4.36 378.30-5.26ZM396.81-5.26L396.81-5.26Q396.81-6.19 395.89-6.72Q394.96-7.26 392.92-7.68L392.92-7.68Q386.14-9.11 386.14-13.45L386.14-13.45Q386.14-15.98 388.24-17.67Q390.34-19.37 393.73-19.37L393.73-19.37Q397.35-19.37 399.52-17.67Q401.70-15.96 401.70-13.24L401.70-13.24L396.62-13.24Q396.62-14.33 395.91-15.04Q395.21-15.75 393.71-15.75L393.71-15.75Q392.43-15.75 391.73-15.17Q391.03-14.59 391.03-13.69L391.03-13.69Q391.03-12.85 391.83-12.33Q392.63-11.81 394.52-11.43Q396.42-11.06 397.72-10.58L397.72-10.58Q401.75-9.11 401.75-5.47L401.75-5.47Q401.75-2.87 399.52-1.26Q397.28 0.35 393.75 0.35L393.75 0.35Q391.36 0.35 389.50-0.50Q387.65-1.35 386.60-2.84Q385.54-4.32 385.54-6.05L385.54-6.05L390.36-6.05Q390.43-4.69 391.36-3.97Q392.29-3.25 393.86-3.25L393.86-3.25Q395.31-3.25 396.06-3.81Q396.81-4.36 396.81-5.26ZM410.38-19.02L410.38 0L405.28 0L405.28-19.02L410.38-19.02ZM404.98-23.94L404.98-23.94Q404.98-25.08 405.75-25.82Q406.51-26.56 407.83-26.56L407.83-26.56Q409.13-26.56 409.90-25.82Q410.68-25.08 410.68-23.94L410.68-23.94Q410.68-22.78 409.90-22.04Q409.11-21.30 407.83-21.30Q406.55-21.30 405.76-22.04Q404.98-22.78 404.98-23.94ZM424.86-5.26L424.86-5.26Q424.86-6.19 423.94-6.72Q423.02-7.26 420.98-7.68L420.98-7.68Q414.19-9.11 414.19-13.45L414.19-13.45Q414.19-15.98 416.29-17.67Q418.39-19.37 421.79-19.37L421.79-19.37Q425.41-19.37 427.58-17.67Q429.75-15.96 429.75-13.24L429.75-13.24L424.67-13.24Q424.67-14.33 423.97-15.04Q423.26-15.75 421.77-15.75L421.77-15.75Q420.49-15.75 419.78-15.17Q419.08-14.59 419.08-13.69L419.08-13.69Q419.08-12.85 419.88-12.33Q420.68-11.81 422.58-11.43Q424.48-11.06 425.78-10.58L425.78-10.58Q429.80-9.11 429.80-5.47L429.80-5.47Q429.80-2.87 427.57-1.26Q425.34 0.35 421.80 0.35L421.80 0.35Q419.41 0.35 417.56-0.50Q415.71-1.35 414.65-2.84Q413.60-4.32 413.60-6.05L413.60-6.05L418.41-6.05Q418.48-4.69 419.41-3.97Q420.35-3.25 421.91-3.25L421.91-3.25Q423.37-3.25 424.12-3.81Q424.86-4.36 424.86-5.26ZM434.07-23.70L439.15-23.70L439.15-19.02L442.41-19.02L442.41-15.29L439.15-15.29L439.15-5.80Q439.15-4.75 439.56-4.29Q439.96-3.83 441.11-3.83L441.11-3.83Q441.95-3.83 442.60-3.96L442.60-3.96L442.60-0.11Q441.11 0.35 439.52 0.35L439.52 0.35Q434.18 0.35 434.07-5.04L434.07-5.04L434.07-15.29L431.30-15.29L431.30-19.02L434.07-19.02L434.07-23.70ZM461.39 0L456.26 0Q455.91-0.69 455.75-1.71L455.75-1.71Q453.90 0.35 450.95 0.35L450.95 0.35Q448.15 0.35 446.32-1.27Q444.48-2.88 444.48-5.34L444.48-5.34Q444.48-8.37 446.72-9.98Q448.96-11.60 453.20-11.62L453.20-11.62L455.54-11.62L455.54-12.71Q455.54-14.03 454.86-14.82Q454.18-15.61 452.72-15.61L452.72-15.61Q451.44-15.61 450.71-14.99Q449.98-14.38 449.98-13.31L449.98-13.31L444.90-13.31Q444.90-14.96 445.92-16.37Q446.94-17.77 448.80-18.57Q450.67-19.37 452.99-19.37L452.99-19.37Q456.50-19.37 458.57-17.60Q460.63-15.84 460.63-12.64L460.63-12.64L460.63-4.39Q460.65-1.69 461.39-0.30L461.39-0.30L461.39 0ZM452.06-3.53L452.06-3.53Q453.18-3.53 454.13-4.03Q455.08-4.54 455.54-5.38L455.54-5.38L455.54-8.65L453.64-8.65Q449.82-8.65 449.58-6.01L449.58-6.01L449.56-5.71Q449.56-4.76 450.23-4.15Q450.90-3.53 452.06-3.53ZM464.43-19.02L469.21-19.02L469.37-16.82Q471.41-19.37 474.84-19.37L474.84-19.37Q477.86-19.37 479.34-17.60Q480.81-15.82 480.85-12.29L480.85-12.29L480.85 0L475.77 0L475.77-12.16Q475.77-13.78 475.07-14.51Q474.36-15.24 472.73-15.24L472.73-15.24Q470.58-15.24 469.51-13.41L469.51-13.41L469.51 0L464.43 0L464.43-19.02ZM485.70-23.70L490.78-23.70L490.78-19.02L494.03-19.02L494.03-15.29L490.78-15.29L490.78-5.80Q490.78-4.75 491.19-4.29Q491.59-3.83 492.73-3.83L492.73-3.83Q493.58-3.83 494.23-3.96L494.23-3.96L494.23-0.11Q492.73 0.35 491.15 0.35L491.15 0.35Q485.81 0.35 485.70-5.04L485.70-5.04L485.70-15.29L482.92-15.29L482.92-19.02L485.70-19.02L485.70-23.70Z" transform="translate(620, 500)" fill="#ffffff" /><circle cx="580" cy="565" r="6" fill="#e94560" /><path d="M16.56 0L11.76-9.37L7.56-9.37L7.56 0L2.29 0L2.29-25.59L11.79-25.59Q16.33-25.59 18.79-23.57Q21.25-21.55 21.25-17.86L21.25-17.86Q21.25-15.24 20.12-13.49Q18.98-11.74 16.68-10.71L16.68-10.71L22.22-0.25L22.22 0L16.56 0ZM7.56-21.32L7.56-13.64L11.81-13.64Q13.80-13.64 14.89-14.65Q15.98-15.66 15.98-17.44L15.98-17.44Q15.98-19.25 14.95-20.29Q13.92-21.32 11.79-21.32L11.79-21.32L7.56-21.32ZM36.46 0L36.32-1.93Q34.44 0.35 31.11 0.35L31.11 0.35Q28.05 0.35 26.45-1.41Q24.84-3.16 24.80-6.56L24.80-6.56L24.80-19.02L29.88-19.02L29.88-6.73Q29.88-3.76 32.59-3.76L32.59-3.76Q35.17-3.76 36.14-5.55L36.14-5.55L36.14-19.02L41.24-19.02L41.24 0L36.46 0ZM44.96-19.02L49.75-19.02L49.90-16.82Q51.94-19.37 55.37-19.37L55.37-19.37Q58.39-19.37 59.87-17.60Q61.35-15.82 61.38-12.29L61.38-12.29L61.38 0L56.30 0L56.30-12.16Q56.30-13.78 55.60-14.51Q54.90-15.24 53.26-15.24L53.26-15.24Q51.12-15.24 50.04-13.41L50.04-13.41L50.04 0L44.96 0L44.96-19.02ZM75.53-5.26L75.53-5.26Q75.53-6.19 74.61-6.72Q73.69-7.26 71.65-7.68L71.65-7.68Q64.86-9.11 64.86-13.45L64.86-13.45Q64.86-15.98 66.96-17.67Q69.06-19.37 72.46-19.37L72.46-19.37Q76.08-19.37 78.25-17.67Q80.42-15.96 80.42-13.24L80.42-13.24L75.34-13.24Q75.34-14.33 74.64-15.04Q73.93-15.75 72.44-15.75L72.44-15.75Q71.16-15.75 70.45-15.17Q69.75-14.59 69.75-13.69L69.75-13.69Q69.75-12.85 70.55-12.33Q71.35-11.81 73.25-11.43Q75.15-11.06 76.45-10.58L76.45-10.58Q80.47-9.11 80.47-5.47L80.47-5.47Q80.47-2.87 78.24-1.26Q76.01 0.35 72.47 0.35L72.47 0.35Q70.08 0.35 68.23-0.50Q66.38-1.35 65.32-2.84Q64.27-4.32 64.27-6.05L64.27-6.05L69.08-6.05Q69.15-4.69 70.08-3.97Q71.02-3.25 72.58-3.25L72.58-3.25Q74.04-3.25 74.79-3.81Q75.53-4.36 75.53-5.26ZM91.92-9.46L91.92-9.69Q91.92-12.52 93.01-14.73Q94.10-16.95 96.14-18.16Q98.19-19.37 100.90-19.37L100.90-19.37Q104.75-19.37 107.18-17.02Q109.62-14.66 109.90-10.62L109.90-10.62L109.93-9.32Q109.93-4.94 107.49-2.29Q105.05 0.35 100.93 0.35Q96.82 0.35 94.37-2.29Q91.92-4.92 91.92-9.46L91.92-9.46ZM97.00-9.32L97.00-9.32Q97.00-6.61 98.02-5.18Q99.04-3.74 100.93-3.74L100.93-3.74Q102.78-3.74 103.82-5.16Q104.85-6.57 104.85-9.69L104.85-9.69Q104.85-12.34 103.82-13.80Q102.78-15.26 100.90-15.26L100.90-15.26Q99.04-15.26 98.02-13.81Q97.00-12.36 97.00-9.32ZM112.96-19.02L117.74-19.02L117.90-16.82Q119.94-19.37 123.36-19.37L123.36-19.37Q126.39-19.37 127.86-17.60Q129.34-15.82 129.38-12.29L129.38-12.29L129.38 0L124.29 0L124.29-12.16Q124.29-13.78 123.59-14.51Q122.89-15.24 121.25-15.24L121.25-15.24Q119.11-15.24 118.04-13.41L118.04-13.41L118.04 0L112.96 0L112.96-19.02ZM145.76-19.02L149.29-7.19L152.81-19.02L158.26-19.02L150.61 2.95L150.19 3.96Q148.48 7.68 144.56 7.68L144.56 7.68Q143.46 7.68 142.31 7.35L142.31 7.35L142.31 3.50L143.09 3.52Q144.53 3.52 145.24 3.08Q145.95 2.64 146.36 1.62L146.36 1.62L146.95 0.05L140.29-19.02L145.76-19.02ZM159.47-9.46L159.47-9.69Q159.47-12.52 160.56-14.73Q161.65-16.95 163.70-18.16Q165.74-19.37 168.45-19.37L168.45-19.37Q172.30-19.37 174.74-17.02Q177.17-14.66 177.45-10.62L177.45-10.62L177.49-9.32Q177.49-4.94 175.04-2.29Q172.60 0.35 168.49 0.35Q164.37 0.35 161.92-2.29Q159.47-4.92 159.47-9.46L159.47-9.46ZM164.55-9.32L164.55-9.32Q164.55-6.61 165.57-5.18Q166.59-3.74 168.49-3.74L168.49-3.74Q170.33-3.74 171.37-5.16Q172.41-6.57 172.41-9.69L172.41-9.69Q172.41-12.34 171.37-13.80Q170.33-15.26 168.45-15.26L168.45-15.26Q166.59-15.26 165.57-13.81Q164.55-12.36 164.55-9.32ZM192.15 0L192.01-1.93Q190.13 0.35 186.80 0.35L186.80 0.35Q183.74 0.35 182.14-1.41Q180.53-3.16 180.49-6.56L180.49-6.56L180.49-19.02L185.57-19.02L185.57-6.73Q185.57-3.76 188.28-3.76L188.28-3.76Q190.86-3.76 191.83-5.55L191.83-5.55L191.83-19.02L196.93-19.02L196.93 0L192.15 0ZM211.52-19.14L211.45-14.26Q210.41-14.40 209.62-14.40L209.62-14.40Q206.74-14.40 205.84-12.45L205.84-12.45L205.84 0L200.76 0L200.76-19.02L205.56-19.02L205.70-16.75Q207.23-19.37 209.94-19.37L209.94-19.37Q210.78-19.37 211.52-19.14L211.52-19.14ZM233.16-5.26L233.16-5.26Q233.16-6.19 232.23-6.72Q231.31-7.26 229.27-7.68L229.27-7.68Q222.49-9.11 222.49-13.45L222.49-13.45Q222.49-15.98 224.59-17.67Q226.69-19.37 230.08-19.37L230.08-19.37Q233.70-19.37 235.87-17.67Q238.04-15.96 238.04-13.24L238.04-13.24L232.96-13.24Q232.96-14.33 232.26-15.04Q231.56-15.75 230.06-15.75L230.06-15.75Q228.78-15.75 228.08-15.17Q227.37-14.59 227.37-13.69L227.37-13.69Q227.37-12.85 228.17-12.33Q228.97-11.81 230.87-11.43Q232.77-11.06 234.07-10.58L234.07-10.58Q238.10-9.11 238.10-5.47L238.10-5.47Q238.10-2.87 235.86-1.26Q233.63 0.35 230.10 0.35L230.10 0.35Q227.71 0.35 225.85-0.50Q224.00-1.35 222.94-2.84Q221.89-4.32 221.89-6.05L221.89-6.05L226.71-6.05Q226.78-4.69 227.71-3.97Q228.64-3.25 230.20-3.25L230.20-3.25Q231.66-3.25 232.41-3.81Q233.16-4.36 233.16-5.26ZM250.12 0.35L250.12 0.35Q245.94 0.35 243.31-2.21Q240.68-4.78 240.68-9.05L240.68-9.05L240.68-9.54Q240.68-12.41 241.79-14.67Q242.89-16.93 244.92-18.15Q246.96-19.37 249.56-19.37L249.56-19.37Q253.46-19.37 255.70-16.91Q257.94-14.45 257.94-9.93L257.94-9.93L257.94-7.86L245.83-7.86Q246.08-5.99 247.32-4.87Q248.55-3.74 250.45-3.74L250.45-3.74Q253.39-3.74 255.04-5.87L255.04-5.87L257.54-3.08Q256.39-1.46 254.44-0.55Q252.49 0.35 250.12 0.35ZM249.54-15.26L249.54-15.26Q248.03-15.26 247.09-14.24Q246.15-13.22 245.88-11.32L245.88-11.32L252.95-11.32L252.95-11.72Q252.91-13.41 252.04-14.33Q251.16-15.26 249.54-15.26ZM271.58-19.14L271.51-14.26Q270.47-14.40 269.68-14.40L269.68-14.40Q266.80-14.40 265.90-12.45L265.90-12.45L265.90 0L260.82 0L260.82-19.02L265.62-19.02L265.76-16.75Q267.29-19.37 270-19.37L270-19.37Q270.84-19.37 271.58-19.14L271.58-19.14ZM277.54-19.02L281.07-6.21L284.61-19.02L289.92-19.02L283.50 0L278.65 0L272.23-19.02L277.54-19.02ZM300.90 0.35L300.90 0.35Q296.72 0.35 294.09-2.21Q291.46-4.78 291.46-9.05L291.46-9.05L291.46-9.54Q291.46-12.41 292.57-14.67Q293.68-16.93 295.71-18.15Q297.74-19.37 300.34-19.37L300.34-19.37Q304.24-19.37 306.48-16.91Q308.72-14.45 308.72-9.93L308.72-9.93L308.72-7.86L296.61-7.86Q296.86-5.99 298.10-4.87Q299.34-3.74 301.24-3.74L301.24-3.74Q304.17-3.74 305.82-5.87L305.82-5.87L308.32-3.08Q307.18-1.46 305.23-0.55Q303.28 0.35 300.90 0.35ZM300.32-15.26L300.32-15.26Q298.81-15.26 297.87-14.24Q296.93-13.22 296.67-11.32L296.67-11.32L303.73-11.32L303.73-11.72Q303.70-13.41 302.82-14.33Q301.94-15.26 300.32-15.26ZM322.37-19.14L322.29-14.26Q321.26-14.40 320.47-14.40L320.47-14.40Q317.58-14.40 316.69-12.45L316.69-12.45L316.69 0L311.61 0L311.61-19.02L316.41-19.02L316.55-16.75Q318.08-19.37 320.78-19.37L320.78-19.37Q321.63-19.37 322.37-19.14L322.37-19.14ZM335.04-5.26L335.04-5.26Q335.04-6.19 334.12-6.72Q333.19-7.26 331.15-7.68L331.15-7.68Q324.37-9.11 324.37-13.45L324.37-13.45Q324.37-15.98 326.47-17.67Q328.57-19.37 331.96-19.37L331.96-19.37Q335.58-19.37 337.75-17.67Q339.93-15.96 339.93-13.24L339.93-13.24L334.85-13.24Q334.85-14.33 334.14-15.04Q333.44-15.75 331.95-15.75L331.95-15.75Q330.66-15.75 329.96-15.17Q329.26-14.59 329.26-13.69L329.26-13.69Q329.26-12.85 330.06-12.33Q330.86-11.81 332.75-11.43Q334.65-11.06 335.95-10.58L335.95-10.58Q339.98-9.11 339.98-5.47L339.98-5.47Q339.98-2.87 337.75-1.26Q335.51 0.35 331.98 0.35L331.98 0.35Q329.59 0.35 327.74-0.50Q325.88-1.35 324.83-2.84Q323.77-4.32 323.77-6.05L323.77-6.05L328.59-6.05Q328.66-4.69 329.59-3.97Q330.52-3.25 332.09-3.25L332.09-3.25Q333.54-3.25 334.29-3.81Q335.04-4.36 335.04-5.26Z" transform="translate(620, 565)" fill="#ffffff" /><circle cx="580" cy="630" r="6" fill="#e94560" /><path d="M7.89-25.59L7.89 0L2.62 0L2.62-25.59L7.89-25.59ZM12.34-19.02L17.12-19.02L17.28-16.82Q19.32-19.37 22.75-19.37L22.75-19.37Q25.77-19.37 27.25-17.60Q28.72-15.82 28.76-12.29L28.76-12.29L28.76 0L23.68 0L23.68-12.16Q23.68-13.78 22.97-14.51Q22.27-15.24 20.64-15.24L20.64-15.24Q18.49-15.24 17.42-13.41L17.42-13.41L17.42 0L12.34 0L12.34-19.02ZM33.61-23.70L38.69-23.70L38.69-19.02L41.94-19.02L41.94-15.29L38.69-15.29L38.69-5.80Q38.69-4.75 39.09-4.29Q39.50-3.83 40.64-3.83L40.64-3.83Q41.48-3.83 42.13-3.96L42.13-3.96L42.13-0.11Q40.64 0.35 39.06 0.35L39.06 0.35Q33.71 0.35 33.61-5.04L33.61-5.04L33.61-15.29L30.83-15.29L30.83-19.02L33.61-19.02L33.61-23.70ZM53.53 0.35L53.53 0.35Q49.34 0.35 46.71-2.21Q44.09-4.78 44.09-9.05L44.09-9.05L44.09-9.54Q44.09-12.41 45.19-14.67Q46.30-16.93 48.33-18.15Q50.36-19.37 52.96-19.37L52.96-19.37Q56.87-19.37 59.11-16.91Q61.35-14.45 61.35-9.93L61.35-9.93L61.35-7.86L49.24-7.86Q49.48-5.99 50.72-4.87Q51.96-3.74 53.86-3.74L53.86-3.74Q56.79-3.74 58.45-5.87L58.45-5.87L60.94-3.08Q59.80-1.46 57.85-0.55Q55.90 0.35 53.53 0.35ZM52.95-15.26L52.95-15.26Q51.43-15.26 50.49-14.24Q49.55-13.22 49.29-11.32L49.29-11.32L56.36-11.32L56.36-11.72Q56.32-13.41 55.44-14.33Q54.56-15.26 52.95-15.26ZM63.49-9.44L63.49-9.65Q63.49-14.03 65.58-16.70Q67.66-19.37 71.19-19.37L71.19-19.37Q74.32-19.37 76.06-17.23L76.06-17.23L76.27-19.02L80.88-19.02L80.88-0.63Q80.88 1.86 79.74 3.71Q78.61 5.55 76.55 6.52Q74.50 7.49 71.74 7.49L71.74 7.49Q69.64 7.49 67.66 6.65Q65.67 5.82 64.65 4.50L64.65 4.50L66.90 1.41Q68.80 3.53 71.51 3.53L71.51 3.53Q73.53 3.53 74.65 2.45Q75.78 1.37 75.78-0.62L75.78-0.62L75.78-1.63Q74.02 0.35 71.16 0.35L71.16 0.35Q67.73 0.35 65.61-2.33Q63.49-5.01 63.49-9.44L63.49-9.44ZM68.57-9.28L68.57-9.28Q68.57-6.70 69.61-5.23Q70.65-3.76 72.46-3.76L72.46-3.76Q74.78-3.76 75.78-5.50L75.78-5.50L75.78-13.50Q74.76-15.24 72.49-15.24L72.49-15.24Q70.66-15.24 69.62-13.75Q68.57-12.25 68.57-9.28ZM95.54-19.14L95.47-14.26Q94.43-14.40 93.64-14.40L93.64-14.40Q90.76-14.40 89.86-12.45L89.86-12.45L89.86 0L84.78 0L84.78-19.02L89.58-19.02L89.72-16.75Q91.25-19.37 93.96-19.37L93.96-19.37Q94.80-19.37 95.54-19.14L95.54-19.14ZM114.06 0L108.93 0Q108.58-0.69 108.42-1.71L108.42-1.71Q106.58 0.35 103.62 0.35L103.62 0.35Q100.83 0.35 98.99-1.27Q97.15-2.88 97.15-5.34L97.15-5.34Q97.15-8.37 99.40-9.98Q101.64-11.60 105.87-11.62L105.87-11.62L108.21-11.62L108.21-12.71Q108.21-14.03 107.53-14.82Q106.86-15.61 105.40-15.61L105.40-15.61Q104.12-15.61 103.39-14.99Q102.66-14.38 102.66-13.31L102.66-13.31L97.58-13.31Q97.58-14.96 98.60-16.37Q99.62-17.77 101.48-18.57Q103.34-19.37 105.66-19.37L105.66-19.37Q109.18-19.37 111.24-17.60Q113.31-15.84 113.31-12.64L113.31-12.64L113.31-4.39Q113.33-1.69 114.06-0.30L114.06-0.30L114.06 0ZM104.73-3.53L104.73-3.53Q105.86-3.53 106.80-4.03Q107.75-4.54 108.21-5.38L108.21-5.38L108.21-8.65L106.31-8.65Q102.50-8.65 102.25-6.01L102.25-6.01L102.23-5.71Q102.23-4.76 102.90-4.15Q103.57-3.53 104.73-3.53ZM118.21-23.70L123.29-23.70L123.29-19.02L126.54-19.02L126.54-15.29L123.29-15.29L123.29-5.80Q123.29-4.75 123.70-4.29Q124.10-3.83 125.24-3.83L125.24-3.83Q126.09-3.83 126.74-3.96L126.74-3.96L126.74-0.11Q125.24 0.35 123.66 0.35L123.66 0.35Q118.32 0.35 118.21-5.04L118.21-5.04L118.21-15.29L115.44-15.29L115.44-19.02L118.21-19.02L118.21-23.70ZM138.13 0.35L138.13 0.35Q133.95 0.35 131.32-2.21Q128.69-4.78 128.69-9.05L128.69-9.05L128.69-9.54Q128.69-12.41 129.80-14.67Q130.90-16.93 132.93-18.15Q134.96-19.37 137.57-19.37L137.57-19.37Q141.47-19.37 143.71-16.91Q145.95-14.45 145.95-9.93L145.95-9.93L145.95-7.86L133.84-7.86Q134.09-5.99 135.33-4.87Q136.56-3.74 138.46-3.74L138.46-3.74Q141.40-3.74 143.05-5.87L143.05-5.87L145.55-3.08Q144.40-1.46 142.45-0.55Q140.50 0.35 138.13 0.35ZM137.55-15.26L137.55-15.26Q136.04-15.26 135.10-14.24Q134.16-13.22 133.89-11.32L133.89-11.32L140.96-11.32L140.96-11.72Q140.92-13.41 140.04-14.33Q139.17-15.26 137.55-15.26ZM159.13-5.26L159.13-5.26Q159.13-6.19 158.21-6.72Q157.29-7.26 155.25-7.68L155.25-7.68Q148.46-9.11 148.46-13.45L148.46-13.45Q148.46-15.98 150.57-17.67Q152.67-19.37 156.06-19.37L156.06-19.37Q159.68-19.37 161.85-17.67Q164.02-15.96 164.02-13.24L164.02-13.24L158.94-13.24Q158.94-14.33 158.24-15.04Q157.54-15.75 156.04-15.75L156.04-15.75Q154.76-15.75 154.05-15.17Q153.35-14.59 153.35-13.69L153.35-13.69Q153.35-12.85 154.15-12.33Q154.95-11.81 156.85-11.43Q158.75-11.06 160.05-10.58L160.05-10.58Q164.07-9.11 164.07-5.47L164.07-5.47Q164.07-2.87 161.84-1.26Q159.61 0.35 156.08 0.35L156.08 0.35Q153.69 0.35 151.83-0.50Q149.98-1.35 148.92-2.84Q147.87-4.32 147.87-6.05L147.87-6.05L152.68-6.05Q152.75-4.69 153.69-3.97Q154.62-3.25 156.18-3.25L156.18-3.25Q157.64-3.25 158.39-3.81Q159.13-4.36 159.13-5.26ZM189.39-19.02L192.85-6.91L195.35-19.02L200.25-19.02L195.40 0L191.14 0L187.54-11.97L183.94 0L179.70 0L174.85-19.02L179.75-19.02L182.23-6.93L185.71-19.02L189.39-19.02ZM208.13-19.02L208.13 0L203.03 0L203.03-19.02L208.13-19.02ZM202.73-23.94L202.73-23.94Q202.73-25.08 203.49-25.82Q204.26-26.56 205.58-26.56L205.58-26.56Q206.88-26.56 207.65-25.82Q208.42-25.08 208.42-23.94L208.42-23.94Q208.42-22.78 207.64-22.04Q206.86-21.30 205.58-21.30Q204.29-21.30 203.51-22.04Q202.73-22.78 202.73-23.94ZM213.31-23.70L218.39-23.70L218.39-19.02L221.64-19.02L221.64-15.29L218.39-15.29L218.39-5.80Q218.39-4.75 218.79-4.29Q219.20-3.83 220.34-3.83L220.34-3.83Q221.19-3.83 221.84-3.96L221.84-3.96L221.84-0.11Q220.34 0.35 218.76 0.35L218.76 0.35Q213.42 0.35 213.31-5.04L213.31-5.04L213.31-15.29L210.53-15.29L210.53-19.02L213.31-19.02L213.31-23.70ZM229.43-27L229.43-16.95Q231.45-19.37 234.51-19.37L234.51-19.37Q240.70-19.37 240.79-12.18L240.79-12.18L240.79 0L235.71 0L235.71-12.04Q235.71-13.68 235.00-14.46Q234.30-15.24 232.66-15.24L232.66-15.24Q230.43-15.24 229.43-13.52L229.43-13.52L229.43 0L224.35 0L224.35-27L229.43-27ZM261.84 0L253.92 0L253.92-25.59L261.79-25.59Q265.17-25.59 267.83-24.07Q270.49-22.55 271.99-19.75Q273.48-16.95 273.48-13.38L273.48-13.38L273.48-12.20Q273.48-8.63 272.01-5.85Q270.54-3.08 267.87-1.55Q265.20-0.02 261.84 0L261.84 0ZM261.79-21.32L259.19-21.32L259.19-4.24L261.74-4.24Q264.83-4.24 266.47-6.26Q268.10-8.28 268.14-12.04L268.14-12.04L268.14-13.39Q268.14-17.30 266.52-19.31Q264.90-21.32 261.79-21.32L261.79-21.32ZM282.34-19.02L282.34 0L277.24 0L277.24-19.02L282.34-19.02ZM276.94-23.94L276.94-23.94Q276.94-25.08 277.71-25.82Q278.47-26.56 279.79-26.56L279.79-26.56Q281.09-26.56 281.87-25.82Q282.64-25.08 282.64-23.94L282.64-23.94Q282.64-22.78 281.86-22.04Q281.07-21.30 279.79-21.30Q278.51-21.30 277.73-22.04Q276.94-22.78 276.94-23.94ZM296.82-5.26L296.82-5.26Q296.82-6.19 295.90-6.72Q294.98-7.26 292.94-7.68L292.94-7.68Q286.15-9.11 286.15-13.45L286.15-13.45Q286.15-15.98 288.25-17.67Q290.36-19.37 293.75-19.37L293.75-19.37Q297.37-19.37 299.54-17.67Q301.71-15.96 301.71-13.24L301.71-13.24L296.63-13.24Q296.63-14.33 295.93-15.04Q295.22-15.75 293.73-15.75L293.73-15.75Q292.45-15.75 291.74-15.17Q291.04-14.59 291.04-13.69L291.04-13.69Q291.04-12.85 291.84-12.33Q292.64-11.81 294.54-11.43Q296.44-11.06 297.74-10.58L297.74-10.58Q301.76-9.11 301.76-5.47L301.76-5.47Q301.76-2.87 299.53-1.26Q297.30 0.35 293.77 0.35L293.77 0.35Q291.38 0.35 289.52-0.50Q287.67-1.35 286.61-2.84Q285.56-4.32 285.56-6.05L285.56-6.05L290.37-6.05Q290.44-4.69 291.38-3.97Q292.31-3.25 293.87-3.25L293.87-3.25Q295.33-3.25 296.08-3.81Q296.82-4.36 296.82-5.26ZM312.94-3.74L312.94-3.74Q314.35-3.74 315.23-4.52Q316.11-5.29 316.14-6.57L316.14-6.57L320.91-6.57Q320.89-4.64 319.85-3.03Q318.81-1.42 317.01-0.54Q315.21 0.35 313.03 0.35L313.03 0.35Q308.95 0.35 306.60-2.24Q304.24-4.83 304.24-9.40L304.24-9.40L304.24-9.74Q304.24-14.13 306.58-16.75Q308.92-19.37 313.00-19.37L313.00-19.37Q316.56-19.37 318.72-17.34Q320.87-15.31 320.91-11.94L320.91-11.94L316.14-11.94Q316.11-13.41 315.23-14.33Q314.35-15.26 312.91-15.26L312.91-15.26Q311.13-15.26 310.23-13.97Q309.32-12.67 309.32-9.77L309.32-9.77L309.32-9.25Q309.32-6.31 310.22-5.03Q311.12-3.74 312.94-3.74ZM323.02-9.46L323.02-9.69Q323.02-12.52 324.11-14.73Q325.20-16.95 327.24-18.16Q329.29-19.37 332.00-19.37L332.00-19.37Q335.85-19.37 338.28-17.02Q340.72-14.66 341.00-10.62L341.00-10.62L341.03-9.32Q341.03-4.94 338.59-2.29Q336.15 0.35 332.03 0.35Q327.92 0.35 325.47-2.29Q323.02-4.92 323.02-9.46L323.02-9.46ZM328.10-9.32L328.10-9.32Q328.10-6.61 329.12-5.18Q330.13-3.74 332.03-3.74L332.03-3.74Q333.88-3.74 334.92-5.16Q335.95-6.57 335.95-9.69L335.95-9.69Q335.95-12.34 334.92-13.80Q333.88-15.26 332.00-15.26L332.00-15.26Q330.13-15.26 329.12-13.81Q328.10-12.36 328.10-9.32ZM354.92-19.14L354.85-14.26Q353.81-14.40 353.02-14.40L353.02-14.40Q350.14-14.40 349.24-12.45L349.24-12.45L349.24 0L344.16 0L344.16-19.02L348.96-19.02L349.10-16.75Q350.63-19.37 353.34-19.37L353.34-19.37Q354.18-19.37 354.92-19.14L354.92-19.14ZM356.50-9.65L356.50-9.65Q356.50-14.10 358.50-16.73Q360.49-19.37 363.96-19.37L363.96-19.37Q366.73-19.37 368.54-17.30L368.54-17.30L368.54-27L373.64-27L373.64 0L369.05 0L368.81-2.02Q366.91 0.35 363.92 0.35L363.92 0.35Q360.56 0.35 358.53-2.29Q356.50-4.94 356.50-9.65ZM361.58-9.28L361.58-9.28Q361.58-6.61 362.51-5.19Q363.45-3.76 365.22-3.76L365.22-3.76Q367.58-3.76 368.54-5.75L368.54-5.75L368.54-13.25Q367.59-15.24 365.26-15.24L365.26-15.24Q361.58-15.24 361.58-9.28ZM402.70 0L397.56 0Q397.21-0.69 397.05-1.71L397.05-1.71Q395.21 0.35 392.26 0.35L392.26 0.35Q389.46 0.35 387.62-1.27Q385.79-2.88 385.79-5.34L385.79-5.34Q385.79-8.37 388.03-9.98Q390.27-11.60 394.51-11.62L394.51-11.62L396.84-11.62L396.84-12.71Q396.84-14.03 396.17-14.82Q395.49-15.61 394.03-15.61L394.03-15.61Q392.75-15.61 392.02-14.99Q391.29-14.38 391.29-13.31L391.29-13.31L386.21-13.31Q386.21-14.96 387.23-16.37Q388.25-17.77 390.11-18.57Q391.97-19.37 394.29-19.37L394.29-19.37Q397.81-19.37 399.88-17.60Q401.94-15.84 401.94-12.64L401.94-12.64L401.94-4.39Q401.96-1.69 402.70-0.30L402.70-0.30L402.70 0ZM393.36-3.53L393.36-3.53Q394.49-3.53 395.44-4.03Q396.39-4.54 396.84-5.38L396.84-5.38L396.84-8.65L394.95-8.65Q391.13-8.65 390.88-6.01L390.88-6.01L390.87-5.71Q390.87-4.76 391.54-4.15Q392.20-3.53 393.36-3.53ZM405.74-19.02L410.52-19.02L410.68-16.82Q412.72-19.37 416.14-19.37L416.14-19.37Q419.17-19.37 420.64-17.60Q422.12-15.82 422.16-12.29L422.16-12.29L422.16 0L417.08 0L417.08-12.16Q417.08-13.78 416.37-14.51Q415.67-15.24 414.04-15.24L414.04-15.24Q411.89-15.24 410.82-13.41L410.82-13.41L410.82 0L405.74 0L405.74-19.02ZM425.21-9.65L425.21-9.65Q425.21-14.10 427.21-16.73Q429.21-19.37 432.67-19.37L432.67-19.37Q435.45-19.37 437.26-17.30L437.26-17.30L437.26-27L442.35-27L442.35 0L437.77 0L437.52-2.02Q435.62 0.35 432.63 0.35L432.63 0.35Q429.28 0.35 427.25-2.29Q425.21-4.94 425.21-9.65ZM430.29-9.28L430.29-9.28Q430.29-6.61 431.23-5.19Q432.16-3.76 433.93-3.76L433.93-3.76Q436.29-3.76 437.26-5.75L437.26-5.75L437.26-13.25Q436.31-15.24 433.97-15.24L433.97-15.24Q430.29-15.24 430.29-9.28ZM455.26-19.02L460.02-19.02L460.18-16.89Q462.20-19.37 465.64-19.37L465.64-19.37Q469.32-19.37 470.69-16.47L470.69-16.47Q472.69-19.37 476.40-19.37L476.40-19.37Q479.50-19.37 481.01-17.57Q482.52-15.77 482.52-12.15L482.52-12.15L482.52 0L477.42 0L477.42-12.13Q477.42-13.75 476.79-14.49Q476.16-15.24 474.56-15.24L474.56-15.24Q472.27-15.24 471.39-13.06L471.39-13.06L471.41 0L466.33 0L466.33-12.11Q466.33-13.76 465.68-14.50Q465.03-15.24 463.46-15.24L463.46-15.24Q461.30-15.24 460.34-13.45L460.34-13.45L460.34 0L455.26 0L455.26-19.02ZM485.63-9.46L485.63-9.69Q485.63-12.52 486.72-14.73Q487.81-16.95 489.86-18.16Q491.91-19.37 494.61-19.37L494.61-19.37Q498.46-19.37 500.90-17.02Q503.33-14.66 503.61-10.62L503.61-10.62L503.65-9.32Q503.65-4.94 501.21-2.29Q498.76 0.35 494.65 0.35Q490.54 0.35 488.08-2.29Q485.63-4.92 485.63-9.46L485.63-9.46ZM490.71-9.32L490.71-9.32Q490.71-6.61 491.73-5.18Q492.75-3.74 494.65-3.74L494.65-3.74Q496.49-3.74 497.53-5.16Q498.57-6.57 498.57-9.69L498.57-9.69Q498.57-12.34 497.53-13.80Q496.49-15.26 494.61-15.26L494.61-15.26Q492.75-15.26 491.73-13.81Q490.71-12.36 490.71-9.32ZM517.54-19.14L517.46-14.26Q516.43-14.40 515.64-14.40L515.64-14.40Q512.75-14.40 511.86-12.45L511.86-12.45L511.86 0L506.78 0L506.78-19.02L511.58-19.02L511.72-16.75Q513.25-19.37 515.95-19.37L515.95-19.37Q516.80-19.37 517.54-19.14L517.54-19.14ZM528.66 0.35L528.66 0.35Q524.48 0.35 521.85-2.21Q519.22-4.78 519.22-9.05L519.22-9.05L519.22-9.54Q519.22-12.41 520.33-14.67Q521.44-16.93 523.47-18.15Q525.50-19.37 528.10-19.37L528.10-19.37Q532.00-19.37 534.24-16.91Q536.48-14.45 536.48-9.93L536.48-9.93L536.48-7.86L524.37-7.86Q524.62-5.99 525.86-4.87Q527.10-3.74 529.00-3.74L529.00-3.74Q531.93-3.74 533.58-5.87L533.58-5.87L536.08-3.08Q534.94-1.46 532.99-0.55Q531.04 0.35 528.66 0.35ZM528.08-15.26L528.08-15.26Q526.57-15.26 525.63-14.24Q524.69-13.22 524.43-11.32L524.43-11.32L531.49-11.32L531.49-11.72Q531.46-13.41 530.58-14.33Q529.70-15.26 528.08-15.26Z" transform="translate(620, 630)" fill="#ffffff" /><circle cx="580" cy="695" r="6" fill="#e94560" /><path d="M17.68-15.22L17.68-11.09L7.56-11.09L7.56-4.24L19.44-4.24L19.44 0L2.29 0L2.29-25.59L19.41-25.59L19.41-21.32L7.56-21.32L7.56-15.22L17.68-15.22ZM26.31-19.02L29.44-13.34L32.64-19.02L38.07-19.02L32.66-9.70L38.30 0L32.85 0L29.46-5.98L26.09 0L20.62 0L26.26-9.70L20.87-19.02L26.31-19.02ZM49.27 0.35L49.27 0.35Q45.09 0.35 42.46-2.21Q39.83-4.78 39.83-9.05L39.83-9.05L39.83-9.54Q39.83-12.41 40.94-14.67Q42.05-16.93 44.08-18.15Q46.11-19.37 48.71-19.37L48.71-19.37Q52.61-19.37 54.85-16.91Q57.09-14.45 57.09-9.93L57.09-9.93L57.09-7.86L44.98-7.86Q45.23-5.99 46.47-4.87Q47.71-3.74 49.61-3.74L49.61-3.74Q52.54-3.74 54.19-5.87L54.19-5.87L56.69-3.08Q55.55-1.46 53.60-0.55Q51.64 0.35 49.27 0.35ZM48.69-15.26L48.69-15.26Q47.18-15.26 46.24-14.24Q45.30-13.22 45.04-11.32L45.04-11.32L52.10-11.32L52.10-11.72Q52.07-13.41 51.19-14.33Q50.31-15.26 48.69-15.26ZM67.89-3.74L67.89-3.74Q69.29-3.74 70.17-4.52Q71.05-5.29 71.09-6.57L71.09-6.57L75.85-6.57Q75.83-4.64 74.79-3.03Q73.76-1.42 71.96-0.54Q70.15 0.35 67.97 0.35L67.97 0.35Q63.90 0.35 61.54-2.24Q59.19-4.83 59.19-9.40L59.19-9.40L59.19-9.74Q59.19-14.13 61.52-16.75Q63.86-19.37 67.94-19.37L67.94-19.37Q71.51-19.37 73.66-17.34Q75.81-15.31 75.85-11.94L75.85-11.94L71.09-11.94Q71.05-13.41 70.17-14.33Q69.29-15.26 67.85-15.26L67.85-15.26Q66.08-15.26 65.17-13.97Q64.27-12.67 64.27-9.77L64.27-9.77L64.27-9.25Q64.27-6.31 65.16-5.03Q66.06-3.74 67.89-3.74ZM90.28 0L90.14-1.93Q88.26 0.35 84.94 0.35L84.94 0.35Q81.88 0.35 80.27-1.41Q78.66-3.16 78.63-6.56L78.63-6.56L78.63-19.02L83.71-19.02L83.71-6.73Q83.71-3.76 86.41-3.76L86.41-3.76Q89.00-3.76 89.96-5.55L89.96-5.55L89.96-19.02L95.06-19.02L95.06 0L90.28 0ZM99.90-23.70L104.98-23.70L104.98-19.02L108.23-19.02L108.23-15.29L104.98-15.29L104.98-5.80Q104.98-4.75 105.38-4.29Q105.79-3.83 106.93-3.83L106.93-3.83Q107.77-3.83 108.42-3.96L108.42-3.96L108.42-0.11Q106.93 0.35 105.35 0.35L105.35 0.35Q100.00 0.35 99.90-5.04L99.90-5.04L99.90-15.29L97.12-15.29L97.12-19.02L99.90-19.02L99.90-23.70ZM119.81 0.35L119.81 0.35Q115.63 0.35 113.00-2.21Q110.37-4.78 110.37-9.05L110.37-9.05L110.37-9.54Q110.37-12.41 111.48-14.67Q112.59-16.93 114.62-18.15Q116.65-19.37 119.25-19.37L119.25-19.37Q123.15-19.37 125.39-16.91Q127.63-14.45 127.63-9.93L127.63-9.93L127.63-7.86L115.52-7.86Q115.77-5.99 117.01-4.87Q118.25-3.74 120.15-3.74L120.15-3.74Q123.08-3.74 124.73-5.87L124.73-5.87L127.23-3.08Q126.09-1.46 124.14-0.55Q122.19 0.35 119.81 0.35ZM119.23-15.26L119.23-15.26Q117.72-15.26 116.78-14.24Q115.84-13.22 115.58-11.32L115.58-11.32L122.64-11.32L122.64-11.72Q122.61-13.41 121.73-14.33Q120.85-15.26 119.23-15.26ZM140.82-5.26L140.82-5.26Q140.82-6.19 139.90-6.72Q138.97-7.26 136.93-7.68L136.93-7.68Q130.15-9.11 130.15-13.45L130.15-13.45Q130.15-15.98 132.25-17.67Q134.35-19.37 137.74-19.37L137.74-19.37Q141.36-19.37 143.53-17.67Q145.71-15.96 145.71-13.24L145.71-13.24L140.63-13.24Q140.63-14.33 139.92-15.04Q139.22-15.75 137.72-15.75L137.72-15.75Q136.44-15.75 135.74-15.17Q135.04-14.59 135.04-13.69L135.04-13.69Q135.04-12.85 135.83-12.33Q136.63-11.81 138.53-11.43Q140.43-11.06 141.73-10.58L141.73-10.58Q145.76-9.11 145.76-5.47L145.76-5.47Q145.76-2.87 143.53-1.26Q141.29 0.35 137.76 0.35L137.76 0.35Q135.37 0.35 133.51-0.50Q131.66-1.35 130.61-2.84Q129.55-4.32 129.55-6.05L129.55-6.05L134.37-6.05Q134.44-4.69 135.37-3.97Q136.30-3.25 137.87-3.25L137.87-3.25Q139.32-3.25 140.07-3.81Q140.82-4.36 140.82-5.26ZM158.99-23.70L164.07-23.70L164.07-19.02L167.33-19.02L167.33-15.29L164.07-15.29L164.07-5.80Q164.07-4.75 164.48-4.29Q164.88-3.83 166.03-3.83L166.03-3.83Q166.87-3.83 167.52-3.96L167.52-3.96L167.52-0.11Q166.03 0.35 164.44 0.35L164.44 0.35Q159.10 0.35 158.99-5.04L158.99-5.04L158.99-15.29L156.22-15.29L156.22-19.02L158.99-19.02L158.99-23.70ZM186.31 0L181.18 0Q180.83-0.69 180.67-1.71L180.67-1.71Q178.82 0.35 175.87 0.35L175.87 0.35Q173.07 0.35 171.24-1.27Q169.40-2.88 169.40-5.34L169.40-5.34Q169.40-8.37 171.64-9.98Q173.88-11.60 178.12-11.62L178.12-11.62L180.46-11.62L180.46-12.71Q180.46-14.03 179.78-14.82Q179.10-15.61 177.64-15.61L177.64-15.61Q176.36-15.61 175.63-14.99Q174.90-14.38 174.90-13.31L174.90-13.31L169.82-13.31Q169.82-14.96 170.84-16.37Q171.86-17.77 173.72-18.57Q175.59-19.37 177.91-19.37L177.91-19.37Q181.42-19.37 183.49-17.60Q185.55-15.84 185.55-12.64L185.55-12.64L185.55-4.39Q185.57-1.69 186.31-0.30L186.31-0.30L186.31 0ZM176.98-3.53L176.98-3.53Q178.10-3.53 179.05-4.03Q180-4.54 180.46-5.38L180.46-5.38L180.46-8.65L178.56-8.65Q174.74-8.65 174.50-6.01L174.50-6.01L174.48-5.71Q174.48-4.76 175.15-4.15Q175.82-3.53 176.98-3.53ZM199.76-5.26L199.76-5.26Q199.76-6.19 198.83-6.72Q197.91-7.26 195.87-7.68L195.87-7.68Q189.09-9.11 189.09-13.45L189.09-13.45Q189.09-15.98 191.19-17.67Q193.29-19.37 196.68-19.37L196.68-19.37Q200.30-19.37 202.47-17.67Q204.64-15.96 204.64-13.24L204.64-13.24L199.56-13.24Q199.56-14.33 198.86-15.04Q198.16-15.75 196.66-15.75L196.66-15.75Q195.38-15.75 194.68-15.17Q193.97-14.59 193.97-13.69L193.97-13.69Q193.97-12.85 194.77-12.33Q195.57-11.81 197.47-11.43Q199.37-11.06 200.67-10.58L200.67-10.58Q204.70-9.11 204.70-5.47L204.70-5.47Q204.70-2.87 202.46-1.26Q200.23 0.35 196.70 0.35L196.70 0.35Q194.31 0.35 192.45-0.50Q190.60-1.35 189.54-2.84Q188.49-4.32 188.49-6.05L188.49-6.05L193.31-6.05Q193.38-4.69 194.31-3.97Q195.24-3.25 196.80-3.25L196.80-3.25Q198.26-3.25 199.01-3.81Q199.76-4.36 199.76-5.26ZM219.76 0L214.88-7.63L213.05-5.80L213.05 0L207.97 0L207.97-27L213.05-27L213.05-12.04L214.03-13.31L218.90-19.02L225-19.02L218.13-11.09L225.60 0L219.76 0ZM237.50-5.26L237.50-5.26Q237.50-6.19 236.58-6.72Q235.65-7.26 233.61-7.68L233.61-7.68Q226.83-9.11 226.83-13.45L226.83-13.45Q226.83-15.98 228.93-17.67Q231.03-19.37 234.42-19.37L234.42-19.37Q238.04-19.37 240.21-17.67Q242.38-15.96 242.38-13.24L242.38-13.24L237.30-13.24Q237.30-14.33 236.60-15.04Q235.90-15.75 234.40-15.75L234.40-15.75Q233.12-15.75 232.42-15.17Q231.71-14.59 231.71-13.69L231.71-13.69Q231.71-12.85 232.51-12.33Q233.31-11.81 235.21-11.43Q237.11-11.06 238.41-10.58L238.41-10.58Q242.44-9.11 242.44-5.47L242.44-5.47Q242.44-2.87 240.21-1.26Q237.97 0.35 234.44 0.35L234.44 0.35Q232.05 0.35 230.19-0.50Q228.34-1.35 227.29-2.84Q226.23-4.32 226.23-6.05L226.23-6.05L231.05-6.05Q231.12-4.69 232.05-3.97Q232.98-3.25 234.54-3.25L234.54-3.25Q236.00-3.25 236.75-3.81Q237.50-4.36 237.50-5.26ZM247.03 6.42L247.03 6.42L244.37 5.03L245.00 3.88Q246.18 1.74 246.22-0.39L246.22-0.39L246.22-4.32L250.51-4.32L250.49-0.81Q250.47 1.14 249.50 3.13Q248.54 5.12 247.03 6.42ZM263.46-19.02L268.22-19.02L268.38-16.89Q270.40-19.37 273.85-19.37L273.85-19.37Q277.52-19.37 278.89-16.47L278.89-16.47Q280.90-19.37 284.61-19.37L284.61-19.37Q287.70-19.37 289.21-17.57Q290.72-15.77 290.72-12.15L290.72-12.15L290.72 0L285.63 0L285.63-12.13Q285.63-13.75 284.99-14.49Q284.36-15.24 282.76-15.24L282.76-15.24Q280.48-15.24 279.60-13.06L279.60-13.06L279.62 0L274.54 0L274.54-12.11Q274.54-13.76 273.88-14.50Q273.23-15.24 271.67-15.24L271.67-15.24Q269.51-15.24 268.54-13.45L268.54-13.45L268.54 0L263.46 0L263.46-19.02ZM310.78 0L305.65 0Q305.30-0.69 305.14-1.71L305.14-1.71Q303.29 0.35 300.34 0.35L300.34 0.35Q297.54 0.35 295.71-1.27Q293.87-2.88 293.87-5.34L293.87-5.34Q293.87-8.37 296.11-9.98Q298.35-11.60 302.59-11.62L302.59-11.62L304.93-11.62L304.93-12.71Q304.93-14.03 304.25-14.82Q303.57-15.61 302.12-15.61L302.12-15.61Q300.83-15.61 300.10-14.99Q299.37-14.38 299.37-13.31L299.37-13.31L294.29-13.31Q294.29-14.96 295.31-16.37Q296.33-17.77 298.20-18.57Q300.06-19.37 302.38-19.37L302.38-19.37Q305.89-19.37 307.96-17.60Q310.03-15.84 310.03-12.64L310.03-12.64L310.03-4.39Q310.04-1.69 310.78-0.30L310.78-0.30L310.78 0ZM301.45-3.53L301.45-3.53Q302.57-3.53 303.52-4.03Q304.47-4.54 304.93-5.38L304.93-5.38L304.93-8.65L303.03-8.65Q299.21-8.65 298.97-6.01L298.97-6.01L298.95-5.71Q298.95-4.76 299.62-4.15Q300.29-3.53 301.45-3.53ZM313.82-19.02L318.60-19.02L318.76-16.82Q320.80-19.37 324.23-19.37L324.23-19.37Q327.25-19.37 328.73-17.60Q330.21-15.82 330.24-12.29L330.24-12.29L330.24 0L325.16 0L325.16-12.16Q325.16-13.78 324.46-14.51Q323.75-15.24 322.12-15.24L322.12-15.24Q319.97-15.24 318.90-13.41L318.90-13.41L318.90 0L313.82 0L313.82-19.02ZM350.24 0L345.11 0Q344.76-0.69 344.60-1.71L344.60-1.71Q342.76 0.35 339.80 0.35L339.80 0.35Q337.01 0.35 335.17-1.27Q333.33-2.88 333.33-5.34L333.33-5.34Q333.33-8.37 335.58-9.98Q337.82-11.60 342.05-11.62L342.05-11.62L344.39-11.62L344.39-12.71Q344.39-14.03 343.71-14.82Q343.04-15.61 341.58-15.61L341.58-15.61Q340.29-15.61 339.57-14.99Q338.84-14.38 338.84-13.31L338.84-13.31L333.76-13.31Q333.76-14.96 334.78-16.37Q335.79-17.77 337.66-18.57Q339.52-19.37 341.84-19.37L341.84-19.37Q345.36-19.37 347.42-17.60Q349.49-15.84 349.49-12.64L349.49-12.64L349.49-4.39Q349.51-1.69 350.24-0.30L350.24-0.30L350.24 0ZM340.91-3.53L340.91-3.53Q342.04-3.53 342.98-4.03Q343.93-4.54 344.39-5.38L344.39-5.38L344.39-8.65L342.49-8.65Q338.68-8.65 338.43-6.01L338.43-6.01L338.41-5.71Q338.41-4.76 339.08-4.15Q339.75-3.53 340.91-3.53ZM352.65-9.44L352.65-9.65Q352.65-14.03 354.74-16.70Q356.82-19.37 360.35-19.37L360.35-19.37Q363.48-19.37 365.22-17.23L365.22-17.23L365.43-19.02L370.04-19.02L370.04-0.63Q370.04 1.86 368.90 3.71Q367.77 5.55 365.71 6.52Q363.66 7.49 360.90 7.49L360.90 7.49Q358.80 7.49 356.82 6.65Q354.83 5.82 353.81 4.50L353.81 4.50L356.06 1.41Q357.96 3.53 360.67 3.53L360.67 3.53Q362.69 3.53 363.81 2.45Q364.94 1.37 364.94-0.62L364.94-0.62L364.94-1.63Q363.18 0.35 360.32 0.35L360.32 0.35Q356.89 0.35 354.77-2.33Q352.65-5.01 352.65-9.44L352.65-9.44ZM357.73-9.28L357.73-9.28Q357.73-6.70 358.77-5.23Q359.81-3.76 361.62-3.76L361.62-3.76Q363.94-3.76 364.94-5.50L364.94-5.50L364.94-13.50Q363.92-15.24 361.65-15.24L361.65-15.24Q359.82-15.24 358.78-13.75Q357.73-12.25 357.73-9.28ZM382.69 0.35L382.69 0.35Q378.51 0.35 375.88-2.21Q373.25-4.78 373.25-9.05L373.25-9.05L373.25-9.54Q373.25-12.41 374.36-14.67Q375.47-16.93 377.50-18.15Q379.53-19.37 382.13-19.37L382.13-19.37Q386.03-19.37 388.27-16.91Q390.52-14.45 390.52-9.93L390.52-9.93L390.52-7.86L378.40-7.86Q378.65-5.99 379.89-4.87Q381.13-3.74 383.03-3.74L383.03-3.74Q385.96-3.74 387.62-5.87L387.62-5.87L390.11-3.08Q388.97-1.46 387.02-0.55Q385.07 0.35 382.69 0.35ZM382.11-15.26L382.11-15.26Q380.60-15.26 379.66-14.24Q378.72-13.22 378.46-11.32L378.46-11.32L385.52-11.32L385.52-11.72Q385.49-13.41 384.61-14.33Q383.73-15.26 382.11-15.26ZM403.70-5.26L403.70-5.26Q403.70-6.19 402.78-6.72Q401.85-7.26 399.81-7.68L399.81-7.68Q393.03-9.11 393.03-13.45L393.03-13.45Q393.03-15.98 395.13-17.67Q397.23-19.37 400.62-19.37L400.62-19.37Q404.24-19.37 406.42-17.67Q408.59-15.96 408.59-13.24L408.59-13.24L403.51-13.24Q403.51-14.33 402.80-15.04Q402.10-15.75 400.61-15.75L400.61-15.75Q399.32-15.75 398.62-15.17Q397.92-14.59 397.92-13.69L397.92-13.69Q397.92-12.85 398.72-12.33Q399.52-11.81 401.41-11.43Q403.31-11.06 404.61-10.58L404.61-10.58Q408.64-9.11 408.64-5.47L408.64-5.47Q408.64-2.87 406.41-1.26Q404.17 0.35 400.64 0.35L400.64 0.35Q398.25 0.35 396.40-0.50Q394.54-1.35 393.49-2.84Q392.43-4.32 392.43-6.05L392.43-6.05L397.25-6.05Q397.32-4.69 398.25-3.97Q399.18-3.25 400.75-3.25L400.75-3.25Q402.21-3.25 402.95-3.81Q403.70-4.36 403.70-5.26ZM427.20 0L422.10 0L422.10-15.29L419.27-15.29L419.27-19.02L422.10-19.02L422.10-19.90Q422.14-23.48 424.31-25.43Q426.48-27.37 430.44-27.37L430.44-27.37Q432.81-27.37 436.20-26.33L436.20-26.33L435.46-22.13Q433.74-22.64 432.79-22.79Q431.84-22.94 430.75-22.94L430.75-22.94Q427.20-22.94 427.20-19.79L427.20-19.79L427.20-19.02L430.95-19.02L430.95-15.29L427.20-15.29L427.20 0ZM438.57-19.02L438.57 0L433.48 0L433.48-19.02L438.57-19.02ZM448.14-27L448.14 0L443.04 0L443.04-27L448.14-27ZM461.07 0.35L461.07 0.35Q456.89 0.35 454.26-2.21Q451.63-4.78 451.63-9.05L451.63-9.05L451.63-9.54Q451.63-12.41 452.74-14.67Q453.85-16.93 455.88-18.15Q457.91-19.37 460.51-19.37L460.51-19.37Q464.41-19.37 466.66-16.91Q468.90-14.45 468.90-9.93L468.90-9.93L468.90-7.86L456.79-7.86Q457.03-5.99 458.27-4.87Q459.51-3.74 461.41-3.74L461.41-3.74Q464.34-3.74 466.00-5.87L466.00-5.87L468.49-3.08Q467.35-1.46 465.40-0.55Q463.45 0.35 461.07 0.35ZM460.49-15.26L460.49-15.26Q458.98-15.26 458.04-14.24Q457.10-13.22 456.84-11.32L456.84-11.32L463.90-11.32L463.90-11.72Q463.87-13.41 462.99-14.33Q462.11-15.26 460.49-15.26ZM482.08-5.26L482.08-5.26Q482.08-6.19 481.16-6.72Q480.23-7.26 478.20-7.68L478.20-7.68Q471.41-9.11 471.41-13.45L471.41-13.45Q471.41-15.98 473.51-17.67Q475.61-19.37 479.00-19.37L479.00-19.37Q482.63-19.37 484.80-17.67Q486.97-15.96 486.97-13.24L486.97-13.24L481.89-13.24Q481.89-14.33 481.18-15.04Q480.48-15.75 478.99-15.75L478.99-15.75Q477.70-15.75 477-15.17Q476.30-14.59 476.30-13.69L476.30-13.69Q476.30-12.85 477.10-12.33Q477.90-11.81 479.79-11.43Q481.69-11.06 482.99-10.58L482.99-10.58Q487.02-9.11 487.02-5.47L487.02-5.47Q487.02-2.87 484.79-1.26Q482.55 0.35 479.02 0.35L479.02 0.35Q476.63 0.35 474.78-0.50Q472.92-1.35 471.87-2.84Q470.81-4.32 470.81-6.05L470.81-6.05L475.63-6.05Q475.70-4.69 476.63-3.97Q477.56-3.25 479.13-3.25L479.13-3.25Q480.59-3.25 481.33-3.81Q482.08-4.36 482.08-5.26Z" transform="translate(620, 695)" fill="#ffffff" />
  <text x="960" y="1040" font-family="Arial, sans-serif" font-size="20" fill="#666" text-anchor="middle">OpenClaw Documentation</text>
</svg>