<?xml version="1.0" encoding="UTF-8"?>
<svg width="1920" height="1080" xmlns="http://www.w3.org/2000/svg">
  <defs>
    <linearGradient id="bg" x1="0%" y1="0%" x2="100%" y2="100%">
      <stop offset="0%" style="stop-color:#1a1a2e;stop-opacity:1" />
      <stop offset="100%" style="stop-color:#000008;stop-opacity:1" />
    </linearGradient>
    <linearGradient id="accent" x1="0%" y1="0%" x2="100%" y2="0%">
      <stop offset="0%" style="stop-color:#e94560;stop-opacity:1" />
      <stop offset="100%" style="stop-color:#ff92ad;stop-opacity:1" />
    </linearGradient>
    <filter id="glow">
      <feGaussianBlur stdDeviation="3" result="coloredBlur"/>
      <feMerge><feMergeNode in="coloredBlur"/><feMergeNode in="SourceGraphic"/></feMerge>
    </filter>
  </defs>
  <rect width="100%" height="100%" fill="url(#bg)"/>
  <circle cx="1920" cy="0" r="700" fill="#e94560" opacity="0.08"/>
  <circle cx="0" cy="1080" r="500" fill="#ff92ad" opacity="0.06"/>
  <rect width="1920" height="6" fill="url(#accent)"/>
  <path d="M19.95-9.95L26.11-9.95Q25.76-5.13 22.55-2.36Q19.34 0.41 14.09 0.41L14.09 0.41Q8.35 0.41 5.06-3.46Q1.76-7.32 1.76-14.07L1.76-14.07L1.76-15.89Q1.76-20.20 3.28-23.48Q4.80-26.76 7.62-28.52Q10.44-30.27 14.17-30.27L14.17-30.27Q19.34-30.27 22.50-27.50Q25.66-24.73 26.15-19.73L26.15-19.73L20.00-19.73Q19.77-22.62 18.39-23.92Q17.00-25.22 14.17-25.22L14.17-25.22Q11.09-25.22 9.57-23.02Q8.04-20.82 8.00-16.18L8.00-16.18L8.00-13.92Q8.00-9.08 9.46-6.85Q10.93-4.61 14.09-4.61L14.09-4.61Q16.94-4.61 18.34-5.92Q19.75-7.22 19.95-9.95L19.95-9.95ZM35.54-31.50L35.54-19.77Q37.90-22.60 41.47-22.60L41.47-22.60Q48.69-22.60 48.79-14.21L48.79-14.21L48.79 0L42.86 0L42.86-14.05Q42.86-15.96 42.04-16.87Q41.22-17.78 39.31-17.78L39.31-17.78Q36.71-17.78 35.54-15.77L35.54-15.77L35.54 0L29.61 0L29.61-31.50L35.54-31.50ZM72.11 0L66.12 0Q65.71-0.80 65.52-1.99L65.52-1.99Q63.37 0.41 59.92 0.41L59.92 0.41Q56.66 0.41 54.52-1.48Q52.38-3.36 52.38-6.23L52.38-6.23Q52.38-9.76 54.99-11.65Q57.61-13.54 62.55-13.56L62.55-13.56L65.28-13.56L65.28-14.83Q65.28-16.37 64.49-17.29Q63.70-18.21 62.00-18.21L62.00-18.21Q60.50-18.21 59.65-17.49Q58.80-16.78 58.80-15.52L58.80-15.52L52.87-15.52Q52.87-17.45 54.06-19.09Q55.25-20.73 57.42-21.67Q59.60-22.60 62.30-22.60L62.30-22.60Q66.40-22.60 68.81-20.54Q71.22-18.48 71.22-14.75L71.22-14.75L71.22-5.13Q71.24-1.97 72.11-0.35L72.11-0.35L72.11 0ZM61.22-4.12L61.22-4.12Q62.53-4.12 63.64-4.71Q64.74-5.29 65.28-6.28L65.28-6.28L65.28-10.09L63.06-10.09Q58.61-10.09 58.32-7.01L58.32-7.01L58.30-6.67Q58.30-5.56 59.08-4.84Q59.86-4.12 61.22-4.12ZM75.65-22.19L81.23-22.19L81.42-19.63Q83.79-22.60 87.79-22.60L87.79-22.60Q91.32-22.60 93.04-20.53Q94.77-18.46 94.81-14.33L94.81-14.33L94.81 0L88.88 0L88.88-14.19Q88.88-16.08 88.06-16.93Q87.24-17.78 85.33-17.78L85.33-17.78Q82.83-17.78 81.58-15.65L81.58-15.65L81.58 0L75.65 0L75.65-22.19ZM116.98-9.95L123.13-9.95Q122.78-5.13 119.57-2.36Q116.36 0.41 111.11 0.41L111.11 0.41Q105.37 0.41 102.08-3.46Q98.79-7.32 98.79-14.07L98.79-14.07L98.79-15.89Q98.79-20.20 100.30-23.48Q101.82-26.76 104.64-28.52Q107.46-30.27 111.19-30.27L111.19-30.27Q116.36-30.27 119.52-27.50Q122.68-24.73 123.17-19.73L123.17-19.73L117.02-19.73Q116.79-22.62 115.41-23.92Q114.02-25.22 111.19-25.22L111.19-25.22Q108.12-25.22 106.59-23.02Q105.06-20.82 105.02-16.18L105.02-16.18L105.02-13.92Q105.02-9.08 106.49-6.85Q107.95-4.61 111.11-4.61L111.11-4.61Q113.96-4.61 115.37-5.92Q116.77-7.22 116.98-9.95L116.98-9.95ZM133.03-31.50L133.03 0L127.09 0L127.09-31.50L133.03-31.50ZM156.76 0L150.77 0Q150.36-0.80 150.18-1.99L150.18-1.99Q148.03 0.41 144.58 0.41L144.58 0.41Q141.32 0.41 139.18-1.48Q137.03-3.36 137.03-6.23L137.03-6.23Q137.03-9.76 139.65-11.65Q142.26-13.54 147.21-13.56L147.21-13.56L149.93-13.56L149.93-14.83Q149.93-16.37 149.14-17.29Q148.35-18.21 146.65-18.21L146.65-18.21Q145.15-18.21 144.30-17.49Q143.45-16.78 143.45-15.52L143.45-15.52L137.53-15.52Q137.53-17.45 138.71-19.09Q139.90-20.73 142.08-21.67Q144.25-22.60 146.96-22.60L146.96-22.60Q151.06-22.60 153.47-20.54Q155.88-18.48 155.88-14.75L155.88-14.75L155.88-5.13Q155.90-1.97 156.76-0.35L156.76-0.35L156.76 0ZM145.87-4.12L145.87-4.12Q147.18-4.12 148.29-4.71Q149.40-5.29 149.93-6.28L149.93-6.28L149.93-10.09L147.72-10.09Q143.27-10.09 142.98-7.01L142.98-7.01L142.96-6.67Q142.96-5.56 143.74-4.84Q144.52-4.12 145.87-4.12ZM175.69-22.19L179.73-8.06L182.64-22.19L188.36-22.19L182.70 0L177.74 0L173.54-13.97L169.33 0L164.39 0L158.73-22.19L164.45-22.19L167.34-8.08L171.40-22.19L175.69-22.19Z" transform="translate(50, 70)" fill="#e94560" />
  <text x="1870" y="70" font-family="Arial, sans-serif" font-size="24" fill="#888" text-anchor="end">9 / 10</text>
  <path d="M31.11-13.43L31.11-13.43Q31.11-16.42 29.00-18.02Q26.89-19.62 21.41-21.39Q15.93-23.17 12.73-24.89L12.73-24.89Q4.01-29.60 4.01-37.58L4.01-37.58Q4.01-41.73 6.35-44.98Q8.68-48.23 13.06-50.06Q17.44-51.89 22.89-51.89L22.89-51.89Q28.37-51.89 32.66-49.90Q36.95-47.92 39.32-44.30Q41.70-40.68 41.70-36.07L41.70-36.07L31.15-36.07Q31.15-39.59 28.93-41.54Q26.72-43.49 22.71-43.49L22.71-43.49Q18.84-43.49 16.70-41.85Q14.55-40.22 14.55-37.55L14.55-37.55Q14.55-35.05 17.07-33.36Q19.58-31.68 24.47-30.20L24.47-30.20Q33.47-27.49 37.58-23.48Q41.70-19.48 41.70-13.50L41.70-13.50Q41.70-6.86 36.67-3.08Q31.64 0.70 23.13 0.70L23.13 0.70Q17.23 0.70 12.38-1.46Q7.52-3.62 4.97-7.38Q2.43-11.14 2.43-16.10L2.43-16.10L13.01-16.10Q13.01-7.63 23.13-7.63L23.13-7.63Q26.89-7.63 29.00-9.16Q31.11-10.69 31.11-13.43ZM71.23 0L70.95-3.87Q67.18 0.70 60.54 0.70L60.54 0.70Q54.42 0.70 51.21-2.81Q47.99-6.33 47.92-13.11L47.92-13.11L47.92-38.04L58.08-38.04L58.08-13.46Q58.08-7.52 63.49-7.52L63.49-7.52Q68.66-7.52 70.59-11.11L70.59-11.11L70.59-38.04L80.79-38.04L80.79 0L71.23 0ZM88.45-38.04L97.98-38.04L98.30-33.79Q102.34-38.74 109.23-38.74L109.23-38.74Q116.58-38.74 119.32-32.94L119.32-32.94Q123.33-38.74 130.75-38.74L130.75-38.74Q136.93-38.74 139.96-35.14Q142.98-31.54 142.98-24.29L142.98-24.29L142.98 0L132.79 0L132.79-24.26Q132.79-27.49 131.52-28.99Q130.25-30.48 127.05-30.48L127.05-30.48Q122.48-30.48 120.73-26.12L120.73-26.12L120.76 0L110.60 0L110.60-24.22Q110.60-27.53 109.30-29.00Q108-30.48 104.87-30.48L104.87-30.48Q100.55-30.48 98.61-26.89L98.61-26.89L98.61 0L88.45 0L88.45-38.04ZM150.79-38.04L160.31-38.04L160.63-33.79Q164.67-38.74 171.56-38.74L171.56-38.74Q178.91-38.74 181.65-32.94L181.65-32.94Q185.66-38.74 193.08-38.74L193.08-38.74Q199.27-38.74 202.29-35.14Q205.31-31.54 205.31-24.29L205.31-24.29L205.31 0L195.12 0L195.12-24.26Q195.12-27.49 193.85-28.99Q192.59-30.48 189.39-30.48L189.39-30.48Q184.82-30.48 183.06-26.12L183.06-26.12L183.09 0L172.93 0L172.93-24.22Q172.93-27.53 171.63-29.00Q170.33-30.48 167.20-30.48L167.20-30.48Q162.88-30.48 160.95-26.89L160.95-26.89L160.95 0L150.79 0L150.79-38.04ZM245.43 0L235.16 0Q234.46-1.37 234.14-3.41L234.14-3.41Q230.45 0.70 224.54 0.70L224.54 0.70Q218.95 0.70 215.28-2.53Q211.61-5.77 211.61-10.69L211.61-10.69Q211.61-16.73 216.09-19.97Q220.57-23.20 229.04-23.24L229.04-23.24L233.72-23.24L233.72-25.42Q233.72-28.05 232.37-29.64Q231.01-31.22 228.09-31.22L228.09-31.22Q225.53-31.22 224.07-29.99Q222.61-28.76 222.61-26.61L222.61-26.61L212.45-26.61Q212.45-29.92 214.49-32.73Q216.53-35.54 220.25-37.14Q223.98-38.74 228.62-38.74L228.62-38.74Q235.65-38.74 239.78-35.21Q243.91-31.68 243.91-25.28L243.91-25.28L243.91-8.79Q243.95-3.38 245.43-0.60L245.43-0.60L245.43 0ZM226.76-7.07L226.76-7.07Q229.01-7.07 230.91-8.07Q232.80-9.07 233.72-10.76L233.72-10.76L233.72-17.30L229.92-17.30Q222.29-17.30 221.80-12.02L221.80-12.02L221.77-11.43Q221.77-9.53 223.10-8.30Q224.44-7.07 226.76-7.07ZM273.23-38.29L273.09-28.51Q271.02-28.79 269.44-28.79L269.44-28.79Q263.67-28.79 261.88-24.89L261.88-24.89L261.88 0L251.72 0L251.72-38.04L261.32-38.04L261.60-33.50Q264.66-38.74 270.07-38.74L270.07-38.74Q271.76-38.74 273.23-38.29L273.23-38.29ZM285.12-38.04L292.18-14.38L299.21-38.04L310.11-38.04L294.82 5.91L293.98 7.91Q290.57 15.36 282.73 15.36L282.73 15.36Q280.51 15.36 278.23 14.70L278.23 14.70L278.23 7.00L279.77 7.03Q282.66 7.03 284.08 6.15Q285.50 5.27 286.31 3.23L286.31 3.23L287.51 0.11L274.18-38.04L285.12-38.04Z" transform="translate(804.890625, 380)" fill="#ffffff" />
  <line x1="760" y1="430" x2="1160" y2="430" stroke="#e94560" stroke-width="4"/>
  <circle cx="580" cy="500" r="6" fill="#e94560" /><path d="M5.82-25.59L11.11-14.06L16.44-25.59L22.20-25.59L13.80-9.28L13.80 0L8.44 0L8.44-9.28L0.04-25.59L5.82-25.59ZM23.41-9.46L23.41-9.69Q23.41-12.52 24.50-14.73Q25.59-16.95 27.64-18.16Q29.69-19.37 32.40-19.37L32.40-19.37Q36.25-19.37 38.68-17.02Q41.12-14.66 41.40-10.62L41.40-10.62L41.43-9.32Q41.43-4.94 38.99-2.29Q36.54 0.35 32.43 0.35Q28.32 0.35 25.87-2.29Q23.41-4.92 23.41-9.46L23.41-9.46ZM28.49-9.32L28.49-9.32Q28.49-6.61 29.51-5.18Q30.53-3.74 32.43-3.74L32.43-3.74Q34.28-3.74 35.31-5.16Q36.35-6.57 36.35-9.69L36.35-9.69Q36.35-12.34 35.31-13.80Q34.28-15.26 32.40-15.26L32.40-15.26Q30.53-15.26 29.51-13.81Q28.49-12.36 28.49-9.32ZM56.09 0L55.95-1.93Q54.07 0.35 50.75 0.35L50.75 0.35Q47.69 0.35 46.08-1.41Q44.47-3.16 44.44-6.56L44.44-6.56L44.44-19.02L49.52-19.02L49.52-6.73Q49.52-3.76 52.22-3.76L52.22-3.76Q54.81-3.76 55.78-5.55L55.78-5.55L55.78-19.02L60.87-19.02L60.87 0L56.09 0ZM75.46-19.14L75.39-14.26Q74.36-14.40 73.56-14.40L73.56-14.40Q70.68-14.40 69.79-12.45L69.79-12.45L69.79 0L64.71 0L64.71-19.02L69.50-19.02L69.64-16.75Q71.17-19.37 73.88-19.37L73.88-19.37Q74.72-19.37 75.46-19.14L75.46-19.14ZM103.36 0L101.58-5.27L92.34-5.27L90.58 0L84.97 0L94.50-25.59L99.39-25.59L108.97 0L103.36 0ZM96.94-19.13L93.76-9.54L100.16-9.54L96.94-19.13ZM116.96-25.59L116.96 0L111.69 0L111.69-25.59L116.96-25.59ZM122.84 6.42L122.84 6.42L120.18 5.03L120.81 3.88Q121.99 1.74 122.03-0.39L122.03-0.39L122.03-4.32L126.32-4.32L126.30-0.81Q126.28 1.14 125.31 3.13Q124.35 5.12 122.84 6.42ZM138.48-9.46L138.48-9.69Q138.48-12.52 139.57-14.73Q140.66-16.95 142.71-18.16Q144.76-19.37 147.46-19.37L147.46-19.37Q151.31-19.37 153.75-17.02Q156.18-14.66 156.46-10.62L156.46-10.62L156.50-9.32Q156.50-4.94 154.05-2.29Q151.61 0.35 147.50 0.35Q143.38 0.35 140.93-2.29Q138.48-4.92 138.48-9.46L138.48-9.46ZM143.56-9.32L143.56-9.32Q143.56-6.61 144.58-5.18Q145.60-3.74 147.50-3.74L147.50-3.74Q149.34-3.74 150.38-5.16Q151.42-6.57 151.42-9.69L151.42-9.69Q151.42-12.34 150.38-13.80Q149.34-15.26 147.46-15.26L147.46-15.26Q145.60-15.26 144.58-13.81Q143.56-12.36 143.56-9.32ZM159.52-19.02L164.30-19.02L164.46-16.82Q166.50-19.37 169.93-19.37L169.93-19.37Q172.95-19.37 174.43-17.60Q175.90-15.82 175.94-12.29L175.94-12.29L175.94 0L170.86 0L170.86-12.16Q170.86-13.78 170.16-14.51Q169.45-15.24 167.82-15.24L167.82-15.24Q165.67-15.24 164.60-13.41L164.60-13.41L164.60 0L159.52 0L159.52-19.02ZM192.32-19.02L195.86-7.19L199.37-19.02L204.82-19.02L197.17 2.95L196.75 3.96Q195.05 7.68 191.13 7.68L191.13 7.68Q190.02 7.68 188.88 7.35L188.88 7.35L188.88 3.50L189.65 3.52Q191.09 3.52 191.80 3.08Q192.52 2.64 192.92 1.62L192.92 1.62L193.52 0.05L186.86-19.02L192.32-19.02ZM206.03-9.46L206.03-9.69Q206.03-12.52 207.12-14.73Q208.21-16.95 210.26-18.16Q212.31-19.37 215.02-19.37L215.02-19.37Q218.87-19.37 221.30-17.02Q223.73-14.66 224.02-10.62L224.02-10.62L224.05-9.32Q224.05-4.94 221.61-2.29Q219.16 0.35 215.05 0.35Q210.94 0.35 208.49-2.29Q206.03-4.92 206.03-9.46L206.03-9.46ZM211.11-9.32L211.11-9.32Q211.11-6.61 212.13-5.18Q213.15-3.74 215.05-3.74L215.05-3.74Q216.90-3.74 217.93-5.16Q218.97-6.57 218.97-9.69L218.97-9.69Q218.97-12.34 217.93-13.80Q216.90-15.26 215.02-15.26L215.02-15.26Q213.15-15.26 212.13-13.81Q211.11-12.36 211.11-9.32ZM238.71 0L238.57-1.93Q236.69 0.35 233.37 0.35L233.37 0.35Q230.31 0.35 228.70-1.41Q227.09-3.16 227.06-6.56L227.06-6.56L227.06-19.02L232.14-19.02L232.14-6.73Q232.14-3.76 234.84-3.76L234.84-3.76Q237.43-3.76 238.39-5.55L238.39-5.55L238.39-19.02L243.49-19.02L243.49 0L238.71 0ZM258.08-19.14L258.01-14.26Q256.97-14.40 256.18-14.40L256.18-14.40Q253.30-14.40 252.40-12.45L252.40-12.45L252.40 0L247.32 0L247.32-19.02L252.12-19.02L252.26-16.75Q253.79-19.37 256.50-19.37L256.50-19.37Q257.34-19.37 258.08-19.14L258.08-19.14ZM270.42-23.70L275.50-23.70L275.50-19.02L278.75-19.02L278.75-15.29L275.50-15.29L275.50-5.80Q275.50-4.75 275.91-4.29Q276.31-3.83 277.45-3.83L277.45-3.83Q278.30-3.83 278.95-3.96L278.95-3.96L278.95-0.11Q277.45 0.35 275.87 0.35L275.87 0.35Q270.53 0.35 270.42-5.04L270.42-5.04L270.42-15.29L267.64-15.29L267.64-19.02L270.42-19.02L270.42-23.70ZM290.34 0.35L290.34 0.35Q286.15 0.35 283.53-2.21Q280.90-4.78 280.90-9.05L280.90-9.05L280.90-9.54Q280.90-12.41 282.01-14.67Q283.11-16.93 285.14-18.15Q287.17-19.37 289.78-19.37L289.78-19.37Q293.68-19.37 295.92-16.91Q298.16-14.45 298.16-9.93L298.16-9.93L298.16-7.86L286.05-7.86Q286.29-5.99 287.53-4.87Q288.77-3.74 290.67-3.74L290.67-3.74Q293.61-3.74 295.26-5.87L295.26-5.87L297.76-3.08Q296.61-1.46 294.66-0.55Q292.71 0.35 290.34 0.35ZM289.76-15.26L289.76-15.26Q288.25-15.26 287.31-14.24Q286.37-13.22 286.10-11.32L286.10-11.32L293.17-11.32L293.17-11.72Q293.13-13.41 292.25-14.33Q291.38-15.26 289.76-15.26ZM311.80-19.14L311.73-14.26Q310.69-14.40 309.90-14.40L309.90-14.40Q307.02-14.40 306.12-12.45L306.12-12.45L306.12 0L301.04 0L301.04-19.02L305.84-19.02L305.98-16.75Q307.51-19.37 310.22-19.37L310.22-19.37Q311.06-19.37 311.80-19.14L311.80-19.14ZM314.17-19.02L318.94-19.02L319.10-16.89Q321.12-19.37 324.56-19.37L324.56-19.37Q328.24-19.37 329.61-16.47L329.61-16.47Q331.61-19.37 335.32-19.37L335.32-19.37Q338.41-19.37 339.93-17.57Q341.44-15.77 341.44-12.15L341.44-12.15L341.44 0L336.34 0L336.34-12.13Q336.34-13.75 335.71-14.49Q335.07-15.24 333.47-15.24L333.47-15.24Q331.19-15.24 330.31-13.06L330.31-13.06L330.33 0L325.25 0L325.25-12.11Q325.25-13.76 324.60-14.50Q323.95-15.24 322.38-15.24L322.38-15.24Q320.22-15.24 319.25-13.45L319.25-13.45L319.25 0L314.17 0L314.17-19.02ZM355.64-5.26L355.64-5.26Q355.64-6.19 354.72-6.72Q353.79-7.26 351.76-7.68L351.76-7.68Q344.97-9.11 344.97-13.45L344.97-13.45Q344.97-15.98 347.07-17.67Q349.17-19.37 352.56-19.37L352.56-19.37Q356.19-19.37 358.36-17.67Q360.53-15.96 360.53-13.24L360.53-13.24L355.45-13.24Q355.45-14.33 354.74-15.04Q354.04-15.75 352.55-15.75L352.55-15.75Q351.26-15.75 350.56-15.17Q349.86-14.59 349.86-13.69L349.86-13.69Q349.86-12.85 350.66-12.33Q351.46-11.81 353.36-11.43Q355.25-11.06 356.55-10.58L356.55-10.58Q360.58-9.11 360.58-5.47L360.58-5.47Q360.58-2.87 358.35-1.26Q356.12 0.35 352.58 0.35L352.58 0.35Q350.19 0.35 348.34-0.50Q346.48-1.35 345.43-2.84Q344.37-4.32 344.37-6.05L344.37-6.05L349.19-6.05Q349.26-4.69 350.19-3.97Q351.12-3.25 352.69-3.25L352.69-3.25Q354.15-3.25 354.89-3.81Q355.64-4.36 355.64-5.26Z" transform="translate(620, 500)" fill="#ffffff" /><circle cx="580" cy="565" r="6" fill="#e94560" /><path d="M12.18-9.02L7.56-9.02L7.56 0L2.29 0L2.29-25.59L12.27-25.59Q15.15-25.59 17.34-24.54Q19.53-23.48 20.71-21.54Q21.88-19.60 21.88-17.12L21.88-17.12Q21.88-13.36 19.31-11.19Q16.73-9.02 12.18-9.02L12.18-9.02ZM7.56-21.32L7.56-13.29L12.27-13.29Q14.36-13.29 15.46-14.27Q16.56-15.26 16.56-17.09L16.56-17.09Q16.56-18.97 15.45-20.13Q14.34-21.29 12.39-21.32L12.39-21.32L7.56-21.32ZM35.93-19.14L35.86-14.26Q34.82-14.40 34.03-14.40L34.03-14.40Q31.15-14.40 30.25-12.45L30.25-12.45L30.25 0L25.17 0L25.17-19.02L29.97-19.02L30.11-16.75Q31.64-19.37 34.35-19.37L34.35-19.37Q35.19-19.37 35.93-19.14L35.93-19.14ZM43.66-19.02L43.66 0L38.57 0L38.57-19.02L43.66-19.02ZM38.27-23.94L38.27-23.94Q38.27-25.08 39.03-25.82Q39.80-26.56 41.12-26.56L41.12-26.56Q42.42-26.56 43.19-25.82Q43.96-25.08 43.96-23.94L43.96-23.94Q43.96-22.78 43.18-22.04Q42.40-21.30 41.12-21.30Q39.83-21.30 39.05-22.04Q38.27-22.78 38.27-23.94ZM51.43-19.02L54.97-6.21L58.50-19.02L63.81-19.02L57.39 0L52.54 0L46.13-19.02L51.43-19.02ZM82.20 0L77.06 0Q76.71-0.69 76.55-1.71L76.55-1.71Q74.71 0.35 71.75 0.35L71.75 0.35Q68.96 0.35 67.12-1.27Q65.29-2.88 65.29-5.34L65.29-5.34Q65.29-8.37 67.53-9.98Q69.77-11.60 74.00-11.62L74.00-11.62L76.34-11.62L76.34-12.71Q76.34-14.03 75.67-14.82Q74.99-15.61 73.53-15.61L73.53-15.61Q72.25-15.61 71.52-14.99Q70.79-14.38 70.79-13.31L70.79-13.31L65.71-13.31Q65.71-14.96 66.73-16.37Q67.75-17.77 69.61-18.57Q71.47-19.37 73.79-19.37L73.79-19.37Q77.31-19.37 79.37-17.60Q81.44-15.84 81.44-12.64L81.44-12.64L81.44-4.39Q81.46-1.69 82.20-0.30L82.20-0.30L82.20 0ZM72.86-3.53L72.86-3.53Q73.99-3.53 74.94-4.03Q75.88-4.54 76.34-5.38L76.34-5.38L76.34-8.65L74.44-8.65Q70.63-8.65 70.38-6.01L70.38-6.01L70.37-5.71Q70.37-4.76 71.03-4.15Q71.70-3.53 72.86-3.53ZM93.25-3.74L93.25-3.74Q94.66-3.74 95.54-4.52Q96.42-5.29 96.45-6.57L96.45-6.57L101.21-6.57Q101.20-4.64 100.16-3.03Q99.12-1.42 97.32-0.54Q95.52 0.35 93.34 0.35L93.34 0.35Q89.26 0.35 86.91-2.24Q84.55-4.83 84.55-9.40L84.55-9.40L84.55-9.74Q84.55-14.13 86.89-16.75Q89.23-19.37 93.30-19.37L93.30-19.37Q96.87-19.37 99.03-17.34Q101.18-15.31 101.21-11.94L101.21-11.94L96.45-11.94Q96.42-13.41 95.54-14.33Q94.66-15.26 93.22-15.26L93.22-15.26Q91.44-15.26 90.54-13.97Q89.63-12.67 89.63-9.77L89.63-9.77L89.63-9.25Q89.63-6.31 90.53-5.03Q91.42-3.74 93.25-3.74ZM107.68-19.02L111.22-7.19L114.73-19.02L120.18-19.02L112.54 2.95L112.11 3.96Q110.41 7.68 106.49 7.68L106.49 7.68Q105.38 7.68 104.24 7.35L104.24 7.35L104.24 3.50L105.01 3.52Q106.45 3.52 107.17 3.08Q107.88 2.64 108.28 1.62L108.28 1.62L108.88 0.05L102.22-19.02L107.68-19.02ZM132.06-13.01L132.06-8.91L122.17-8.91L122.17-13.01L132.06-13.01ZM142.47 0L137.37 0L137.37-15.29L134.54-15.29L134.54-19.02L137.37-19.02L137.37-19.90Q137.41-23.48 139.58-25.43Q141.75-27.37 145.71-27.37L145.71-27.37Q148.08-27.37 151.47-26.33L151.47-26.33L150.73-22.13Q149.01-22.64 148.06-22.79Q147.11-22.94 146.02-22.94L146.02-22.94Q142.47-22.94 142.47-19.79L142.47-19.79L142.47-19.02L146.21-19.02L146.21-15.29L142.47-15.29L142.47 0ZM153.84-19.02L153.84 0L148.75 0L148.75-19.02L153.84-19.02ZM168.80-19.14L168.73-14.26Q167.70-14.40 166.90-14.40L166.90-14.40Q164.02-14.40 163.13-12.45L163.13-12.45L163.13 0L158.04 0L158.04-19.02L162.84-19.02L162.98-16.75Q164.51-19.37 167.22-19.37L167.22-19.37Q168.06-19.37 168.80-19.14L168.80-19.14ZM181.48-5.26L181.48-5.26Q181.48-6.19 180.55-6.72Q179.63-7.26 177.59-7.68L177.59-7.68Q170.81-9.11 170.81-13.45L170.81-13.45Q170.81-15.98 172.91-17.67Q175.01-19.37 178.40-19.37L178.40-19.37Q182.02-19.37 184.19-17.67Q186.36-15.96 186.36-13.24L186.36-13.24L181.28-13.24Q181.28-14.33 180.58-15.04Q179.88-15.75 178.38-15.75L178.38-15.75Q177.10-15.75 176.40-15.17Q175.69-14.59 175.69-13.69L175.69-13.69Q175.69-12.85 176.49-12.33Q177.29-11.81 179.19-11.43Q181.09-11.06 182.39-10.58L182.39-10.58Q186.42-9.11 186.42-5.47L186.42-5.47Q186.42-2.87 184.18-1.26Q181.95 0.35 178.42 0.35L178.42 0.35Q176.03 0.35 174.17-0.50Q172.32-1.35 171.26-2.84Q170.21-4.32 170.21-6.05L170.21-6.05L175.03-6.05Q175.10-4.69 176.03-3.97Q176.96-3.25 178.52-3.25L178.52-3.25Q179.98-3.25 180.73-3.81Q181.48-4.36 181.48-5.26ZM190.69-23.70L195.77-23.70L195.77-19.02L199.02-19.02L199.02-15.29L195.77-15.29L195.77-5.80Q195.77-4.75 196.17-4.29Q196.58-3.83 197.72-3.83L197.72-3.83Q198.56-3.83 199.21-3.96L199.21-3.96L199.21-0.11Q197.72 0.35 196.14 0.35L196.14 0.35Q190.79 0.35 190.69-5.04L190.69-5.04L190.69-15.29L187.91-15.29L187.91-19.02L190.69-19.02L190.69-23.70ZM210.02-9.65L210.02-9.65Q210.02-14.10 212.02-16.73Q214.01-19.37 217.48-19.37L217.48-19.37Q220.25-19.37 222.06-17.30L222.06-17.30L222.06-27L227.16-27L227.16 0L222.57 0L222.33-2.02Q220.43 0.35 217.44 0.35L217.44 0.35Q214.08 0.35 212.05-2.29Q210.02-4.94 210.02-9.65ZM215.10-9.28L215.10-9.28Q215.10-6.61 216.04-5.19Q216.97-3.76 218.74-3.76L218.74-3.76Q221.10-3.76 222.06-5.75L222.06-5.75L222.06-13.25Q221.12-15.24 218.78-15.24L218.78-15.24Q215.10-15.24 215.10-9.28ZM239.85 0.35L239.85 0.35Q235.67 0.35 233.04-2.21Q230.41-4.78 230.41-9.05L230.41-9.05L230.41-9.54Q230.41-12.41 231.52-14.67Q232.63-16.93 234.66-18.15Q236.69-19.37 239.29-19.37L239.29-19.37Q243.19-19.37 245.43-16.91Q247.68-14.45 247.68-9.93L247.68-9.93L247.68-7.86L235.56-7.86Q235.81-5.99 237.05-4.87Q238.29-3.74 240.19-3.74L240.19-3.74Q243.12-3.74 244.78-5.87L244.78-5.87L247.27-3.08Q246.13-1.46 244.18-0.55Q242.23 0.35 239.85 0.35ZM239.27-15.26L239.27-15.26Q237.76-15.26 236.82-14.24Q235.88-13.22 235.62-11.32L235.62-11.32L242.68-11.32L242.68-11.72Q242.65-13.41 241.77-14.33Q240.89-15.26 239.27-15.26ZM260.86-5.26L260.86-5.26Q260.86-6.19 259.94-6.72Q259.01-7.26 256.97-7.68L256.97-7.68Q250.19-9.11 250.19-13.45L250.19-13.45Q250.19-15.98 252.29-17.67Q254.39-19.37 257.78-19.37L257.78-19.37Q261.40-19.37 263.58-17.67Q265.75-15.96 265.75-13.24L265.75-13.24L260.67-13.24Q260.67-14.33 259.96-15.04Q259.26-15.75 257.77-15.75L257.77-15.75Q256.48-15.75 255.78-15.17Q255.08-14.59 255.08-13.69L255.08-13.69Q255.08-12.85 255.88-12.33Q256.68-11.81 258.57-11.43Q260.47-11.06 261.77-10.58L261.77-10.58Q265.80-9.11 265.80-5.47L265.80-5.47Q265.80-2.87 263.57-1.26Q261.33 0.35 257.80 0.35L257.80 0.35Q255.41 0.35 253.56-0.50Q251.70-1.35 250.65-2.84Q249.59-4.32 249.59-6.05L249.59-6.05L254.41-6.05Q254.48-4.69 255.41-3.97Q256.34-3.25 257.91-3.25L257.91-3.25Q259.37-3.25 260.11-3.81Q260.86-4.36 260.86-5.26ZM274.43-19.02L274.43 0L269.33 0L269.33-19.02L274.43-19.02ZM269.03-23.94L269.03-23.94Q269.03-25.08 269.80-25.82Q270.56-26.56 271.88-26.56L271.88-26.56Q273.18-26.56 273.96-25.82Q274.73-25.08 274.73-23.94L274.73-23.94Q274.73-22.78 273.95-22.04Q273.16-21.30 271.88-21.30Q270.60-21.30 269.82-22.04Q269.03-22.78 269.03-23.94ZM277.88-9.44L277.88-9.65Q277.88-14.03 279.96-16.70Q282.04-19.37 285.57-19.37L285.57-19.37Q288.70-19.37 290.44-17.23L290.44-17.23L290.65-19.02L295.26-19.02L295.26-0.63Q295.26 1.86 294.13 3.71Q292.99 5.55 290.94 6.52Q288.88 7.49 286.12 7.49L286.12 7.49Q284.03 7.49 282.04 6.65Q280.05 5.82 279.04 4.50L279.04 4.50L281.29 1.41Q283.18 3.53 285.89 3.53L285.89 3.53Q287.91 3.53 289.04 2.45Q290.16 1.37 290.16-0.62L290.16-0.62L290.16-1.63Q288.40 0.35 285.54 0.35L285.54 0.35Q282.11 0.35 279.99-2.33Q277.88-5.01 277.88-9.44L277.88-9.44ZM282.96-9.28L282.96-9.28Q282.96-6.70 283.99-5.23Q285.03-3.76 286.84-3.76L286.84-3.76Q289.16-3.76 290.16-5.50L290.16-5.50L290.16-13.50Q289.14-15.24 286.88-15.24L286.88-15.24Q285.05-15.24 284.00-13.75Q282.96-12.25 282.96-9.28ZM299.06-19.02L303.84-19.02L304.00-16.82Q306.04-19.37 309.46-19.37L309.46-19.37Q312.49-19.37 313.96-17.60Q315.44-15.82 315.47-12.29L315.47-12.29L315.47 0L310.39 0L310.39-12.16Q310.39-13.78 309.69-14.51Q308.99-15.24 307.35-15.24L307.35-15.24Q305.21-15.24 304.14-13.41L304.14-13.41L304.14 0L299.06 0L299.06-19.02Z" transform="translate(620, 565)" fill="#ffffff" /><circle cx="580" cy="630" r="6" fill="#e94560" /><path d="M17.68-15.22L17.68-11.09L7.56-11.09L7.56-4.24L19.44-4.24L19.44 0L2.29 0L2.29-25.59L19.41-25.59L19.41-21.32L7.56-21.32L7.56-15.22L17.68-15.22ZM26.31-19.02L29.44-13.34L32.64-19.02L38.07-19.02L32.66-9.70L38.30 0L32.85 0L29.46-5.98L26.09 0L20.62 0L26.26-9.70L20.87-19.02L26.31-19.02ZM41.52-23.70L46.60-23.70L46.60-19.02L49.85-19.02L49.85-15.29L46.60-15.29L46.60-5.80Q46.60-4.75 47.00-4.29Q47.41-3.83 48.55-3.83L48.55-3.83Q49.39-3.83 50.04-3.96L50.04-3.96L50.04-0.11Q48.55 0.35 46.97 0.35L46.97 0.35Q41.63 0.35 41.52-5.04L41.52-5.04L41.52-15.29L38.74-15.29L38.74-19.02L41.52-19.02L41.52-23.70ZM61.44 0.35L61.44 0.35Q57.25 0.35 54.62-2.21Q52.00-4.78 52.00-9.05L52.00-9.05L52.00-9.54Q52.00-12.41 53.10-14.67Q54.21-16.93 56.24-18.15Q58.27-19.37 60.87-19.37L60.87-19.37Q64.78-19.37 67.02-16.91Q69.26-14.45 69.26-9.93L69.26-9.93L69.26-7.86L57.15-7.86Q57.39-5.99 58.63-4.87Q59.87-3.74 61.77-3.74L61.77-3.74Q64.71-3.74 66.36-5.87L66.36-5.87L68.85-3.08Q67.71-1.46 65.76-0.55Q63.81 0.35 61.44 0.35ZM60.86-15.26L60.86-15.26Q59.34-15.26 58.40-14.24Q57.46-13.22 57.20-11.32L57.20-11.32L64.27-11.32L64.27-11.72Q64.23-13.41 63.35-14.33Q62.47-15.26 60.86-15.26ZM72.04-19.02L76.82-19.02L76.97-16.82Q79.01-19.37 82.44-19.37L82.44-19.37Q85.46-19.37 86.94-17.60Q88.42-15.82 88.45-12.29L88.45-12.29L88.45 0L83.37 0L83.37-12.16Q83.37-13.78 82.67-14.51Q81.97-15.24 80.33-15.24L80.33-15.24Q78.19-15.24 77.12-13.41L77.12-13.41L77.12 0L72.04 0L72.04-19.02ZM102.60-5.26L102.60-5.26Q102.60-6.19 101.68-6.72Q100.76-7.26 98.72-7.68L98.72-7.68Q91.93-9.11 91.93-13.45L91.93-13.45Q91.93-15.98 94.03-17.67Q96.13-19.37 99.53-19.37L99.53-19.37Q103.15-19.37 105.32-17.67Q107.49-15.96 107.49-13.24L107.49-13.24L102.41-13.24Q102.41-14.33 101.71-15.04Q101.00-15.75 99.51-15.75L99.51-15.75Q98.23-15.75 97.52-15.17Q96.82-14.59 96.82-13.69L96.82-13.69Q96.82-12.85 97.62-12.33Q98.42-11.81 100.32-11.43Q102.22-11.06 103.52-10.58L103.52-10.58Q107.54-9.11 107.54-5.47L107.54-5.47Q107.54-2.87 105.31-1.26Q103.08 0.35 99.54 0.35L99.54 0.35Q97.15 0.35 95.30-0.50Q93.45-1.35 92.39-2.84Q91.34-4.32 91.34-6.05L91.34-6.05L96.15-6.05Q96.22-4.69 97.15-3.97Q98.09-3.25 99.65-3.25L99.65-3.25Q101.11-3.25 101.86-3.81Q102.60-4.36 102.60-5.26ZM116.17-19.02L116.17 0L111.08 0L111.08-19.02L116.17-19.02ZM110.78-23.94L110.78-23.94Q110.78-25.08 111.54-25.82Q112.31-26.56 113.63-26.56L113.63-26.56Q114.93-26.56 115.70-25.82Q116.47-25.08 116.47-23.94L116.47-23.94Q116.47-22.78 115.69-22.04Q114.91-21.30 113.63-21.30Q112.34-21.30 111.56-22.04Q110.78-22.78 110.78-23.94ZM137.50-9.62L137.50-9.33Q137.50-4.76 135.54-2.21Q133.59 0.35 130.10 0.35L130.10 0.35Q127.00 0.35 125.16-2.02L125.16-2.02L124.93 0L120.36 0L120.36-27L125.44-27L125.44-17.31Q127.20-19.37 130.06-19.37L130.06-19.37Q133.54-19.37 135.52-16.81Q137.50-14.26 137.50-9.62L137.50-9.62ZM132.42-9.70L132.42-9.70Q132.42-12.59 131.50-13.91Q130.59-15.24 128.78-15.24L128.78-15.24Q126.35-15.24 125.44-13.25L125.44-13.25L125.44-5.75Q126.37-3.74 128.81-3.74L128.81-3.74Q131.27-3.74 132.05-6.17L132.05-6.17Q132.42-7.33 132.42-9.70ZM145.99-27L145.99 0L140.89 0L140.89-27L145.99-27ZM158.92 0.35L158.92 0.35Q154.74 0.35 152.11-2.21Q149.48-4.78 149.48-9.05L149.48-9.05L149.48-9.54Q149.48-12.41 150.59-14.67Q151.70-16.93 153.73-18.15Q155.76-19.37 158.36-19.37L158.36-19.37Q162.26-19.37 164.50-16.91Q166.75-14.45 166.75-9.93L166.75-9.93L166.75-7.86L154.63-7.86Q154.88-5.99 156.12-4.87Q157.36-3.74 159.26-3.74L159.26-3.74Q162.19-3.74 163.85-5.87L163.85-5.87L166.34-3.08Q165.20-1.46 163.25-0.55Q161.30 0.35 158.92 0.35ZM158.34-15.26L158.34-15.26Q156.83-15.26 155.89-14.24Q154.95-13.22 154.69-11.32L154.69-11.32L161.75-11.32L161.75-11.72Q161.72-13.41 160.84-14.33Q159.96-15.26 158.34-15.26ZM182.18-19.02L185.71-6.21L189.25-19.02L194.55-19.02L188.14 0L183.29 0L176.87-19.02L182.18-19.02ZM202.15-19.02L202.15 0L197.05 0L197.05-19.02L202.15-19.02ZM196.75-23.94L196.75-23.94Q196.75-25.08 197.52-25.82Q198.28-26.56 199.60-26.56L199.60-26.56Q200.90-26.56 201.67-25.82Q202.45-25.08 202.45-23.94L202.45-23.94Q202.45-22.78 201.67-22.04Q200.88-21.30 199.60-21.30Q198.32-21.30 197.53-22.04Q196.75-22.78 196.75-23.94ZM222.49 0L217.35 0Q217.00-0.69 216.84-1.71L216.84-1.71Q215.00 0.35 212.04 0.35L212.04 0.35Q209.25 0.35 207.41-1.27Q205.58-2.88 205.58-5.34L205.58-5.34Q205.58-8.37 207.82-9.98Q210.06-11.60 214.29-11.62L214.29-11.62L216.63-11.62L216.63-12.71Q216.63-14.03 215.96-14.82Q215.28-15.61 213.82-15.61L213.82-15.61Q212.54-15.61 211.81-14.99Q211.08-14.38 211.08-13.31L211.08-13.31L206.00-13.31Q206.00-14.96 207.02-16.37Q208.04-17.77 209.90-18.57Q211.76-19.37 214.08-19.37L214.08-19.37Q217.60-19.37 219.67-17.60Q221.73-15.84 221.73-12.64L221.73-12.64L221.73-4.39Q221.75-1.69 222.49-0.30L222.49-0.30L222.49 0ZM213.15-3.53L213.15-3.53Q214.28-3.53 215.23-4.03Q216.18-4.54 216.63-5.38L216.63-5.38L216.63-8.65L214.73-8.65Q210.92-8.65 210.67-6.01L210.67-6.01L210.66-5.71Q210.66-4.76 211.32-4.15Q211.99-3.53 213.15-3.53ZM244.90-5.26L244.90-5.26Q244.90-6.19 243.98-6.72Q243.05-7.26 241.01-7.68L241.01-7.68Q234.23-9.11 234.23-13.45L234.23-13.45Q234.23-15.98 236.33-17.67Q238.43-19.37 241.82-19.37L241.82-19.37Q245.44-19.37 247.61-17.67Q249.79-15.96 249.79-13.24L249.79-13.24L244.71-13.24Q244.71-14.33 244.00-15.04Q243.30-15.75 241.80-15.75L241.80-15.75Q240.52-15.75 239.82-15.17Q239.12-14.59 239.12-13.69L239.12-13.69Q239.12-12.85 239.92-12.33Q240.71-11.81 242.61-11.43Q244.51-11.06 245.81-10.58L245.81-10.58Q249.84-9.11 249.84-5.47L249.84-5.47Q249.84-2.87 247.61-1.26Q245.37 0.35 241.84 0.35L241.84 0.35Q239.45 0.35 237.59-0.50Q235.74-1.35 234.69-2.84Q233.63-4.32 233.63-6.05L233.63-6.05L238.45-6.05Q238.52-4.69 239.45-3.97Q240.38-3.25 241.95-3.25L241.95-3.25Q243.40-3.25 244.15-3.81Q244.90-4.36 244.90-5.26ZM264.90 0L260.02-7.63L258.19-5.80L258.19 0L253.11 0L253.11-27L258.19-27L258.19-12.04L259.17-13.31L264.04-19.02L270.14-19.02L263.27-11.09L270.74 0L264.90 0ZM277.70-19.02L277.70 0L272.60 0L272.60-19.02L277.70-19.02ZM272.30-23.94L272.30-23.94Q272.30-25.08 273.07-25.82Q273.83-26.56 275.15-26.56L275.15-26.56Q276.45-26.56 277.22-25.82Q278.00-25.08 278.00-23.94L278.00-23.94Q278.00-22.78 277.22-22.04Q276.43-21.30 275.15-21.30Q273.87-21.30 273.08-22.04Q272.30-22.78 272.30-23.94ZM287.24-27L287.24 0L282.15 0L282.15-27L287.24-27ZM296.79-27L296.79 0L291.69 0L291.69-27L296.79-27ZM311.27-5.26L311.27-5.26Q311.27-6.19 310.35-6.72Q309.43-7.26 307.39-7.68L307.39-7.68Q300.60-9.11 300.60-13.45L300.60-13.45Q300.60-15.98 302.70-17.67Q304.80-19.37 308.20-19.37L308.20-19.37Q311.82-19.37 313.99-17.67Q316.16-15.96 316.16-13.24L316.16-13.24L311.08-13.24Q311.08-14.33 310.38-15.04Q309.67-15.75 308.18-15.75L308.18-15.75Q306.90-15.75 306.19-15.17Q305.49-14.59 305.49-13.69L305.49-13.69Q305.49-12.85 306.29-12.33Q307.09-11.81 308.99-11.43Q310.89-11.06 312.19-10.58L312.19-10.58Q316.21-9.11 316.21-5.47L316.21-5.47Q316.21-2.87 313.98-1.26Q311.75 0.35 308.21 0.35L308.21 0.35Q305.82 0.35 303.97-0.50Q302.12-1.35 301.06-2.84Q300.01-4.32 300.01-6.05L300.01-6.05L304.82-6.05Q304.89-4.69 305.82-3.97Q306.76-3.25 308.32-3.25L308.32-3.25Q309.78-3.25 310.53-3.81Q311.27-4.36 311.27-5.26Z" transform="translate(620, 630)" fill="#ffffff" /><circle cx="580" cy="695" r="6" fill="#e94560" /><path d="M16.56 0L11.76-9.37L7.56-9.37L7.56 0L2.29 0L2.29-25.59L11.79-25.59Q16.33-25.59 18.79-23.57Q21.25-21.55 21.25-17.86L21.25-17.86Q21.25-15.24 20.12-13.49Q18.98-11.74 16.68-10.71L16.68-10.71L22.22-0.25L22.22 0L16.56 0ZM7.56-21.32L7.56-13.64L11.81-13.64Q13.80-13.64 14.89-14.65Q15.98-15.66 15.98-17.44L15.98-17.44Q15.98-19.25 14.95-20.29Q13.92-21.32 11.79-21.32L11.79-21.32L7.56-21.32ZM36.46 0L36.32-1.93Q34.44 0.35 31.11 0.35L31.11 0.35Q28.05 0.35 26.45-1.41Q24.84-3.16 24.80-6.56L24.80-6.56L24.80-19.02L29.88-19.02L29.88-6.73Q29.88-3.76 32.59-3.76L32.59-3.76Q35.17-3.76 36.14-5.55L36.14-5.55L36.14-19.02L41.24-19.02L41.24 0L36.46 0ZM44.96-19.02L49.75-19.02L49.90-16.82Q51.94-19.37 55.37-19.37L55.37-19.37Q58.39-19.37 59.87-17.60Q61.35-15.82 61.38-12.29L61.38-12.29L61.38 0L56.30 0L56.30-12.16Q56.30-13.78 55.60-14.51Q54.90-15.24 53.26-15.24L53.26-15.24Q51.12-15.24 50.04-13.41L50.04-13.41L50.04 0L44.96 0L44.96-19.02ZM75.53-5.26L75.53-5.26Q75.53-6.19 74.61-6.72Q73.69-7.26 71.65-7.68L71.65-7.68Q64.86-9.11 64.86-13.45L64.86-13.45Q64.86-15.98 66.96-17.67Q69.06-19.37 72.46-19.37L72.46-19.37Q76.08-19.37 78.25-17.67Q80.42-15.96 80.42-13.24L80.42-13.24L75.34-13.24Q75.34-14.33 74.64-15.04Q73.93-15.75 72.44-15.75L72.44-15.75Q71.16-15.75 70.45-15.17Q69.75-14.59 69.75-13.69L69.75-13.69Q69.75-12.85 70.55-12.33Q71.35-11.81 73.25-11.43Q75.15-11.06 76.45-10.58L76.45-10.58Q80.47-9.11 80.47-5.47L80.47-5.47Q80.47-2.87 78.24-1.26Q76.01 0.35 72.47 0.35L72.47 0.35Q70.08 0.35 68.23-0.50Q66.38-1.35 65.32-2.84Q64.27-4.32 64.27-6.05L64.27-6.05L69.08-6.05Q69.15-4.69 70.08-3.97Q71.02-3.25 72.58-3.25L72.58-3.25Q74.04-3.25 74.79-3.81Q75.53-4.36 75.53-5.26ZM108.86 0L103.73 0Q103.38-0.69 103.22-1.71L103.22-1.71Q101.37 0.35 98.42 0.35L98.42 0.35Q95.63 0.35 93.79-1.27Q91.95-2.88 91.95-5.34L91.95-5.34Q91.95-8.37 94.19-9.98Q96.43-11.60 100.67-11.62L100.67-11.62L103.01-11.62L103.01-12.71Q103.01-14.03 102.33-14.82Q101.65-15.61 100.20-15.61L100.20-15.61Q98.91-15.61 98.18-14.99Q97.45-14.38 97.45-13.31L97.45-13.31L92.37-13.31Q92.37-14.96 93.39-16.37Q94.41-17.77 96.28-18.57Q98.14-19.37 100.46-19.37L100.46-19.37Q103.97-19.37 106.04-17.60Q108.11-15.84 108.11-12.64L108.11-12.64L108.11-4.39Q108.12-1.69 108.86-0.30L108.86-0.30L108.86 0ZM99.53-3.53L99.53-3.53Q100.65-3.53 101.60-4.03Q102.55-4.54 103.01-5.38L103.01-5.38L103.01-8.65L101.11-8.65Q97.29-8.65 97.05-6.01L97.05-6.01L97.03-5.71Q97.03-4.76 97.70-4.15Q98.37-3.53 99.53-3.53ZM111.90-19.02L116.68-19.02L116.84-16.82Q118.88-19.37 122.31-19.37L122.31-19.37Q125.33-19.37 126.81-17.60Q128.29-15.82 128.32-12.29L128.32-12.29L128.32 0L123.24 0L123.24-12.16Q123.24-13.78 122.54-14.51Q121.83-15.24 120.20-15.24L120.20-15.24Q118.05-15.24 116.98-13.41L116.98-13.41L116.98 0L111.90 0L111.90-19.02ZM135.74-19.02L139.27-7.19L142.79-19.02L148.24-19.02L140.59 2.95L140.17 3.96Q138.46 7.68 134.54 7.68L134.54 7.68Q133.44 7.68 132.29 7.35L132.29 7.35L132.29 3.50L133.07 3.52Q134.51 3.52 135.22 3.08Q135.93 2.64 136.34 1.62L136.34 1.62L136.93 0.05L130.27-19.02L135.74-19.02ZM163.32-19.02L166.78-6.91L169.28-19.02L174.18-19.02L169.33 0L165.08 0L161.47-11.97L157.87 0L153.63 0L148.78-19.02L153.69-19.02L156.16-6.93L159.64-19.02L163.32-19.02ZM181.65-27L181.65-16.95Q183.67-19.37 186.73-19.37L186.73-19.37Q192.92-19.37 193.01-12.18L193.01-12.18L193.01 0L187.93 0L187.93-12.04Q187.93-13.68 187.22-14.46Q186.52-15.24 184.89-15.24L184.89-15.24Q182.65-15.24 181.65-13.52L181.65-13.52L181.65 0L176.57 0L176.57-27L181.65-27ZM205.59 0.35L205.59 0.35Q201.41 0.35 198.78-2.21Q196.15-4.78 196.15-9.05L196.15-9.05L196.15-9.54Q196.15-12.41 197.26-14.67Q198.37-16.93 200.40-18.15Q202.43-19.37 205.03-19.37L205.03-19.37Q208.93-19.37 211.17-16.91Q213.42-14.45 213.42-9.93L213.42-9.93L213.42-7.86L201.30-7.86Q201.55-5.99 202.79-4.87Q204.03-3.74 205.93-3.74L205.93-3.74Q208.86-3.74 210.52-5.87L210.52-5.87L213.01-3.08Q211.87-1.46 209.92-0.55Q207.97 0.35 205.59 0.35ZM205.01-15.26L205.01-15.26Q203.50-15.26 202.56-14.24Q201.62-13.22 201.36-11.32L201.36-11.32L208.42-11.32L208.42-11.72Q208.39-13.41 207.51-14.33Q206.63-15.26 205.01-15.26ZM227.06-19.14L226.99-14.26Q225.95-14.40 225.16-14.40L225.16-14.40Q222.28-14.40 221.38-12.45L221.38-12.45L221.38 0L216.30 0L216.30-19.02L221.10-19.02L221.24-16.75Q222.77-19.37 225.47-19.37L225.47-19.37Q226.32-19.37 227.06-19.14L227.06-19.14ZM238.18 0.35L238.18 0.35Q234 0.35 231.37-2.21Q228.74-4.78 228.74-9.05L228.74-9.05L228.74-9.54Q228.74-12.41 229.85-14.67Q230.96-16.93 232.99-18.15Q235.02-19.37 237.62-19.37L237.62-19.37Q241.52-19.37 243.76-16.91Q246.01-14.45 246.01-9.93L246.01-9.93L246.01-7.86L233.89-7.86Q234.14-5.99 235.38-4.87Q236.62-3.74 238.52-3.74L238.52-3.74Q241.45-3.74 243.11-5.87L243.11-5.87L245.60-3.08Q244.46-1.46 242.51-0.55Q240.56 0.35 238.18 0.35ZM237.60-15.26L237.60-15.26Q236.09-15.26 235.15-14.24Q234.21-13.22 233.95-11.32L233.95-11.32L241.01-11.32L241.01-11.72Q240.98-13.41 240.10-14.33Q239.22-15.26 237.60-15.26ZM261.42-19.02L264.96-7.19L268.47-19.02L273.92-19.02L266.27 2.95L265.85 3.96Q264.15 7.68 260.23 7.68L260.23 7.68Q259.12 7.68 257.98 7.35L257.98 7.35L257.98 3.50L258.75 3.52Q260.19 3.52 260.90 3.08Q261.62 2.64 262.02 1.62L262.02 1.62L262.62 0.05L255.96-19.02L261.42-19.02ZM275.13-9.46L275.13-9.69Q275.13-12.52 276.22-14.73Q277.31-16.95 279.36-18.16Q281.41-19.37 284.12-19.37L284.12-19.37Q287.96-19.37 290.40-17.02Q292.83-14.66 293.12-10.62L293.12-10.62L293.15-9.32Q293.15-4.94 290.71-2.29Q288.26 0.35 284.15 0.35Q280.04 0.35 277.58-2.29Q275.13-4.92 275.13-9.46L275.13-9.46ZM280.21-9.32L280.21-9.32Q280.21-6.61 281.23-5.18Q282.25-3.74 284.15-3.74L284.15-3.74Q286.00-3.74 287.03-5.16Q288.07-6.57 288.07-9.69L288.07-9.69Q288.07-12.34 287.03-13.80Q286.00-15.26 284.12-15.26L284.12-15.26Q282.25-15.26 281.23-13.81Q280.21-12.36 280.21-9.32ZM307.81 0L307.67-1.93Q305.79 0.35 302.47 0.35L302.47 0.35Q299.41 0.35 297.80-1.41Q296.19-3.16 296.16-6.56L296.16-6.56L296.16-19.02L301.24-19.02L301.24-6.73Q301.24-3.76 303.94-3.76L303.94-3.76Q306.53-3.76 307.49-5.55L307.49-5.55L307.49-19.02L312.59-19.02L312.59 0L307.81 0ZM336.15-19.14L336.08-14.26Q335.04-14.40 334.25-14.40L334.25-14.40Q331.37-14.40 330.47-12.45L330.47-12.45L330.47 0L325.39 0L325.39-19.02L330.19-19.02L330.33-16.75Q331.86-19.37 334.56-19.37L334.56-19.37Q335.41-19.37 336.15-19.14L336.15-19.14ZM350.05 0L349.91-1.93Q348.03 0.35 344.71 0.35L344.71 0.35Q341.65 0.35 340.04-1.41Q338.43-3.16 338.40-6.56L338.40-6.56L338.40-19.02L343.48-19.02L343.48-6.73Q343.48-3.76 346.18-3.76L346.18-3.76Q348.77-3.76 349.73-5.55L349.73-5.55L349.73-19.02L354.83-19.02L354.83 0L350.05 0ZM358.56-19.02L363.34-19.02L363.50-16.82Q365.54-19.37 368.96-19.37L368.96-19.37Q371.99-19.37 373.46-17.60Q374.94-15.82 374.98-12.29L374.98-12.29L374.98 0L369.90 0L369.90-12.16Q369.90-13.78 369.19-14.51Q368.49-15.24 366.86-15.24L366.86-15.24Q364.71-15.24 363.64-13.41L363.64-13.41L363.64 0L358.56 0L358.56-19.02ZM393.40-25.59L393.40-4.24L404.60-4.24L404.60 0L388.13 0L388.13-25.59L393.40-25.59ZM412.65-19.02L412.65 0L407.55 0L407.55-19.02L412.65-19.02ZM407.25-23.94L407.25-23.94Q407.25-25.08 408.01-25.82Q408.78-26.56 410.10-26.56L410.10-26.56Q411.40-26.56 412.17-25.82Q412.95-25.08 412.95-23.94L412.95-23.94Q412.95-22.78 412.16-22.04Q411.38-21.30 410.10-21.30Q408.81-21.30 408.03-22.04Q407.25-22.78 407.25-23.94ZM416.72-19.02L421.51-19.02L421.66-16.82Q423.70-19.37 427.13-19.37L427.13-19.37Q430.15-19.37 431.63-17.60Q433.11-15.82 433.14-12.29L433.14-12.29L433.14 0L428.06 0L428.06-12.16Q428.06-13.78 427.36-14.51Q426.66-15.24 425.02-15.24L425.02-15.24Q422.88-15.24 421.80-13.41L421.80-13.41L421.80 0L416.72 0L416.72-19.02ZM448.52 0L448.38-1.93Q446.50 0.35 443.18 0.35L443.18 0.35Q440.12 0.35 438.51-1.41Q436.90-3.16 436.87-6.56L436.87-6.56L436.87-19.02L441.95-19.02L441.95-6.73Q441.95-3.76 444.66-3.76L444.66-3.76Q447.24-3.76 448.21-5.55L448.21-5.55L448.21-19.02L453.30-19.02L453.30 0L448.52 0ZM461.25-19.02L464.38-13.34L467.58-19.02L473.01-19.02L467.60-9.70L473.24 0L467.79 0L464.40-5.98L461.02 0L455.55 0L461.20-9.70L455.80-19.02L461.25-19.02Z" transform="translate(620, 695)" fill="#ffffff" />
  <text x="960" y="1040" font-family="Arial, sans-serif" font-size="20" fill="#666" text-anchor="middle">OpenClaw Documentation</text>
</svg>