<?xml version="1.0" encoding="UTF-8"?>
<svg width="1920" height="1080" xmlns="http://www.w3.org/2000/svg">
  <defs>
    <linearGradient id="bg" x1="0%" y1="0%" x2="100%" y2="100%">
      <stop offset="0%" style="stop-color:#1a1a2e;stop-opacity:1" />
      <stop offset="100%" style="stop-color:#0f0f1a;stop-opacity:1" />
    </linearGradient>
  </defs>
  <rect width="100%" height="100%" fill="url(#bg)"/>
  <circle cx="1920" cy="0" r="600" fill="#e94560" opacity="0.1"/>
  <circle cx="0" cy="1080" r="400" fill="#e94560" opacity="0.1"/>
  <rect width="1920" height="15" fill="#e94560"/>
  <path d="M22.80-11.37L29.84-11.37Q29.44-5.86 25.77-2.70Q22.10 0.47 16.10 0.47L16.10 0.47Q9.54 0.47 5.78-3.95Q2.02-8.37 2.02-16.08L2.02-16.08L2.02-18.16Q2.02-23.09 3.75-26.84Q5.48-30.59 8.71-32.59Q11.93-34.59 16.20-34.59L16.20-34.59Q22.10-34.59 25.71-31.43Q29.32-28.27 29.88-22.55L29.88-22.55L22.85-22.55Q22.59-25.85 21.01-27.34Q19.43-28.83 16.20-28.83L16.20-28.83Q12.68-28.83 10.93-26.31Q9.19-23.79 9.14-18.49L9.14-18.49L9.14-15.91Q9.14-10.38 10.82-7.83Q12.49-5.27 16.10-5.27L16.10-5.27Q19.36-5.27 20.96-6.76Q22.57-8.25 22.80-11.37L22.80-11.37ZM40.62-36L40.62-22.59Q43.31-25.83 47.39-25.83L47.39-25.83Q55.64-25.83 55.76-16.24L55.76-16.24L55.76 0L48.98 0L48.98-16.05Q48.98-18.23 48.05-19.28Q47.11-20.32 44.93-20.32L44.93-20.32Q41.95-20.32 40.62-18.02L40.62-18.02L40.62 0L33.84 0L33.84-36L40.62-36ZM82.41 0L75.56 0Q75.09-0.91 74.88-2.27L74.88-2.27Q72.42 0.47 68.48 0.47L68.48 0.47Q64.76 0.47 62.31-1.69Q59.86-3.84 59.86-7.13L59.86-7.13Q59.86-11.16 62.85-13.31Q65.84-15.47 71.48-15.49L71.48-15.49L74.60-15.49L74.60-16.95Q74.60-18.70 73.70-19.76Q72.80-20.81 70.85-20.81L70.85-20.81Q69.14-20.81 68.17-19.99Q67.20-19.17 67.20-17.74L67.20-17.74L60.42-17.74Q60.42-19.95 61.78-21.82Q63.14-23.70 65.63-24.76Q68.11-25.83 71.20-25.83L71.20-25.83Q75.89-25.83 78.64-23.47Q81.40-21.12 81.40-16.85L81.40-16.85L81.40-5.86Q81.42-2.25 82.41-0.40L82.41-0.40L82.41 0ZM69.96-4.71L69.96-4.71Q71.46-4.71 72.73-5.38Q73.99-6.05 74.60-7.17L74.60-7.17L74.60-11.53L72.07-11.53Q66.98-11.53 66.66-8.02L66.66-8.02L66.63-7.62Q66.63-6.35 67.52-5.53Q68.41-4.71 69.96-4.71ZM86.46-25.36L92.84-25.36L93.05-22.43Q95.77-25.83 100.34-25.83L100.34-25.83Q104.37-25.83 106.34-23.46Q108.30-21.09 108.35-16.38L108.35-16.38L108.35 0L101.58 0L101.58-16.22Q101.58-18.38 100.64-19.35Q99.70-20.32 97.52-20.32L97.52-20.32Q94.66-20.32 93.23-17.88L93.23-17.88L93.23 0L86.46 0L86.46-25.36ZM133.69-11.37L140.72-11.37Q140.32-5.86 136.65-2.70Q132.98 0.47 126.98 0.47L126.98 0.47Q120.42 0.47 116.66-3.95Q112.90-8.37 112.90-16.08L112.90-16.08L112.90-18.16Q112.90-23.09 114.63-26.84Q116.37-30.59 119.59-32.59Q122.81-34.59 127.08-34.59L127.08-34.59Q132.98-34.59 136.59-31.43Q140.20-28.27 140.77-22.55L140.77-22.55L133.73-22.55Q133.48-25.85 131.89-27.34Q130.31-28.83 127.08-28.83L127.08-28.83Q123.56-28.83 121.82-26.31Q120.07-23.79 120.02-18.49L120.02-18.49L120.02-15.91Q120.02-10.38 121.70-7.83Q123.38-5.27 126.98-5.27L126.98-5.27Q130.24-5.27 131.85-6.76Q133.45-8.25 133.69-11.37L133.69-11.37ZM152.04-36L152.04 0L145.24 0L145.24-36L152.04-36ZM179.16 0L172.31 0Q171.84-0.91 171.63-2.27L171.63-2.27Q169.17 0.47 165.23 0.47L165.23 0.47Q161.51 0.47 159.06-1.69Q156.61-3.84 156.61-7.13L156.61-7.13Q156.61-11.16 159.60-13.31Q162.59-15.47 168.23-15.49L168.23-15.49L171.35-15.49L171.35-16.95Q171.35-18.70 170.45-19.76Q169.55-20.81 167.60-20.81L167.60-20.81Q165.89-20.81 164.92-19.99Q163.95-19.17 163.95-17.74L163.95-17.74L157.17-17.74Q157.17-19.95 158.53-21.82Q159.89-23.70 162.38-24.76Q164.86-25.83 167.95-25.83L167.95-25.83Q172.64-25.83 175.39-23.47Q178.15-21.12 178.15-16.85L178.15-16.85L178.15-5.86Q178.17-2.25 179.16-0.40L179.16-0.40L179.16 0ZM166.71-4.71L166.71-4.71Q168.21-4.71 169.48-5.38Q170.74-6.05 171.35-7.17L171.35-7.17L171.35-11.53L168.82-11.53Q163.73-11.53 163.41-8.02L163.41-8.02L163.38-7.62Q163.38-6.35 164.27-5.53Q165.16-4.71 166.71-4.71ZM200.79-25.36L205.41-9.21L208.73-25.36L215.27-25.36L208.80 0L203.13 0L198.33-15.96L193.52 0L187.88 0L181.41-25.36L187.95-25.36L191.25-9.23L195.89-25.36L200.79-25.36Z" transform="translate(60, 85)" fill="#e94560" />
  <text x="1860" y="85" font-family="Arial" font-size="28" fill="#888" text-anchor="end">SLIDE 4/10</text>
  <path d="M51.37-56.88L51.37 0L39.65 0L39.65-24.38L16.80-24.38L16.80 0L5.08 0L5.08-56.88L16.80-56.88L16.80-33.83L39.65-33.83L39.65-56.88L51.37-56.88ZM59.10-21.02L59.10-21.52Q59.10-27.81 61.52-32.73Q63.95-37.66 68.50-40.35Q73.05-43.05 79.06-43.05L79.06-43.05Q87.62-43.05 93.03-37.81Q98.44-32.58 99.06-23.59L99.06-23.59L99.14-20.70Q99.14-10.98 93.71-5.10Q88.28 0.78 79.14 0.78Q70 0.78 64.55-5.08Q59.10-10.94 59.10-21.02L59.10-21.02ZM70.39-20.70L70.39-20.70Q70.39-14.69 72.66-11.50Q74.92-8.32 79.14-8.32L79.14-8.32Q83.24-8.32 85.55-11.46Q87.85-14.61 87.85-21.52L87.85-21.52Q87.85-27.42 85.55-30.66Q83.24-33.91 79.06-33.91L79.06-33.91Q74.92-33.91 72.66-30.68Q70.39-27.46 70.39-20.70ZM135.16-42.27L142.85-15.35L148.40-42.27L159.30-42.27L148.52 0L139.06 0L131.05-26.60L123.05 0L113.63 0L102.85-42.27L113.75-42.27L119.26-15.39L126.99-42.27L135.16-42.27ZM198.01-56.88L198.01 0L186.29 0L186.29-56.88L198.01-56.88ZM210.35-52.66L221.64-52.66L221.64-42.27L228.87-42.27L228.87-33.98L221.64-33.98L221.64-12.89Q221.64-10.55 222.54-9.53Q223.44-8.52 225.98-8.52L225.98-8.52Q227.85-8.52 229.30-8.79L229.30-8.79L229.30-0.23Q225.98 0.78 222.46 0.78L222.46 0.78Q210.59 0.78 210.35-11.21L210.35-11.21L210.35-33.98L204.18-33.98L204.18-42.27L210.35-42.27L210.35-52.66ZM290.78-56.88L300.12-16.41L307.77-56.88L319.45-56.88L306.84 0L295.04 0L285.78-38.05L276.52 0L264.73 0L252.11-56.88L263.79-56.88L271.48-16.48L280.86-56.88L290.78-56.88ZM323.28-21.02L323.28-21.52Q323.28-27.81 325.70-32.73Q328.13-37.66 332.68-40.35Q337.23-43.05 343.24-43.05L343.24-43.05Q351.80-43.05 357.21-37.81Q362.62-32.58 363.24-23.59L363.24-23.59L363.32-20.70Q363.32-10.98 357.89-5.10Q352.46 0.78 343.32 0.78Q334.18 0.78 328.73-5.08Q323.28-10.94 323.28-21.02L323.28-21.02ZM334.57-20.70L334.57-20.70Q334.57-14.69 336.84-11.50Q339.10-8.32 343.32-8.32L343.32-8.32Q347.42-8.32 349.73-11.46Q352.03-14.61 352.03-21.52L352.03-21.52Q352.03-27.42 349.73-30.66Q347.42-33.91 343.24-33.91L343.24-33.91Q339.10-33.91 336.84-30.68Q334.57-27.46 334.57-20.70ZM394.18-42.54L394.02-31.68Q391.72-31.99 389.96-31.99L389.96-31.99Q383.55-31.99 381.56-27.66L381.56-27.66L381.56 0L370.27 0L370.27-42.27L380.94-42.27L381.25-37.23Q384.65-43.05 390.66-43.05L390.66-43.05Q392.54-43.05 394.18-42.54L394.18-42.54ZM425.66 0L414.80-16.95L410.74-12.89L410.74 0L399.45 0L399.45-60L410.74-60L410.74-26.76L412.93-29.57L423.75-42.27L437.30-42.27L422.03-24.65L438.63 0L425.66 0ZM465.08-11.68L465.08-11.68Q465.08-13.75 463.03-14.94Q460.98-16.13 456.45-17.07L456.45-17.07Q441.37-20.23 441.37-29.88L441.37-29.88Q441.37-35.51 446.04-39.28Q450.70-43.05 458.24-43.05L458.24-43.05Q466.29-43.05 471.11-39.26Q475.94-35.47 475.94-29.41L475.94-29.41L464.65-29.41Q464.65-31.84 463.09-33.42Q461.52-35 458.20-35L458.20-35Q455.35-35 453.79-33.71Q452.23-32.42 452.23-30.43L452.23-30.43Q452.23-28.55 454.00-27.40Q455.78-26.25 460-25.41Q464.22-24.57 467.11-23.52L467.11-23.52Q476.05-20.23 476.05-12.15L476.05-12.15Q476.05-6.37 471.09-2.79Q466.13 0.78 458.28 0.78L458.28 0.78Q452.97 0.78 448.85-1.11Q444.73-3.01 442.38-6.31Q440.04-9.61 440.04-13.44L440.04-13.44L450.74-13.44Q450.90-10.43 452.97-8.83Q455.04-7.23 458.52-7.23L458.52-7.23Q461.76-7.23 463.42-8.46Q465.08-9.69 465.08-11.68Z" transform="translate(720.5078125, 420)" fill="#ffffff" />
  <line x1="660" y1="480" x2="1260" y2="480" stroke="#e94560" stroke-width="6"/>
  <circle cx="620" cy="535" r="8" fill="#e94560" /><path d="M18.40 0L13.07-10.41L8.40-10.41L8.40 0L2.54 0L2.54-28.44L13.11-28.44Q18.14-28.44 20.88-26.19Q23.61-23.95 23.61-19.84L23.61-19.84Q23.61-16.93 22.35-14.99Q21.09-13.05 18.54-11.89L18.54-11.89L24.69-0.27L24.69 0L18.40 0ZM8.40-23.69L8.40-15.16L13.13-15.16Q15.33-15.16 16.54-16.28Q17.75-17.40 17.75-19.38L17.75-19.38Q17.75-21.39 16.61-22.54Q15.47-23.69 13.11-23.69L13.11-23.69L8.40-23.69ZM40.51 0L40.35-2.15Q38.26 0.39 34.57 0.39L34.57 0.39Q31.17 0.39 29.38-1.56Q27.60-3.52 27.56-7.29L27.56-7.29L27.56-21.13L33.20-21.13L33.20-7.48Q33.20-4.18 36.21-4.18L36.21-4.18Q39.08-4.18 40.16-6.17L40.16-6.17L40.16-21.13L45.82-21.13L45.82 0L40.51 0ZM49.96-21.13L55.27-21.13L55.45-18.69Q57.71-21.52 61.52-21.52L61.52-21.52Q64.88-21.52 66.52-19.55Q68.16-17.58 68.20-13.65L68.20-13.65L68.20 0L62.56 0L62.56-13.52Q62.56-15.31 61.78-16.12Q61.00-16.93 59.18-16.93L59.18-16.93Q56.80-16.93 55.61-14.90L55.61-14.90L55.61 0L49.96 0L49.96-21.13ZM83.93-5.84L83.93-5.84Q83.93-6.88 82.90-7.47Q81.88-8.07 79.61-8.54L79.61-8.54Q72.07-10.12 72.07-14.94L72.07-14.94Q72.07-17.75 74.40-19.64Q76.74-21.52 80.51-21.52L80.51-21.52Q84.53-21.52 86.94-19.63Q89.36-17.73 89.36-14.71L89.36-14.71L83.71-14.71Q83.71-15.92 82.93-16.71Q82.15-17.50 80.49-17.50L80.49-17.50Q79.06-17.50 78.28-16.86Q77.50-16.21 77.50-15.21L77.50-15.21Q77.50-14.28 78.39-13.70Q79.28-13.13 81.39-12.71Q83.50-12.29 84.94-11.76L84.94-11.76Q89.41-10.12 89.41-6.07L89.41-6.07Q89.41-3.18 86.93-1.40Q84.45 0.39 80.53 0.39L80.53 0.39Q77.87 0.39 75.81-0.56Q73.75-1.50 72.58-3.15Q71.41-4.80 71.41-6.72L71.41-6.72L76.76-6.72Q76.84-5.21 77.87-4.41Q78.91-3.61 80.64-3.61L80.64-3.61Q82.27-3.61 83.10-4.23Q83.93-4.84 83.93-5.84ZM120.96 0L115.25 0Q114.86-0.76 114.69-1.89L114.69-1.89Q112.64 0.39 109.36 0.39L109.36 0.39Q106.25 0.39 104.21-1.41Q102.17-3.20 102.17-5.94L102.17-5.94Q102.17-9.30 104.66-11.09Q107.15-12.89 111.86-12.91L111.86-12.91L114.45-12.91L114.45-14.12Q114.45-15.59 113.70-16.46Q112.95-17.34 111.33-17.34L111.33-17.34Q109.90-17.34 109.09-16.66Q108.28-15.98 108.28-14.79L108.28-14.79L102.64-14.79Q102.64-16.62 103.77-18.18Q104.90-19.75 106.97-20.63Q109.04-21.52 111.62-21.52L111.62-21.52Q115.53-21.52 117.82-19.56Q120.12-17.60 120.12-14.04L120.12-14.04L120.12-4.88Q120.14-1.88 120.96-0.33L120.96-0.33L120.96 0ZM110.59-3.93L110.59-3.93Q111.84-3.93 112.89-4.48Q113.95-5.04 114.45-5.98L114.45-5.98L114.45-9.61L112.34-9.61Q108.11-9.61 107.83-6.68L107.83-6.68L107.81-6.35Q107.81-5.29 108.55-4.61Q109.30-3.93 110.59-3.93ZM135.90-5.84L135.90-5.84Q135.90-6.88 134.87-7.47Q133.85-8.07 131.58-8.54L131.58-8.54Q124.04-10.12 124.04-14.94L124.04-14.94Q124.04-17.75 126.38-19.64Q128.71-21.52 132.48-21.52L132.48-21.52Q136.50-21.52 138.92-19.63Q141.33-17.73 141.33-14.71L141.33-14.71L135.68-14.71Q135.68-15.92 134.90-16.71Q134.12-17.50 132.46-17.50L132.46-17.50Q131.04-17.50 130.25-16.86Q129.47-16.21 129.47-15.21L129.47-15.21Q129.47-14.28 130.36-13.70Q131.25-13.13 133.36-12.71Q135.47-12.29 136.91-11.76L136.91-11.76Q141.39-10.12 141.39-6.07L141.39-6.07Q141.39-3.18 138.91-1.40Q136.43 0.39 132.50 0.39L132.50 0.39Q129.84 0.39 127.78-0.56Q125.72-1.50 124.55-3.15Q123.38-4.80 123.38-6.72L123.38-6.72L128.73-6.72Q128.81-5.21 129.84-4.41Q130.88-3.61 132.62-3.61L132.62-3.61Q134.24-3.61 135.07-4.23Q135.90-4.84 135.90-5.84ZM154.16-10.49L154.16-10.72Q154.16-15.59 156.47-18.55Q158.79-21.52 162.71-21.52L162.71-21.52Q166.19-21.52 168.13-19.14L168.13-19.14L168.36-21.13L173.48-21.13L173.48-0.70Q173.48 2.07 172.22 4.12Q170.96 6.17 168.67 7.25Q166.39 8.32 163.32 8.32L163.32 8.32Q161.00 8.32 158.79 7.39Q156.58 6.46 155.45 5L155.45 5L157.95 1.56Q160.06 3.93 163.07 3.93L163.07 3.93Q165.31 3.93 166.56 2.72Q167.81 1.52 167.81-0.68L167.81-0.68L167.81-1.82Q165.86 0.39 162.68 0.39L162.68 0.39Q158.87 0.39 156.51-2.59Q154.16-5.57 154.16-10.49L154.16-10.49ZM159.80-10.31L159.80-10.31Q159.80-7.44 160.96-5.81Q162.11-4.18 164.12-4.18L164.12-4.18Q166.70-4.18 167.81-6.11L167.81-6.11L167.81-15Q166.68-16.93 164.16-16.93L164.16-16.93Q162.13-16.93 160.97-15.27Q159.80-13.61 159.80-10.31ZM195.76 0L190.06 0Q189.67-0.76 189.49-1.89L189.49-1.89Q187.44 0.39 184.16 0.39L184.16 0.39Q181.05 0.39 179.01-1.41Q176.97-3.20 176.97-5.94L176.97-5.94Q176.97-9.30 179.46-11.09Q181.95-12.89 186.66-12.91L186.66-12.91L189.26-12.91L189.26-14.12Q189.26-15.59 188.51-16.46Q187.75-17.34 186.13-17.34L186.13-17.34Q184.71-17.34 183.90-16.66Q183.09-15.98 183.09-14.79L183.09-14.79L177.44-14.79Q177.44-16.62 178.57-18.18Q179.71-19.75 181.78-20.63Q183.85-21.52 186.43-21.52L186.43-21.52Q190.33-21.52 192.63-19.56Q194.92-17.60 194.92-14.04L194.92-14.04L194.92-4.88Q194.94-1.88 195.76-0.33L195.76-0.33L195.76 0ZM185.39-3.93L185.39-3.93Q186.64-3.93 187.70-4.48Q188.75-5.04 189.26-5.98L189.26-5.98L189.26-9.61L187.15-9.61Q182.91-9.61 182.64-6.68L182.64-6.68L182.62-6.35Q182.62-5.29 183.36-4.61Q184.10-3.93 185.39-3.93ZM200.37-26.33L206.02-26.33L206.02-21.13L209.63-21.13L209.63-16.99L206.02-16.99L206.02-6.45Q206.02-5.27 206.46-4.77Q206.91-4.26 208.18-4.26L208.18-4.26Q209.12-4.26 209.84-4.39L209.84-4.39L209.84-0.12Q208.18 0.39 206.43 0.39L206.43 0.39Q200.49 0.39 200.37-5.61L200.37-5.61L200.37-16.99L197.29-16.99L197.29-21.13L200.37-21.13L200.37-26.33ZM222.50 0.39L222.50 0.39Q217.85 0.39 214.93-2.46Q212.01-5.31 212.01-10.06L212.01-10.06L212.01-10.61Q212.01-13.79 213.24-16.30Q214.47-18.81 216.73-20.17Q218.98-21.52 221.88-21.52L221.88-21.52Q226.21-21.52 228.70-18.79Q231.19-16.05 231.19-11.04L231.19-11.04L231.19-8.73L217.73-8.73Q218.01-6.66 219.38-5.41Q220.76-4.16 222.87-4.16L222.87-4.16Q226.13-4.16 227.97-6.52L227.97-6.52L230.74-3.42Q229.47-1.62 227.30-0.62Q225.14 0.39 222.50 0.39ZM221.86-16.95L221.86-16.95Q220.18-16.95 219.13-15.82Q218.09-14.69 217.79-12.58L217.79-12.58L225.64-12.58L225.64-13.03Q225.61-14.90 224.63-15.93Q223.65-16.95 221.86-16.95ZM248.93-21.13L252.77-7.68L255.55-21.13L261.00-21.13L255.61 0L250.88 0L246.88-13.30L242.87 0L238.16 0L232.77-21.13L238.22-21.13L240.98-7.70L244.84-21.13L248.93-21.13ZM281.74 0L276.04 0Q275.64-0.76 275.47-1.89L275.47-1.89Q273.42 0.39 270.14 0.39L270.14 0.39Q267.03 0.39 264.99-1.41Q262.95-3.20 262.95-5.94L262.95-5.94Q262.95-9.30 265.44-11.09Q267.93-12.89 272.64-12.91L272.64-12.91L275.23-12.91L275.23-14.12Q275.23-15.59 274.48-16.46Q273.73-17.34 272.11-17.34L272.11-17.34Q270.68-17.34 269.87-16.66Q269.06-15.98 269.06-14.79L269.06-14.79L263.42-14.79Q263.42-16.62 264.55-18.18Q265.68-19.75 267.75-20.63Q269.82-21.52 272.40-21.52L272.40-21.52Q276.31-21.52 278.60-19.56Q280.90-17.60 280.90-14.04L280.90-14.04L280.90-4.88Q280.92-1.88 281.74-0.33L281.74-0.33L281.74 0ZM271.37-3.93L271.37-3.93Q272.62-3.93 273.67-4.48Q274.73-5.04 275.23-5.98L275.23-5.98L275.23-9.61L273.13-9.61Q268.89-9.61 268.61-6.68L268.61-6.68L268.59-6.35Q268.59-5.29 269.34-4.61Q270.08-3.93 271.37-3.93ZM289.20-21.13L293.13-7.99L297.03-21.13L303.09-21.13L294.59 3.28L294.12 4.39Q292.23 8.54 287.87 8.54L287.87 8.54Q286.64 8.54 285.37 8.16L285.37 8.16L285.37 3.89L286.23 3.91Q287.83 3.91 288.62 3.42Q289.41 2.93 289.86 1.80L289.86 1.80L290.53 0.06L283.13-21.13L289.20-21.13ZM314.39-10.72L314.39-10.72Q314.39-15.66 316.61-18.59Q318.83-21.52 322.68-21.52L322.68-21.52Q325.76-21.52 327.77-19.22L327.77-19.22L327.77-30L333.44-30L333.44 0L328.34 0L328.07-2.25Q325.96 0.39 322.64 0.39L322.64 0.39Q318.91 0.39 316.65-2.55Q314.39-5.49 314.39-10.72ZM320.04-10.31L320.04-10.31Q320.04-7.34 321.07-5.76Q322.11-4.18 324.08-4.18L324.08-4.18Q326.70-4.18 327.77-6.39L327.77-6.39L327.77-14.73Q326.72-16.93 324.12-16.93L324.12-16.93Q320.04-16.93 320.04-10.31ZM355.76 0L350.06 0Q349.67-0.76 349.49-1.89L349.49-1.89Q347.44 0.39 344.16 0.39L344.16 0.39Q341.05 0.39 339.01-1.41Q336.97-3.20 336.97-5.94L336.97-5.94Q336.97-9.30 339.46-11.09Q341.95-12.89 346.66-12.91L346.66-12.91L349.26-12.91L349.26-14.12Q349.26-15.59 348.51-16.46Q347.75-17.34 346.13-17.34L346.13-17.34Q344.71-17.34 343.90-16.66Q343.09-15.98 343.09-14.79L343.09-14.79L337.44-14.79Q337.44-16.62 338.57-18.18Q339.71-19.75 341.78-20.63Q343.85-21.52 346.43-21.52L346.43-21.52Q350.33-21.52 352.63-19.56Q354.92-17.60 354.92-14.04L354.92-14.04L354.92-4.88Q354.94-1.88 355.76-0.33L355.76-0.33L355.76 0ZM345.39-3.93L345.39-3.93Q346.64-3.93 347.70-4.48Q348.75-5.04 349.26-5.98L349.26-5.98L349.26-9.61L347.15-9.61Q342.91-9.61 342.64-6.68L342.64-6.68L342.62-6.35Q342.62-5.29 343.36-4.61Q344.10-3.93 345.39-3.93ZM368.98 0.39L368.98 0.39Q364.34 0.39 361.42-2.46Q358.50-5.31 358.50-10.06L358.50-10.06L358.50-10.61Q358.50-13.79 359.73-16.30Q360.96-18.81 363.21-20.17Q365.47-21.52 368.36-21.52L368.36-21.52Q372.70-21.52 375.19-18.79Q377.68-16.05 377.68-11.04L377.68-11.04L377.68-8.73L364.22-8.73Q364.49-6.66 365.87-5.41Q367.25-4.16 369.36-4.16L369.36-4.16Q372.62-4.16 374.45-6.52L374.45-6.52L377.23-3.42Q375.96-1.62 373.79-0.62Q371.62 0.39 368.98 0.39ZM368.34-16.95L368.34-16.95Q366.66-16.95 365.62-15.82Q364.57-14.69 364.28-12.58L364.28-12.58L372.13-12.58L372.13-13.03Q372.09-14.90 371.11-15.93Q370.14-16.95 368.34-16.95ZM380.88-21.13L386.17-21.13L386.35-18.77Q388.59-21.52 392.42-21.52L392.42-21.52Q396.50-21.52 398.03-18.30L398.03-18.30Q400.25-21.52 404.38-21.52L404.38-21.52Q407.81-21.52 409.49-19.52Q411.17-17.52 411.17-13.50L411.17-13.50L411.17 0L405.51 0L405.51-13.48Q405.51-15.27 404.80-16.10Q404.10-16.93 402.32-16.93L402.32-16.93Q399.79-16.93 398.81-14.51L398.81-14.51L398.83 0L393.18 0L393.18-13.46Q393.18-15.29 392.46-16.11Q391.74-16.93 390-16.93L390-16.93Q387.60-16.93 386.52-14.94L386.52-14.94L386.52 0L380.88 0L380.88-21.13ZM414.63-10.51L414.63-10.76Q414.63-13.91 415.84-16.37Q417.05-18.83 419.33-20.18Q421.60-21.52 424.61-21.52L424.61-21.52Q428.89-21.52 431.59-18.91Q434.30-16.29 434.61-11.80L434.61-11.80L434.65-10.35Q434.65-5.49 431.93-2.55Q429.22 0.39 424.65 0.39Q420.08 0.39 417.35-2.54Q414.63-5.47 414.63-10.51L414.63-10.51ZM420.27-10.35L420.27-10.35Q420.27-7.34 421.41-5.75Q422.54-4.16 424.65-4.16L424.65-4.16Q426.70-4.16 427.85-5.73Q429.00-7.30 429.00-10.76L429.00-10.76Q429.00-13.71 427.85-15.33Q426.70-16.95 424.61-16.95L424.61-16.95Q422.54-16.95 421.41-15.34Q420.27-13.73 420.27-10.35ZM438.01-21.13L443.32-21.13L443.50-18.69Q445.76-21.52 449.57-21.52L449.57-21.52Q452.93-21.52 454.57-19.55Q456.21-17.58 456.25-13.65L456.25-13.65L456.25 0L450.61 0L450.61-13.52Q450.61-15.31 449.82-16.12Q449.04-16.93 447.23-16.93L447.23-16.93Q444.84-16.93 443.65-14.90L443.65-14.90L443.65 0L438.01 0L438.01-21.13ZM481.93-5.84L481.93-5.84Q481.93-6.88 480.91-7.47Q479.88-8.07 477.62-8.54L477.62-8.54Q470.08-10.12 470.08-14.94L470.08-14.94Q470.08-17.75 472.41-19.64Q474.75-21.52 478.52-21.52L478.52-21.52Q482.54-21.52 484.95-19.63Q487.36-17.73 487.36-14.71L487.36-14.71L481.72-14.71Q481.72-15.92 480.94-16.71Q480.16-17.50 478.50-17.50L478.50-17.50Q477.07-17.50 476.29-16.86Q475.51-16.21 475.51-15.21L475.51-15.21Q475.51-14.28 476.40-13.70Q477.29-13.13 479.39-12.71Q481.50-12.29 482.95-11.76L482.95-11.76Q487.42-10.12 487.42-6.07L487.42-6.07Q487.42-3.18 484.94-1.40Q482.46 0.39 478.54 0.39L478.54 0.39Q475.88 0.39 473.82-0.56Q471.76-1.50 470.59-3.15Q469.41-4.80 469.41-6.72L469.41-6.72L474.77-6.72Q474.84-5.21 475.88-4.41Q476.91-3.61 478.65-3.61L478.65-3.61Q480.27-3.61 481.10-4.23Q481.93-4.84 481.93-5.84ZM500.78 0.39L500.78 0.39Q496.13 0.39 493.21-2.46Q490.29-5.31 490.29-10.06L490.29-10.06L490.29-10.61Q490.29-13.79 491.52-16.30Q492.75-18.81 495.01-20.17Q497.27-21.52 500.16-21.52L500.16-21.52Q504.49-21.52 506.98-18.79Q509.47-16.05 509.47-11.04L509.47-11.04L509.47-8.73L496.02-8.73Q496.29-6.66 497.67-5.41Q499.04-4.16 501.15-4.16L501.15-4.16Q504.41-4.16 506.25-6.52L506.25-6.52L509.02-3.42Q507.75-1.62 505.59-0.62Q503.42 0.39 500.78 0.39ZM500.14-16.95L500.14-16.95Q498.46-16.95 497.41-15.82Q496.37-14.69 496.07-12.58L496.07-12.58L503.93-12.58L503.93-13.03Q503.89-14.90 502.91-15.93Q501.93-16.95 500.14-16.95ZM524.63-21.27L524.55-15.84Q523.40-16.00 522.52-16.00L522.52-16.00Q519.32-16.00 518.32-13.83L518.32-13.83L518.32 0L512.68 0L512.68-21.13L518.01-21.13L518.16-18.61Q519.86-21.52 522.87-21.52L522.87-21.52Q523.81-21.52 524.63-21.27L524.63-21.27ZM531.25-21.13L535.18-6.89L539.10-21.13L545-21.13L537.87 0L532.48 0L525.35-21.13L531.25-21.13ZM553.44-21.13L553.44 0L547.77 0L547.77-21.13L553.44-21.13ZM547.44-26.60L547.44-26.60Q547.44-27.87 548.29-28.69Q549.14-29.51 550.61-29.51L550.61-29.51Q552.05-29.51 552.91-28.69Q553.77-27.87 553.77-26.60L553.77-26.60Q553.77-25.31 552.90-24.49Q552.03-23.67 550.61-23.67Q549.18-23.67 548.31-24.49Q547.44-25.31 547.44-26.60ZM566.88-4.16L566.88-4.16Q568.44-4.16 569.41-5.02Q570.39-5.88 570.43-7.30L570.43-7.30L575.72-7.30Q575.70-5.16 574.55-3.37Q573.40-1.58 571.40-0.60Q569.39 0.39 566.97 0.39L566.97 0.39Q562.44 0.39 559.82-2.49Q557.21-5.37 557.21-10.45L557.21-10.45L557.21-10.82Q557.21-15.70 559.80-18.61Q562.40-21.52 566.93-21.52L566.93-21.52Q570.90-21.52 573.29-19.27Q575.68-17.01 575.72-13.26L575.72-13.26L570.43-13.26Q570.39-14.90 569.41-15.93Q568.44-16.95 566.84-16.95L566.84-16.95Q564.86-16.95 563.86-15.52Q562.85-14.08 562.85-10.86L562.85-10.86L562.85-10.27Q562.85-7.01 563.85-5.59Q564.84-4.16 566.88-4.16ZM588.67 0.39L588.67 0.39Q584.02 0.39 581.10-2.46Q578.18-5.31 578.18-10.06L578.18-10.06L578.18-10.61Q578.18-13.79 579.41-16.30Q580.64-18.81 582.90-20.17Q585.16-21.52 588.05-21.52L588.05-21.52Q592.38-21.52 594.87-18.79Q597.36-16.05 597.36-11.04L597.36-11.04L597.36-8.73L583.91-8.73Q584.18-6.66 585.56-5.41Q586.93-4.16 589.04-4.16L589.04-4.16Q592.30-4.16 594.14-6.52L594.14-6.52L596.91-3.42Q595.64-1.62 593.48-0.62Q591.31 0.39 588.67 0.39ZM588.03-16.95L588.03-16.95Q586.35-16.95 585.30-15.82Q584.26-14.69 583.96-12.58L583.96-12.58L591.82-12.58L591.82-13.03Q591.78-14.90 590.80-15.93Q589.82-16.95 588.03-16.95Z" transform="translate(660, 535)" fill="#ffffff" /><circle cx="620" cy="605" r="8" fill="#e94560" /><path d="M19.00-9.47L24.86-9.47Q24.53-4.88 21.47-2.25Q18.42 0.39 13.42 0.39L13.42 0.39Q7.95 0.39 4.81-3.29Q1.68-6.97 1.68-13.40L1.68-13.40L1.68-15.14Q1.68-19.24 3.13-22.36Q4.57-25.49 7.26-27.16Q9.94-28.83 13.50-28.83L13.50-28.83Q18.42-28.83 21.43-26.19Q24.43-23.55 24.90-18.79L24.90-18.79L19.04-18.79Q18.83-21.54 17.51-22.78Q16.19-24.02 13.50-24.02L13.50-24.02Q10.57-24.02 9.11-21.92Q7.66-19.82 7.62-15.41L7.62-15.41L7.62-13.26Q7.62-8.65 9.01-6.52Q10.41-4.39 13.42-4.39L13.42-4.39Q16.13-4.39 17.47-5.63Q18.81-6.88 19.00-9.47L19.00-9.47ZM27.46-10.51L27.46-10.76Q27.46-13.91 28.67-16.37Q29.88-18.83 32.16-20.18Q34.43-21.52 37.44-21.52L37.44-21.52Q41.72-21.52 44.42-18.91Q47.13-16.29 47.44-11.80L47.44-11.80L47.48-10.35Q47.48-5.49 44.77-2.55Q42.05 0.39 37.48 0.39Q32.91 0.39 30.19-2.54Q27.46-5.47 27.46-10.51L27.46-10.51ZM33.11-10.35L33.11-10.35Q33.11-7.34 34.24-5.75Q35.37-4.16 37.48-4.16L37.48-4.16Q39.53-4.16 40.68-5.73Q41.84-7.30 41.84-10.76L41.84-10.76Q41.84-13.71 40.68-15.33Q39.53-16.95 37.44-16.95L37.44-16.95Q35.37-16.95 34.24-15.34Q33.11-13.73 33.11-10.35ZM50.84-21.13L56.15-21.13L56.33-18.69Q58.59-21.52 62.40-21.52L62.40-21.52Q65.76-21.52 67.40-19.55Q69.04-17.58 69.08-13.65L69.08-13.65L69.08 0L63.44 0L63.44-13.52Q63.44-15.31 62.66-16.12Q61.88-16.93 60.06-16.93L60.06-16.93Q57.68-16.93 56.48-14.90L56.48-14.90L56.48 0L50.84 0L50.84-21.13ZM74.47-26.33L80.12-26.33L80.12-21.13L83.73-21.13L83.73-16.99L80.12-16.99L80.12-6.45Q80.12-5.27 80.57-4.77Q81.02-4.26 82.29-4.26L82.29-4.26Q83.22-4.26 83.95-4.39L83.95-4.39L83.95-0.12Q82.29 0.39 80.53 0.39L80.53 0.39Q74.59 0.39 74.47-5.61L74.47-5.61L74.47-16.99L71.39-16.99L71.39-21.13L74.47-21.13L74.47-26.33ZM98.83-21.27L98.75-15.84Q97.60-16.00 96.72-16.00L96.72-16.00Q93.52-16.00 92.52-13.83L92.52-13.83L92.52 0L86.88 0L86.88-21.13L92.21-21.13L92.36-18.61Q94.06-21.52 97.07-21.52L97.07-21.52Q98.01-21.52 98.83-21.27L98.83-21.27ZM100.59-10.51L100.59-10.76Q100.59-13.91 101.80-16.37Q103.01-18.83 105.28-20.18Q107.56-21.52 110.57-21.52L110.57-21.52Q114.84-21.52 117.55-18.91Q120.25-16.29 120.57-11.80L120.57-11.80L120.61-10.35Q120.61-5.49 117.89-2.55Q115.18 0.39 110.61 0.39Q106.04 0.39 103.31-2.54Q100.59-5.47 100.59-10.51L100.59-10.51ZM106.23-10.35L106.23-10.35Q106.23-7.34 107.36-5.75Q108.50-4.16 110.61-4.16L110.61-4.16Q112.66-4.16 113.81-5.73Q114.96-7.30 114.96-10.76L114.96-10.76Q114.96-13.71 113.81-15.33Q112.66-16.95 110.57-16.95L110.57-16.95Q108.50-16.95 107.36-15.34Q106.23-13.73 106.23-10.35ZM130.04-30L130.04 0L124.38 0L124.38-30L130.04-30ZM140.64-30L140.64 0L134.98 0L134.98-30L140.64-30ZM155.02 0.39L155.02 0.39Q150.37 0.39 147.45-2.46Q144.53-5.31 144.53-10.06L144.53-10.06L144.53-10.61Q144.53-13.79 145.76-16.30Q146.99-18.81 149.25-20.17Q151.50-21.52 154.39-21.52L154.39-21.52Q158.73-21.52 161.22-18.79Q163.71-16.05 163.71-11.04L163.71-11.04L163.71-8.73L150.25-8.73Q150.53-6.66 151.90-5.41Q153.28-4.16 155.39-4.16L155.39-4.16Q158.65-4.16 160.49-6.52L160.49-6.52L163.26-3.42Q161.99-1.62 159.82-0.62Q157.66 0.39 155.02 0.39ZM154.38-16.95L154.38-16.95Q152.70-16.95 151.65-15.82Q150.61-14.69 150.31-12.58L150.31-12.58L158.16-12.58L158.16-13.03Q158.13-14.90 157.15-15.93Q156.17-16.95 154.38-16.95ZM166.04-10.72L166.04-10.72Q166.04-15.66 168.25-18.59Q170.47-21.52 174.32-21.52L174.32-21.52Q177.40-21.52 179.41-19.22L179.41-19.22L179.41-30L185.08-30L185.08 0L179.98 0L179.71-2.25Q177.60 0.39 174.28 0.39L174.28 0.39Q170.55 0.39 168.29-2.55Q166.04-5.49 166.04-10.72ZM171.68-10.31L171.68-10.31Q171.68-7.34 172.71-5.76Q173.75-4.18 175.72-4.18L175.72-4.18Q178.34-4.18 179.41-6.39L179.41-6.39L179.41-14.73Q178.36-16.93 175.76-16.93L175.76-16.93Q171.68-16.93 171.68-10.31ZM203.40-21.13L207.32-6.89L211.25-21.13L217.15-21.13L210.02 0L204.63 0L197.50-21.13L203.40-21.13ZM225.59-21.13L225.59 0L219.92 0L219.92-21.13L225.59-21.13ZM219.59-26.60L219.59-26.60Q219.59-27.87 220.44-28.69Q221.29-29.51 222.75-29.51L222.75-29.51Q224.20-29.51 225.06-28.69Q225.92-27.87 225.92-26.60L225.92-26.60Q225.92-25.31 225.05-24.49Q224.18-23.67 222.75-23.67Q221.33-23.67 220.46-24.49Q219.59-25.31 219.59-26.60ZM248.18 0L242.48 0Q242.09-0.76 241.91-1.89L241.91-1.89Q239.86 0.39 236.58 0.39L236.58 0.39Q233.48 0.39 231.44-1.41Q229.39-3.20 229.39-5.94L229.39-5.94Q229.39-9.30 231.88-11.09Q234.38-12.89 239.08-12.91L239.08-12.91L241.68-12.91L241.68-14.12Q241.68-15.59 240.93-16.46Q240.18-17.34 238.55-17.34L238.55-17.34Q237.13-17.34 236.32-16.66Q235.51-15.98 235.51-14.79L235.51-14.79L229.86-14.79Q229.86-16.62 231.00-18.18Q232.13-19.75 234.20-20.63Q236.27-21.52 238.85-21.52L238.85-21.52Q242.75-21.52 245.05-19.56Q247.34-17.60 247.34-14.04L247.34-14.04L247.34-4.88Q247.36-1.88 248.18-0.33L248.18-0.33L248.18 0ZM237.81-3.93L237.81-3.93Q239.06-3.93 240.12-4.48Q241.17-5.04 241.68-5.98L241.68-5.98L241.68-9.61L239.57-9.61Q235.33-9.61 235.06-6.68L235.06-6.68L235.04-6.35Q235.04-5.29 235.78-4.61Q236.52-3.93 237.81-3.93ZM278.48-9.47L284.34-9.47Q284.00-4.88 280.95-2.25Q277.89 0.39 272.89 0.39L272.89 0.39Q267.42 0.39 264.29-3.29Q261.15-6.97 261.15-13.40L261.15-13.40L261.15-15.14Q261.15-19.24 262.60-22.36Q264.04-25.49 266.73-27.16Q269.41-28.83 272.97-28.83L272.97-28.83Q277.89-28.83 280.90-26.19Q283.91-23.55 284.38-18.79L284.38-18.79L278.52-18.79Q278.30-21.54 276.98-22.78Q275.66-24.02 272.97-24.02L272.97-24.02Q270.04-24.02 268.58-21.92Q267.13-19.82 267.09-15.41L267.09-15.41L267.09-13.26Q267.09-8.65 268.49-6.52Q269.88-4.39 272.89-4.39L272.89-4.39Q275.61-4.39 276.94-5.63Q278.28-6.88 278.48-9.47L278.48-9.47ZM294.04-28.44L294.04-4.71L306.48-4.71L306.48 0L288.18 0L288.18-28.44L294.04-28.44ZM316.07-28.44L316.07 0L310.21 0L310.21-28.44L316.07-28.44ZM330.31-7.66L330.31-7.66Q330.31-9.63 331.42-11.31Q332.52-12.99 335.47-15.04L335.47-15.04Q334.20-16.74 333.48-18.23Q332.75-19.73 332.75-21.35L332.75-21.35Q332.75-24.67 334.85-26.75Q336.95-28.83 340.51-28.83L340.51-28.83Q343.69-28.83 345.73-26.93Q347.77-25.04 347.77-22.21L347.77-22.21Q347.77-18.81 344.34-16.21L344.34-16.21L342.15-14.63L347.05-8.93Q348.20-11.19 348.20-13.93L348.20-13.93L353.01-13.93Q353.01-8.38 350.45-4.94L350.45-4.94L354.71 0L348.30 0L346.84-1.68Q343.69 0.39 339.61 0.39L339.61 0.39Q335.39 0.39 332.85-1.83Q330.31-4.04 330.31-7.66ZM339.88-4.14L339.88-4.14Q341.91-4.14 343.73-5.27L343.73-5.27L338.13-11.76L337.71-11.46Q335.98-9.98 335.98-7.97L335.98-7.97Q335.98-6.27 337.06-5.21Q338.14-4.14 339.88-4.14ZM337.81-21.43L337.81-21.43Q337.81-19.96 339.53-17.73L339.53-17.73L341.04-18.73Q342.19-19.47 342.63-20.18Q343.07-20.88 343.07-21.86Q343.07-22.83 342.34-23.55Q341.62-24.28 340.49-24.28L340.49-24.28Q339.28-24.28 338.54-23.50Q337.81-22.71 337.81-21.43ZM367.30-21.13L372.60-21.13L372.77-18.77Q375.02-21.52 378.85-21.52L378.85-21.52Q382.93-21.52 384.45-18.30L384.45-18.30Q386.68-21.52 390.80-21.52L390.80-21.52Q394.24-21.52 395.92-19.52Q397.60-17.52 397.60-13.50L397.60-13.50L397.60 0L391.93 0L391.93-13.48Q391.93-15.27 391.23-16.10Q390.53-16.93 388.75-16.93L388.75-16.93Q386.21-16.93 385.23-14.51L385.23-14.51L385.25 0L379.61 0L379.61-13.46Q379.61-15.29 378.89-16.11Q378.16-16.93 376.43-16.93L376.43-16.93Q374.02-16.93 372.95-14.94L372.95-14.94L372.95 0L367.30 0L367.30-21.13ZM411.66 0.39L411.66 0.39Q407.01 0.39 404.09-2.46Q401.17-5.31 401.17-10.06L401.17-10.06L401.17-10.61Q401.17-13.79 402.40-16.30Q403.63-18.81 405.89-20.17Q408.14-21.52 411.04-21.52L411.04-21.52Q415.37-21.52 417.86-18.79Q420.35-16.05 420.35-11.04L420.35-11.04L420.35-8.73L406.89-8.73Q407.17-6.66 408.54-5.41Q409.92-4.16 412.03-4.16L412.03-4.16Q415.29-4.16 417.13-6.52L417.13-6.52L419.90-3.42Q418.63-1.62 416.46-0.62Q414.30 0.39 411.66 0.39ZM411.02-16.95L411.02-16.95Q409.34-16.95 408.29-15.82Q407.25-14.69 406.95-12.58L406.95-12.58L414.80-12.58L414.80-13.03Q414.77-14.90 413.79-15.93Q412.81-16.95 411.02-16.95ZM435-5.84L435-5.84Q435-6.88 433.97-7.47Q432.95-8.07 430.68-8.54L430.68-8.54Q423.14-10.12 423.14-14.94L423.14-14.94Q423.14-17.75 425.48-19.64Q427.81-21.52 431.58-21.52L431.58-21.52Q435.61-21.52 438.02-19.63Q440.43-17.73 440.43-14.71L440.43-14.71L434.79-14.71Q434.79-15.92 434.00-16.71Q433.22-17.50 431.56-17.50L431.56-17.50Q430.14-17.50 429.36-16.86Q428.57-16.21 428.57-15.21L428.57-15.21Q428.57-14.28 429.46-13.70Q430.35-13.13 432.46-12.71Q434.57-12.29 436.02-11.76L436.02-11.76Q440.49-10.12 440.49-6.07L440.49-6.07Q440.49-3.18 438.01-1.40Q435.53 0.39 431.60 0.39L431.60 0.39Q428.95 0.39 426.88-0.56Q424.82-1.50 423.65-3.15Q422.48-4.80 422.48-6.72L422.48-6.72L427.83-6.72Q427.91-5.21 428.95-4.41Q429.98-3.61 431.72-3.61L431.72-3.61Q433.34-3.61 434.17-4.23Q435-4.84 435-5.84ZM455.57-5.84L455.57-5.84Q455.57-6.88 454.54-7.47Q453.52-8.07 451.25-8.54L451.25-8.54Q443.71-10.12 443.71-14.94L443.71-14.94Q443.71-17.75 446.04-19.64Q448.38-21.52 452.15-21.52L452.15-21.52Q456.17-21.52 458.58-19.63Q461.00-17.73 461.00-14.71L461.00-14.71L455.35-14.71Q455.35-15.92 454.57-16.71Q453.79-17.50 452.13-17.50L452.13-17.50Q450.70-17.50 449.92-16.86Q449.14-16.21 449.14-15.21L449.14-15.21Q449.14-14.28 450.03-13.70Q450.92-13.13 453.03-12.71Q455.14-12.29 456.58-11.76L456.58-11.76Q461.05-10.12 461.05-6.07L461.05-6.07Q461.05-3.18 458.57-1.40Q456.09 0.39 452.17 0.39L452.17 0.39Q449.51 0.39 447.45-0.56Q445.39-1.50 444.22-3.15Q443.05-4.80 443.05-6.72L443.05-6.72L448.40-6.72Q448.48-5.21 449.51-4.41Q450.55-3.61 452.29-3.61L452.29-3.61Q453.91-3.61 454.74-4.23Q455.57-4.84 455.57-5.84ZM482.64 0L476.93 0Q476.54-0.76 476.37-1.89L476.37-1.89Q474.32 0.39 471.04 0.39L471.04 0.39Q467.93 0.39 465.89-1.41Q463.85-3.20 463.85-5.94L463.85-5.94Q463.85-9.30 466.34-11.09Q468.83-12.89 473.54-12.91L473.54-12.91L476.13-12.91L476.13-14.12Q476.13-15.59 475.38-16.46Q474.63-17.34 473.01-17.34L473.01-17.34Q471.58-17.34 470.77-16.66Q469.96-15.98 469.96-14.79L469.96-14.79L464.32-14.79Q464.32-16.62 465.45-18.18Q466.58-19.75 468.65-20.63Q470.72-21.52 473.30-21.52L473.30-21.52Q477.21-21.52 479.50-19.56Q481.80-17.60 481.80-14.04L481.80-14.04L481.80-4.88Q481.82-1.88 482.64-0.33L482.64-0.33L482.64 0ZM472.27-3.93L472.27-3.93Q473.52-3.93 474.57-4.48Q475.63-5.04 476.13-5.98L476.13-5.98L476.13-9.61L474.02-9.61Q469.79-9.61 469.51-6.68L469.51-6.68L469.49-6.35Q469.49-5.29 470.23-4.61Q470.98-3.93 472.27-3.93ZM485.31-10.49L485.31-10.72Q485.31-15.59 487.63-18.55Q489.94-21.52 493.87-21.52L493.87-21.52Q497.34-21.52 499.28-19.14L499.28-19.14L499.51-21.13L504.63-21.13L504.63-0.70Q504.63 2.07 503.37 4.12Q502.11 6.17 499.82 7.25Q497.54 8.32 494.47 8.32L494.47 8.32Q492.15 8.32 489.94 7.39Q487.73 6.46 486.60 5L486.60 5L489.10 1.56Q491.21 3.93 494.22 3.93L494.22 3.93Q496.46 3.93 497.71 2.72Q498.96 1.52 498.96-0.68L498.96-0.68L498.96-1.82Q497.01 0.39 493.83 0.39L493.83 0.39Q490.02 0.39 487.67-2.59Q485.31-5.57 485.31-10.49L485.31-10.49ZM490.96-10.31L490.96-10.31Q490.96-7.44 492.11-5.81Q493.26-4.18 495.27-4.18L495.27-4.18Q497.85-4.18 498.96-6.11L498.96-6.11L498.96-15Q497.83-16.93 495.31-16.93L495.31-16.93Q493.28-16.93 492.12-15.27Q490.96-13.61 490.96-10.31ZM514.92-21.13L514.92 0L509.26 0L509.26-21.13L514.92-21.13ZM508.93-26.60L508.93-26.60Q508.93-27.87 509.78-28.69Q510.63-29.51 512.09-29.51L512.09-29.51Q513.54-29.51 514.39-28.69Q515.25-27.87 515.25-26.60L515.25-26.60Q515.25-25.31 514.38-24.49Q513.52-23.67 512.09-23.67Q510.66-23.67 509.79-24.49Q508.93-25.31 508.93-26.60ZM519.45-21.13L524.77-21.13L524.94-18.69Q527.21-21.52 531.02-21.52L531.02-21.52Q534.38-21.52 536.02-19.55Q537.66-17.58 537.70-13.65L537.70-13.65L537.70 0L532.05 0L532.05-13.52Q532.05-15.31 531.27-16.12Q530.49-16.93 528.67-16.93L528.67-16.93Q526.29-16.93 525.10-14.90L525.10-14.90L525.10 0L519.45 0L519.45-21.13ZM541.15-10.49L541.15-10.72Q541.15-15.59 543.47-18.55Q545.78-21.52 549.71-21.52L549.71-21.52Q553.18-21.52 555.12-19.14L555.12-19.14L555.35-21.13L560.47-21.13L560.47-0.70Q560.47 2.07 559.21 4.12Q557.95 6.17 555.66 7.25Q553.38 8.32 550.31 8.32L550.31 8.32Q547.99 8.32 545.78 7.39Q543.57 6.46 542.44 5L542.44 5L544.94 1.56Q547.05 3.93 550.06 3.93L550.06 3.93Q552.30 3.93 553.55 2.72Q554.80 1.52 554.80-0.68L554.80-0.68L554.80-1.82Q552.85 0.39 549.67 0.39L549.67 0.39Q545.86 0.39 543.51-2.59Q541.15-5.57 541.15-10.49L541.15-10.49ZM546.80-10.31L546.80-10.31Q546.80-7.44 547.95-5.81Q549.10-4.18 551.11-4.18L551.11-4.18Q553.69-4.18 554.80-6.11L554.80-6.11L554.80-15Q553.67-16.93 551.15-16.93L551.15-16.93Q549.12-16.93 547.96-15.27Q546.80-13.61 546.80-10.31ZM592.71 0L587.01 0Q586.62-0.76 586.45-1.89L586.45-1.89Q584.39 0.39 581.11 0.39L581.11 0.39Q578.01 0.39 575.97-1.41Q573.93-3.20 573.93-5.94L573.93-5.94Q573.93-9.30 576.42-11.09Q578.91-12.89 583.61-12.91L583.61-12.91L586.21-12.91L586.21-14.12Q586.21-15.59 585.46-16.46Q584.71-17.34 583.09-17.34L583.09-17.34Q581.66-17.34 580.85-16.66Q580.04-15.98 580.04-14.79L580.04-14.79L574.39-14.79Q574.39-16.62 575.53-18.18Q576.66-19.75 578.73-20.63Q580.80-21.52 583.38-21.52L583.38-21.52Q587.29-21.52 589.58-19.56Q591.88-17.60 591.88-14.04L591.88-14.04L591.88-4.88Q591.89-1.88 592.71-0.33L592.71-0.33L592.71 0ZM582.34-3.93L582.34-3.93Q583.59-3.93 584.65-4.48Q585.70-5.04 586.21-5.98L586.21-5.98L586.21-9.61L584.10-9.61Q579.86-9.61 579.59-6.68L579.59-6.68L579.57-6.35Q579.57-5.29 580.31-4.61Q581.05-3.93 582.34-3.93ZM615.23-10.66L615.23-10.37Q615.23-5.49 613.02-2.55Q610.80 0.39 607.03 0.39L607.03 0.39Q603.83 0.39 601.86-1.84L601.86-1.84L601.86 8.13L596.21 8.13L596.21-21.13L601.45-21.13L601.64-19.06Q603.69-21.52 606.99-21.52L606.99-21.52Q610.90-21.52 613.07-18.63Q615.23-15.74 615.23-10.66L615.23-10.66ZM609.59-10.78L609.59-10.78Q609.59-13.73 608.54-15.33Q607.50-16.93 605.51-16.93L605.51-16.93Q602.85-16.93 601.86-14.90L601.86-14.90L601.86-6.25Q602.89-4.16 605.55-4.16L605.55-4.16Q609.59-4.16 609.59-10.78ZM637.75-10.66L637.75-10.37Q637.75-5.49 635.54-2.55Q633.32 0.39 629.55 0.39L629.55 0.39Q626.35 0.39 624.38-1.84L624.38-1.84L624.38 8.13L618.73 8.13L618.73-21.13L623.96-21.13L624.16-19.06Q626.21-21.52 629.51-21.52L629.51-21.52Q633.42-21.52 635.59-18.63Q637.75-15.74 637.75-10.66L637.75-10.66ZM632.11-10.78L632.11-10.78Q632.11-13.73 631.06-15.33Q630.02-16.93 628.03-16.93L628.03-16.93Q625.37-16.93 624.38-14.90L624.38-14.90L624.38-6.25Q625.41-4.16 628.07-4.16L628.07-4.16Q632.11-4.16 632.11-10.78ZM652.70-5.84L652.70-5.84Q652.70-6.88 651.67-7.47Q650.64-8.07 648.38-8.54L648.38-8.54Q640.84-10.12 640.84-14.94L640.84-14.94Q640.84-17.75 643.17-19.64Q645.51-21.52 649.28-21.52L649.28-21.52Q653.30-21.52 655.71-19.63Q658.13-17.73 658.13-14.71L658.13-14.71L652.48-14.71Q652.48-15.92 651.70-16.71Q650.92-17.50 649.26-17.50L649.26-17.50Q647.83-17.50 647.05-16.86Q646.27-16.21 646.27-15.21L646.27-15.21Q646.27-14.28 647.16-13.70Q648.05-13.13 650.16-12.71Q652.27-12.29 653.71-11.76L653.71-11.76Q658.18-10.12 658.18-6.07L658.18-6.07Q658.18-3.18 655.70-1.40Q653.22 0.39 649.30 0.39L649.30 0.39Q646.64 0.39 644.58-0.56Q642.52-1.50 641.35-3.15Q640.18-4.80 640.18-6.72L640.18-6.72L645.53-6.72Q645.61-5.21 646.64-4.41Q647.68-3.61 649.41-3.61L649.41-3.61Q651.04-3.61 651.87-4.23Q652.70-4.84 652.70-5.84Z" transform="translate(660, 605)" fill="#ffffff" /><circle cx="620" cy="675" r="8" fill="#e94560" /><path d="M17.29-7.46L17.29-7.46Q17.29-9.12 16.11-10.01Q14.94-10.90 11.89-11.88Q8.85-12.87 7.07-13.83L7.07-13.83Q2.23-16.45 2.23-20.88L2.23-20.88Q2.23-23.18 3.53-24.99Q4.82-26.80 7.26-27.81Q9.69-28.83 12.71-28.83L12.71-28.83Q15.76-28.83 18.14-27.72Q20.53-26.62 21.85-24.61Q23.16-22.60 23.16-20.04L23.16-20.04L17.30-20.04Q17.30-21.99 16.07-23.08Q14.84-24.16 12.62-24.16L12.62-24.16Q10.47-24.16 9.28-23.25Q8.09-22.34 8.09-20.86L8.09-20.86Q8.09-19.47 9.48-18.54Q10.88-17.60 13.59-16.78L13.59-16.78Q18.59-15.27 20.88-13.05Q23.16-10.82 23.16-7.50L23.16-7.50Q23.16-3.81 20.37-1.71Q17.58 0.39 12.85 0.39L12.85 0.39Q9.57 0.39 6.88-0.81Q4.18-2.01 2.76-4.10Q1.35-6.19 1.35-8.95L1.35-8.95L7.23-8.95Q7.23-4.24 12.85-4.24L12.85-4.24Q14.94-4.24 16.11-5.09Q17.29-5.94 17.29-7.46ZM39.86 0L34.43-8.48L32.40-6.45L32.40 0L26.76 0L26.76-30L32.40-30L32.40-13.38L33.50-14.79L38.91-21.13L45.68-21.13L38.05-12.32L46.35 0L39.86 0ZM54.08-21.13L54.08 0L48.42 0L48.42-21.13L54.08-21.13ZM48.09-26.60L48.09-26.60Q48.09-27.87 48.94-28.69Q49.79-29.51 51.25-29.51L51.25-29.51Q52.70-29.51 53.55-28.69Q54.41-27.87 54.41-26.60L54.41-26.60Q54.41-25.31 53.54-24.49Q52.68-23.67 51.25-23.67Q49.82-23.67 48.96-24.49Q48.09-25.31 48.09-26.60ZM64.69-30L64.69 0L59.02 0L59.02-30L64.69-30ZM75.29-30L75.29 0L69.63 0L69.63-30L75.29-30ZM91.39-5.84L91.39-5.84Q91.39-6.88 90.36-7.47Q89.34-8.07 87.07-8.54L87.07-8.54Q79.53-10.12 79.53-14.94L79.53-14.94Q79.53-17.75 81.87-19.64Q84.20-21.52 87.97-21.52L87.97-21.52Q91.99-21.52 94.40-19.63Q96.82-17.73 96.82-14.71L96.82-14.71L91.17-14.71Q91.17-15.92 90.39-16.71Q89.61-17.50 87.95-17.50L87.95-17.50Q86.52-17.50 85.74-16.86Q84.96-16.21 84.96-15.21L84.96-15.21Q84.96-14.28 85.85-13.70Q86.74-13.13 88.85-12.71Q90.96-12.29 92.40-11.76L92.40-11.76Q96.88-10.12 96.88-6.07L96.88-6.07Q96.88-3.18 94.39-1.40Q91.91 0.39 87.99 0.39L87.99 0.39Q85.33 0.39 83.27-0.56Q81.21-1.50 80.04-3.15Q78.87-4.80 78.87-6.72L78.87-6.72L84.22-6.72Q84.30-5.21 85.33-4.41Q86.37-3.61 88.11-3.61L88.11-3.61Q89.73-3.61 90.56-4.23Q91.39-4.84 91.39-5.84ZM129.49-10.66L129.49-10.37Q129.49-5.49 127.28-2.55Q125.06 0.39 121.29 0.39L121.29 0.39Q118.09 0.39 116.11-1.84L116.11-1.84L116.11 8.13L110.47 8.13L110.47-21.13L115.70-21.13L115.90-19.06Q117.95-21.52 121.25-21.52L121.25-21.52Q125.16-21.52 127.32-18.63Q129.49-15.74 129.49-10.66L129.49-10.66ZM123.85-10.78L123.85-10.78Q123.85-13.73 122.80-15.33Q121.76-16.93 119.77-16.93L119.77-16.93Q117.11-16.93 116.11-14.90L116.11-14.90L116.11-6.25Q117.15-4.16 119.80-4.16L119.80-4.16Q123.85-4.16 123.85-10.78ZM144.94-21.27L144.86-15.84Q143.71-16.00 142.83-16.00L142.83-16.00Q139.63-16.00 138.63-13.83L138.63-13.83L138.63 0L132.99 0L132.99-21.13L138.32-21.13L138.48-18.61Q140.18-21.52 143.18-21.52L143.18-21.52Q144.12-21.52 144.94-21.27L144.94-21.27ZM146.70-10.51L146.70-10.76Q146.70-13.91 147.91-16.37Q149.12-18.83 151.40-20.18Q153.67-21.52 156.68-21.52L156.68-21.52Q160.96-21.52 163.66-18.91Q166.37-16.29 166.68-11.80L166.68-11.80L166.72-10.35Q166.72-5.49 164.00-2.55Q161.29 0.39 156.72 0.39Q152.15 0.39 149.42-2.54Q146.70-5.47 146.70-10.51L146.70-10.51ZM152.34-10.35L152.34-10.35Q152.34-7.34 153.48-5.75Q154.61-4.16 156.72-4.16L156.72-4.16Q158.77-4.16 159.92-5.73Q161.07-7.30 161.07-10.76L161.07-10.76Q161.07-13.71 159.92-15.33Q158.77-16.95 156.68-16.95L156.68-16.95Q154.61-16.95 153.48-15.34Q152.34-13.73 152.34-10.35ZM174.18-21.13L178.11-6.89L182.03-21.13L187.93-21.13L180.80 0L175.41 0L168.28-21.13L174.18-21.13ZM196.37-21.13L196.37 0L190.70 0L190.70-21.13L196.37-21.13ZM190.37-26.60L190.37-26.60Q190.37-27.87 191.22-28.69Q192.07-29.51 193.54-29.51L193.54-29.51Q194.98-29.51 195.84-28.69Q196.70-27.87 196.70-26.60L196.70-26.60Q196.70-25.31 195.83-24.49Q194.96-23.67 193.54-23.67Q192.11-23.67 191.24-24.49Q190.37-25.31 190.37-26.60ZM200.14-10.72L200.14-10.72Q200.14-15.66 202.35-18.59Q204.57-21.52 208.42-21.52L208.42-21.52Q211.50-21.52 213.52-19.22L213.52-19.22L213.52-30L219.18-30L219.18 0L214.08 0L213.81-2.25Q211.70 0.39 208.38 0.39L208.38 0.39Q204.65 0.39 202.39-2.55Q200.14-5.49 200.14-10.72ZM205.78-10.31L205.78-10.31Q205.78-7.34 206.82-5.76Q207.85-4.18 209.82-4.18L209.82-4.18Q212.44-4.18 213.52-6.39L213.52-6.39L213.52-14.73Q212.46-16.93 209.86-16.93L209.86-16.93Q205.78-16.93 205.78-10.31ZM233.28 0.39L233.28 0.39Q228.63 0.39 225.71-2.46Q222.79-5.31 222.79-10.06L222.79-10.06L222.79-10.61Q222.79-13.79 224.02-16.30Q225.25-18.81 227.51-20.17Q229.77-21.52 232.66-21.52L232.66-21.52Q236.99-21.52 239.48-18.79Q241.97-16.05 241.97-11.04L241.97-11.04L241.97-8.73L228.52-8.73Q228.79-6.66 230.17-5.41Q231.54-4.16 233.65-4.16L233.65-4.16Q236.91-4.16 238.75-6.52L238.75-6.52L241.52-3.42Q240.25-1.62 238.09-0.62Q235.92 0.39 233.28 0.39ZM232.64-16.95L232.64-16.95Q230.96-16.95 229.91-15.82Q228.87-14.69 228.57-12.58L228.57-12.58L236.43-12.58L236.43-13.03Q236.39-14.90 235.41-15.93Q234.43-16.95 232.64-16.95ZM266.58-5.84L266.58-5.84Q266.58-6.88 265.56-7.47Q264.53-8.07 262.27-8.54L262.27-8.54Q254.73-10.12 254.73-14.94L254.73-14.94Q254.73-17.75 257.06-19.64Q259.39-21.52 263.16-21.52L263.16-21.52Q267.19-21.52 269.60-19.63Q272.01-17.73 272.01-14.71L272.01-14.71L266.37-14.71Q266.37-15.92 265.59-16.71Q264.80-17.50 263.14-17.50L263.14-17.50Q261.72-17.50 260.94-16.86Q260.16-16.21 260.16-15.21L260.16-15.21Q260.16-14.28 261.04-13.70Q261.93-13.13 264.04-12.71Q266.15-12.29 267.60-11.76L267.60-11.76Q272.07-10.12 272.07-6.07L272.07-6.07Q272.07-3.18 269.59-1.40Q267.11 0.39 263.18 0.39L263.18 0.39Q260.53 0.39 258.47-0.56Q256.41-1.50 255.23-3.15Q254.06-4.80 254.06-6.72L254.06-6.72L259.41-6.72Q259.49-5.21 260.53-4.41Q261.56-3.61 263.30-3.61L263.30-3.61Q264.92-3.61 265.75-4.23Q266.58-4.84 266.58-5.84ZM294.73-10.66L294.73-10.37Q294.73-5.49 292.51-2.55Q290.29 0.39 286.52 0.39L286.52 0.39Q283.32 0.39 281.35-1.84L281.35-1.84L281.35 8.13L275.70 8.13L275.70-21.13L280.94-21.13L281.13-19.06Q283.18-21.52 286.48-21.52L286.48-21.52Q290.39-21.52 292.56-18.63Q294.73-15.74 294.73-10.66L294.73-10.66ZM289.08-10.78L289.08-10.78Q289.08-13.73 288.04-15.33Q286.99-16.93 285-16.93L285-16.93Q282.34-16.93 281.35-14.90L281.35-14.90L281.35-6.25Q282.38-4.16 285.04-4.16L285.04-4.16Q289.08-4.16 289.08-10.78ZM307.95 0.39L307.95 0.39Q303.30 0.39 300.38-2.46Q297.46-5.31 297.46-10.06L297.46-10.06L297.46-10.61Q297.46-13.79 298.69-16.30Q299.92-18.81 302.18-20.17Q304.43-21.52 307.32-21.52L307.32-21.52Q311.66-21.52 314.15-18.79Q316.64-16.05 316.64-11.04L316.64-11.04L316.64-8.73L303.18-8.73Q303.46-6.66 304.83-5.41Q306.21-4.16 308.32-4.16L308.32-4.16Q311.58-4.16 313.42-6.52L313.42-6.52L316.19-3.42Q314.92-1.62 312.75-0.62Q310.59 0.39 307.95 0.39ZM307.30-16.95L307.30-16.95Q305.63-16.95 304.58-15.82Q303.54-14.69 303.24-12.58L303.24-12.58L311.09-12.58L311.09-13.03Q311.05-14.90 310.08-15.93Q309.10-16.95 307.30-16.95ZM328.63-4.16L328.63-4.16Q330.20-4.16 331.17-5.02Q332.15-5.88 332.19-7.30L332.19-7.30L337.48-7.30Q337.46-5.16 336.31-3.37Q335.16-1.58 333.15-0.60Q331.15 0.39 328.73 0.39L328.73 0.39Q324.20 0.39 321.58-2.49Q318.96-5.37 318.96-10.45L318.96-10.45L318.96-10.82Q318.96-15.70 321.56-18.61Q324.16-21.52 328.69-21.52L328.69-21.52Q332.66-21.52 335.05-19.27Q337.44-17.01 337.48-13.26L337.48-13.26L332.19-13.26Q332.15-14.90 331.17-15.93Q330.20-16.95 328.59-16.95L328.59-16.95Q326.62-16.95 325.62-15.52Q324.61-14.08 324.61-10.86L324.61-10.86L324.61-10.27Q324.61-7.01 325.61-5.59Q326.60-4.16 328.63-4.16ZM346.66-21.13L346.66 0L341.00 0L341.00-21.13L346.66-21.13ZM340.66-26.60L340.66-26.60Q340.66-27.87 341.51-28.69Q342.36-29.51 343.83-29.51L343.83-29.51Q345.27-29.51 346.13-28.69Q346.99-27.87 346.99-26.60L346.99-26.60Q346.99-25.31 346.12-24.49Q345.25-23.67 343.83-23.67Q342.40-23.67 341.53-24.49Q340.66-25.31 340.66-26.60ZM369.26 0L363.55 0Q363.16-0.76 362.99-1.89L362.99-1.89Q360.94 0.39 357.66 0.39L357.66 0.39Q354.55 0.39 352.51-1.41Q350.47-3.20 350.47-5.94L350.47-5.94Q350.47-9.30 352.96-11.09Q355.45-12.89 360.16-12.91L360.16-12.91L362.75-12.91L362.75-14.12Q362.75-15.59 362.00-16.46Q361.25-17.34 359.63-17.34L359.63-17.34Q358.20-17.34 357.39-16.66Q356.58-15.98 356.58-14.79L356.58-14.79L350.94-14.79Q350.94-16.62 352.07-18.18Q353.20-19.75 355.27-20.63Q357.34-21.52 359.92-21.52L359.92-21.52Q363.83-21.52 366.12-19.56Q368.42-17.60 368.42-14.04L368.42-14.04L368.42-4.88Q368.44-1.88 369.26-0.33L369.26-0.33L369.26 0ZM358.89-3.93L358.89-3.93Q360.14-3.93 361.19-4.48Q362.25-5.04 362.75-5.98L362.75-5.98L362.75-9.61L360.64-9.61Q356.41-9.61 356.13-6.68L356.13-6.68L356.11-6.35Q356.11-5.29 356.86-4.61Q357.60-3.93 358.89-3.93ZM378.71-30L378.71 0L373.05 0L373.05-30L378.71-30ZM389.32-21.13L389.32 0L383.65 0L383.65-21.13L389.32-21.13ZM383.32-26.60L383.32-26.60Q383.32-27.87 384.17-28.69Q385.02-29.51 386.48-29.51L386.48-29.51Q387.93-29.51 388.79-28.69Q389.65-27.87 389.65-26.60L389.65-26.60Q389.65-25.31 388.78-24.49Q387.91-23.67 386.48-23.67Q385.06-23.67 384.19-24.49Q383.32-25.31 383.32-26.60ZM410.47-17.79L400.45-4.55L410.78-4.55L410.78 0L393.24 0L393.24-3.44L403.18-16.56L393.54-16.56L393.54-21.13L410.47-21.13L410.47-17.79ZM424.04 0.39L424.04 0.39Q419.39 0.39 416.47-2.46Q413.55-5.31 413.55-10.06L413.55-10.06L413.55-10.61Q413.55-13.79 414.79-16.30Q416.02-18.81 418.27-20.17Q420.53-21.52 423.42-21.52L423.42-21.52Q427.75-21.52 430.24-18.79Q432.73-16.05 432.73-11.04L432.73-11.04L432.73-8.73L419.28-8.73Q419.55-6.66 420.93-5.41Q422.30-4.16 424.41-4.16L424.41-4.16Q427.68-4.16 429.51-6.52L429.51-6.52L432.29-3.42Q431.02-1.62 428.85-0.62Q426.68 0.39 424.04 0.39ZM423.40-16.95L423.40-16.95Q421.72-16.95 420.67-15.82Q419.63-14.69 419.34-12.58L419.34-12.58L427.19-12.58L427.19-13.03Q427.15-14.90 426.17-15.93Q425.20-16.95 423.40-16.95ZM435.06-10.72L435.06-10.72Q435.06-15.66 437.28-18.59Q439.49-21.52 443.34-21.52L443.34-21.52Q446.43-21.52 448.44-19.22L448.44-19.22L448.44-30L454.10-30L454.10 0L449.00 0L448.73-2.25Q446.62 0.39 443.30 0.39L443.30 0.39Q439.57 0.39 437.31-2.55Q435.06-5.49 435.06-10.72ZM440.70-10.31L440.70-10.31Q440.70-7.34 441.74-5.76Q442.77-4.18 444.75-4.18L444.75-4.18Q447.36-4.18 448.44-6.39L448.44-6.39L448.44-14.73Q447.38-16.93 444.79-16.93L444.79-16.93Q440.70-16.93 440.70-10.31ZM477.23-4.16L477.23-4.16Q478.79-4.16 479.77-5.02Q480.74-5.88 480.78-7.30L480.78-7.30L486.07-7.30Q486.05-5.16 484.90-3.37Q483.75-1.58 481.75-0.60Q479.75 0.39 477.32 0.39L477.32 0.39Q472.79 0.39 470.18-2.49Q467.56-5.37 467.56-10.45L467.56-10.45L467.56-10.82Q467.56-15.70 470.16-18.61Q472.75-21.52 477.29-21.52L477.29-21.52Q481.25-21.52 483.64-19.27Q486.04-17.01 486.07-13.26L486.07-13.26L480.78-13.26Q480.74-14.90 479.77-15.93Q478.79-16.95 477.19-16.95L477.19-16.95Q475.21-16.95 474.21-15.52Q473.20-14.08 473.20-10.86L473.20-10.86L473.20-10.27Q473.20-7.01 474.20-5.59Q475.20-4.16 477.23-4.16ZM507.25 0L501.54 0Q501.15-0.76 500.98-1.89L500.98-1.89Q498.93 0.39 495.64 0.39L495.64 0.39Q492.54 0.39 490.50-1.41Q488.46-3.20 488.46-5.94L488.46-5.94Q488.46-9.30 490.95-11.09Q493.44-12.89 498.14-12.91L498.14-12.91L500.74-12.91L500.74-14.12Q500.74-15.59 499.99-16.46Q499.24-17.34 497.62-17.34L497.62-17.34Q496.19-17.34 495.38-16.66Q494.57-15.98 494.57-14.79L494.57-14.79L488.93-14.79Q488.93-16.62 490.06-18.18Q491.19-19.75 493.26-20.63Q495.33-21.52 497.91-21.52L497.91-21.52Q501.82-21.52 504.11-19.56Q506.41-17.60 506.41-14.04L506.41-14.04L506.41-4.88Q506.43-1.88 507.25-0.33L507.25-0.33L507.25 0ZM496.88-3.93L496.88-3.93Q498.13-3.93 499.18-4.48Q500.23-5.04 500.74-5.98L500.74-5.98L500.74-9.61L498.63-9.61Q494.39-9.61 494.12-6.68L494.12-6.68L494.10-6.35Q494.10-5.29 494.84-4.61Q495.59-3.93 496.88-3.93ZM529.77-10.66L529.77-10.37Q529.77-5.49 527.55-2.55Q525.33 0.39 521.56 0.39L521.56 0.39Q518.36 0.39 516.39-1.84L516.39-1.84L516.39 8.13L510.74 8.13L510.74-21.13L515.98-21.13L516.17-19.06Q518.22-21.52 521.52-21.52L521.52-21.52Q525.43-21.52 527.60-18.63Q529.77-15.74 529.77-10.66L529.77-10.66ZM524.12-10.78L524.12-10.78Q524.12-13.73 523.08-15.33Q522.03-16.93 520.04-16.93L520.04-16.93Q517.38-16.93 516.39-14.90L516.39-14.90L516.39-6.25Q517.42-4.16 520.08-4.16L520.08-4.16Q524.12-4.16 524.12-10.78ZM551.21 0L545.51 0Q545.12-0.76 544.94-1.89L544.94-1.89Q542.89 0.39 539.61 0.39L539.61 0.39Q536.50 0.39 534.46-1.41Q532.42-3.20 532.42-5.94L532.42-5.94Q532.42-9.30 534.91-11.09Q537.40-12.89 542.11-12.91L542.11-12.91L544.71-12.91L544.71-14.12Q544.71-15.59 543.96-16.46Q543.20-17.34 541.58-17.34L541.58-17.34Q540.16-17.34 539.35-16.66Q538.54-15.98 538.54-14.79L538.54-14.79L532.89-14.79Q532.89-16.62 534.02-18.18Q535.16-19.75 537.23-20.63Q539.30-21.52 541.88-21.52L541.88-21.52Q545.78-21.52 548.08-19.56Q550.37-17.60 550.37-14.04L550.37-14.04L550.37-4.88Q550.39-1.88 551.21-0.33L551.21-0.33L551.21 0ZM540.84-3.93L540.84-3.93Q542.09-3.93 543.14-4.48Q544.20-5.04 544.71-5.98L544.71-5.98L544.71-9.61L542.60-9.61Q538.36-9.61 538.09-6.68L538.09-6.68L538.07-6.35Q538.07-5.29 538.81-4.61Q539.55-3.93 540.84-3.93ZM573.75-10.68L573.75-10.37Q573.75-5.29 571.58-2.45Q569.41 0.39 565.53 0.39L565.53 0.39Q562.09 0.39 560.04-2.25L560.04-2.25L559.79 0L554.71 0L554.71-30L560.35-30L560.35-19.24Q562.30-21.52 565.49-21.52L565.49-21.52Q569.36-21.52 571.55-18.68Q573.75-15.84 573.75-10.68L573.75-10.68ZM568.11-10.78L568.11-10.78Q568.11-13.98 567.09-15.46Q566.07-16.93 564.06-16.93L564.06-16.93Q561.37-16.93 560.35-14.73L560.35-14.73L560.35-6.39Q561.39-4.16 564.10-4.16L564.10-4.16Q566.84-4.16 567.70-6.86L567.70-6.86Q568.11-8.14 568.11-10.78ZM583.18-21.13L583.18 0L577.52 0L577.52-21.13L583.18-21.13ZM577.19-26.60L577.19-26.60Q577.19-27.87 578.04-28.69Q578.89-29.51 580.35-29.51L580.35-29.51Q581.80-29.51 582.66-28.69Q583.52-27.87 583.52-26.60L583.52-26.60Q583.52-25.31 582.65-24.49Q581.78-23.67 580.35-23.67Q578.93-23.67 578.06-24.49Q577.19-25.31 577.19-26.60ZM593.79-30L593.79 0L588.13 0L588.13-30L593.79-30ZM604.39-21.13L604.39 0L598.73 0L598.73-21.13L604.39-21.13ZM598.40-26.60L598.40-26.60Q598.40-27.87 599.25-28.69Q600.10-29.51 601.56-29.51L601.56-29.51Q603.01-29.51 603.87-28.69Q604.73-27.87 604.73-26.60L604.73-26.60Q604.73-25.31 603.86-24.49Q602.99-23.67 601.56-23.67Q600.14-23.67 599.27-24.49Q598.40-25.31 598.40-26.60ZM610.16-26.33L615.80-26.33L615.80-21.13L619.41-21.13L619.41-16.99L615.80-16.99L615.80-6.45Q615.80-5.27 616.25-4.77Q616.70-4.26 617.97-4.26L617.97-4.26Q618.91-4.26 619.63-4.39L619.63-4.39L619.63-0.12Q617.97 0.39 616.21 0.39L616.21 0.39Q610.27 0.39 610.16-5.61L610.16-5.61L610.16-16.99L607.07-16.99L607.07-21.13L610.16-21.13L610.16-26.33ZM628.52-21.13L628.52 0L622.85 0L622.85-21.13L628.52-21.13ZM622.52-26.60L622.52-26.60Q622.52-27.87 623.37-28.69Q624.22-29.51 625.68-29.51L625.68-29.51Q627.13-29.51 627.99-28.69Q628.85-27.87 628.85-26.60L628.85-26.60Q628.85-25.31 627.98-24.49Q627.11-23.67 625.68-23.67Q624.26-23.67 623.39-24.49Q622.52-25.31 622.52-26.60ZM642.89 0.39L642.89 0.39Q638.24 0.39 635.32-2.46Q632.40-5.31 632.40-10.06L632.40-10.06L632.40-10.61Q632.40-13.79 633.63-16.30Q634.86-18.81 637.12-20.17Q639.38-21.52 642.27-21.52L642.27-21.52Q646.60-21.52 649.09-18.79Q651.58-16.05 651.58-11.04L651.58-11.04L651.58-8.73L638.13-8.73Q638.40-6.66 639.78-5.41Q641.15-4.16 643.26-4.16L643.26-4.16Q646.52-4.16 648.36-6.52L648.36-6.52L651.13-3.42Q649.86-1.62 647.70-0.62Q645.53 0.39 642.89 0.39ZM642.25-16.95L642.25-16.95Q640.57-16.95 639.52-15.82Q638.48-14.69 638.18-12.58L638.18-12.58L646.04-12.58L646.04-13.03Q646.00-14.90 645.02-15.93Q644.04-16.95 642.25-16.95ZM666.23-5.84L666.23-5.84Q666.23-6.88 665.21-7.47Q664.18-8.07 661.91-8.54L661.91-8.54Q654.38-10.12 654.38-14.94L654.38-14.94Q654.38-17.75 656.71-19.64Q659.04-21.52 662.81-21.52L662.81-21.52Q666.84-21.52 669.25-19.63Q671.66-17.73 671.66-14.71L671.66-14.71L666.02-14.71Q666.02-15.92 665.23-16.71Q664.45-17.50 662.79-17.50L662.79-17.50Q661.37-17.50 660.59-16.86Q659.80-16.21 659.80-15.21L659.80-15.21Q659.80-14.28 660.69-13.70Q661.58-13.13 663.69-12.71Q665.80-12.29 667.25-11.76L667.25-11.76Q671.72-10.12 671.72-6.07L671.72-6.07Q671.72-3.18 669.24-1.40Q666.76 0.39 662.83 0.39L662.83 0.39Q660.18 0.39 658.12-0.56Q656.05-1.50 654.88-3.15Q653.71-4.80 653.71-6.72L653.71-6.72L659.06-6.72Q659.14-5.21 660.18-4.41Q661.21-3.61 662.95-3.61L662.95-3.61Q664.57-3.61 665.40-4.23Q666.23-4.84 666.23-5.84Z" transform="translate(660, 675)" fill="#ffffff" /><circle cx="620" cy="745" r="8" fill="#e94560" /><path d="M17.29-7.46L17.29-7.46Q17.29-9.12 16.11-10.01Q14.94-10.90 11.89-11.88Q8.85-12.87 7.07-13.83L7.07-13.83Q2.23-16.45 2.23-20.88L2.23-20.88Q2.23-23.18 3.53-24.99Q4.82-26.80 7.26-27.81Q9.69-28.83 12.71-28.83L12.71-28.83Q15.76-28.83 18.14-27.72Q20.53-26.62 21.85-24.61Q23.16-22.60 23.16-20.04L23.16-20.04L17.30-20.04Q17.30-21.99 16.07-23.08Q14.84-24.16 12.62-24.16L12.62-24.16Q10.47-24.16 9.28-23.25Q8.09-22.34 8.09-20.86L8.09-20.86Q8.09-19.47 9.48-18.54Q10.88-17.60 13.59-16.78L13.59-16.78Q18.59-15.27 20.88-13.05Q23.16-10.82 23.16-7.50L23.16-7.50Q23.16-3.81 20.37-1.71Q17.58 0.39 12.85 0.39L12.85 0.39Q9.57 0.39 6.88-0.81Q4.18-2.01 2.76-4.10Q1.35-6.19 1.35-8.95L1.35-8.95L7.23-8.95Q7.23-4.24 12.85-4.24L12.85-4.24Q14.94-4.24 16.11-5.09Q17.29-5.94 17.29-7.46ZM36.48 0.39L36.48 0.39Q31.84 0.39 28.92-2.46Q26.00-5.31 26.00-10.06L26.00-10.06L26.00-10.61Q26.00-13.79 27.23-16.30Q28.46-18.81 30.71-20.17Q32.97-21.52 35.86-21.52L35.86-21.52Q40.20-21.52 42.69-18.79Q45.18-16.05 45.18-11.04L45.18-11.04L45.18-8.73L31.72-8.73Q31.99-6.66 33.37-5.41Q34.75-4.16 36.86-4.16L36.86-4.16Q40.12-4.16 41.95-6.52L41.95-6.52L44.73-3.42Q43.46-1.62 41.29-0.62Q39.12 0.39 36.48 0.39ZM35.84-16.95L35.84-16.95Q34.16-16.95 33.12-15.82Q32.07-14.69 31.78-12.58L31.78-12.58L39.63-12.58L39.63-13.03Q39.59-14.90 38.61-15.93Q37.64-16.95 35.84-16.95ZM59.82-5.84L59.82-5.84Q59.82-6.88 58.80-7.47Q57.77-8.07 55.51-8.54L55.51-8.54Q47.97-10.12 47.97-14.94L47.97-14.94Q47.97-17.75 50.30-19.64Q52.64-21.52 56.41-21.52L56.41-21.52Q60.43-21.52 62.84-19.63Q65.25-17.73 65.25-14.71L65.25-14.71L59.61-14.71Q59.61-15.92 58.83-16.71Q58.05-17.50 56.39-17.50L56.39-17.50Q54.96-17.50 54.18-16.86Q53.40-16.21 53.40-15.21L53.40-15.21Q53.40-14.28 54.29-13.70Q55.18-13.13 57.29-12.71Q59.39-12.29 60.84-11.76L60.84-11.76Q65.31-10.12 65.31-6.07L65.31-6.07Q65.31-3.18 62.83-1.40Q60.35 0.39 56.43 0.39L56.43 0.39Q53.77 0.39 51.71-0.56Q49.65-1.50 48.48-3.15Q47.30-4.80 47.30-6.72L47.30-6.72L52.66-6.72Q52.73-5.21 53.77-4.41Q54.80-3.61 56.54-3.61L56.54-3.61Q58.16-3.61 58.99-4.23Q59.82-4.84 59.82-5.84ZM80.39-5.84L80.39-5.84Q80.39-6.88 79.37-7.47Q78.34-8.07 76.07-8.54L76.07-8.54Q68.54-10.12 68.54-14.94L68.54-14.94Q68.54-17.75 70.87-19.64Q73.20-21.52 76.97-21.52L76.97-21.52Q81.00-21.52 83.41-19.63Q85.82-17.73 85.82-14.71L85.82-14.71L80.18-14.71Q80.18-15.92 79.39-16.71Q78.61-17.50 76.95-17.50L76.95-17.50Q75.53-17.50 74.75-16.86Q73.96-16.21 73.96-15.21L73.96-15.21Q73.96-14.28 74.85-13.70Q75.74-13.13 77.85-12.71Q79.96-12.29 81.41-11.76L81.41-11.76Q85.88-10.12 85.88-6.07L85.88-6.07Q85.88-3.18 83.40-1.40Q80.92 0.39 76.99 0.39L76.99 0.39Q74.34 0.39 72.28-0.56Q70.21-1.50 69.04-3.15Q67.87-4.80 67.87-6.72L67.87-6.72L73.22-6.72Q73.30-5.21 74.34-4.41Q75.37-3.61 77.11-3.61L77.11-3.61Q78.73-3.61 79.56-4.23Q80.39-4.84 80.39-5.84ZM95.47-21.13L95.47 0L89.80 0L89.80-21.13L95.47-21.13ZM89.47-26.60L89.47-26.60Q89.47-27.87 90.32-28.69Q91.17-29.51 92.64-29.51L92.64-29.51Q94.08-29.51 94.94-28.69Q95.80-27.87 95.80-26.60L95.80-26.60Q95.80-25.31 94.93-24.49Q94.06-23.67 92.64-23.67Q91.21-23.67 90.34-24.49Q89.47-25.31 89.47-26.60ZM99.24-10.51L99.24-10.76Q99.24-13.91 100.45-16.37Q101.66-18.83 103.94-20.18Q106.21-21.52 109.22-21.52L109.22-21.52Q113.50-21.52 116.20-18.91Q118.91-16.29 119.22-11.80L119.22-11.80L119.26-10.35Q119.26-5.49 116.54-2.55Q113.83 0.39 109.26 0.39Q104.69 0.39 101.96-2.54Q99.24-5.47 99.24-10.51L99.24-10.51ZM104.88-10.35L104.88-10.35Q104.88-7.34 106.02-5.75Q107.15-4.16 109.26-4.16L109.26-4.16Q111.31-4.16 112.46-5.73Q113.61-7.30 113.61-10.76L113.61-10.76Q113.61-13.71 112.46-15.33Q111.31-16.95 109.22-16.95L109.22-16.95Q107.15-16.95 106.02-15.34Q104.88-13.73 104.88-10.35ZM122.62-21.13L127.93-21.13L128.11-18.69Q130.37-21.52 134.18-21.52L134.18-21.52Q137.54-21.52 139.18-19.55Q140.82-17.58 140.86-13.65L140.86-13.65L140.86 0L135.21 0L135.21-13.52Q135.21-15.31 134.43-16.12Q133.65-16.93 131.84-16.93L131.84-16.93Q129.45-16.93 128.26-14.90L128.26-14.90L128.26 0L122.62 0L122.62-21.13ZM156.58-5.84L156.58-5.84Q156.58-6.88 155.56-7.47Q154.53-8.07 152.27-8.54L152.27-8.54Q144.73-10.12 144.73-14.94L144.73-14.94Q144.73-17.75 147.06-19.64Q149.39-21.52 153.16-21.52L153.16-21.52Q157.19-21.52 159.60-19.63Q162.01-17.73 162.01-14.71L162.01-14.71L156.37-14.71Q156.37-15.92 155.59-16.71Q154.80-17.50 153.14-17.50L153.14-17.50Q151.72-17.50 150.94-16.86Q150.16-16.21 150.16-15.21L150.16-15.21Q150.16-14.28 151.04-13.70Q151.93-13.13 154.04-12.71Q156.15-12.29 157.60-11.76L157.60-11.76Q162.07-10.12 162.07-6.07L162.07-6.07Q162.07-3.18 159.59-1.40Q157.11 0.39 153.18 0.39L153.18 0.39Q150.53 0.39 148.47-0.56Q146.41-1.50 145.23-3.15Q144.06-4.80 144.06-6.72L144.06-6.72L149.41-6.72Q149.49-5.21 150.53-4.41Q151.56-3.61 153.30-3.61L153.30-3.61Q154.92-3.61 155.75-4.23Q156.58-4.84 156.58-5.84ZM175.66-21.13L180.96-21.13L181.13-18.77Q183.38-21.52 187.21-21.52L187.21-21.52Q191.29-21.52 192.81-18.30L192.81-18.30Q195.04-21.52 199.16-21.52L199.16-21.52Q202.60-21.52 204.28-19.52Q205.96-17.52 205.96-13.50L205.96-13.50L205.96 0L200.29 0L200.29-13.48Q200.29-15.27 199.59-16.10Q198.89-16.93 197.11-16.93L197.11-16.93Q194.57-16.93 193.59-14.51L193.59-14.51L193.61 0L187.97 0L187.97-13.46Q187.97-15.29 187.25-16.11Q186.52-16.93 184.79-16.93L184.79-16.93Q182.38-16.93 181.31-14.94L181.31-14.94L181.31 0L175.66 0L175.66-21.13ZM228.24 0L222.54 0Q222.15-0.76 221.97-1.89L221.97-1.89Q219.92 0.39 216.64 0.39L216.64 0.39Q213.54 0.39 211.49-1.41Q209.45-3.20 209.45-5.94L209.45-5.94Q209.45-9.30 211.94-11.09Q214.43-12.89 219.14-12.91L219.14-12.91L221.74-12.91L221.74-14.12Q221.74-15.59 220.99-16.46Q220.23-17.34 218.61-17.34L218.61-17.34Q217.19-17.34 216.38-16.66Q215.57-15.98 215.57-14.79L215.57-14.79L209.92-14.79Q209.92-16.62 211.05-18.18Q212.19-19.75 214.26-20.63Q216.33-21.52 218.91-21.52L218.91-21.52Q222.81-21.52 225.11-19.56Q227.40-17.60 227.40-14.04L227.40-14.04L227.40-4.88Q227.42-1.88 228.24-0.33L228.24-0.33L228.24 0ZM217.87-3.93L217.87-3.93Q219.12-3.93 220.18-4.48Q221.23-5.04 221.74-5.98L221.74-5.98L221.74-9.61L219.63-9.61Q215.39-9.61 215.12-6.68L215.12-6.68L215.10-6.35Q215.10-5.29 215.84-4.61Q216.58-3.93 217.87-3.93ZM231.62-21.13L236.93-21.13L237.11-18.69Q239.38-21.52 243.18-21.52L243.18-21.52Q246.54-21.52 248.18-19.55Q249.82-17.58 249.86-13.65L249.86-13.65L249.86 0L244.22 0L244.22-13.52Q244.22-15.31 243.44-16.12Q242.66-16.93 240.84-16.93L240.84-16.93Q238.46-16.93 237.27-14.90L237.27-14.90L237.27 0L231.62 0L231.62-21.13ZM272.09 0L266.39 0Q266.00-0.76 265.82-1.89L265.82-1.89Q263.77 0.39 260.49 0.39L260.49 0.39Q257.38 0.39 255.34-1.41Q253.30-3.20 253.30-5.94L253.30-5.94Q253.30-9.30 255.79-11.09Q258.28-12.89 262.99-12.91L262.99-12.91L265.59-12.91L265.59-14.12Q265.59-15.59 264.83-16.46Q264.08-17.34 262.46-17.34L262.46-17.34Q261.04-17.34 260.22-16.66Q259.41-15.98 259.41-14.79L259.41-14.79L253.77-14.79Q253.77-16.62 254.90-18.18Q256.04-19.75 258.11-20.63Q260.18-21.52 262.75-21.52L262.75-21.52Q266.66-21.52 268.96-19.56Q271.25-17.60 271.25-14.04L271.25-14.04L271.25-4.88Q271.27-1.88 272.09-0.33L272.09-0.33L272.09 0ZM261.72-3.93L261.72-3.93Q262.97-3.93 264.02-4.48Q265.08-5.04 265.59-5.98L265.59-5.98L265.59-9.61L263.48-9.61Q259.24-9.61 258.96-6.68L258.96-6.68L258.95-6.35Q258.95-5.29 259.69-4.61Q260.43-3.93 261.72-3.93ZM274.77-10.49L274.77-10.72Q274.77-15.59 277.08-18.55Q279.39-21.52 283.32-21.52L283.32-21.52Q286.80-21.52 288.73-19.14L288.73-19.14L288.96-21.13L294.08-21.13L294.08-0.70Q294.08 2.07 292.82 4.12Q291.56 6.17 289.28 7.25Q286.99 8.32 283.93 8.32L283.93 8.32Q281.60 8.32 279.39 7.39Q277.19 6.46 276.05 5L276.05 5L278.55 1.56Q280.66 3.93 283.67 3.93L283.67 3.93Q285.92 3.93 287.17 2.72Q288.42 1.52 288.42-0.68L288.42-0.68L288.42-1.82Q286.46 0.39 283.28 0.39L283.28 0.39Q279.47 0.39 277.12-2.59Q274.77-5.57 274.77-10.49L274.77-10.49ZM280.41-10.31L280.41-10.31Q280.41-7.44 281.56-5.81Q282.71-4.18 284.73-4.18L284.73-4.18Q287.30-4.18 288.42-6.11L288.42-6.11L288.42-15Q287.29-16.93 284.77-16.93L284.77-16.93Q282.73-16.93 281.57-15.27Q280.41-13.61 280.41-10.31ZM308.14 0.39L308.14 0.39Q303.50 0.39 300.58-2.46Q297.66-5.31 297.66-10.06L297.66-10.06L297.66-10.61Q297.66-13.79 298.89-16.30Q300.12-18.81 302.37-20.17Q304.63-21.52 307.52-21.52L307.52-21.52Q311.86-21.52 314.35-18.79Q316.84-16.05 316.84-11.04L316.84-11.04L316.84-8.73L303.38-8.73Q303.65-6.66 305.03-5.41Q306.41-4.16 308.52-4.16L308.52-4.16Q311.78-4.16 313.61-6.52L313.61-6.52L316.39-3.42Q315.12-1.62 312.95-0.62Q310.78 0.39 308.14 0.39ZM307.50-16.95L307.50-16.95Q305.82-16.95 304.78-15.82Q303.73-14.69 303.44-12.58L303.44-12.58L311.29-12.58L311.29-13.03Q311.25-14.90 310.27-15.93Q309.30-16.95 307.50-16.95ZM341.45-5.84L341.45-5.84Q341.45-6.88 340.42-7.47Q339.39-8.07 337.13-8.54L337.13-8.54Q329.59-10.12 329.59-14.94L329.59-14.94Q329.59-17.75 331.92-19.64Q334.26-21.52 338.03-21.52L338.03-21.52Q342.05-21.52 344.46-19.63Q346.88-17.73 346.88-14.71L346.88-14.71L341.23-14.71Q341.23-15.92 340.45-16.71Q339.67-17.50 338.01-17.50L338.01-17.50Q336.58-17.50 335.80-16.86Q335.02-16.21 335.02-15.21L335.02-15.21Q335.02-14.28 335.91-13.70Q336.80-13.13 338.91-12.71Q341.02-12.29 342.46-11.76L342.46-11.76Q346.93-10.12 346.93-6.07L346.93-6.07Q346.93-3.18 344.45-1.40Q341.97 0.39 338.05 0.39L338.05 0.39Q335.39 0.39 333.33-0.56Q331.27-1.50 330.10-3.15Q328.93-4.80 328.93-6.72L328.93-6.72L334.28-6.72Q334.36-5.21 335.39-4.41Q336.43-3.61 338.16-3.61L338.16-3.61Q339.79-3.61 340.62-4.23Q341.45-4.84 341.45-5.84ZM360.29 0.39L360.29 0.39Q355.64 0.39 352.72-2.46Q349.80-5.31 349.80-10.06L349.80-10.06L349.80-10.61Q349.80-13.79 351.04-16.30Q352.27-18.81 354.52-20.17Q356.78-21.52 359.67-21.52L359.67-21.52Q364.00-21.52 366.49-18.79Q368.98-16.05 368.98-11.04L368.98-11.04L368.98-8.73L355.53-8.73Q355.80-6.66 357.18-5.41Q358.55-4.16 360.66-4.16L360.66-4.16Q363.93-4.16 365.76-6.52L365.76-6.52L368.54-3.42Q367.27-1.62 365.10-0.62Q362.93 0.39 360.29 0.39ZM359.65-16.95L359.65-16.95Q357.97-16.95 356.92-15.82Q355.88-14.69 355.59-12.58L355.59-12.58L363.44-12.58L363.44-13.03Q363.40-14.90 362.42-15.93Q361.45-16.95 359.65-16.95ZM391.21-10.66L391.21-10.37Q391.21-5.49 388.99-2.55Q386.78 0.39 383.01 0.39L383.01 0.39Q379.80 0.39 377.83-1.84L377.83-1.84L377.83 8.13L372.19 8.13L372.19-21.13L377.42-21.13L377.62-19.06Q379.67-21.52 382.97-21.52L382.97-21.52Q386.88-21.52 389.04-18.63Q391.21-15.74 391.21-10.66L391.21-10.66ZM385.57-10.78L385.57-10.78Q385.57-13.73 384.52-15.33Q383.48-16.93 381.48-16.93L381.48-16.93Q378.83-16.93 377.83-14.90L377.83-14.90L377.83-6.25Q378.87-4.16 381.52-4.16L381.52-4.16Q385.57-4.16 385.57-10.78ZM412.66 0L406.95 0Q406.56-0.76 406.39-1.89L406.39-1.89Q404.34 0.39 401.05 0.39L401.05 0.39Q397.95 0.39 395.91-1.41Q393.87-3.20 393.87-5.94L393.87-5.94Q393.87-9.30 396.36-11.09Q398.85-12.89 403.55-12.91L403.55-12.91L406.15-12.91L406.15-14.12Q406.15-15.59 405.40-16.46Q404.65-17.34 403.03-17.34L403.03-17.34Q401.60-17.34 400.79-16.66Q399.98-15.98 399.98-14.79L399.98-14.79L394.34-14.79Q394.34-16.62 395.47-18.18Q396.60-19.75 398.67-20.63Q400.74-21.52 403.32-21.52L403.32-21.52Q407.23-21.52 409.52-19.56Q411.82-17.60 411.82-14.04L411.82-14.04L411.82-4.88Q411.84-1.88 412.66-0.33L412.66-0.33L412.66 0ZM402.29-3.93L402.29-3.93Q403.54-3.93 404.59-4.48Q405.64-5.04 406.15-5.98L406.15-5.98L406.15-9.61L404.04-9.61Q399.80-9.61 399.53-6.68L399.53-6.68L399.51-6.35Q399.51-5.29 400.25-4.61Q401.00-3.93 402.29-3.93ZM428.11-21.27L428.03-15.84Q426.88-16.00 426.00-16.00L426.00-16.00Q422.79-16.00 421.80-13.83L421.80-13.83L421.80 0L416.15 0L416.15-21.13L421.48-21.13L421.64-18.61Q423.34-21.52 426.35-21.52L426.35-21.52Q427.29-21.52 428.11-21.27L428.11-21.27ZM448.69 0L442.99 0Q442.60-0.76 442.42-1.89L442.42-1.89Q440.37 0.39 437.09 0.39L437.09 0.39Q433.98 0.39 431.94-1.41Q429.90-3.20 429.90-5.94L429.90-5.94Q429.90-9.30 432.39-11.09Q434.88-12.89 439.59-12.91L439.59-12.91L442.19-12.91L442.19-14.12Q442.19-15.59 441.44-16.46Q440.68-17.34 439.06-17.34L439.06-17.34Q437.64-17.34 436.83-16.66Q436.02-15.98 436.02-14.79L436.02-14.79L430.37-14.79Q430.37-16.62 431.50-18.18Q432.64-19.75 434.71-20.63Q436.78-21.52 439.36-21.52L439.36-21.52Q443.26-21.52 445.56-19.56Q447.85-17.60 447.85-14.04L447.85-14.04L447.85-4.88Q447.87-1.88 448.69-0.33L448.69-0.33L448.69 0ZM438.32-3.93L438.32-3.93Q439.57-3.93 440.63-4.48Q441.68-5.04 442.19-5.98L442.19-5.98L442.19-9.61L440.08-9.61Q435.84-9.61 435.57-6.68L435.57-6.68L435.55-6.35Q435.55-5.29 436.29-4.61Q437.03-3.93 438.32-3.93ZM453.30-26.33L458.95-26.33L458.95-21.13L462.56-21.13L462.56-16.99L458.95-16.99L458.95-6.45Q458.95-5.27 459.39-4.77Q459.84-4.26 461.11-4.26L461.11-4.26Q462.05-4.26 462.77-4.39L462.77-4.39L462.77-0.12Q461.11 0.39 459.36 0.39L459.36 0.39Q453.42 0.39 453.30-5.61L453.30-5.61L453.30-16.99L450.21-16.99L450.21-21.13L453.30-21.13L453.30-26.33ZM475.43 0.39L475.43 0.39Q470.78 0.39 467.86-2.46Q464.94-5.31 464.94-10.06L464.94-10.06L464.94-10.61Q464.94-13.79 466.17-16.30Q467.40-18.81 469.66-20.17Q471.91-21.52 474.80-21.52L474.80-21.52Q479.14-21.52 481.63-18.79Q484.12-16.05 484.12-11.04L484.12-11.04L484.12-8.73L470.66-8.73Q470.94-6.66 472.31-5.41Q473.69-4.16 475.80-4.16L475.80-4.16Q479.06-4.16 480.90-6.52L480.90-6.52L483.67-3.42Q482.40-1.62 480.23-0.62Q478.07 0.39 475.43 0.39ZM474.79-16.95L474.79-16.95Q473.11-16.95 472.06-15.82Q471.02-14.69 470.72-12.58L470.72-12.58L478.57-12.58L478.57-13.03Q478.54-14.90 477.56-15.93Q476.58-16.95 474.79-16.95ZM506.07-4.16L506.07-4.16Q507.64-4.16 508.61-5.02Q509.59-5.88 509.63-7.30L509.63-7.30L514.92-7.30Q514.90-5.16 513.75-3.37Q512.60-1.58 510.60-0.60Q508.59 0.39 506.17 0.39L506.17 0.39Q501.64 0.39 499.02-2.49Q496.41-5.37 496.41-10.45L496.41-10.45L496.41-10.82Q496.41-15.70 499.00-18.61Q501.60-21.52 506.13-21.52L506.13-21.52Q510.10-21.52 512.49-19.27Q514.88-17.01 514.92-13.26L514.92-13.26L509.63-13.26Q509.59-14.90 508.61-15.93Q507.64-16.95 506.04-16.95L506.04-16.95Q504.06-16.95 503.06-15.52Q502.05-14.08 502.05-10.86L502.05-10.86L502.05-10.27Q502.05-7.01 503.05-5.59Q504.04-4.16 506.07-4.16ZM517.27-10.51L517.27-10.76Q517.27-13.91 518.48-16.37Q519.69-18.83 521.96-20.18Q524.24-21.52 527.25-21.52L527.25-21.52Q531.52-21.52 534.23-18.91Q536.93-16.29 537.25-11.80L537.25-11.80L537.29-10.35Q537.29-5.49 534.57-2.55Q531.86 0.39 527.29 0.39Q522.71 0.39 519.99-2.54Q517.27-5.47 517.27-10.51L517.27-10.51ZM522.91-10.35L522.91-10.35Q522.91-7.34 524.04-5.75Q525.18-4.16 527.29-4.16L527.29-4.16Q529.34-4.16 530.49-5.73Q531.64-7.30 531.64-10.76L531.64-10.76Q531.64-13.71 530.49-15.33Q529.34-16.95 527.25-16.95L527.25-16.95Q525.18-16.95 524.04-15.34Q522.91-13.73 522.91-10.35ZM540.64-21.13L545.96-21.13L546.13-18.69Q548.40-21.52 552.21-21.52L552.21-21.52Q555.57-21.52 557.21-19.55Q558.85-17.58 558.89-13.65L558.89-13.65L558.89 0L553.24 0L553.24-13.52Q553.24-15.31 552.46-16.12Q551.68-16.93 549.86-16.93L549.86-16.93Q547.48-16.93 546.29-14.90L546.29-14.90L546.29 0L540.64 0L540.64-21.13ZM564.28-26.33L569.92-26.33L569.92-21.13L573.54-21.13L573.54-16.99L569.92-16.99L569.92-6.45Q569.92-5.27 570.37-4.77Q570.82-4.26 572.09-4.26L572.09-4.26Q573.03-4.26 573.75-4.39L573.75-4.39L573.75-0.12Q572.09 0.39 570.33 0.39L570.33 0.39Q564.39 0.39 564.28-5.61L564.28-5.61L564.28-16.99L561.19-16.99L561.19-21.13L564.28-21.13L564.28-26.33ZM586.41 0.39L586.41 0.39Q581.76 0.39 578.84-2.46Q575.92-5.31 575.92-10.06L575.92-10.06L575.92-10.61Q575.92-13.79 577.15-16.30Q578.38-18.81 580.63-20.17Q582.89-21.52 585.78-21.52L585.78-21.52Q590.12-21.52 592.61-18.79Q595.10-16.05 595.10-11.04L595.10-11.04L595.10-8.73L581.64-8.73Q581.91-6.66 583.29-5.41Q584.67-4.16 586.78-4.16L586.78-4.16Q590.04-4.16 591.88-6.52L591.88-6.52L594.65-3.42Q593.38-1.62 591.21-0.62Q589.04 0.39 586.41 0.39ZM585.76-16.95L585.76-16.95Q584.08-16.95 583.04-15.82Q581.99-14.69 581.70-12.58L581.70-12.58L589.55-12.58L589.55-13.03Q589.51-14.90 588.54-15.93Q587.56-16.95 585.76-16.95ZM602.87-21.13L606.35-14.82L609.90-21.13L615.94-21.13L609.92-10.78L616.19 0L610.14 0L606.37-6.64L602.62 0L596.54 0L602.81-10.78L596.82-21.13L602.87-21.13ZM619.77-26.33L625.41-26.33L625.41-21.13L629.02-21.13L629.02-16.99L625.41-16.99L625.41-6.45Q625.41-5.27 625.86-4.77Q626.31-4.26 627.58-4.26L627.58-4.26Q628.52-4.26 629.24-4.39L629.24-4.39L629.24-0.12Q627.58 0.39 625.82 0.39L625.82 0.39Q619.88 0.39 619.77-5.61L619.77-5.61L619.77-16.99L616.68-16.99L616.68-21.13L619.77-21.13L619.77-26.33ZM643.61-5.84L643.61-5.84Q643.61-6.88 642.59-7.47Q641.56-8.07 639.30-8.54L639.30-8.54Q631.76-10.12 631.76-14.94L631.76-14.94Q631.76-17.75 634.09-19.64Q636.43-21.52 640.20-21.52L640.20-21.52Q644.22-21.52 646.63-19.63Q649.04-17.73 649.04-14.71L649.04-14.71L643.40-14.71Q643.40-15.92 642.62-16.71Q641.84-17.50 640.18-17.50L640.18-17.50Q638.75-17.50 637.97-16.86Q637.19-16.21 637.19-15.21L637.19-15.21Q637.19-14.28 638.08-13.70Q638.96-13.13 641.07-12.71Q643.18-12.29 644.63-11.76L644.63-11.76Q649.10-10.12 649.10-6.07L649.10-6.07Q649.10-3.18 646.62-1.40Q644.14 0.39 640.21 0.39L640.21 0.39Q637.56 0.39 635.50-0.56Q633.44-1.50 632.27-3.15Q631.09-4.80 631.09-6.72L631.09-6.72L636.45-6.72Q636.52-5.21 637.56-4.41Q638.59-3.61 640.33-3.61L640.33-3.61Q641.95-3.61 642.78-4.23Q643.61-4.84 643.61-5.84Z" transform="translate(660, 745)" fill="#ffffff" />
  <text x="960" y="1030" font-family="Arial" font-size="24" fill="#666" text-anchor="middle">OpenClaw Documentation</text>
  <line x1="880" y1="1045" x2="1040" y2="1045" stroke="#e94560" stroke-width="3" opacity="0.6"/>
</svg>