<?xml version="1.0" encoding="UTF-8"?>
<svg width="1920" height="1080" xmlns="http://www.w3.org/2000/svg">
  <defs>
    <linearGradient id="bg" x1="0%" y1="0%" x2="100%" y2="100%">
      <stop offset="0%" style="stop-color:#1a1a2e;stop-opacity:1" />
      <stop offset="100%" style="stop-color:#0f0f1a;stop-opacity:1" />
    </linearGradient>
  </defs>
  <rect width="100%" height="100%" fill="url(#bg)"/>
  <circle cx="1920" cy="0" r="600" fill="#e94560" opacity="0.1"/>
  <circle cx="0" cy="1080" r="400" fill="#e94560" opacity="0.1"/>
  <rect width="1920" height="15" fill="#e94560"/>
  <path d="M22.80-11.37L29.84-11.37Q29.44-5.86 25.77-2.70Q22.10 0.47 16.10 0.47L16.10 0.47Q9.54 0.47 5.78-3.95Q2.02-8.37 2.02-16.08L2.02-16.08L2.02-18.16Q2.02-23.09 3.75-26.84Q5.48-30.59 8.71-32.59Q11.93-34.59 16.20-34.59L16.20-34.59Q22.10-34.59 25.71-31.43Q29.32-28.27 29.88-22.55L29.88-22.55L22.85-22.55Q22.59-25.85 21.01-27.34Q19.43-28.83 16.20-28.83L16.20-28.83Q12.68-28.83 10.93-26.31Q9.19-23.79 9.14-18.49L9.14-18.49L9.14-15.91Q9.14-10.38 10.82-7.83Q12.49-5.27 16.10-5.27L16.10-5.27Q19.36-5.27 20.96-6.76Q22.57-8.25 22.80-11.37L22.80-11.37ZM40.62-36L40.62-22.59Q43.31-25.83 47.39-25.83L47.39-25.83Q55.64-25.83 55.76-16.24L55.76-16.24L55.76 0L48.98 0L48.98-16.05Q48.98-18.23 48.05-19.28Q47.11-20.32 44.93-20.32L44.93-20.32Q41.95-20.32 40.62-18.02L40.62-18.02L40.62 0L33.84 0L33.84-36L40.62-36ZM82.41 0L75.56 0Q75.09-0.91 74.88-2.27L74.88-2.27Q72.42 0.47 68.48 0.47L68.48 0.47Q64.76 0.47 62.31-1.69Q59.86-3.84 59.86-7.13L59.86-7.13Q59.86-11.16 62.85-13.31Q65.84-15.47 71.48-15.49L71.48-15.49L74.60-15.49L74.60-16.95Q74.60-18.70 73.70-19.76Q72.80-20.81 70.85-20.81L70.85-20.81Q69.14-20.81 68.17-19.99Q67.20-19.17 67.20-17.74L67.20-17.74L60.42-17.74Q60.42-19.95 61.78-21.82Q63.14-23.70 65.63-24.76Q68.11-25.83 71.20-25.83L71.20-25.83Q75.89-25.83 78.64-23.47Q81.40-21.12 81.40-16.85L81.40-16.85L81.40-5.86Q81.42-2.25 82.41-0.40L82.41-0.40L82.41 0ZM69.96-4.71L69.96-4.71Q71.46-4.71 72.73-5.38Q73.99-6.05 74.60-7.17L74.60-7.17L74.60-11.53L72.07-11.53Q66.98-11.53 66.66-8.02L66.66-8.02L66.63-7.62Q66.63-6.35 67.52-5.53Q68.41-4.71 69.96-4.71ZM86.46-25.36L92.84-25.36L93.05-22.43Q95.77-25.83 100.34-25.83L100.34-25.83Q104.37-25.83 106.34-23.46Q108.30-21.09 108.35-16.38L108.35-16.38L108.35 0L101.58 0L101.58-16.22Q101.58-18.38 100.64-19.35Q99.70-20.32 97.52-20.32L97.52-20.32Q94.66-20.32 93.23-17.88L93.23-17.88L93.23 0L86.46 0L86.46-25.36ZM133.69-11.37L140.72-11.37Q140.32-5.86 136.65-2.70Q132.98 0.47 126.98 0.47L126.98 0.47Q120.42 0.47 116.66-3.95Q112.90-8.37 112.90-16.08L112.90-16.08L112.90-18.16Q112.90-23.09 114.63-26.84Q116.37-30.59 119.59-32.59Q122.81-34.59 127.08-34.59L127.08-34.59Q132.98-34.59 136.59-31.43Q140.20-28.27 140.77-22.55L140.77-22.55L133.73-22.55Q133.48-25.85 131.89-27.34Q130.31-28.83 127.08-28.83L127.08-28.83Q123.56-28.83 121.82-26.31Q120.07-23.79 120.02-18.49L120.02-18.49L120.02-15.91Q120.02-10.38 121.70-7.83Q123.38-5.27 126.98-5.27L126.98-5.27Q130.24-5.27 131.85-6.76Q133.45-8.25 133.69-11.37L133.69-11.37ZM152.04-36L152.04 0L145.24 0L145.24-36L152.04-36ZM179.16 0L172.31 0Q171.84-0.91 171.63-2.27L171.63-2.27Q169.17 0.47 165.23 0.47L165.23 0.47Q161.51 0.47 159.06-1.69Q156.61-3.84 156.61-7.13L156.61-7.13Q156.61-11.16 159.60-13.31Q162.59-15.47 168.23-15.49L168.23-15.49L171.35-15.49L171.35-16.95Q171.35-18.70 170.45-19.76Q169.55-20.81 167.60-20.81L167.60-20.81Q165.89-20.81 164.92-19.99Q163.95-19.17 163.95-17.74L163.95-17.74L157.17-17.74Q157.17-19.95 158.53-21.82Q159.89-23.70 162.38-24.76Q164.86-25.83 167.95-25.83L167.95-25.83Q172.64-25.83 175.39-23.47Q178.15-21.12 178.15-16.85L178.15-16.85L178.15-5.86Q178.17-2.25 179.16-0.40L179.16-0.40L179.16 0ZM166.71-4.71L166.71-4.71Q168.21-4.71 169.48-5.38Q170.74-6.05 171.35-7.17L171.35-7.17L171.35-11.53L168.82-11.53Q163.73-11.53 163.41-8.02L163.41-8.02L163.38-7.62Q163.38-6.35 164.27-5.53Q165.16-4.71 166.71-4.71ZM200.79-25.36L205.41-9.21L208.73-25.36L215.27-25.36L208.80 0L203.13 0L198.33-15.96L193.52 0L187.88 0L181.41-25.36L187.95-25.36L191.25-9.23L195.89-25.36L200.79-25.36Z" transform="translate(60, 85)" fill="#e94560" />
  <text x="1860" y="85" font-family="Arial" font-size="28" fill="#888" text-anchor="end">SLIDE 10/10</text>
  <path d="M50.08-29.88L50.08-7.19Q46.91-3.40 41.13-1.31Q35.35 0.78 28.32 0.78L28.32 0.78Q20.94 0.78 15.37-2.44Q9.80-5.66 6.78-11.80Q3.75-17.93 3.67-26.21L3.67-26.21L3.67-30.08Q3.67-38.59 6.54-44.82Q9.41-51.05 14.82-54.36Q20.23-57.66 27.50-57.66L27.50-57.66Q37.62-57.66 43.32-52.83Q49.02-48.01 50.08-38.79L50.08-38.79L38.67-38.79Q37.89-43.67 35.21-45.94Q32.54-48.20 27.85-48.20L27.85-48.20Q21.88-48.20 18.75-43.71Q15.63-39.22 15.59-30.35L15.59-30.35L15.59-26.72Q15.59-17.77 18.98-13.20Q22.38-8.63 28.95-8.63L28.95-8.63Q35.55-8.63 38.36-11.45L38.36-11.45L38.36-21.25L27.70-21.25L27.70-29.88L50.08-29.88ZM78.28 0.78L78.28 0.78Q68.98 0.78 63.14-4.92Q57.30-10.63 57.30-20.12L57.30-20.12L57.30-21.21Q57.30-27.58 59.77-32.60Q62.23-37.62 66.74-40.33Q71.25-43.05 77.03-43.05L77.03-43.05Q85.70-43.05 90.68-37.58Q95.66-32.11 95.66-22.07L95.66-22.07L95.66-17.46L68.75-17.46Q69.30-13.32 72.05-10.82Q74.80-8.32 79.02-8.32L79.02-8.32Q85.55-8.32 89.22-13.05L89.22-13.05L94.77-6.84Q92.23-3.24 87.89-1.23Q83.55 0.78 78.28 0.78ZM76.99-33.91L76.99-33.91Q73.63-33.91 71.54-31.64Q69.45-29.38 68.87-25.16L68.87-25.16L84.57-25.16L84.57-26.05Q84.49-29.80 82.54-31.86Q80.59-33.91 76.99-33.91ZM104.30-52.66L115.59-52.66L115.59-42.27L122.81-42.27L122.81-33.98L115.59-33.98L115.59-12.89Q115.59-10.55 116.48-9.53Q117.38-8.52 119.92-8.52L119.92-8.52Q121.80-8.52 123.24-8.79L123.24-8.79L123.24-0.23Q119.92 0.78 116.41 0.78L116.41 0.78Q104.53 0.78 104.30-11.21L104.30-11.21L104.30-33.98L98.13-33.98L98.13-42.27L104.30-42.27L104.30-52.66ZM179.26-14.92L179.26-14.92Q179.26-18.24 176.91-20.02Q174.57-21.80 168.48-23.77Q162.38-25.74 158.83-27.66L158.83-27.66Q149.14-32.89 149.14-41.76L149.14-41.76Q149.14-46.37 151.74-49.98Q154.34-53.59 159.20-55.63Q164.06-57.66 170.12-57.66L170.12-57.66Q176.21-57.66 180.98-55.45Q185.74-53.24 188.38-49.22Q191.02-45.20 191.02-40.08L191.02-40.08L179.30-40.08Q179.30-43.98 176.84-46.15Q174.38-48.32 169.92-48.32L169.92-48.32Q165.63-48.32 163.24-46.50Q160.86-44.69 160.86-41.72L160.86-41.72Q160.86-38.95 163.65-37.07Q166.45-35.20 171.88-33.55L171.88-33.55Q181.88-30.55 186.45-26.09Q191.02-21.64 191.02-15L191.02-15Q191.02-7.62 185.43-3.42Q179.84 0.78 170.39 0.78L170.39 0.78Q163.83 0.78 158.44-1.62Q153.05-4.02 150.21-8.20Q147.38-12.38 147.38-17.89L147.38-17.89L159.14-17.89Q159.14-8.48 170.39-8.48L170.39-8.48Q174.57-8.48 176.91-10.18Q179.26-11.88 179.26-14.92ZM200.43-52.66L211.72-52.66L211.72-42.27L218.95-42.27L218.95-33.98L211.72-33.98L211.72-12.89Q211.72-10.55 212.62-9.53Q213.52-8.52 216.05-8.52L216.05-8.52Q217.93-8.52 219.38-8.79L219.38-8.79L219.38-0.23Q216.05 0.78 212.54 0.78L212.54 0.78Q200.66 0.78 200.43-11.21L200.43-11.21L200.43-33.98L194.26-33.98L194.26-42.27L200.43-42.27L200.43-52.66ZM261.13 0L249.73 0Q248.95-1.52 248.59-3.79L248.59-3.79Q244.49 0.78 237.93 0.78L237.93 0.78Q231.72 0.78 227.64-2.81Q223.55-6.41 223.55-11.88L223.55-11.88Q223.55-18.59 228.54-22.19Q233.52-25.78 242.93-25.82L242.93-25.82L248.13-25.82L248.13-28.24Q248.13-31.17 246.62-32.93Q245.12-34.69 241.88-34.69L241.88-34.69Q239.02-34.69 237.40-33.32Q235.78-31.95 235.78-29.57L235.78-29.57L224.49-29.57Q224.49-33.24 226.76-36.37Q229.02-39.49 233.16-41.27Q237.30-43.05 242.46-43.05L242.46-43.05Q250.27-43.05 254.86-39.12Q259.45-35.20 259.45-28.09L259.45-28.09L259.45-9.77Q259.49-3.75 261.13-0.66L261.13-0.66L261.13 0ZM240.39-7.85L240.39-7.85Q242.89-7.85 245-8.96Q247.11-10.08 248.13-11.95L248.13-11.95L248.13-19.22L243.91-19.22Q235.43-19.22 234.88-13.36L234.88-13.36L234.84-12.70Q234.84-10.59 236.33-9.22Q237.81-7.85 240.39-7.85ZM292.03-42.54L291.88-31.68Q289.57-31.99 287.81-31.99L287.81-31.99Q281.41-31.99 279.41-27.66L279.41-27.66L279.41 0L268.13 0L268.13-42.27L278.79-42.27L279.10-37.23Q282.50-43.05 288.52-43.05L288.52-43.05Q290.39-43.05 292.03-42.54L292.03-42.54ZM299.53-52.66L310.82-52.66L310.82-42.27L318.05-42.27L318.05-33.98L310.82-33.98L310.82-12.89Q310.82-10.55 311.72-9.53Q312.62-8.52 315.16-8.52L315.16-8.52Q317.03-8.52 318.48-8.79L318.48-8.79L318.48-0.23Q315.16 0.78 311.64 0.78L311.64 0.78Q299.77 0.78 299.53-11.21L299.53-11.21L299.53-33.98L293.36-33.98L293.36-42.27L299.53-42.27L299.53-52.66ZM343.79 0.78L343.79 0.78Q334.49 0.78 328.65-4.92Q322.81-10.63 322.81-20.12L322.81-20.12L322.81-21.21Q322.81-27.58 325.27-32.60Q327.73-37.62 332.25-40.33Q336.76-43.05 342.54-43.05L342.54-43.05Q351.21-43.05 356.19-37.58Q361.17-32.11 361.17-22.07L361.17-22.07L361.17-17.46L334.26-17.46Q334.80-13.32 337.56-10.82Q340.31-8.32 344.53-8.32L344.53-8.32Q351.05-8.32 354.73-13.05L354.73-13.05L360.27-6.84Q357.73-3.24 353.40-1.23Q349.06 0.78 343.79 0.78ZM342.50-33.91L342.50-33.91Q339.14-33.91 337.05-31.64Q334.96-29.38 334.38-25.16L334.38-25.16L350.08-25.16L350.08-26.05Q350-29.80 348.05-31.86Q346.09-33.91 342.50-33.91ZM365.82-21.45L365.82-21.45Q365.82-31.33 370.25-37.19Q374.69-43.05 382.38-43.05L382.38-43.05Q388.55-43.05 392.58-38.44L392.58-38.44L392.58-60L403.91-60L403.91 0L393.71 0L393.16-4.49Q388.95 0.78 382.30 0.78L382.30 0.78Q374.84 0.78 370.33-5.10Q365.82-10.98 365.82-21.45ZM377.11-20.63L377.11-20.63Q377.11-14.69 379.18-11.52Q381.25-8.36 385.20-8.36L385.20-8.36Q390.43-8.36 392.58-12.77L392.58-12.77L392.58-29.45Q390.47-33.87 385.27-33.87L385.27-33.87Q377.11-33.87 377.11-20.63Z" transform="translate(755.83984375, 420)" fill="#ffffff" />
  <line x1="660" y1="480" x2="1260" y2="480" stroke="#e94560" stroke-width="6"/>
  <circle cx="620" cy="535" r="8" fill="#e94560" /><path d="M2.05-21.13L7.36-21.13L7.54-18.69Q9.80-21.52 13.61-21.52L13.61-21.52Q16.97-21.52 18.61-19.55Q20.25-17.58 20.29-13.65L20.29-13.65L20.29 0L14.65 0L14.65-13.52Q14.65-15.31 13.87-16.12Q13.09-16.93 11.27-16.93L11.27-16.93Q8.89-16.93 7.70-14.90L7.70-14.90L7.70 0L2.05 0L2.05-21.13ZM43.59-10.66L43.59-10.37Q43.59-5.49 41.38-2.55Q39.16 0.39 35.39 0.39L35.39 0.39Q32.19 0.39 30.21-1.84L30.21-1.84L30.21 8.13L24.57 8.13L24.57-21.13L29.80-21.13L30-19.06Q32.05-21.52 35.35-21.52L35.35-21.52Q39.26-21.52 41.43-18.63Q43.59-15.74 43.59-10.66L43.59-10.66ZM37.95-10.78L37.95-10.78Q37.95-13.73 36.90-15.33Q35.86-16.93 33.87-16.93L33.87-16.93Q31.21-16.93 30.21-14.90L30.21-14.90L30.21-6.25Q31.25-4.16 33.91-4.16L33.91-4.16Q37.95-4.16 37.95-10.78ZM47.09-21.13L52.38-21.13L52.56-18.77Q54.80-21.52 58.63-21.52L58.63-21.52Q62.71-21.52 64.24-18.30L64.24-18.30Q66.46-21.52 70.59-21.52L70.59-21.52Q74.02-21.52 75.70-19.52Q77.38-17.52 77.38-13.50L77.38-13.50L77.38 0L71.72 0L71.72-13.48Q71.72-15.27 71.02-16.10Q70.31-16.93 68.54-16.93L68.54-16.93Q66.00-16.93 65.02-14.51L65.02-14.51L65.04 0L59.39 0L59.39-13.46Q59.39-15.29 58.67-16.11Q57.95-16.93 56.21-16.93L56.21-16.93Q53.81-16.93 52.73-14.94L52.73-14.94L52.73 0L47.09 0L47.09-21.13ZM97.64-21.13L97.64 0L91.97 0L91.97-21.13L97.64-21.13ZM91.64-26.60L91.64-26.60Q91.64-27.87 92.49-28.69Q93.34-29.51 94.80-29.51L94.80-29.51Q96.25-29.51 97.11-28.69Q97.97-27.87 97.97-26.60L97.97-26.60Q97.97-25.31 97.10-24.49Q96.23-23.67 94.80-23.67Q93.38-23.67 92.51-24.49Q91.64-25.31 91.64-26.60ZM123.22-14.45L123.22-9.90L112.23-9.90L112.23-14.45L123.22-14.45ZM126.93-10.49L126.93-10.72Q126.93-15.59 129.25-18.55Q131.56-21.52 135.49-21.52L135.49-21.52Q138.96-21.52 140.90-19.14L140.90-19.14L141.13-21.13L146.25-21.13L146.25-0.70Q146.25 2.07 144.99 4.12Q143.73 6.17 141.45 7.25Q139.16 8.32 136.09 8.32L136.09 8.32Q133.77 8.32 131.56 7.39Q129.36 6.46 128.22 5L128.22 5L130.72 1.56Q132.83 3.93 135.84 3.93L135.84 3.93Q138.09 3.93 139.34 2.72Q140.59 1.52 140.59-0.68L140.59-0.68L140.59-1.82Q138.63 0.39 135.45 0.39L135.45 0.39Q131.64 0.39 129.29-2.59Q126.93-5.57 126.93-10.49L126.93-10.49ZM132.58-10.31L132.58-10.31Q132.58-7.44 133.73-5.81Q134.88-4.18 136.89-4.18L136.89-4.18Q139.47-4.18 140.59-6.11L140.59-6.11L140.59-15Q139.45-16.93 136.93-16.93L136.93-16.93Q134.90-16.93 133.74-15.27Q132.58-13.61 132.58-10.31ZM159.67-10.51L159.67-10.76Q159.67-13.91 160.88-16.37Q162.09-18.83 164.37-20.18Q166.64-21.52 169.65-21.52L169.65-21.52Q173.93-21.52 176.63-18.91Q179.34-16.29 179.65-11.80L179.65-11.80L179.69-10.35Q179.69-5.49 176.97-2.55Q174.26 0.39 169.69 0.39Q165.12 0.39 162.39-2.54Q159.67-5.47 159.67-10.51L159.67-10.51ZM165.31-10.35L165.31-10.35Q165.31-7.34 166.45-5.75Q167.58-4.16 169.69-4.16L169.69-4.16Q171.74-4.16 172.89-5.73Q174.04-7.30 174.04-10.76L174.04-10.76Q174.04-13.71 172.89-15.33Q171.74-16.95 169.65-16.95L169.65-16.95Q167.58-16.95 166.45-15.34Q165.31-13.73 165.31-10.35ZM202.19-10.66L202.19-10.37Q202.19-5.49 199.97-2.55Q197.75 0.39 193.98 0.39L193.98 0.39Q190.78 0.39 188.81-1.84L188.81-1.84L188.81 8.13L183.16 8.13L183.16-21.13L188.40-21.13L188.59-19.06Q190.64-21.52 193.95-21.52L193.95-21.52Q197.85-21.52 200.02-18.63Q202.19-15.74 202.19-10.66L202.19-10.66ZM196.54-10.78L196.54-10.78Q196.54-13.73 195.50-15.33Q194.45-16.93 192.46-16.93L192.46-16.93Q189.80-16.93 188.81-14.90L188.81-14.90L188.81-6.25Q189.84-4.16 192.50-4.16L192.50-4.16Q196.54-4.16 196.54-10.78ZM215.41 0.39L215.41 0.39Q210.76 0.39 207.84-2.46Q204.92-5.31 204.92-10.06L204.92-10.06L204.92-10.61Q204.92-13.79 206.15-16.30Q207.38-18.81 209.64-20.17Q211.89-21.52 214.79-21.52L214.79-21.52Q219.12-21.52 221.61-18.79Q224.10-16.05 224.10-11.04L224.10-11.04L224.10-8.73L210.64-8.73Q210.92-6.66 212.29-5.41Q213.67-4.16 215.78-4.16L215.78-4.16Q219.04-4.16 220.88-6.52L220.88-6.52L223.65-3.42Q222.38-1.62 220.21-0.62Q218.05 0.39 215.41 0.39ZM214.77-16.95L214.77-16.95Q213.09-16.95 212.04-15.82Q211.00-14.69 210.70-12.58L210.70-12.58L218.55-12.58L218.55-13.03Q218.52-14.90 217.54-15.93Q216.56-16.95 214.77-16.95ZM227.19-21.13L232.50-21.13L232.68-18.69Q234.94-21.52 238.75-21.52L238.75-21.52Q242.11-21.52 243.75-19.55Q245.39-17.58 245.43-13.65L245.43-13.65L245.43 0L239.79 0L239.79-13.52Q239.79-15.31 239.00-16.12Q238.22-16.93 236.41-16.93L236.41-16.93Q234.02-16.93 232.83-14.90L232.83-14.90L232.83 0L227.19 0L227.19-21.13ZM258.50-4.16L258.50-4.16Q260.06-4.16 261.04-5.02Q262.01-5.88 262.05-7.30L262.05-7.30L267.34-7.30Q267.32-5.16 266.17-3.37Q265.02-1.58 263.02-0.60Q261.02 0.39 258.59 0.39L258.59 0.39Q254.06 0.39 251.45-2.49Q248.83-5.37 248.83-10.45L248.83-10.45L248.83-10.82Q248.83-15.70 251.43-18.61Q254.02-21.52 258.55-21.52L258.55-21.52Q262.52-21.52 264.91-19.27Q267.30-17.01 267.34-13.26L267.34-13.26L262.05-13.26Q262.01-14.90 261.04-15.93Q260.06-16.95 258.46-16.95L258.46-16.95Q256.48-16.95 255.48-15.52Q254.47-14.08 254.47-10.86L254.47-10.86L254.47-10.27Q254.47-7.01 255.47-5.59Q256.46-4.16 258.50-4.16ZM276.52-30L276.52 0L270.86 0L270.86-30L276.52-30ZM299.12 0L293.42 0Q293.03-0.76 292.85-1.89L292.85-1.89Q290.80 0.39 287.52 0.39L287.52 0.39Q284.41 0.39 282.37-1.41Q280.33-3.20 280.33-5.94L280.33-5.94Q280.33-9.30 282.82-11.09Q285.31-12.89 290.02-12.91L290.02-12.91L292.62-12.91L292.62-14.12Q292.62-15.59 291.87-16.46Q291.11-17.34 289.49-17.34L289.49-17.34Q288.07-17.34 287.26-16.66Q286.45-15.98 286.45-14.79L286.45-14.79L280.80-14.79Q280.80-16.62 281.93-18.18Q283.07-19.75 285.14-20.63Q287.21-21.52 289.79-21.52L289.79-21.52Q293.69-21.52 295.99-19.56Q298.28-17.60 298.28-14.04L298.28-14.04L298.28-4.88Q298.30-1.88 299.12-0.33L299.12-0.33L299.12 0ZM288.75-3.93L288.75-3.93Q290-3.93 291.05-4.48Q292.11-5.04 292.62-5.98L292.62-5.98L292.62-9.61L290.51-9.61Q286.27-9.61 286.00-6.68L286.00-6.68L285.98-6.35Q285.98-5.29 286.72-4.61Q287.46-3.93 288.75-3.93ZM317.15-21.13L321.00-7.68L323.77-21.13L329.22-21.13L323.83 0L319.10 0L315.10-13.30L311.09 0L306.39 0L301.00-21.13L306.45-21.13L309.20-7.70L313.07-21.13L317.15-21.13Z" transform="translate(660, 535)" fill="#ffffff" /><circle cx="620" cy="605" r="8" fill="#e94560" /><path d="M19.00-9.47L24.86-9.47Q24.53-4.88 21.47-2.25Q18.42 0.39 13.42 0.39L13.42 0.39Q7.95 0.39 4.81-3.29Q1.68-6.97 1.68-13.40L1.68-13.40L1.68-15.14Q1.68-19.24 3.13-22.36Q4.57-25.49 7.26-27.16Q9.94-28.83 13.50-28.83L13.50-28.83Q18.42-28.83 21.43-26.19Q24.43-23.55 24.90-18.79L24.90-18.79L19.04-18.79Q18.83-21.54 17.51-22.78Q16.19-24.02 13.50-24.02L13.50-24.02Q10.57-24.02 9.11-21.92Q7.66-19.82 7.62-15.41L7.62-15.41L7.62-13.26Q7.62-8.65 9.01-6.52Q10.41-4.39 13.42-4.39L13.42-4.39Q16.13-4.39 17.47-5.63Q18.81-6.88 19.00-9.47L19.00-9.47ZM27.46-10.51L27.46-10.76Q27.46-13.91 28.67-16.37Q29.88-18.83 32.16-20.18Q34.43-21.52 37.44-21.52L37.44-21.52Q41.72-21.52 44.42-18.91Q47.13-16.29 47.44-11.80L47.44-11.80L47.48-10.35Q47.48-5.49 44.77-2.55Q42.05 0.39 37.48 0.39Q32.91 0.39 30.19-2.54Q27.46-5.47 27.46-10.51L27.46-10.51ZM33.11-10.35L33.11-10.35Q33.11-7.34 34.24-5.75Q35.37-4.16 37.48-4.16L37.48-4.16Q39.53-4.16 40.68-5.73Q41.84-7.30 41.84-10.76L41.84-10.76Q41.84-13.71 40.68-15.33Q39.53-16.95 37.44-16.95L37.44-16.95Q35.37-16.95 34.24-15.34Q33.11-13.73 33.11-10.35ZM50.84-21.13L56.15-21.13L56.33-18.69Q58.59-21.52 62.40-21.52L62.40-21.52Q65.76-21.52 67.40-19.55Q69.04-17.58 69.08-13.65L69.08-13.65L69.08 0L63.44 0L63.44-13.52Q63.44-15.31 62.66-16.12Q61.88-16.93 60.06-16.93L60.06-16.93Q57.68-16.93 56.48-14.90L56.48-14.90L56.48 0L50.84 0L50.84-21.13ZM80.39 0L74.73 0L74.73-16.99L71.58-16.99L71.58-21.13L74.73-21.13L74.73-22.11Q74.77-26.09 77.18-28.25Q79.59-30.41 83.98-30.41L83.98-30.41Q86.62-30.41 90.39-29.26L90.39-29.26L89.57-24.59Q87.66-25.16 86.60-25.32Q85.55-25.49 84.34-25.49L84.34-25.49Q80.39-25.49 80.39-21.99L80.39-21.99L80.39-21.13L84.55-21.13L84.55-16.99L80.39-16.99L80.39 0ZM93.03-21.13L93.03 0L87.36 0L87.36-21.13L93.03-21.13ZM96.88-10.49L96.88-10.72Q96.88-15.59 99.19-18.55Q101.50-21.52 105.43-21.52L105.43-21.52Q108.91-21.52 110.84-19.14L110.84-19.14L111.07-21.13L116.19-21.13L116.19-0.70Q116.19 2.07 114.93 4.12Q113.67 6.17 111.39 7.25Q109.10 8.32 106.04 8.32L106.04 8.32Q103.71 8.32 101.50 7.39Q99.30 6.46 98.16 5L98.16 5L100.66 1.56Q102.77 3.93 105.78 3.93L105.78 3.93Q108.03 3.93 109.28 2.72Q110.53 1.52 110.53-0.68L110.53-0.68L110.53-1.82Q108.57 0.39 105.39 0.39L105.39 0.39Q101.58 0.39 99.23-2.59Q96.88-5.57 96.88-10.49L96.88-10.49ZM102.52-10.31L102.52-10.31Q102.52-7.44 103.67-5.81Q104.82-4.18 106.84-4.18L106.84-4.18Q109.41-4.18 110.53-6.11L110.53-6.11L110.53-15Q109.39-16.93 106.88-16.93L106.88-16.93Q104.84-16.93 103.68-15.27Q102.52-13.61 102.52-10.31ZM133.34 0L133.18-2.15Q131.09 0.39 127.40 0.39L127.40 0.39Q124.00 0.39 122.22-1.56Q120.43-3.52 120.39-7.29L120.39-7.29L120.39-21.13L126.04-21.13L126.04-7.48Q126.04-4.18 129.04-4.18L129.04-4.18Q131.91-4.18 132.99-6.17L132.99-6.17L132.99-21.13L138.65-21.13L138.65 0L133.34 0ZM154.86-21.27L154.79-15.84Q153.63-16.00 152.75-16.00L152.75-16.00Q149.55-16.00 148.55-13.83L148.55-13.83L148.55 0L142.91 0L142.91-21.13L148.24-21.13L148.40-18.61Q150.10-21.52 153.11-21.52L153.11-21.52Q154.04-21.52 154.86-21.27L154.86-21.27ZM167.23 0.39L167.23 0.39Q162.58 0.39 159.66-2.46Q156.74-5.31 156.74-10.06L156.74-10.06L156.74-10.61Q156.74-13.79 157.97-16.30Q159.20-18.81 161.46-20.17Q163.71-21.52 166.60-21.52L166.60-21.52Q170.94-21.52 173.43-18.79Q175.92-16.05 175.92-11.04L175.92-11.04L175.92-8.73L162.46-8.73Q162.73-6.66 164.11-5.41Q165.49-4.16 167.60-4.16L167.60-4.16Q170.86-4.16 172.70-6.52L172.70-6.52L175.47-3.42Q174.20-1.62 172.03-0.62Q169.86 0.39 167.23 0.39ZM166.58-16.95L166.58-16.95Q164.90-16.95 163.86-15.82Q162.81-14.69 162.52-12.58L162.52-12.58L170.37-12.58L170.37-13.03Q170.33-14.90 169.36-15.93Q168.38-16.95 166.58-16.95ZM193.05-21.13L196.97-7.99L200.88-21.13L206.93-21.13L198.44 3.28L197.97 4.39Q196.07 8.54 191.72 8.54L191.72 8.54Q190.49 8.54 189.22 8.16L189.22 8.16L189.22 3.89L190.08 3.91Q191.68 3.91 192.47 3.42Q193.26 2.93 193.71 1.80L193.71 1.80L194.38 0.06L186.97-21.13L193.05-21.13ZM208.28-10.51L208.28-10.76Q208.28-13.91 209.49-16.37Q210.70-18.83 212.98-20.18Q215.25-21.52 218.26-21.52L218.26-21.52Q222.54-21.52 225.24-18.91Q227.95-16.29 228.26-11.80L228.26-11.80L228.30-10.35Q228.30-5.49 225.59-2.55Q222.87 0.39 218.30 0.39Q213.73 0.39 211.01-2.54Q208.28-5.47 208.28-10.51L208.28-10.51ZM213.93-10.35L213.93-10.35Q213.93-7.34 215.06-5.75Q216.19-4.16 218.30-4.16L218.30-4.16Q220.35-4.16 221.50-5.73Q222.66-7.30 222.66-10.76L222.66-10.76Q222.66-13.71 221.50-15.33Q220.35-16.95 218.26-16.95L218.26-16.95Q216.19-16.95 215.06-15.34Q213.93-13.73 213.93-10.35ZM244.59 0L244.43-2.15Q242.34 0.39 238.65 0.39L238.65 0.39Q235.25 0.39 233.47-1.56Q231.68-3.52 231.64-7.29L231.64-7.29L231.64-21.13L237.29-21.13L237.29-7.48Q237.29-4.18 240.29-4.18L240.29-4.18Q243.16-4.18 244.24-6.17L244.24-6.17L244.24-21.13L249.90-21.13L249.90 0L244.59 0ZM266.11-21.27L266.04-15.84Q264.88-16.00 264.00-16.00L264.00-16.00Q260.80-16.00 259.80-13.83L259.80-13.83L259.80 0L254.16 0L254.16-21.13L259.49-21.13L259.65-18.61Q261.35-21.52 264.36-21.52L264.36-21.52Q265.29-21.52 266.11-21.27L266.11-21.27ZM287.50-4.16L287.50-4.16Q289.06-4.16 290.04-5.02Q291.02-5.88 291.05-7.30L291.05-7.30L296.35-7.30Q296.33-5.16 295.18-3.37Q294.02-1.58 292.02-0.60Q290.02 0.39 287.60 0.39L287.60 0.39Q283.07 0.39 280.45-2.49Q277.83-5.37 277.83-10.45L277.83-10.45L277.83-10.82Q277.83-15.70 280.43-18.61Q283.03-21.52 287.56-21.52L287.56-21.52Q291.52-21.52 293.92-19.27Q296.31-17.01 296.35-13.26L296.35-13.26L291.05-13.26Q291.02-14.90 290.04-15.93Q289.06-16.95 287.46-16.95L287.46-16.95Q285.49-16.95 284.48-15.52Q283.48-14.08 283.48-10.86L283.48-10.86L283.48-10.27Q283.48-7.01 284.47-5.59Q285.47-4.16 287.50-4.16ZM305.08-30L305.08-18.83Q307.32-21.52 310.72-21.52L310.72-21.52Q317.60-21.52 317.70-13.54L317.70-13.54L317.70 0L312.05 0L312.05-13.38Q312.05-15.20 311.27-16.06Q310.49-16.93 308.67-16.93L308.67-16.93Q306.19-16.93 305.08-15.02L305.08-15.02L305.08 0L299.43 0L299.43-30L305.08-30ZM339.90 0L334.20 0Q333.81-0.76 333.63-1.89L333.63-1.89Q331.58 0.39 328.30 0.39L328.30 0.39Q325.20 0.39 323.15-1.41Q321.11-3.20 321.11-5.94L321.11-5.94Q321.11-9.30 323.60-11.09Q326.09-12.89 330.80-12.91L330.80-12.91L333.40-12.91L333.40-14.12Q333.40-15.59 332.65-16.46Q331.89-17.34 330.27-17.34L330.27-17.34Q328.85-17.34 328.04-16.66Q327.23-15.98 327.23-14.79L327.23-14.79L321.58-14.79Q321.58-16.62 322.71-18.18Q323.85-19.75 325.92-20.63Q327.99-21.52 330.57-21.52L330.57-21.52Q334.47-21.52 336.77-19.56Q339.06-17.60 339.06-14.04L339.06-14.04L339.06-4.88Q339.08-1.88 339.90-0.33L339.90-0.33L339.90 0ZM329.53-3.93L329.53-3.93Q330.78-3.93 331.84-4.48Q332.89-5.04 333.40-5.98L333.40-5.98L333.40-9.61L331.29-9.61Q327.05-9.61 326.78-6.68L326.78-6.68L326.76-6.35Q326.76-5.29 327.50-4.61Q328.24-3.93 329.53-3.93ZM343.28-21.13L348.59-21.13L348.77-18.69Q351.04-21.52 354.84-21.52L354.84-21.52Q358.20-21.52 359.84-19.55Q361.48-17.58 361.52-13.65L361.52-13.65L361.52 0L355.88 0L355.88-13.52Q355.88-15.31 355.10-16.12Q354.32-16.93 352.50-16.93L352.50-16.93Q350.12-16.93 348.93-14.90L348.93-14.90L348.93 0L343.28 0L343.28-21.13ZM365.68-21.13L371.00-21.13L371.17-18.69Q373.44-21.52 377.25-21.52L377.25-21.52Q380.61-21.52 382.25-19.55Q383.89-17.58 383.93-13.65L383.93-13.65L383.93 0L378.28 0L378.28-13.52Q378.28-15.31 377.50-16.12Q376.72-16.93 374.90-16.93L374.90-16.93Q372.52-16.93 371.33-14.90L371.33-14.90L371.33 0L365.68 0L365.68-21.13ZM397.93 0.39L397.93 0.39Q393.28 0.39 390.36-2.46Q387.44-5.31 387.44-10.06L387.44-10.06L387.44-10.61Q387.44-13.79 388.67-16.30Q389.90-18.81 392.16-20.17Q394.41-21.52 397.30-21.52L397.30-21.52Q401.64-21.52 404.13-18.79Q406.62-16.05 406.62-11.04L406.62-11.04L406.62-8.73L393.16-8.73Q393.44-6.66 394.81-5.41Q396.19-4.16 398.30-4.16L398.30-4.16Q401.56-4.16 403.40-6.52L403.40-6.52L406.17-3.42Q404.90-1.62 402.73-0.62Q400.57 0.39 397.93 0.39ZM397.29-16.95L397.29-16.95Q395.61-16.95 394.56-15.82Q393.52-14.69 393.22-12.58L393.22-12.58L401.07-12.58L401.07-13.03Q401.04-14.90 400.06-15.93Q399.08-16.95 397.29-16.95ZM415.78-30L415.78 0L410.12 0L410.12-30L415.78-30ZM431.88-5.84L431.88-5.84Q431.88-6.88 430.85-7.47Q429.82-8.07 427.56-8.54L427.56-8.54Q420.02-10.12 420.02-14.94L420.02-14.94Q420.02-17.75 422.35-19.64Q424.69-21.52 428.46-21.52L428.46-21.52Q432.48-21.52 434.89-19.63Q437.30-17.73 437.30-14.71L437.30-14.71L431.66-14.71Q431.66-15.92 430.88-16.71Q430.10-17.50 428.44-17.50L428.44-17.50Q427.01-17.50 426.23-16.86Q425.45-16.21 425.45-15.21L425.45-15.21Q425.45-14.28 426.34-13.70Q427.23-13.13 429.34-12.71Q431.45-12.29 432.89-11.76L432.89-11.76Q437.36-10.12 437.36-6.07L437.36-6.07Q437.36-3.18 434.88-1.40Q432.40 0.39 428.48 0.39L428.48 0.39Q425.82 0.39 423.76-0.56Q421.70-1.50 420.53-3.15Q419.36-4.80 419.36-6.72L419.36-6.72L424.71-6.72Q424.79-5.21 425.82-4.41Q426.86-3.61 428.59-3.61L428.59-3.61Q430.21-3.61 431.04-4.23Q431.88-4.84 431.88-5.84Z" transform="translate(660, 605)" fill="#ffffff" /><circle cx="620" cy="675" r="8" fill="#e94560" /><path d="M8.77-28.44L8.77 0L2.91 0L2.91-28.44L8.77-28.44ZM13.71-21.13L19.02-21.13L19.20-18.69Q21.46-21.52 25.27-21.52L25.27-21.52Q28.63-21.52 30.27-19.55Q31.91-17.58 31.95-13.65L31.95-13.65L31.95 0L26.31 0L26.31-13.52Q26.31-15.31 25.53-16.12Q24.75-16.93 22.93-16.93L22.93-16.93Q20.55-16.93 19.36-14.90L19.36-14.90L19.36 0L13.71 0L13.71-21.13ZM47.68-5.84L47.68-5.84Q47.68-6.88 46.65-7.47Q45.63-8.07 43.36-8.54L43.36-8.54Q35.82-10.12 35.82-14.94L35.82-14.94Q35.82-17.75 38.15-19.64Q40.49-21.52 44.26-21.52L44.26-21.52Q48.28-21.52 50.69-19.63Q53.11-17.73 53.11-14.71L53.11-14.71L47.46-14.71Q47.46-15.92 46.68-16.71Q45.90-17.50 44.24-17.50L44.24-17.50Q42.81-17.50 42.03-16.86Q41.25-16.21 41.25-15.21L41.25-15.21Q41.25-14.28 42.14-13.70Q43.03-13.13 45.14-12.71Q47.25-12.29 48.69-11.76L48.69-11.76Q53.16-10.12 53.16-6.07L53.16-6.07Q53.16-3.18 50.68-1.40Q48.20 0.39 44.28 0.39L44.28 0.39Q41.62 0.39 39.56-0.56Q37.50-1.50 36.33-3.15Q35.16-4.80 35.16-6.72L35.16-6.72L40.51-6.72Q40.59-5.21 41.62-4.41Q42.66-3.61 44.39-3.61L44.39-3.61Q46.02-3.61 46.85-4.23Q47.68-4.84 47.68-5.84ZM57.91-26.33L63.55-26.33L63.55-21.13L67.17-21.13L67.17-16.99L63.55-16.99L63.55-6.45Q63.55-5.27 64.00-4.77Q64.45-4.26 65.72-4.26L65.72-4.26Q66.66-4.26 67.38-4.39L67.38-4.39L67.38-0.12Q65.72 0.39 63.96 0.39L63.96 0.39Q58.03 0.39 57.91-5.61L57.91-5.61L57.91-16.99L54.82-16.99L54.82-21.13L57.91-21.13L57.91-26.33ZM88.26 0L82.56 0Q82.17-0.76 81.99-1.89L81.99-1.89Q79.94 0.39 76.66 0.39L76.66 0.39Q73.55 0.39 71.51-1.41Q69.47-3.20 69.47-5.94L69.47-5.94Q69.47-9.30 71.96-11.09Q74.45-12.89 79.16-12.91L79.16-12.91L81.76-12.91L81.76-14.12Q81.76-15.59 81.01-16.46Q80.25-17.34 78.63-17.34L78.63-17.34Q77.21-17.34 76.40-16.66Q75.59-15.98 75.59-14.79L75.59-14.79L69.94-14.79Q69.94-16.62 71.07-18.18Q72.21-19.75 74.28-20.63Q76.35-21.52 78.93-21.52L78.93-21.52Q82.83-21.52 85.13-19.56Q87.42-17.60 87.42-14.04L87.42-14.04L87.42-4.88Q87.44-1.88 88.26-0.33L88.26-0.33L88.26 0ZM77.89-3.93L77.89-3.93Q79.14-3.93 80.20-4.48Q81.25-5.04 81.76-5.98L81.76-5.98L81.76-9.61L79.65-9.61Q75.41-9.61 75.14-6.68L75.14-6.68L75.12-6.35Q75.12-5.29 75.86-4.61Q76.60-3.93 77.89-3.93ZM97.71-30L97.71 0L92.05 0L92.05-30L97.71-30ZM108.32-30L108.32 0L102.66 0L102.66-30L108.32-30ZM134.38-5.84L134.38-5.84Q134.38-6.88 133.35-7.47Q132.32-8.07 130.06-8.54L130.06-8.54Q122.52-10.12 122.52-14.94L122.52-14.94Q122.52-17.75 124.85-19.64Q127.19-21.52 130.96-21.52L130.96-21.52Q134.98-21.52 137.39-19.63Q139.80-17.73 139.80-14.71L139.80-14.71L134.16-14.71Q134.16-15.92 133.38-16.71Q132.60-17.50 130.94-17.50L130.94-17.50Q129.51-17.50 128.73-16.86Q127.95-16.21 127.95-15.21L127.95-15.21Q127.95-14.28 128.84-13.70Q129.73-13.13 131.84-12.71Q133.95-12.29 135.39-11.76L135.39-11.76Q139.86-10.12 139.86-6.07L139.86-6.07Q139.86-3.18 137.38-1.40Q134.90 0.39 130.98 0.39L130.98 0.39Q128.32 0.39 126.26-0.56Q124.20-1.50 123.03-3.15Q121.86-4.80 121.86-6.72L121.86-6.72L127.21-6.72Q127.29-5.21 128.32-4.41Q129.36-3.61 131.09-3.61L131.09-3.61Q132.71-3.61 133.54-4.23Q134.38-4.84 134.38-5.84ZM156.60 0L151.17-8.48L149.14-6.45L149.14 0L143.50 0L143.50-30L149.14-30L149.14-13.38L150.23-14.79L155.64-21.13L162.42-21.13L154.79-12.32L163.09 0L156.60 0ZM170.82-21.13L170.82 0L165.16 0L165.16-21.13L170.82-21.13ZM164.82-26.60L164.82-26.60Q164.82-27.87 165.67-28.69Q166.52-29.51 167.99-29.51L167.99-29.51Q169.43-29.51 170.29-28.69Q171.15-27.87 171.15-26.60L171.15-26.60Q171.15-25.31 170.28-24.49Q169.41-23.67 167.99-23.67Q166.56-23.67 165.69-24.49Q164.82-25.31 164.82-26.60ZM181.43-30L181.43 0L175.76 0L175.76-30L181.43-30ZM192.03-30L192.03 0L186.37 0L186.37-30L192.03-30ZM208.13-5.84L208.13-5.84Q208.13-6.88 207.10-7.47Q206.07-8.07 203.81-8.54L203.81-8.54Q196.27-10.12 196.27-14.94L196.27-14.94Q196.27-17.75 198.60-19.64Q200.94-21.52 204.71-21.52L204.71-21.52Q208.73-21.52 211.14-19.63Q213.55-17.73 213.55-14.71L213.55-14.71L207.91-14.71Q207.91-15.92 207.13-16.71Q206.35-17.50 204.69-17.50L204.69-17.50Q203.26-17.50 202.48-16.86Q201.70-16.21 201.70-15.21L201.70-15.21Q201.70-14.28 202.59-13.70Q203.48-13.13 205.59-12.71Q207.70-12.29 209.14-11.76L209.14-11.76Q213.61-10.12 213.61-6.07L213.61-6.07Q213.61-3.18 211.13-1.40Q208.65 0.39 204.73 0.39L204.73 0.39Q202.07 0.39 200.01-0.56Q197.95-1.50 196.78-3.15Q195.61-4.80 195.61-6.72L195.61-6.72L200.96-6.72Q201.04-5.21 202.07-4.41Q203.11-3.61 204.84-3.61L204.84-3.61Q206.46-3.61 207.29-4.23Q208.13-4.84 208.13-5.84ZM231.19-21.13L235.12-6.89L239.04-21.13L244.94-21.13L237.81 0L232.42 0L225.29-21.13L231.19-21.13ZM253.38-21.13L253.38 0L247.71 0L247.71-21.13L253.38-21.13ZM247.38-26.60L247.38-26.60Q247.38-27.87 248.23-28.69Q249.08-29.51 250.55-29.51L250.55-29.51Q251.99-29.51 252.85-28.69Q253.71-27.87 253.71-26.60L253.71-26.60Q253.71-25.31 252.84-24.49Q251.97-23.67 250.55-23.67Q249.12-23.67 248.25-24.49Q247.38-25.31 247.38-26.60ZM275.98 0L270.27 0Q269.88-0.76 269.71-1.89L269.71-1.89Q267.66 0.39 264.38 0.39L264.38 0.39Q261.27 0.39 259.23-1.41Q257.19-3.20 257.19-5.94L257.19-5.94Q257.19-9.30 259.68-11.09Q262.17-12.89 266.88-12.91L266.88-12.91L269.47-12.91L269.47-14.12Q269.47-15.59 268.72-16.46Q267.97-17.34 266.35-17.34L266.35-17.34Q264.92-17.34 264.11-16.66Q263.30-15.98 263.30-14.79L263.30-14.79L257.66-14.79Q257.66-16.62 258.79-18.18Q259.92-19.75 261.99-20.63Q264.06-21.52 266.64-21.52L266.64-21.52Q270.55-21.52 272.84-19.56Q275.14-17.60 275.14-14.04L275.14-14.04L275.14-4.88Q275.16-1.88 275.98-0.33L275.98-0.33L275.98 0ZM265.61-3.93L265.61-3.93Q266.86-3.93 267.91-4.48Q268.96-5.04 269.47-5.98L269.47-5.98L269.47-9.61L267.36-9.61Q263.13-9.61 262.85-6.68L262.85-6.68L262.83-6.35Q262.83-5.29 263.57-4.61Q264.32-3.93 265.61-3.93ZM306.27-9.47L312.13-9.47Q311.80-4.88 308.74-2.25Q305.68 0.39 300.68 0.39L300.68 0.39Q295.21 0.39 292.08-3.29Q288.95-6.97 288.95-13.40L288.95-13.40L288.95-15.14Q288.95-19.24 290.39-22.36Q291.84-25.49 294.52-27.16Q297.21-28.83 300.76-28.83L300.76-28.83Q305.68-28.83 308.69-26.19Q311.70-23.55 312.17-18.79L312.17-18.79L306.31-18.79Q306.09-21.54 304.78-22.78Q303.46-24.02 300.76-24.02L300.76-24.02Q297.83-24.02 296.38-21.92Q294.92-19.82 294.88-15.41L294.88-15.41L294.88-13.26Q294.88-8.65 296.28-6.52Q297.68-4.39 300.68-4.39L300.68-4.39Q303.40-4.39 304.74-5.63Q306.07-6.88 306.27-9.47L306.27-9.47ZM321.56-30L321.56 0L315.90 0L315.90-30L321.56-30ZM344.16 0L338.46 0Q338.07-0.76 337.89-1.89L337.89-1.89Q335.84 0.39 332.56 0.39L332.56 0.39Q329.45 0.39 327.41-1.41Q325.37-3.20 325.37-5.94L325.37-5.94Q325.37-9.30 327.86-11.09Q330.35-12.89 335.06-12.91L335.06-12.91L337.66-12.91L337.66-14.12Q337.66-15.59 336.90-16.46Q336.15-17.34 334.53-17.34L334.53-17.34Q333.11-17.34 332.29-16.66Q331.48-15.98 331.48-14.79L331.48-14.79L325.84-14.79Q325.84-16.62 326.97-18.18Q328.11-19.75 330.18-20.63Q332.25-21.52 334.82-21.52L334.82-21.52Q338.73-21.52 341.03-19.56Q343.32-17.60 343.32-14.04L343.32-14.04L343.32-4.88Q343.34-1.88 344.16-0.33L344.16-0.33L344.16 0ZM333.79-3.93L333.79-3.93Q335.04-3.93 336.09-4.48Q337.15-5.04 337.66-5.98L337.66-5.98L337.66-9.61L335.55-9.61Q331.31-9.61 331.04-6.68L331.04-6.68L331.02-6.35Q331.02-5.29 331.76-4.61Q332.50-3.93 333.79-3.93ZM362.19-21.13L366.04-7.68L368.81-21.13L374.26-21.13L368.87 0L364.14 0L360.14-13.30L356.13 0L351.43 0L346.04-21.13L351.48-21.13L354.24-7.70L358.11-21.13L362.19-21.13ZM400.57-28.44L400.57 0L394.71 0L394.71-12.19L383.28-12.19L383.28 0L377.42 0L377.42-28.44L383.28-28.44L383.28-16.91L394.71-16.91L394.71-28.44L400.57-28.44ZM418.13 0L417.97-2.15Q415.88 0.39 412.19 0.39L412.19 0.39Q408.79 0.39 407.00-1.56Q405.21-3.52 405.18-7.29L405.18-7.29L405.18-21.13L410.82-21.13L410.82-7.48Q410.82-4.18 413.83-4.18L413.83-4.18Q416.70-4.18 417.77-6.17L417.77-6.17L417.77-21.13L423.44-21.13L423.44 0L418.13 0ZM446.74-10.68L446.74-10.37Q446.74-5.29 444.57-2.45Q442.40 0.39 438.52 0.39L438.52 0.39Q435.08 0.39 433.03-2.25L433.03-2.25L432.77 0L427.70 0L427.70-30L433.34-30L433.34-19.24Q435.29-21.52 438.48-21.52L438.48-21.52Q442.34-21.52 444.54-18.68Q446.74-15.84 446.74-10.68L446.74-10.68ZM441.09-10.78L441.09-10.78Q441.09-13.98 440.08-15.46Q439.06-16.93 437.05-16.93L437.05-16.93Q434.36-16.93 433.34-14.73L433.34-14.73L433.34-6.39Q434.38-4.16 437.09-4.16L437.09-4.16Q439.82-4.16 440.68-6.86L440.68-6.86Q441.09-8.14 441.09-10.78Z" transform="translate(660, 675)" fill="#ffffff" /><circle cx="620" cy="745" r="8" fill="#e94560" /><path d="M17.29-7.46L17.29-7.46Q17.29-9.12 16.11-10.01Q14.94-10.90 11.89-11.88Q8.85-12.87 7.07-13.83L7.07-13.83Q2.23-16.45 2.23-20.88L2.23-20.88Q2.23-23.18 3.53-24.99Q4.82-26.80 7.26-27.81Q9.69-28.83 12.71-28.83L12.71-28.83Q15.76-28.83 18.14-27.72Q20.53-26.62 21.85-24.61Q23.16-22.60 23.16-20.04L23.16-20.04L17.30-20.04Q17.30-21.99 16.07-23.08Q14.84-24.16 12.62-24.16L12.62-24.16Q10.47-24.16 9.28-23.25Q8.09-22.34 8.09-20.86L8.09-20.86Q8.09-19.47 9.48-18.54Q10.88-17.60 13.59-16.78L13.59-16.78Q18.59-15.27 20.88-13.05Q23.16-10.82 23.16-7.50L23.16-7.50Q23.16-3.81 20.37-1.71Q17.58 0.39 12.85 0.39L12.85 0.39Q9.57 0.39 6.88-0.81Q4.18-2.01 2.76-4.10Q1.35-6.19 1.35-8.95L1.35-8.95L7.23-8.95Q7.23-4.24 12.85-4.24L12.85-4.24Q14.94-4.24 16.11-5.09Q17.29-5.94 17.29-7.46ZM27.87-26.33L33.52-26.33L33.52-21.13L37.13-21.13L37.13-16.99L33.52-16.99L33.52-6.45Q33.52-5.27 33.96-4.77Q34.41-4.26 35.68-4.26L35.68-4.26Q36.62-4.26 37.34-4.39L37.34-4.39L37.34-0.12Q35.68 0.39 33.93 0.39L33.93 0.39Q27.99 0.39 27.87-5.61L27.87-5.61L27.87-16.99L24.79-16.99L24.79-21.13L27.87-21.13L27.87-26.33ZM58.22 0L52.52 0Q52.13-0.76 51.95-1.89L51.95-1.89Q49.90 0.39 46.62 0.39L46.62 0.39Q43.52 0.39 41.47-1.41Q39.43-3.20 39.43-5.94L39.43-5.94Q39.43-9.30 41.92-11.09Q44.41-12.89 49.12-12.91L49.12-12.91L51.72-12.91L51.72-14.12Q51.72-15.59 50.97-16.46Q50.21-17.34 48.59-17.34L48.59-17.34Q47.17-17.34 46.36-16.66Q45.55-15.98 45.55-14.79L45.55-14.79L39.90-14.79Q39.90-16.62 41.04-18.18Q42.17-19.75 44.24-20.63Q46.31-21.52 48.89-21.52L48.89-21.52Q52.79-21.52 55.09-19.56Q57.38-17.60 57.38-14.04L57.38-14.04L57.38-4.88Q57.40-1.88 58.22-0.33L58.22-0.33L58.22 0ZM47.85-3.93L47.85-3.93Q49.10-3.93 50.16-4.48Q51.21-5.04 51.72-5.98L51.72-5.98L51.72-9.61L49.61-9.61Q45.37-9.61 45.10-6.68L45.10-6.68L45.08-6.35Q45.08-5.29 45.82-4.61Q46.56-3.93 47.85-3.93ZM73.67-21.27L73.59-15.84Q72.44-16.00 71.56-16.00L71.56-16.00Q68.36-16.00 67.36-13.83L67.36-13.83L67.36 0L61.72 0L61.72-21.13L67.05-21.13L67.21-18.61Q68.91-21.52 71.91-21.52L71.91-21.52Q72.85-21.52 73.67-21.27L73.67-21.27ZM77.42-26.33L83.07-26.33L83.07-21.13L86.68-21.13L86.68-16.99L83.07-16.99L83.07-6.45Q83.07-5.27 83.52-4.77Q83.96-4.26 85.23-4.26L85.23-4.26Q86.17-4.26 86.89-4.39L86.89-4.39L86.89-0.12Q85.23 0.39 83.48 0.39L83.48 0.39Q77.54 0.39 77.42-5.61L77.42-5.61L77.42-16.99L74.34-16.99L74.34-21.13L77.42-21.13L77.42-26.33ZM117.73 0L112.03 0Q111.64-0.76 111.46-1.89L111.46-1.89Q109.41 0.39 106.13 0.39L106.13 0.39Q103.03 0.39 100.99-1.41Q98.95-3.20 98.95-5.94L98.95-5.94Q98.95-9.30 101.44-11.09Q103.93-12.89 108.63-12.91L108.63-12.91L111.23-12.91L111.23-14.12Q111.23-15.59 110.48-16.46Q109.73-17.34 108.11-17.34L108.11-17.34Q106.68-17.34 105.87-16.66Q105.06-15.98 105.06-14.79L105.06-14.79L99.41-14.79Q99.41-16.62 100.55-18.18Q101.68-19.75 103.75-20.63Q105.82-21.52 108.40-21.52L108.40-21.52Q112.30-21.52 114.60-19.56Q116.89-17.60 116.89-14.04L116.89-14.04L116.89-4.88Q116.91-1.88 117.73-0.33L117.73-0.33L117.73 0ZM107.36-3.93L107.36-3.93Q108.61-3.93 109.67-4.48Q110.72-5.04 111.23-5.98L111.23-5.98L111.23-9.61L109.12-9.61Q104.88-9.61 104.61-6.68L104.61-6.68L104.59-6.35Q104.59-5.29 105.33-4.61Q106.07-3.93 107.36-3.93ZM134.04 0L133.89-2.15Q131.80 0.39 128.11 0.39L128.11 0.39Q124.71 0.39 122.92-1.56Q121.13-3.52 121.09-7.29L121.09-7.29L121.09-21.13L126.74-21.13L126.74-7.48Q126.74-4.18 129.75-4.18L129.75-4.18Q132.62-4.18 133.69-6.17L133.69-6.17L133.69-21.13L139.36-21.13L139.36 0L134.04 0ZM144.73-26.33L150.37-26.33L150.37-21.13L153.98-21.13L153.98-16.99L150.37-16.99L150.37-6.45Q150.37-5.27 150.82-4.77Q151.27-4.26 152.54-4.26L152.54-4.26Q153.48-4.26 154.20-4.39L154.20-4.39L154.20-0.12Q152.54 0.39 150.78 0.39L150.78 0.39Q144.84 0.39 144.73-5.61L144.73-5.61L144.73-16.99L141.64-16.99L141.64-21.13L144.73-21.13L144.73-26.33ZM156.25-10.51L156.25-10.76Q156.25-13.91 157.46-16.37Q158.67-18.83 160.95-20.18Q163.22-21.52 166.23-21.52L166.23-21.52Q170.51-21.52 173.21-18.91Q175.92-16.29 176.23-11.80L176.23-11.80L176.27-10.35Q176.27-5.49 173.55-2.55Q170.84 0.39 166.27 0.39Q161.70 0.39 158.97-2.54Q156.25-5.47 156.25-10.51L156.25-10.51ZM161.89-10.35L161.89-10.35Q161.89-7.34 163.03-5.75Q164.16-4.16 166.27-4.16L166.27-4.16Q168.32-4.16 169.47-5.73Q170.63-7.30 170.63-10.76L170.63-10.76Q170.63-13.71 169.47-15.33Q168.32-16.95 166.23-16.95L166.23-16.95Q164.16-16.95 163.03-15.34Q161.89-13.73 161.89-10.35ZM179.75-21.13L185.04-21.13L185.21-18.77Q187.46-21.52 191.29-21.52L191.29-21.52Q195.37-21.52 196.89-18.30L196.89-18.30Q199.12-21.52 203.24-21.52L203.24-21.52Q206.68-21.52 208.36-19.52Q210.04-17.52 210.04-13.50L210.04-13.50L210.04 0L204.38 0L204.38-13.48Q204.38-15.27 203.67-16.10Q202.97-16.93 201.19-16.93L201.19-16.93Q198.65-16.93 197.68-14.51L197.68-14.51L197.70 0L192.05 0L192.05-13.46Q192.05-15.29 191.33-16.11Q190.61-16.93 188.87-16.93L188.87-16.93Q186.46-16.93 185.39-14.94L185.39-14.94L185.39 0L179.75 0L179.75-21.13ZM232.32 0L226.62 0Q226.23-0.76 226.05-1.89L226.05-1.89Q224.00 0.39 220.72 0.39L220.72 0.39Q217.62 0.39 215.58-1.41Q213.54-3.20 213.54-5.94L213.54-5.94Q213.54-9.30 216.03-11.09Q218.52-12.89 223.22-12.91L223.22-12.91L225.82-12.91L225.82-14.12Q225.82-15.59 225.07-16.46Q224.32-17.34 222.70-17.34L222.70-17.34Q221.27-17.34 220.46-16.66Q219.65-15.98 219.65-14.79L219.65-14.79L214.00-14.79Q214.00-16.62 215.14-18.18Q216.27-19.75 218.34-20.63Q220.41-21.52 222.99-21.52L222.99-21.52Q226.89-21.52 229.19-19.56Q231.48-17.60 231.48-14.04L231.48-14.04L231.48-4.88Q231.50-1.88 232.32-0.33L232.32-0.33L232.32 0ZM221.95-3.93L221.95-3.93Q223.20-3.93 224.26-4.48Q225.31-5.04 225.82-5.98L225.82-5.98L225.82-9.61L223.71-9.61Q219.47-9.61 219.20-6.68L219.20-6.68L219.18-6.35Q219.18-5.29 219.92-4.61Q220.66-3.93 221.95-3.93ZM236.93-26.33L242.58-26.33L242.58-21.13L246.19-21.13L246.19-16.99L242.58-16.99L242.58-6.45Q242.58-5.27 243.03-4.77Q243.48-4.26 244.75-4.26L244.75-4.26Q245.68-4.26 246.41-4.39L246.41-4.39L246.41-0.12Q244.75 0.39 242.99 0.39L242.99 0.39Q237.05 0.39 236.93-5.61L236.93-5.61L236.93-16.99L233.85-16.99L233.85-21.13L236.93-21.13L236.93-26.33ZM255.29-21.13L255.29 0L249.63 0L249.63-21.13L255.29-21.13ZM249.30-26.60L249.30-26.60Q249.30-27.87 250.15-28.69Q251.00-29.51 252.46-29.51L252.46-29.51Q253.91-29.51 254.77-28.69Q255.63-27.87 255.63-26.60L255.63-26.60Q255.63-25.31 254.76-24.49Q253.89-23.67 252.46-23.67Q251.04-23.67 250.17-24.49Q249.30-25.31 249.30-26.60ZM259.82-21.13L265.14-21.13L265.31-18.69Q267.58-21.52 271.39-21.52L271.39-21.52Q274.75-21.52 276.39-19.55Q278.03-17.58 278.07-13.65L278.07-13.65L278.07 0L272.42 0L272.42-13.52Q272.42-15.31 271.64-16.12Q270.86-16.93 269.04-16.93L269.04-16.93Q266.66-16.93 265.47-14.90L265.47-14.90L265.47 0L259.82 0L259.82-21.13ZM281.52-10.49L281.52-10.72Q281.52-15.59 283.84-18.55Q286.15-21.52 290.08-21.52L290.08-21.52Q293.55-21.52 295.49-19.14L295.49-19.14L295.72-21.13L300.84-21.13L300.84-0.70Q300.84 2.07 299.58 4.12Q298.32 6.17 296.04 7.25Q293.75 8.32 290.68 8.32L290.68 8.32Q288.36 8.32 286.15 7.39Q283.95 6.46 282.81 5L282.81 5L285.31 1.56Q287.42 3.93 290.43 3.93L290.43 3.93Q292.68 3.93 293.93 2.72Q295.18 1.52 295.18-0.68L295.18-0.68L295.18-1.82Q293.22 0.39 290.04 0.39L290.04 0.39Q286.23 0.39 283.88-2.59Q281.52-5.57 281.52-10.49L281.52-10.49ZM287.17-10.31L287.17-10.31Q287.17-7.44 288.32-5.81Q289.47-4.18 291.48-4.18L291.48-4.18Q294.06-4.18 295.18-6.11L295.18-6.11L295.18-15Q294.04-16.93 291.52-16.93L291.52-16.93Q289.49-16.93 288.33-15.27Q287.17-13.61 287.17-10.31ZM311.58-28.44L310.92-8.73L306.23-8.73L305.57-28.44L311.58-28.44ZM308.57-5.64L308.57-5.64Q310-5.64 310.87-4.80Q311.74-3.96 311.74-2.66L311.74-2.66Q311.74-1.37 310.87-0.53Q310 0.31 308.57 0.31L308.57 0.31Q307.17 0.31 306.30-0.53Q305.43-1.37 305.43-2.66Q305.43-3.95 306.30-4.79Q307.17-5.64 308.57-5.64Z" transform="translate(660, 745)" fill="#ffffff" />
  <text x="960" y="1030" font-family="Arial" font-size="24" fill="#666" text-anchor="middle">OpenClaw Documentation</text>
  <line x1="880" y1="1045" x2="1040" y2="1045" stroke="#e94560" stroke-width="3" opacity="0.6"/>
</svg>