<?xml version="1.0" encoding="UTF-8"?>
<svg width="1920" height="1080" xmlns="http://www.w3.org/2000/svg">
  <defs>
    <linearGradient id="bg" x1="0%" y1="0%" x2="100%" y2="100%">
      <stop offset="0%" style="stop-color:#1a1a2e;stop-opacity:1" />
      <stop offset="100%" style="stop-color:#0f0f1a;stop-opacity:1" />
    </linearGradient>
  </defs>
  <rect width="100%" height="100%" fill="url(#bg)"/>
  <circle cx="1920" cy="0" r="600" fill="#e94560" opacity="0.1"/>
  <circle cx="0" cy="1080" r="400" fill="#e94560" opacity="0.1"/>
  <rect width="1920" height="15" fill="#e94560"/>
  <path d="M22.80-11.37L29.84-11.37Q29.44-5.86 25.77-2.70Q22.10 0.47 16.10 0.47L16.10 0.47Q9.54 0.47 5.78-3.95Q2.02-8.37 2.02-16.08L2.02-16.08L2.02-18.16Q2.02-23.09 3.75-26.84Q5.48-30.59 8.71-32.59Q11.93-34.59 16.20-34.59L16.20-34.59Q22.10-34.59 25.71-31.43Q29.32-28.27 29.88-22.55L29.88-22.55L22.85-22.55Q22.59-25.85 21.01-27.34Q19.43-28.83 16.20-28.83L16.20-28.83Q12.68-28.83 10.93-26.31Q9.19-23.79 9.14-18.49L9.14-18.49L9.14-15.91Q9.14-10.38 10.82-7.83Q12.49-5.27 16.10-5.27L16.10-5.27Q19.36-5.27 20.96-6.76Q22.57-8.25 22.80-11.37L22.80-11.37ZM40.62-36L40.62-22.59Q43.31-25.83 47.39-25.83L47.39-25.83Q55.64-25.83 55.76-16.24L55.76-16.24L55.76 0L48.98 0L48.98-16.05Q48.98-18.23 48.05-19.28Q47.11-20.32 44.93-20.32L44.93-20.32Q41.95-20.32 40.62-18.02L40.62-18.02L40.62 0L33.84 0L33.84-36L40.62-36ZM82.41 0L75.56 0Q75.09-0.91 74.88-2.27L74.88-2.27Q72.42 0.47 68.48 0.47L68.48 0.47Q64.76 0.47 62.31-1.69Q59.86-3.84 59.86-7.13L59.86-7.13Q59.86-11.16 62.85-13.31Q65.84-15.47 71.48-15.49L71.48-15.49L74.60-15.49L74.60-16.95Q74.60-18.70 73.70-19.76Q72.80-20.81 70.85-20.81L70.85-20.81Q69.14-20.81 68.17-19.99Q67.20-19.17 67.20-17.74L67.20-17.74L60.42-17.74Q60.42-19.95 61.78-21.82Q63.14-23.70 65.63-24.76Q68.11-25.83 71.20-25.83L71.20-25.83Q75.89-25.83 78.64-23.47Q81.40-21.12 81.40-16.85L81.40-16.85L81.40-5.86Q81.42-2.25 82.41-0.40L82.41-0.40L82.41 0ZM69.96-4.71L69.96-4.71Q71.46-4.71 72.73-5.38Q73.99-6.05 74.60-7.17L74.60-7.17L74.60-11.53L72.07-11.53Q66.98-11.53 66.66-8.02L66.66-8.02L66.63-7.62Q66.63-6.35 67.52-5.53Q68.41-4.71 69.96-4.71ZM86.46-25.36L92.84-25.36L93.05-22.43Q95.77-25.83 100.34-25.83L100.34-25.83Q104.37-25.83 106.34-23.46Q108.30-21.09 108.35-16.38L108.35-16.38L108.35 0L101.58 0L101.58-16.22Q101.58-18.38 100.64-19.35Q99.70-20.32 97.52-20.32L97.52-20.32Q94.66-20.32 93.23-17.88L93.23-17.88L93.23 0L86.46 0L86.46-25.36ZM133.69-11.37L140.72-11.37Q140.32-5.86 136.65-2.70Q132.98 0.47 126.98 0.47L126.98 0.47Q120.42 0.47 116.66-3.95Q112.90-8.37 112.90-16.08L112.90-16.08L112.90-18.16Q112.90-23.09 114.63-26.84Q116.37-30.59 119.59-32.59Q122.81-34.59 127.08-34.59L127.08-34.59Q132.98-34.59 136.59-31.43Q140.20-28.27 140.77-22.55L140.77-22.55L133.73-22.55Q133.48-25.85 131.89-27.34Q130.31-28.83 127.08-28.83L127.08-28.83Q123.56-28.83 121.82-26.31Q120.07-23.79 120.02-18.49L120.02-18.49L120.02-15.91Q120.02-10.38 121.70-7.83Q123.38-5.27 126.98-5.27L126.98-5.27Q130.24-5.27 131.85-6.76Q133.45-8.25 133.69-11.37L133.69-11.37ZM152.04-36L152.04 0L145.24 0L145.24-36L152.04-36ZM179.16 0L172.31 0Q171.84-0.91 171.63-2.27L171.63-2.27Q169.17 0.47 165.23 0.47L165.23 0.47Q161.51 0.47 159.06-1.69Q156.61-3.84 156.61-7.13L156.61-7.13Q156.61-11.16 159.60-13.31Q162.59-15.47 168.23-15.49L168.23-15.49L171.35-15.49L171.35-16.95Q171.35-18.70 170.45-19.76Q169.55-20.81 167.60-20.81L167.60-20.81Q165.89-20.81 164.92-19.99Q163.95-19.17 163.95-17.74L163.95-17.74L157.17-17.74Q157.17-19.95 158.53-21.82Q159.89-23.70 162.38-24.76Q164.86-25.83 167.95-25.83L167.95-25.83Q172.64-25.83 175.39-23.47Q178.15-21.12 178.15-16.85L178.15-16.85L178.15-5.86Q178.17-2.25 179.16-0.40L179.16-0.40L179.16 0ZM166.71-4.71L166.71-4.71Q168.21-4.71 169.48-5.38Q170.74-6.05 171.35-7.17L171.35-7.17L171.35-11.53L168.82-11.53Q163.73-11.53 163.41-8.02L163.41-8.02L163.38-7.62Q163.38-6.35 164.27-5.53Q165.16-4.71 166.71-4.71ZM200.79-25.36L205.41-9.21L208.73-25.36L215.27-25.36L208.80 0L203.13 0L198.33-15.96L193.52 0L187.88 0L181.41-25.36L187.95-25.36L191.25-9.23L195.89-25.36L200.79-25.36Z" transform="translate(60, 85)" fill="#e94560" />
  <text x="1860" y="85" font-family="Arial" font-size="28" fill="#888" text-anchor="end">SLIDE 2/10</text>
  <path d="M40.04-56.88L49.38-16.41L57.03-56.88L68.71-56.88L56.09 0L44.30 0L35.04-38.05L25.78 0L13.98 0L1.37-56.88L13.05-56.88L20.74-16.48L30.12-56.88L40.04-56.88ZM85.31-60L85.31-37.66Q89.80-43.05 96.60-43.05L96.60-43.05Q110.35-43.05 110.55-27.07L110.55-27.07L110.55 0L99.26 0L99.26-26.76Q99.26-30.39 97.70-32.13Q96.13-33.87 92.50-33.87L92.50-33.87Q87.54-33.87 85.31-30.04L85.31-30.04L85.31 0L74.02 0L74.02-60L85.31-60ZM154.96 0L143.55 0Q142.77-1.52 142.42-3.79L142.42-3.79Q138.32 0.78 131.76 0.78L131.76 0.78Q125.55 0.78 121.46-2.81Q117.38-6.41 117.38-11.88L117.38-11.88Q117.38-18.59 122.36-22.19Q127.34-25.78 136.76-25.82L136.76-25.82L141.95-25.82L141.95-28.24Q141.95-31.17 140.45-32.93Q138.95-34.69 135.70-34.69L135.70-34.69Q132.85-34.69 131.23-33.32Q129.61-31.95 129.61-29.57L129.61-29.57L118.32-29.57Q118.32-33.24 120.59-36.37Q122.85-39.49 126.99-41.27Q131.13-43.05 136.29-43.05L136.29-43.05Q144.10-43.05 148.69-39.12Q153.28-35.20 153.28-28.09L153.28-28.09L153.28-9.77Q153.32-3.75 154.96-0.66L154.96-0.66L154.96 0ZM134.22-7.85L134.22-7.85Q136.72-7.85 138.83-8.96Q140.94-10.08 141.95-11.95L141.95-11.95L141.95-19.22L137.73-19.22Q129.26-19.22 128.71-13.36L128.71-13.36L128.67-12.70Q128.67-10.59 130.16-9.22Q131.64-7.85 134.22-7.85ZM164.18-52.66L175.47-52.66L175.47-42.27L182.70-42.27L182.70-33.98L175.47-33.98L175.47-12.89Q175.47-10.55 176.37-9.53Q177.27-8.52 179.80-8.52L179.80-8.52Q181.68-8.52 183.13-8.79L183.13-8.79L183.13-0.23Q179.80 0.78 176.29 0.78L176.29 0.78Q164.41 0.78 164.18-11.21L164.18-11.21L164.18-33.98L158.01-33.98L158.01-42.27L164.18-42.27L164.18-52.66ZM220.82-42.27L220.82 0L209.49 0L209.49-42.27L220.82-42.27ZM208.83-53.20L208.83-53.20Q208.83-55.74 210.53-57.38Q212.23-59.02 215.16-59.02L215.16-59.02Q218.05-59.02 219.77-57.38Q221.48-55.74 221.48-53.20L221.48-53.20Q221.48-50.63 219.75-48.98Q218.01-47.34 215.16-47.34Q212.30-47.34 210.57-48.98Q208.83-50.63 208.83-53.20ZM253.01-11.68L253.01-11.68Q253.01-13.75 250.96-14.94Q248.91-16.13 244.38-17.07L244.38-17.07Q229.30-20.23 229.30-29.88L229.30-29.88Q229.30-35.51 233.96-39.28Q238.63-43.05 246.17-43.05L246.17-43.05Q254.22-43.05 259.04-39.26Q263.87-35.47 263.87-29.41L263.87-29.41L252.58-29.41Q252.58-31.84 251.02-33.42Q249.45-35 246.13-35L246.13-35Q243.28-35 241.72-33.71Q240.16-32.42 240.16-30.43L240.16-30.43Q240.16-28.55 241.93-27.40Q243.71-26.25 247.93-25.41Q252.15-24.57 255.04-23.52L255.04-23.52Q263.98-20.23 263.98-12.15L263.98-12.15Q263.98-6.37 259.02-2.79Q254.06 0.78 246.21 0.78L246.21 0.78Q240.90 0.78 236.78-1.11Q232.66-3.01 230.31-6.31Q227.97-9.61 227.97-13.44L227.97-13.44L238.67-13.44Q238.83-10.43 240.90-8.83Q242.97-7.23 246.45-7.23L246.45-7.23Q249.69-7.23 251.35-8.46Q253.01-9.69 253.01-11.68ZM338.63-29.69L338.63-27.15Q338.63-18.75 335.66-12.42Q332.70-6.09 327.17-2.66Q321.64 0.78 314.49 0.78L314.49 0.78Q307.42 0.78 301.88-2.62Q296.33-6.02 293.28-12.32Q290.23-18.63 290.20-26.84L290.20-26.84L290.20-29.65Q290.20-38.05 293.22-44.43Q296.25-50.82 301.78-54.24Q307.30-57.66 314.41-57.66Q321.52-57.66 327.05-54.24Q332.58-50.82 335.61-44.43Q338.63-38.05 338.63-29.69L338.63-29.69ZM326.76-26.95L326.76-29.73Q326.76-38.67 323.55-43.32Q320.35-47.97 314.41-47.97L314.41-47.97Q308.52-47.97 305.31-43.38Q302.11-38.79 302.07-29.92L302.07-29.92L302.07-27.15Q302.07-18.44 305.27-13.63Q308.48-8.83 314.49-8.83L314.49-8.83Q320.39-8.83 323.55-13.46Q326.72-18.09 326.76-26.95L326.76-26.95ZM384.45-21.33L384.45-20.74Q384.45-10.98 380.02-5.10Q375.59 0.78 368.05 0.78L368.05 0.78Q361.64 0.78 357.70-3.67L357.70-3.67L357.70 16.25L346.41 16.25L346.41-42.27L356.88-42.27L357.27-38.13Q361.37-43.05 367.97-43.05L367.97-43.05Q375.78-43.05 380.12-37.27Q384.45-31.48 384.45-21.33L384.45-21.33ZM373.16-21.56L373.16-21.56Q373.16-27.46 371.07-30.66Q368.98-33.87 365-33.87L365-33.87Q359.69-33.87 357.70-29.80L357.70-29.80L357.70-12.50Q359.77-8.32 365.08-8.32L365.08-8.32Q373.16-8.32 373.16-21.56ZM410.90 0.78L410.90 0.78Q401.60 0.78 395.76-4.92Q389.92-10.63 389.92-20.12L389.92-20.12L389.92-21.21Q389.92-27.58 392.38-32.60Q394.84-37.62 399.36-40.33Q403.87-43.05 409.65-43.05L409.65-43.05Q418.32-43.05 423.30-37.58Q428.28-32.11 428.28-22.07L428.28-22.07L428.28-17.46L401.37-17.46Q401.91-13.32 404.67-10.82Q407.42-8.32 411.64-8.32L411.64-8.32Q418.16-8.32 421.84-13.05L421.84-13.05L427.38-6.84Q424.84-3.24 420.51-1.23Q416.17 0.78 410.90 0.78ZM409.61-33.91L409.61-33.91Q406.25-33.91 404.16-31.64Q402.07-29.38 401.48-25.16L401.48-25.16L417.19-25.16L417.19-26.05Q417.11-29.80 415.16-31.86Q413.20-33.91 409.61-33.91ZM434.45-42.27L445.08-42.27L445.43-37.38Q449.96-43.05 457.58-43.05L457.58-43.05Q464.30-43.05 467.58-39.10Q470.86-35.16 470.94-27.30L470.94-27.30L470.94 0L459.65 0L459.65-27.03Q459.65-30.63 458.09-32.25Q456.52-33.87 452.89-33.87L452.89-33.87Q448.13-33.87 445.74-29.80L445.74-29.80L445.74 0L434.45 0L434.45-42.27ZM513.16-18.95L524.88-18.95Q524.22-9.77 518.11-4.49Q511.99 0.78 501.99 0.78L501.99 0.78Q491.05 0.78 484.79-6.58Q478.52-13.95 478.52-26.80L478.52-26.80L478.52-30.27Q478.52-38.48 481.41-44.73Q484.30-50.98 489.67-54.32Q495.04-57.66 502.15-57.66L502.15-57.66Q511.99-57.66 518.01-52.38Q524.02-47.11 524.96-37.58L524.96-37.58L513.24-37.58Q512.81-43.09 510.18-45.57Q507.54-48.05 502.15-48.05L502.15-48.05Q496.29-48.05 493.38-43.85Q490.47-39.65 490.39-30.82L490.39-30.82L490.39-26.52Q490.39-17.30 493.18-13.05Q495.98-8.79 501.99-8.79L501.99-8.79Q507.42-8.79 510.10-11.27Q512.77-13.75 513.16-18.95L513.16-18.95ZM543.75-60L543.75 0L532.42 0L532.42-60L543.75-60ZM588.95 0L577.54 0Q576.76-1.52 576.41-3.79L576.41-3.79Q572.30 0.78 565.74 0.78L565.74 0.78Q559.53 0.78 555.45-2.81Q551.37-6.41 551.37-11.88L551.37-11.88Q551.37-18.59 556.35-22.19Q561.33-25.78 570.74-25.82L570.74-25.82L575.94-25.82L575.94-28.24Q575.94-31.17 574.43-32.93Q572.93-34.69 569.69-34.69L569.69-34.69Q566.84-34.69 565.21-33.32Q563.59-31.95 563.59-29.57L563.59-29.57L552.30-29.57Q552.30-33.24 554.57-36.37Q556.84-39.49 560.98-41.27Q565.12-43.05 570.27-43.05L570.27-43.05Q578.09-43.05 582.68-39.12Q587.27-35.20 587.27-28.09L587.27-28.09L587.27-9.77Q587.30-3.75 588.95-0.66L588.95-0.66L588.95 0ZM568.20-7.85L568.20-7.85Q570.70-7.85 572.81-8.96Q574.92-10.08 575.94-11.95L575.94-11.95L575.94-19.22L571.72-19.22Q563.24-19.22 562.70-13.36L562.70-13.36L562.66-12.70Q562.66-10.59 564.14-9.22Q565.63-7.85 568.20-7.85ZM625-42.27L632.70-15.35L638.24-42.27L649.14-42.27L638.36 0L628.91 0L620.90-26.60L612.89 0L603.48 0L592.70-42.27L603.59-42.27L609.10-15.39L616.84-42.27L625-42.27ZM673.95-17.46L663.95-17.46Q663.95-22.93 665.27-26.17Q666.60-29.41 670.14-32.56Q673.67-35.70 674.84-37.68Q676.02-39.65 676.02-41.84L676.02-41.84Q676.02-48.44 669.92-48.44L669.92-48.44Q667.03-48.44 665.29-46.66Q663.55-44.88 663.48-41.76L663.48-41.76L652.15-41.76Q652.23-49.22 656.97-53.44Q661.72-57.66 669.92-57.66L669.92-57.66Q678.20-57.66 682.77-53.65Q687.34-49.65 687.34-42.34L687.34-42.34Q687.34-39.02 685.86-36.07Q684.38-33.13 680.66-29.53L680.66-29.53L677.50-26.52Q674.53-23.67 674.10-19.84L674.10-19.84L673.95-17.46ZM662.81-5.47L662.81-5.47Q662.81-8.09 664.59-9.79Q666.37-11.48 669.14-11.48Q671.91-11.48 673.69-9.79Q675.47-8.09 675.47-5.47L675.47-5.47Q675.47-2.89 673.73-1.21Q671.99 0.47 669.14 0.47Q666.29 0.47 664.55-1.21Q662.81-2.89 662.81-5.47Z" transform="translate(614.90234375, 420)" fill="#ffffff" />
  <line x1="660" y1="480" x2="1260" y2="480" stroke="#e94560" stroke-width="6"/>
  <circle cx="620" cy="535" r="8" fill="#e94560" /><path d="M20.57 0L18.59-5.86L8.32-5.86L6.37 0L0.14 0L10.72-28.44L16.15-28.44L26.80 0L20.57 0ZM13.44-21.25L9.90-10.61L17.01-10.61L13.44-21.25ZM35.68-28.44L35.68 0L29.82 0L29.82-28.44L35.68-28.44ZM51.72-14.45L51.72-9.90L40.72-9.90L40.72-14.45L51.72-14.45ZM75.27-10.66L75.27-10.37Q75.27-5.49 73.06-2.55Q70.84 0.39 67.07 0.39L67.07 0.39Q63.87 0.39 61.89-1.84L61.89-1.84L61.89 8.13L56.25 8.13L56.25-21.13L61.48-21.13L61.68-19.06Q63.73-21.52 67.03-21.52L67.03-21.52Q70.94-21.52 73.11-18.63Q75.27-15.74 75.27-10.66L75.27-10.66ZM69.63-10.78L69.63-10.78Q69.63-13.73 68.58-15.33Q67.54-16.93 65.55-16.93L65.55-16.93Q62.89-16.93 61.89-14.90L61.89-14.90L61.89-6.25Q62.93-4.16 65.59-4.16L65.59-4.16Q69.63-4.16 69.63-10.78ZM77.89-10.51L77.89-10.76Q77.89-13.91 79.10-16.37Q80.31-18.83 82.59-20.18Q84.86-21.52 87.87-21.52L87.87-21.52Q92.15-21.52 94.85-18.91Q97.56-16.29 97.87-11.80L97.87-11.80L97.91-10.35Q97.91-5.49 95.20-2.55Q92.48 0.39 87.91 0.39Q83.34 0.39 80.62-2.54Q77.89-5.47 77.89-10.51L77.89-10.51ZM83.54-10.35L83.54-10.35Q83.54-7.34 84.67-5.75Q85.80-4.16 87.91-4.16L87.91-4.16Q89.96-4.16 91.11-5.73Q92.27-7.30 92.27-10.76L92.27-10.76Q92.27-13.71 91.11-15.33Q89.96-16.95 87.87-16.95L87.87-16.95Q85.80-16.95 84.67-15.34Q83.54-13.73 83.54-10.35ZM115.92-21.13L119.77-7.68L122.54-21.13L127.99-21.13L122.60 0L117.87 0L113.87-13.30L109.86 0L105.16 0L99.77-21.13L105.21-21.13L107.97-7.70L111.84-21.13L115.92-21.13ZM140.51 0.39L140.51 0.39Q135.86 0.39 132.94-2.46Q130.02-5.31 130.02-10.06L130.02-10.06L130.02-10.61Q130.02-13.79 131.25-16.30Q132.48-18.81 134.74-20.17Q136.99-21.52 139.88-21.52L139.88-21.52Q144.22-21.52 146.71-18.79Q149.20-16.05 149.20-11.04L149.20-11.04L149.20-8.73L135.74-8.73Q136.02-6.66 137.39-5.41Q138.77-4.16 140.88-4.16L140.88-4.16Q144.14-4.16 145.98-6.52L145.98-6.52L148.75-3.42Q147.48-1.62 145.31-0.62Q143.14 0.39 140.51 0.39ZM139.86-16.95L139.86-16.95Q138.18-16.95 137.14-15.82Q136.09-14.69 135.80-12.58L135.80-12.58L143.65-12.58L143.65-13.03Q143.61-14.90 142.64-15.93Q141.66-16.95 139.86-16.95ZM164.36-21.27L164.28-15.84Q163.13-16.00 162.25-16.00L162.25-16.00Q159.04-16.00 158.05-13.83L158.05-13.83L158.05 0L152.40 0L152.40-21.13L157.73-21.13L157.89-18.61Q159.59-21.52 162.60-21.52L162.60-21.52Q163.54-21.52 164.36-21.27L164.36-21.27ZM176.72 0.39L176.72 0.39Q172.07 0.39 169.15-2.46Q166.23-5.31 166.23-10.06L166.23-10.06L166.23-10.61Q166.23-13.79 167.46-16.30Q168.69-18.81 170.95-20.17Q173.20-21.52 176.09-21.52L176.09-21.52Q180.43-21.52 182.92-18.79Q185.41-16.05 185.41-11.04L185.41-11.04L185.41-8.73L171.95-8.73Q172.23-6.66 173.60-5.41Q174.98-4.16 177.09-4.16L177.09-4.16Q180.35-4.16 182.19-6.52L182.19-6.52L184.96-3.42Q183.69-1.62 181.52-0.62Q179.36 0.39 176.72 0.39ZM176.07-16.95L176.07-16.95Q174.39-16.95 173.35-15.82Q172.30-14.69 172.01-12.58L172.01-12.58L179.86-12.58L179.86-13.03Q179.82-14.90 178.85-15.93Q177.87-16.95 176.07-16.95ZM187.73-10.72L187.73-10.72Q187.73-15.66 189.95-18.59Q192.17-21.52 196.02-21.52L196.02-21.52Q199.10-21.52 201.11-19.22L201.11-19.22L201.11-30L206.78-30L206.78 0L201.68 0L201.41-2.25Q199.30 0.39 195.98 0.39L195.98 0.39Q192.25 0.39 189.99-2.55Q187.73-5.49 187.73-10.72ZM193.38-10.31L193.38-10.31Q193.38-7.34 194.41-5.76Q195.45-4.18 197.42-4.18L197.42-4.18Q200.04-4.18 201.11-6.39L201.11-6.39L201.11-14.73Q200.06-16.93 197.46-16.93L197.46-16.93Q193.38-16.93 193.38-10.31ZM240.14-10.66L240.14-10.37Q240.14-5.49 237.92-2.55Q235.70 0.39 231.93 0.39L231.93 0.39Q228.73 0.39 226.76-1.84L226.76-1.84L226.76 8.13L221.11 8.13L221.11-21.13L226.35-21.13L226.54-19.06Q228.59-21.52 231.89-21.52L231.89-21.52Q235.80-21.52 237.97-18.63Q240.14-15.74 240.14-10.66L240.14-10.66ZM234.49-10.78L234.49-10.78Q234.49-13.73 233.45-15.33Q232.40-16.93 230.41-16.93L230.41-16.93Q227.75-16.93 226.76-14.90L226.76-14.90L226.76-6.25Q227.79-4.16 230.45-4.16L230.45-4.16Q234.49-4.16 234.49-10.78ZM253.36 0.39L253.36 0.39Q248.71 0.39 245.79-2.46Q242.87-5.31 242.87-10.06L242.87-10.06L242.87-10.61Q242.87-13.79 244.10-16.30Q245.33-18.81 247.59-20.17Q249.84-21.52 252.73-21.52L252.73-21.52Q257.07-21.52 259.56-18.79Q262.05-16.05 262.05-11.04L262.05-11.04L262.05-8.73L248.59-8.73Q248.87-6.66 250.24-5.41Q251.62-4.16 253.73-4.16L253.73-4.16Q256.99-4.16 258.83-6.52L258.83-6.52L261.60-3.42Q260.33-1.62 258.16-0.62Q256.00 0.39 253.36 0.39ZM252.71-16.95L252.71-16.95Q251.04-16.95 249.99-15.82Q248.95-14.69 248.65-12.58L248.65-12.58L256.50-12.58L256.50-13.03Q256.46-14.90 255.49-15.93Q254.51-16.95 252.71-16.95ZM277.21-21.27L277.13-15.84Q275.98-16.00 275.10-16.00L275.10-16.00Q271.89-16.00 270.90-13.83L270.90-13.83L270.90 0L265.25 0L265.25-21.13L270.59-21.13L270.74-18.61Q272.44-21.52 275.45-21.52L275.45-21.52Q276.39-21.52 277.21-21.27L277.21-21.27ZM291.29-5.84L291.29-5.84Q291.29-6.88 290.26-7.47Q289.24-8.07 286.97-8.54L286.97-8.54Q279.43-10.12 279.43-14.94L279.43-14.94Q279.43-17.75 281.77-19.64Q284.10-21.52 287.87-21.52L287.87-21.52Q291.89-21.52 294.31-19.63Q296.72-17.73 296.72-14.71L296.72-14.71L291.07-14.71Q291.07-15.92 290.29-16.71Q289.51-17.50 287.85-17.50L287.85-17.50Q286.43-17.50 285.64-16.86Q284.86-16.21 284.86-15.21L284.86-15.21Q284.86-14.28 285.75-13.70Q286.64-13.13 288.75-12.71Q290.86-12.29 292.30-11.76L292.30-11.76Q296.78-10.12 296.78-6.07L296.78-6.07Q296.78-3.18 294.30-1.40Q291.82 0.39 287.89 0.39L287.89 0.39Q285.23 0.39 283.17-0.56Q281.11-1.50 279.94-3.15Q278.77-4.80 278.77-6.72L278.77-6.72L284.12-6.72Q284.20-5.21 285.23-4.41Q286.27-3.61 288.01-3.61L288.01-3.61Q289.63-3.61 290.46-4.23Q291.29-4.84 291.29-5.84ZM299.53-10.51L299.53-10.76Q299.53-13.91 300.74-16.37Q301.95-18.83 304.23-20.18Q306.50-21.52 309.51-21.52L309.51-21.52Q313.79-21.52 316.49-18.91Q319.20-16.29 319.51-11.80L319.51-11.80L319.55-10.35Q319.55-5.49 316.84-2.55Q314.12 0.39 309.55 0.39Q304.98 0.39 302.26-2.54Q299.53-5.47 299.53-10.51L299.53-10.51ZM305.18-10.35L305.18-10.35Q305.18-7.34 306.31-5.75Q307.44-4.16 309.55-4.16L309.55-4.16Q311.60-4.16 312.75-5.73Q313.91-7.30 313.91-10.76L313.91-10.76Q313.91-13.71 312.75-15.33Q311.60-16.95 309.51-16.95L309.51-16.95Q307.44-16.95 306.31-15.34Q305.18-13.73 305.18-10.35ZM322.91-21.13L328.22-21.13L328.40-18.69Q330.66-21.52 334.47-21.52L334.47-21.52Q337.83-21.52 339.47-19.55Q341.11-17.58 341.15-13.65L341.15-13.65L341.15 0L335.51 0L335.51-13.52Q335.51-15.31 334.73-16.12Q333.95-16.93 332.13-16.93L332.13-16.93Q329.75-16.93 328.55-14.90L328.55-14.90L328.55 0L322.91 0L322.91-21.13ZM363.38 0L357.68 0Q357.29-0.76 357.11-1.89L357.11-1.89Q355.06 0.39 351.78 0.39L351.78 0.39Q348.67 0.39 346.63-1.41Q344.59-3.20 344.59-5.94L344.59-5.94Q344.59-9.30 347.08-11.09Q349.57-12.89 354.28-12.91L354.28-12.91L356.88-12.91L356.88-14.12Q356.88-15.59 356.12-16.46Q355.37-17.34 353.75-17.34L353.75-17.34Q352.32-17.34 351.51-16.66Q350.70-15.98 350.70-14.79L350.70-14.79L345.06-14.79Q345.06-16.62 346.19-18.18Q347.32-19.75 349.39-20.63Q351.46-21.52 354.04-21.52L354.04-21.52Q357.95-21.52 360.24-19.56Q362.54-17.60 362.54-14.04L362.54-14.04L362.54-4.88Q362.56-1.88 363.38-0.33L363.38-0.33L363.38 0ZM353.01-3.93L353.01-3.93Q354.26-3.93 355.31-4.48Q356.37-5.04 356.88-5.98L356.88-5.98L356.88-9.61L354.77-9.61Q350.53-9.61 350.25-6.68L350.25-6.68L350.23-6.35Q350.23-5.29 350.98-4.61Q351.72-3.93 353.01-3.93ZM372.83-30L372.83 0L367.17 0L367.17-30L372.83-30ZM405.39 0L399.69 0Q399.30-0.76 399.12-1.89L399.12-1.89Q397.07 0.39 393.79 0.39L393.79 0.39Q390.68 0.39 388.64-1.41Q386.60-3.20 386.60-5.94L386.60-5.94Q386.60-9.30 389.09-11.09Q391.58-12.89 396.29-12.91L396.29-12.91L398.89-12.91L398.89-14.12Q398.89-15.59 398.13-16.46Q397.38-17.34 395.76-17.34L395.76-17.34Q394.34-17.34 393.53-16.66Q392.71-15.98 392.71-14.79L392.71-14.79L387.07-14.79Q387.07-16.62 388.20-18.18Q389.34-19.75 391.41-20.63Q393.48-21.52 396.05-21.52L396.05-21.52Q399.96-21.52 402.26-19.56Q404.55-17.60 404.55-14.04L404.55-14.04L404.55-4.88Q404.57-1.88 405.39-0.33L405.39-0.33L405.39 0ZM395.02-3.93L395.02-3.93Q396.27-3.93 397.32-4.48Q398.38-5.04 398.89-5.98L398.89-5.98L398.89-9.61L396.78-9.61Q392.54-9.61 392.27-6.68L392.27-6.68L392.25-6.35Q392.25-5.29 392.99-4.61Q393.73-3.93 395.02-3.93ZM420.33-5.84L420.33-5.84Q420.33-6.88 419.31-7.47Q418.28-8.07 416.02-8.54L416.02-8.54Q408.48-10.12 408.48-14.94L408.48-14.94Q408.48-17.75 410.81-19.64Q413.14-21.52 416.91-21.52L416.91-21.52Q420.94-21.52 423.35-19.63Q425.76-17.73 425.76-14.71L425.76-14.71L420.12-14.71Q420.12-15.92 419.34-16.71Q418.55-17.50 416.89-17.50L416.89-17.50Q415.47-17.50 414.69-16.86Q413.91-16.21 413.91-15.21L413.91-15.21Q413.91-14.28 414.79-13.70Q415.68-13.13 417.79-12.71Q419.90-12.29 421.35-11.76L421.35-11.76Q425.82-10.12 425.82-6.07L425.82-6.07Q425.82-3.18 423.34-1.40Q420.86 0.39 416.93 0.39L416.93 0.39Q414.28 0.39 412.22-0.56Q410.16-1.50 408.98-3.15Q407.81-4.80 407.81-6.72L407.81-6.72L413.16-6.72Q413.24-5.21 414.28-4.41Q415.31-3.61 417.05-3.61L417.05-3.61Q418.67-3.61 419.50-4.23Q420.33-4.84 420.33-5.84ZM440.90-5.84L440.90-5.84Q440.90-6.88 439.87-7.47Q438.85-8.07 436.58-8.54L436.58-8.54Q429.04-10.12 429.04-14.94L429.04-14.94Q429.04-17.75 431.38-19.64Q433.71-21.52 437.48-21.52L437.48-21.52Q441.50-21.52 443.92-19.63Q446.33-17.73 446.33-14.71L446.33-14.71L440.68-14.71Q440.68-15.92 439.90-16.71Q439.12-17.50 437.46-17.50L437.46-17.50Q436.04-17.50 435.25-16.86Q434.47-16.21 434.47-15.21L434.47-15.21Q434.47-14.28 435.36-13.70Q436.25-13.13 438.36-12.71Q440.47-12.29 441.91-11.76L441.91-11.76Q446.39-10.12 446.39-6.07L446.39-6.07Q446.39-3.18 443.91-1.40Q441.43 0.39 437.50 0.39L437.50 0.39Q434.84 0.39 432.78-0.56Q430.72-1.50 429.55-3.15Q428.38-4.80 428.38-6.72L428.38-6.72L433.73-6.72Q433.81-5.21 434.84-4.41Q435.88-3.61 437.62-3.61L437.62-3.61Q439.24-3.61 440.07-4.23Q440.90-4.84 440.90-5.84ZM455.98-21.13L455.98 0L450.31 0L450.31-21.13L455.98-21.13ZM449.98-26.60L449.98-26.60Q449.98-27.87 450.83-28.69Q451.68-29.51 453.14-29.51L453.14-29.51Q454.59-29.51 455.45-28.69Q456.31-27.87 456.31-26.60L456.31-26.60Q456.31-25.31 455.44-24.49Q454.57-23.67 453.14-23.67Q451.72-23.67 450.85-24.49Q449.98-25.31 449.98-26.60ZM472.07-5.84L472.07-5.84Q472.07-6.88 471.04-7.47Q470.02-8.07 467.75-8.54L467.75-8.54Q460.21-10.12 460.21-14.94L460.21-14.94Q460.21-17.75 462.55-19.64Q464.88-21.52 468.65-21.52L468.65-21.52Q472.68-21.52 475.09-19.63Q477.50-17.73 477.50-14.71L477.50-14.71L471.86-14.71Q471.86-15.92 471.07-16.71Q470.29-17.50 468.63-17.50L468.63-17.50Q467.21-17.50 466.43-16.86Q465.64-16.21 465.64-15.21L465.64-15.21Q465.64-14.28 466.53-13.70Q467.42-13.13 469.53-12.71Q471.64-12.29 473.09-11.76L473.09-11.76Q477.56-10.12 477.56-6.07L477.56-6.07Q477.56-3.18 475.08-1.40Q472.60 0.39 468.67 0.39L468.67 0.39Q466.02 0.39 463.96-0.56Q461.89-1.50 460.72-3.15Q459.55-4.80 459.55-6.72L459.55-6.72L464.90-6.72Q464.98-5.21 466.02-4.41Q467.05-3.61 468.79-3.61L468.79-3.61Q470.41-3.61 471.24-4.23Q472.07-4.84 472.07-5.84ZM482.30-26.33L487.95-26.33L487.95-21.13L491.56-21.13L491.56-16.99L487.95-16.99L487.95-6.45Q487.95-5.27 488.40-4.77Q488.85-4.26 490.12-4.26L490.12-4.26Q491.05-4.26 491.78-4.39L491.78-4.39L491.78-0.12Q490.12 0.39 488.36 0.39L488.36 0.39Q482.42 0.39 482.30-5.61L482.30-5.61L482.30-16.99L479.22-16.99L479.22-21.13L482.30-21.13L482.30-26.33ZM512.66 0L506.95 0Q506.56-0.76 506.39-1.89L506.39-1.89Q504.34 0.39 501.05 0.39L501.05 0.39Q497.95 0.39 495.91-1.41Q493.87-3.20 493.87-5.94L493.87-5.94Q493.87-9.30 496.36-11.09Q498.85-12.89 503.55-12.91L503.55-12.91L506.15-12.91L506.15-14.12Q506.15-15.59 505.40-16.46Q504.65-17.34 503.03-17.34L503.03-17.34Q501.60-17.34 500.79-16.66Q499.98-15.98 499.98-14.79L499.98-14.79L494.34-14.79Q494.34-16.62 495.47-18.18Q496.60-19.75 498.67-20.63Q500.74-21.52 503.32-21.52L503.32-21.52Q507.23-21.52 509.52-19.56Q511.82-17.60 511.82-14.04L511.82-14.04L511.82-4.88Q511.84-1.88 512.66-0.33L512.66-0.33L512.66 0ZM502.29-3.93L502.29-3.93Q503.54-3.93 504.59-4.48Q505.64-5.04 506.15-5.98L506.15-5.98L506.15-9.61L504.04-9.61Q499.80-9.61 499.53-6.68L499.53-6.68L499.51-6.35Q499.51-5.29 500.25-4.61Q501.00-3.93 502.29-3.93ZM516.04-21.13L521.35-21.13L521.52-18.69Q523.79-21.52 527.60-21.52L527.60-21.52Q530.96-21.52 532.60-19.55Q534.24-17.58 534.28-13.65L534.28-13.65L534.28 0L528.63 0L528.63-13.52Q528.63-15.31 527.85-16.12Q527.07-16.93 525.25-16.93L525.25-16.93Q522.87-16.93 521.68-14.90L521.68-14.90L521.68 0L516.04 0L516.04-21.13ZM539.67-26.33L545.31-26.33L545.31-21.13L548.93-21.13L548.93-16.99L545.31-16.99L545.31-6.45Q545.31-5.27 545.76-4.77Q546.21-4.26 547.48-4.26L547.48-4.26Q548.42-4.26 549.14-4.39L549.14-4.39L549.14-0.12Q547.48 0.39 545.72 0.39L545.72 0.39Q539.79 0.39 539.67-5.61L539.67-5.61L539.67-16.99L536.58-16.99L536.58-21.13L539.67-21.13L539.67-26.33Z" transform="translate(660, 535)" fill="#ffffff" /><circle cx="620" cy="605" r="8" fill="#e94560" /><path d="M18.40 0L13.07-10.41L8.40-10.41L8.40 0L2.54 0L2.54-28.44L13.11-28.44Q18.14-28.44 20.88-26.19Q23.61-23.95 23.61-19.84L23.61-19.84Q23.61-16.93 22.35-14.99Q21.09-13.05 18.54-11.89L18.54-11.89L24.69-0.27L24.69 0L18.40 0ZM8.40-23.69L8.40-15.16L13.13-15.16Q15.33-15.16 16.54-16.28Q17.75-17.40 17.75-19.38L17.75-19.38Q17.75-21.39 16.61-22.54Q15.47-23.69 13.11-23.69L13.11-23.69L8.40-23.69ZM40.51 0L40.35-2.15Q38.26 0.39 34.57 0.39L34.57 0.39Q31.17 0.39 29.38-1.56Q27.60-3.52 27.56-7.29L27.56-7.29L27.56-21.13L33.20-21.13L33.20-7.48Q33.20-4.18 36.21-4.18L36.21-4.18Q39.08-4.18 40.16-6.17L40.16-6.17L40.16-21.13L45.82-21.13L45.82 0L40.51 0ZM49.96-21.13L55.27-21.13L55.45-18.69Q57.71-21.52 61.52-21.52L61.52-21.52Q64.88-21.52 66.52-19.55Q68.16-17.58 68.20-13.65L68.20-13.65L68.20 0L62.56 0L62.56-13.52Q62.56-15.31 61.78-16.12Q61.00-16.93 59.18-16.93L59.18-16.93Q56.80-16.93 55.61-14.90L55.61-14.90L55.61 0L49.96 0L49.96-21.13ZM83.93-5.84L83.93-5.84Q83.93-6.88 82.90-7.47Q81.88-8.07 79.61-8.54L79.61-8.54Q72.07-10.12 72.07-14.94L72.07-14.94Q72.07-17.75 74.40-19.64Q76.74-21.52 80.51-21.52L80.51-21.52Q84.53-21.52 86.94-19.63Q89.36-17.73 89.36-14.71L89.36-14.71L83.71-14.71Q83.71-15.92 82.93-16.71Q82.15-17.50 80.49-17.50L80.49-17.50Q79.06-17.50 78.28-16.86Q77.50-16.21 77.50-15.21L77.50-15.21Q77.50-14.28 78.39-13.70Q79.28-13.13 81.39-12.71Q83.50-12.29 84.94-11.76L84.94-11.76Q89.41-10.12 89.41-6.07L89.41-6.07Q89.41-3.18 86.93-1.40Q84.45 0.39 80.53 0.39L80.53 0.39Q77.87 0.39 75.81-0.56Q73.75-1.50 72.58-3.15Q71.41-4.80 71.41-6.72L71.41-6.72L76.76-6.72Q76.84-5.21 77.87-4.41Q78.91-3.61 80.64-3.61L80.64-3.61Q82.27-3.61 83.10-4.23Q83.93-4.84 83.93-5.84ZM102.13-10.51L102.13-10.76Q102.13-13.91 103.34-16.37Q104.55-18.83 106.83-20.18Q109.10-21.52 112.11-21.52L112.11-21.52Q116.39-21.52 119.09-18.91Q121.80-16.29 122.11-11.80L122.11-11.80L122.15-10.35Q122.15-5.49 119.43-2.55Q116.72 0.39 112.15 0.39Q107.58 0.39 104.85-2.54Q102.13-5.47 102.13-10.51L102.13-10.51ZM107.77-10.35L107.77-10.35Q107.77-7.34 108.91-5.75Q110.04-4.16 112.15-4.16L112.15-4.16Q114.20-4.16 115.35-5.73Q116.50-7.30 116.50-10.76L116.50-10.76Q116.50-13.71 115.35-15.33Q114.20-16.95 112.11-16.95L112.11-16.95Q110.04-16.95 108.91-15.34Q107.77-13.73 107.77-10.35ZM125.51-21.13L130.82-21.13L131.00-18.69Q133.26-21.52 137.07-21.52L137.07-21.52Q140.43-21.52 142.07-19.55Q143.71-17.58 143.75-13.65L143.75-13.65L143.75 0L138.11 0L138.11-13.52Q138.11-15.31 137.32-16.12Q136.54-16.93 134.73-16.93L134.73-16.93Q132.34-16.93 131.15-14.90L131.15-14.90L131.15 0L125.51 0L125.51-21.13ZM161.95-21.13L165.88-7.99L169.79-21.13L175.84-21.13L167.34 3.28L166.88 4.39Q164.98 8.54 160.63 8.54L160.63 8.54Q159.39 8.54 158.13 8.16L158.13 8.16L158.13 3.89L158.98 3.91Q160.59 3.91 161.38 3.42Q162.17 2.93 162.62 1.80L162.62 1.80L163.28 0.06L155.88-21.13L161.95-21.13ZM177.19-10.51L177.19-10.76Q177.19-13.91 178.40-16.37Q179.61-18.83 181.88-20.18Q184.16-21.52 187.17-21.52L187.17-21.52Q191.45-21.52 194.15-18.91Q196.86-16.29 197.17-11.80L197.17-11.80L197.21-10.35Q197.21-5.49 194.49-2.55Q191.78 0.39 187.21 0.39Q182.64 0.39 179.91-2.54Q177.19-5.47 177.19-10.51L177.19-10.51ZM182.83-10.35L182.83-10.35Q182.83-7.34 183.96-5.75Q185.10-4.16 187.21-4.16L187.21-4.16Q189.26-4.16 190.41-5.73Q191.56-7.30 191.56-10.76L191.56-10.76Q191.56-13.71 190.41-15.33Q189.26-16.95 187.17-16.95L187.17-16.95Q185.10-16.95 183.96-15.34Q182.83-13.73 182.83-10.35ZM213.50 0L213.34-2.15Q211.25 0.39 207.56 0.39L207.56 0.39Q204.16 0.39 202.37-1.56Q200.59-3.52 200.55-7.29L200.55-7.29L200.55-21.13L206.19-21.13L206.19-7.48Q206.19-4.18 209.20-4.18L209.20-4.18Q212.07-4.18 213.14-6.17L213.14-6.17L213.14-21.13L218.81-21.13L218.81 0L213.50 0ZM235.02-21.27L234.94-15.84Q233.79-16.00 232.91-16.00L232.91-16.00Q229.71-16.00 228.71-13.83L228.71-13.83L228.71 0L223.07 0L223.07-21.13L228.40-21.13L228.55-18.61Q230.25-21.52 233.26-21.52L233.26-21.52Q234.20-21.52 235.02-21.27L235.02-21.27ZM259.06-5.84L259.06-5.84Q259.06-6.88 258.04-7.47Q257.01-8.07 254.75-8.54L254.75-8.54Q247.21-10.12 247.21-14.94L247.21-14.94Q247.21-17.75 249.54-19.64Q251.88-21.52 255.64-21.52L255.64-21.52Q259.67-21.52 262.08-19.63Q264.49-17.73 264.49-14.71L264.49-14.71L258.85-14.71Q258.85-15.92 258.07-16.71Q257.29-17.50 255.63-17.50L255.63-17.50Q254.20-17.50 253.42-16.86Q252.64-16.21 252.64-15.21L252.64-15.21Q252.64-14.28 253.53-13.70Q254.41-13.13 256.52-12.71Q258.63-12.29 260.08-11.76L260.08-11.76Q264.55-10.12 264.55-6.07L264.55-6.07Q264.55-3.18 262.07-1.40Q259.59 0.39 255.66 0.39L255.66 0.39Q253.01 0.39 250.95-0.56Q248.89-1.50 247.71-3.15Q246.54-4.80 246.54-6.72L246.54-6.72L251.89-6.72Q251.97-5.21 253.01-4.41Q254.04-3.61 255.78-3.61L255.78-3.61Q257.40-3.61 258.23-4.23Q259.06-4.84 259.06-5.84ZM277.91 0.39L277.91 0.39Q273.26 0.39 270.34-2.46Q267.42-5.31 267.42-10.06L267.42-10.06L267.42-10.61Q267.42-13.79 268.65-16.30Q269.88-18.81 272.14-20.17Q274.39-21.52 277.29-21.52L277.29-21.52Q281.62-21.52 284.11-18.79Q286.60-16.05 286.60-11.04L286.60-11.04L286.60-8.73L273.14-8.73Q273.42-6.66 274.79-5.41Q276.17-4.16 278.28-4.16L278.28-4.16Q281.54-4.16 283.38-6.52L283.38-6.52L286.15-3.42Q284.88-1.62 282.71-0.62Q280.55 0.39 277.91 0.39ZM277.27-16.95L277.27-16.95Q275.59-16.95 274.54-15.82Q273.50-14.69 273.20-12.58L273.20-12.58L281.05-12.58L281.05-13.03Q281.02-14.90 280.04-15.93Q279.06-16.95 277.27-16.95ZM301.76-21.27L301.68-15.84Q300.53-16.00 299.65-16.00L299.65-16.00Q296.45-16.00 295.45-13.83L295.45-13.83L295.45 0L289.80 0L289.80-21.13L295.14-21.13L295.29-18.61Q296.99-21.52 300-21.52L300-21.52Q300.94-21.52 301.76-21.27L301.76-21.27ZM308.38-21.13L312.30-6.89L316.23-21.13L322.13-21.13L315 0L309.61 0L302.48-21.13L308.38-21.13ZM334.34 0.39L334.34 0.39Q329.69 0.39 326.77-2.46Q323.85-5.31 323.85-10.06L323.85-10.06L323.85-10.61Q323.85-13.79 325.08-16.30Q326.31-18.81 328.56-20.17Q330.82-21.52 333.71-21.52L333.71-21.52Q338.05-21.52 340.54-18.79Q343.03-16.05 343.03-11.04L343.03-11.04L343.03-8.73L329.57-8.73Q329.84-6.66 331.22-5.41Q332.60-4.16 334.71-4.16L334.71-4.16Q337.97-4.16 339.80-6.52L339.80-6.52L342.58-3.42Q341.31-1.62 339.14-0.62Q336.97 0.39 334.34 0.39ZM333.69-16.95L333.69-16.95Q332.01-16.95 330.97-15.82Q329.92-14.69 329.63-12.58L329.63-12.58L337.48-12.58L337.48-13.03Q337.44-14.90 336.46-15.93Q335.49-16.95 333.69-16.95ZM358.18-21.27L358.11-15.84Q356.95-16.00 356.07-16.00L356.07-16.00Q352.87-16.00 351.88-13.83L351.88-13.83L351.88 0L346.23 0L346.23-21.13L351.56-21.13L351.72-18.61Q353.42-21.52 356.43-21.52L356.43-21.52Q357.36-21.52 358.18-21.27L358.18-21.27ZM372.27-5.84L372.27-5.84Q372.27-6.88 371.24-7.47Q370.21-8.07 367.95-8.54L367.95-8.54Q360.41-10.12 360.41-14.94L360.41-14.94Q360.41-17.75 362.74-19.64Q365.08-21.52 368.85-21.52L368.85-21.52Q372.87-21.52 375.28-19.63Q377.70-17.73 377.70-14.71L377.70-14.71L372.05-14.71Q372.05-15.92 371.27-16.71Q370.49-17.50 368.83-17.50L368.83-17.50Q367.40-17.50 366.62-16.86Q365.84-16.21 365.84-15.21L365.84-15.21Q365.84-14.28 366.73-13.70Q367.62-13.13 369.73-12.71Q371.84-12.29 373.28-11.76L373.28-11.76Q377.75-10.12 377.75-6.07L377.75-6.07Q377.75-3.18 375.27-1.40Q372.79 0.39 368.87 0.39L368.87 0.39Q366.21 0.39 364.15-0.56Q362.09-1.50 360.92-3.15Q359.75-4.80 359.75-6.72L359.75-6.72L365.10-6.72Q365.18-5.21 366.21-4.41Q367.25-3.61 368.98-3.61L368.98-3.61Q370.61-3.61 371.44-4.23Q372.27-4.84 372.27-5.84Z" transform="translate(660, 605)" fill="#ffffff" /><circle cx="620" cy="675" r="8" fill="#e94560" /><path d="M8.77-28.44L8.77 0L2.91 0L2.91-28.44L8.77-28.44ZM13.71-21.13L19.02-21.13L19.20-18.69Q21.46-21.52 25.27-21.52L25.27-21.52Q28.63-21.52 30.27-19.55Q31.91-17.58 31.95-13.65L31.95-13.65L31.95 0L26.31 0L26.31-13.52Q26.31-15.31 25.53-16.12Q24.75-16.93 22.93-16.93L22.93-16.93Q20.55-16.93 19.36-14.90L19.36-14.90L19.36 0L13.71 0L13.71-21.13ZM37.34-26.33L42.99-26.33L42.99-21.13L46.60-21.13L46.60-16.99L42.99-16.99L42.99-6.45Q42.99-5.27 43.44-4.77Q43.89-4.26 45.16-4.26L45.16-4.26Q46.09-4.26 46.82-4.39L46.82-4.39L46.82-0.12Q45.16 0.39 43.40 0.39L43.40 0.39Q37.46 0.39 37.34-5.61L37.34-5.61L37.34-16.99L34.26-16.99L34.26-21.13L37.34-21.13L37.34-26.33ZM59.47 0.39L59.47 0.39Q54.82 0.39 51.90-2.46Q48.98-5.31 48.98-10.06L48.98-10.06L48.98-10.61Q48.98-13.79 50.21-16.30Q51.45-18.81 53.70-20.17Q55.96-21.52 58.85-21.52L58.85-21.52Q63.18-21.52 65.67-18.79Q68.16-16.05 68.16-11.04L68.16-11.04L68.16-8.73L54.71-8.73Q54.98-6.66 56.36-5.41Q57.73-4.16 59.84-4.16L59.84-4.16Q63.11-4.16 64.94-6.52L64.94-6.52L67.71-3.42Q66.45-1.62 64.28-0.62Q62.11 0.39 59.47 0.39ZM58.83-16.95L58.83-16.95Q57.15-16.95 56.10-15.82Q55.06-14.69 54.77-12.58L54.77-12.58L62.62-12.58L62.62-13.03Q62.58-14.90 61.60-15.93Q60.63-16.95 58.83-16.95ZM70.55-10.49L70.55-10.72Q70.55-15.59 72.86-18.55Q75.18-21.52 79.10-21.52L79.10-21.52Q82.58-21.52 84.51-19.14L84.51-19.14L84.75-21.13L89.86-21.13L89.86-0.70Q89.86 2.07 88.60 4.12Q87.34 6.17 85.06 7.25Q82.77 8.32 79.71 8.32L79.71 8.32Q77.38 8.32 75.18 7.39Q72.97 6.46 71.84 5L71.84 5L74.34 1.56Q76.45 3.93 79.45 3.93L79.45 3.93Q81.70 3.93 82.95 2.72Q84.20 1.52 84.20-0.68L84.20-0.68L84.20-1.82Q82.25 0.39 79.06 0.39L79.06 0.39Q75.25 0.39 72.90-2.59Q70.55-5.57 70.55-10.49L70.55-10.49ZM76.19-10.31L76.19-10.31Q76.19-7.44 77.34-5.81Q78.50-4.18 80.51-4.18L80.51-4.18Q83.09-4.18 84.20-6.11L84.20-6.11L84.20-15Q83.07-16.93 80.55-16.93L80.55-16.93Q78.52-16.93 77.35-15.27Q76.19-13.61 76.19-10.31ZM106.15-21.27L106.07-15.84Q104.92-16.00 104.04-16.00L104.04-16.00Q100.84-16.00 99.84-13.83L99.84-13.83L99.84 0L94.20 0L94.20-21.13L99.53-21.13L99.69-18.61Q101.39-21.52 104.39-21.52L104.39-21.52Q105.33-21.52 106.15-21.27L106.15-21.27ZM126.74 0L121.04 0Q120.64-0.76 120.47-1.89L120.47-1.89Q118.42 0.39 115.14 0.39L115.14 0.39Q112.03 0.39 109.99-1.41Q107.95-3.20 107.95-5.94L107.95-5.94Q107.95-9.30 110.44-11.09Q112.93-12.89 117.64-12.91L117.64-12.91L120.23-12.91L120.23-14.12Q120.23-15.59 119.48-16.46Q118.73-17.34 117.11-17.34L117.11-17.34Q115.68-17.34 114.87-16.66Q114.06-15.98 114.06-14.79L114.06-14.79L108.42-14.79Q108.42-16.62 109.55-18.18Q110.68-19.75 112.75-20.63Q114.82-21.52 117.40-21.52L117.40-21.52Q121.31-21.52 123.60-19.56Q125.90-17.60 125.90-14.04L125.90-14.04L125.90-4.88Q125.92-1.88 126.74-0.33L126.74-0.33L126.74 0ZM116.37-3.93L116.37-3.93Q117.62-3.93 118.67-4.48Q119.73-5.04 120.23-5.98L120.23-5.98L120.23-9.61L118.13-9.61Q113.89-9.61 113.61-6.68L113.61-6.68L113.59-6.35Q113.59-5.29 114.34-4.61Q115.08-3.93 116.37-3.93ZM131.35-26.33L136.99-26.33L136.99-21.13L140.61-21.13L140.61-16.99L136.99-16.99L136.99-6.45Q136.99-5.27 137.44-4.77Q137.89-4.26 139.16-4.26L139.16-4.26Q140.10-4.26 140.82-4.39L140.82-4.39L140.82-0.12Q139.16 0.39 137.40 0.39L137.40 0.39Q131.46 0.39 131.35-5.61L131.35-5.61L131.35-16.99L128.26-16.99L128.26-21.13L131.35-21.13L131.35-26.33ZM153.48 0.39L153.48 0.39Q148.83 0.39 145.91-2.46Q142.99-5.31 142.99-10.06L142.99-10.06L142.99-10.61Q142.99-13.79 144.22-16.30Q145.45-18.81 147.71-20.17Q149.96-21.52 152.85-21.52L152.85-21.52Q157.19-21.52 159.68-18.79Q162.17-16.05 162.17-11.04L162.17-11.04L162.17-8.73L148.71-8.73Q148.98-6.66 150.36-5.41Q151.74-4.16 153.85-4.16L153.85-4.16Q157.11-4.16 158.95-6.52L158.95-6.52L161.72-3.42Q160.45-1.62 158.28-0.62Q156.11 0.39 153.48 0.39ZM152.83-16.95L152.83-16.95Q151.15-16.95 150.11-15.82Q149.06-14.69 148.77-12.58L148.77-12.58L156.62-12.58L156.62-13.03Q156.58-14.90 155.61-15.93Q154.63-16.95 152.83-16.95ZM176.82-5.84L176.82-5.84Q176.82-6.88 175.79-7.47Q174.77-8.07 172.50-8.54L172.50-8.54Q164.96-10.12 164.96-14.94L164.96-14.94Q164.96-17.75 167.29-19.64Q169.63-21.52 173.40-21.52L173.40-21.52Q177.42-21.52 179.83-19.63Q182.25-17.73 182.25-14.71L182.25-14.71L176.60-14.71Q176.60-15.92 175.82-16.71Q175.04-17.50 173.38-17.50L173.38-17.50Q171.95-17.50 171.17-16.86Q170.39-16.21 170.39-15.21L170.39-15.21Q170.39-14.28 171.28-13.70Q172.17-13.13 174.28-12.71Q176.39-12.29 177.83-11.76L177.83-11.76Q182.30-10.12 182.30-6.07L182.30-6.07Q182.30-3.18 179.82-1.40Q177.34 0.39 173.42 0.39L173.42 0.39Q170.76 0.39 168.70-0.56Q166.64-1.50 165.47-3.15Q164.30-4.80 164.30-6.72L164.30-6.72L169.65-6.72Q169.73-5.21 170.76-4.41Q171.80-3.61 173.54-3.61L173.54-3.61Q175.16-3.61 175.99-4.23Q176.82-4.84 176.82-5.84ZM210.43-21.13L214.28-7.68L217.05-21.13L222.50-21.13L217.11 0L212.38 0L208.38-13.30L204.38 0L199.67 0L194.28-21.13L199.73-21.13L202.48-7.70L206.35-21.13L210.43-21.13ZM231.25-21.13L231.25 0L225.59 0L225.59-21.13L231.25-21.13ZM225.25-26.60L225.25-26.60Q225.25-27.87 226.10-28.69Q226.95-29.51 228.42-29.51L228.42-29.51Q229.86-29.51 230.72-28.69Q231.58-27.87 231.58-26.60L231.58-26.60Q231.58-25.31 230.71-24.49Q229.84-23.67 228.42-23.67Q226.99-23.67 226.12-24.49Q225.25-25.31 225.25-26.60ZM237.01-26.33L242.66-26.33L242.66-21.13L246.27-21.13L246.27-16.99L242.66-16.99L242.66-6.45Q242.66-5.27 243.11-4.77Q243.55-4.26 244.82-4.26L244.82-4.26Q245.76-4.26 246.48-4.39L246.48-4.39L246.48-0.12Q244.82 0.39 243.07 0.39L243.07 0.39Q237.13 0.39 237.01-5.61L237.01-5.61L237.01-16.99L233.93-16.99L233.93-21.13L237.01-21.13L237.01-26.33ZM254.92-30L254.92-18.83Q257.17-21.52 260.57-21.52L260.57-21.52Q267.44-21.52 267.54-13.54L267.54-13.54L267.54 0L261.89 0L261.89-13.38Q261.89-15.20 261.11-16.06Q260.33-16.93 258.52-16.93L258.52-16.93Q256.04-16.93 254.92-15.02L254.92-15.02L254.92 0L249.28 0L249.28-30L254.92-30ZM290.94 0L282.13 0L282.13-28.44L290.88-28.44Q294.63-28.44 297.59-26.75Q300.55-25.06 302.21-21.94Q303.87-18.83 303.87-14.86L303.87-14.86L303.87-13.55Q303.87-9.59 302.24-6.50Q300.61-3.42 297.64-1.72Q294.67-0.02 290.94 0L290.94 0ZM290.88-23.69L287.99-23.69L287.99-4.71L290.82-4.71Q294.26-4.71 296.07-6.95Q297.89-9.20 297.93-13.38L297.93-13.38L297.93-14.88Q297.93-19.22 296.13-21.46Q294.34-23.69 290.88-23.69L290.88-23.69ZM313.71-21.13L313.71 0L308.05 0L308.05-21.13L313.71-21.13ZM307.71-26.60L307.71-26.60Q307.71-27.87 308.56-28.69Q309.41-29.51 310.88-29.51L310.88-29.51Q312.32-29.51 313.18-28.69Q314.04-27.87 314.04-26.60L314.04-26.60Q314.04-25.31 313.17-24.49Q312.30-23.67 310.88-23.67Q309.45-23.67 308.58-24.49Q307.71-25.31 307.71-26.60ZM329.80-5.84L329.80-5.84Q329.80-6.88 328.78-7.47Q327.75-8.07 325.49-8.54L325.49-8.54Q317.95-10.12 317.95-14.94L317.95-14.94Q317.95-17.75 320.28-19.64Q322.62-21.52 326.39-21.52L326.39-21.52Q330.41-21.52 332.82-19.63Q335.23-17.73 335.23-14.71L335.23-14.71L329.59-14.71Q329.59-15.92 328.81-16.71Q328.03-17.50 326.37-17.50L326.37-17.50Q324.94-17.50 324.16-16.86Q323.38-16.21 323.38-15.21L323.38-15.21Q323.38-14.28 324.27-13.70Q325.16-13.13 327.27-12.71Q329.38-12.29 330.82-11.76L330.82-11.76Q335.29-10.12 335.29-6.07L335.29-6.07Q335.29-3.18 332.81-1.40Q330.33 0.39 326.41 0.39L326.41 0.39Q323.75 0.39 321.69-0.56Q319.63-1.50 318.46-3.15Q317.29-4.80 317.29-6.72L317.29-6.72L322.64-6.72Q322.71-5.21 323.75-4.41Q324.79-3.61 326.52-3.61L326.52-3.61Q328.14-3.61 328.97-4.23Q329.80-4.84 329.80-5.84ZM347.71-4.16L347.71-4.16Q349.28-4.16 350.25-5.02Q351.23-5.88 351.27-7.30L351.27-7.30L356.56-7.30Q356.54-5.16 355.39-3.37Q354.24-1.58 352.24-0.60Q350.23 0.39 347.81 0.39L347.81 0.39Q343.28 0.39 340.66-2.49Q338.05-5.37 338.05-10.45L338.05-10.45L338.05-10.82Q338.05-15.70 340.64-18.61Q343.24-21.52 347.77-21.52L347.77-21.52Q351.74-21.52 354.13-19.27Q356.52-17.01 356.56-13.26L356.56-13.26L351.27-13.26Q351.23-14.90 350.25-15.93Q349.28-16.95 347.68-16.95L347.68-16.95Q345.70-16.95 344.70-15.52Q343.69-14.08 343.69-10.86L343.69-10.86L343.69-10.27Q343.69-7.01 344.69-5.59Q345.68-4.16 347.71-4.16ZM358.91-10.51L358.91-10.76Q358.91-13.91 360.12-16.37Q361.33-18.83 363.60-20.18Q365.88-21.52 368.89-21.52L368.89-21.52Q373.16-21.52 375.87-18.91Q378.57-16.29 378.89-11.80L378.89-11.80L378.93-10.35Q378.93-5.49 376.21-2.55Q373.50 0.39 368.93 0.39Q364.36 0.39 361.63-2.54Q358.91-5.47 358.91-10.51L358.91-10.51ZM364.55-10.35L364.55-10.35Q364.55-7.34 365.68-5.75Q366.82-4.16 368.93-4.16L368.93-4.16Q370.98-4.16 372.13-5.73Q373.28-7.30 373.28-10.76L373.28-10.76Q373.28-13.71 372.13-15.33Q370.98-16.95 368.89-16.95L368.89-16.95Q366.82-16.95 365.68-15.34Q364.55-13.73 364.55-10.35ZM394.36-21.27L394.28-15.84Q393.13-16.00 392.25-16.00L392.25-16.00Q389.04-16.00 388.05-13.83L388.05-13.83L388.05 0L382.40 0L382.40-21.13L387.73-21.13L387.89-18.61Q389.59-21.52 392.60-21.52L392.60-21.52Q393.54-21.52 394.36-21.27L394.36-21.27ZM396.11-10.72L396.11-10.72Q396.11-15.66 398.33-18.59Q400.55-21.52 404.39-21.52L404.39-21.52Q407.48-21.52 409.49-19.22L409.49-19.22L409.49-30L415.16-30L415.16 0L410.06 0L409.79-2.25Q407.68 0.39 404.36 0.39L404.36 0.39Q400.63 0.39 398.37-2.55Q396.11-5.49 396.11-10.72ZM401.76-10.31L401.76-10.31Q401.76-7.34 402.79-5.76Q403.83-4.18 405.80-4.18L405.80-4.18Q408.42-4.18 409.49-6.39L409.49-6.39L409.49-14.73Q408.44-16.93 405.84-16.93L405.84-16.93Q401.76-16.93 401.76-10.31ZM428.71-7.66L428.71-7.66Q428.71-9.63 429.81-11.31Q430.92-12.99 433.87-15.04L433.87-15.04Q432.60-16.74 431.88-18.23Q431.15-19.73 431.15-21.35L431.15-21.35Q431.15-24.67 433.25-26.75Q435.35-28.83 438.91-28.83L438.91-28.83Q442.09-28.83 444.13-26.93Q446.17-25.04 446.17-22.21L446.17-22.21Q446.17-18.81 442.73-16.21L442.73-16.21L440.55-14.63L445.45-8.93Q446.60-11.19 446.60-13.93L446.60-13.93L451.41-13.93Q451.41-8.38 448.85-4.94L448.85-4.94L453.11 0L446.70 0L445.23-1.68Q442.09 0.39 438.01 0.39L438.01 0.39Q433.79 0.39 431.25-1.83Q428.71-4.04 428.71-7.66ZM438.28-4.14L438.28-4.14Q440.31-4.14 442.13-5.27L442.13-5.27L436.52-11.76L436.11-11.46Q434.38-9.98 434.38-7.97L434.38-7.97Q434.38-6.27 435.46-5.21Q436.54-4.14 438.28-4.14ZM436.21-21.43L436.21-21.43Q436.21-19.96 437.93-17.73L437.93-17.73L439.43-18.73Q440.59-19.47 441.03-20.18Q441.46-20.88 441.46-21.86Q441.46-22.83 440.74-23.55Q440.02-24.28 438.89-24.28L438.89-24.28Q437.68-24.28 436.94-23.50Q436.21-22.71 436.21-21.43ZM465.70-21.13L471.00-21.13L471.17-18.77Q473.42-21.52 477.25-21.52L477.25-21.52Q481.33-21.52 482.85-18.30L482.85-18.30Q485.08-21.52 489.20-21.52L489.20-21.52Q492.64-21.52 494.32-19.52Q496.00-17.52 496.00-13.50L496.00-13.50L496.00 0L490.33 0L490.33-13.48Q490.33-15.27 489.63-16.10Q488.93-16.93 487.15-16.93L487.15-16.93Q484.61-16.93 483.63-14.51L483.63-14.51L483.65 0L478.01 0L478.01-13.46Q478.01-15.29 477.29-16.11Q476.56-16.93 474.82-16.93L474.82-16.93Q472.42-16.93 471.35-14.94L471.35-14.94L471.35 0L465.70 0L465.70-21.13ZM499.45-10.51L499.45-10.76Q499.45-13.91 500.66-16.37Q501.88-18.83 504.15-20.18Q506.43-21.52 509.43-21.52L509.43-21.52Q513.71-21.52 516.42-18.91Q519.12-16.29 519.43-11.80L519.43-11.80L519.47-10.35Q519.47-5.49 516.76-2.55Q514.04 0.39 509.47 0.39Q504.90 0.39 502.18-2.54Q499.45-5.47 499.45-10.51L499.45-10.51ZM505.10-10.35L505.10-10.35Q505.10-7.34 506.23-5.75Q507.36-4.16 509.47-4.16L509.47-4.16Q511.52-4.16 512.68-5.73Q513.83-7.30 513.83-10.76L513.83-10.76Q513.83-13.71 512.68-15.33Q511.52-16.95 509.43-16.95L509.43-16.95Q507.36-16.95 506.23-15.34Q505.10-13.73 505.10-10.35ZM534.90-21.27L534.82-15.84Q533.67-16.00 532.79-16.00L532.79-16.00Q529.59-16.00 528.59-13.83L528.59-13.83L528.59 0L522.95 0L522.95-21.13L528.28-21.13L528.44-18.61Q530.14-21.52 533.14-21.52L533.14-21.52Q534.08-21.52 534.90-21.27L534.90-21.27ZM547.27 0.39L547.27 0.39Q542.62 0.39 539.70-2.46Q536.78-5.31 536.78-10.06L536.78-10.06L536.78-10.61Q536.78-13.79 538.01-16.30Q539.24-18.81 541.49-20.17Q543.75-21.52 546.64-21.52L546.64-21.52Q550.98-21.52 553.47-18.79Q555.96-16.05 555.96-11.04L555.96-11.04L555.96-8.73L542.50-8.73Q542.77-6.66 544.15-5.41Q545.53-4.16 547.64-4.16L547.64-4.16Q550.90-4.16 552.73-6.52L552.73-6.52L555.51-3.42Q554.24-1.62 552.07-0.62Q549.90 0.39 547.27 0.39ZM546.62-16.95L546.62-16.95Q544.94-16.95 543.90-15.82Q542.85-14.69 542.56-12.58L542.56-12.58L550.41-12.58L550.41-13.03Q550.37-14.90 549.39-15.93Q548.42-16.95 546.62-16.95Z" transform="translate(660, 675)" fill="#ffffff" /><circle cx="620" cy="745" r="8" fill="#e94560" /><path d="M19.65-16.91L19.65-12.32L8.40-12.32L8.40-4.71L21.60-4.71L21.60 0L2.54 0L2.54-28.44L21.56-28.44L21.56-23.69L8.40-23.69L8.40-16.91L19.65-16.91ZM29.24-21.13L32.71-14.82L36.27-21.13L42.30-21.13L36.29-10.78L42.56 0L36.50 0L32.73-6.64L28.98 0L22.91 0L29.18-10.78L23.18-21.13L29.24-21.13ZM54.75 0.39L54.75 0.39Q50.10 0.39 47.18-2.46Q44.26-5.31 44.26-10.06L44.26-10.06L44.26-10.61Q44.26-13.79 45.49-16.30Q46.72-18.81 48.97-20.17Q51.23-21.52 54.12-21.52L54.12-21.52Q58.46-21.52 60.95-18.79Q63.44-16.05 63.44-11.04L63.44-11.04L63.44-8.73L49.98-8.73Q50.25-6.66 51.63-5.41Q53.01-4.16 55.12-4.16L55.12-4.16Q58.38-4.16 60.21-6.52L60.21-6.52L62.99-3.42Q61.72-1.62 59.55-0.62Q57.38 0.39 54.75 0.39ZM54.10-16.95L54.10-16.95Q52.42-16.95 51.38-15.82Q50.33-14.69 50.04-12.58L50.04-12.58L57.89-12.58L57.89-13.03Q57.85-14.90 56.88-15.93Q55.90-16.95 54.10-16.95ZM75.43-4.16L75.43-4.16Q76.99-4.16 77.97-5.02Q78.95-5.88 78.98-7.30L78.98-7.30L84.28-7.30Q84.26-5.16 83.11-3.37Q81.95-1.58 79.95-0.60Q77.95 0.39 75.53 0.39L75.53 0.39Q71.00 0.39 68.38-2.49Q65.76-5.37 65.76-10.45L65.76-10.45L65.76-10.82Q65.76-15.70 68.36-18.61Q70.96-21.52 75.49-21.52L75.49-21.52Q79.45-21.52 81.85-19.27Q84.24-17.01 84.28-13.26L84.28-13.26L78.98-13.26Q78.95-14.90 77.97-15.93Q76.99-16.95 75.39-16.95L75.39-16.95Q73.42-16.95 72.41-15.52Q71.41-14.08 71.41-10.86L71.41-10.86L71.41-10.27Q71.41-7.01 72.40-5.59Q73.40-4.16 75.43-4.16ZM100.31 0L100.16-2.15Q98.07 0.39 94.38 0.39L94.38 0.39Q90.98 0.39 89.19-1.56Q87.40-3.52 87.36-7.29L87.36-7.29L87.36-21.13L93.01-21.13L93.01-7.48Q93.01-4.18 96.02-4.18L96.02-4.18Q98.89-4.18 99.96-6.17L99.96-6.17L99.96-21.13L105.63-21.13L105.63 0L100.31 0ZM111.00-26.33L116.64-26.33L116.64-21.13L120.25-21.13L120.25-16.99L116.64-16.99L116.64-6.45Q116.64-5.27 117.09-4.77Q117.54-4.26 118.81-4.26L118.81-4.26Q119.75-4.26 120.47-4.39L120.47-4.39L120.47-0.12Q118.81 0.39 117.05 0.39L117.05 0.39Q111.11 0.39 111.00-5.61L111.00-5.61L111.00-16.99L107.91-16.99L107.91-21.13L111.00-21.13L111.00-26.33ZM133.13 0.39L133.13 0.39Q128.48 0.39 125.56-2.46Q122.64-5.31 122.64-10.06L122.64-10.06L122.64-10.61Q122.64-13.79 123.87-16.30Q125.10-18.81 127.35-20.17Q129.61-21.52 132.50-21.52L132.50-21.52Q136.84-21.52 139.33-18.79Q141.82-16.05 141.82-11.04L141.82-11.04L141.82-8.73L128.36-8.73Q128.63-6.66 130.01-5.41Q131.39-4.16 133.50-4.16L133.50-4.16Q136.76-4.16 138.59-6.52L138.59-6.52L141.37-3.42Q140.10-1.62 137.93-0.62Q135.76 0.39 133.13 0.39ZM132.48-16.95L132.48-16.95Q130.80-16.95 129.76-15.82Q128.71-14.69 128.42-12.58L128.42-12.58L136.27-12.58L136.27-13.03Q136.23-14.90 135.25-15.93Q134.28-16.95 132.48-16.95ZM156.46-5.84L156.46-5.84Q156.46-6.88 155.44-7.47Q154.41-8.07 152.15-8.54L152.15-8.54Q144.61-10.12 144.61-14.94L144.61-14.94Q144.61-17.75 146.94-19.64Q149.28-21.52 153.05-21.52L153.05-21.52Q157.07-21.52 159.48-19.63Q161.89-17.73 161.89-14.71L161.89-14.71L156.25-14.71Q156.25-15.92 155.47-16.71Q154.69-17.50 153.03-17.50L153.03-17.50Q151.60-17.50 150.82-16.86Q150.04-16.21 150.04-15.21L150.04-15.21Q150.04-14.28 150.93-13.70Q151.82-13.13 153.93-12.71Q156.04-12.29 157.48-11.76L157.48-11.76Q161.95-10.12 161.95-6.07L161.95-6.07Q161.95-3.18 159.47-1.40Q156.99 0.39 153.07 0.39L153.07 0.39Q150.41 0.39 148.35-0.56Q146.29-1.50 145.12-3.15Q143.95-4.80 143.95-6.72L143.95-6.72L149.30-6.72Q149.38-5.21 150.41-4.41Q151.45-3.61 153.18-3.61L153.18-3.61Q154.80-3.61 155.63-4.23Q156.46-4.84 156.46-5.84ZM176.66-26.33L182.30-26.33L182.30-21.13L185.92-21.13L185.92-16.99L182.30-16.99L182.30-6.45Q182.30-5.27 182.75-4.77Q183.20-4.26 184.47-4.26L184.47-4.26Q185.41-4.26 186.13-4.39L186.13-4.39L186.13-0.12Q184.47 0.39 182.71 0.39L182.71 0.39Q176.78 0.39 176.66-5.61L176.66-5.61L176.66-16.99L173.57-16.99L173.57-21.13L176.66-21.13L176.66-26.33ZM207.01 0L201.31 0Q200.92-0.76 200.74-1.89L200.74-1.89Q198.69 0.39 195.41 0.39L195.41 0.39Q192.30 0.39 190.26-1.41Q188.22-3.20 188.22-5.94L188.22-5.94Q188.22-9.30 190.71-11.09Q193.20-12.89 197.91-12.91L197.91-12.91L200.51-12.91L200.51-14.12Q200.51-15.59 199.76-16.46Q199.00-17.34 197.38-17.34L197.38-17.34Q195.96-17.34 195.15-16.66Q194.34-15.98 194.34-14.79L194.34-14.79L188.69-14.79Q188.69-16.62 189.82-18.18Q190.96-19.75 193.03-20.63Q195.10-21.52 197.68-21.52L197.68-21.52Q201.58-21.52 203.88-19.56Q206.17-17.60 206.17-14.04L206.17-14.04L206.17-4.88Q206.19-1.88 207.01-0.33L207.01-0.33L207.01 0ZM196.64-3.93L196.64-3.93Q197.89-3.93 198.95-4.48Q200-5.04 200.51-5.98L200.51-5.98L200.51-9.61L198.40-9.61Q194.16-9.61 193.89-6.68L193.89-6.68L193.87-6.35Q193.87-5.29 194.61-4.61Q195.35-3.93 196.64-3.93ZM221.95-5.84L221.95-5.84Q221.95-6.88 220.93-7.47Q219.90-8.07 217.64-8.54L217.64-8.54Q210.10-10.12 210.10-14.94L210.10-14.94Q210.10-17.75 212.43-19.64Q214.77-21.52 218.54-21.52L218.54-21.52Q222.56-21.52 224.97-19.63Q227.38-17.73 227.38-14.71L227.38-14.71L221.74-14.71Q221.74-15.92 220.96-16.71Q220.18-17.50 218.52-17.50L218.52-17.50Q217.09-17.50 216.31-16.86Q215.53-16.21 215.53-15.21L215.53-15.21Q215.53-14.28 216.42-13.70Q217.30-13.13 219.41-12.71Q221.52-12.29 222.97-11.76L222.97-11.76Q227.44-10.12 227.44-6.07L227.44-6.07Q227.44-3.18 224.96-1.40Q222.48 0.39 218.55 0.39L218.55 0.39Q215.90 0.39 213.84-0.56Q211.78-1.50 210.61-3.15Q209.43-4.80 209.43-6.72L209.43-6.72L214.79-6.72Q214.86-5.21 215.90-4.41Q216.93-3.61 218.67-3.61L218.67-3.61Q220.29-3.61 221.12-4.23Q221.95-4.84 221.95-5.84ZM244.18 0L238.75-8.48L236.72-6.45L236.72 0L231.07 0L231.07-30L236.72-30L236.72-13.38L237.81-14.79L243.22-21.13L250-21.13L242.36-12.32L250.66 0L244.18 0ZM263.89-5.84L263.89-5.84Q263.89-6.88 262.86-7.47Q261.84-8.07 259.57-8.54L259.57-8.54Q252.03-10.12 252.03-14.94L252.03-14.94Q252.03-17.75 254.37-19.64Q256.70-21.52 260.47-21.52L260.47-21.52Q264.49-21.52 266.90-19.63Q269.32-17.73 269.32-14.71L269.32-14.71L263.67-14.71Q263.67-15.92 262.89-16.71Q262.11-17.50 260.45-17.50L260.45-17.50Q259.02-17.50 258.24-16.86Q257.46-16.21 257.46-15.21L257.46-15.21Q257.46-14.28 258.35-13.70Q259.24-13.13 261.35-12.71Q263.46-12.29 264.90-11.76L264.90-11.76Q269.38-10.12 269.38-6.07L269.38-6.07Q269.38-3.18 266.89-1.40Q264.41 0.39 260.49 0.39L260.49 0.39Q257.83 0.39 255.77-0.56Q253.71-1.50 252.54-3.15Q251.37-4.80 251.37-6.72L251.37-6.72L256.72-6.72Q256.80-5.21 257.83-4.41Q258.87-3.61 260.61-3.61L260.61-3.61Q262.23-3.61 263.06-4.23Q263.89-4.84 263.89-5.84ZM274.47 7.13L274.47 7.13L271.52 5.59L272.23 4.32Q273.54 1.93 273.57-0.43L273.57-0.43L273.57-4.80L278.34-4.80L278.32-0.90Q278.30 1.27 277.23 3.48Q276.15 5.68 274.47 7.13ZM292.73-21.13L298.03-21.13L298.20-18.77Q300.45-21.52 304.28-21.52L304.28-21.52Q308.36-21.52 309.88-18.30L309.88-18.30Q312.11-21.52 316.23-21.52L316.23-21.52Q319.67-21.52 321.35-19.52Q323.03-17.52 323.03-13.50L323.03-13.50L323.03 0L317.36 0L317.36-13.48Q317.36-15.27 316.66-16.10Q315.96-16.93 314.18-16.93L314.18-16.93Q311.64-16.93 310.66-14.51L310.66-14.51L310.68 0L305.04 0L305.04-13.46Q305.04-15.29 304.32-16.11Q303.59-16.93 301.86-16.93L301.86-16.93Q299.45-16.93 298.38-14.94L298.38-14.94L298.38 0L292.73 0L292.73-21.13ZM345.31 0L339.61 0Q339.22-0.76 339.04-1.89L339.04-1.89Q336.99 0.39 333.71 0.39L333.71 0.39Q330.61 0.39 328.56-1.41Q326.52-3.20 326.52-5.94L326.52-5.94Q326.52-9.30 329.01-11.09Q331.50-12.89 336.21-12.91L336.21-12.91L338.81-12.91L338.81-14.12Q338.81-15.59 338.06-16.46Q337.30-17.34 335.68-17.34L335.68-17.34Q334.26-17.34 333.45-16.66Q332.64-15.98 332.64-14.79L332.64-14.79L326.99-14.79Q326.99-16.62 328.13-18.18Q329.26-19.75 331.33-20.63Q333.40-21.52 335.98-21.52L335.98-21.52Q339.88-21.52 342.18-19.56Q344.47-17.60 344.47-14.04L344.47-14.04L344.47-4.88Q344.49-1.88 345.31-0.33L345.31-0.33L345.31 0ZM334.94-3.93L334.94-3.93Q336.19-3.93 337.25-4.48Q338.30-5.04 338.81-5.98L338.81-5.98L338.81-9.61L336.70-9.61Q332.46-9.61 332.19-6.68L332.19-6.68L332.17-6.35Q332.17-5.29 332.91-4.61Q333.65-3.93 334.94-3.93ZM348.69-21.13L354.00-21.13L354.18-18.69Q356.45-21.52 360.25-21.52L360.25-21.52Q363.61-21.52 365.25-19.55Q366.89-17.58 366.93-13.65L366.93-13.65L366.93 0L361.29 0L361.29-13.52Q361.29-15.31 360.51-16.12Q359.73-16.93 357.91-16.93L357.91-16.93Q355.53-16.93 354.34-14.90L354.34-14.90L354.34 0L348.69 0L348.69-21.13ZM389.16 0L383.46 0Q383.07-0.76 382.89-1.89L382.89-1.89Q380.84 0.39 377.56 0.39L377.56 0.39Q374.45 0.39 372.41-1.41Q370.37-3.20 370.37-5.94L370.37-5.94Q370.37-9.30 372.86-11.09Q375.35-12.89 380.06-12.91L380.06-12.91L382.66-12.91L382.66-14.12Q382.66-15.59 381.90-16.46Q381.15-17.34 379.53-17.34L379.53-17.34Q378.11-17.34 377.29-16.66Q376.48-15.98 376.48-14.79L376.48-14.79L370.84-14.79Q370.84-16.62 371.97-18.18Q373.11-19.75 375.18-20.63Q377.25-21.52 379.82-21.52L379.82-21.52Q383.73-21.52 386.03-19.56Q388.32-17.60 388.32-14.04L388.32-14.04L388.32-4.88Q388.34-1.88 389.16-0.33L389.16-0.33L389.16 0ZM378.79-3.93L378.79-3.93Q380.04-3.93 381.09-4.48Q382.15-5.04 382.66-5.98L382.66-5.98L382.66-9.61L380.55-9.61Q376.31-9.61 376.04-6.68L376.04-6.68L376.02-6.35Q376.02-5.29 376.76-4.61Q377.50-3.93 378.79-3.93ZM391.84-10.49L391.84-10.72Q391.84-15.59 394.15-18.55Q396.46-21.52 400.39-21.52L400.39-21.52Q403.87-21.52 405.80-19.14L405.80-19.14L406.04-21.13L411.15-21.13L411.15-0.70Q411.15 2.07 409.89 4.12Q408.63 6.17 406.35 7.25Q404.06 8.32 401.00 8.32L401.00 8.32Q398.67 8.32 396.46 7.39Q394.26 6.46 393.13 5L393.13 5L395.63 1.56Q397.73 3.93 400.74 3.93L400.74 3.93Q402.99 3.93 404.24 2.72Q405.49 1.52 405.49-0.68L405.49-0.68L405.49-1.82Q403.54 0.39 400.35 0.39L400.35 0.39Q396.54 0.39 394.19-2.59Q391.84-5.57 391.84-10.49L391.84-10.49ZM397.48-10.31L397.48-10.31Q397.48-7.44 398.63-5.81Q399.79-4.18 401.80-4.18L401.80-4.18Q404.38-4.18 405.49-6.11L405.49-6.11L405.49-15Q404.36-16.93 401.84-16.93L401.84-16.93Q399.80-16.93 398.64-15.27Q397.48-13.61 397.48-10.31ZM425.21 0.39L425.21 0.39Q420.57 0.39 417.65-2.46Q414.73-5.31 414.73-10.06L414.73-10.06L414.73-10.61Q414.73-13.79 415.96-16.30Q417.19-18.81 419.44-20.17Q421.70-21.52 424.59-21.52L424.59-21.52Q428.93-21.52 431.42-18.79Q433.91-16.05 433.91-11.04L433.91-11.04L433.91-8.73L420.45-8.73Q420.72-6.66 422.10-5.41Q423.48-4.16 425.59-4.16L425.59-4.16Q428.85-4.16 430.68-6.52L430.68-6.52L433.46-3.42Q432.19-1.62 430.02-0.62Q427.85 0.39 425.21 0.39ZM424.57-16.95L424.57-16.95Q422.89-16.95 421.85-15.82Q420.80-14.69 420.51-12.58L420.51-12.58L428.36-12.58L428.36-13.03Q428.32-14.90 427.34-15.93Q426.37-16.95 424.57-16.95ZM448.55-5.84L448.55-5.84Q448.55-6.88 447.53-7.47Q446.50-8.07 444.24-8.54L444.24-8.54Q436.70-10.12 436.70-14.94L436.70-14.94Q436.70-17.75 439.03-19.64Q441.37-21.52 445.14-21.52L445.14-21.52Q449.16-21.52 451.57-19.63Q453.98-17.73 453.98-14.71L453.98-14.71L448.34-14.71Q448.34-15.92 447.56-16.71Q446.78-17.50 445.12-17.50L445.12-17.50Q443.69-17.50 442.91-16.86Q442.13-16.21 442.13-15.21L442.13-15.21Q442.13-14.28 443.02-13.70Q443.91-13.13 446.02-12.71Q448.13-12.29 449.57-11.76L449.57-11.76Q454.04-10.12 454.04-6.07L454.04-6.07Q454.04-3.18 451.56-1.40Q449.08 0.39 445.16 0.39L445.16 0.39Q442.50 0.39 440.44-0.56Q438.38-1.50 437.21-3.15Q436.04-4.80 436.04-6.72L436.04-6.72L441.39-6.72Q441.46-5.21 442.50-4.41Q443.54-3.61 445.27-3.61L445.27-3.61Q446.89-3.61 447.72-4.23Q448.55-4.84 448.55-5.84ZM474.67 0L469.00 0L469.00-16.99L465.86-16.99L465.86-21.13L469.00-21.13L469.00-22.11Q469.04-26.09 471.46-28.25Q473.87-30.41 478.26-30.41L478.26-30.41Q480.90-30.41 484.67-29.26L484.67-29.26L483.85-24.59Q481.93-25.16 480.88-25.32Q479.82-25.49 478.61-25.49L478.61-25.49Q474.67-25.49 474.67-21.99L474.67-21.99L474.67-21.13L478.83-21.13L478.83-16.99L474.67-16.99L474.67 0ZM487.30-21.13L487.30 0L481.64 0L481.64-21.13L487.30-21.13ZM497.93-30L497.93 0L492.27 0L492.27-30L497.93-30ZM512.30 0.39L512.30 0.39Q507.66 0.39 504.74-2.46Q501.82-5.31 501.82-10.06L501.82-10.06L501.82-10.61Q501.82-13.79 503.05-16.30Q504.28-18.81 506.53-20.17Q508.79-21.52 511.68-21.52L511.68-21.52Q516.02-21.52 518.51-18.79Q521.00-16.05 521.00-11.04L521.00-11.04L521.00-8.73L507.54-8.73Q507.81-6.66 509.19-5.41Q510.57-4.16 512.68-4.16L512.68-4.16Q515.94-4.16 517.77-6.52L517.77-6.52L520.55-3.42Q519.28-1.62 517.11-0.62Q514.94 0.39 512.30 0.39ZM511.66-16.95L511.66-16.95Q509.98-16.95 508.94-15.82Q507.89-14.69 507.60-12.58L507.60-12.58L515.45-12.58L515.45-13.03Q515.41-14.90 514.43-15.93Q513.46-16.95 511.66-16.95ZM535.64-5.84L535.64-5.84Q535.64-6.88 534.62-7.47Q533.59-8.07 531.33-8.54L531.33-8.54Q523.79-10.12 523.79-14.94L523.79-14.94Q523.79-17.75 526.12-19.64Q528.46-21.52 532.23-21.52L532.23-21.52Q536.25-21.52 538.66-19.63Q541.07-17.73 541.07-14.71L541.07-14.71L535.43-14.71Q535.43-15.92 534.65-16.71Q533.87-17.50 532.21-17.50L532.21-17.50Q530.78-17.50 530-16.86Q529.22-16.21 529.22-15.21L529.22-15.21Q529.22-14.28 530.11-13.70Q531.00-13.13 533.11-12.71Q535.21-12.29 536.66-11.76L536.66-11.76Q541.13-10.12 541.13-6.07L541.13-6.07Q541.13-3.18 538.65-1.40Q536.17 0.39 532.25 0.39L532.25 0.39Q529.59 0.39 527.53-0.56Q525.47-1.50 524.30-3.15Q523.13-4.80 523.13-6.72L523.13-6.72L528.48-6.72Q528.55-5.21 529.59-4.41Q530.63-3.61 532.36-3.61L532.36-3.61Q533.98-3.61 534.81-4.23Q535.64-4.84 535.64-5.84Z" transform="translate(660, 745)" fill="#ffffff" />
  <text x="960" y="1030" font-family="Arial" font-size="24" fill="#666" text-anchor="middle">OpenClaw Documentation</text>
  <line x1="880" y1="1045" x2="1040" y2="1045" stroke="#e94560" stroke-width="3" opacity="0.6"/>
</svg>