<?xml version="1.0" encoding="UTF-8"?>
<svg width="1920" height="1080" xmlns="http://www.w3.org/2000/svg">
  <defs>
    <linearGradient id="bg" x1="0%" y1="0%" x2="100%" y2="100%">
      <stop offset="0%" style="stop-color:#1a1a2e;stop-opacity:1" />
      <stop offset="100%" style="stop-color:#0f0f1a;stop-opacity:1" />
    </linearGradient>
  </defs>
  <rect width="100%" height="100%" fill="url(#bg)"/>
  <circle cx="1920" cy="0" r="600" fill="#e94560" opacity="0.1"/>
  <circle cx="0" cy="1080" r="400" fill="#e94560" opacity="0.1"/>
  <rect width="1920" height="15" fill="#e94560"/>
  <path d="M22.80-11.37L29.84-11.37Q29.44-5.86 25.77-2.70Q22.10 0.47 16.10 0.47L16.10 0.47Q9.54 0.47 5.78-3.95Q2.02-8.37 2.02-16.08L2.02-16.08L2.02-18.16Q2.02-23.09 3.75-26.84Q5.48-30.59 8.71-32.59Q11.93-34.59 16.20-34.59L16.20-34.59Q22.10-34.59 25.71-31.43Q29.32-28.27 29.88-22.55L29.88-22.55L22.85-22.55Q22.59-25.85 21.01-27.34Q19.43-28.83 16.20-28.83L16.20-28.83Q12.68-28.83 10.93-26.31Q9.19-23.79 9.14-18.49L9.14-18.49L9.14-15.91Q9.14-10.38 10.82-7.83Q12.49-5.27 16.10-5.27L16.10-5.27Q19.36-5.27 20.96-6.76Q22.57-8.25 22.80-11.37L22.80-11.37ZM40.62-36L40.62-22.59Q43.31-25.83 47.39-25.83L47.39-25.83Q55.64-25.83 55.76-16.24L55.76-16.24L55.76 0L48.98 0L48.98-16.05Q48.98-18.23 48.05-19.28Q47.11-20.32 44.93-20.32L44.93-20.32Q41.95-20.32 40.62-18.02L40.62-18.02L40.62 0L33.84 0L33.84-36L40.62-36ZM82.41 0L75.56 0Q75.09-0.91 74.88-2.27L74.88-2.27Q72.42 0.47 68.48 0.47L68.48 0.47Q64.76 0.47 62.31-1.69Q59.86-3.84 59.86-7.13L59.86-7.13Q59.86-11.16 62.85-13.31Q65.84-15.47 71.48-15.49L71.48-15.49L74.60-15.49L74.60-16.95Q74.60-18.70 73.70-19.76Q72.80-20.81 70.85-20.81L70.85-20.81Q69.14-20.81 68.17-19.99Q67.20-19.17 67.20-17.74L67.20-17.74L60.42-17.74Q60.42-19.95 61.78-21.82Q63.14-23.70 65.63-24.76Q68.11-25.83 71.20-25.83L71.20-25.83Q75.89-25.83 78.64-23.47Q81.40-21.12 81.40-16.85L81.40-16.85L81.40-5.86Q81.42-2.25 82.41-0.40L82.41-0.40L82.41 0ZM69.96-4.71L69.96-4.71Q71.46-4.71 72.73-5.38Q73.99-6.05 74.60-7.17L74.60-7.17L74.60-11.53L72.07-11.53Q66.98-11.53 66.66-8.02L66.66-8.02L66.63-7.62Q66.63-6.35 67.52-5.53Q68.41-4.71 69.96-4.71ZM86.46-25.36L92.84-25.36L93.05-22.43Q95.77-25.83 100.34-25.83L100.34-25.83Q104.37-25.83 106.34-23.46Q108.30-21.09 108.35-16.38L108.35-16.38L108.35 0L101.58 0L101.58-16.22Q101.58-18.38 100.64-19.35Q99.70-20.32 97.52-20.32L97.52-20.32Q94.66-20.32 93.23-17.88L93.23-17.88L93.23 0L86.46 0L86.46-25.36ZM133.69-11.37L140.72-11.37Q140.32-5.86 136.65-2.70Q132.98 0.47 126.98 0.47L126.98 0.47Q120.42 0.47 116.66-3.95Q112.90-8.37 112.90-16.08L112.90-16.08L112.90-18.16Q112.90-23.09 114.63-26.84Q116.37-30.59 119.59-32.59Q122.81-34.59 127.08-34.59L127.08-34.59Q132.98-34.59 136.59-31.43Q140.20-28.27 140.77-22.55L140.77-22.55L133.73-22.55Q133.48-25.85 131.89-27.34Q130.31-28.83 127.08-28.83L127.08-28.83Q123.56-28.83 121.82-26.31Q120.07-23.79 120.02-18.49L120.02-18.49L120.02-15.91Q120.02-10.38 121.70-7.83Q123.38-5.27 126.98-5.27L126.98-5.27Q130.24-5.27 131.85-6.76Q133.45-8.25 133.69-11.37L133.69-11.37ZM152.04-36L152.04 0L145.24 0L145.24-36L152.04-36ZM179.16 0L172.31 0Q171.84-0.91 171.63-2.27L171.63-2.27Q169.17 0.47 165.23 0.47L165.23 0.47Q161.51 0.47 159.06-1.69Q156.61-3.84 156.61-7.13L156.61-7.13Q156.61-11.16 159.60-13.31Q162.59-15.47 168.23-15.49L168.23-15.49L171.35-15.49L171.35-16.95Q171.35-18.70 170.45-19.76Q169.55-20.81 167.60-20.81L167.60-20.81Q165.89-20.81 164.92-19.99Q163.95-19.17 163.95-17.74L163.95-17.74L157.17-17.74Q157.17-19.95 158.53-21.82Q159.89-23.70 162.38-24.76Q164.86-25.83 167.95-25.83L167.95-25.83Q172.64-25.83 175.39-23.47Q178.15-21.12 178.15-16.85L178.15-16.85L178.15-5.86Q178.17-2.25 179.16-0.40L179.16-0.40L179.16 0ZM166.71-4.71L166.71-4.71Q168.21-4.71 169.48-5.38Q170.74-6.05 171.35-7.17L171.35-7.17L171.35-11.53L168.82-11.53Q163.73-11.53 163.41-8.02L163.41-8.02L163.38-7.62Q163.38-6.35 164.27-5.53Q165.16-4.71 166.71-4.71ZM200.79-25.36L205.41-9.21L208.73-25.36L215.27-25.36L208.80 0L203.13 0L198.33-15.96L193.52 0L187.88 0L181.41-25.36L187.95-25.36L191.25-9.23L195.89-25.36L200.79-25.36Z" transform="translate(60, 85)" fill="#e94560" />
  <text x="1860" y="85" font-family="Arial" font-size="28" fill="#888" text-anchor="end">SLIDE 8/10</text>
  <path d="M36.37-56.88L48.13-56.88L48.13-19.41Q48.13-10.08 42.29-4.65Q36.45 0.78 26.33 0.78L26.33 0.78Q16.37 0.78 10.51-4.49Q4.65-9.77 4.53-18.98L4.53-18.98L4.53-56.88L16.25-56.88L16.25-19.34Q16.25-13.75 18.93-11.19Q21.60-8.63 26.33-8.63L26.33-8.63Q36.21-8.63 36.37-19.02L36.37-19.02L36.37-56.88ZM79.88-11.68L79.88-11.68Q79.88-13.75 77.83-14.94Q75.78-16.13 71.25-17.07L71.25-17.07Q56.17-20.23 56.17-29.88L56.17-29.88Q56.17-35.51 60.84-39.28Q65.51-43.05 73.05-43.05L73.05-43.05Q81.09-43.05 85.92-39.26Q90.74-35.47 90.74-29.41L90.74-29.41L79.45-29.41Q79.45-31.84 77.89-33.42Q76.33-35 73.01-35L73.01-35Q70.16-35 68.59-33.71Q67.03-32.42 67.03-30.43L67.03-30.43Q67.03-28.55 68.81-27.40Q70.59-26.25 74.80-25.41Q79.02-24.57 81.91-23.52L81.91-23.52Q90.86-20.23 90.86-12.15L90.86-12.15Q90.86-6.37 85.90-2.79Q80.94 0.78 73.09 0.78L73.09 0.78Q67.77 0.78 63.65-1.11Q59.53-3.01 57.19-6.31Q54.84-9.61 54.84-13.44L54.84-13.44L65.55-13.44Q65.70-10.43 67.77-8.83Q69.84-7.23 73.32-7.23L73.32-7.23Q76.56-7.23 78.22-8.46Q79.88-9.69 79.88-11.68ZM117.58 0.78L117.58 0.78Q108.28 0.78 102.44-4.92Q96.60-10.63 96.60-20.12L96.60-20.12L96.60-21.21Q96.60-27.58 99.06-32.60Q101.52-37.62 106.04-40.33Q110.55-43.05 116.33-43.05L116.33-43.05Q125-43.05 129.98-37.58Q134.96-32.11 134.96-22.07L134.96-22.07L134.96-17.46L108.05-17.46Q108.59-13.32 111.35-10.82Q114.10-8.32 118.32-8.32L118.32-8.32Q124.84-8.32 128.52-13.05L128.52-13.05L134.06-6.84Q131.52-3.24 127.19-1.23Q122.85 0.78 117.58 0.78ZM116.29-33.91L116.29-33.91Q112.93-33.91 110.84-31.64Q108.75-29.38 108.16-25.16L108.16-25.16L123.87-25.16L123.87-26.05Q123.79-29.80 121.84-31.86Q119.88-33.91 116.29-33.91ZM194.96-18.95L206.68-18.95Q206.02-9.77 199.90-4.49Q193.79 0.78 183.79 0.78L183.79 0.78Q172.85 0.78 166.58-6.58Q160.31-13.95 160.31-26.80L160.31-26.80L160.31-30.27Q160.31-38.48 163.20-44.73Q166.09-50.98 171.46-54.32Q176.84-57.66 183.95-57.66L183.95-57.66Q193.79-57.66 199.80-52.38Q205.82-47.11 206.76-37.58L206.76-37.58L195.04-37.58Q194.61-43.09 191.97-45.57Q189.34-48.05 183.95-48.05L183.95-48.05Q178.09-48.05 175.18-43.85Q172.27-39.65 172.19-30.82L172.19-30.82L172.19-26.52Q172.19-17.30 174.98-13.05Q177.77-8.79 183.79-8.79L183.79-8.79Q189.22-8.79 191.89-11.27Q194.57-13.75 194.96-18.95L194.96-18.95ZM249.53 0L238.13 0Q237.34-1.52 236.99-3.79L236.99-3.79Q232.89 0.78 226.33 0.78L226.33 0.78Q220.12 0.78 216.04-2.81Q211.95-6.41 211.95-11.88L211.95-11.88Q211.95-18.59 216.93-22.19Q221.91-25.78 231.33-25.82L231.33-25.82L236.52-25.82L236.52-28.24Q236.52-31.17 235.02-32.93Q233.52-34.69 230.27-34.69L230.27-34.69Q227.42-34.69 225.80-33.32Q224.18-31.95 224.18-29.57L224.18-29.57L212.89-29.57Q212.89-33.24 215.16-36.37Q217.42-39.49 221.56-41.27Q225.70-43.05 230.86-43.05L230.86-43.05Q238.67-43.05 243.26-39.12Q247.85-35.20 247.85-28.09L247.85-28.09L247.85-9.77Q247.89-3.75 249.53-0.66L249.53-0.66L249.53 0ZM228.79-7.85L228.79-7.85Q231.29-7.85 233.40-8.96Q235.51-10.08 236.52-11.95L236.52-11.95L236.52-19.22L232.30-19.22Q223.83-19.22 223.28-13.36L223.28-13.36L223.24-12.70Q223.24-10.59 224.73-9.22Q226.21-7.85 228.79-7.85ZM279.41-11.68L279.41-11.68Q279.41-13.75 277.36-14.94Q275.31-16.13 270.78-17.07L270.78-17.07Q255.70-20.23 255.70-29.88L255.70-29.88Q255.70-35.51 260.37-39.28Q265.04-43.05 272.58-43.05L272.58-43.05Q280.63-43.05 285.45-39.26Q290.27-35.47 290.27-29.41L290.27-29.41L278.98-29.41Q278.98-31.84 277.42-33.42Q275.86-35 272.54-35L272.54-35Q269.69-35 268.13-33.71Q266.56-32.42 266.56-30.43L266.56-30.43Q266.56-28.55 268.34-27.40Q270.12-26.25 274.34-25.41Q278.55-24.57 281.45-23.52L281.45-23.52Q290.39-20.23 290.39-12.15L290.39-12.15Q290.39-6.37 285.43-2.79Q280.47 0.78 272.62 0.78L272.62 0.78Q267.30 0.78 263.18-1.11Q259.06-3.01 256.72-6.31Q254.38-9.61 254.38-13.44L254.38-13.44L265.08-13.44Q265.23-10.43 267.30-8.83Q269.38-7.23 272.85-7.23L272.85-7.23Q276.09-7.23 277.75-8.46Q279.41-9.69 279.41-11.68ZM317.11 0.78L317.11 0.78Q307.81 0.78 301.97-4.92Q296.13-10.63 296.13-20.12L296.13-20.12L296.13-21.21Q296.13-27.58 298.59-32.60Q301.05-37.62 305.57-40.33Q310.08-43.05 315.86-43.05L315.86-43.05Q324.53-43.05 329.51-37.58Q334.49-32.11 334.49-22.07L334.49-22.07L334.49-17.46L307.58-17.46Q308.13-13.32 310.88-10.82Q313.63-8.32 317.85-8.32L317.85-8.32Q324.38-8.32 328.05-13.05L328.05-13.05L333.59-6.84Q331.05-3.24 326.72-1.23Q322.38 0.78 317.11 0.78ZM315.82-33.91L315.82-33.91Q312.46-33.91 310.37-31.64Q308.28-29.38 307.70-25.16L307.70-25.16L323.40-25.16L323.40-26.05Q323.32-29.80 321.37-31.86Q319.41-33.91 315.82-33.91ZM363.79-11.68L363.79-11.68Q363.79-13.75 361.74-14.94Q359.69-16.13 355.16-17.07L355.16-17.07Q340.08-20.23 340.08-29.88L340.08-29.88Q340.08-35.51 344.75-39.28Q349.41-43.05 356.95-43.05L356.95-43.05Q365-43.05 369.82-39.26Q374.65-35.47 374.65-29.41L374.65-29.41L363.36-29.41Q363.36-31.84 361.80-33.42Q360.23-35 356.91-35L356.91-35Q354.06-35 352.50-33.71Q350.94-32.42 350.94-30.43L350.94-30.43Q350.94-28.55 352.71-27.40Q354.49-26.25 358.71-25.41Q362.93-24.57 365.82-23.52L365.82-23.52Q374.77-20.23 374.77-12.15L374.77-12.15Q374.77-6.37 369.80-2.79Q364.84 0.78 356.99 0.78L356.99 0.78Q351.68 0.78 347.56-1.11Q343.44-3.01 341.09-6.31Q338.75-9.61 338.75-13.44L338.75-13.44L349.45-13.44Q349.61-10.43 351.68-8.83Q353.75-7.23 357.23-7.23L357.23-7.23Q360.47-7.23 362.13-8.46Q363.79-9.69 363.79-11.68Z" transform="translate(771.15234375, 420)" fill="#ffffff" />
  <line x1="660" y1="480" x2="1260" y2="480" stroke="#e94560" stroke-width="6"/>
  <circle cx="620" cy="535" r="8" fill="#e94560" /><path d="M20.57 0L18.59-5.86L8.32-5.86L6.37 0L0.14 0L10.72-28.44L16.15-28.44L26.80 0L20.57 0ZM13.44-21.25L9.90-10.61L17.01-10.61L13.44-21.25ZM41.89 0L41.74-2.15Q39.65 0.39 35.96 0.39L35.96 0.39Q32.56 0.39 30.77-1.56Q28.98-3.52 28.95-7.29L28.95-7.29L28.95-21.13L34.59-21.13L34.59-7.48Q34.59-4.18 37.60-4.18L37.60-4.18Q40.47-4.18 41.54-6.17L41.54-6.17L41.54-21.13L47.21-21.13L47.21 0L41.89 0ZM52.58-26.33L58.22-26.33L58.22-21.13L61.84-21.13L61.84-16.99L58.22-16.99L58.22-6.45Q58.22-5.27 58.67-4.77Q59.12-4.26 60.39-4.26L60.39-4.26Q61.33-4.26 62.05-4.39L62.05-4.39L62.05-0.12Q60.39 0.39 58.63 0.39L58.63 0.39Q52.70 0.39 52.58-5.61L52.58-5.61L52.58-16.99L49.49-16.99L49.49-21.13L52.58-21.13L52.58-26.33ZM64.10-10.51L64.10-10.76Q64.10-13.91 65.31-16.37Q66.52-18.83 68.80-20.18Q71.07-21.52 74.08-21.52L74.08-21.52Q78.36-21.52 81.06-18.91Q83.77-16.29 84.08-11.80L84.08-11.80L84.12-10.35Q84.12-5.49 81.41-2.55Q78.69 0.39 74.12 0.39Q69.55 0.39 66.83-2.54Q64.10-5.47 64.10-10.51L64.10-10.51ZM69.75-10.35L69.75-10.35Q69.75-7.34 70.88-5.75Q72.01-4.16 74.12-4.16L74.12-4.16Q76.17-4.16 77.32-5.73Q78.48-7.30 78.48-10.76L78.48-10.76Q78.48-13.71 77.32-15.33Q76.17-16.95 74.08-16.95L74.08-16.95Q72.01-16.95 70.88-15.34Q69.75-13.73 69.75-10.35ZM87.60-21.13L92.89-21.13L93.07-18.77Q95.31-21.52 99.14-21.52L99.14-21.52Q103.22-21.52 104.75-18.30L104.75-18.30Q106.97-21.52 111.09-21.52L111.09-21.52Q114.53-21.52 116.21-19.52Q117.89-17.52 117.89-13.50L117.89-13.50L117.89 0L112.23 0L112.23-13.48Q112.23-15.27 111.52-16.10Q110.82-16.93 109.04-16.93L109.04-16.93Q106.50-16.93 105.53-14.51L105.53-14.51L105.55 0L99.90 0L99.90-13.46Q99.90-15.29 99.18-16.11Q98.46-16.93 96.72-16.93L96.72-16.93Q94.32-16.93 93.24-14.94L93.24-14.94L93.24 0L87.60 0L87.60-21.13ZM140.18 0L134.47 0Q134.08-0.76 133.91-1.89L133.91-1.89Q131.86 0.39 128.57 0.39L128.57 0.39Q125.47 0.39 123.43-1.41Q121.39-3.20 121.39-5.94L121.39-5.94Q121.39-9.30 123.88-11.09Q126.37-12.89 131.07-12.91L131.07-12.91L133.67-12.91L133.67-14.12Q133.67-15.59 132.92-16.46Q132.17-17.34 130.55-17.34L130.55-17.34Q129.12-17.34 128.31-16.66Q127.50-15.98 127.50-14.79L127.50-14.79L121.86-14.79Q121.86-16.62 122.99-18.18Q124.12-19.75 126.19-20.63Q128.26-21.52 130.84-21.52L130.84-21.52Q134.75-21.52 137.04-19.56Q139.34-17.60 139.34-14.04L139.34-14.04L139.34-4.88Q139.36-1.88 140.18-0.33L140.18-0.33L140.18 0ZM129.80-3.93L129.80-3.93Q131.05-3.93 132.11-4.48Q133.16-5.04 133.67-5.98L133.67-5.98L133.67-9.61L131.56-9.61Q127.32-9.61 127.05-6.68L127.05-6.68L127.03-6.35Q127.03-5.29 127.77-4.61Q128.52-3.93 129.80-3.93ZM144.79-26.33L150.43-26.33L150.43-21.13L154.04-21.13L154.04-16.99L150.43-16.99L150.43-6.45Q150.43-5.27 150.88-4.77Q151.33-4.26 152.60-4.26L152.60-4.26Q153.54-4.26 154.26-4.39L154.26-4.39L154.26-0.12Q152.60 0.39 150.84 0.39L150.84 0.39Q144.90 0.39 144.79-5.61L144.79-5.61L144.79-16.99L141.70-16.99L141.70-21.13L144.79-21.13L144.79-26.33ZM163.14-21.13L163.14 0L157.48 0L157.48-21.13L163.14-21.13ZM157.15-26.60L157.15-26.60Q157.15-27.87 158.00-28.69Q158.85-29.51 160.31-29.51L160.31-29.51Q161.76-29.51 162.62-28.69Q163.48-27.87 163.48-26.60L163.48-26.60Q163.48-25.31 162.61-24.49Q161.74-23.67 160.31-23.67Q158.89-23.67 158.02-24.49Q157.15-25.31 157.15-26.60ZM166.91-10.51L166.91-10.76Q166.91-13.91 168.13-16.37Q169.34-18.83 171.61-20.18Q173.89-21.52 176.89-21.52L176.89-21.52Q181.17-21.52 183.88-18.91Q186.58-16.29 186.89-11.80L186.89-11.80L186.93-10.35Q186.93-5.49 184.22-2.55Q181.50 0.39 176.93 0.39Q172.36 0.39 169.64-2.54Q166.91-5.47 166.91-10.51L166.91-10.51ZM172.56-10.35L172.56-10.35Q172.56-7.34 173.69-5.75Q174.82-4.16 176.93-4.16L176.93-4.16Q178.98-4.16 180.14-5.73Q181.29-7.30 181.29-10.76L181.29-10.76Q181.29-13.71 180.14-15.33Q178.98-16.95 176.89-16.95L176.89-16.95Q174.82-16.95 173.69-15.34Q172.56-13.73 172.56-10.35ZM190.29-21.13L195.61-21.13L195.78-18.69Q198.05-21.52 201.86-21.52L201.86-21.52Q205.21-21.52 206.86-19.55Q208.50-17.58 208.54-13.65L208.54-13.65L208.54 0L202.89 0L202.89-13.52Q202.89-15.31 202.11-16.12Q201.33-16.93 199.51-16.93L199.51-16.93Q197.13-16.93 195.94-14.90L195.94-14.90L195.94 0L190.29 0L190.29-21.13ZM237.30-21.13L241.15-7.68L243.93-21.13L249.38-21.13L243.98 0L239.26 0L235.25-13.30L231.25 0L226.54 0L221.15-21.13L226.60-21.13L229.36-7.70L233.22-21.13L237.30-21.13ZM251.29-10.51L251.29-10.76Q251.29-13.91 252.50-16.37Q253.71-18.83 255.99-20.18Q258.26-21.52 261.27-21.52L261.27-21.52Q265.55-21.52 268.25-18.91Q270.96-16.29 271.27-11.80L271.27-11.80L271.31-10.35Q271.31-5.49 268.59-2.55Q265.88 0.39 261.31 0.39Q256.74 0.39 254.01-2.54Q251.29-5.47 251.29-10.51L251.29-10.51ZM256.93-10.35L256.93-10.35Q256.93-7.34 258.07-5.75Q259.20-4.16 261.31-4.16L261.31-4.16Q263.36-4.16 264.51-5.73Q265.66-7.30 265.66-10.76L265.66-10.76Q265.66-13.71 264.51-15.33Q263.36-16.95 261.27-16.95L261.27-16.95Q259.20-16.95 258.07-15.34Q256.93-13.73 256.93-10.35ZM286.74-21.27L286.66-15.84Q285.51-16.00 284.63-16.00L284.63-16.00Q281.43-16.00 280.43-13.83L280.43-13.83L280.43 0L274.79 0L274.79-21.13L280.12-21.13L280.27-18.61Q281.97-21.52 284.98-21.52L284.98-21.52Q285.92-21.52 286.74-21.27L286.74-21.27ZM302.48 0L297.05-8.48L295.02-6.45L295.02 0L289.38 0L289.38-30L295.02-30L295.02-13.38L296.11-14.79L301.52-21.13L308.30-21.13L300.66-12.32L308.96 0L302.48 0ZM324.90 0L324.90-25.63Q323.22-25.82 321.78-25.82L321.78-25.82Q317.95-25.82 317.95-22.56L317.95-22.56L317.95-21.13L322.15-21.13L322.15-16.99L317.95-16.99L317.95 0L312.29 0L312.29-16.99L309.14-16.99L309.14-21.13L312.29-21.13L312.29-22.77Q312.32-26.45 314.59-28.43Q316.86-30.41 321.00-30.41L321.00-30.41Q323.95-30.41 330.57-29.79L330.57-29.79L330.57 0L324.90 0ZM334.38-10.51L334.38-10.76Q334.38-13.91 335.59-16.37Q336.80-18.83 339.07-20.18Q341.35-21.52 344.36-21.52L344.36-21.52Q348.63-21.52 351.34-18.91Q354.04-16.29 354.36-11.80L354.36-11.80L354.39-10.35Q354.39-5.49 351.68-2.55Q348.96 0.39 344.39 0.39Q339.82 0.39 337.10-2.54Q334.38-5.47 334.38-10.51L334.38-10.51ZM340.02-10.35L340.02-10.35Q340.02-7.34 341.15-5.75Q342.29-4.16 344.39-4.16L344.39-4.16Q346.45-4.16 347.60-5.73Q348.75-7.30 348.75-10.76L348.75-10.76Q348.75-13.71 347.60-15.33Q346.45-16.95 344.36-16.95L344.36-16.95Q342.29-16.95 341.15-15.34Q340.02-13.73 340.02-10.35ZM372.40-21.13L376.25-7.68L379.02-21.13L384.47-21.13L379.08 0L374.36 0L370.35-13.30L366.35 0L361.64 0L356.25-21.13L361.70-21.13L364.45-7.70L368.32-21.13L372.40-21.13ZM398.71-5.84L398.71-5.84Q398.71-6.88 397.69-7.47Q396.66-8.07 394.39-8.54L394.39-8.54Q386.86-10.12 386.86-14.94L386.86-14.94Q386.86-17.75 389.19-19.64Q391.52-21.52 395.29-21.52L395.29-21.52Q399.32-21.52 401.73-19.63Q404.14-17.73 404.14-14.71L404.14-14.71L398.50-14.71Q398.50-15.92 397.71-16.71Q396.93-17.50 395.27-17.50L395.27-17.50Q393.85-17.50 393.07-16.86Q392.29-16.21 392.29-15.21L392.29-15.21Q392.29-14.28 393.17-13.70Q394.06-13.13 396.17-12.71Q398.28-12.29 399.73-11.76L399.73-11.76Q404.20-10.12 404.20-6.07L404.20-6.07Q404.20-3.18 401.72-1.40Q399.24 0.39 395.31 0.39L395.31 0.39Q392.66 0.39 390.60-0.56Q388.54-1.50 387.36-3.15Q386.19-4.80 386.19-6.72L386.19-6.72L391.54-6.72Q391.62-5.21 392.66-4.41Q393.69-3.61 395.43-3.61L395.43-3.61Q397.05-3.61 397.88-4.23Q398.71-4.84 398.71-5.84Z" transform="translate(660, 535)" fill="#ffffff" /><circle cx="620" cy="605" r="8" fill="#e94560" /><path d="M13.54-10.02L8.40-10.02L8.40 0L2.54 0L2.54-28.44L13.63-28.44Q16.84-28.44 19.27-27.27Q21.70-26.09 23.01-23.94Q24.32-21.78 24.32-19.02L24.32-19.02Q24.32-14.84 21.46-12.43Q18.59-10.02 13.54-10.02L13.54-10.02ZM8.40-23.69L8.40-14.77L13.63-14.77Q15.96-14.77 17.18-15.86Q18.40-16.95 18.40-18.98L18.40-18.98Q18.40-21.07 17.17-22.36Q15.94-23.65 13.77-23.69L13.77-23.69L8.40-23.69ZM37.70 0.39L37.70 0.39Q33.05 0.39 30.13-2.46Q27.21-5.31 27.21-10.06L27.21-10.06L27.21-10.61Q27.21-13.79 28.44-16.30Q29.67-18.81 31.92-20.17Q34.18-21.52 37.07-21.52L37.07-21.52Q41.41-21.52 43.90-18.79Q46.39-16.05 46.39-11.04L46.39-11.04L46.39-8.73L32.93-8.73Q33.20-6.66 34.58-5.41Q35.96-4.16 38.07-4.16L38.07-4.16Q41.33-4.16 43.16-6.52L43.16-6.52L45.94-3.42Q44.67-1.62 42.50-0.62Q40.33 0.39 37.70 0.39ZM37.05-16.95L37.05-16.95Q35.37-16.95 34.33-15.82Q33.28-14.69 32.99-12.58L32.99-12.58L40.84-12.58L40.84-13.03Q40.80-14.90 39.82-15.93Q38.85-16.95 37.05-16.95ZM61.54-21.27L61.46-15.84Q60.31-16.00 59.43-16.00L59.43-16.00Q56.23-16.00 55.23-13.83L55.23-13.83L55.23 0L49.59 0L49.59-21.13L54.92-21.13L55.08-18.61Q56.78-21.52 59.79-21.52L59.79-21.52Q60.72-21.52 61.54-21.27L61.54-21.27ZM75.63-5.84L75.63-5.84Q75.63-6.88 74.60-7.47Q73.57-8.07 71.31-8.54L71.31-8.54Q63.77-10.12 63.77-14.94L63.77-14.94Q63.77-17.75 66.10-19.64Q68.44-21.52 72.21-21.52L72.21-21.52Q76.23-21.52 78.64-19.63Q81.05-17.73 81.05-14.71L81.05-14.71L75.41-14.71Q75.41-15.92 74.63-16.71Q73.85-17.50 72.19-17.50L72.19-17.50Q70.76-17.50 69.98-16.86Q69.20-16.21 69.20-15.21L69.20-15.21Q69.20-14.28 70.09-13.70Q70.98-13.13 73.09-12.71Q75.20-12.29 76.64-11.76L76.64-11.76Q81.11-10.12 81.11-6.07L81.11-6.07Q81.11-3.18 78.63-1.40Q76.15 0.39 72.23 0.39L72.23 0.39Q69.57 0.39 67.51-0.56Q65.45-1.50 64.28-3.15Q63.11-4.80 63.11-6.72L63.11-6.72L68.46-6.72Q68.54-5.21 69.57-4.41Q70.61-3.61 72.34-3.61L72.34-3.61Q73.96-3.61 74.79-4.23Q75.63-4.84 75.63-5.84ZM83.87-10.51L83.87-10.76Q83.87-13.91 85.08-16.37Q86.29-18.83 88.56-20.18Q90.84-21.52 93.85-21.52L93.85-21.52Q98.13-21.52 100.83-18.91Q103.54-16.29 103.85-11.80L103.85-11.80L103.89-10.35Q103.89-5.49 101.17-2.55Q98.46 0.39 93.89 0.39Q89.32 0.39 86.59-2.54Q83.87-5.47 83.87-10.51L83.87-10.51ZM89.51-10.35L89.51-10.35Q89.51-7.34 90.64-5.75Q91.78-4.16 93.89-4.16L93.89-4.16Q95.94-4.16 97.09-5.73Q98.24-7.30 98.24-10.76L98.24-10.76Q98.24-13.71 97.09-15.33Q95.94-16.95 93.85-16.95L93.85-16.95Q91.78-16.95 90.64-15.34Q89.51-13.73 89.51-10.35ZM107.25-21.13L112.56-21.13L112.73-18.69Q115-21.52 118.81-21.52L118.81-21.52Q122.17-21.52 123.81-19.55Q125.45-17.58 125.49-13.65L125.49-13.65L125.49 0L119.84 0L119.84-13.52Q119.84-15.31 119.06-16.12Q118.28-16.93 116.46-16.93L116.46-16.93Q114.08-16.93 112.89-14.90L112.89-14.90L112.89 0L107.25 0L107.25-21.13ZM147.71 0L142.01 0Q141.62-0.76 141.45-1.89L141.45-1.89Q139.39 0.39 136.11 0.39L136.11 0.39Q133.01 0.39 130.97-1.41Q128.93-3.20 128.93-5.94L128.93-5.94Q128.93-9.30 131.42-11.09Q133.91-12.89 138.61-12.91L138.61-12.91L141.21-12.91L141.21-14.12Q141.21-15.59 140.46-16.46Q139.71-17.34 138.09-17.34L138.09-17.34Q136.66-17.34 135.85-16.66Q135.04-15.98 135.04-14.79L135.04-14.79L129.39-14.79Q129.39-16.62 130.53-18.18Q131.66-19.75 133.73-20.63Q135.80-21.52 138.38-21.52L138.38-21.52Q142.29-21.52 144.58-19.56Q146.88-17.60 146.88-14.04L146.88-14.04L146.88-4.88Q146.89-1.88 147.71-0.33L147.71-0.33L147.71 0ZM137.34-3.93L137.34-3.93Q138.59-3.93 139.65-4.48Q140.70-5.04 141.21-5.98L141.21-5.98L141.21-9.61L139.10-9.61Q134.86-9.61 134.59-6.68L134.59-6.68L134.57-6.35Q134.57-5.29 135.31-4.61Q136.05-3.93 137.34-3.93ZM157.17-30L157.17 0L151.50 0L151.50-30L157.17-30ZM189.73 0L184.02 0Q183.63-0.76 183.46-1.89L183.46-1.89Q181.41 0.39 178.13 0.39L178.13 0.39Q175.02 0.39 172.98-1.41Q170.94-3.20 170.94-5.94L170.94-5.94Q170.94-9.30 173.43-11.09Q175.92-12.89 180.63-12.91L180.63-12.91L183.22-12.91L183.22-14.12Q183.22-15.59 182.47-16.46Q181.72-17.34 180.10-17.34L180.10-17.34Q178.67-17.34 177.86-16.66Q177.05-15.98 177.05-14.79L177.05-14.79L171.41-14.79Q171.41-16.62 172.54-18.18Q173.67-19.75 175.74-20.63Q177.81-21.52 180.39-21.52L180.39-21.52Q184.30-21.52 186.59-19.56Q188.89-17.60 188.89-14.04L188.89-14.04L188.89-4.88Q188.91-1.88 189.73-0.33L189.73-0.33L189.73 0ZM179.36-3.93L179.36-3.93Q180.61-3.93 181.66-4.48Q182.71-5.04 183.22-5.98L183.22-5.98L183.22-9.61L181.11-9.61Q176.88-9.61 176.60-6.68L176.60-6.68L176.58-6.35Q176.58-5.29 177.32-4.61Q178.07-3.93 179.36-3.93ZM204.67-5.84L204.67-5.84Q204.67-6.88 203.64-7.47Q202.62-8.07 200.35-8.54L200.35-8.54Q192.81-10.12 192.81-14.94L192.81-14.94Q192.81-17.75 195.15-19.64Q197.48-21.52 201.25-21.52L201.25-21.52Q205.27-21.52 207.69-19.63Q210.10-17.73 210.10-14.71L210.10-14.71L204.45-14.71Q204.45-15.92 203.67-16.71Q202.89-17.50 201.23-17.50L201.23-17.50Q199.80-17.50 199.02-16.86Q198.24-16.21 198.24-15.21L198.24-15.21Q198.24-14.28 199.13-13.70Q200.02-13.13 202.13-12.71Q204.24-12.29 205.68-11.76L205.68-11.76Q210.16-10.12 210.16-6.07L210.16-6.07Q210.16-3.18 207.68-1.40Q205.20 0.39 201.27 0.39L201.27 0.39Q198.61 0.39 196.55-0.56Q194.49-1.50 193.32-3.15Q192.15-4.80 192.15-6.72L192.15-6.72L197.50-6.72Q197.58-5.21 198.61-4.41Q199.65-3.61 201.39-3.61L201.39-3.61Q203.01-3.61 203.84-4.23Q204.67-4.84 204.67-5.84ZM225.23-5.84L225.23-5.84Q225.23-6.88 224.21-7.47Q223.18-8.07 220.92-8.54L220.92-8.54Q213.38-10.12 213.38-14.94L213.38-14.94Q213.38-17.75 215.71-19.64Q218.05-21.52 221.82-21.52L221.82-21.52Q225.84-21.52 228.25-19.63Q230.66-17.73 230.66-14.71L230.66-14.71L225.02-14.71Q225.02-15.92 224.24-16.71Q223.46-17.50 221.80-17.50L221.80-17.50Q220.37-17.50 219.59-16.86Q218.81-16.21 218.81-15.21L218.81-15.21Q218.81-14.28 219.70-13.70Q220.59-13.13 222.70-12.71Q224.80-12.29 226.25-11.76L226.25-11.76Q230.72-10.12 230.72-6.07L230.72-6.07Q230.72-3.18 228.24-1.40Q225.76 0.39 221.84 0.39L221.84 0.39Q219.18 0.39 217.12-0.56Q215.06-1.50 213.89-3.15Q212.71-4.80 212.71-6.72L212.71-6.72L218.07-6.72Q218.14-5.21 219.18-4.41Q220.21-3.61 221.95-3.61L221.95-3.61Q223.57-3.61 224.40-4.23Q225.23-4.84 225.23-5.84ZM240.31-21.13L240.31 0L234.65 0L234.65-21.13L240.31-21.13ZM234.32-26.60L234.32-26.60Q234.32-27.87 235.17-28.69Q236.02-29.51 237.48-29.51L237.48-29.51Q238.93-29.51 239.79-28.69Q240.64-27.87 240.64-26.60L240.64-26.60Q240.64-25.31 239.78-24.49Q238.91-23.67 237.48-23.67Q236.05-23.67 235.19-24.49Q234.32-25.31 234.32-26.60ZM256.41-5.84L256.41-5.84Q256.41-6.88 255.38-7.47Q254.36-8.07 252.09-8.54L252.09-8.54Q244.55-10.12 244.55-14.94L244.55-14.94Q244.55-17.75 246.88-19.64Q249.22-21.52 252.99-21.52L252.99-21.52Q257.01-21.52 259.42-19.63Q261.84-17.73 261.84-14.71L261.84-14.71L256.19-14.71Q256.19-15.92 255.41-16.71Q254.63-17.50 252.97-17.50L252.97-17.50Q251.54-17.50 250.76-16.86Q249.98-16.21 249.98-15.21L249.98-15.21Q249.98-14.28 250.87-13.70Q251.76-13.13 253.87-12.71Q255.98-12.29 257.42-11.76L257.42-11.76Q261.89-10.12 261.89-6.07L261.89-6.07Q261.89-3.18 259.41-1.40Q256.93 0.39 253.01 0.39L253.01 0.39Q250.35 0.39 248.29-0.56Q246.23-1.50 245.06-3.15Q243.89-4.80 243.89-6.72L243.89-6.72L249.24-6.72Q249.32-5.21 250.35-4.41Q251.39-3.61 253.13-3.61L253.13-3.61Q254.75-3.61 255.58-4.23Q256.41-4.84 256.41-5.84ZM266.64-26.33L272.29-26.33L272.29-21.13L275.90-21.13L275.90-16.99L272.29-16.99L272.29-6.45Q272.29-5.27 272.73-4.77Q273.18-4.26 274.45-4.26L274.45-4.26Q275.39-4.26 276.11-4.39L276.11-4.39L276.11-0.12Q274.45 0.39 272.70 0.39L272.70 0.39Q266.76 0.39 266.64-5.61L266.64-5.61L266.64-16.99L263.55-16.99L263.55-21.13L266.64-21.13L266.64-26.33ZM296.99 0L291.29 0Q290.90-0.76 290.72-1.89L290.72-1.89Q288.67 0.39 285.39 0.39L285.39 0.39Q282.29 0.39 280.24-1.41Q278.20-3.20 278.20-5.94L278.20-5.94Q278.20-9.30 280.69-11.09Q283.18-12.89 287.89-12.91L287.89-12.91L290.49-12.91L290.49-14.12Q290.49-15.59 289.74-16.46Q288.98-17.34 287.36-17.34L287.36-17.34Q285.94-17.34 285.13-16.66Q284.32-15.98 284.32-14.79L284.32-14.79L278.67-14.79Q278.67-16.62 279.80-18.18Q280.94-19.75 283.01-20.63Q285.08-21.52 287.66-21.52L287.66-21.52Q291.56-21.52 293.86-19.56Q296.15-17.60 296.15-14.04L296.15-14.04L296.15-4.88Q296.17-1.88 296.99-0.33L296.99-0.33L296.99 0ZM286.62-3.93L286.62-3.93Q287.87-3.93 288.93-4.48Q289.98-5.04 290.49-5.98L290.49-5.98L290.49-9.61L288.38-9.61Q284.14-9.61 283.87-6.68L283.87-6.68L283.85-6.35Q283.85-5.29 284.59-4.61Q285.33-3.93 286.62-3.93ZM300.37-21.13L305.68-21.13L305.86-18.69Q308.13-21.52 311.93-21.52L311.93-21.52Q315.29-21.52 316.93-19.55Q318.57-17.58 318.61-13.65L318.61-13.65L318.61 0L312.97 0L312.97-13.52Q312.97-15.31 312.19-16.12Q311.41-16.93 309.59-16.93L309.59-16.93Q307.21-16.93 306.02-14.90L306.02-14.90L306.02 0L300.37 0L300.37-21.13ZM324.00-26.33L329.65-26.33L329.65-21.13L333.26-21.13L333.26-16.99L329.65-16.99L329.65-6.45Q329.65-5.27 330.10-4.77Q330.55-4.26 331.82-4.26L331.82-4.26Q332.75-4.26 333.48-4.39L333.48-4.39L333.48-0.12Q331.82 0.39 330.06 0.39L330.06 0.39Q324.12 0.39 324.00-5.61L324.00-5.61L324.00-16.99L320.92-16.99L320.92-21.13L324.00-21.13L324.00-26.33Z" transform="translate(660, 605)" fill="#ffffff" /><circle cx="620" cy="675" r="8" fill="#e94560" /><path d="M11.35 0L2.54 0L2.54-28.44L11.29-28.44Q15.04-28.44 18.00-26.75Q20.96-25.06 22.62-21.94Q24.28-18.83 24.28-14.86L24.28-14.86L24.28-13.55Q24.28-9.59 22.65-6.50Q21.02-3.42 18.05-1.72Q15.08-0.02 11.35 0L11.35 0ZM11.29-23.69L8.40-23.69L8.40-4.71L11.23-4.71Q14.67-4.71 16.48-6.95Q18.30-9.20 18.34-13.38L18.34-13.38L18.34-14.88Q18.34-19.22 16.54-21.46Q14.75-23.69 11.29-23.69L11.29-23.69ZM37.89 0.39L37.89 0.39Q33.24 0.39 30.32-2.46Q27.40-5.31 27.40-10.06L27.40-10.06L27.40-10.61Q27.40-13.79 28.63-16.30Q29.86-18.81 32.12-20.17Q34.38-21.52 37.27-21.52L37.27-21.52Q41.60-21.52 44.09-18.79Q46.58-16.05 46.58-11.04L46.58-11.04L46.58-8.73L33.13-8.73Q33.40-6.66 34.78-5.41Q36.15-4.16 38.26-4.16L38.26-4.16Q41.52-4.16 43.36-6.52L43.36-6.52L46.13-3.42Q44.86-1.62 42.70-0.62Q40.53 0.39 37.89 0.39ZM37.25-16.95L37.25-16.95Q35.57-16.95 34.52-15.82Q33.48-14.69 33.18-12.58L33.18-12.58L41.04-12.58L41.04-13.03Q41.00-14.90 40.02-15.93Q39.04-16.95 37.25-16.95ZM53.77-21.13L57.70-6.89L61.62-21.13L67.52-21.13L60.39 0L55 0L47.87-21.13L53.77-21.13ZM79.73 0.39L79.73 0.39Q75.08 0.39 72.16-2.46Q69.24-5.31 69.24-10.06L69.24-10.06L69.24-10.61Q69.24-13.79 70.47-16.30Q71.70-18.81 73.96-20.17Q76.21-21.52 79.10-21.52L79.10-21.52Q83.44-21.52 85.93-18.79Q88.42-16.05 88.42-11.04L88.42-11.04L88.42-8.73L74.96-8.73Q75.23-6.66 76.61-5.41Q77.99-4.16 80.10-4.16L80.10-4.16Q83.36-4.16 85.20-6.52L85.20-6.52L87.97-3.42Q86.70-1.62 84.53-0.62Q82.36 0.39 79.73 0.39ZM79.08-16.95L79.08-16.95Q77.40-16.95 76.36-15.82Q75.31-14.69 75.02-12.58L75.02-12.58L82.87-12.58L82.87-13.03Q82.83-14.90 81.86-15.93Q80.88-16.95 79.08-16.95ZM97.58-30L97.58 0L91.91 0L91.91-30L97.58-30ZM101.35-10.51L101.35-10.76Q101.35-13.91 102.56-16.37Q103.77-18.83 106.04-20.18Q108.32-21.52 111.33-21.52L111.33-21.52Q115.61-21.52 118.31-18.91Q121.02-16.29 121.33-11.80L121.33-11.80L121.37-10.35Q121.37-5.49 118.65-2.55Q115.94 0.39 111.37 0.39Q106.80 0.39 104.07-2.54Q101.35-5.47 101.35-10.51L101.35-10.51ZM106.99-10.35L106.99-10.35Q106.99-7.34 108.13-5.75Q109.26-4.16 111.37-4.16L111.37-4.16Q113.42-4.16 114.57-5.73Q115.72-7.30 115.72-10.76L115.72-10.76Q115.72-13.71 114.57-15.33Q113.42-16.95 111.33-16.95L111.33-16.95Q109.26-16.95 108.13-15.34Q106.99-13.73 106.99-10.35ZM143.87-10.66L143.87-10.37Q143.87-5.49 141.65-2.55Q139.43 0.39 135.66 0.39L135.66 0.39Q132.46 0.39 130.49-1.84L130.49-1.84L130.49 8.13L124.84 8.13L124.84-21.13L130.08-21.13L130.27-19.06Q132.32-21.52 135.63-21.52L135.63-21.52Q139.53-21.52 141.70-18.63Q143.87-15.74 143.87-10.66L143.87-10.66ZM138.22-10.78L138.22-10.78Q138.22-13.73 137.18-15.33Q136.13-16.93 134.14-16.93L134.14-16.93Q131.48-16.93 130.49-14.90L130.49-14.90L130.49-6.25Q131.52-4.16 134.18-4.16L134.18-4.16Q138.22-4.16 138.22-10.78ZM147.36-21.13L152.66-21.13L152.83-18.77Q155.08-21.52 158.91-21.52L158.91-21.52Q162.99-21.52 164.51-18.30L164.51-18.30Q166.74-21.52 170.86-21.52L170.86-21.52Q174.30-21.52 175.98-19.52Q177.66-17.52 177.66-13.50L177.66-13.50L177.66 0L171.99 0L171.99-13.48Q171.99-15.27 171.29-16.10Q170.59-16.93 168.81-16.93L168.81-16.93Q166.27-16.93 165.29-14.51L165.29-14.51L165.31 0L159.67 0L159.67-13.46Q159.67-15.29 158.95-16.11Q158.22-16.93 156.48-16.93L156.48-16.93Q154.08-16.93 153.01-14.94L153.01-14.94L153.01 0L147.36 0L147.36-21.13ZM191.72 0.39L191.72 0.39Q187.07 0.39 184.15-2.46Q181.23-5.31 181.23-10.06L181.23-10.06L181.23-10.61Q181.23-13.79 182.46-16.30Q183.69-18.81 185.95-20.17Q188.20-21.52 191.09-21.52L191.09-21.52Q195.43-21.52 197.92-18.79Q200.41-16.05 200.41-11.04L200.41-11.04L200.41-8.73L186.95-8.73Q187.23-6.66 188.60-5.41Q189.98-4.16 192.09-4.16L192.09-4.16Q195.35-4.16 197.19-6.52L197.19-6.52L199.96-3.42Q198.69-1.62 196.52-0.62Q194.36 0.39 191.72 0.39ZM191.07-16.95L191.07-16.95Q189.39-16.95 188.35-15.82Q187.30-14.69 187.01-12.58L187.01-12.58L194.86-12.58L194.86-13.03Q194.82-14.90 193.85-15.93Q192.87-16.95 191.07-16.95ZM203.50-21.13L208.81-21.13L208.98-18.69Q211.25-21.52 215.06-21.52L215.06-21.52Q218.42-21.52 220.06-19.55Q221.70-17.58 221.74-13.65L221.74-13.65L221.74 0L216.09 0L216.09-13.52Q216.09-15.31 215.31-16.12Q214.53-16.93 212.71-16.93L212.71-16.93Q210.33-16.93 209.14-14.90L209.14-14.90L209.14 0L203.50 0L203.50-21.13ZM227.13-26.33L232.77-26.33L232.77-21.13L236.39-21.13L236.39-16.99L232.77-16.99L232.77-6.45Q232.77-5.27 233.22-4.77Q233.67-4.26 234.94-4.26L234.94-4.26Q235.88-4.26 236.60-4.39L236.60-4.39L236.60-0.12Q234.94 0.39 233.18 0.39L233.18 0.39Q227.25 0.39 227.13-5.61L227.13-5.61L227.13-16.99L224.04-16.99L224.04-21.13L227.13-21.13L227.13-26.33ZM255-30L255-18.83Q257.25-21.52 260.64-21.52L260.64-21.52Q267.52-21.52 267.62-13.54L267.62-13.54L267.62 0L261.97 0L261.97-13.38Q261.97-15.20 261.19-16.06Q260.41-16.93 258.59-16.93L258.59-16.93Q256.11-16.93 255-15.02L255-15.02L255 0L249.36 0L249.36-30L255-30ZM281.60 0.39L281.60 0.39Q276.95 0.39 274.03-2.46Q271.11-5.31 271.11-10.06L271.11-10.06L271.11-10.61Q271.11-13.79 272.34-16.30Q273.57-18.81 275.83-20.17Q278.09-21.52 280.98-21.52L280.98-21.52Q285.31-21.52 287.80-18.79Q290.29-16.05 290.29-11.04L290.29-11.04L290.29-8.73L276.84-8.73Q277.11-6.66 278.49-5.41Q279.86-4.16 281.97-4.16L281.97-4.16Q285.23-4.16 287.07-6.52L287.07-6.52L289.84-3.42Q288.57-1.62 286.41-0.62Q284.24 0.39 281.60 0.39ZM280.96-16.95L280.96-16.95Q279.28-16.95 278.23-15.82Q277.19-14.69 276.89-12.58L276.89-12.58L284.75-12.58L284.75-13.03Q284.71-14.90 283.73-15.93Q282.75-16.95 280.96-16.95ZM299.45-30L299.45 0L293.79 0L293.79-30L299.45-30ZM323.13-10.66L323.13-10.37Q323.13-5.49 320.91-2.55Q318.69 0.39 314.92 0.39L314.92 0.39Q311.72 0.39 309.75-1.84L309.75-1.84L309.75 8.13L304.10 8.13L304.10-21.13L309.34-21.13L309.53-19.06Q311.58-21.52 314.88-21.52L314.88-21.52Q318.79-21.52 320.96-18.63Q323.13-15.74 323.13-10.66L323.13-10.66ZM317.48-10.78L317.48-10.78Q317.48-13.73 316.44-15.33Q315.39-16.93 313.40-16.93L313.40-16.93Q310.74-16.93 309.75-14.90L309.75-14.90L309.75-6.25Q310.78-4.16 313.44-4.16L313.44-4.16Q317.48-4.16 317.48-10.78ZM336.35 0.39L336.35 0.39Q331.70 0.39 328.78-2.46Q325.86-5.31 325.86-10.06L325.86-10.06L325.86-10.61Q325.86-13.79 327.09-16.30Q328.32-18.81 330.58-20.17Q332.83-21.52 335.72-21.52L335.72-21.52Q340.06-21.52 342.55-18.79Q345.04-16.05 345.04-11.04L345.04-11.04L345.04-8.73L331.58-8.73Q331.86-6.66 333.23-5.41Q334.61-4.16 336.72-4.16L336.72-4.16Q339.98-4.16 341.82-6.52L341.82-6.52L344.59-3.42Q343.32-1.62 341.15-0.62Q338.98 0.39 336.35 0.39ZM335.70-16.95L335.70-16.95Q334.02-16.95 332.98-15.82Q331.93-14.69 331.64-12.58L331.64-12.58L339.49-12.58L339.49-13.03Q339.45-14.90 338.48-15.93Q337.50-16.95 335.70-16.95ZM360.20-21.27L360.12-15.84Q358.96-16.00 358.09-16.00L358.09-16.00Q354.88-16.00 353.89-13.83L353.89-13.83L353.89 0L348.24 0L348.24-21.13L353.57-21.13L353.73-18.61Q355.43-21.52 358.44-21.52L358.44-21.52Q359.38-21.52 360.20-21.27L360.20-21.27Z" transform="translate(660, 675)" fill="#ffffff" /><circle cx="620" cy="745" r="8" fill="#e94560" /><path d="M18.40 0L13.07-10.41L8.40-10.41L8.40 0L2.54 0L2.54-28.44L13.11-28.44Q18.14-28.44 20.88-26.19Q23.61-23.95 23.61-19.84L23.61-19.84Q23.61-16.93 22.35-14.99Q21.09-13.05 18.54-11.89L18.54-11.89L24.69-0.27L24.69 0L18.40 0ZM8.40-23.69L8.40-15.16L13.13-15.16Q15.33-15.16 16.54-16.28Q17.75-17.40 17.75-19.38L17.75-19.38Q17.75-21.39 16.61-22.54Q15.47-23.69 13.11-23.69L13.11-23.69L8.40-23.69ZM37.42 0.39L37.42 0.39Q32.77 0.39 29.85-2.46Q26.93-5.31 26.93-10.06L26.93-10.06L26.93-10.61Q26.93-13.79 28.16-16.30Q29.39-18.81 31.65-20.17Q33.91-21.52 36.80-21.52L36.80-21.52Q41.13-21.52 43.62-18.79Q46.11-16.05 46.11-11.04L46.11-11.04L46.11-8.73L32.66-8.73Q32.93-6.66 34.31-5.41Q35.68-4.16 37.79-4.16L37.79-4.16Q41.05-4.16 42.89-6.52L42.89-6.52L45.66-3.42Q44.39-1.62 42.23-0.62Q40.06 0.39 37.42 0.39ZM36.78-16.95L36.78-16.95Q35.10-16.95 34.05-15.82Q33.01-14.69 32.71-12.58L32.71-12.58L40.57-12.58L40.57-13.03Q40.53-14.90 39.55-15.93Q38.57-16.95 36.78-16.95ZM60.76-5.84L60.76-5.84Q60.76-6.88 59.74-7.47Q58.71-8.07 56.45-8.54L56.45-8.54Q48.91-10.12 48.91-14.94L48.91-14.94Q48.91-17.75 51.24-19.64Q53.57-21.52 57.34-21.52L57.34-21.52Q61.37-21.52 63.78-19.63Q66.19-17.73 66.19-14.71L66.19-14.71L60.55-14.71Q60.55-15.92 59.77-16.71Q58.98-17.50 57.32-17.50L57.32-17.50Q55.90-17.50 55.12-16.86Q54.34-16.21 54.34-15.21L54.34-15.21Q54.34-14.28 55.22-13.70Q56.11-13.13 58.22-12.71Q60.33-12.29 61.78-11.76L61.78-11.76Q66.25-10.12 66.25-6.07L66.25-6.07Q66.25-3.18 63.77-1.40Q61.29 0.39 57.36 0.39L57.36 0.39Q54.71 0.39 52.65-0.56Q50.59-1.50 49.41-3.15Q48.24-4.80 48.24-6.72L48.24-6.72L53.59-6.72Q53.67-5.21 54.71-4.41Q55.74-3.61 57.48-3.61L57.48-3.61Q59.10-3.61 59.93-4.23Q60.76-4.84 60.76-5.84ZM79.61 0.39L79.61 0.39Q74.96 0.39 72.04-2.46Q69.12-5.31 69.12-10.06L69.12-10.06L69.12-10.61Q69.12-13.79 70.35-16.30Q71.58-18.81 73.84-20.17Q76.09-21.52 78.98-21.52L78.98-21.52Q83.32-21.52 85.81-18.79Q88.30-16.05 88.30-11.04L88.30-11.04L88.30-8.73L74.84-8.73Q75.12-6.66 76.49-5.41Q77.87-4.16 79.98-4.16L79.98-4.16Q83.24-4.16 85.08-6.52L85.08-6.52L87.85-3.42Q86.58-1.62 84.41-0.62Q82.25 0.39 79.61 0.39ZM78.96-16.95L78.96-16.95Q77.29-16.95 76.24-15.82Q75.20-14.69 74.90-12.58L74.90-12.58L82.75-12.58L82.75-13.03Q82.71-14.90 81.74-15.93Q80.76-16.95 78.96-16.95ZM109.45 0L103.75 0Q103.36-0.76 103.18-1.89L103.18-1.89Q101.13 0.39 97.85 0.39L97.85 0.39Q94.75 0.39 92.71-1.41Q90.66-3.20 90.66-5.94L90.66-5.94Q90.66-9.30 93.15-11.09Q95.64-12.89 100.35-12.91L100.35-12.91L102.95-12.91L102.95-14.12Q102.95-15.59 102.20-16.46Q101.45-17.34 99.82-17.34L99.82-17.34Q98.40-17.34 97.59-16.66Q96.78-15.98 96.78-14.79L96.78-14.79L91.13-14.79Q91.13-16.62 92.27-18.18Q93.40-19.75 95.47-20.63Q97.54-21.52 100.12-21.52L100.12-21.52Q104.02-21.52 106.32-19.56Q108.61-17.60 108.61-14.04L108.61-14.04L108.61-4.88Q108.63-1.88 109.45-0.33L109.45-0.33L109.45 0ZM99.08-3.93L99.08-3.93Q100.33-3.93 101.39-4.48Q102.44-5.04 102.95-5.98L102.95-5.98L102.95-9.61L100.84-9.61Q96.60-9.61 96.33-6.68L96.33-6.68L96.31-6.35Q96.31-5.29 97.05-4.61Q97.79-3.93 99.08-3.93ZM124.90-21.27L124.82-15.84Q123.67-16.00 122.79-16.00L122.79-16.00Q119.59-16.00 118.59-13.83L118.59-13.83L118.59 0L112.95 0L112.95-21.13L118.28-21.13L118.44-18.61Q120.14-21.52 123.14-21.52L123.14-21.52Q124.08-21.52 124.90-21.27L124.90-21.27ZM136.33-4.16L136.33-4.16Q137.89-4.16 138.87-5.02Q139.84-5.88 139.88-7.30L139.88-7.30L145.18-7.30Q145.16-5.16 144.00-3.37Q142.85-1.58 140.85-0.60Q138.85 0.39 136.43 0.39L136.43 0.39Q131.89 0.39 129.28-2.49Q126.66-5.37 126.66-10.45L126.66-10.45L126.66-10.82Q126.66-15.70 129.26-18.61Q131.86-21.52 136.39-21.52L136.39-21.52Q140.35-21.52 142.74-19.27Q145.14-17.01 145.18-13.26L145.18-13.26L139.88-13.26Q139.84-14.90 138.87-15.93Q137.89-16.95 136.29-16.95L136.29-16.95Q134.32-16.95 133.31-15.52Q132.30-14.08 132.30-10.86L132.30-10.86L132.30-10.27Q132.30-7.01 133.30-5.59Q134.30-4.16 136.33-4.16ZM153.91-30L153.91-18.83Q156.15-21.52 159.55-21.52L159.55-21.52Q166.43-21.52 166.52-13.54L166.52-13.54L166.52 0L160.88 0L160.88-13.38Q160.88-15.20 160.10-16.06Q159.32-16.93 157.50-16.93L157.50-16.93Q155.02-16.93 153.91-15.02L153.91-15.02L153.91 0L148.26 0L148.26-30L153.91-30ZM179.96-7.66L179.96-7.66Q179.96-9.63 181.06-11.31Q182.17-12.99 185.12-15.04L185.12-15.04Q183.85-16.74 183.13-18.23Q182.40-19.73 182.40-21.35L182.40-21.35Q182.40-24.67 184.50-26.75Q186.60-28.83 190.16-28.83L190.16-28.83Q193.34-28.83 195.38-26.93Q197.42-25.04 197.42-22.21L197.42-22.21Q197.42-18.81 193.98-16.21L193.98-16.21L191.80-14.63L196.70-8.93Q197.85-11.19 197.85-13.93L197.85-13.93L202.66-13.93Q202.66-8.38 200.10-4.94L200.10-4.94L204.36 0L197.95 0L196.48-1.68Q193.34 0.39 189.26 0.39L189.26 0.39Q185.04 0.39 182.50-1.83Q179.96-4.04 179.96-7.66ZM189.53-4.14L189.53-4.14Q191.56-4.14 193.38-5.27L193.38-5.27L187.77-11.76L187.36-11.46Q185.63-9.98 185.63-7.97L185.63-7.97Q185.63-6.27 186.71-5.21Q187.79-4.14 189.53-4.14ZM187.46-21.43L187.46-21.43Q187.46-19.96 189.18-17.73L189.18-17.73L190.68-18.73Q191.84-19.47 192.28-20.18Q192.71-20.88 192.71-21.86Q192.71-22.83 191.99-23.55Q191.27-24.28 190.14-24.28L190.14-24.28Q188.93-24.28 188.19-23.50Q187.46-22.71 187.46-21.43ZM236.00-10.68L236.00-10.37Q236.00-5.29 233.83-2.45Q231.66 0.39 227.77 0.39L227.77 0.39Q224.34 0.39 222.29-2.25L222.29-2.25L222.03 0L216.95 0L216.95-30L222.60-30L222.60-19.24Q224.55-21.52 227.73-21.52L227.73-21.52Q231.60-21.52 233.80-18.68Q236.00-15.84 236.00-10.68L236.00-10.68ZM230.35-10.78L230.35-10.78Q230.35-13.98 229.34-15.46Q228.32-16.93 226.31-16.93L226.31-16.93Q223.61-16.93 222.60-14.73L222.60-14.73L222.60-6.39Q223.63-4.16 226.35-4.16L226.35-4.16Q229.08-4.16 229.94-6.86L229.94-6.86Q230.35-8.14 230.35-10.78ZM251.43-21.27L251.35-15.84Q250.20-16.00 249.32-16.00L249.32-16.00Q246.11-16.00 245.12-13.83L245.12-13.83L245.12 0L239.47 0L239.47-21.13L244.80-21.13L244.96-18.61Q246.66-21.52 249.67-21.52L249.67-21.52Q250.61-21.52 251.43-21.27L251.43-21.27ZM253.18-10.51L253.18-10.76Q253.18-13.91 254.39-16.37Q255.61-18.83 257.88-20.18Q260.16-21.52 263.16-21.52L263.16-21.52Q267.44-21.52 270.15-18.91Q272.85-16.29 273.16-11.80L273.16-11.80L273.20-10.35Q273.20-5.49 270.49-2.55Q267.77 0.39 263.20 0.39Q258.63 0.39 255.91-2.54Q253.18-5.47 253.18-10.51L253.18-10.51ZM258.83-10.35L258.83-10.35Q258.83-7.34 259.96-5.75Q261.09-4.16 263.20-4.16L263.20-4.16Q265.25-4.16 266.41-5.73Q267.56-7.30 267.56-10.76L267.56-10.76Q267.56-13.71 266.41-15.33Q265.25-16.95 263.16-16.95L263.16-16.95Q261.09-16.95 259.96-15.34Q258.83-13.73 258.83-10.35ZM291.21-21.13L295.06-7.68L297.83-21.13L303.28-21.13L297.89 0L293.16 0L289.16-13.30L285.16 0L280.45 0L275.06-21.13L280.51-21.13L283.26-7.70L287.13-21.13L291.21-21.13ZM317.52-5.84L317.52-5.84Q317.52-6.88 316.49-7.47Q315.47-8.07 313.20-8.54L313.20-8.54Q305.66-10.12 305.66-14.94L305.66-14.94Q305.66-17.75 308.00-19.64Q310.33-21.52 314.10-21.52L314.10-21.52Q318.13-21.52 320.54-19.63Q322.95-17.73 322.95-14.71L322.95-14.71L317.30-14.71Q317.30-15.92 316.52-16.71Q315.74-17.50 314.08-17.50L314.08-17.50Q312.66-17.50 311.88-16.86Q311.09-16.21 311.09-15.21L311.09-15.21Q311.09-14.28 311.98-13.70Q312.87-13.13 314.98-12.71Q317.09-12.29 318.54-11.76L318.54-11.76Q323.01-10.12 323.01-6.07L323.01-6.07Q323.01-3.18 320.53-1.40Q318.05 0.39 314.12 0.39L314.12 0.39Q311.46 0.39 309.40-0.56Q307.34-1.50 306.17-3.15Q305-4.80 305-6.72L305-6.72L310.35-6.72Q310.43-5.21 311.46-4.41Q312.50-3.61 314.24-3.61L314.24-3.61Q315.86-3.61 316.69-4.23Q317.52-4.84 317.52-5.84ZM332.60-21.13L332.60 0L326.93 0L326.93-21.13L332.60-21.13ZM326.60-26.60L326.60-26.60Q326.60-27.87 327.45-28.69Q328.30-29.51 329.77-29.51L329.77-29.51Q331.21-29.51 332.07-28.69Q332.93-27.87 332.93-26.60L332.93-26.60Q332.93-25.31 332.06-24.49Q331.19-23.67 329.77-23.67Q328.34-23.67 327.47-24.49Q326.60-25.31 326.60-26.60ZM337.13-21.13L342.44-21.13L342.62-18.69Q344.88-21.52 348.69-21.52L348.69-21.52Q352.05-21.52 353.69-19.55Q355.33-17.58 355.37-13.65L355.37-13.65L355.37 0L349.73 0L349.73-13.52Q349.73-15.31 348.95-16.12Q348.16-16.93 346.35-16.93L346.35-16.93Q343.96-16.93 342.77-14.90L342.77-14.90L342.77 0L337.13 0L337.13-21.13ZM358.83-10.49L358.83-10.72Q358.83-15.59 361.14-18.55Q363.46-21.52 367.38-21.52L367.38-21.52Q370.86-21.52 372.79-19.14L372.79-19.14L373.03-21.13L378.14-21.13L378.14-0.70Q378.14 2.07 376.88 4.12Q375.63 6.17 373.34 7.25Q371.05 8.32 367.99 8.32L367.99 8.32Q365.66 8.32 363.46 7.39Q361.25 6.46 360.12 5L360.12 5L362.62 1.56Q364.73 3.93 367.73 3.93L367.73 3.93Q369.98 3.93 371.23 2.72Q372.48 1.52 372.48-0.68L372.48-0.68L372.48-1.82Q370.53 0.39 367.34 0.39L367.34 0.39Q363.54 0.39 361.18-2.59Q358.83-5.57 358.83-10.49L358.83-10.49ZM364.47-10.31L364.47-10.31Q364.47-7.44 365.63-5.81Q366.78-4.18 368.79-4.18L368.79-4.18Q371.37-4.18 372.48-6.11L372.48-6.11L372.48-15Q371.35-16.93 368.83-16.93L368.83-16.93Q366.80-16.93 365.63-15.27Q364.47-13.61 364.47-10.31Z" transform="translate(660, 745)" fill="#ffffff" />
  <text x="960" y="1030" font-family="Arial" font-size="24" fill="#666" text-anchor="middle">OpenClaw Documentation</text>
  <line x1="880" y1="1045" x2="1040" y2="1045" stroke="#e94560" stroke-width="3" opacity="0.6"/>
</svg>