<?xml version="1.0" encoding="UTF-8"?>
<svg width="1920" height="1080" xmlns="http://www.w3.org/2000/svg">
  <defs>
    <linearGradient id="bg" x1="0%" y1="0%" x2="100%" y2="100%">
      <stop offset="0%" style="stop-color:#1a1a2e;stop-opacity:1" />
      <stop offset="100%" style="stop-color:#0f0f1a;stop-opacity:1" />
    </linearGradient>
  </defs>
  <rect width="100%" height="100%" fill="url(#bg)"/>
  <circle cx="1920" cy="0" r="600" fill="#e94560" opacity="0.1"/>
  <circle cx="0" cy="1080" r="400" fill="#e94560" opacity="0.1"/>
  <rect width="1920" height="15" fill="#e94560"/>
  <path d="M22.80-11.37L29.84-11.37Q29.44-5.86 25.77-2.70Q22.10 0.47 16.10 0.47L16.10 0.47Q9.54 0.47 5.78-3.95Q2.02-8.37 2.02-16.08L2.02-16.08L2.02-18.16Q2.02-23.09 3.75-26.84Q5.48-30.59 8.71-32.59Q11.93-34.59 16.20-34.59L16.20-34.59Q22.10-34.59 25.71-31.43Q29.32-28.27 29.88-22.55L29.88-22.55L22.85-22.55Q22.59-25.85 21.01-27.34Q19.43-28.83 16.20-28.83L16.20-28.83Q12.68-28.83 10.93-26.31Q9.19-23.79 9.14-18.49L9.14-18.49L9.14-15.91Q9.14-10.38 10.82-7.83Q12.49-5.27 16.10-5.27L16.10-5.27Q19.36-5.27 20.96-6.76Q22.57-8.25 22.80-11.37L22.80-11.37ZM40.62-36L40.62-22.59Q43.31-25.83 47.39-25.83L47.39-25.83Q55.64-25.83 55.76-16.24L55.76-16.24L55.76 0L48.98 0L48.98-16.05Q48.98-18.23 48.05-19.28Q47.11-20.32 44.93-20.32L44.93-20.32Q41.95-20.32 40.62-18.02L40.62-18.02L40.62 0L33.84 0L33.84-36L40.62-36ZM82.41 0L75.56 0Q75.09-0.91 74.88-2.27L74.88-2.27Q72.42 0.47 68.48 0.47L68.48 0.47Q64.76 0.47 62.31-1.69Q59.86-3.84 59.86-7.13L59.86-7.13Q59.86-11.16 62.85-13.31Q65.84-15.47 71.48-15.49L71.48-15.49L74.60-15.49L74.60-16.95Q74.60-18.70 73.70-19.76Q72.80-20.81 70.85-20.81L70.85-20.81Q69.14-20.81 68.17-19.99Q67.20-19.17 67.20-17.74L67.20-17.74L60.42-17.74Q60.42-19.95 61.78-21.82Q63.14-23.70 65.63-24.76Q68.11-25.83 71.20-25.83L71.20-25.83Q75.89-25.83 78.64-23.47Q81.40-21.12 81.40-16.85L81.40-16.85L81.40-5.86Q81.42-2.25 82.41-0.40L82.41-0.40L82.41 0ZM69.96-4.71L69.96-4.71Q71.46-4.71 72.73-5.38Q73.99-6.05 74.60-7.17L74.60-7.17L74.60-11.53L72.07-11.53Q66.98-11.53 66.66-8.02L66.66-8.02L66.63-7.62Q66.63-6.35 67.52-5.53Q68.41-4.71 69.96-4.71ZM86.46-25.36L92.84-25.36L93.05-22.43Q95.77-25.83 100.34-25.83L100.34-25.83Q104.37-25.83 106.34-23.46Q108.30-21.09 108.35-16.38L108.35-16.38L108.35 0L101.58 0L101.58-16.22Q101.58-18.38 100.64-19.35Q99.70-20.32 97.52-20.32L97.52-20.32Q94.66-20.32 93.23-17.88L93.23-17.88L93.23 0L86.46 0L86.46-25.36ZM133.69-11.37L140.72-11.37Q140.32-5.86 136.65-2.70Q132.98 0.47 126.98 0.47L126.98 0.47Q120.42 0.47 116.66-3.95Q112.90-8.37 112.90-16.08L112.90-16.08L112.90-18.16Q112.90-23.09 114.63-26.84Q116.37-30.59 119.59-32.59Q122.81-34.59 127.08-34.59L127.08-34.59Q132.98-34.59 136.59-31.43Q140.20-28.27 140.77-22.55L140.77-22.55L133.73-22.55Q133.48-25.85 131.89-27.34Q130.31-28.83 127.08-28.83L127.08-28.83Q123.56-28.83 121.82-26.31Q120.07-23.79 120.02-18.49L120.02-18.49L120.02-15.91Q120.02-10.38 121.70-7.83Q123.38-5.27 126.98-5.27L126.98-5.27Q130.24-5.27 131.85-6.76Q133.45-8.25 133.69-11.37L133.69-11.37ZM152.04-36L152.04 0L145.24 0L145.24-36L152.04-36ZM179.16 0L172.31 0Q171.84-0.91 171.63-2.27L171.63-2.27Q169.17 0.47 165.23 0.47L165.23 0.47Q161.51 0.47 159.06-1.69Q156.61-3.84 156.61-7.13L156.61-7.13Q156.61-11.16 159.60-13.31Q162.59-15.47 168.23-15.49L168.23-15.49L171.35-15.49L171.35-16.95Q171.35-18.70 170.45-19.76Q169.55-20.81 167.60-20.81L167.60-20.81Q165.89-20.81 164.92-19.99Q163.95-19.17 163.95-17.74L163.95-17.74L157.17-17.74Q157.17-19.95 158.53-21.82Q159.89-23.70 162.38-24.76Q164.86-25.83 167.95-25.83L167.95-25.83Q172.64-25.83 175.39-23.47Q178.15-21.12 178.15-16.85L178.15-16.85L178.15-5.86Q178.17-2.25 179.16-0.40L179.16-0.40L179.16 0ZM166.71-4.71L166.71-4.71Q168.21-4.71 169.48-5.38Q170.74-6.05 171.35-7.17L171.35-7.17L171.35-11.53L168.82-11.53Q163.73-11.53 163.41-8.02L163.41-8.02L163.38-7.62Q163.38-6.35 164.27-5.53Q165.16-4.71 166.71-4.71ZM200.79-25.36L205.41-9.21L208.73-25.36L215.27-25.36L208.80 0L203.13 0L198.33-15.96L193.52 0L187.88 0L181.41-25.36L187.95-25.36L191.25-9.23L195.89-25.36L200.79-25.36Z" transform="translate(60, 85)" fill="#e94560" />
  <text x="1860" y="85" font-family="Arial" font-size="28" fill="#888" text-anchor="end">SLIDE 9/10</text>
  <path d="M34.57-14.92L34.57-14.92Q34.57-18.24 32.23-20.02Q29.88-21.80 23.79-23.77Q17.70-25.74 14.14-27.66L14.14-27.66Q4.45-32.89 4.45-41.76L4.45-41.76Q4.45-46.37 7.05-49.98Q9.65-53.59 14.51-55.63Q19.38-57.66 25.43-57.66L25.43-57.66Q31.52-57.66 36.29-55.45Q41.05-53.24 43.69-49.22Q46.33-45.20 46.33-40.08L46.33-40.08L34.61-40.08Q34.61-43.98 32.15-46.15Q29.69-48.32 25.23-48.32L25.23-48.32Q20.94-48.32 18.55-46.50Q16.17-44.69 16.17-41.72L16.17-41.72Q16.17-38.95 18.96-37.07Q21.76-35.20 27.19-33.55L27.19-33.55Q37.19-30.55 41.76-26.09Q46.33-21.64 46.33-15L46.33-15Q46.33-7.62 40.74-3.42Q35.16 0.78 25.70 0.78L25.70 0.78Q19.14 0.78 13.75-1.62Q8.36-4.02 5.53-8.20Q2.70-12.38 2.70-17.89L2.70-17.89L14.45-17.89Q14.45-8.48 25.70-8.48L25.70-8.48Q29.88-8.48 32.23-10.18Q34.57-11.88 34.57-14.92ZM79.14 0L78.83-4.30Q74.65 0.78 67.27 0.78L67.27 0.78Q60.47 0.78 56.89-3.13Q53.32-7.03 53.24-14.57L53.24-14.57L53.24-42.27L64.53-42.27L64.53-14.96Q64.53-8.36 70.55-8.36L70.55-8.36Q76.29-8.36 78.44-12.34L78.44-12.34L78.44-42.27L89.77-42.27L89.77 0L79.14 0ZM98.28-42.27L108.87-42.27L109.22-37.54Q113.71-43.05 121.37-43.05L121.37-43.05Q129.53-43.05 132.58-36.60L132.58-36.60Q137.03-43.05 145.27-43.05L145.27-43.05Q152.15-43.05 155.51-39.04Q158.87-35.04 158.87-26.99L158.87-26.99L158.87 0L147.54 0L147.54-26.95Q147.54-30.55 146.13-32.21Q144.73-33.87 141.17-33.87L141.17-33.87Q136.09-33.87 134.14-29.02L134.14-29.02L134.18 0L122.89 0L122.89-26.91Q122.89-30.59 121.45-32.23Q120-33.87 116.52-33.87L116.52-33.87Q111.72-33.87 109.57-29.88L109.57-29.88L109.57 0L98.28 0L98.28-42.27ZM167.54-42.27L178.13-42.27L178.48-37.54Q182.97-43.05 190.63-43.05L190.63-43.05Q198.79-43.05 201.84-36.60L201.84-36.60Q206.29-43.05 214.53-43.05L214.53-43.05Q221.41-43.05 224.77-39.04Q228.13-35.04 228.13-26.99L228.13-26.99L228.13 0L216.80 0L216.80-26.95Q216.80-30.55 215.39-32.21Q213.98-33.87 210.43-33.87L210.43-33.87Q205.35-33.87 203.40-29.02L203.40-29.02L203.44 0L192.15 0L192.15-26.91Q192.15-30.59 190.70-32.23Q189.26-33.87 185.78-33.87L185.78-33.87Q180.98-33.87 178.83-29.88L178.83-29.88L178.83 0L167.54 0L167.54-42.27ZM272.70 0L261.29 0Q260.51-1.52 260.16-3.79L260.16-3.79Q256.05 0.78 249.49 0.78L249.49 0.78Q243.28 0.78 239.20-2.81Q235.12-6.41 235.12-11.88L235.12-11.88Q235.12-18.59 240.10-22.19Q245.08-25.78 254.49-25.82L254.49-25.82L259.69-25.82L259.69-28.24Q259.69-31.17 258.18-32.93Q256.68-34.69 253.44-34.69L253.44-34.69Q250.59-34.69 248.96-33.32Q247.34-31.95 247.34-29.57L247.34-29.57L236.05-29.57Q236.05-33.24 238.32-36.37Q240.59-39.49 244.73-41.27Q248.87-43.05 254.02-43.05L254.02-43.05Q261.84-43.05 266.43-39.12Q271.02-35.20 271.02-28.09L271.02-28.09L271.02-9.77Q271.05-3.75 272.70-0.66L272.70-0.66L272.70 0ZM251.95-7.85L251.95-7.85Q254.45-7.85 256.56-8.96Q258.67-10.08 259.69-11.95L259.69-11.95L259.69-19.22L255.47-19.22Q246.99-19.22 246.45-13.36L246.45-13.36L246.41-12.70Q246.41-10.59 247.89-9.22Q249.38-7.85 251.95-7.85ZM303.59-42.54L303.44-31.68Q301.13-31.99 299.38-31.99L299.38-31.99Q292.97-31.99 290.98-27.66L290.98-27.66L290.98 0L279.69 0L279.69-42.27L290.35-42.27L290.66-37.23Q294.06-43.05 300.08-43.05L300.08-43.05Q301.95-43.05 303.59-42.54L303.59-42.54ZM316.80-42.27L324.65-15.98L332.46-42.27L344.57-42.27L327.58 6.56L326.64 8.79Q322.85 17.07 314.14 17.07L314.14 17.07Q311.68 17.07 309.14 16.33L309.14 16.33L309.14 7.77L310.86 7.81Q314.06 7.81 315.64 6.84Q317.23 5.86 318.13 3.59L318.13 3.59L319.45 0.12L304.65-42.27L316.80-42.27Z" transform="translate(787.65625, 420)" fill="#ffffff" />
  <line x1="660" y1="480" x2="1260" y2="480" stroke="#e94560" stroke-width="6"/>
  <circle cx="620" cy="535" r="8" fill="#e94560" /><path d="M6.46-28.44L12.34-15.63L18.26-28.44L24.67-28.44L15.33-10.31L15.33 0L9.38 0L9.38-10.31L0.04-28.44L6.46-28.44ZM26.02-10.51L26.02-10.76Q26.02-13.91 27.23-16.37Q28.44-18.83 30.71-20.18Q32.99-21.52 36.00-21.52L36.00-21.52Q40.27-21.52 42.98-18.91Q45.68-16.29 46.00-11.80L46.00-11.80L46.04-10.35Q46.04-5.49 43.32-2.55Q40.61 0.39 36.04 0.39Q31.46 0.39 28.74-2.54Q26.02-5.47 26.02-10.51L26.02-10.51ZM31.66-10.35L31.66-10.35Q31.66-7.34 32.79-5.75Q33.93-4.16 36.04-4.16L36.04-4.16Q38.09-4.16 39.24-5.73Q40.39-7.30 40.39-10.76L40.39-10.76Q40.39-13.71 39.24-15.33Q38.09-16.95 36.00-16.95L36.00-16.95Q33.93-16.95 32.79-15.34Q31.66-13.73 31.66-10.35ZM62.32 0L62.17-2.15Q60.08 0.39 56.39 0.39L56.39 0.39Q52.99 0.39 51.20-1.56Q49.41-3.52 49.38-7.29L49.38-7.29L49.38-21.13L55.02-21.13L55.02-7.48Q55.02-4.18 58.03-4.18L58.03-4.18Q60.90-4.18 61.97-6.17L61.97-6.17L61.97-21.13L67.64-21.13L67.64 0L62.32 0ZM83.85-21.27L83.77-15.84Q82.62-16.00 81.74-16.00L81.74-16.00Q78.54-16.00 77.54-13.83L77.54-13.83L77.54 0L71.89 0L71.89-21.13L77.23-21.13L77.38-18.61Q79.08-21.52 82.09-21.52L82.09-21.52Q83.03-21.52 83.85-21.27L83.85-21.27ZM114.84 0L112.87-5.86L102.60-5.86L100.64 0L94.41 0L105-28.44L110.43-28.44L121.07 0L114.84 0ZM107.71-21.25L104.18-10.61L111.29-10.61L107.71-21.25ZM129.96-28.44L129.96 0L124.10 0L124.10-28.44L129.96-28.44ZM136.48 7.13L136.48 7.13L133.54 5.59L134.24 4.32Q135.55 1.93 135.59-0.43L135.59-0.43L135.59-4.80L140.35-4.80L140.33-0.90Q140.31 1.27 139.24 3.48Q138.16 5.68 136.48 7.13ZM153.87-10.51L153.87-10.76Q153.87-13.91 155.08-16.37Q156.29-18.83 158.56-20.18Q160.84-21.52 163.85-21.52L163.85-21.52Q168.13-21.52 170.83-18.91Q173.54-16.29 173.85-11.80L173.85-11.80L173.89-10.35Q173.89-5.49 171.17-2.55Q168.46 0.39 163.89 0.39Q159.32 0.39 156.59-2.54Q153.87-5.47 153.87-10.51L153.87-10.51ZM159.51-10.35L159.51-10.35Q159.51-7.34 160.64-5.75Q161.78-4.16 163.89-4.16L163.89-4.16Q165.94-4.16 167.09-5.73Q168.24-7.30 168.24-10.76L168.24-10.76Q168.24-13.71 167.09-15.33Q165.94-16.95 163.85-16.95L163.85-16.95Q161.78-16.95 160.64-15.34Q159.51-13.73 159.51-10.35ZM177.25-21.13L182.56-21.13L182.73-18.69Q185-21.52 188.81-21.52L188.81-21.52Q192.17-21.52 193.81-19.55Q195.45-17.58 195.49-13.65L195.49-13.65L195.49 0L189.84 0L189.84-13.52Q189.84-15.31 189.06-16.12Q188.28-16.93 186.46-16.93L186.46-16.93Q184.08-16.93 182.89-14.90L182.89-14.90L182.89 0L177.25 0L177.25-21.13ZM213.69-21.13L217.62-7.99L221.52-21.13L227.58-21.13L219.08 3.28L218.61 4.39Q216.72 8.54 212.36 8.54L212.36 8.54Q211.13 8.54 209.86 8.16L209.86 8.16L209.86 3.89L210.72 3.91Q212.32 3.91 213.12 3.42Q213.91 2.93 214.36 1.80L214.36 1.80L215.02 0.06L207.62-21.13L213.69-21.13ZM228.93-10.51L228.93-10.76Q228.93-13.91 230.14-16.37Q231.35-18.83 233.62-20.18Q235.90-21.52 238.91-21.52L238.91-21.52Q243.18-21.52 245.89-18.91Q248.59-16.29 248.91-11.80L248.91-11.80L248.95-10.35Q248.95-5.49 246.23-2.55Q243.52 0.39 238.95 0.39Q234.38 0.39 231.65-2.54Q228.93-5.47 228.93-10.51L228.93-10.51ZM234.57-10.35L234.57-10.35Q234.57-7.34 235.70-5.75Q236.84-4.16 238.95-4.16L238.95-4.16Q241.00-4.16 242.15-5.73Q243.30-7.30 243.30-10.76L243.30-10.76Q243.30-13.71 242.15-15.33Q241.00-16.95 238.91-16.95L238.91-16.95Q236.84-16.95 235.70-15.34Q234.57-13.73 234.57-10.35ZM265.23 0L265.08-2.15Q262.99 0.39 259.30 0.39L259.30 0.39Q255.90 0.39 254.11-1.56Q252.32-3.52 252.29-7.29L252.29-7.29L252.29-21.13L257.93-21.13L257.93-7.48Q257.93-4.18 260.94-4.18L260.94-4.18Q263.81-4.18 264.88-6.17L264.88-6.17L264.88-21.13L270.55-21.13L270.55 0L265.23 0ZM286.76-21.27L286.68-15.84Q285.53-16.00 284.65-16.00L284.65-16.00Q281.45-16.00 280.45-13.83L280.45-13.83L280.45 0L274.80 0L274.80-21.13L280.14-21.13L280.29-18.61Q281.99-21.52 285-21.52L285-21.52Q285.94-21.52 286.76-21.27L286.76-21.27ZM300.47-26.33L306.11-26.33L306.11-21.13L309.73-21.13L309.73-16.99L306.11-16.99L306.11-6.45Q306.11-5.27 306.56-4.77Q307.01-4.26 308.28-4.26L308.28-4.26Q309.22-4.26 309.94-4.39L309.94-4.39L309.94-0.12Q308.28 0.39 306.52 0.39L306.52 0.39Q300.59 0.39 300.47-5.61L300.47-5.61L300.47-16.99L297.38-16.99L297.38-21.13L300.47-21.13L300.47-26.33ZM322.60 0.39L322.60 0.39Q317.95 0.39 315.03-2.46Q312.11-5.31 312.11-10.06L312.11-10.06L312.11-10.61Q312.11-13.79 313.34-16.30Q314.57-18.81 316.83-20.17Q319.08-21.52 321.97-21.52L321.97-21.52Q326.31-21.52 328.80-18.79Q331.29-16.05 331.29-11.04L331.29-11.04L331.29-8.73L317.83-8.73Q318.11-6.66 319.48-5.41Q320.86-4.16 322.97-4.16L322.97-4.16Q326.23-4.16 328.07-6.52L328.07-6.52L330.84-3.42Q329.57-1.62 327.40-0.62Q325.23 0.39 322.60 0.39ZM321.95-16.95L321.95-16.95Q320.27-16.95 319.23-15.82Q318.18-14.69 317.89-12.58L317.89-12.58L325.74-12.58L325.74-13.03Q325.70-14.90 324.73-15.93Q323.75-16.95 321.95-16.95ZM346.45-21.27L346.37-15.84Q345.21-16.00 344.34-16.00L344.34-16.00Q341.13-16.00 340.14-13.83L340.14-13.83L340.14 0L334.49 0L334.49-21.13L339.82-21.13L339.98-18.61Q341.68-21.52 344.69-21.52L344.69-21.52Q345.63-21.52 346.45-21.27L346.45-21.27ZM349.08-21.13L354.38-21.13L354.55-18.77Q356.80-21.52 360.63-21.52L360.63-21.52Q364.71-21.52 366.23-18.30L366.23-18.30Q368.46-21.52 372.58-21.52L372.58-21.52Q376.02-21.52 377.70-19.52Q379.38-17.52 379.38-13.50L379.38-13.50L379.38 0L373.71 0L373.71-13.48Q373.71-15.27 373.01-16.10Q372.30-16.93 370.53-16.93L370.53-16.93Q367.99-16.93 367.01-14.51L367.01-14.51L367.03 0L361.39 0L361.39-13.46Q361.39-15.29 360.66-16.11Q359.94-16.93 358.20-16.93L358.20-16.93Q355.80-16.93 354.73-14.94L354.73-14.94L354.73 0L349.08 0L349.08-21.13ZM395.16-5.84L395.16-5.84Q395.16-6.88 394.13-7.47Q393.11-8.07 390.84-8.54L390.84-8.54Q383.30-10.12 383.30-14.94L383.30-14.94Q383.30-17.75 385.63-19.64Q387.97-21.52 391.74-21.52L391.74-21.52Q395.76-21.52 398.17-19.63Q400.59-17.73 400.59-14.71L400.59-14.71L394.94-14.71Q394.94-15.92 394.16-16.71Q393.38-17.50 391.72-17.50L391.72-17.50Q390.29-17.50 389.51-16.86Q388.73-16.21 388.73-15.21L388.73-15.21Q388.73-14.28 389.62-13.70Q390.51-13.13 392.62-12.71Q394.73-12.29 396.17-11.76L396.17-11.76Q400.64-10.12 400.64-6.07L400.64-6.07Q400.64-3.18 398.16-1.40Q395.68 0.39 391.76 0.39L391.76 0.39Q389.10 0.39 387.04-0.56Q384.98-1.50 383.81-3.15Q382.64-4.80 382.64-6.72L382.64-6.72L387.99-6.72Q388.07-5.21 389.10-4.41Q390.14-3.61 391.88-3.61L391.88-3.61Q393.50-3.61 394.33-4.23Q395.16-4.84 395.16-5.84Z" transform="translate(660, 535)" fill="#ffffff" /><circle cx="620" cy="605" r="8" fill="#e94560" /><path d="M13.54-10.02L8.40-10.02L8.40 0L2.54 0L2.54-28.44L13.63-28.44Q16.84-28.44 19.27-27.27Q21.70-26.09 23.01-23.94Q24.32-21.78 24.32-19.02L24.32-19.02Q24.32-14.84 21.46-12.43Q18.59-10.02 13.54-10.02L13.54-10.02ZM8.40-23.69L8.40-14.77L13.63-14.77Q15.96-14.77 17.18-15.86Q18.40-16.95 18.40-18.98L18.40-18.98Q18.40-21.07 17.17-22.36Q15.94-23.65 13.77-23.69L13.77-23.69L8.40-23.69ZM39.92-21.27L39.84-15.84Q38.69-16.00 37.81-16.00L37.81-16.00Q34.61-16.00 33.61-13.83L33.61-13.83L33.61 0L27.97 0L27.97-21.13L33.30-21.13L33.46-18.61Q35.16-21.52 38.16-21.52L38.16-21.52Q39.10-21.52 39.92-21.27L39.92-21.27ZM48.52-21.13L48.52 0L42.85 0L42.85-21.13L48.52-21.13ZM42.52-26.60L42.52-26.60Q42.52-27.87 43.37-28.69Q44.22-29.51 45.68-29.51L45.68-29.51Q47.13-29.51 47.99-28.69Q48.85-27.87 48.85-26.60L48.85-26.60Q48.85-25.31 47.98-24.49Q47.11-23.67 45.68-23.67Q44.26-23.67 43.39-24.49Q42.52-25.31 42.52-26.60ZM57.15-21.13L61.07-6.89L65-21.13L70.90-21.13L63.77 0L58.38 0L51.25-21.13L57.15-21.13ZM91.33 0L85.63 0Q85.23-0.76 85.06-1.89L85.06-1.89Q83.01 0.39 79.73 0.39L79.73 0.39Q76.62 0.39 74.58-1.41Q72.54-3.20 72.54-5.94L72.54-5.94Q72.54-9.30 75.03-11.09Q77.52-12.89 82.23-12.91L82.23-12.91L84.82-12.91L84.82-14.12Q84.82-15.59 84.07-16.46Q83.32-17.34 81.70-17.34L81.70-17.34Q80.27-17.34 79.46-16.66Q78.65-15.98 78.65-14.79L78.65-14.79L73.01-14.79Q73.01-16.62 74.14-18.18Q75.27-19.75 77.34-20.63Q79.41-21.52 81.99-21.52L81.99-21.52Q85.90-21.52 88.19-19.56Q90.49-17.60 90.49-14.04L90.49-14.04L90.49-4.88Q90.51-1.88 91.33-0.33L91.33-0.33L91.33 0ZM80.96-3.93L80.96-3.93Q82.21-3.93 83.26-4.48Q84.32-5.04 84.82-5.98L84.82-5.98L84.82-9.61L82.71-9.61Q78.48-9.61 78.20-6.68L78.20-6.68L78.18-6.35Q78.18-5.29 78.93-4.61Q79.67-3.93 80.96-3.93ZM103.61-4.16L103.61-4.16Q105.18-4.16 106.15-5.02Q107.13-5.88 107.17-7.30L107.17-7.30L112.46-7.30Q112.44-5.16 111.29-3.37Q110.14-1.58 108.13-0.60Q106.13 0.39 103.71 0.39L103.71 0.39Q99.18 0.39 96.56-2.49Q93.95-5.37 93.95-10.45L93.95-10.45L93.95-10.82Q93.95-15.70 96.54-18.61Q99.14-21.52 103.67-21.52L103.67-21.52Q107.64-21.52 110.03-19.27Q112.42-17.01 112.46-13.26L112.46-13.26L107.17-13.26Q107.13-14.90 106.15-15.93Q105.18-16.95 103.57-16.95L103.57-16.95Q101.60-16.95 100.60-15.52Q99.59-14.08 99.59-10.86L99.59-10.86L99.59-10.27Q99.59-7.01 100.59-5.59Q101.58-4.16 103.61-4.16ZM119.65-21.13L123.57-7.99L127.48-21.13L133.54-21.13L125.04 3.28L124.57 4.39Q122.68 8.54 118.32 8.54L118.32 8.54Q117.09 8.54 115.82 8.16L115.82 8.16L115.82 3.89L116.68 3.91Q118.28 3.91 119.07 3.42Q119.86 2.93 120.31 1.80L120.31 1.80L120.98 0.06L113.57-21.13L119.65-21.13ZM146.74-14.45L146.74-9.90L135.74-9.90L135.74-14.45L146.74-14.45ZM158.30 0L152.64 0L152.64-16.99L149.49-16.99L149.49-21.13L152.64-21.13L152.64-22.11Q152.68-26.09 155.09-28.25Q157.50-30.41 161.89-30.41L161.89-30.41Q164.53-30.41 168.30-29.26L168.30-29.26L167.48-24.59Q165.57-25.16 164.51-25.32Q163.46-25.49 162.25-25.49L162.25-25.49Q158.30-25.49 158.30-21.99L158.30-21.99L158.30-21.13L162.46-21.13L162.46-16.99L158.30-16.99L158.30 0ZM170.94-21.13L170.94 0L165.27 0L165.27-21.13L170.94-21.13ZM187.56-21.27L187.48-15.84Q186.33-16.00 185.45-16.00L185.45-16.00Q182.25-16.00 181.25-13.83L181.25-13.83L181.25 0L175.61 0L175.61-21.13L180.94-21.13L181.09-18.61Q182.79-21.52 185.80-21.52L185.80-21.52Q186.74-21.52 187.56-21.27L187.56-21.27ZM201.64-5.84L201.64-5.84Q201.64-6.88 200.62-7.47Q199.59-8.07 197.32-8.54L197.32-8.54Q189.79-10.12 189.79-14.94L189.79-14.94Q189.79-17.75 192.12-19.64Q194.45-21.52 198.22-21.52L198.22-21.52Q202.25-21.52 204.66-19.63Q207.07-17.73 207.07-14.71L207.07-14.71L201.43-14.71Q201.43-15.92 200.64-16.71Q199.86-17.50 198.20-17.50L198.20-17.50Q196.78-17.50 196.00-16.86Q195.21-16.21 195.21-15.21L195.21-15.21Q195.21-14.28 196.10-13.70Q196.99-13.13 199.10-12.71Q201.21-12.29 202.66-11.76L202.66-11.76Q207.13-10.12 207.13-6.07L207.13-6.07Q207.13-3.18 204.65-1.40Q202.17 0.39 198.24 0.39L198.24 0.39Q195.59 0.39 193.53-0.56Q191.46-1.50 190.29-3.15Q189.12-4.80 189.12-6.72L189.12-6.72L194.47-6.72Q194.55-5.21 195.59-4.41Q196.62-3.61 198.36-3.61L198.36-3.61Q199.98-3.61 200.81-4.23Q201.64-4.84 201.64-5.84ZM211.88-26.33L217.52-26.33L217.52-21.13L221.13-21.13L221.13-16.99L217.52-16.99L217.52-6.45Q217.52-5.27 217.97-4.77Q218.42-4.26 219.69-4.26L219.69-4.26Q220.63-4.26 221.35-4.39L221.35-4.39L221.35-0.12Q219.69 0.39 217.93 0.39L217.93 0.39Q211.99 0.39 211.88-5.61L211.88-5.61L211.88-16.99L208.79-16.99L208.79-21.13L211.88-21.13L211.88-26.33ZM233.36-10.72L233.36-10.72Q233.36-15.66 235.58-18.59Q237.79-21.52 241.64-21.52L241.64-21.52Q244.73-21.52 246.74-19.22L246.74-19.22L246.74-30L252.40-30L252.40 0L247.30 0L247.03-2.25Q244.92 0.39 241.60 0.39L241.60 0.39Q237.87 0.39 235.62-2.55Q233.36-5.49 233.36-10.72ZM239.00-10.31L239.00-10.31Q239.00-7.34 240.04-5.76Q241.07-4.18 243.05-4.18L243.05-4.18Q245.66-4.18 246.74-6.39L246.74-6.39L246.74-14.73Q245.68-16.93 243.09-16.93L243.09-16.93Q239.00-16.93 239.00-10.31ZM266.50 0.39L266.50 0.39Q261.86 0.39 258.94-2.46Q256.02-5.31 256.02-10.06L256.02-10.06L256.02-10.61Q256.02-13.79 257.25-16.30Q258.48-18.81 260.73-20.17Q262.99-21.52 265.88-21.52L265.88-21.52Q270.21-21.52 272.71-18.79Q275.20-16.05 275.20-11.04L275.20-11.04L275.20-8.73L261.74-8.73Q262.01-6.66 263.39-5.41Q264.77-4.16 266.88-4.16L266.88-4.16Q270.14-4.16 271.97-6.52L271.97-6.52L274.75-3.42Q273.48-1.62 271.31-0.62Q269.14 0.39 266.50 0.39ZM265.86-16.95L265.86-16.95Q264.18-16.95 263.13-15.82Q262.09-14.69 261.80-12.58L261.80-12.58L269.65-12.58L269.65-13.03Q269.61-14.90 268.63-15.93Q267.66-16.95 265.86-16.95ZM289.84-5.84L289.84-5.84Q289.84-6.88 288.82-7.47Q287.79-8.07 285.53-8.54L285.53-8.54Q277.99-10.12 277.99-14.94L277.99-14.94Q277.99-17.75 280.32-19.64Q282.66-21.52 286.43-21.52L286.43-21.52Q290.45-21.52 292.86-19.63Q295.27-17.73 295.27-14.71L295.27-14.71L289.63-14.71Q289.63-15.92 288.85-16.71Q288.07-17.50 286.41-17.50L286.41-17.50Q284.98-17.50 284.20-16.86Q283.42-16.21 283.42-15.21L283.42-15.21Q283.42-14.28 284.31-13.70Q285.20-13.13 287.30-12.71Q289.41-12.29 290.86-11.76L290.86-11.76Q295.33-10.12 295.33-6.07L295.33-6.07Q295.33-3.18 292.85-1.40Q290.37 0.39 286.45 0.39L286.45 0.39Q283.79 0.39 281.73-0.56Q279.67-1.50 278.50-3.15Q277.32-4.80 277.32-6.72L277.32-6.72L282.68-6.72Q282.75-5.21 283.79-4.41Q284.82-3.61 286.56-3.61L286.56-3.61Q288.18-3.61 289.01-4.23Q289.84-4.84 289.84-5.84ZM304.92-21.13L304.92 0L299.26 0L299.26-21.13L304.92-21.13ZM298.93-26.60L298.93-26.60Q298.93-27.87 299.78-28.69Q300.63-29.51 302.09-29.51L302.09-29.51Q303.54-29.51 304.39-28.69Q305.25-27.87 305.25-26.60L305.25-26.60Q305.25-25.31 304.38-24.49Q303.52-23.67 302.09-23.67Q300.66-23.67 299.79-24.49Q298.93-25.31 298.93-26.60ZM308.75-10.49L308.75-10.72Q308.75-15.59 311.06-18.55Q313.38-21.52 317.30-21.52L317.30-21.52Q320.78-21.52 322.71-19.14L322.71-19.14L322.95-21.13L328.07-21.13L328.07-0.70Q328.07 2.07 326.81 4.12Q325.55 6.17 323.26 7.25Q320.98 8.32 317.91 8.32L317.91 8.32Q315.59 8.32 313.38 7.39Q311.17 6.46 310.04 5L310.04 5L312.54 1.56Q314.65 3.93 317.66 3.93L317.66 3.93Q319.90 3.93 321.15 2.72Q322.40 1.52 322.40-0.68L322.40-0.68L322.40-1.82Q320.45 0.39 317.27 0.39L317.27 0.39Q313.46 0.39 311.10-2.59Q308.75-5.57 308.75-10.49L308.75-10.49ZM314.39-10.31L314.39-10.31Q314.39-7.44 315.55-5.81Q316.70-4.18 318.71-4.18L318.71-4.18Q321.29-4.18 322.40-6.11L322.40-6.11L322.40-15Q321.27-16.93 318.75-16.93L318.75-16.93Q316.72-16.93 315.56-15.27Q314.39-13.61 314.39-10.31ZM332.29-21.13L337.60-21.13L337.77-18.69Q340.04-21.52 343.85-21.52L343.85-21.52Q347.21-21.52 348.85-19.55Q350.49-17.58 350.53-13.65L350.53-13.65L350.53 0L344.88 0L344.88-13.52Q344.88-15.31 344.10-16.12Q343.32-16.93 341.50-16.93L341.50-16.93Q339.12-16.93 337.93-14.90L337.93-14.90L337.93 0L332.29 0L332.29-21.13Z" transform="translate(660, 605)" fill="#ffffff" /><circle cx="620" cy="675" r="8" fill="#e94560" /><path d="M19.65-16.91L19.65-12.32L8.40-12.32L8.40-4.71L21.60-4.71L21.60 0L2.54 0L2.54-28.44L21.56-28.44L21.56-23.69L8.40-23.69L8.40-16.91L19.65-16.91ZM29.24-21.13L32.71-14.82L36.27-21.13L42.30-21.13L36.29-10.78L42.56 0L36.50 0L32.73-6.64L28.98 0L22.91 0L29.18-10.78L23.18-21.13L29.24-21.13ZM46.13-26.33L51.78-26.33L51.78-21.13L55.39-21.13L55.39-16.99L51.78-16.99L51.78-6.45Q51.78-5.27 52.23-4.77Q52.68-4.26 53.95-4.26L53.95-4.26Q54.88-4.26 55.61-4.39L55.61-4.39L55.61-0.12Q53.95 0.39 52.19 0.39L52.19 0.39Q46.25 0.39 46.13-5.61L46.13-5.61L46.13-16.99L43.05-16.99L43.05-21.13L46.13-21.13L46.13-26.33ZM68.26 0.39L68.26 0.39Q63.61 0.39 60.69-2.46Q57.77-5.31 57.77-10.06L57.77-10.06L57.77-10.61Q57.77-13.79 59.00-16.30Q60.23-18.81 62.49-20.17Q64.75-21.52 67.64-21.52L67.64-21.52Q71.97-21.52 74.46-18.79Q76.95-16.05 76.95-11.04L76.95-11.04L76.95-8.73L63.50-8.73Q63.77-6.66 65.15-5.41Q66.52-4.16 68.63-4.16L68.63-4.16Q71.89-4.16 73.73-6.52L73.73-6.52L76.50-3.42Q75.23-1.62 73.07-0.62Q70.90 0.39 68.26 0.39ZM67.62-16.95L67.62-16.95Q65.94-16.95 64.89-15.82Q63.85-14.69 63.55-12.58L63.55-12.58L71.41-12.58L71.41-13.03Q71.37-14.90 70.39-15.93Q69.41-16.95 67.62-16.95ZM80.04-21.13L85.35-21.13L85.53-18.69Q87.79-21.52 91.60-21.52L91.60-21.52Q94.96-21.52 96.60-19.55Q98.24-17.58 98.28-13.65L98.28-13.65L98.28 0L92.64 0L92.64-13.52Q92.64-15.31 91.86-16.12Q91.07-16.93 89.26-16.93L89.26-16.93Q86.88-16.93 85.68-14.90L85.68-14.90L85.68 0L80.04 0L80.04-21.13ZM114.00-5.84L114.00-5.84Q114.00-6.88 112.98-7.47Q111.95-8.07 109.69-8.54L109.69-8.54Q102.15-10.12 102.15-14.94L102.15-14.94Q102.15-17.75 104.48-19.64Q106.82-21.52 110.59-21.52L110.59-21.52Q114.61-21.52 117.02-19.63Q119.43-17.73 119.43-14.71L119.43-14.71L113.79-14.71Q113.79-15.92 113.01-16.71Q112.23-17.50 110.57-17.50L110.57-17.50Q109.14-17.50 108.36-16.86Q107.58-16.21 107.58-15.21L107.58-15.21Q107.58-14.28 108.47-13.70Q109.36-13.13 111.46-12.71Q113.57-12.29 115.02-11.76L115.02-11.76Q119.49-10.12 119.49-6.07L119.49-6.07Q119.49-3.18 117.01-1.40Q114.53 0.39 110.61 0.39L110.61 0.39Q107.95 0.39 105.89-0.56Q103.83-1.50 102.66-3.15Q101.48-4.80 101.48-6.72L101.48-6.72L106.84-6.72Q106.91-5.21 107.95-4.41Q108.98-3.61 110.72-3.61L110.72-3.61Q112.34-3.61 113.17-4.23Q114.00-4.84 114.00-5.84ZM129.08-21.13L129.08 0L123.42 0L123.42-21.13L129.08-21.13ZM123.09-26.60L123.09-26.60Q123.09-27.87 123.94-28.69Q124.79-29.51 126.25-29.51L126.25-29.51Q127.70-29.51 128.55-28.69Q129.41-27.87 129.41-26.60L129.41-26.60Q129.41-25.31 128.54-24.49Q127.68-23.67 126.25-23.67Q124.82-23.67 123.96-24.49Q123.09-25.31 123.09-26.60ZM152.77-10.68L152.77-10.37Q152.77-5.29 150.61-2.45Q148.44 0.39 144.55 0.39L144.55 0.39Q141.11 0.39 139.06-2.25L139.06-2.25L138.81 0L133.73 0L133.73-30L139.38-30L139.38-19.24Q141.33-21.52 144.51-21.52L144.51-21.52Q148.38-21.52 150.58-18.68Q152.77-15.84 152.77-10.68L152.77-10.68ZM147.13-10.78L147.13-10.78Q147.13-13.98 146.11-15.46Q145.10-16.93 143.09-16.93L143.09-16.93Q140.39-16.93 139.38-14.73L139.38-14.73L139.38-6.39Q140.41-4.16 143.13-4.16L143.13-4.16Q145.86-4.16 146.72-6.86L146.72-6.86Q147.13-8.14 147.13-10.78ZM162.21-30L162.21 0L156.54 0L156.54-30L162.21-30ZM176.58 0.39L176.58 0.39Q171.93 0.39 169.01-2.46Q166.09-5.31 166.09-10.06L166.09-10.06L166.09-10.61Q166.09-13.79 167.32-16.30Q168.55-18.81 170.81-20.17Q173.07-21.52 175.96-21.52L175.96-21.52Q180.29-21.52 182.78-18.79Q185.27-16.05 185.27-11.04L185.27-11.04L185.27-8.73L171.82-8.73Q172.09-6.66 173.47-5.41Q174.84-4.16 176.95-4.16L176.95-4.16Q180.21-4.16 182.05-6.52L182.05-6.52L184.82-3.42Q183.55-1.62 181.39-0.62Q179.22 0.39 176.58 0.39ZM175.94-16.95L175.94-16.95Q174.26-16.95 173.21-15.82Q172.17-14.69 171.88-12.58L171.88-12.58L179.73-12.58L179.73-13.03Q179.69-14.90 178.71-15.93Q177.73-16.95 175.94-16.95ZM202.42-21.13L206.35-6.89L210.27-21.13L216.17-21.13L209.04 0L203.65 0L196.52-21.13L202.42-21.13ZM224.61-21.13L224.61 0L218.95 0L218.95-21.13L224.61-21.13ZM218.61-26.60L218.61-26.60Q218.61-27.87 219.46-28.69Q220.31-29.51 221.78-29.51L221.78-29.51Q223.22-29.51 224.08-28.69Q224.94-27.87 224.94-26.60L224.94-26.60Q224.94-25.31 224.07-24.49Q223.20-23.67 221.78-23.67Q220.35-23.67 219.48-24.49Q218.61-25.31 218.61-26.60ZM247.21 0L241.50 0Q241.11-0.76 240.94-1.89L240.94-1.89Q238.89 0.39 235.61 0.39L235.61 0.39Q232.50 0.39 230.46-1.41Q228.42-3.20 228.42-5.94L228.42-5.94Q228.42-9.30 230.91-11.09Q233.40-12.89 238.11-12.91L238.11-12.91L240.70-12.91L240.70-14.12Q240.70-15.59 239.95-16.46Q239.20-17.34 237.58-17.34L237.58-17.34Q236.15-17.34 235.34-16.66Q234.53-15.98 234.53-14.79L234.53-14.79L228.89-14.79Q228.89-16.62 230.02-18.18Q231.15-19.75 233.22-20.63Q235.29-21.52 237.87-21.52L237.87-21.52Q241.78-21.52 244.07-19.56Q246.37-17.60 246.37-14.04L246.37-14.04L246.37-4.88Q246.39-1.88 247.21-0.33L247.21-0.33L247.21 0ZM236.84-3.93L236.84-3.93Q238.09-3.93 239.14-4.48Q240.20-5.04 240.70-5.98L240.70-5.98L240.70-9.61L238.59-9.61Q234.36-9.61 234.08-6.68L234.08-6.68L234.06-6.35Q234.06-5.29 234.80-4.61Q235.55-3.93 236.84-3.93ZM272.11-5.84L272.11-5.84Q272.11-6.88 271.08-7.47Q270.06-8.07 267.79-8.54L267.79-8.54Q260.25-10.12 260.25-14.94L260.25-14.94Q260.25-17.75 262.59-19.64Q264.92-21.52 268.69-21.52L268.69-21.52Q272.71-21.52 275.13-19.63Q277.54-17.73 277.54-14.71L277.54-14.71L271.89-14.71Q271.89-15.92 271.11-16.71Q270.33-17.50 268.67-17.50L268.67-17.50Q267.25-17.50 266.46-16.86Q265.68-16.21 265.68-15.21L265.68-15.21Q265.68-14.28 266.57-13.70Q267.46-13.13 269.57-12.71Q271.68-12.29 273.13-11.76L273.13-11.76Q277.60-10.12 277.60-6.07L277.60-6.07Q277.60-3.18 275.12-1.40Q272.64 0.39 268.71 0.39L268.71 0.39Q266.05 0.39 263.99-0.56Q261.93-1.50 260.76-3.15Q259.59-4.80 259.59-6.72L259.59-6.72L264.94-6.72Q265.02-5.21 266.05-4.41Q267.09-3.61 268.83-3.61L268.83-3.61Q270.45-3.61 271.28-4.23Q272.11-4.84 272.11-5.84ZM294.34 0L288.91-8.48L286.88-6.45L286.88 0L281.23 0L281.23-30L286.88-30L286.88-13.38L287.97-14.79L293.38-21.13L300.16-21.13L292.52-12.32L300.82 0L294.34 0ZM308.55-21.13L308.55 0L302.89 0L302.89-21.13L308.55-21.13ZM302.56-26.60L302.56-26.60Q302.56-27.87 303.41-28.69Q304.26-29.51 305.72-29.51L305.72-29.51Q307.17-29.51 308.03-28.69Q308.89-27.87 308.89-26.60L308.89-26.60Q308.89-25.31 308.02-24.49Q307.15-23.67 305.72-23.67Q304.30-23.67 303.43-24.49Q302.56-25.31 302.56-26.60ZM319.16-30L319.16 0L313.50 0L313.50-30L319.16-30ZM329.77-30L329.77 0L324.10 0L324.10-30L329.77-30ZM345.86-5.84L345.86-5.84Q345.86-6.88 344.83-7.47Q343.81-8.07 341.54-8.54L341.54-8.54Q334.00-10.12 334.00-14.94L334.00-14.94Q334.00-17.75 336.34-19.64Q338.67-21.52 342.44-21.52L342.44-21.52Q346.46-21.52 348.88-19.63Q351.29-17.73 351.29-14.71L351.29-14.71L345.64-14.71Q345.64-15.92 344.86-16.71Q344.08-17.50 342.42-17.50L342.42-17.50Q341.00-17.50 340.21-16.86Q339.43-16.21 339.43-15.21L339.43-15.21Q339.43-14.28 340.32-13.70Q341.21-13.13 343.32-12.71Q345.43-12.29 346.88-11.76L346.88-11.76Q351.35-10.12 351.35-6.07L351.35-6.07Q351.35-3.18 348.87-1.40Q346.39 0.39 342.46 0.39L342.46 0.39Q339.80 0.39 337.74-0.56Q335.68-1.50 334.51-3.15Q333.34-4.80 333.34-6.72L333.34-6.72L338.69-6.72Q338.77-5.21 339.80-4.41Q340.84-3.61 342.58-3.61L342.58-3.61Q344.20-3.61 345.03-4.23Q345.86-4.84 345.86-5.84Z" transform="translate(660, 675)" fill="#ffffff" /><circle cx="620" cy="745" r="8" fill="#e94560" /><path d="M18.40 0L13.07-10.41L8.40-10.41L8.40 0L2.54 0L2.54-28.44L13.11-28.44Q18.14-28.44 20.88-26.19Q23.61-23.95 23.61-19.84L23.61-19.84Q23.61-16.93 22.35-14.99Q21.09-13.05 18.54-11.89L18.54-11.89L24.69-0.27L24.69 0L18.40 0ZM8.40-23.69L8.40-15.16L13.13-15.16Q15.33-15.16 16.54-16.28Q17.75-17.40 17.75-19.38L17.75-19.38Q17.75-21.39 16.61-22.54Q15.47-23.69 13.11-23.69L13.11-23.69L8.40-23.69ZM40.51 0L40.35-2.15Q38.26 0.39 34.57 0.39L34.57 0.39Q31.17 0.39 29.38-1.56Q27.60-3.52 27.56-7.29L27.56-7.29L27.56-21.13L33.20-21.13L33.20-7.48Q33.20-4.18 36.21-4.18L36.21-4.18Q39.08-4.18 40.16-6.17L40.16-6.17L40.16-21.13L45.82-21.13L45.82 0L40.51 0ZM49.96-21.13L55.27-21.13L55.45-18.69Q57.71-21.52 61.52-21.52L61.52-21.52Q64.88-21.52 66.52-19.55Q68.16-17.58 68.20-13.65L68.20-13.65L68.20 0L62.56 0L62.56-13.52Q62.56-15.31 61.78-16.12Q61.00-16.93 59.18-16.93L59.18-16.93Q56.80-16.93 55.61-14.90L55.61-14.90L55.61 0L49.96 0L49.96-21.13ZM83.93-5.84L83.93-5.84Q83.93-6.88 82.90-7.47Q81.88-8.07 79.61-8.54L79.61-8.54Q72.07-10.12 72.07-14.94L72.07-14.94Q72.07-17.75 74.40-19.64Q76.74-21.52 80.51-21.52L80.51-21.52Q84.53-21.52 86.94-19.63Q89.36-17.73 89.36-14.71L89.36-14.71L83.71-14.71Q83.71-15.92 82.93-16.71Q82.15-17.50 80.49-17.50L80.49-17.50Q79.06-17.50 78.28-16.86Q77.50-16.21 77.50-15.21L77.50-15.21Q77.50-14.28 78.39-13.70Q79.28-13.13 81.39-12.71Q83.50-12.29 84.94-11.76L84.94-11.76Q89.41-10.12 89.41-6.07L89.41-6.07Q89.41-3.18 86.93-1.40Q84.45 0.39 80.53 0.39L80.53 0.39Q77.87 0.39 75.81-0.56Q73.75-1.50 72.58-3.15Q71.41-4.80 71.41-6.72L71.41-6.72L76.76-6.72Q76.84-5.21 77.87-4.41Q78.91-3.61 80.64-3.61L80.64-3.61Q82.27-3.61 83.10-4.23Q83.93-4.84 83.93-5.84ZM120.96 0L115.25 0Q114.86-0.76 114.69-1.89L114.69-1.89Q112.64 0.39 109.36 0.39L109.36 0.39Q106.25 0.39 104.21-1.41Q102.17-3.20 102.17-5.94L102.17-5.94Q102.17-9.30 104.66-11.09Q107.15-12.89 111.86-12.91L111.86-12.91L114.45-12.91L114.45-14.12Q114.45-15.59 113.70-16.46Q112.95-17.34 111.33-17.34L111.33-17.34Q109.90-17.34 109.09-16.66Q108.28-15.98 108.28-14.79L108.28-14.79L102.64-14.79Q102.64-16.62 103.77-18.18Q104.90-19.75 106.97-20.63Q109.04-21.52 111.62-21.52L111.62-21.52Q115.53-21.52 117.82-19.56Q120.12-17.60 120.12-14.04L120.12-14.04L120.12-4.88Q120.14-1.88 120.96-0.33L120.96-0.33L120.96 0ZM110.59-3.93L110.59-3.93Q111.84-3.93 112.89-4.48Q113.95-5.04 114.45-5.98L114.45-5.98L114.45-9.61L112.34-9.61Q108.11-9.61 107.83-6.68L107.83-6.68L107.81-6.35Q107.81-5.29 108.55-4.61Q109.30-3.93 110.59-3.93ZM124.34-21.13L129.65-21.13L129.82-18.69Q132.09-21.52 135.90-21.52L135.90-21.52Q139.26-21.52 140.90-19.55Q142.54-17.58 142.58-13.65L142.58-13.65L142.58 0L136.93 0L136.93-13.52Q136.93-15.31 136.15-16.12Q135.37-16.93 133.55-16.93L133.55-16.93Q131.17-16.93 129.98-14.90L129.98-14.90L129.98 0L124.34 0L124.34-21.13ZM150.82-21.13L154.75-7.99L158.65-21.13L164.71-21.13L156.21 3.28L155.74 4.39Q153.85 8.54 149.49 8.54L149.49 8.54Q148.26 8.54 146.99 8.16L146.99 8.16L146.99 3.89L147.85 3.91Q149.45 3.91 150.24 3.42Q151.04 2.93 151.48 1.80L151.48 1.80L152.15 0.06L144.75-21.13L150.82-21.13ZM181.46-21.13L185.31-7.68L188.09-21.13L193.54-21.13L188.14 0L183.42 0L179.41-13.30L175.41 0L170.70 0L165.31-21.13L170.76-21.13L173.52-7.70L177.38-21.13L181.46-21.13ZM201.84-30L201.84-18.83Q204.08-21.52 207.48-21.52L207.48-21.52Q214.36-21.52 214.45-13.54L214.45-13.54L214.45 0L208.81 0L208.81-13.38Q208.81-15.20 208.03-16.06Q207.25-16.93 205.43-16.93L205.43-16.93Q202.95-16.93 201.84-15.02L201.84-15.02L201.84 0L196.19 0L196.19-30L201.84-30ZM228.44 0.39L228.44 0.39Q223.79 0.39 220.87-2.46Q217.95-5.31 217.95-10.06L217.95-10.06L217.95-10.61Q217.95-13.79 219.18-16.30Q220.41-18.81 222.67-20.17Q224.92-21.52 227.81-21.52L227.81-21.52Q232.15-21.52 234.64-18.79Q237.13-16.05 237.13-11.04L237.13-11.04L237.13-8.73L223.67-8.73Q223.95-6.66 225.32-5.41Q226.70-4.16 228.81-4.16L228.81-4.16Q232.07-4.16 233.91-6.52L233.91-6.52L236.68-3.42Q235.41-1.62 233.24-0.62Q231.07 0.39 228.44 0.39ZM227.79-16.95L227.79-16.95Q226.11-16.95 225.07-15.82Q224.02-14.69 223.73-12.58L223.73-12.58L231.58-12.58L231.58-13.03Q231.54-14.90 230.57-15.93Q229.59-16.95 227.79-16.95ZM252.29-21.27L252.21-15.84Q251.05-16.00 250.18-16.00L250.18-16.00Q246.97-16.00 245.98-13.83L245.98-13.83L245.98 0L240.33 0L240.33-21.13L245.66-21.13L245.82-18.61Q247.52-21.52 250.53-21.52L250.53-21.52Q251.46-21.52 252.29-21.27L252.29-21.27ZM264.65 0.39L264.65 0.39Q260 0.39 257.08-2.46Q254.16-5.31 254.16-10.06L254.16-10.06L254.16-10.61Q254.16-13.79 255.39-16.30Q256.62-18.81 258.88-20.17Q261.13-21.52 264.02-21.52L264.02-21.52Q268.36-21.52 270.85-18.79Q273.34-16.05 273.34-11.04L273.34-11.04L273.34-8.73L259.88-8.73Q260.16-6.66 261.53-5.41Q262.91-4.16 265.02-4.16L265.02-4.16Q268.28-4.16 270.12-6.52L270.12-6.52L272.89-3.42Q271.62-1.62 269.45-0.62Q267.29 0.39 264.65 0.39ZM264.00-16.95L264.00-16.95Q262.32-16.95 261.28-15.82Q260.23-14.69 259.94-12.58L259.94-12.58L267.79-12.58L267.79-13.03Q267.75-14.90 266.78-15.93Q265.80-16.95 264.00-16.95ZM290.47-21.13L294.39-7.99L298.30-21.13L304.36-21.13L295.86 3.28L295.39 4.39Q293.50 8.54 289.14 8.54L289.14 8.54Q287.91 8.54 286.64 8.16L286.64 8.16L286.64 3.89L287.50 3.91Q289.10 3.91 289.89 3.42Q290.68 2.93 291.13 1.80L291.13 1.80L291.80 0.06L284.39-21.13L290.47-21.13ZM305.70-10.51L305.70-10.76Q305.70-13.91 306.91-16.37Q308.13-18.83 310.40-20.18Q312.68-21.52 315.68-21.52L315.68-21.52Q319.96-21.52 322.67-18.91Q325.37-16.29 325.68-11.80L325.68-11.80L325.72-10.35Q325.72-5.49 323.01-2.55Q320.29 0.39 315.72 0.39Q311.15 0.39 308.43-2.54Q305.70-5.47 305.70-10.51L305.70-10.51ZM311.35-10.35L311.35-10.35Q311.35-7.34 312.48-5.75Q313.61-4.16 315.72-4.16L315.72-4.16Q317.77-4.16 318.93-5.73Q320.08-7.30 320.08-10.76L320.08-10.76Q320.08-13.71 318.93-15.33Q317.77-16.95 315.68-16.95L315.68-16.95Q313.61-16.95 312.48-15.34Q311.35-13.73 311.35-10.35ZM342.01 0L341.86-2.15Q339.77 0.39 336.07 0.39L336.07 0.39Q332.68 0.39 330.89-1.56Q329.10-3.52 329.06-7.29L329.06-7.29L329.06-21.13L334.71-21.13L334.71-7.48Q334.71-4.18 337.71-4.18L337.71-4.18Q340.59-4.18 341.66-6.17L341.66-6.17L341.66-21.13L347.32-21.13L347.32 0L342.01 0ZM373.50-21.27L373.42-15.84Q372.27-16.00 371.39-16.00L371.39-16.00Q368.18-16.00 367.19-13.83L367.19-13.83L367.19 0L361.54 0L361.54-21.13L366.88-21.13L367.03-18.61Q368.73-21.52 371.74-21.52L371.74-21.52Q372.68-21.52 373.50-21.27L373.50-21.27ZM388.95 0L388.79-2.15Q386.70 0.39 383.01 0.39L383.01 0.39Q379.61 0.39 377.82-1.56Q376.04-3.52 376.00-7.29L376.00-7.29L376.00-21.13L381.64-21.13L381.64-7.48Q381.64-4.18 384.65-4.18L384.65-4.18Q387.52-4.18 388.59-6.17L388.59-6.17L388.59-21.13L394.26-21.13L394.26 0L388.95 0ZM398.40-21.13L403.71-21.13L403.89-18.69Q406.15-21.52 409.96-21.52L409.96-21.52Q413.32-21.52 414.96-19.55Q416.60-17.58 416.64-13.65L416.64-13.65L416.64 0L411.00 0L411.00-13.52Q411.00-15.31 410.21-16.12Q409.43-16.93 407.62-16.93L407.62-16.93Q405.23-16.93 404.04-14.90L404.04-14.90L404.04 0L398.40 0L398.40-21.13ZM437.11-28.44L437.11-4.71L449.55-4.71L449.55 0L431.25 0L431.25-28.44L437.11-28.44ZM458.50-21.13L458.50 0L452.83 0L452.83-21.13L458.50-21.13ZM452.50-26.60L452.50-26.60Q452.50-27.87 453.35-28.69Q454.20-29.51 455.66-29.51L455.66-29.51Q457.11-29.51 457.97-28.69Q458.83-27.87 458.83-26.60L458.83-26.60Q458.83-25.31 457.96-24.49Q457.09-23.67 455.66-23.67Q454.24-23.67 453.37-24.49Q452.50-25.31 452.50-26.60ZM463.03-21.13L468.34-21.13L468.52-18.69Q470.78-21.52 474.59-21.52L474.59-21.52Q477.95-21.52 479.59-19.55Q481.23-17.58 481.27-13.65L481.27-13.65L481.27 0L475.63 0L475.63-13.52Q475.63-15.31 474.84-16.12Q474.06-16.93 472.25-16.93L472.25-16.93Q469.86-16.93 468.67-14.90L468.67-14.90L468.67 0L463.03 0L463.03-21.13ZM498.36 0L498.20-2.15Q496.11 0.39 492.42 0.39L492.42 0.39Q489.02 0.39 487.24-1.56Q485.45-3.52 485.41-7.29L485.41-7.29L485.41-21.13L491.05-21.13L491.05-7.48Q491.05-4.18 494.06-4.18L494.06-4.18Q496.93-4.18 498.01-6.17L498.01-6.17L498.01-21.13L503.67-21.13L503.67 0L498.36 0ZM512.50-21.13L515.98-14.82L519.53-21.13L525.57-21.13L519.55-10.78L525.82 0L519.77 0L516.00-6.64L512.25 0L506.17 0L512.44-10.78L506.45-21.13L512.50-21.13Z" transform="translate(660, 745)" fill="#ffffff" />
  <text x="960" y="1030" font-family="Arial" font-size="24" fill="#666" text-anchor="middle">OpenClaw Documentation</text>
  <line x1="880" y1="1045" x2="1040" y2="1045" stroke="#e94560" stroke-width="3" opacity="0.6"/>
</svg>