<?xml version="1.0" encoding="UTF-8"?>
<svg width="1920" height="1080" xmlns="http://www.w3.org/2000/svg">
  <defs>
    <linearGradient id="bg" x1="0%" y1="0%" x2="100%" y2="100%">
      <stop offset="0%" style="stop-color:#1a1a2e;stop-opacity:1" />
      <stop offset="100%" style="stop-color:#0f0f1a;stop-opacity:1" />
    </linearGradient>
  </defs>
  <rect width="100%" height="100%" fill="url(#bg)"/>
  <circle cx="1920" cy="0" r="600" fill="#e94560" opacity="0.1"/>
  <circle cx="0" cy="1080" r="400" fill="#e94560" opacity="0.1"/>
  <rect width="1920" height="15" fill="#e94560"/>
  <path d="M22.80-11.37L29.84-11.37Q29.44-5.86 25.77-2.70Q22.10 0.47 16.10 0.47L16.10 0.47Q9.54 0.47 5.78-3.95Q2.02-8.37 2.02-16.08L2.02-16.08L2.02-18.16Q2.02-23.09 3.75-26.84Q5.48-30.59 8.71-32.59Q11.93-34.59 16.20-34.59L16.20-34.59Q22.10-34.59 25.71-31.43Q29.32-28.27 29.88-22.55L29.88-22.55L22.85-22.55Q22.59-25.85 21.01-27.34Q19.43-28.83 16.20-28.83L16.20-28.83Q12.68-28.83 10.93-26.31Q9.19-23.79 9.14-18.49L9.14-18.49L9.14-15.91Q9.14-10.38 10.82-7.83Q12.49-5.27 16.10-5.27L16.10-5.27Q19.36-5.27 20.96-6.76Q22.57-8.25 22.80-11.37L22.80-11.37ZM40.62-36L40.62-22.59Q43.31-25.83 47.39-25.83L47.39-25.83Q55.64-25.83 55.76-16.24L55.76-16.24L55.76 0L48.98 0L48.98-16.05Q48.98-18.23 48.05-19.28Q47.11-20.32 44.93-20.32L44.93-20.32Q41.95-20.32 40.62-18.02L40.62-18.02L40.62 0L33.84 0L33.84-36L40.62-36ZM82.41 0L75.56 0Q75.09-0.91 74.88-2.27L74.88-2.27Q72.42 0.47 68.48 0.47L68.48 0.47Q64.76 0.47 62.31-1.69Q59.86-3.84 59.86-7.13L59.86-7.13Q59.86-11.16 62.85-13.31Q65.84-15.47 71.48-15.49L71.48-15.49L74.60-15.49L74.60-16.95Q74.60-18.70 73.70-19.76Q72.80-20.81 70.85-20.81L70.85-20.81Q69.14-20.81 68.17-19.99Q67.20-19.17 67.20-17.74L67.20-17.74L60.42-17.74Q60.42-19.95 61.78-21.82Q63.14-23.70 65.63-24.76Q68.11-25.83 71.20-25.83L71.20-25.83Q75.89-25.83 78.64-23.47Q81.40-21.12 81.40-16.85L81.40-16.85L81.40-5.86Q81.42-2.25 82.41-0.40L82.41-0.40L82.41 0ZM69.96-4.71L69.96-4.71Q71.46-4.71 72.73-5.38Q73.99-6.05 74.60-7.17L74.60-7.17L74.60-11.53L72.07-11.53Q66.98-11.53 66.66-8.02L66.66-8.02L66.63-7.62Q66.63-6.35 67.52-5.53Q68.41-4.71 69.96-4.71ZM86.46-25.36L92.84-25.36L93.05-22.43Q95.77-25.83 100.34-25.83L100.34-25.83Q104.37-25.83 106.34-23.46Q108.30-21.09 108.35-16.38L108.35-16.38L108.35 0L101.58 0L101.58-16.22Q101.58-18.38 100.64-19.35Q99.70-20.32 97.52-20.32L97.52-20.32Q94.66-20.32 93.23-17.88L93.23-17.88L93.23 0L86.46 0L86.46-25.36ZM133.69-11.37L140.72-11.37Q140.32-5.86 136.65-2.70Q132.98 0.47 126.98 0.47L126.98 0.47Q120.42 0.47 116.66-3.95Q112.90-8.37 112.90-16.08L112.90-16.08L112.90-18.16Q112.90-23.09 114.63-26.84Q116.37-30.59 119.59-32.59Q122.81-34.59 127.08-34.59L127.08-34.59Q132.98-34.59 136.59-31.43Q140.20-28.27 140.77-22.55L140.77-22.55L133.73-22.55Q133.48-25.85 131.89-27.34Q130.31-28.83 127.08-28.83L127.08-28.83Q123.56-28.83 121.82-26.31Q120.07-23.79 120.02-18.49L120.02-18.49L120.02-15.91Q120.02-10.38 121.70-7.83Q123.38-5.27 126.98-5.27L126.98-5.27Q130.24-5.27 131.85-6.76Q133.45-8.25 133.69-11.37L133.69-11.37ZM152.04-36L152.04 0L145.24 0L145.24-36L152.04-36ZM179.16 0L172.31 0Q171.84-0.91 171.63-2.27L171.63-2.27Q169.17 0.47 165.23 0.47L165.23 0.47Q161.51 0.47 159.06-1.69Q156.61-3.84 156.61-7.13L156.61-7.13Q156.61-11.16 159.60-13.31Q162.59-15.47 168.23-15.49L168.23-15.49L171.35-15.49L171.35-16.95Q171.35-18.70 170.45-19.76Q169.55-20.81 167.60-20.81L167.60-20.81Q165.89-20.81 164.92-19.99Q163.95-19.17 163.95-17.74L163.95-17.74L157.17-17.74Q157.17-19.95 158.53-21.82Q159.89-23.70 162.38-24.76Q164.86-25.83 167.95-25.83L167.95-25.83Q172.64-25.83 175.39-23.47Q178.15-21.12 178.15-16.85L178.15-16.85L178.15-5.86Q178.17-2.25 179.16-0.40L179.16-0.40L179.16 0ZM166.71-4.71L166.71-4.71Q168.21-4.71 169.48-5.38Q170.74-6.05 171.35-7.17L171.35-7.17L171.35-11.53L168.82-11.53Q163.73-11.53 163.41-8.02L163.41-8.02L163.38-7.62Q163.38-6.35 164.27-5.53Q165.16-4.71 166.71-4.71ZM200.79-25.36L205.41-9.21L208.73-25.36L215.27-25.36L208.80 0L203.13 0L198.33-15.96L193.52 0L187.88 0L181.41-25.36L187.95-25.36L191.25-9.23L195.89-25.36L200.79-25.36Z" transform="translate(60, 85)" fill="#e94560" />
  <text x="1860" y="85" font-family="Arial" font-size="28" fill="#888" text-anchor="end">SLIDE 7/10</text>
  <path d="M34.57-14.92L34.57-14.92Q34.57-18.24 32.23-20.02Q29.88-21.80 23.79-23.77Q17.70-25.74 14.14-27.66L14.14-27.66Q4.45-32.89 4.45-41.76L4.45-41.76Q4.45-46.37 7.05-49.98Q9.65-53.59 14.51-55.63Q19.38-57.66 25.43-57.66L25.43-57.66Q31.52-57.66 36.29-55.45Q41.05-53.24 43.69-49.22Q46.33-45.20 46.33-40.08L46.33-40.08L34.61-40.08Q34.61-43.98 32.15-46.15Q29.69-48.32 25.23-48.32L25.23-48.32Q20.94-48.32 18.55-46.50Q16.17-44.69 16.17-41.72L16.17-41.72Q16.17-38.95 18.96-37.07Q21.76-35.20 27.19-33.55L27.19-33.55Q37.19-30.55 41.76-26.09Q46.33-21.64 46.33-15L46.33-15Q46.33-7.62 40.74-3.42Q35.16 0.78 25.70 0.78L25.70 0.78Q19.14 0.78 13.75-1.62Q8.36-4.02 5.53-8.20Q2.70-12.38 2.70-17.89L2.70-17.89L14.45-17.89Q14.45-8.48 25.70-8.48L25.70-8.48Q29.88-8.48 32.23-10.18Q34.57-11.88 34.57-14.92ZM72.97 0.78L72.97 0.78Q63.67 0.78 57.83-4.92Q51.99-10.63 51.99-20.12L51.99-20.12L51.99-21.21Q51.99-27.58 54.45-32.60Q56.91-37.62 61.43-40.33Q65.94-43.05 71.72-43.05L71.72-43.05Q80.39-43.05 85.37-37.58Q90.35-32.11 90.35-22.07L90.35-22.07L90.35-17.46L63.44-17.46Q63.98-13.32 66.74-10.82Q69.49-8.32 73.71-8.32L73.71-8.32Q80.23-8.32 83.91-13.05L83.91-13.05L89.45-6.84Q86.91-3.24 82.58-1.23Q78.24 0.78 72.97 0.78ZM71.68-33.91L71.68-33.91Q68.32-33.91 66.23-31.64Q64.14-29.38 63.55-25.16L63.55-25.16L79.26-25.16L79.26-26.05Q79.18-29.80 77.23-31.86Q75.27-33.91 71.68-33.91ZM120.66-42.54L120.51-31.68Q118.20-31.99 116.45-31.99L116.45-31.99Q110.04-31.99 108.05-27.66L108.05-27.66L108.05 0L96.76 0L96.76-42.27L107.42-42.27L107.73-37.23Q111.13-43.05 117.15-43.05L117.15-43.05Q119.02-43.05 120.66-42.54L120.66-42.54ZM133.91-42.27L141.76-13.79L149.61-42.27L161.41-42.27L147.15 0L136.37 0L122.11-42.27L133.91-42.27ZM185.82 0.78L185.82 0.78Q176.52 0.78 170.68-4.92Q164.84-10.63 164.84-20.12L164.84-20.12L164.84-21.21Q164.84-27.58 167.30-32.60Q169.77-37.62 174.28-40.33Q178.79-43.05 184.57-43.05L184.57-43.05Q193.24-43.05 198.22-37.58Q203.20-32.11 203.20-22.07L203.20-22.07L203.20-17.46L176.29-17.46Q176.84-13.32 179.59-10.82Q182.34-8.32 186.56-8.32L186.56-8.32Q193.09-8.32 196.76-13.05L196.76-13.05L202.30-6.84Q199.77-3.24 195.43-1.23Q191.09 0.78 185.82 0.78ZM184.53-33.91L184.53-33.91Q181.17-33.91 179.08-31.64Q176.99-29.38 176.41-25.16L176.41-25.16L192.11-25.16L192.11-26.05Q192.03-29.80 190.08-31.86Q188.13-33.91 184.53-33.91ZM233.52-42.54L233.36-31.68Q231.05-31.99 229.30-31.99L229.30-31.99Q222.89-31.99 220.90-27.66L220.90-27.66L220.90 0L209.61 0L209.61-42.27L220.27-42.27L220.59-37.23Q223.98-43.05 230-43.05L230-43.05Q231.88-43.05 233.52-42.54L233.52-42.54ZM271.91-56.88L271.91 0L260.20 0L260.20-56.88L271.91-56.88ZM281.80-42.27L292.42-42.27L292.77-37.38Q297.30-43.05 304.92-43.05L304.92-43.05Q311.64-43.05 314.92-39.10Q318.20-35.16 318.28-27.30L318.28-27.30L318.28 0L306.99 0L306.99-27.03Q306.99-30.63 305.43-32.25Q303.87-33.87 300.23-33.87L300.23-33.87Q295.47-33.87 293.09-29.80L293.09-29.80L293.09 0L281.80 0L281.80-42.27ZM329.06-52.66L340.35-52.66L340.35-42.27L347.58-42.27L347.58-33.98L340.35-33.98L340.35-12.89Q340.35-10.55 341.25-9.53Q342.15-8.52 344.69-8.52L344.69-8.52Q346.56-8.52 348.01-8.79L348.01-8.79L348.01-0.23Q344.69 0.78 341.17 0.78L341.17 0.78Q329.30 0.78 329.06-11.21L329.06-11.21L329.06-33.98L322.89-33.98L322.89-42.27L329.06-42.27L329.06-52.66ZM373.32 0.78L373.32 0.78Q364.02 0.78 358.18-4.92Q352.34-10.63 352.34-20.12L352.34-20.12L352.34-21.21Q352.34-27.58 354.80-32.60Q357.27-37.62 361.78-40.33Q366.29-43.05 372.07-43.05L372.07-43.05Q380.74-43.05 385.72-37.58Q390.70-32.11 390.70-22.07L390.70-22.07L390.70-17.46L363.79-17.46Q364.34-13.32 367.09-10.82Q369.84-8.32 374.06-8.32L374.06-8.32Q380.59-8.32 384.26-13.05L384.26-13.05L389.80-6.84Q387.27-3.24 382.93-1.23Q378.59 0.78 373.32 0.78ZM372.03-33.91L372.03-33.91Q368.67-33.91 366.58-31.64Q364.49-29.38 363.91-25.16L363.91-25.16L379.61-25.16L379.61-26.05Q379.53-29.80 377.58-31.86Q375.63-33.91 372.03-33.91ZM395.47-20.98L395.47-21.45Q395.47-31.17 400.10-37.11Q404.73-43.05 412.58-43.05L412.58-43.05Q419.53-43.05 423.40-38.28L423.40-38.28L423.87-42.27L434.10-42.27L434.10-1.41Q434.10 4.14 431.58 8.24Q429.06 12.34 424.49 14.49Q419.92 16.64 413.79 16.64L413.79 16.64Q409.14 16.64 404.73 14.79Q400.31 12.93 398.05 10L398.05 10L403.05 3.13Q407.27 7.85 413.28 7.85L413.28 7.85Q417.77 7.85 420.27 5.45Q422.77 3.05 422.77-1.37L422.77-1.37L422.77-3.63Q418.87 0.78 412.50 0.78L412.50 0.78Q404.88 0.78 400.18-5.18Q395.47-11.13 395.47-20.98L395.47-20.98ZM406.76-20.63L406.76-20.63Q406.76-14.88 409.06-11.62Q411.37-8.36 415.39-8.36L415.39-8.36Q420.55-8.36 422.77-12.23L422.77-12.23L422.77-30Q420.51-33.87 415.47-33.87L415.47-33.87Q411.41-33.87 409.08-30.55Q406.76-27.23 406.76-20.63ZM466.68-42.54L466.52-31.68Q464.22-31.99 462.46-31.99L462.46-31.99Q456.05-31.99 454.06-27.66L454.06-27.66L454.06 0L442.77 0L442.77-42.27L453.44-42.27L453.75-37.23Q457.15-43.05 463.16-43.05L463.16-43.05Q465.04-43.05 466.68-42.54L466.68-42.54ZM507.85 0L496.45 0Q495.66-1.52 495.31-3.79L495.31-3.79Q491.21 0.78 484.65 0.78L484.65 0.78Q478.44 0.78 474.36-2.81Q470.27-6.41 470.27-11.88L470.27-11.88Q470.27-18.59 475.25-22.19Q480.23-25.78 489.65-25.82L489.65-25.82L494.84-25.82L494.84-28.24Q494.84-31.17 493.34-32.93Q491.84-34.69 488.59-34.69L488.59-34.69Q485.74-34.69 484.12-33.32Q482.50-31.95 482.50-29.57L482.50-29.57L471.21-29.57Q471.21-33.24 473.48-36.37Q475.74-39.49 479.88-41.27Q484.02-43.05 489.18-43.05L489.18-43.05Q496.99-43.05 501.58-39.12Q506.17-35.20 506.17-28.09L506.17-28.09L506.17-9.77Q506.21-3.75 507.85-0.66L507.85-0.66L507.85 0ZM487.11-7.85L487.11-7.85Q489.61-7.85 491.72-8.96Q493.83-10.08 494.84-11.95L494.84-11.95L494.84-19.22L490.63-19.22Q482.15-19.22 481.60-13.36L481.60-13.36L481.56-12.70Q481.56-10.59 483.05-9.22Q484.53-7.85 487.11-7.85ZM517.07-52.66L528.36-52.66L528.36-42.27L535.59-42.27L535.59-33.98L528.36-33.98L528.36-12.89Q528.36-10.55 529.26-9.53Q530.16-8.52 532.70-8.52L532.70-8.52Q534.57-8.52 536.02-8.79L536.02-8.79L536.02-0.23Q532.70 0.78 529.18 0.78L529.18 0.78Q517.30 0.78 517.07-11.21L517.07-11.21L517.07-33.98L510.90-33.98L510.90-42.27L517.07-42.27L517.07-52.66ZM553.79-42.27L553.79 0L542.46 0L542.46-42.27L553.79-42.27ZM541.80-53.20L541.80-53.20Q541.80-55.74 543.50-57.38Q545.20-59.02 548.13-59.02L548.13-59.02Q551.02-59.02 552.73-57.38Q554.45-55.74 554.45-53.20L554.45-53.20Q554.45-50.63 552.71-48.98Q550.98-47.34 548.13-47.34Q545.27-47.34 543.54-48.98Q541.80-50.63 541.80-53.20ZM561.33-21.02L561.33-21.52Q561.33-27.81 563.75-32.73Q566.17-37.66 570.72-40.35Q575.27-43.05 581.29-43.05L581.29-43.05Q589.84-43.05 595.25-37.81Q600.66-32.58 601.29-23.59L601.29-23.59L601.37-20.70Q601.37-10.98 595.94-5.10Q590.51 0.78 581.37 0.78Q572.23 0.78 566.78-5.08Q561.33-10.94 561.33-21.02L561.33-21.02ZM572.62-20.70L572.62-20.70Q572.62-14.69 574.88-11.50Q577.15-8.32 581.37-8.32L581.37-8.32Q585.47-8.32 587.77-11.46Q590.08-14.61 590.08-21.52L590.08-21.52Q590.08-27.42 587.77-30.66Q585.47-33.91 581.29-33.91L581.29-33.91Q577.15-33.91 574.88-30.68Q572.62-27.46 572.62-20.70ZM608.09-42.27L618.71-42.27L619.06-37.38Q623.59-43.05 631.21-43.05L631.21-43.05Q637.93-43.05 641.21-39.10Q644.49-35.16 644.57-27.30L644.57-27.30L644.57 0L633.28 0L633.28-27.03Q633.28-30.63 631.72-32.25Q630.16-33.87 626.52-33.87L626.52-33.87Q621.76-33.87 619.38-29.80L619.38-29.80L619.38 0L608.09 0L608.09-42.27Z" transform="translate(635.60546875, 420)" fill="#ffffff" />
  <line x1="660" y1="480" x2="1260" y2="480" stroke="#e94560" stroke-width="6"/>
  <circle cx="620" cy="535" r="8" fill="#e94560" /><path d="M18.40 0L13.07-10.41L8.40-10.41L8.40 0L2.54 0L2.54-28.44L13.11-28.44Q18.14-28.44 20.88-26.19Q23.61-23.95 23.61-19.84L23.61-19.84Q23.61-16.93 22.35-14.99Q21.09-13.05 18.54-11.89L18.54-11.89L24.69-0.27L24.69 0L18.40 0ZM8.40-23.69L8.40-15.16L13.13-15.16Q15.33-15.16 16.54-16.28Q17.75-17.40 17.75-19.38L17.75-19.38Q17.75-21.39 16.61-22.54Q15.47-23.69 13.11-23.69L13.11-23.69L8.40-23.69ZM40.51 0L40.35-2.15Q38.26 0.39 34.57 0.39L34.57 0.39Q31.17 0.39 29.38-1.56Q27.60-3.52 27.56-7.29L27.56-7.29L27.56-21.13L33.20-21.13L33.20-7.48Q33.20-4.18 36.21-4.18L36.21-4.18Q39.08-4.18 40.16-6.17L40.16-6.17L40.16-21.13L45.82-21.13L45.82 0L40.51 0ZM49.96-21.13L55.27-21.13L55.45-18.69Q57.71-21.52 61.52-21.52L61.52-21.52Q64.88-21.52 66.52-19.55Q68.16-17.58 68.20-13.65L68.20-13.65L68.20 0L62.56 0L62.56-13.52Q62.56-15.31 61.78-16.12Q61.00-16.93 59.18-16.93L59.18-16.93Q56.80-16.93 55.61-14.90L55.61-14.90L55.61 0L49.96 0L49.96-21.13ZM83.93-5.84L83.93-5.84Q83.93-6.88 82.90-7.47Q81.88-8.07 79.61-8.54L79.61-8.54Q72.07-10.12 72.07-14.94L72.07-14.94Q72.07-17.75 74.40-19.64Q76.74-21.52 80.51-21.52L80.51-21.52Q84.53-21.52 86.94-19.63Q89.36-17.73 89.36-14.71L89.36-14.71L83.71-14.71Q83.71-15.92 82.93-16.71Q82.15-17.50 80.49-17.50L80.49-17.50Q79.06-17.50 78.28-16.86Q77.50-16.21 77.50-15.21L77.50-15.21Q77.50-14.28 78.39-13.70Q79.28-13.13 81.39-12.71Q83.50-12.29 84.94-11.76L84.94-11.76Q89.41-10.12 89.41-6.07L89.41-6.07Q89.41-3.18 86.93-1.40Q84.45 0.39 80.53 0.39L80.53 0.39Q77.87 0.39 75.81-0.56Q73.75-1.50 72.58-3.15Q71.41-4.80 71.41-6.72L71.41-6.72L76.76-6.72Q76.84-5.21 77.87-4.41Q78.91-3.61 80.64-3.61L80.64-3.61Q82.27-3.61 83.10-4.23Q83.93-4.84 83.93-5.84ZM102.13-10.51L102.13-10.76Q102.13-13.91 103.34-16.37Q104.55-18.83 106.83-20.18Q109.10-21.52 112.11-21.52L112.11-21.52Q116.39-21.52 119.09-18.91Q121.80-16.29 122.11-11.80L122.11-11.80L122.15-10.35Q122.15-5.49 119.43-2.55Q116.72 0.39 112.15 0.39Q107.58 0.39 104.85-2.54Q102.13-5.47 102.13-10.51L102.13-10.51ZM107.77-10.35L107.77-10.35Q107.77-7.34 108.91-5.75Q110.04-4.16 112.15-4.16L112.15-4.16Q114.20-4.16 115.35-5.73Q116.50-7.30 116.50-10.76L116.50-10.76Q116.50-13.71 115.35-15.33Q114.20-16.95 112.11-16.95L112.11-16.95Q110.04-16.95 108.91-15.34Q107.77-13.73 107.77-10.35ZM125.51-21.13L130.82-21.13L131.00-18.69Q133.26-21.52 137.07-21.52L137.07-21.52Q140.43-21.52 142.07-19.55Q143.71-17.58 143.75-13.65L143.75-13.65L143.75 0L138.11 0L138.11-13.52Q138.11-15.31 137.32-16.12Q136.54-16.93 134.73-16.93L134.73-16.93Q132.34-16.93 131.15-14.90L131.15-14.90L131.15 0L125.51 0L125.51-21.13ZM164.22-28.44L164.22-4.71L176.66-4.71L176.66 0L158.36 0L158.36-28.44L164.22-28.44ZM185.61-21.13L185.61 0L179.94 0L179.94-21.13L185.61-21.13ZM179.61-26.60L179.61-26.60Q179.61-27.87 180.46-28.69Q181.31-29.51 182.77-29.51L182.77-29.51Q184.22-29.51 185.08-28.69Q185.94-27.87 185.94-26.60L185.94-26.60Q185.94-25.31 185.07-24.49Q184.20-23.67 182.77-23.67Q181.35-23.67 180.48-24.49Q179.61-25.31 179.61-26.60ZM190.14-21.13L195.45-21.13L195.63-18.69Q197.89-21.52 201.70-21.52L201.70-21.52Q205.06-21.52 206.70-19.55Q208.34-17.58 208.38-13.65L208.38-13.65L208.38 0L202.73 0L202.73-13.52Q202.73-15.31 201.95-16.12Q201.17-16.93 199.36-16.93L199.36-16.93Q196.97-16.93 195.78-14.90L195.78-14.90L195.78 0L190.14 0L190.14-21.13ZM225.47 0L225.31-2.15Q223.22 0.39 219.53 0.39L219.53 0.39Q216.13 0.39 214.35-1.56Q212.56-3.52 212.52-7.29L212.52-7.29L212.52-21.13L218.16-21.13L218.16-7.48Q218.16-4.18 221.17-4.18L221.17-4.18Q224.04-4.18 225.12-6.17L225.12-6.17L225.12-21.13L230.78-21.13L230.78 0L225.47 0ZM239.61-21.13L243.09-14.82L246.64-21.13L252.68-21.13L246.66-10.78L252.93 0L246.88 0L243.11-6.64L239.36 0L233.28 0L239.55-10.78L233.55-21.13L239.61-21.13ZM265.61-10.53L265.61-11.56Q265.61-16.04 266.80-20.08Q267.99-24.12 270.31-27.24Q272.64-30.35 275.35-31.56L275.35-31.56L276.45-28.52Q273.59-26.41 271.99-21.99Q270.39-17.58 270.39-11.68L270.39-11.68L270.39-11.07Q270.39-5.16 271.97-0.72Q273.55 3.71 276.45 5.90L276.45 5.90L275.35 8.89Q272.70 7.70 270.40 4.68Q268.11 1.66 266.89-2.29Q265.68-6.23 265.61-10.53L265.61-10.53ZM283.96-21.13L287.44-14.82L291.00-21.13L297.03-21.13L291.02-10.78L297.29 0L291.23 0L287.46-6.64L283.71 0L277.64 0L283.91-10.78L277.91-21.13L283.96-21.13ZM313.89-28.73L314.82-28.73L314.82-24.08L314.28-24.08Q310.45-24.02 308.12-22.09Q305.78-20.16 305.31-16.72L305.31-16.72Q307.58-19.02 311.04-19.02L311.04-19.02Q314.75-19.02 316.93-16.37Q319.12-13.71 319.12-9.38L319.12-9.38Q319.12-6.60 317.92-4.36Q316.72-2.11 314.52-0.86Q312.32 0.39 309.55 0.39L309.55 0.39Q305.06 0.39 302.29-2.73Q299.53-5.86 299.53-11.07L299.53-11.07L299.53-13.11Q299.53-17.73 301.28-21.28Q303.03-24.82 306.30-26.77Q309.57-28.71 313.89-28.73L313.89-28.73ZM309.32-14.49L309.32-14.49Q307.95-14.49 306.84-13.78Q305.72-13.07 305.20-11.89L305.20-11.89L305.20-10.18Q305.20-7.34 306.31-5.75Q307.42-4.16 309.43-4.16L309.43-4.16Q311.25-4.16 312.37-5.60Q313.50-7.03 313.50-9.32L313.50-9.32Q313.50-11.64 312.36-13.07Q311.23-14.49 309.32-14.49ZM339.16-28.44L339.16-10.70L342.38-10.70L342.38-6.15L339.16-6.15L339.16 0L333.52 0L333.52-6.15L321.86-6.15L321.60-9.71L333.46-28.44L339.16-28.44ZM333.14-20.10L327.23-10.70L333.52-10.70L333.52-20.74L333.14-20.10ZM347.11 7.13L347.11 7.13L344.16 5.59L344.86 4.32Q346.17 1.93 346.21-0.43L346.21-0.43L346.21-4.80L350.98-4.80L350.96-0.90Q350.94 1.27 349.86 3.48Q348.79 5.68 347.11 7.13ZM383.77 0L381.80-5.86L371.52-5.86L369.57 0L363.34 0L373.93-28.44L379.36-28.44L390 0L383.77 0ZM376.64-21.25L373.11-10.61L380.21-10.61L376.64-21.25ZM408.52 0L403.18-10.41L398.52-10.41L398.52 0L392.66 0L392.66-28.44L403.22-28.44Q408.26-28.44 411.00-26.19Q413.73-23.95 413.73-19.84L413.73-19.84Q413.73-16.93 412.47-14.99Q411.21-13.05 408.65-11.89L408.65-11.89L414.80-0.27L414.80 0L408.52 0ZM398.52-23.69L398.52-15.16L403.24-15.16Q405.45-15.16 406.66-16.28Q407.87-17.40 407.87-19.38L407.87-19.38Q407.87-21.39 406.73-22.54Q405.59-23.69 403.22-23.69L403.22-23.69L398.52-23.69ZM418.18-28.44L425.84-28.44L433.14-7.81L440.41-28.44L448.11-28.44L448.11 0L442.23 0L442.23-7.77L442.81-21.19L435.14 0L431.11 0L423.46-21.17L424.04-7.77L424.04 0L418.18 0L418.18-28.44ZM466.99-28.73L467.93-28.73L467.93-24.08L467.38-24.08Q463.55-24.02 461.22-22.09Q458.89-20.16 458.42-16.72L458.42-16.72Q460.68-19.02 464.14-19.02L464.14-19.02Q467.85-19.02 470.04-16.37Q472.23-13.71 472.23-9.38L472.23-9.38Q472.23-6.60 471.03-4.36Q469.82-2.11 467.63-0.86Q465.43 0.39 462.66 0.39L462.66 0.39Q458.16 0.39 455.40-2.73Q452.64-5.86 452.64-11.07L452.64-11.07L452.64-13.11Q452.64-17.73 454.38-21.28Q456.13-24.82 459.40-26.77Q462.68-28.71 466.99-28.73L466.99-28.73ZM462.42-14.49L462.42-14.49Q461.05-14.49 459.94-13.78Q458.83-13.07 458.30-11.89L458.30-11.89L458.30-10.18Q458.30-7.34 459.41-5.75Q460.53-4.16 462.54-4.16L462.54-4.16Q464.36-4.16 465.48-5.60Q466.60-7.03 466.60-9.32L466.60-9.32Q466.60-11.64 465.47-13.07Q464.34-14.49 462.42-14.49ZM492.27-28.44L492.27-10.70L495.49-10.70L495.49-6.15L492.27-6.15L492.27 0L486.62 0L486.62-6.15L474.96-6.15L474.71-9.71L486.56-28.44L492.27-28.44ZM486.25-20.10L480.33-10.70L486.62-10.70L486.62-20.74L486.25-20.10ZM508.48-11.99L508.48-11.11Q508.48-6.70 507.21-2.62Q505.94 1.46 503.55 4.59Q501.17 7.71 498.46 8.89L498.46 8.89L497.36 5.90Q500.14 3.81 501.74-0.55Q503.34-4.90 503.40-10.57L503.40-10.57L503.40-11.60Q503.40-17.44 501.81-21.89Q500.21-26.35 497.36-28.57L497.36-28.57L498.46-31.56Q501.11-30.41 503.47-27.38Q505.82-24.36 507.12-20.33Q508.42-16.31 508.48-11.99L508.48-11.99Z" transform="translate(660, 535)" fill="#ffffff" /><circle cx="620" cy="605" r="8" fill="#e94560" /><path d="M17.29-7.46L17.29-7.46Q17.29-9.12 16.11-10.01Q14.94-10.90 11.89-11.88Q8.85-12.87 7.07-13.83L7.07-13.83Q2.23-16.45 2.23-20.88L2.23-20.88Q2.23-23.18 3.53-24.99Q4.82-26.80 7.26-27.81Q9.69-28.83 12.71-28.83L12.71-28.83Q15.76-28.83 18.14-27.72Q20.53-26.62 21.85-24.61Q23.16-22.60 23.16-20.04L23.16-20.04L17.30-20.04Q17.30-21.99 16.07-23.08Q14.84-24.16 12.62-24.16L12.62-24.16Q10.47-24.16 9.28-23.25Q8.09-22.34 8.09-20.86L8.09-20.86Q8.09-19.47 9.48-18.54Q10.88-17.60 13.59-16.78L13.59-16.78Q18.59-15.27 20.88-13.05Q23.16-10.82 23.16-7.50L23.16-7.50Q23.16-3.81 20.37-1.71Q17.58 0.39 12.85 0.39L12.85 0.39Q9.57 0.39 6.88-0.81Q4.18-2.01 2.76-4.10Q1.35-6.19 1.35-8.95L1.35-8.95L7.23-8.95Q7.23-4.24 12.85-4.24L12.85-4.24Q14.94-4.24 16.11-5.09Q17.29-5.94 17.29-7.46ZM41.88-7.46L41.88-7.46Q41.88-9.12 40.70-10.01Q39.53-10.90 36.48-11.88Q33.44-12.87 31.66-13.83L31.66-13.83Q26.82-16.45 26.82-20.88L26.82-20.88Q26.82-23.18 28.12-24.99Q29.41-26.80 31.85-27.81Q34.28-28.83 37.30-28.83L37.30-28.83Q40.35-28.83 42.73-27.72Q45.12-26.62 46.44-24.61Q47.75-22.60 47.75-20.04L47.75-20.04L41.89-20.04Q41.89-21.99 40.66-23.08Q39.43-24.16 37.21-24.16L37.21-24.16Q35.06-24.16 33.87-23.25Q32.68-22.34 32.68-20.86L32.68-20.86Q32.68-19.47 34.07-18.54Q35.47-17.60 38.18-16.78L38.18-16.78Q43.18-15.27 45.47-13.05Q47.75-10.82 47.75-7.50L47.75-7.50Q47.75-3.81 44.96-1.71Q42.17 0.39 37.44 0.39L37.44 0.39Q34.16 0.39 31.46-0.81Q28.77-2.01 27.35-4.10Q25.94-6.19 25.94-8.95L25.94-8.95L31.82-8.95Q31.82-4.24 37.44-4.24L37.44-4.24Q39.53-4.24 40.70-5.09Q41.88-5.94 41.88-7.46ZM74.86-28.44L74.86 0L69.00 0L69.00-12.19L57.58-12.19L57.58 0L51.72 0L51.72-28.44L57.58-28.44L57.58-16.91L69.00-16.91L69.00-28.44L74.86-28.44ZM107.52 0L101.82 0Q101.43-0.76 101.25-1.89L101.25-1.89Q99.20 0.39 95.92 0.39L95.92 0.39Q92.81 0.39 90.77-1.41Q88.73-3.20 88.73-5.94L88.73-5.94Q88.73-9.30 91.22-11.09Q93.71-12.89 98.42-12.91L98.42-12.91L101.02-12.91L101.02-14.12Q101.02-15.59 100.26-16.46Q99.51-17.34 97.89-17.34L97.89-17.34Q96.46-17.34 95.65-16.66Q94.84-15.98 94.84-14.79L94.84-14.79L89.20-14.79Q89.20-16.62 90.33-18.18Q91.46-19.75 93.54-20.63Q95.61-21.52 98.18-21.52L98.18-21.52Q102.09-21.52 104.38-19.56Q106.68-17.60 106.68-14.04L106.68-14.04L106.68-4.88Q106.70-1.88 107.52-0.33L107.52-0.33L107.52 0ZM97.15-3.93L97.15-3.93Q98.40-3.93 99.45-4.48Q100.51-5.04 101.02-5.98L101.02-5.98L101.02-9.61L98.91-9.61Q94.67-9.61 94.39-6.68L94.39-6.68L94.38-6.35Q94.38-5.29 95.12-4.61Q95.86-3.93 97.15-3.93ZM119.80-4.16L119.80-4.16Q121.37-4.16 122.34-5.02Q123.32-5.88 123.36-7.30L123.36-7.30L128.65-7.30Q128.63-5.16 127.48-3.37Q126.33-1.58 124.33-0.60Q122.32 0.39 119.90 0.39L119.90 0.39Q115.37 0.39 112.75-2.49Q110.14-5.37 110.14-10.45L110.14-10.45L110.14-10.82Q110.14-15.70 112.73-18.61Q115.33-21.52 119.86-21.52L119.86-21.52Q123.83-21.52 126.22-19.27Q128.61-17.01 128.65-13.26L128.65-13.26L123.36-13.26Q123.32-14.90 122.34-15.93Q121.37-16.95 119.77-16.95L119.77-16.95Q117.79-16.95 116.79-15.52Q115.78-14.08 115.78-10.86L115.78-10.86L115.78-10.27Q115.78-7.01 116.78-5.59Q117.77-4.16 119.80-4.16ZM140.66-4.16L140.66-4.16Q142.23-4.16 143.20-5.02Q144.18-5.88 144.22-7.30L144.22-7.30L149.51-7.30Q149.49-5.16 148.34-3.37Q147.19-1.58 145.19-0.60Q143.18 0.39 140.76 0.39L140.76 0.39Q136.23 0.39 133.61-2.49Q131.00-5.37 131.00-10.45L131.00-10.45L131.00-10.82Q131.00-15.70 133.59-18.61Q136.19-21.52 140.72-21.52L140.72-21.52Q144.69-21.52 147.08-19.27Q149.47-17.01 149.51-13.26L149.51-13.26L144.22-13.26Q144.18-14.90 143.20-15.93Q142.23-16.95 140.63-16.95L140.63-16.95Q138.65-16.95 137.65-15.52Q136.64-14.08 136.64-10.86L136.64-10.86L136.64-10.27Q136.64-7.01 137.64-5.59Q138.63-4.16 140.66-4.16ZM162.46 0.39L162.46 0.39Q157.81 0.39 154.89-2.46Q151.97-5.31 151.97-10.06L151.97-10.06L151.97-10.61Q151.97-13.79 153.20-16.30Q154.43-18.81 156.69-20.17Q158.95-21.52 161.84-21.52L161.84-21.52Q166.17-21.52 168.66-18.79Q171.15-16.05 171.15-11.04L171.15-11.04L171.15-8.73L157.70-8.73Q157.97-6.66 159.35-5.41Q160.72-4.16 162.83-4.16L162.83-4.16Q166.09-4.16 167.93-6.52L167.93-6.52L170.70-3.42Q169.43-1.62 167.27-0.62Q165.10 0.39 162.46 0.39ZM161.82-16.95L161.82-16.95Q160.14-16.95 159.09-15.82Q158.05-14.69 157.75-12.58L157.75-12.58L165.61-12.58L165.61-13.03Q165.57-14.90 164.59-15.93Q163.61-16.95 161.82-16.95ZM185.80-5.84L185.80-5.84Q185.80-6.88 184.78-7.47Q183.75-8.07 181.48-8.54L181.48-8.54Q173.95-10.12 173.95-14.94L173.95-14.94Q173.95-17.75 176.28-19.64Q178.61-21.52 182.38-21.52L182.38-21.52Q186.41-21.52 188.82-19.63Q191.23-17.73 191.23-14.71L191.23-14.71L185.59-14.71Q185.59-15.92 184.80-16.71Q184.02-17.50 182.36-17.50L182.36-17.50Q180.94-17.50 180.16-16.86Q179.38-16.21 179.38-15.21L179.38-15.21Q179.38-14.28 180.26-13.70Q181.15-13.13 183.26-12.71Q185.37-12.29 186.82-11.76L186.82-11.76Q191.29-10.12 191.29-6.07L191.29-6.07Q191.29-3.18 188.81-1.40Q186.33 0.39 182.40 0.39L182.40 0.39Q179.75 0.39 177.69-0.56Q175.63-1.50 174.45-3.15Q173.28-4.80 173.28-6.72L173.28-6.72L178.63-6.72Q178.71-5.21 179.75-4.41Q180.78-3.61 182.52-3.61L182.52-3.61Q184.14-3.61 184.97-4.23Q185.80-4.84 185.80-5.84ZM206.37-5.84L206.37-5.84Q206.37-6.88 205.34-7.47Q204.32-8.07 202.05-8.54L202.05-8.54Q194.51-10.12 194.51-14.94L194.51-14.94Q194.51-17.75 196.85-19.64Q199.18-21.52 202.95-21.52L202.95-21.52Q206.97-21.52 209.38-19.63Q211.80-17.73 211.80-14.71L211.80-14.71L206.15-14.71Q206.15-15.92 205.37-16.71Q204.59-17.50 202.93-17.50L202.93-17.50Q201.50-17.50 200.72-16.86Q199.94-16.21 199.94-15.21L199.94-15.21Q199.94-14.28 200.83-13.70Q201.72-13.13 203.83-12.71Q205.94-12.29 207.38-11.76L207.38-11.76Q211.86-10.12 211.86-6.07L211.86-6.07Q211.86-3.18 209.38-1.40Q206.89 0.39 202.97 0.39L202.97 0.39Q200.31 0.39 198.25-0.56Q196.19-1.50 195.02-3.15Q193.85-4.80 193.85-6.72L193.85-6.72L199.20-6.72Q199.28-5.21 200.31-4.41Q201.35-3.61 203.09-3.61L203.09-3.61Q204.71-3.61 205.54-4.23Q206.37-4.84 206.37-5.84ZM224.67-7.66L224.67-7.66Q224.67-9.63 225.77-11.31Q226.88-12.99 229.82-15.04L229.82-15.04Q228.55-16.74 227.83-18.23Q227.11-19.73 227.11-21.35L227.11-21.35Q227.11-24.67 229.21-26.75Q231.31-28.83 234.86-28.83L234.86-28.83Q238.05-28.83 240.09-26.93Q242.13-25.04 242.13-22.21L242.13-22.21Q242.13-18.81 238.69-16.21L238.69-16.21L236.50-14.63L241.41-8.93Q242.56-11.19 242.56-13.93L242.56-13.93L247.36-13.93Q247.36-8.38 244.80-4.94L244.80-4.94L249.06 0L242.66 0L241.19-1.68Q238.05 0.39 233.96 0.39L233.96 0.39Q229.75 0.39 227.21-1.83Q224.67-4.04 224.67-7.66ZM234.24-4.14L234.24-4.14Q236.27-4.14 238.09-5.27L238.09-5.27L232.48-11.76L232.07-11.46Q230.33-9.98 230.33-7.97L230.33-7.97Q230.33-6.27 231.42-5.21Q232.50-4.14 234.24-4.14ZM232.17-21.43L232.17-21.43Q232.17-19.96 233.89-17.73L233.89-17.73L235.39-18.73Q236.54-19.47 236.98-20.18Q237.42-20.88 237.42-21.86Q237.42-22.83 236.70-23.55Q235.98-24.28 234.84-24.28L234.84-24.28Q233.63-24.28 232.90-23.50Q232.17-22.71 232.17-21.43ZM270.45-4.16L270.45-4.16Q272.01-4.16 272.99-5.02Q273.96-5.88 274.00-7.30L274.00-7.30L279.30-7.30Q279.28-5.16 278.13-3.37Q276.97-1.58 274.97-0.60Q272.97 0.39 270.55 0.39L270.55 0.39Q266.02 0.39 263.40-2.49Q260.78-5.37 260.78-10.45L260.78-10.45L260.78-10.82Q260.78-15.70 263.38-18.61Q265.98-21.52 270.51-21.52L270.51-21.52Q274.47-21.52 276.87-19.27Q279.26-17.01 279.30-13.26L279.30-13.26L274.00-13.26Q273.96-14.90 272.99-15.93Q272.01-16.95 270.41-16.95L270.41-16.95Q268.44-16.95 267.43-15.52Q266.43-14.08 266.43-10.86L266.43-10.86L266.43-10.27Q266.43-7.01 267.42-5.59Q268.42-4.16 270.45-4.16ZM281.64-10.51L281.64-10.76Q281.64-13.91 282.85-16.37Q284.06-18.83 286.34-20.18Q288.61-21.52 291.62-21.52L291.62-21.52Q295.90-21.52 298.60-18.91Q301.31-16.29 301.62-11.80L301.62-11.80L301.66-10.35Q301.66-5.49 298.95-2.55Q296.23 0.39 291.66 0.39Q287.09 0.39 284.37-2.54Q281.64-5.47 281.64-10.51L281.64-10.51ZM287.29-10.35L287.29-10.35Q287.29-7.34 288.42-5.75Q289.55-4.16 291.66-4.16L291.66-4.16Q293.71-4.16 294.86-5.73Q296.02-7.30 296.02-10.76L296.02-10.76Q296.02-13.71 294.86-15.33Q293.71-16.95 291.62-16.95L291.62-16.95Q289.55-16.95 288.42-15.34Q287.29-13.73 287.29-10.35ZM305.14-21.13L310.43-21.13L310.61-18.77Q312.85-21.52 316.68-21.52L316.68-21.52Q320.76-21.52 322.29-18.30L322.29-18.30Q324.51-21.52 328.63-21.52L328.63-21.52Q332.07-21.52 333.75-19.52Q335.43-17.52 335.43-13.50L335.43-13.50L335.43 0L329.77 0L329.77-13.48Q329.77-15.27 329.06-16.10Q328.36-16.93 326.58-16.93L326.58-16.93Q324.04-16.93 323.07-14.51L323.07-14.51L323.09 0L317.44 0L317.44-13.46Q317.44-15.29 316.72-16.11Q316.00-16.93 314.26-16.93L314.26-16.93Q311.86-16.93 310.78-14.94L310.78-14.94L310.78 0L305.14 0L305.14-21.13ZM339.77-21.13L345.06-21.13L345.23-18.77Q347.48-21.52 351.31-21.52L351.31-21.52Q355.39-21.52 356.91-18.30L356.91-18.30Q359.14-21.52 363.26-21.52L363.26-21.52Q366.70-21.52 368.38-19.52Q370.06-17.52 370.06-13.50L370.06-13.50L370.06 0L364.39 0L364.39-13.48Q364.39-15.27 363.69-16.10Q362.99-16.93 361.21-16.93L361.21-16.93Q358.67-16.93 357.70-14.51L357.70-14.51L357.71 0L352.07 0L352.07-13.46Q352.07-15.29 351.35-16.11Q350.63-16.93 348.89-16.93L348.89-16.93Q346.48-16.93 345.41-14.94L345.41-14.94L345.41 0L339.77 0L339.77-21.13ZM392.34 0L386.64 0Q386.25-0.76 386.07-1.89L386.07-1.89Q384.02 0.39 380.74 0.39L380.74 0.39Q377.64 0.39 375.60-1.41Q373.55-3.20 373.55-5.94L373.55-5.94Q373.55-9.30 376.04-11.09Q378.54-12.89 383.24-12.91L383.24-12.91L385.84-12.91L385.84-14.12Q385.84-15.59 385.09-16.46Q384.34-17.34 382.71-17.34L382.71-17.34Q381.29-17.34 380.48-16.66Q379.67-15.98 379.67-14.79L379.67-14.79L374.02-14.79Q374.02-16.62 375.16-18.18Q376.29-19.75 378.36-20.63Q380.43-21.52 383.01-21.52L383.01-21.52Q386.91-21.52 389.21-19.56Q391.50-17.60 391.50-14.04L391.50-14.04L391.50-4.88Q391.52-1.88 392.34-0.33L392.34-0.33L392.34 0ZM381.97-3.93L381.97-3.93Q383.22-3.93 384.28-4.48Q385.33-5.04 385.84-5.98L385.84-5.98L385.84-9.61L383.73-9.61Q379.49-9.61 379.22-6.68L379.22-6.68L379.20-6.35Q379.20-5.29 379.94-4.61Q380.68-3.93 381.97-3.93ZM395.72-21.13L401.04-21.13L401.21-18.69Q403.48-21.52 407.29-21.52L407.29-21.52Q410.64-21.52 412.29-19.55Q413.93-17.58 413.96-13.65L413.96-13.65L413.96 0L408.32 0L408.32-13.52Q408.32-15.31 407.54-16.12Q406.76-16.93 404.94-16.93L404.94-16.93Q402.56-16.93 401.37-14.90L401.37-14.90L401.37 0L395.72 0L395.72-21.13ZM417.36-10.72L417.36-10.72Q417.36-15.66 419.58-18.59Q421.80-21.52 425.64-21.52L425.64-21.52Q428.73-21.52 430.74-19.22L430.74-19.22L430.74-30L436.41-30L436.41 0L431.31 0L431.04-2.25Q428.93 0.39 425.61 0.39L425.61 0.39Q421.88 0.39 419.62-2.55Q417.36-5.49 417.36-10.72ZM423.01-10.31L423.01-10.31Q423.01-7.34 424.04-5.76Q425.08-4.18 427.05-4.18L427.05-4.18Q429.67-4.18 430.74-6.39L430.74-6.39L430.74-14.73Q429.69-16.93 427.09-16.93L427.09-16.93Q423.01-16.93 423.01-10.31ZM460.47 0.39L460.47 0.39Q455.82 0.39 452.90-2.46Q449.98-5.31 449.98-10.06L449.98-10.06L449.98-10.61Q449.98-13.79 451.21-16.30Q452.44-18.81 454.70-20.17Q456.95-21.52 459.84-21.52L459.84-21.52Q464.18-21.52 466.67-18.79Q469.16-16.05 469.16-11.04L469.16-11.04L469.16-8.73L455.70-8.73Q455.98-6.66 457.35-5.41Q458.73-4.16 460.84-4.16L460.84-4.16Q464.10-4.16 465.94-6.52L465.94-6.52L468.71-3.42Q467.44-1.62 465.27-0.62Q463.11 0.39 460.47 0.39ZM459.82-16.95L459.82-16.95Q458.14-16.95 457.10-15.82Q456.05-14.69 455.76-12.58L455.76-12.58L463.61-12.58L463.61-13.03Q463.57-14.90 462.60-15.93Q461.62-16.95 459.82-16.95ZM476.93-21.13L480.41-14.82L483.96-21.13L490-21.13L483.98-10.78L490.25 0L484.20 0L480.43-6.64L476.68 0L470.61 0L476.88-10.78L470.88-21.13L476.93-21.13ZM502.44 0.39L502.44 0.39Q497.79 0.39 494.87-2.46Q491.95-5.31 491.95-10.06L491.95-10.06L491.95-10.61Q491.95-13.79 493.18-16.30Q494.41-18.81 496.67-20.17Q498.93-21.52 501.82-21.52L501.82-21.52Q506.15-21.52 508.64-18.79Q511.13-16.05 511.13-11.04L511.13-11.04L511.13-8.73L497.68-8.73Q497.95-6.66 499.33-5.41Q500.70-4.16 502.81-4.16L502.81-4.16Q506.07-4.16 507.91-6.52L507.91-6.52L510.68-3.42Q509.41-1.62 507.25-0.62Q505.08 0.39 502.44 0.39ZM501.80-16.95L501.80-16.95Q500.12-16.95 499.07-15.82Q498.03-14.69 497.73-12.58L497.73-12.58L505.59-12.58L505.59-13.03Q505.55-14.90 504.57-15.93Q503.59-16.95 501.80-16.95ZM523.13-4.16L523.13-4.16Q524.69-4.16 525.66-5.02Q526.64-5.88 526.68-7.30L526.68-7.30L531.97-7.30Q531.95-5.16 530.80-3.37Q529.65-1.58 527.65-0.60Q525.64 0.39 523.22 0.39L523.22 0.39Q518.69 0.39 516.07-2.49Q513.46-5.37 513.46-10.45L513.46-10.45L513.46-10.82Q513.46-15.70 516.05-18.61Q518.65-21.52 523.18-21.52L523.18-21.52Q527.15-21.52 529.54-19.27Q531.93-17.01 531.97-13.26L531.97-13.26L526.68-13.26Q526.64-14.90 525.66-15.93Q524.69-16.95 523.09-16.95L523.09-16.95Q521.11-16.95 520.11-15.52Q519.10-14.08 519.10-10.86L519.10-10.86L519.10-10.27Q519.10-7.01 520.10-5.59Q521.09-4.16 523.13-4.16ZM548.01 0L547.85-2.15Q545.76 0.39 542.07 0.39L542.07 0.39Q538.67 0.39 536.88-1.56Q535.10-3.52 535.06-7.29L535.06-7.29L535.06-21.13L540.70-21.13L540.70-7.48Q540.70-4.18 543.71-4.18L543.71-4.18Q546.58-4.18 547.66-6.17L547.66-6.17L547.66-21.13L553.32-21.13L553.32 0L548.01 0ZM558.69-26.33L564.34-26.33L564.34-21.13L567.95-21.13L567.95-16.99L564.34-16.99L564.34-6.45Q564.34-5.27 564.79-4.77Q565.23-4.26 566.50-4.26L566.50-4.26Q567.44-4.26 568.16-4.39L568.16-4.39L568.16-0.12Q566.50 0.39 564.75 0.39L564.75 0.39Q558.81 0.39 558.69-5.61L558.69-5.61L558.69-16.99L555.61-16.99L555.61-21.13L558.69-21.13L558.69-26.33ZM577.05-21.13L577.05 0L571.39 0L571.39-21.13L577.05-21.13ZM571.05-26.60L571.05-26.60Q571.05-27.87 571.90-28.69Q572.75-29.51 574.22-29.51L574.22-29.51Q575.66-29.51 576.52-28.69Q577.38-27.87 577.38-26.60L577.38-26.60Q577.38-25.31 576.51-24.49Q575.64-23.67 574.22-23.67Q572.79-23.67 571.92-24.49Q571.05-25.31 571.05-26.60ZM580.82-10.51L580.82-10.76Q580.82-13.91 582.03-16.37Q583.24-18.83 585.52-20.18Q587.79-21.52 590.80-21.52L590.80-21.52Q595.08-21.52 597.78-18.91Q600.49-16.29 600.80-11.80L600.80-11.80L600.84-10.35Q600.84-5.49 598.13-2.55Q595.41 0.39 590.84 0.39Q586.27 0.39 583.54-2.54Q580.82-5.47 580.82-10.51L580.82-10.51ZM586.46-10.35L586.46-10.35Q586.46-7.34 587.60-5.75Q588.73-4.16 590.84-4.16L590.84-4.16Q592.89-4.16 594.04-5.73Q595.20-7.30 595.20-10.76L595.20-10.76Q595.20-13.71 594.04-15.33Q592.89-16.95 590.80-16.95L590.80-16.95Q588.73-16.95 587.60-15.34Q586.46-13.73 586.46-10.35ZM604.20-21.13L609.51-21.13L609.69-18.69Q611.95-21.52 615.76-21.52L615.76-21.52Q619.12-21.52 620.76-19.55Q622.40-17.58 622.44-13.65L622.44-13.65L622.44 0L616.80 0L616.80-13.52Q616.80-15.31 616.02-16.12Q615.23-16.93 613.42-16.93L613.42-16.93Q611.04-16.93 609.84-14.90L609.84-14.90L609.84 0L604.20 0L604.20-21.13Z" transform="translate(660, 605)" fill="#ffffff" /><circle cx="620" cy="675" r="8" fill="#e94560" /><path d="M19.65-16.35L19.65-11.62L8.40-11.62L8.40 0L2.54 0L2.54-28.44L21.05-28.44L21.05-23.69L8.40-23.69L8.40-16.35L19.65-16.35ZM30.04-21.13L30.04 0L24.38 0L24.38-21.13L30.04-21.13ZM24.04-26.60L24.04-26.60Q24.04-27.87 24.89-28.69Q25.74-29.51 27.21-29.51L27.21-29.51Q28.65-29.51 29.51-28.69Q30.37-27.87 30.37-26.60L30.37-26.60Q30.37-25.31 29.50-24.49Q28.63-23.67 27.21-23.67Q25.78-23.67 24.91-24.49Q24.04-25.31 24.04-26.60ZM40.64-30L40.64 0L34.98 0L34.98-30L40.64-30ZM55.02 0.39L55.02 0.39Q50.37 0.39 47.45-2.46Q44.53-5.31 44.53-10.06L44.53-10.06L44.53-10.61Q44.53-13.79 45.76-16.30Q46.99-18.81 49.25-20.17Q51.50-21.52 54.39-21.52L54.39-21.52Q58.73-21.52 61.22-18.79Q63.71-16.05 63.71-11.04L63.71-11.04L63.71-8.73L50.25-8.73Q50.53-6.66 51.90-5.41Q53.28-4.16 55.39-4.16L55.39-4.16Q58.65-4.16 60.49-6.52L60.49-6.52L63.26-3.42Q61.99-1.62 59.82-0.62Q57.66 0.39 55.02 0.39ZM54.38-16.95L54.38-16.95Q52.70-16.95 51.65-15.82Q50.61-14.69 50.31-12.58L50.31-12.58L58.16-12.58L58.16-13.03Q58.13-14.90 57.15-15.93Q56.17-16.95 54.38-16.95ZM88.32-5.84L88.32-5.84Q88.32-6.88 87.29-7.47Q86.27-8.07 84.00-8.54L84.00-8.54Q76.46-10.12 76.46-14.94L76.46-14.94Q76.46-17.75 78.80-19.64Q81.13-21.52 84.90-21.52L84.90-21.52Q88.93-21.52 91.34-19.63Q93.75-17.73 93.75-14.71L93.75-14.71L88.11-14.71Q88.11-15.92 87.32-16.71Q86.54-17.50 84.88-17.50L84.88-17.50Q83.46-17.50 82.68-16.86Q81.89-16.21 81.89-15.21L81.89-15.21Q81.89-14.28 82.78-13.70Q83.67-13.13 85.78-12.71Q87.89-12.29 89.34-11.76L89.34-11.76Q93.81-10.12 93.81-6.07L93.81-6.07Q93.81-3.18 91.33-1.40Q88.85 0.39 84.92 0.39L84.92 0.39Q82.27 0.39 80.21-0.56Q78.14-1.50 76.97-3.15Q75.80-4.80 75.80-6.72L75.80-6.72L81.15-6.72Q81.23-5.21 82.27-4.41Q83.30-3.61 85.04-3.61L85.04-3.61Q86.66-3.61 87.49-4.23Q88.32-4.84 88.32-5.84ZM101.41-21.13L105.33-7.99L109.24-21.13L115.29-21.13L106.80 3.28L106.33 4.39Q104.43 8.54 100.08 8.54L100.08 8.54Q98.85 8.54 97.58 8.16L97.58 8.16L97.58 3.89L98.44 3.91Q100.04 3.91 100.83 3.42Q101.62 2.93 102.07 1.80L102.07 1.80L102.73 0.06L95.33-21.13L101.41-21.13ZM128.96-5.84L128.96-5.84Q128.96-6.88 127.94-7.47Q126.91-8.07 124.65-8.54L124.65-8.54Q117.11-10.12 117.11-14.94L117.11-14.94Q117.11-17.75 119.44-19.64Q121.78-21.52 125.55-21.52L125.55-21.52Q129.57-21.52 131.98-19.63Q134.39-17.73 134.39-14.71L134.39-14.71L128.75-14.71Q128.75-15.92 127.97-16.71Q127.19-17.50 125.53-17.50L125.53-17.50Q124.10-17.50 123.32-16.86Q122.54-16.21 122.54-15.21L122.54-15.21Q122.54-14.28 123.43-13.70Q124.32-13.13 126.43-12.71Q128.54-12.29 129.98-11.76L129.98-11.76Q134.45-10.12 134.45-6.07L134.45-6.07Q134.45-3.18 131.97-1.40Q129.49 0.39 125.57 0.39L125.57 0.39Q122.91 0.39 120.85-0.56Q118.79-1.50 117.62-3.15Q116.45-4.80 116.45-6.72L116.45-6.72L121.80-6.72Q121.88-5.21 122.91-4.41Q123.95-3.61 125.68-3.61L125.68-3.61Q127.30-3.61 128.13-4.23Q128.96-4.84 128.96-5.84ZM139.20-26.33L144.84-26.33L144.84-21.13L148.46-21.13L148.46-16.99L144.84-16.99L144.84-6.45Q144.84-5.27 145.29-4.77Q145.74-4.26 147.01-4.26L147.01-4.26Q147.95-4.26 148.67-4.39L148.67-4.39L148.67-0.12Q147.01 0.39 145.25 0.39L145.25 0.39Q139.32 0.39 139.20-5.61L139.20-5.61L139.20-16.99L136.11-16.99L136.11-21.13L139.20-21.13L139.20-26.33ZM161.33 0.39L161.33 0.39Q156.68 0.39 153.76-2.46Q150.84-5.31 150.84-10.06L150.84-10.06L150.84-10.61Q150.84-13.79 152.07-16.30Q153.30-18.81 155.56-20.17Q157.81-21.52 160.70-21.52L160.70-21.52Q165.04-21.52 167.53-18.79Q170.02-16.05 170.02-11.04L170.02-11.04L170.02-8.73L156.56-8.73Q156.84-6.66 158.21-5.41Q159.59-4.16 161.70-4.16L161.70-4.16Q164.96-4.16 166.80-6.52L166.80-6.52L169.57-3.42Q168.30-1.62 166.13-0.62Q163.96 0.39 161.33 0.39ZM160.68-16.95L160.68-16.95Q159.00-16.95 157.96-15.82Q156.91-14.69 156.62-12.58L156.62-12.58L164.47-12.58L164.47-13.03Q164.43-14.90 163.46-15.93Q162.48-16.95 160.68-16.95ZM173.22-21.13L178.52-21.13L178.69-18.77Q180.94-21.52 184.77-21.52L184.77-21.52Q188.85-21.52 190.37-18.30L190.37-18.30Q192.60-21.52 196.72-21.52L196.72-21.52Q200.16-21.52 201.84-19.52Q203.52-17.52 203.52-13.50L203.52-13.50L203.52 0L197.85 0L197.85-13.48Q197.85-15.27 197.15-16.10Q196.45-16.93 194.67-16.93L194.67-16.93Q192.13-16.93 191.15-14.51L191.15-14.51L191.17 0L185.53 0L185.53-13.46Q185.53-15.29 184.80-16.11Q184.08-16.93 182.34-16.93L182.34-16.93Q179.94-16.93 178.87-14.94L178.87-14.94L178.87 0L173.22 0L173.22-21.13ZM216.93-10.51L216.93-10.76Q216.93-13.91 218.14-16.37Q219.36-18.83 221.63-20.18Q223.91-21.52 226.91-21.52L226.91-21.52Q231.19-21.52 233.90-18.91Q236.60-16.29 236.91-11.80L236.91-11.80L236.95-10.35Q236.95-5.49 234.24-2.55Q231.52 0.39 226.95 0.39Q222.38 0.39 219.66-2.54Q216.93-5.47 216.93-10.51L216.93-10.51ZM222.58-10.35L222.58-10.35Q222.58-7.34 223.71-5.75Q224.84-4.16 226.95-4.16L226.95-4.16Q229.00-4.16 230.16-5.73Q231.31-7.30 231.31-10.76L231.31-10.76Q231.31-13.71 230.16-15.33Q229.00-16.95 226.91-16.95L226.91-16.95Q224.84-16.95 223.71-15.34Q222.58-13.73 222.58-10.35ZM259.45-10.66L259.45-10.37Q259.45-5.49 257.24-2.55Q255.02 0.39 251.25 0.39L251.25 0.39Q248.05 0.39 246.07-1.84L246.07-1.84L246.07 8.13L240.43 8.13L240.43-21.13L245.66-21.13L245.86-19.06Q247.91-21.52 251.21-21.52L251.21-21.52Q255.12-21.52 257.29-18.63Q259.45-15.74 259.45-10.66L259.45-10.66ZM253.81-10.78L253.81-10.78Q253.81-13.73 252.76-15.33Q251.72-16.93 249.73-16.93L249.73-16.93Q247.07-16.93 246.07-14.90L246.07-14.90L246.07-6.25Q247.11-4.16 249.77-4.16L249.77-4.16Q253.81-4.16 253.81-10.78ZM272.68 0.39L272.68 0.39Q268.03 0.39 265.11-2.46Q262.19-5.31 262.19-10.06L262.19-10.06L262.19-10.61Q262.19-13.79 263.42-16.30Q264.65-18.81 266.90-20.17Q269.16-21.52 272.05-21.52L272.05-21.52Q276.39-21.52 278.88-18.79Q281.37-16.05 281.37-11.04L281.37-11.04L281.37-8.73L267.91-8.73Q268.18-6.66 269.56-5.41Q270.94-4.16 273.05-4.16L273.05-4.16Q276.31-4.16 278.14-6.52L278.14-6.52L280.92-3.42Q279.65-1.62 277.48-0.62Q275.31 0.39 272.68 0.39ZM272.03-16.95L272.03-16.95Q270.35-16.95 269.31-15.82Q268.26-14.69 267.97-12.58L267.97-12.58L275.82-12.58L275.82-13.03Q275.78-14.90 274.80-15.93Q273.83-16.95 272.03-16.95ZM296.52-21.27L296.45-15.84Q295.29-16.00 294.41-16.00L294.41-16.00Q291.21-16.00 290.21-13.83L290.21-13.83L290.21 0L284.57 0L284.57-21.13L289.90-21.13L290.06-18.61Q291.76-21.52 294.77-21.52L294.77-21.52Q295.70-21.52 296.52-21.27L296.52-21.27ZM317.11 0L311.41 0Q311.02-0.76 310.84-1.89L310.84-1.89Q308.79 0.39 305.51 0.39L305.51 0.39Q302.40 0.39 300.36-1.41Q298.32-3.20 298.32-5.94L298.32-5.94Q298.32-9.30 300.81-11.09Q303.30-12.89 308.01-12.91L308.01-12.91L310.61-12.91L310.61-14.12Q310.61-15.59 309.85-16.46Q309.10-17.34 307.48-17.34L307.48-17.34Q306.05-17.34 305.24-16.66Q304.43-15.98 304.43-14.79L304.43-14.79L298.79-14.79Q298.79-16.62 299.92-18.18Q301.05-19.75 303.13-20.63Q305.20-21.52 307.77-21.52L307.77-21.52Q311.68-21.52 313.97-19.56Q316.27-17.60 316.27-14.04L316.27-14.04L316.27-4.88Q316.29-1.88 317.11-0.33L317.11-0.33L317.11 0ZM306.74-3.93L306.74-3.93Q307.99-3.93 309.04-4.48Q310.10-5.04 310.61-5.98L310.61-5.98L310.61-9.61L308.50-9.61Q304.26-9.61 303.98-6.68L303.98-6.68L303.96-6.35Q303.96-5.29 304.71-4.61Q305.45-3.93 306.74-3.93ZM321.72-26.33L327.36-26.33L327.36-21.13L330.98-21.13L330.98-16.99L327.36-16.99L327.36-6.45Q327.36-5.27 327.81-4.77Q328.26-4.26 329.53-4.26L329.53-4.26Q330.47-4.26 331.19-4.39L331.19-4.39L331.19-0.12Q329.53 0.39 327.77 0.39L327.77 0.39Q321.84 0.39 321.72-5.61L321.72-5.61L321.72-16.99L318.63-16.99L318.63-21.13L321.72-21.13L321.72-26.33ZM340.08-21.13L340.08 0L334.41 0L334.41-21.13L340.08-21.13ZM334.08-26.60L334.08-26.60Q334.08-27.87 334.93-28.69Q335.78-29.51 337.25-29.51L337.25-29.51Q338.69-29.51 339.55-28.69Q340.41-27.87 340.41-26.60L340.41-26.60Q340.41-25.31 339.54-24.49Q338.67-23.67 337.25-23.67Q335.82-23.67 334.95-24.49Q334.08-25.31 334.08-26.60ZM343.85-10.51L343.85-10.76Q343.85-13.91 345.06-16.37Q346.27-18.83 348.54-20.18Q350.82-21.52 353.83-21.52L353.83-21.52Q358.11-21.52 360.81-18.91Q363.52-16.29 363.83-11.80L363.83-11.80L363.87-10.35Q363.87-5.49 361.15-2.55Q358.44 0.39 353.87 0.39Q349.30 0.39 346.57-2.54Q343.85-5.47 343.85-10.51L343.85-10.51ZM349.49-10.35L349.49-10.35Q349.49-7.34 350.63-5.75Q351.76-4.16 353.87-4.16L353.87-4.16Q355.92-4.16 357.07-5.73Q358.22-7.30 358.22-10.76L358.22-10.76Q358.22-13.71 357.07-15.33Q355.92-16.95 353.83-16.95L353.83-16.95Q351.76-16.95 350.63-15.34Q349.49-13.73 349.49-10.35ZM367.23-21.13L372.54-21.13L372.71-18.69Q374.98-21.52 378.79-21.52L378.79-21.52Q382.15-21.52 383.79-19.55Q385.43-17.58 385.47-13.65L385.47-13.65L385.47 0L379.82 0L379.82-13.52Q379.82-15.31 379.04-16.12Q378.26-16.93 376.45-16.93L376.45-16.93Q374.06-16.93 372.87-14.90L372.87-14.90L372.87 0L367.23 0L367.23-21.13ZM401.19-5.84L401.19-5.84Q401.19-6.88 400.17-7.47Q399.14-8.07 396.88-8.54L396.88-8.54Q389.34-10.12 389.34-14.94L389.34-14.94Q389.34-17.75 391.67-19.64Q394.00-21.52 397.77-21.52L397.77-21.52Q401.80-21.52 404.21-19.63Q406.62-17.73 406.62-14.71L406.62-14.71L400.98-14.71Q400.98-15.92 400.20-16.71Q399.41-17.50 397.75-17.50L397.75-17.50Q396.33-17.50 395.55-16.86Q394.77-16.21 394.77-15.21L394.77-15.21Q394.77-14.28 395.65-13.70Q396.54-13.13 398.65-12.71Q400.76-12.29 402.21-11.76L402.21-11.76Q406.68-10.12 406.68-6.07L406.68-6.07Q406.68-3.18 404.20-1.40Q401.72 0.39 397.79 0.39L397.79 0.39Q395.14 0.39 393.08-0.56Q391.02-1.50 389.84-3.15Q388.67-4.80 388.67-6.72L388.67-6.72L394.02-6.72Q394.10-5.21 395.14-4.41Q396.17-3.61 397.91-3.61L397.91-3.61Q399.53-3.61 400.36-4.23Q401.19-4.84 401.19-5.84Z" transform="translate(660, 675)" fill="#ffffff" /><circle cx="620" cy="745" r="8" fill="#e94560" /><path d="M17.29-7.46L17.29-7.46Q17.29-9.12 16.11-10.01Q14.94-10.90 11.89-11.88Q8.85-12.87 7.07-13.83L7.07-13.83Q2.23-16.45 2.23-20.88L2.23-20.88Q2.23-23.18 3.53-24.99Q4.82-26.80 7.26-27.81Q9.69-28.83 12.71-28.83L12.71-28.83Q15.76-28.83 18.14-27.72Q20.53-26.62 21.85-24.61Q23.16-22.60 23.16-20.04L23.16-20.04L17.30-20.04Q17.30-21.99 16.07-23.08Q14.84-24.16 12.62-24.16L12.62-24.16Q10.47-24.16 9.28-23.25Q8.09-22.34 8.09-20.86L8.09-20.86Q8.09-19.47 9.48-18.54Q10.88-17.60 13.59-16.78L13.59-16.78Q18.59-15.27 20.88-13.05Q23.16-10.82 23.16-7.50L23.16-7.50Q23.16-3.81 20.37-1.71Q17.58 0.39 12.85 0.39L12.85 0.39Q9.57 0.39 6.88-0.81Q4.18-2.01 2.76-4.10Q1.35-6.19 1.35-8.95L1.35-8.95L7.23-8.95Q7.23-4.24 12.85-4.24L12.85-4.24Q14.94-4.24 16.11-5.09Q17.29-5.94 17.29-7.46ZM30.72-21.13L34.65-7.99L38.55-21.13L44.61-21.13L36.11 3.28L35.64 4.39Q33.75 8.54 29.39 8.54L29.39 8.54Q28.16 8.54 26.89 8.16L26.89 8.16L26.89 3.89L27.75 3.91Q29.36 3.91 30.15 3.42Q30.94 2.93 31.39 1.80L31.39 1.80L32.05 0.06L24.65-21.13L30.72-21.13ZM58.28-5.84L58.28-5.84Q58.28-6.88 57.26-7.47Q56.23-8.07 53.96-8.54L53.96-8.54Q46.43-10.12 46.43-14.94L46.43-14.94Q46.43-17.75 48.76-19.64Q51.09-21.52 54.86-21.52L54.86-21.52Q58.89-21.52 61.30-19.63Q63.71-17.73 63.71-14.71L63.71-14.71L58.07-14.71Q58.07-15.92 57.29-16.71Q56.50-17.50 54.84-17.50L54.84-17.50Q53.42-17.50 52.64-16.86Q51.86-16.21 51.86-15.21L51.86-15.21Q51.86-14.28 52.74-13.70Q53.63-13.13 55.74-12.71Q57.85-12.29 59.30-11.76L59.30-11.76Q63.77-10.12 63.77-6.07L63.77-6.07Q63.77-3.18 61.29-1.40Q58.81 0.39 54.88 0.39L54.88 0.39Q52.23 0.39 50.17-0.56Q48.11-1.50 46.93-3.15Q45.76-4.80 45.76-6.72L45.76-6.72L51.11-6.72Q51.19-5.21 52.23-4.41Q53.26-3.61 55-3.61L55-3.61Q56.62-3.61 57.45-4.23Q58.28-4.84 58.28-5.84ZM68.52-26.33L74.16-26.33L74.16-21.13L77.77-21.13L77.77-16.99L74.16-16.99L74.16-6.45Q74.16-5.27 74.61-4.77Q75.06-4.26 76.33-4.26L76.33-4.26Q77.27-4.26 77.99-4.39L77.99-4.39L77.99-0.12Q76.33 0.39 74.57 0.39L74.57 0.39Q68.63 0.39 68.52-5.61L68.52-5.61L68.52-16.99L65.43-16.99L65.43-21.13L68.52-21.13L68.52-26.33ZM90.64 0.39L90.64 0.39Q86.00 0.39 83.08-2.46Q80.16-5.31 80.16-10.06L80.16-10.06L80.16-10.61Q80.16-13.79 81.39-16.30Q82.62-18.81 84.87-20.17Q87.13-21.52 90.02-21.52L90.02-21.52Q94.36-21.52 96.85-18.79Q99.34-16.05 99.34-11.04L99.34-11.04L99.34-8.73L85.88-8.73Q86.15-6.66 87.53-5.41Q88.91-4.16 91.02-4.16L91.02-4.16Q94.28-4.16 96.11-6.52L96.11-6.52L98.89-3.42Q97.62-1.62 95.45-0.62Q93.28 0.39 90.64 0.39ZM90-16.95L90-16.95Q88.32-16.95 87.28-15.82Q86.23-14.69 85.94-12.58L85.94-12.58L93.79-12.58L93.79-13.03Q93.75-14.90 92.77-15.93Q91.80-16.95 90-16.95ZM102.54-21.13L107.83-21.13L108.01-18.77Q110.25-21.52 114.08-21.52L114.08-21.52Q118.16-21.52 119.69-18.30L119.69-18.30Q121.91-21.52 126.04-21.52L126.04-21.52Q129.47-21.52 131.15-19.52Q132.83-17.52 132.83-13.50L132.83-13.50L132.83 0L127.17 0L127.17-13.48Q127.17-15.27 126.46-16.10Q125.76-16.93 123.98-16.93L123.98-16.93Q121.45-16.93 120.47-14.51L120.47-14.51L120.49 0L114.84 0L114.84-13.46Q114.84-15.29 114.12-16.11Q113.40-16.93 111.66-16.93L111.66-16.93Q109.26-16.93 108.18-14.94L108.18-14.94L108.18 0L102.54 0L102.54-21.13ZM136.29-10.72L136.29-10.72Q136.29-15.66 138.51-18.59Q140.72-21.52 144.57-21.52L144.57-21.52Q147.66-21.52 149.67-19.22L149.67-19.22L149.67-30L155.33-30L155.33 0L150.23 0L149.96-2.25Q147.85 0.39 144.53 0.39L144.53 0.39Q140.80 0.39 138.54-2.55Q136.29-5.49 136.29-10.72ZM141.93-10.31L141.93-10.31Q141.93-7.34 142.97-5.76Q144.00-4.18 145.98-4.18L145.98-4.18Q148.59-4.18 149.67-6.39L149.67-6.39L149.67-14.73Q148.61-16.93 146.02-16.93L146.02-16.93Q141.93-16.93 141.93-10.31ZM181.11-5.84L181.11-5.84Q181.11-6.88 180.09-7.47Q179.06-8.07 176.80-8.54L176.80-8.54Q169.26-10.12 169.26-14.94L169.26-14.94Q169.26-17.75 171.59-19.64Q173.93-21.52 177.70-21.52L177.70-21.52Q181.72-21.52 184.13-19.63Q186.54-17.73 186.54-14.71L186.54-14.71L180.90-14.71Q180.90-15.92 180.12-16.71Q179.34-17.50 177.68-17.50L177.68-17.50Q176.25-17.50 175.47-16.86Q174.69-16.21 174.69-15.21L174.69-15.21Q174.69-14.28 175.58-13.70Q176.46-13.13 178.57-12.71Q180.68-12.29 182.13-11.76L182.13-11.76Q186.60-10.12 186.60-6.07L186.60-6.07Q186.60-3.18 184.12-1.40Q181.64 0.39 177.71 0.39L177.71 0.39Q175.06 0.39 173.00-0.56Q170.94-1.50 169.77-3.15Q168.59-4.80 168.59-6.72L168.59-6.72L173.95-6.72Q174.02-5.21 175.06-4.41Q176.09-3.61 177.83-3.61L177.83-3.61Q179.45-3.61 180.28-4.23Q181.11-4.84 181.11-5.84ZM199.96 0.39L199.96 0.39Q195.31 0.39 192.39-2.46Q189.47-5.31 189.47-10.06L189.47-10.06L189.47-10.61Q189.47-13.79 190.70-16.30Q191.93-18.81 194.19-20.17Q196.45-21.52 199.34-21.52L199.34-21.52Q203.67-21.52 206.16-18.79Q208.65-16.05 208.65-11.04L208.65-11.04L208.65-8.73L195.20-8.73Q195.47-6.66 196.85-5.41Q198.22-4.16 200.33-4.16L200.33-4.16Q203.59-4.16 205.43-6.52L205.43-6.52L208.20-3.42Q206.93-1.62 204.77-0.62Q202.60 0.39 199.96 0.39ZM199.32-16.95L199.32-16.95Q197.64-16.95 196.59-15.82Q195.55-14.69 195.25-12.58L195.25-12.58L203.11-12.58L203.11-13.03Q203.07-14.90 202.09-15.93Q201.11-16.95 199.32-16.95ZM223.81-21.27L223.73-15.84Q222.58-16.00 221.70-16.00L221.70-16.00Q218.50-16.00 217.50-13.83L217.50-13.83L217.50 0L211.86 0L211.86-21.13L217.19-21.13L217.34-18.61Q219.04-21.52 222.05-21.52L222.05-21.52Q222.99-21.52 223.81-21.27L223.81-21.27ZM230.43-21.13L234.36-6.89L238.28-21.13L244.18-21.13L237.05 0L231.66 0L224.53-21.13L230.43-21.13ZM252.62-21.13L252.62 0L246.95 0L246.95-21.13L252.62-21.13ZM246.62-26.60L246.62-26.60Q246.62-27.87 247.47-28.69Q248.32-29.51 249.79-29.51L249.79-29.51Q251.23-29.51 252.09-28.69Q252.95-27.87 252.95-26.60L252.95-26.60Q252.95-25.31 252.08-24.49Q251.21-23.67 249.79-23.67Q248.36-23.67 247.49-24.49Q246.62-25.31 246.62-26.60ZM266.05-4.16L266.05-4.16Q267.62-4.16 268.59-5.02Q269.57-5.88 269.61-7.30L269.61-7.30L274.90-7.30Q274.88-5.16 273.73-3.37Q272.58-1.58 270.58-0.60Q268.57 0.39 266.15 0.39L266.15 0.39Q261.62 0.39 259.00-2.49Q256.39-5.37 256.39-10.45L256.39-10.45L256.39-10.82Q256.39-15.70 258.98-18.61Q261.58-21.52 266.11-21.52L266.11-21.52Q270.08-21.52 272.47-19.27Q274.86-17.01 274.90-13.26L274.90-13.26L269.61-13.26Q269.57-14.90 268.59-15.93Q267.62-16.95 266.02-16.95L266.02-16.95Q264.04-16.95 263.04-15.52Q262.03-14.08 262.03-10.86L262.03-10.86L262.03-10.27Q262.03-7.01 263.03-5.59Q264.02-4.16 266.05-4.16ZM287.85 0.39L287.85 0.39Q283.20 0.39 280.28-2.46Q277.36-5.31 277.36-10.06L277.36-10.06L277.36-10.61Q277.36-13.79 278.59-16.30Q279.82-18.81 282.08-20.17Q284.34-21.52 287.23-21.52L287.23-21.52Q291.56-21.52 294.05-18.79Q296.54-16.05 296.54-11.04L296.54-11.04L296.54-8.73L283.09-8.73Q283.36-6.66 284.74-5.41Q286.11-4.16 288.22-4.16L288.22-4.16Q291.48-4.16 293.32-6.52L293.32-6.52L296.09-3.42Q294.82-1.62 292.66-0.62Q290.49 0.39 287.85 0.39ZM287.21-16.95L287.21-16.95Q285.53-16.95 284.48-15.82Q283.44-14.69 283.14-12.58L283.14-12.58L291.00-12.58L291.00-13.03Q290.96-14.90 289.98-15.93Q289.00-16.95 287.21-16.95ZM309.71-21.13L315-21.13L315.18-18.77Q317.42-21.52 321.25-21.52L321.25-21.52Q325.33-21.52 326.86-18.30L326.86-18.30Q329.08-21.52 333.20-21.52L333.20-21.52Q336.64-21.52 338.32-19.52Q340-17.52 340-13.50L340-13.50L340 0L334.34 0L334.34-13.48Q334.34-15.27 333.63-16.10Q332.93-16.93 331.15-16.93L331.15-16.93Q328.61-16.93 327.64-14.51L327.64-14.51L327.66 0L322.01 0L322.01-13.46Q322.01-15.29 321.29-16.11Q320.57-16.93 318.83-16.93L318.83-16.93Q316.43-16.93 315.35-14.94L315.35-14.94L315.35 0L309.71 0L309.71-21.13ZM362.29 0L356.58 0Q356.19-0.76 356.02-1.89L356.02-1.89Q353.96 0.39 350.68 0.39L350.68 0.39Q347.58 0.39 345.54-1.41Q343.50-3.20 343.50-5.94L343.50-5.94Q343.50-9.30 345.99-11.09Q348.48-12.89 353.18-12.91L353.18-12.91L355.78-12.91L355.78-14.12Q355.78-15.59 355.03-16.46Q354.28-17.34 352.66-17.34L352.66-17.34Q351.23-17.34 350.42-16.66Q349.61-15.98 349.61-14.79L349.61-14.79L343.96-14.79Q343.96-16.62 345.10-18.18Q346.23-19.75 348.30-20.63Q350.37-21.52 352.95-21.52L352.95-21.52Q356.86-21.52 359.15-19.56Q361.45-17.60 361.45-14.04L361.45-14.04L361.45-4.88Q361.46-1.88 362.29-0.33L362.29-0.33L362.29 0ZM351.91-3.93L351.91-3.93Q353.16-3.93 354.22-4.48Q355.27-5.04 355.78-5.98L355.78-5.98L355.78-9.61L353.67-9.61Q349.43-9.61 349.16-6.68L349.16-6.68L349.14-6.35Q349.14-5.29 349.88-4.61Q350.63-3.93 351.91-3.93ZM365.66-21.13L370.98-21.13L371.15-18.69Q373.42-21.52 377.23-21.52L377.23-21.52Q380.59-21.52 382.23-19.55Q383.87-17.58 383.91-13.65L383.91-13.65L383.91 0L378.26 0L378.26-13.52Q378.26-15.31 377.48-16.12Q376.70-16.93 374.88-16.93L374.88-16.93Q372.50-16.93 371.31-14.90L371.31-14.90L371.31 0L365.66 0L365.66-21.13ZM406.13 0L400.43 0Q400.04-0.76 399.86-1.89L399.86-1.89Q397.81 0.39 394.53 0.39L394.53 0.39Q391.43 0.39 389.38-1.41Q387.34-3.20 387.34-5.94L387.34-5.94Q387.34-9.30 389.83-11.09Q392.32-12.89 397.03-12.91L397.03-12.91L399.63-12.91L399.63-14.12Q399.63-15.59 398.88-16.46Q398.13-17.34 396.50-17.34L396.50-17.34Q395.08-17.34 394.27-16.66Q393.46-15.98 393.46-14.79L393.46-14.79L387.81-14.79Q387.81-16.62 388.95-18.18Q390.08-19.75 392.15-20.63Q394.22-21.52 396.80-21.52L396.80-21.52Q400.70-21.52 403.00-19.56Q405.29-17.60 405.29-14.04L405.29-14.04L405.29-4.88Q405.31-1.88 406.13-0.33L406.13-0.33L406.13 0ZM395.76-3.93L395.76-3.93Q397.01-3.93 398.07-4.48Q399.12-5.04 399.63-5.98L399.63-5.98L399.63-9.61L397.52-9.61Q393.28-9.61 393.01-6.68L393.01-6.68L392.99-6.35Q392.99-5.29 393.73-4.61Q394.47-3.93 395.76-3.93ZM408.81-10.49L408.81-10.72Q408.81-15.59 411.12-18.55Q413.44-21.52 417.36-21.52L417.36-21.52Q420.84-21.52 422.77-19.14L422.77-19.14L423.01-21.13L428.13-21.13L428.13-0.70Q428.13 2.07 426.87 4.12Q425.61 6.17 423.32 7.25Q421.04 8.32 417.97 8.32L417.97 8.32Q415.64 8.32 413.44 7.39Q411.23 6.46 410.10 5L410.10 5L412.60 1.56Q414.71 3.93 417.71 3.93L417.71 3.93Q419.96 3.93 421.21 2.72Q422.46 1.52 422.46-0.68L422.46-0.68L422.46-1.82Q420.51 0.39 417.32 0.39L417.32 0.39Q413.52 0.39 411.16-2.59Q408.81-5.57 408.81-10.49L408.81-10.49ZM414.45-10.31L414.45-10.31Q414.45-7.44 415.61-5.81Q416.76-4.18 418.77-4.18L418.77-4.18Q421.35-4.18 422.46-6.11L422.46-6.11L422.46-15Q421.33-16.93 418.81-16.93L418.81-16.93Q416.78-16.93 415.62-15.27Q414.45-13.61 414.45-10.31ZM442.19 0.39L442.19 0.39Q437.54 0.39 434.62-2.46Q431.70-5.31 431.70-10.06L431.70-10.06L431.70-10.61Q431.70-13.79 432.93-16.30Q434.16-18.81 436.42-20.17Q438.67-21.52 441.56-21.52L441.56-21.52Q445.90-21.52 448.39-18.79Q450.88-16.05 450.88-11.04L450.88-11.04L450.88-8.73L437.42-8.73Q437.70-6.66 439.07-5.41Q440.45-4.16 442.56-4.16L442.56-4.16Q445.82-4.16 447.66-6.52L447.66-6.52L450.43-3.42Q449.16-1.62 446.99-0.62Q444.82 0.39 442.19 0.39ZM441.54-16.95L441.54-16.95Q439.86-16.95 438.82-15.82Q437.77-14.69 437.48-12.58L437.48-12.58L445.33-12.58L445.33-13.03Q445.29-14.90 444.32-15.93Q443.34-16.95 441.54-16.95ZM454.08-21.13L459.38-21.13L459.55-18.77Q461.80-21.52 465.63-21.52L465.63-21.52Q469.71-21.52 471.23-18.30L471.23-18.30Q473.46-21.52 477.58-21.52L477.58-21.52Q481.02-21.52 482.70-19.52Q484.38-17.52 484.38-13.50L484.38-13.50L484.38 0L478.71 0L478.71-13.48Q478.71-15.27 478.01-16.10Q477.30-16.93 475.53-16.93L475.53-16.93Q472.99-16.93 472.01-14.51L472.01-14.51L472.03 0L466.39 0L466.39-13.46Q466.39-15.29 465.66-16.11Q464.94-16.93 463.20-16.93L463.20-16.93Q460.80-16.93 459.73-14.94L459.73-14.94L459.73 0L454.08 0L454.08-21.13ZM498.44 0.39L498.44 0.39Q493.79 0.39 490.87-2.46Q487.95-5.31 487.95-10.06L487.95-10.06L487.95-10.61Q487.95-13.79 489.18-16.30Q490.41-18.81 492.67-20.17Q494.92-21.52 497.81-21.52L497.81-21.52Q502.15-21.52 504.64-18.79Q507.13-16.05 507.13-11.04L507.13-11.04L507.13-8.73L493.67-8.73Q493.95-6.66 495.32-5.41Q496.70-4.16 498.81-4.16L498.81-4.16Q502.07-4.16 503.91-6.52L503.91-6.52L506.68-3.42Q505.41-1.62 503.24-0.62Q501.07 0.39 498.44 0.39ZM497.79-16.95L497.79-16.95Q496.11-16.95 495.07-15.82Q494.02-14.69 493.73-12.58L493.73-12.58L501.58-12.58L501.58-13.03Q501.54-14.90 500.57-15.93Q499.59-16.95 497.79-16.95ZM510.21-21.13L515.53-21.13L515.70-18.69Q517.97-21.52 521.78-21.52L521.78-21.52Q525.14-21.52 526.78-19.55Q528.42-17.58 528.46-13.65L528.46-13.65L528.46 0L522.81 0L522.81-13.52Q522.81-15.31 522.03-16.12Q521.25-16.93 519.43-16.93L519.43-16.93Q517.05-16.93 515.86-14.90L515.86-14.90L515.86 0L510.21 0L510.21-21.13ZM533.85-26.33L539.49-26.33L539.49-21.13L543.11-21.13L543.11-16.99L539.49-16.99L539.49-6.45Q539.49-5.27 539.94-4.77Q540.39-4.26 541.66-4.26L541.66-4.26Q542.60-4.26 543.32-4.39L543.32-4.39L543.32-0.12Q541.66 0.39 539.90 0.39L539.90 0.39Q533.96 0.39 533.85-5.61L533.85-5.61L533.85-16.99L530.76-16.99L530.76-21.13L533.85-21.13L533.85-26.33Z" transform="translate(660, 745)" fill="#ffffff" />
  <text x="960" y="1030" font-family="Arial" font-size="24" fill="#666" text-anchor="middle">OpenClaw Documentation</text>
  <line x1="880" y1="1045" x2="1040" y2="1045" stroke="#e94560" stroke-width="3" opacity="0.6"/>
</svg>