<?xml version="1.0" encoding="UTF-8"?>
<svg width="1920" height="1080" xmlns="http://www.w3.org/2000/svg">
  <defs>
    <linearGradient id="bg" x1="0%" y1="0%" x2="100%" y2="100%">
      <stop offset="0%" style="stop-color:#1a1a2e;stop-opacity:1" />
      <stop offset="100%" style="stop-color:#0f0f1a;stop-opacity:1" />
    </linearGradient>
  </defs>
  <rect width="100%" height="100%" fill="url(#bg)"/>
  <circle cx="1920" cy="0" r="600" fill="#e94560" opacity="0.1"/>
  <circle cx="0" cy="1080" r="400" fill="#e94560" opacity="0.1"/>
  <rect width="1920" height="15" fill="#e94560"/>
  <path d="M22.80-11.37L29.84-11.37Q29.44-5.86 25.77-2.70Q22.10 0.47 16.10 0.47L16.10 0.47Q9.54 0.47 5.78-3.95Q2.02-8.37 2.02-16.08L2.02-16.08L2.02-18.16Q2.02-23.09 3.75-26.84Q5.48-30.59 8.71-32.59Q11.93-34.59 16.20-34.59L16.20-34.59Q22.10-34.59 25.71-31.43Q29.32-28.27 29.88-22.55L29.88-22.55L22.85-22.55Q22.59-25.85 21.01-27.34Q19.43-28.83 16.20-28.83L16.20-28.83Q12.68-28.83 10.93-26.31Q9.19-23.79 9.14-18.49L9.14-18.49L9.14-15.91Q9.14-10.38 10.82-7.83Q12.49-5.27 16.10-5.27L16.10-5.27Q19.36-5.27 20.96-6.76Q22.57-8.25 22.80-11.37L22.80-11.37ZM40.62-36L40.62-22.59Q43.31-25.83 47.39-25.83L47.39-25.83Q55.64-25.83 55.76-16.24L55.76-16.24L55.76 0L48.98 0L48.98-16.05Q48.98-18.23 48.05-19.28Q47.11-20.32 44.93-20.32L44.93-20.32Q41.95-20.32 40.62-18.02L40.62-18.02L40.62 0L33.84 0L33.84-36L40.62-36ZM82.41 0L75.56 0Q75.09-0.91 74.88-2.27L74.88-2.27Q72.42 0.47 68.48 0.47L68.48 0.47Q64.76 0.47 62.31-1.69Q59.86-3.84 59.86-7.13L59.86-7.13Q59.86-11.16 62.85-13.31Q65.84-15.47 71.48-15.49L71.48-15.49L74.60-15.49L74.60-16.95Q74.60-18.70 73.70-19.76Q72.80-20.81 70.85-20.81L70.85-20.81Q69.14-20.81 68.17-19.99Q67.20-19.17 67.20-17.74L67.20-17.74L60.42-17.74Q60.42-19.95 61.78-21.82Q63.14-23.70 65.63-24.76Q68.11-25.83 71.20-25.83L71.20-25.83Q75.89-25.83 78.64-23.47Q81.40-21.12 81.40-16.85L81.40-16.85L81.40-5.86Q81.42-2.25 82.41-0.40L82.41-0.40L82.41 0ZM69.96-4.71L69.96-4.71Q71.46-4.71 72.73-5.38Q73.99-6.05 74.60-7.17L74.60-7.17L74.60-11.53L72.07-11.53Q66.98-11.53 66.66-8.02L66.66-8.02L66.63-7.62Q66.63-6.35 67.52-5.53Q68.41-4.71 69.96-4.71ZM86.46-25.36L92.84-25.36L93.05-22.43Q95.77-25.83 100.34-25.83L100.34-25.83Q104.37-25.83 106.34-23.46Q108.30-21.09 108.35-16.38L108.35-16.38L108.35 0L101.58 0L101.58-16.22Q101.58-18.38 100.64-19.35Q99.70-20.32 97.52-20.32L97.52-20.32Q94.66-20.32 93.23-17.88L93.23-17.88L93.23 0L86.46 0L86.46-25.36ZM133.69-11.37L140.72-11.37Q140.32-5.86 136.65-2.70Q132.98 0.47 126.98 0.47L126.98 0.47Q120.42 0.47 116.66-3.95Q112.90-8.37 112.90-16.08L112.90-16.08L112.90-18.16Q112.90-23.09 114.63-26.84Q116.37-30.59 119.59-32.59Q122.81-34.59 127.08-34.59L127.08-34.59Q132.98-34.59 136.59-31.43Q140.20-28.27 140.77-22.55L140.77-22.55L133.73-22.55Q133.48-25.85 131.89-27.34Q130.31-28.83 127.08-28.83L127.08-28.83Q123.56-28.83 121.82-26.31Q120.07-23.79 120.02-18.49L120.02-18.49L120.02-15.91Q120.02-10.38 121.70-7.83Q123.38-5.27 126.98-5.27L126.98-5.27Q130.24-5.27 131.85-6.76Q133.45-8.25 133.69-11.37L133.69-11.37ZM152.04-36L152.04 0L145.24 0L145.24-36L152.04-36ZM179.16 0L172.31 0Q171.84-0.91 171.63-2.27L171.63-2.27Q169.17 0.47 165.23 0.47L165.23 0.47Q161.51 0.47 159.06-1.69Q156.61-3.84 156.61-7.13L156.61-7.13Q156.61-11.16 159.60-13.31Q162.59-15.47 168.23-15.49L168.23-15.49L171.35-15.49L171.35-16.95Q171.35-18.70 170.45-19.76Q169.55-20.81 167.60-20.81L167.60-20.81Q165.89-20.81 164.92-19.99Q163.95-19.17 163.95-17.74L163.95-17.74L157.17-17.74Q157.17-19.95 158.53-21.82Q159.89-23.70 162.38-24.76Q164.86-25.83 167.95-25.83L167.95-25.83Q172.64-25.83 175.39-23.47Q178.15-21.12 178.15-16.85L178.15-16.85L178.15-5.86Q178.17-2.25 179.16-0.40L179.16-0.40L179.16 0ZM166.71-4.71L166.71-4.71Q168.21-4.71 169.48-5.38Q170.74-6.05 171.35-7.17L171.35-7.17L171.35-11.53L168.82-11.53Q163.73-11.53 163.41-8.02L163.41-8.02L163.38-7.62Q163.38-6.35 164.27-5.53Q165.16-4.71 166.71-4.71ZM200.79-25.36L205.41-9.21L208.73-25.36L215.27-25.36L208.80 0L203.13 0L198.33-15.96L193.52 0L187.88 0L181.41-25.36L187.95-25.36L191.25-9.23L195.89-25.36L200.79-25.36Z" transform="translate(60, 85)" fill="#e94560" />
  <text x="1860" y="85" font-family="Arial" font-size="28" fill="#888" text-anchor="end">SLIDE 6/10</text>
  <path d="M13.28-56.88L26.09-14.10L38.98-56.88L52.03-56.88L32.23 0L20 0L0.27-56.88L13.28-56.88ZM54.88-21.02L54.88-21.52Q54.88-27.81 57.30-32.73Q59.73-37.66 64.28-40.35Q68.83-43.05 74.84-43.05L74.84-43.05Q83.40-43.05 88.81-37.81Q94.22-32.58 94.84-23.59L94.84-23.59L94.92-20.70Q94.92-10.98 89.49-5.10Q84.06 0.78 74.92 0.78Q65.78 0.78 60.33-5.08Q54.88-10.94 54.88-21.02L54.88-21.02ZM66.17-20.70L66.17-20.70Q66.17-14.69 68.44-11.50Q70.70-8.32 74.92-8.32L74.92-8.32Q79.02-8.32 81.33-11.46Q83.63-14.61 83.63-21.52L83.63-21.52Q83.63-27.42 81.33-30.66Q79.02-33.91 74.84-33.91L74.84-33.91Q70.70-33.91 68.44-30.68Q66.17-27.46 66.17-20.70ZM113.79-42.27L113.79 0L102.46 0L102.46-42.27L113.79-42.27ZM101.80-53.20L101.80-53.20Q101.80-55.74 103.50-57.38Q105.20-59.02 108.13-59.02L108.13-59.02Q111.02-59.02 112.73-57.38Q114.45-55.74 114.45-53.20L114.45-53.20Q114.45-50.63 112.71-48.98Q110.98-47.34 108.13-47.34Q105.27-47.34 103.54-48.98Q101.80-50.63 101.80-53.20ZM140.66-8.32L140.66-8.32Q143.79-8.32 145.74-10.04Q147.70-11.76 147.77-14.61L147.77-14.61L158.36-14.61Q158.32-10.31 156.02-6.74Q153.71-3.16 149.71-1.19Q145.70 0.78 140.86 0.78L140.86 0.78Q131.80 0.78 126.56-4.98Q121.33-10.74 121.33-20.90L121.33-20.90L121.33-21.64Q121.33-31.41 126.52-37.23Q131.72-43.05 140.78-43.05L140.78-43.05Q148.71-43.05 153.50-38.54Q158.28-34.02 158.36-26.52L158.36-26.52L147.77-26.52Q147.70-29.80 145.74-31.86Q143.79-33.91 140.59-33.91L140.59-33.91Q136.64-33.91 134.63-31.04Q132.62-28.16 132.62-21.72L132.62-21.72L132.62-20.55Q132.62-14.02 134.61-11.17Q136.60-8.32 140.66-8.32ZM184.26 0.78L184.26 0.78Q174.96 0.78 169.12-4.92Q163.28-10.63 163.28-20.12L163.28-20.12L163.28-21.21Q163.28-27.58 165.74-32.60Q168.20-37.62 172.71-40.33Q177.23-43.05 183.01-43.05L183.01-43.05Q191.68-43.05 196.66-37.58Q201.64-32.11 201.64-22.07L201.64-22.07L201.64-17.46L174.73-17.46Q175.27-13.32 178.03-10.82Q180.78-8.32 185-8.32L185-8.32Q191.52-8.32 195.20-13.05L195.20-13.05L200.74-6.84Q198.20-3.24 193.87-1.23Q189.53 0.78 184.26 0.78ZM182.97-33.91L182.97-33.91Q179.61-33.91 177.52-31.64Q175.43-29.38 174.84-25.16L174.84-25.16L190.55-25.16L190.55-26.05Q190.47-29.80 188.52-31.86Q186.56-33.91 182.97-33.91ZM226.41-15.31L226.41-15.31Q226.41-19.26 228.61-22.62Q230.82-25.98 236.72-30.08L236.72-30.08Q234.18-33.48 232.73-36.46Q231.29-39.45 231.29-42.70L231.29-42.70Q231.29-49.34 235.49-53.50Q239.69-57.66 246.80-57.66L246.80-57.66Q253.16-57.66 257.25-53.87Q261.33-50.08 261.33-44.41L261.33-44.41Q261.33-37.62 254.45-32.42L254.45-32.42L250.08-29.26L259.88-17.85Q262.19-22.38 262.19-27.85L262.19-27.85L271.80-27.85Q271.80-16.76 266.68-9.88L266.68-9.88L275.20 0L262.38 0L259.45-3.36Q253.16 0.78 245 0.78L245 0.78Q236.56 0.78 231.48-3.65Q226.41-8.09 226.41-15.31ZM245.55-8.28L245.55-8.28Q249.61-8.28 253.24-10.55L253.24-10.55L242.03-23.52L241.21-22.93Q237.73-19.96 237.73-15.94L237.73-15.94Q237.73-12.54 239.90-10.41Q242.07-8.28 245.55-8.28ZM241.41-42.85L241.41-42.85Q241.41-39.92 244.84-35.47L244.84-35.47L247.85-37.46Q250.16-38.95 251.04-40.35Q251.91-41.76 251.91-43.71Q251.91-45.66 250.47-47.11Q249.02-48.55 246.76-48.55L246.76-48.55Q244.34-48.55 242.87-46.99Q241.41-45.43 241.41-42.85ZM301.13-56.88L316.45-56.88L331.05-15.63L345.59-56.88L360.98-56.88L360.98 0L349.22 0L349.22-15.55L350.39-42.38L335.04 0L326.99 0L311.68-42.34L312.85-15.55L312.85 0L301.13 0L301.13-56.88ZM389.92 0.78L389.92 0.78Q380.63 0.78 374.79-4.92Q368.95-10.63 368.95-20.12L368.95-20.12L368.95-21.21Q368.95-27.58 371.41-32.60Q373.87-37.62 378.38-40.33Q382.89-43.05 388.67-43.05L388.67-43.05Q397.34-43.05 402.32-37.58Q407.30-32.11 407.30-22.07L407.30-22.07L407.30-17.46L380.39-17.46Q380.94-13.32 383.69-10.82Q386.45-8.32 390.66-8.32L390.66-8.32Q397.19-8.32 400.86-13.05L400.86-13.05L406.41-6.84Q403.87-3.24 399.53-1.23Q395.20 0.78 389.92 0.78ZM388.63-33.91L388.63-33.91Q385.27-33.91 383.18-31.64Q381.09-29.38 380.51-25.16L380.51-25.16L396.21-25.16L396.21-26.05Q396.13-29.80 394.18-31.86Q392.23-33.91 388.63-33.91ZM411.95-21.45L411.95-21.45Q411.95-31.33 416.39-37.19Q420.82-43.05 428.52-43.05L428.52-43.05Q434.69-43.05 438.71-38.44L438.71-38.44L438.71-60L450.04-60L450.04 0L439.84 0L439.30-4.49Q435.08 0.78 428.44 0.78L428.44 0.78Q420.98 0.78 416.46-5.10Q411.95-10.98 411.95-21.45ZM423.24-20.63L423.24-20.63Q423.24-14.69 425.31-11.52Q427.38-8.36 431.33-8.36L431.33-8.36Q436.56-8.36 438.71-12.77L438.71-12.77L438.71-29.45Q436.60-33.87 431.41-33.87L431.41-33.87Q423.24-33.87 423.24-20.63ZM470.70-42.27L470.70 0L459.38 0L459.38-42.27L470.70-42.27ZM458.71-53.20L458.71-53.20Q458.71-55.74 460.41-57.38Q462.11-59.02 465.04-59.02L465.04-59.02Q467.93-59.02 469.65-57.38Q471.37-55.74 471.37-53.20L471.37-53.20Q471.37-50.63 469.63-48.98Q467.89-47.34 465.04-47.34Q462.19-47.34 460.45-48.98Q458.71-50.63 458.71-53.20ZM515.90 0L504.49 0Q503.71-1.52 503.36-3.79L503.36-3.79Q499.26 0.78 492.70 0.78L492.70 0.78Q486.48 0.78 482.40-2.81Q478.32-6.41 478.32-11.88L478.32-11.88Q478.32-18.59 483.30-22.19Q488.28-25.78 497.70-25.82L497.70-25.82L502.89-25.82L502.89-28.24Q502.89-31.17 501.39-32.93Q499.88-34.69 496.64-34.69L496.64-34.69Q493.79-34.69 492.17-33.32Q490.55-31.95 490.55-29.57L490.55-29.57L479.26-29.57Q479.26-33.24 481.52-36.37Q483.79-39.49 487.93-41.27Q492.07-43.05 497.23-43.05L497.23-43.05Q505.04-43.05 509.63-39.12Q514.22-35.20 514.22-28.09L514.22-28.09L514.22-9.77Q514.26-3.75 515.90-0.66L515.90-0.66L515.90 0ZM495.16-7.85L495.16-7.85Q497.66-7.85 499.77-8.96Q501.88-10.08 502.89-11.95L502.89-11.95L502.89-19.22L498.67-19.22Q490.20-19.22 489.65-13.36L489.65-13.36L489.61-12.70Q489.61-10.59 491.09-9.22Q492.58-7.85 495.16-7.85Z" transform="translate(700.72265625, 420)" fill="#ffffff" />
  <line x1="660" y1="480" x2="1260" y2="480" stroke="#e94560" stroke-width="6"/>
  <circle cx="620" cy="535" r="8" fill="#e94560" /><path d="M19.65-16.91L19.65-12.32L8.40-12.32L8.40-4.71L21.60-4.71L21.60 0L2.54 0L2.54-28.44L21.56-28.44L21.56-23.69L8.40-23.69L8.40-16.91L19.65-16.91ZM30.63-30L30.63 0L24.96 0L24.96-30L30.63-30ZM45 0.39L45 0.39Q40.35 0.39 37.43-2.46Q34.51-5.31 34.51-10.06L34.51-10.06L34.51-10.61Q34.51-13.79 35.74-16.30Q36.97-18.81 39.23-20.17Q41.48-21.52 44.38-21.52L44.38-21.52Q48.71-21.52 51.20-18.79Q53.69-16.05 53.69-11.04L53.69-11.04L53.69-8.73L40.23-8.73Q40.51-6.66 41.88-5.41Q43.26-4.16 45.37-4.16L45.37-4.16Q48.63-4.16 50.47-6.52L50.47-6.52L53.24-3.42Q51.97-1.62 49.80-0.62Q47.64 0.39 45 0.39ZM44.36-16.95L44.36-16.95Q42.68-16.95 41.63-15.82Q40.59-14.69 40.29-12.58L40.29-12.58L48.14-12.58L48.14-13.03Q48.11-14.90 47.13-15.93Q46.15-16.95 44.36-16.95ZM60.88-21.13L64.80-6.89L68.73-21.13L74.63-21.13L67.50 0L62.11 0L54.98-21.13L60.88-21.13ZM86.84 0.39L86.84 0.39Q82.19 0.39 79.27-2.46Q76.35-5.31 76.35-10.06L76.35-10.06L76.35-10.61Q76.35-13.79 77.58-16.30Q78.81-18.81 81.06-20.17Q83.32-21.52 86.21-21.52L86.21-21.52Q90.55-21.52 93.04-18.79Q95.53-16.05 95.53-11.04L95.53-11.04L95.53-8.73L82.07-8.73Q82.34-6.66 83.72-5.41Q85.10-4.16 87.21-4.16L87.21-4.16Q90.47-4.16 92.30-6.52L92.30-6.52L95.08-3.42Q93.81-1.62 91.64-0.62Q89.47 0.39 86.84 0.39ZM86.19-16.95L86.19-16.95Q84.51-16.95 83.47-15.82Q82.42-14.69 82.13-12.58L82.13-12.58L89.98-12.58L89.98-13.03Q89.94-14.90 88.96-15.93Q87.99-16.95 86.19-16.95ZM98.61-21.13L103.93-21.13L104.10-18.69Q106.37-21.52 110.18-21.52L110.18-21.52Q113.54-21.52 115.18-19.55Q116.82-17.58 116.86-13.65L116.86-13.65L116.86 0L111.21 0L111.21-13.52Q111.21-15.31 110.43-16.12Q109.65-16.93 107.83-16.93L107.83-16.93Q105.45-16.93 104.26-14.90L104.26-14.90L104.26 0L98.61 0L98.61-21.13ZM127.36-28.44L127.36-4.71L139.80-4.71L139.80 0L121.50 0L121.50-28.44L127.36-28.44ZM160.74 0L155.04 0Q154.65-0.76 154.47-1.89L154.47-1.89Q152.42 0.39 149.14 0.39L149.14 0.39Q146.04 0.39 143.99-1.41Q141.95-3.20 141.95-5.94L141.95-5.94Q141.95-9.30 144.44-11.09Q146.93-12.89 151.64-12.91L151.64-12.91L154.24-12.91L154.24-14.12Q154.24-15.59 153.49-16.46Q152.73-17.34 151.11-17.34L151.11-17.34Q149.69-17.34 148.88-16.66Q148.07-15.98 148.07-14.79L148.07-14.79L142.42-14.79Q142.42-16.62 143.55-18.18Q144.69-19.75 146.76-20.63Q148.83-21.52 151.41-21.52L151.41-21.52Q155.31-21.52 157.61-19.56Q159.90-17.60 159.90-14.04L159.90-14.04L159.90-4.88Q159.92-1.88 160.74-0.33L160.74-0.33L160.74 0ZM150.37-3.93L150.37-3.93Q151.62-3.93 152.68-4.48Q153.73-5.04 154.24-5.98L154.24-5.98L154.24-9.61L152.13-9.61Q147.89-9.61 147.62-6.68L147.62-6.68L147.60-6.35Q147.60-5.29 148.34-4.61Q149.08-3.93 150.37-3.93ZM183.28-10.68L183.28-10.37Q183.28-5.29 181.11-2.45Q178.95 0.39 175.06 0.39L175.06 0.39Q171.62 0.39 169.57-2.25L169.57-2.25L169.32 0L164.24 0L164.24-30L169.88-30L169.88-19.24Q171.84-21.52 175.02-21.52L175.02-21.52Q178.89-21.52 181.08-18.68Q183.28-15.84 183.28-10.68L183.28-10.68ZM177.64-10.78L177.64-10.78Q177.64-13.98 176.62-15.46Q175.61-16.93 173.59-16.93L173.59-16.93Q170.90-16.93 169.88-14.73L169.88-14.73L169.88-6.39Q170.92-4.16 173.63-4.16L173.63-4.16Q176.37-4.16 177.23-6.86L177.23-6.86Q177.64-8.14 177.64-10.78ZM198.20-5.84L198.20-5.84Q198.20-6.88 197.18-7.47Q196.15-8.07 193.89-8.54L193.89-8.54Q186.35-10.12 186.35-14.94L186.35-14.94Q186.35-17.75 188.68-19.64Q191.02-21.52 194.79-21.52L194.79-21.52Q198.81-21.52 201.22-19.63Q203.63-17.73 203.63-14.71L203.63-14.71L197.99-14.71Q197.99-15.92 197.21-16.71Q196.43-17.50 194.77-17.50L194.77-17.50Q193.34-17.50 192.56-16.86Q191.78-16.21 191.78-15.21L191.78-15.21Q191.78-14.28 192.67-13.70Q193.55-13.13 195.66-12.71Q197.77-12.29 199.22-11.76L199.22-11.76Q203.69-10.12 203.69-6.07L203.69-6.07Q203.69-3.18 201.21-1.40Q198.73 0.39 194.80 0.39L194.80 0.39Q192.15 0.39 190.09-0.56Q188.03-1.50 186.86-3.15Q185.68-4.80 185.68-6.72L185.68-6.72L191.04-6.72Q191.11-5.21 192.15-4.41Q193.18-3.61 194.92-3.61L194.92-3.61Q196.54-3.61 197.37-4.23Q198.20-4.84 198.20-5.84ZM239.06-28.44L239.06-23.69L230.35-23.69L230.35 0L224.49 0L224.49-23.69L215.90-23.69L215.90-28.44L239.06-28.44ZM263.81-28.44L263.81-23.69L255.10-23.69L255.10 0L249.24 0L249.24-23.69L240.64-23.69L240.64-28.44L263.81-28.44ZM281.89-7.46L281.89-7.46Q281.89-9.12 280.72-10.01Q279.55-10.90 276.50-11.88Q273.46-12.87 271.68-13.83L271.68-13.83Q266.84-16.45 266.84-20.88L266.84-20.88Q266.84-23.18 268.13-24.99Q269.43-26.80 271.87-27.81Q274.30-28.83 277.32-28.83L277.32-28.83Q280.37-28.83 282.75-27.72Q285.14-26.62 286.46-24.61Q287.77-22.60 287.77-20.04L287.77-20.04L281.91-20.04Q281.91-21.99 280.68-23.08Q279.45-24.16 277.23-24.16L277.23-24.16Q275.08-24.16 273.89-23.25Q272.70-22.34 272.70-20.86L272.70-20.86Q272.70-19.47 274.09-18.54Q275.49-17.60 278.20-16.78L278.20-16.78Q283.20-15.27 285.49-13.05Q287.77-10.82 287.77-7.50L287.77-7.50Q287.77-3.81 284.98-1.71Q282.19 0.39 277.46 0.39L277.46 0.39Q274.18 0.39 271.48-0.81Q268.79-2.01 267.37-4.10Q265.96-6.19 265.96-8.95L265.96-8.95L271.84-8.95Q271.84-4.24 277.46-4.24L277.46-4.24Q279.55-4.24 280.72-5.09Q281.89-5.94 281.89-7.46ZM307.29-21.13L307.29 0L301.62 0L301.62-21.13L307.29-21.13ZM301.29-26.60L301.29-26.60Q301.29-27.87 302.14-28.69Q302.99-29.51 304.45-29.51L304.45-29.51Q305.90-29.51 306.76-28.69Q307.62-27.87 307.62-26.60L307.62-26.60Q307.62-25.31 306.75-24.49Q305.88-23.67 304.45-23.67Q303.03-23.67 302.16-24.49Q301.29-25.31 301.29-26.60ZM311.82-21.13L317.13-21.13L317.30-18.69Q319.57-21.52 323.38-21.52L323.38-21.52Q326.74-21.52 328.38-19.55Q330.02-17.58 330.06-13.65L330.06-13.65L330.06 0L324.41 0L324.41-13.52Q324.41-15.31 323.63-16.12Q322.85-16.93 321.04-16.93L321.04-16.93Q318.65-16.93 317.46-14.90L317.46-14.90L317.46 0L311.82 0L311.82-21.13ZM335.45-26.33L341.09-26.33L341.09-21.13L344.71-21.13L344.71-16.99L341.09-16.99L341.09-6.45Q341.09-5.27 341.54-4.77Q341.99-4.26 343.26-4.26L343.26-4.26Q344.20-4.26 344.92-4.39L344.92-4.39L344.92-0.12Q343.26 0.39 341.50 0.39L341.50 0.39Q335.57 0.39 335.45-5.61L335.45-5.61L335.45-16.99L332.36-16.99L332.36-21.13L335.45-21.13L335.45-26.33ZM357.58 0.39L357.58 0.39Q352.93 0.39 350.01-2.46Q347.09-5.31 347.09-10.06L347.09-10.06L347.09-10.61Q347.09-13.79 348.32-16.30Q349.55-18.81 351.81-20.17Q354.06-21.52 356.95-21.52L356.95-21.52Q361.29-21.52 363.78-18.79Q366.27-16.05 366.27-11.04L366.27-11.04L366.27-8.73L352.81-8.73Q353.09-6.66 354.46-5.41Q355.84-4.16 357.95-4.16L357.95-4.16Q361.21-4.16 363.05-6.52L363.05-6.52L365.82-3.42Q364.55-1.62 362.38-0.62Q360.21 0.39 357.58 0.39ZM356.93-16.95L356.93-16.95Q355.25-16.95 354.21-15.82Q353.16-14.69 352.87-12.58L352.87-12.58L360.72-12.58L360.72-13.03Q360.68-14.90 359.71-15.93Q358.73-16.95 356.93-16.95ZM368.65-10.49L368.65-10.72Q368.65-15.59 370.97-18.55Q373.28-21.52 377.21-21.52L377.21-21.52Q380.68-21.52 382.62-19.14L382.62-19.14L382.85-21.13L387.97-21.13L387.97-0.70Q387.97 2.07 386.71 4.12Q385.45 6.17 383.16 7.25Q380.88 8.32 377.81 8.32L377.81 8.32Q375.49 8.32 373.28 7.39Q371.07 6.46 369.94 5L369.94 5L372.44 1.56Q374.55 3.93 377.56 3.93L377.56 3.93Q379.80 3.93 381.05 2.72Q382.30 1.52 382.30-0.68L382.30-0.68L382.30-1.82Q380.35 0.39 377.17 0.39L377.17 0.39Q373.36 0.39 371.01-2.59Q368.65-5.57 368.65-10.49L368.65-10.49ZM374.30-10.31L374.30-10.31Q374.30-7.44 375.45-5.81Q376.60-4.18 378.61-4.18L378.61-4.18Q381.19-4.18 382.30-6.11L382.30-6.11L382.30-15Q381.17-16.93 378.65-16.93L378.65-16.93Q376.62-16.93 375.46-15.27Q374.30-13.61 374.30-10.31ZM404.26-21.27L404.18-15.84Q403.03-16.00 402.15-16.00L402.15-16.00Q398.95-16.00 397.95-13.83L397.95-13.83L397.95 0L392.30 0L392.30-21.13L397.64-21.13L397.79-18.61Q399.49-21.52 402.50-21.52L402.50-21.52Q403.44-21.52 404.26-21.27L404.26-21.27ZM424.84 0L419.14 0Q418.75-0.76 418.57-1.89L418.57-1.89Q416.52 0.39 413.24 0.39L413.24 0.39Q410.14 0.39 408.10-1.41Q406.05-3.20 406.05-5.94L406.05-5.94Q406.05-9.30 408.54-11.09Q411.04-12.89 415.74-12.91L415.74-12.91L418.34-12.91L418.34-14.12Q418.34-15.59 417.59-16.46Q416.84-17.34 415.21-17.34L415.21-17.34Q413.79-17.34 412.98-16.66Q412.17-15.98 412.17-14.79L412.17-14.79L406.52-14.79Q406.52-16.62 407.66-18.18Q408.79-19.75 410.86-20.63Q412.93-21.52 415.51-21.52L415.51-21.52Q419.41-21.52 421.71-19.56Q424.00-17.60 424.00-14.04L424.00-14.04L424.00-4.88Q424.02-1.88 424.84-0.33L424.84-0.33L424.84 0ZM414.47-3.93L414.47-3.93Q415.72-3.93 416.78-4.48Q417.83-5.04 418.34-5.98L418.34-5.98L418.34-9.61L416.23-9.61Q411.99-9.61 411.72-6.68L411.72-6.68L411.70-6.35Q411.70-5.29 412.44-4.61Q413.18-3.93 414.47-3.93ZM429.45-26.33L435.10-26.33L435.10-21.13L438.71-21.13L438.71-16.99L435.10-16.99L435.10-6.45Q435.10-5.27 435.55-4.77Q436.00-4.26 437.27-4.26L437.27-4.26Q438.20-4.26 438.93-4.39L438.93-4.39L438.93-0.12Q437.27 0.39 435.51 0.39L435.51 0.39Q429.57 0.39 429.45-5.61L429.45-5.61L429.45-16.99L426.37-16.99L426.37-21.13L429.45-21.13L429.45-26.33ZM447.81-21.13L447.81 0L442.15 0L442.15-21.13L447.81-21.13ZM441.82-26.60L441.82-26.60Q441.82-27.87 442.67-28.69Q443.52-29.51 444.98-29.51L444.98-29.51Q446.43-29.51 447.29-28.69Q448.14-27.87 448.14-26.60L448.14-26.60Q448.14-25.31 447.28-24.49Q446.41-23.67 444.98-23.67Q443.55-23.67 442.69-24.49Q441.82-25.31 441.82-26.60ZM451.58-10.51L451.58-10.76Q451.58-13.91 452.79-16.37Q454.00-18.83 456.28-20.18Q458.55-21.52 461.56-21.52L461.56-21.52Q465.84-21.52 468.54-18.91Q471.25-16.29 471.56-11.80L471.56-11.80L471.60-10.35Q471.60-5.49 468.89-2.55Q466.17 0.39 461.60 0.39Q457.03 0.39 454.31-2.54Q451.58-5.47 451.58-10.51L451.58-10.51ZM457.23-10.35L457.23-10.35Q457.23-7.34 458.36-5.75Q459.49-4.16 461.60-4.16L461.60-4.16Q463.65-4.16 464.80-5.73Q465.96-7.30 465.96-10.76L465.96-10.76Q465.96-13.71 464.80-15.33Q463.65-16.95 461.56-16.95L461.56-16.95Q459.49-16.95 458.36-15.34Q457.23-13.73 457.23-10.35ZM474.96-21.13L480.27-21.13L480.45-18.69Q482.71-21.52 486.52-21.52L486.52-21.52Q489.88-21.52 491.52-19.55Q493.16-17.58 493.20-13.65L493.20-13.65L493.20 0L487.56 0L487.56-13.52Q487.56-15.31 486.78-16.12Q486.00-16.93 484.18-16.93L484.18-16.93Q481.80-16.93 480.61-14.90L480.61-14.90L480.61 0L474.96 0L474.96-21.13Z" transform="translate(660, 535)" fill="#ffffff" /><circle cx="620" cy="605" r="8" fill="#e94560" /><path d="M19.00-9.47L24.86-9.47Q24.53-4.88 21.47-2.25Q18.42 0.39 13.42 0.39L13.42 0.39Q7.95 0.39 4.81-3.29Q1.68-6.97 1.68-13.40L1.68-13.40L1.68-15.14Q1.68-19.24 3.13-22.36Q4.57-25.49 7.26-27.16Q9.94-28.83 13.50-28.83L13.50-28.83Q18.42-28.83 21.43-26.19Q24.43-23.55 24.90-18.79L24.90-18.79L19.04-18.79Q18.83-21.54 17.51-22.78Q16.19-24.02 13.50-24.02L13.50-24.02Q10.57-24.02 9.11-21.92Q7.66-19.82 7.62-15.41L7.62-15.41L7.62-13.26Q7.62-8.65 9.01-6.52Q10.41-4.39 13.42-4.39L13.42-4.39Q16.13-4.39 17.47-5.63Q18.81-6.88 19.00-9.47L19.00-9.47ZM46.29 0L40.59 0Q40.20-0.76 40.02-1.89L40.02-1.89Q37.97 0.39 34.69 0.39L34.69 0.39Q31.58 0.39 29.54-1.41Q27.50-3.20 27.50-5.94L27.50-5.94Q27.50-9.30 29.99-11.09Q32.48-12.89 37.19-12.91L37.19-12.91L39.79-12.91L39.79-14.12Q39.79-15.59 39.03-16.46Q38.28-17.34 36.66-17.34L36.66-17.34Q35.23-17.34 34.42-16.66Q33.61-15.98 33.61-14.79L33.61-14.79L27.97-14.79Q27.97-16.62 29.10-18.18Q30.23-19.75 32.30-20.63Q34.38-21.52 36.95-21.52L36.95-21.52Q40.86-21.52 43.15-19.56Q45.45-17.60 45.45-14.04L45.45-14.04L45.45-4.88Q45.47-1.88 46.29-0.33L46.29-0.33L46.29 0ZM35.92-3.93L35.92-3.93Q37.17-3.93 38.22-4.48Q39.28-5.04 39.79-5.98L39.79-5.98L39.79-9.61L37.68-9.61Q33.44-9.61 33.16-6.68L33.16-6.68L33.14-6.35Q33.14-5.29 33.89-4.61Q34.63-3.93 35.92-3.93ZM49.67-21.13L54.98-21.13L55.16-18.69Q57.42-21.52 61.23-21.52L61.23-21.52Q64.59-21.52 66.23-19.55Q67.87-17.58 67.91-13.65L67.91-13.65L67.91 0L62.27 0L62.27-13.52Q62.27-15.31 61.48-16.12Q60.70-16.93 58.89-16.93L58.89-16.93Q56.50-16.93 55.31-14.90L55.31-14.90L55.31 0L49.67 0L49.67-21.13ZM76.17-21.13L80.10-6.89L84.02-21.13L89.92-21.13L82.79 0L77.40 0L70.27-21.13L76.17-21.13ZM110.35 0L104.65 0Q104.26-0.76 104.08-1.89L104.08-1.89Q102.03 0.39 98.75 0.39L98.75 0.39Q95.64 0.39 93.60-1.41Q91.56-3.20 91.56-5.94L91.56-5.94Q91.56-9.30 94.05-11.09Q96.54-12.89 101.25-12.91L101.25-12.91L103.85-12.91L103.85-14.12Q103.85-15.59 103.10-16.46Q102.34-17.34 100.72-17.34L100.72-17.34Q99.30-17.34 98.49-16.66Q97.68-15.98 97.68-14.79L97.68-14.79L92.03-14.79Q92.03-16.62 93.16-18.18Q94.30-19.75 96.37-20.63Q98.44-21.52 101.02-21.52L101.02-21.52Q104.92-21.52 107.22-19.56Q109.51-17.60 109.51-14.04L109.51-14.04L109.51-4.88Q109.53-1.88 110.35-0.33L110.35-0.33L110.35 0ZM99.98-3.93L99.98-3.93Q101.23-3.93 102.29-4.48Q103.34-5.04 103.85-5.98L103.85-5.98L103.85-9.61L101.74-9.61Q97.50-9.61 97.23-6.68L97.23-6.68L97.21-6.35Q97.21-5.29 97.95-4.61Q98.69-3.93 99.98-3.93ZM125.29-5.84L125.29-5.84Q125.29-6.88 124.27-7.47Q123.24-8.07 120.98-8.54L120.98-8.54Q113.44-10.12 113.44-14.94L113.44-14.94Q113.44-17.75 115.77-19.64Q118.11-21.52 121.88-21.52L121.88-21.52Q125.90-21.52 128.31-19.63Q130.72-17.73 130.72-14.71L130.72-14.71L125.08-14.71Q125.08-15.92 124.30-16.71Q123.52-17.50 121.86-17.50L121.86-17.50Q120.43-17.50 119.65-16.86Q118.87-16.21 118.87-15.21L118.87-15.21Q118.87-14.28 119.76-13.70Q120.64-13.13 122.75-12.71Q124.86-12.29 126.31-11.76L126.31-11.76Q130.78-10.12 130.78-6.07L130.78-6.07Q130.78-3.18 128.30-1.40Q125.82 0.39 121.89 0.39L121.89 0.39Q119.24 0.39 117.18-0.56Q115.12-1.50 113.95-3.15Q112.77-4.80 112.77-6.72L112.77-6.72L118.13-6.72Q118.20-5.21 119.24-4.41Q120.27-3.61 122.01-3.61L122.01-3.61Q123.63-3.61 124.46-4.23Q125.29-4.84 125.29-5.84ZM151.58 0L145.92 0L145.92-16.99L142.77-16.99L142.77-21.13L145.92-21.13L145.92-22.93Q145.92-26.48 147.96-28.45Q150-30.41 153.67-30.41L153.67-30.41Q154.84-30.41 156.54-30.02L156.54-30.02L156.48-25.64Q155.78-25.82 154.77-25.82L154.77-25.82Q151.58-25.82 151.58-22.83L151.58-22.83L151.58-21.13L155.78-21.13L155.78-16.99L151.58-16.99L151.58 0ZM157.83-10.51L157.83-10.76Q157.83-13.91 159.04-16.37Q160.25-18.83 162.53-20.18Q164.80-21.52 167.81-21.52L167.81-21.52Q172.09-21.52 174.79-18.91Q177.50-16.29 177.81-11.80L177.81-11.80L177.85-10.35Q177.85-5.49 175.14-2.55Q172.42 0.39 167.85 0.39Q163.28 0.39 160.56-2.54Q157.83-5.47 157.83-10.51L157.83-10.51ZM163.48-10.35L163.48-10.35Q163.48-7.34 164.61-5.75Q165.74-4.16 167.85-4.16L167.85-4.16Q169.90-4.16 171.05-5.73Q172.21-7.30 172.21-10.76L172.21-10.76Q172.21-13.71 171.05-15.33Q169.90-16.95 167.81-16.95L167.81-16.95Q165.74-16.95 164.61-15.34Q163.48-13.73 163.48-10.35ZM193.28-21.27L193.20-15.84Q192.05-16.00 191.17-16.00L191.17-16.00Q187.97-16.00 186.97-13.83L186.97-13.83L186.97 0L181.33 0L181.33-21.13L186.66-21.13L186.82-18.61Q188.52-21.52 191.52-21.52L191.52-21.52Q192.46-21.52 193.28-21.27L193.28-21.27ZM221.89-28.44L227.77-28.44L227.77-9.71Q227.77-5.04 224.85-2.32Q221.93 0.39 216.88 0.39L216.88 0.39Q211.89 0.39 208.96-2.25Q206.04-4.88 205.98-9.49L205.98-9.49L205.98-28.44L211.84-28.44L211.84-9.67Q211.84-6.88 213.17-5.60Q214.51-4.32 216.88-4.32L216.88-4.32Q221.82-4.32 221.89-9.51L221.89-9.51L221.89-28.44ZM238.81-28.44L238.81 0L232.95 0L232.95-28.44L238.81-28.44ZM272.85-10.66L272.85-10.37Q272.85-5.49 270.63-2.55Q268.42 0.39 264.65 0.39L264.65 0.39Q261.45 0.39 259.47-1.84L259.47-1.84L259.47 8.13L253.83 8.13L253.83-21.13L259.06-21.13L259.26-19.06Q261.31-21.52 264.61-21.52L264.61-21.52Q268.52-21.52 270.68-18.63Q272.85-15.74 272.85-10.66L272.85-10.66ZM267.21-10.78L267.21-10.78Q267.21-13.73 266.16-15.33Q265.12-16.93 263.13-16.93L263.13-16.93Q260.47-16.93 259.47-14.90L259.47-14.90L259.47-6.25Q260.51-4.16 263.16-4.16L263.16-4.16Q267.21-4.16 267.21-10.78ZM288.30-21.27L288.22-15.84Q287.07-16.00 286.19-16.00L286.19-16.00Q282.99-16.00 281.99-13.83L281.99-13.83L281.99 0L276.35 0L276.35-21.13L281.68-21.13L281.84-18.61Q283.54-21.52 286.54-21.52L286.54-21.52Q287.48-21.52 288.30-21.27L288.30-21.27ZM300.66 0.39L300.66 0.39Q296.02 0.39 293.10-2.46Q290.18-5.31 290.18-10.06L290.18-10.06L290.18-10.61Q290.18-13.79 291.41-16.30Q292.64-18.81 294.89-20.17Q297.15-21.52 300.04-21.52L300.04-21.52Q304.38-21.52 306.87-18.79Q309.36-16.05 309.36-11.04L309.36-11.04L309.36-8.73L295.90-8.73Q296.17-6.66 297.55-5.41Q298.93-4.16 301.04-4.16L301.04-4.16Q304.30-4.16 306.13-6.52L306.13-6.52L308.91-3.42Q307.64-1.62 305.47-0.62Q303.30 0.39 300.66 0.39ZM300.02-16.95L300.02-16.95Q298.34-16.95 297.29-15.82Q296.25-14.69 295.96-12.58L295.96-12.58L303.81-12.58L303.81-13.03Q303.77-14.90 302.79-15.93Q301.82-16.95 300.02-16.95ZM324.00-5.84L324.00-5.84Q324.00-6.88 322.98-7.47Q321.95-8.07 319.69-8.54L319.69-8.54Q312.15-10.12 312.15-14.94L312.15-14.94Q312.15-17.75 314.48-19.64Q316.82-21.52 320.59-21.52L320.59-21.52Q324.61-21.52 327.02-19.63Q329.43-17.73 329.43-14.71L329.43-14.71L323.79-14.71Q323.79-15.92 323.01-16.71Q322.23-17.50 320.57-17.50L320.57-17.50Q319.14-17.50 318.36-16.86Q317.58-16.21 317.58-15.21L317.58-15.21Q317.58-14.28 318.47-13.70Q319.36-13.13 321.46-12.71Q323.57-12.29 325.02-11.76L325.02-11.76Q329.49-10.12 329.49-6.07L329.49-6.07Q329.49-3.18 327.01-1.40Q324.53 0.39 320.61 0.39L320.61 0.39Q317.95 0.39 315.89-0.56Q313.83-1.50 312.66-3.15Q311.48-4.80 311.48-6.72L311.48-6.72L316.84-6.72Q316.91-5.21 317.95-4.41Q318.98-3.61 320.72-3.61L320.72-3.61Q322.34-3.61 323.17-4.23Q324.00-4.84 324.00-5.84ZM342.85 0.39L342.85 0.39Q338.20 0.39 335.28-2.46Q332.36-5.31 332.36-10.06L332.36-10.06L332.36-10.61Q332.36-13.79 333.59-16.30Q334.82-18.81 337.08-20.17Q339.34-21.52 342.23-21.52L342.23-21.52Q346.56-21.52 349.05-18.79Q351.54-16.05 351.54-11.04L351.54-11.04L351.54-8.73L338.09-8.73Q338.36-6.66 339.74-5.41Q341.11-4.16 343.22-4.16L343.22-4.16Q346.48-4.16 348.32-6.52L348.32-6.52L351.09-3.42Q349.82-1.62 347.66-0.62Q345.49 0.39 342.85 0.39ZM342.21-16.95L342.21-16.95Q340.53-16.95 339.48-15.82Q338.44-14.69 338.14-12.58L338.14-12.58L346.00-12.58L346.00-13.03Q345.96-14.90 344.98-15.93Q344.00-16.95 342.21-16.95ZM354.63-21.13L359.94-21.13L360.12-18.69Q362.38-21.52 366.19-21.52L366.19-21.52Q369.55-21.52 371.19-19.55Q372.83-17.58 372.87-13.65L372.87-13.65L372.87 0L367.23 0L367.23-13.52Q367.23-15.31 366.45-16.12Q365.66-16.93 363.85-16.93L363.85-16.93Q361.46-16.93 360.27-14.90L360.27-14.90L360.27 0L354.63 0L354.63-21.13ZM378.26-26.33L383.91-26.33L383.91-21.13L387.52-21.13L387.52-16.99L383.91-16.99L383.91-6.45Q383.91-5.27 384.36-4.77Q384.80-4.26 386.07-4.26L386.07-4.26Q387.01-4.26 387.73-4.39L387.73-4.39L387.73-0.12Q386.07 0.39 384.32 0.39L384.32 0.39Q378.38 0.39 378.26-5.61L378.26-5.61L378.26-16.99L375.18-16.99L375.18-21.13L378.26-21.13L378.26-26.33ZM408.61 0L402.91 0Q402.52-0.76 402.34-1.89L402.34-1.89Q400.29 0.39 397.01 0.39L397.01 0.39Q393.91 0.39 391.87-1.41Q389.82-3.20 389.82-5.94L389.82-5.94Q389.82-9.30 392.31-11.09Q394.80-12.89 399.51-12.91L399.51-12.91L402.11-12.91L402.11-14.12Q402.11-15.59 401.36-16.46Q400.61-17.34 398.98-17.34L398.98-17.34Q397.56-17.34 396.75-16.66Q395.94-15.98 395.94-14.79L395.94-14.79L390.29-14.79Q390.29-16.62 391.43-18.18Q392.56-19.75 394.63-20.63Q396.70-21.52 399.28-21.52L399.28-21.52Q403.18-21.52 405.48-19.56Q407.77-17.60 407.77-14.04L407.77-14.04L407.77-4.88Q407.79-1.88 408.61-0.33L408.61-0.33L408.61 0ZM398.24-3.93L398.24-3.93Q399.49-3.93 400.55-4.48Q401.60-5.04 402.11-5.98L402.11-5.98L402.11-9.61L400-9.61Q395.76-9.61 395.49-6.68L395.49-6.68L395.47-6.35Q395.47-5.29 396.21-4.61Q396.95-3.93 398.24-3.93ZM413.22-26.33L418.87-26.33L418.87-21.13L422.48-21.13L422.48-16.99L418.87-16.99L418.87-6.45Q418.87-5.27 419.32-4.77Q419.77-4.26 421.04-4.26L421.04-4.26Q421.97-4.26 422.70-4.39L422.70-4.39L422.70-0.12Q421.04 0.39 419.28 0.39L419.28 0.39Q413.34 0.39 413.22-5.61L413.22-5.61L413.22-16.99L410.14-16.99L410.14-21.13L413.22-21.13L413.22-26.33ZM431.58-21.13L431.58 0L425.92 0L425.92-21.13L431.58-21.13ZM425.59-26.60L425.59-26.60Q425.59-27.87 426.44-28.69Q427.29-29.51 428.75-29.51L428.75-29.51Q430.20-29.51 431.05-28.69Q431.91-27.87 431.91-26.60L431.91-26.60Q431.91-25.31 431.04-24.49Q430.18-23.67 428.75-23.67Q427.32-23.67 426.46-24.49Q425.59-25.31 425.59-26.60ZM435.35-10.51L435.35-10.76Q435.35-13.91 436.56-16.37Q437.77-18.83 440.05-20.18Q442.32-21.52 445.33-21.52L445.33-21.52Q449.61-21.52 452.31-18.91Q455.02-16.29 455.33-11.80L455.33-11.80L455.37-10.35Q455.37-5.49 452.66-2.55Q449.94 0.39 445.37 0.39Q440.80 0.39 438.08-2.54Q435.35-5.47 435.35-10.51L435.35-10.51ZM441.00-10.35L441.00-10.35Q441.00-7.34 442.13-5.75Q443.26-4.16 445.37-4.16L445.37-4.16Q447.42-4.16 448.57-5.73Q449.73-7.30 449.73-10.76L449.73-10.76Q449.73-13.71 448.57-15.33Q447.42-16.95 445.33-16.95L445.33-16.95Q443.26-16.95 442.13-15.34Q441.00-13.73 441.00-10.35ZM458.73-21.13L464.04-21.13L464.22-18.69Q466.48-21.52 470.29-21.52L470.29-21.52Q473.65-21.52 475.29-19.55Q476.93-17.58 476.97-13.65L476.97-13.65L476.97 0L471.33 0L471.33-13.52Q471.33-15.31 470.55-16.12Q469.77-16.93 467.95-16.93L467.95-16.93Q465.57-16.93 464.38-14.90L464.38-14.90L464.38 0L458.73 0L458.73-21.13Z" transform="translate(660, 605)" fill="#ffffff" /><circle cx="620" cy="675" r="8" fill="#e94560" /><path d="M25.90-14.84L25.90-13.57Q25.90-9.38 24.41-6.21Q22.93-3.05 20.17-1.33Q17.40 0.39 13.83 0.39L13.83 0.39Q10.29 0.39 7.52-1.31Q4.75-3.01 3.22-6.16Q1.70-9.32 1.68-13.42L1.68-13.42L1.68-14.82Q1.68-19.02 3.19-22.22Q4.71-25.41 7.47-27.12Q10.23-28.83 13.79-28.83Q17.34-28.83 20.11-27.12Q22.87-25.41 24.38-22.22Q25.90-19.02 25.90-14.84L25.90-14.84ZM19.96-13.48L19.96-14.86Q19.96-19.34 18.36-21.66Q16.76-23.98 13.79-23.98L13.79-23.98Q10.84-23.98 9.24-21.69Q7.64-19.39 7.62-14.96L7.62-14.96L7.62-13.57Q7.62-9.22 9.22-6.82Q10.82-4.41 13.83-4.41L13.83-4.41Q16.78-4.41 18.36-6.73Q19.94-9.04 19.96-13.48L19.96-13.48ZM41.21 0L30.16 0L30.16-28.44L40.12-28.44Q45.29-28.44 47.97-26.46Q50.64-24.47 50.64-20.64L50.64-20.64Q50.64-18.55 49.57-16.96Q48.50-15.37 46.58-14.63L46.58-14.63Q48.77-14.08 50.03-12.42Q51.29-10.76 51.29-8.36L51.29-8.36Q51.29-4.26 48.67-2.15Q46.05-0.04 41.21 0L41.21 0ZM41.39-12.38L36.02-12.38L36.02-4.71L41.04-4.71Q43.11-4.71 44.27-5.69Q45.43-6.68 45.43-8.42L45.43-8.42Q45.43-12.32 41.39-12.38L41.39-12.38ZM36.02-23.69L36.02-16.52L40.35-16.52Q44.79-16.60 44.79-20.06L44.79-20.06Q44.79-21.99 43.66-22.84Q42.54-23.69 40.12-23.69L40.12-23.69L36.02-23.69ZM70.43-7.46L70.43-7.46Q70.43-9.12 69.26-10.01Q68.09-10.90 65.04-11.88Q61.99-12.87 60.21-13.83L60.21-13.83Q55.37-16.45 55.37-20.88L55.37-20.88Q55.37-23.18 56.67-24.99Q57.97-26.80 60.40-27.81Q62.83-28.83 65.86-28.83L65.86-28.83Q68.91-28.83 71.29-27.72Q73.67-26.62 74.99-24.61Q76.31-22.60 76.31-20.04L76.31-20.04L70.45-20.04Q70.45-21.99 69.22-23.08Q67.99-24.16 65.76-24.16L65.76-24.16Q63.61-24.16 62.42-23.25Q61.23-22.34 61.23-20.86L61.23-20.86Q61.23-19.47 62.63-18.54Q64.02-17.60 66.74-16.78L66.74-16.78Q71.74-15.27 74.02-13.05Q76.31-10.82 76.31-7.50L76.31-7.50Q76.31-3.81 73.52-1.71Q70.72 0.39 66.00 0.39L66.00 0.39Q62.71 0.39 60.02-0.81Q57.32-2.01 55.91-4.10Q54.49-6.19 54.49-8.95L54.49-8.95L60.37-8.95Q60.37-4.24 66.00-4.24L66.00-4.24Q68.09-4.24 69.26-5.09Q70.43-5.94 70.43-7.46ZM90.88-14.45L90.88-9.90L79.88-9.90L79.88-14.45L90.88-14.45ZM104.20-4.16L104.20-4.16Q105.76-4.16 106.74-5.02Q107.71-5.88 107.75-7.30L107.75-7.30L113.05-7.30Q113.03-5.16 111.88-3.37Q110.72-1.58 108.72-0.60Q106.72 0.39 104.30 0.39L104.30 0.39Q99.77 0.39 97.15-2.49Q94.53-5.37 94.53-10.45L94.53-10.45L94.53-10.82Q94.53-15.70 97.13-18.61Q99.73-21.52 104.26-21.52L104.26-21.52Q108.22-21.52 110.62-19.27Q113.01-17.01 113.05-13.26L113.05-13.26L107.75-13.26Q107.71-14.90 106.74-15.93Q105.76-16.95 104.16-16.95L104.16-16.95Q102.19-16.95 101.18-15.52Q100.18-14.08 100.18-10.86L100.18-10.86L100.18-10.27Q100.18-7.01 101.17-5.59Q102.17-4.16 104.20-4.16ZM115.39-10.51L115.39-10.76Q115.39-13.91 116.60-16.37Q117.81-18.83 120.09-20.18Q122.36-21.52 125.37-21.52L125.37-21.52Q129.65-21.52 132.35-18.91Q135.06-16.29 135.37-11.80L135.37-11.80L135.41-10.35Q135.41-5.49 132.70-2.55Q129.98 0.39 125.41 0.39Q120.84 0.39 118.12-2.54Q115.39-5.47 115.39-10.51L115.39-10.51ZM121.04-10.35L121.04-10.35Q121.04-7.34 122.17-5.75Q123.30-4.16 125.41-4.16L125.41-4.16Q127.46-4.16 128.61-5.73Q129.77-7.30 129.77-10.76L129.77-10.76Q129.77-13.71 128.61-15.33Q127.46-16.95 125.37-16.95L125.37-16.95Q123.30-16.95 122.17-15.34Q121.04-13.73 121.04-10.35ZM138.89-21.13L144.18-21.13L144.36-18.77Q146.60-21.52 150.43-21.52L150.43-21.52Q154.51-21.52 156.04-18.30L156.04-18.30Q158.26-21.52 162.38-21.52L162.38-21.52Q165.82-21.52 167.50-19.52Q169.18-17.52 169.18-13.50L169.18-13.50L169.18 0L163.52 0L163.52-13.48Q163.52-15.27 162.81-16.10Q162.11-16.93 160.33-16.93L160.33-16.93Q157.79-16.93 156.82-14.51L156.82-14.51L156.84 0L151.19 0L151.19-13.46Q151.19-15.29 150.47-16.11Q149.75-16.93 148.01-16.93L148.01-16.93Q145.61-16.93 144.53-14.94L144.53-14.94L144.53 0L138.89 0L138.89-21.13ZM192.54-10.66L192.54-10.37Q192.54-5.49 190.32-2.55Q188.11 0.39 184.34 0.39L184.34 0.39Q181.13 0.39 179.16-1.84L179.16-1.84L179.16 8.13L173.52 8.13L173.52-21.13L178.75-21.13L178.95-19.06Q181.00-21.52 184.30-21.52L184.30-21.52Q188.20-21.52 190.37-18.63Q192.54-15.74 192.54-10.66L192.54-10.66ZM186.89-10.78L186.89-10.78Q186.89-13.73 185.85-15.33Q184.80-16.93 182.81-16.93L182.81-16.93Q180.16-16.93 179.16-14.90L179.16-14.90L179.16-6.25Q180.20-4.16 182.85-4.16L182.85-4.16Q186.89-4.16 186.89-10.78ZM213.98 0L208.28 0Q207.89-0.76 207.71-1.89L207.71-1.89Q205.66 0.39 202.38 0.39L202.38 0.39Q199.28 0.39 197.24-1.41Q195.20-3.20 195.20-5.94L195.20-5.94Q195.20-9.30 197.69-11.09Q200.18-12.89 204.88-12.91L204.88-12.91L207.48-12.91L207.48-14.12Q207.48-15.59 206.73-16.46Q205.98-17.34 204.36-17.34L204.36-17.34Q202.93-17.34 202.12-16.66Q201.31-15.98 201.31-14.79L201.31-14.79L195.66-14.79Q195.66-16.62 196.80-18.18Q197.93-19.75 200-20.63Q202.07-21.52 204.65-21.52L204.65-21.52Q208.55-21.52 210.85-19.56Q213.14-17.60 213.14-14.04L213.14-14.04L213.14-4.88Q213.16-1.88 213.98-0.33L213.98-0.33L213.98 0ZM203.61-3.93L203.61-3.93Q204.86-3.93 205.92-4.48Q206.97-5.04 207.48-5.98L207.48-5.98L207.48-9.61L205.37-9.61Q201.13-9.61 200.86-6.68L200.86-6.68L200.84-6.35Q200.84-5.29 201.58-4.61Q202.32-3.93 203.61-3.93ZM218.59-26.33L224.24-26.33L224.24-21.13L227.85-21.13L227.85-16.99L224.24-16.99L224.24-6.45Q224.24-5.27 224.69-4.77Q225.14-4.26 226.41-4.26L226.41-4.26Q227.34-4.26 228.07-4.39L228.07-4.39L228.07-0.12Q226.41 0.39 224.65 0.39L224.65 0.39Q218.71 0.39 218.59-5.61L218.59-5.61L218.59-16.99L215.51-16.99L215.51-21.13L218.59-21.13L218.59-26.33ZM236.95-21.13L236.95 0L231.29 0L231.29-21.13L236.95-21.13ZM230.96-26.60L230.96-26.60Q230.96-27.87 231.81-28.69Q232.66-29.51 234.12-29.51L234.12-29.51Q235.57-29.51 236.43-28.69Q237.29-27.87 237.29-26.60L237.29-26.60Q237.29-25.31 236.42-24.49Q235.55-23.67 234.12-23.67Q232.70-23.67 231.83-24.49Q230.96-25.31 230.96-26.60ZM260.64-10.68L260.64-10.37Q260.64-5.29 258.48-2.45Q256.31 0.39 252.42 0.39L252.42 0.39Q248.98 0.39 246.93-2.25L246.93-2.25L246.68 0L241.60 0L241.60-30L247.25-30L247.25-19.24Q249.20-21.52 252.38-21.52L252.38-21.52Q256.25-21.52 258.45-18.68Q260.64-15.84 260.64-10.68L260.64-10.68ZM255-10.78L255-10.78Q255-13.98 253.98-15.46Q252.97-16.93 250.96-16.93L250.96-16.93Q248.26-16.93 247.25-14.73L247.25-14.73L247.25-6.39Q248.28-4.16 251.00-4.16L251.00-4.16Q253.73-4.16 254.59-6.86L254.59-6.86Q255-8.14 255-10.78ZM270.08-30L270.08 0L264.41 0L264.41-30L270.08-30ZM284.45 0.39L284.45 0.39Q279.80 0.39 276.88-2.46Q273.96-5.31 273.96-10.06L273.96-10.06L273.96-10.61Q273.96-13.79 275.20-16.30Q276.43-18.81 278.68-20.17Q280.94-21.52 283.83-21.52L283.83-21.52Q288.16-21.52 290.65-18.79Q293.14-16.05 293.14-11.04L293.14-11.04L293.14-8.73L279.69-8.73Q279.96-6.66 281.34-5.41Q282.71-4.16 284.82-4.16L284.82-4.16Q288.09-4.16 289.92-6.52L289.92-6.52L292.70-3.42Q291.43-1.62 289.26-0.62Q287.09 0.39 284.45 0.39ZM283.81-16.95L283.81-16.95Q282.13-16.95 281.08-15.82Q280.04-14.69 279.75-12.58L279.75-12.58L287.60-12.58L287.60-13.03Q287.56-14.90 286.58-15.93Q285.61-16.95 283.81-16.95ZM310.29-21.13L314.22-6.89L318.14-21.13L324.04-21.13L316.91 0L311.52 0L304.39-21.13L310.29-21.13ZM332.48-21.13L332.48 0L326.82 0L326.82-21.13L332.48-21.13ZM326.48-26.60L326.48-26.60Q326.48-27.87 327.33-28.69Q328.18-29.51 329.65-29.51L329.65-29.51Q331.09-29.51 331.95-28.69Q332.81-27.87 332.81-26.60L332.81-26.60Q332.81-25.31 331.94-24.49Q331.07-23.67 329.65-23.67Q328.22-23.67 327.35-24.49Q326.48-25.31 326.48-26.60ZM336.25-10.72L336.25-10.72Q336.25-15.66 338.47-18.59Q340.68-21.52 344.53-21.52L344.53-21.52Q347.62-21.52 349.63-19.22L349.63-19.22L349.63-30L355.29-30L355.29 0L350.20 0L349.92-2.25Q347.81 0.39 344.49 0.39L344.49 0.39Q340.76 0.39 338.51-2.55Q336.25-5.49 336.25-10.72ZM341.89-10.31L341.89-10.31Q341.89-7.34 342.93-5.76Q343.96-4.18 345.94-4.18L345.94-4.18Q348.55-4.18 349.63-6.39L349.63-6.39L349.63-14.73Q348.57-16.93 345.98-16.93L345.98-16.93Q341.89-16.93 341.89-10.31ZM369.39 0.39L369.39 0.39Q364.75 0.39 361.83-2.46Q358.91-5.31 358.91-10.06L358.91-10.06L358.91-10.61Q358.91-13.79 360.14-16.30Q361.37-18.81 363.62-20.17Q365.88-21.52 368.77-21.52L368.77-21.52Q373.11-21.52 375.60-18.79Q378.09-16.05 378.09-11.04L378.09-11.04L378.09-8.73L364.63-8.73Q364.90-6.66 366.28-5.41Q367.66-4.16 369.77-4.16L369.77-4.16Q373.03-4.16 374.86-6.52L374.86-6.52L377.64-3.42Q376.37-1.62 374.20-0.62Q372.03 0.39 369.39 0.39ZM368.75-16.95L368.75-16.95Q367.07-16.95 366.03-15.82Q364.98-14.69 364.69-12.58L364.69-12.58L372.54-12.58L372.54-13.03Q372.50-14.90 371.52-15.93Q370.55-16.95 368.75-16.95ZM380.41-10.51L380.41-10.76Q380.41-13.91 381.62-16.37Q382.83-18.83 385.11-20.18Q387.38-21.52 390.39-21.52L390.39-21.52Q394.67-21.52 397.37-18.91Q400.08-16.29 400.39-11.80L400.39-11.80L400.43-10.35Q400.43-5.49 397.71-2.55Q395 0.39 390.43 0.39Q385.86 0.39 383.13-2.54Q380.41-5.47 380.41-10.51L380.41-10.51ZM386.05-10.35L386.05-10.35Q386.05-7.34 387.19-5.75Q388.32-4.16 390.43-4.16L390.43-4.16Q392.48-4.16 393.63-5.73Q394.79-7.30 394.79-10.76L394.79-10.76Q394.79-13.71 393.63-15.33Q392.48-16.95 390.39-16.95L390.39-16.95Q388.32-16.95 387.19-15.34Q386.05-13.73 386.05-10.35ZM412.99-10.51L412.99-10.76Q412.99-13.91 414.20-16.37Q415.41-18.83 417.69-20.18Q419.96-21.52 422.97-21.52L422.97-21.52Q427.25-21.52 429.95-18.91Q432.66-16.29 432.97-11.80L432.97-11.80L433.01-10.35Q433.01-5.49 430.29-2.55Q427.58 0.39 423.01 0.39Q418.44 0.39 415.71-2.54Q412.99-5.47 412.99-10.51L412.99-10.51ZM418.63-10.35L418.63-10.35Q418.63-7.34 419.77-5.75Q420.90-4.16 423.01-4.16L423.01-4.16Q425.06-4.16 426.21-5.73Q427.36-7.30 427.36-10.76L427.36-10.76Q427.36-13.71 426.21-15.33Q425.06-16.95 422.97-16.95L422.97-16.95Q420.90-16.95 419.77-15.34Q418.63-13.73 418.63-10.35ZM449.30 0L449.14-2.15Q447.05 0.39 443.36 0.39L443.36 0.39Q439.96 0.39 438.17-1.56Q436.39-3.52 436.35-7.29L436.35-7.29L436.35-21.13L441.99-21.13L441.99-7.48Q441.99-4.18 445-4.18L445-4.18Q447.87-4.18 448.95-6.17L448.95-6.17L448.95-21.13L454.61-21.13L454.61 0L449.30 0ZM459.98-26.33L465.63-26.33L465.63-21.13L469.24-21.13L469.24-16.99L465.63-16.99L465.63-6.45Q465.63-5.27 466.07-4.77Q466.52-4.26 467.79-4.26L467.79-4.26Q468.73-4.26 469.45-4.39L469.45-4.39L469.45-0.12Q467.79 0.39 466.04 0.39L466.04 0.39Q460.10 0.39 459.98-5.61L459.98-5.61L459.98-16.99L456.89-16.99L456.89-21.13L459.98-21.13L459.98-26.33ZM491.41-10.66L491.41-10.37Q491.41-5.49 489.19-2.55Q486.97 0.39 483.20 0.39L483.20 0.39Q480 0.39 478.03-1.84L478.03-1.84L478.03 8.13L472.38 8.13L472.38-21.13L477.62-21.13L477.81-19.06Q479.86-21.52 483.16-21.52L483.16-21.52Q487.07-21.52 489.24-18.63Q491.41-15.74 491.41-10.66L491.41-10.66ZM485.76-10.78L485.76-10.78Q485.76-13.73 484.72-15.33Q483.67-16.93 481.68-16.93L481.68-16.93Q479.02-16.93 478.03-14.90L478.03-14.90L478.03-6.25Q479.06-4.16 481.72-4.16L481.72-4.16Q485.76-4.16 485.76-10.78ZM507.71 0L507.56-2.15Q505.47 0.39 501.78 0.39L501.78 0.39Q498.38 0.39 496.59-1.56Q494.80-3.52 494.77-7.29L494.77-7.29L494.77-21.13L500.41-21.13L500.41-7.48Q500.41-4.18 503.42-4.18L503.42-4.18Q506.29-4.18 507.36-6.17L507.36-6.17L507.36-21.13L513.03-21.13L513.03 0L507.71 0ZM518.40-26.33L524.04-26.33L524.04-21.13L527.66-21.13L527.66-16.99L524.04-16.99L524.04-6.45Q524.04-5.27 524.49-4.77Q524.94-4.26 526.21-4.26L526.21-4.26Q527.15-4.26 527.87-4.39L527.87-4.39L527.87-0.12Q526.21 0.39 524.45 0.39L524.45 0.39Q518.52 0.39 518.40-5.61L518.40-5.61L518.40-16.99L515.31-16.99L515.31-21.13L518.40-21.13L518.40-26.33Z" transform="translate(660, 675)" fill="#ffffff" /><circle cx="620" cy="745" r="8" fill="#e94560" /><path d="M20.57 0L18.59-5.86L8.32-5.86L6.37 0L0.14 0L10.72-28.44L16.15-28.44L26.80 0L20.57 0ZM13.44-21.25L9.90-10.61L17.01-10.61L13.44-21.25ZM41.89 0L41.74-2.15Q39.65 0.39 35.96 0.39L35.96 0.39Q32.56 0.39 30.77-1.56Q28.98-3.52 28.95-7.29L28.95-7.29L28.95-21.13L34.59-21.13L34.59-7.48Q34.59-4.18 37.60-4.18L37.60-4.18Q40.47-4.18 41.54-6.17L41.54-6.17L41.54-21.13L47.21-21.13L47.21 0L41.89 0ZM50.59-10.72L50.59-10.72Q50.59-15.66 52.80-18.59Q55.02-21.52 58.87-21.52L58.87-21.52Q61.95-21.52 63.96-19.22L63.96-19.22L63.96-30L69.63-30L69.63 0L64.53 0L64.26-2.25Q62.15 0.39 58.83 0.39L58.83 0.39Q55.10 0.39 52.84-2.55Q50.59-5.49 50.59-10.72ZM56.23-10.31L56.23-10.31Q56.23-7.34 57.27-5.76Q58.30-4.18 60.27-4.18L60.27-4.18Q62.89-4.18 63.96-6.39L63.96-6.39L63.96-14.73Q62.91-16.93 60.31-16.93L60.31-16.93Q56.23-16.93 56.23-10.31ZM79.96-21.13L79.96 0L74.30 0L74.30-21.13L79.96-21.13ZM73.96-26.60L73.96-26.60Q73.96-27.87 74.81-28.69Q75.66-29.51 77.13-29.51L77.13-29.51Q78.57-29.51 79.43-28.69Q80.29-27.87 80.29-26.60L80.29-26.60Q80.29-25.31 79.42-24.49Q78.55-23.67 77.13-23.67Q75.70-23.67 74.83-24.49Q73.96-25.31 73.96-26.60ZM83.73-10.51L83.73-10.76Q83.73-13.91 84.94-16.37Q86.15-18.83 88.43-20.18Q90.70-21.52 93.71-21.52L93.71-21.52Q97.99-21.52 100.69-18.91Q103.40-16.29 103.71-11.80L103.71-11.80L103.75-10.35Q103.75-5.49 101.04-2.55Q98.32 0.39 93.75 0.39Q89.18 0.39 86.46-2.54Q83.73-5.47 83.73-10.51L83.73-10.51ZM89.38-10.35L89.38-10.35Q89.38-7.34 90.51-5.75Q91.64-4.16 93.75-4.16L93.75-4.16Q95.80-4.16 96.95-5.73Q98.11-7.30 98.11-10.76L98.11-10.76Q98.11-13.71 96.95-15.33Q95.80-16.95 93.71-16.95L93.71-16.95Q91.64-16.95 90.51-15.34Q89.38-13.73 89.38-10.35ZM136.21-10.66L136.21-10.37Q136.21-5.49 133.99-2.55Q131.78 0.39 128.01 0.39L128.01 0.39Q124.80 0.39 122.83-1.84L122.83-1.84L122.83 8.13L117.19 8.13L117.19-21.13L122.42-21.13L122.62-19.06Q124.67-21.52 127.97-21.52L127.97-21.52Q131.88-21.52 134.04-18.63Q136.21-15.74 136.21-10.66L136.21-10.66ZM130.57-10.78L130.57-10.78Q130.57-13.73 129.52-15.33Q128.48-16.93 126.48-16.93L126.48-16.93Q123.83-16.93 122.83-14.90L122.83-14.90L122.83-6.25Q123.87-4.16 126.52-4.16L126.52-4.16Q130.57-4.16 130.57-10.78ZM145.66-30L145.66 0L140 0L140-30L145.66-30ZM168.26 0L162.56 0Q162.17-0.76 161.99-1.89L161.99-1.89Q159.94 0.39 156.66 0.39L156.66 0.39Q153.55 0.39 151.51-1.41Q149.47-3.20 149.47-5.94L149.47-5.94Q149.47-9.30 151.96-11.09Q154.45-12.89 159.16-12.91L159.16-12.91L161.76-12.91L161.76-14.12Q161.76-15.59 161.01-16.46Q160.25-17.34 158.63-17.34L158.63-17.34Q157.21-17.34 156.40-16.66Q155.59-15.98 155.59-14.79L155.59-14.79L149.94-14.79Q149.94-16.62 151.07-18.18Q152.21-19.75 154.28-20.63Q156.35-21.52 158.93-21.52L158.93-21.52Q162.83-21.52 165.13-19.56Q167.42-17.60 167.42-14.04L167.42-14.04L167.42-4.88Q167.44-1.88 168.26-0.33L168.26-0.33L168.26 0ZM157.89-3.93L157.89-3.93Q159.14-3.93 160.20-4.48Q161.25-5.04 161.76-5.98L161.76-5.98L161.76-9.61L159.65-9.61Q155.41-9.61 155.14-6.68L155.14-6.68L155.12-6.35Q155.12-5.29 155.86-4.61Q156.60-3.93 157.89-3.93ZM175.72-21.13L179.65-7.99L183.55-21.13L189.61-21.13L181.11 3.28L180.64 4.39Q178.75 8.54 174.39 8.54L174.39 8.54Q173.16 8.54 171.89 8.16L171.89 8.16L171.89 3.89L172.75 3.91Q174.36 3.91 175.15 3.42Q175.94 2.93 176.39 1.80L176.39 1.80L177.05 0.06L169.65-21.13L175.72-21.13ZM210.88-10.68L210.88-10.37Q210.88-5.29 208.71-2.45Q206.54 0.39 202.66 0.39L202.66 0.39Q199.22 0.39 197.17-2.25L197.17-2.25L196.91 0L191.84 0L191.84-30L197.48-30L197.48-19.24Q199.43-21.52 202.62-21.52L202.62-21.52Q206.48-21.52 208.68-18.68Q210.88-15.84 210.88-10.68L210.88-10.68ZM205.23-10.78L205.23-10.78Q205.23-13.98 204.22-15.46Q203.20-16.93 201.19-16.93L201.19-16.93Q198.50-16.93 197.48-14.73L197.48-14.73L197.48-6.39Q198.52-4.16 201.23-4.16L201.23-4.16Q203.96-4.16 204.82-6.86L204.82-6.86Q205.23-8.14 205.23-10.78ZM232.30 0L226.60 0Q226.21-0.76 226.04-1.89L226.04-1.89Q223.98 0.39 220.70 0.39L220.70 0.39Q217.60 0.39 215.56-1.41Q213.52-3.20 213.52-5.94L213.52-5.94Q213.52-9.30 216.01-11.09Q218.50-12.89 223.20-12.91L223.20-12.91L225.80-12.91L225.80-14.12Q225.80-15.59 225.05-16.46Q224.30-17.34 222.68-17.34L222.68-17.34Q221.25-17.34 220.44-16.66Q219.63-15.98 219.63-14.79L219.63-14.79L213.98-14.79Q213.98-16.62 215.12-18.18Q216.25-19.75 218.32-20.63Q220.39-21.52 222.97-21.52L222.97-21.52Q226.88-21.52 229.17-19.56Q231.46-17.60 231.46-14.04L231.46-14.04L231.46-4.88Q231.48-1.88 232.30-0.33L232.30-0.33L232.30 0ZM221.93-3.93L221.93-3.93Q223.18-3.93 224.24-4.48Q225.29-5.04 225.80-5.98L225.80-5.98L225.80-9.61L223.69-9.61Q219.45-9.61 219.18-6.68L219.18-6.68L219.16-6.35Q219.16-5.29 219.90-4.61Q220.64-3.93 221.93-3.93ZM244.59-4.16L244.59-4.16Q246.15-4.16 247.13-5.02Q248.11-5.88 248.14-7.30L248.14-7.30L253.44-7.30Q253.42-5.16 252.27-3.37Q251.11-1.58 249.11-0.60Q247.11 0.39 244.69 0.39L244.69 0.39Q240.16 0.39 237.54-2.49Q234.92-5.37 234.92-10.45L234.92-10.45L234.92-10.82Q234.92-15.70 237.52-18.61Q240.12-21.52 244.65-21.52L244.65-21.52Q248.61-21.52 251.01-19.27Q253.40-17.01 253.44-13.26L253.44-13.26L248.14-13.26Q248.11-14.90 247.13-15.93Q246.15-16.95 244.55-16.95L244.55-16.95Q242.58-16.95 241.57-15.52Q240.57-14.08 240.57-10.86L240.57-10.86L240.57-10.27Q240.57-7.01 241.56-5.59Q242.56-4.16 244.59-4.16ZM269.77 0L264.34-8.48L262.30-6.45L262.30 0L256.66 0L256.66-30L262.30-30L262.30-13.38L263.40-14.79L268.81-21.13L275.59-21.13L267.95-12.32L276.25 0L269.77 0ZM299.43-5.84L299.43-5.84Q299.43-6.88 298.41-7.47Q297.38-8.07 295.12-8.54L295.12-8.54Q287.58-10.12 287.58-14.94L287.58-14.94Q287.58-17.75 289.91-19.64Q292.25-21.52 296.02-21.52L296.02-21.52Q300.04-21.52 302.45-19.63Q304.86-17.73 304.86-14.71L304.86-14.71L299.22-14.71Q299.22-15.92 298.44-16.71Q297.66-17.50 296.00-17.50L296.00-17.50Q294.57-17.50 293.79-16.86Q293.01-16.21 293.01-15.21L293.01-15.21Q293.01-14.28 293.90-13.70Q294.79-13.13 296.89-12.71Q299.00-12.29 300.45-11.76L300.45-11.76Q304.92-10.12 304.92-6.07L304.92-6.07Q304.92-3.18 302.44-1.40Q299.96 0.39 296.04 0.39L296.04 0.39Q293.38 0.39 291.32-0.56Q289.26-1.50 288.09-3.15Q286.91-4.80 286.91-6.72L286.91-6.72L292.27-6.72Q292.34-5.21 293.38-4.41Q294.41-3.61 296.15-3.61L296.15-3.61Q297.77-3.61 298.60-4.23Q299.43-4.84 299.43-5.84ZM321.37 0L321.21-2.15Q319.12 0.39 315.43 0.39L315.43 0.39Q312.03 0.39 310.24-1.56Q308.46-3.52 308.42-7.29L308.42-7.29L308.42-21.13L314.06-21.13L314.06-7.48Q314.06-4.18 317.07-4.18L317.07-4.18Q319.94-4.18 321.02-6.17L321.02-6.17L321.02-21.13L326.68-21.13L326.68 0L321.37 0ZM349.96-10.66L349.96-10.37Q349.96-5.49 347.74-2.55Q345.53 0.39 341.76 0.39L341.76 0.39Q338.55 0.39 336.58-1.84L336.58-1.84L336.58 8.13L330.94 8.13L330.94-21.13L336.17-21.13L336.37-19.06Q338.42-21.52 341.72-21.52L341.72-21.52Q345.63-21.52 347.79-18.63Q349.96-15.74 349.96-10.66L349.96-10.66ZM344.32-10.78L344.32-10.78Q344.32-13.73 343.27-15.33Q342.23-16.93 340.23-16.93L340.23-16.93Q337.58-16.93 336.58-14.90L336.58-14.90L336.58-6.25Q337.62-4.16 340.27-4.16L340.27-4.16Q344.32-4.16 344.32-10.78ZM372.48-10.66L372.48-10.37Q372.48-5.49 370.26-2.55Q368.05 0.39 364.28 0.39L364.28 0.39Q361.07 0.39 359.10-1.84L359.10-1.84L359.10 8.13L353.46 8.13L353.46-21.13L358.69-21.13L358.89-19.06Q360.94-21.52 364.24-21.52L364.24-21.52Q368.14-21.52 370.31-18.63Q372.48-15.74 372.48-10.66L372.48-10.66ZM366.84-10.78L366.84-10.78Q366.84-13.73 365.79-15.33Q364.75-16.93 362.75-16.93L362.75-16.93Q360.10-16.93 359.10-14.90L359.10-14.90L359.10-6.25Q360.14-4.16 362.79-4.16L362.79-4.16Q366.84-4.16 366.84-10.78ZM375.10-10.51L375.10-10.76Q375.10-13.91 376.31-16.37Q377.52-18.83 379.79-20.18Q382.07-21.52 385.08-21.52L385.08-21.52Q389.36-21.52 392.06-18.91Q394.77-16.29 395.08-11.80L395.08-11.80L395.12-10.35Q395.12-5.49 392.40-2.55Q389.69 0.39 385.12 0.39Q380.55 0.39 377.82-2.54Q375.10-5.47 375.10-10.51L375.10-10.51ZM380.74-10.35L380.74-10.35Q380.74-7.34 381.88-5.75Q383.01-4.16 385.12-4.16L385.12-4.16Q387.17-4.16 388.32-5.73Q389.47-7.30 389.47-10.76L389.47-10.76Q389.47-13.71 388.32-15.33Q387.17-16.95 385.08-16.95L385.08-16.95Q383.01-16.95 381.88-15.34Q380.74-13.73 380.74-10.35ZM410.55-21.27L410.47-15.84Q409.32-16.00 408.44-16.00L408.44-16.00Q405.23-16.00 404.24-13.83L404.24-13.83L404.24 0L398.59 0L398.59-21.13L403.93-21.13L404.08-18.61Q405.78-21.52 408.79-21.52L408.79-21.52Q409.73-21.52 410.55-21.27L410.55-21.27ZM414.30-26.33L419.94-26.33L419.94-21.13L423.55-21.13L423.55-16.99L419.94-16.99L419.94-6.45Q419.94-5.27 420.39-4.77Q420.84-4.26 422.11-4.26L422.11-4.26Q423.05-4.26 423.77-4.39L423.77-4.39L423.77-0.12Q422.11 0.39 420.35 0.39L420.35 0.39Q414.41 0.39 414.30-5.61L414.30-5.61L414.30-16.99L411.21-16.99L411.21-21.13L414.30-21.13L414.30-26.33Z" transform="translate(660, 745)" fill="#ffffff" />
  <text x="960" y="1030" font-family="Arial" font-size="24" fill="#666" text-anchor="middle">OpenClaw Documentation</text>
  <line x1="880" y1="1045" x2="1040" y2="1045" stroke="#e94560" stroke-width="3" opacity="0.6"/>
</svg>