<?xml version="1.0" encoding="UTF-8"?>
<svg width="1920" height="1080" xmlns="http://www.w3.org/2000/svg">
  <defs>
    <linearGradient id="bg" x1="0%" y1="0%" x2="100%" y2="100%">
      <stop offset="0%" style="stop-color:#1a1a2e;stop-opacity:1" />
      <stop offset="100%" style="stop-color:#0f0f1a;stop-opacity:1" />
    </linearGradient>
  </defs>
  <rect width="100%" height="100%" fill="url(#bg)"/>
  <circle cx="1920" cy="0" r="600" fill="#e94560" opacity="0.1"/>
  <circle cx="0" cy="1080" r="400" fill="#e94560" opacity="0.1"/>
  <rect width="1920" height="15" fill="#e94560"/>
  <path d="M22.80-11.37L29.84-11.37Q29.44-5.86 25.77-2.70Q22.10 0.47 16.10 0.47L16.10 0.47Q9.54 0.47 5.78-3.95Q2.02-8.37 2.02-16.08L2.02-16.08L2.02-18.16Q2.02-23.09 3.75-26.84Q5.48-30.59 8.71-32.59Q11.93-34.59 16.20-34.59L16.20-34.59Q22.10-34.59 25.71-31.43Q29.32-28.27 29.88-22.55L29.88-22.55L22.85-22.55Q22.59-25.85 21.01-27.34Q19.43-28.83 16.20-28.83L16.20-28.83Q12.68-28.83 10.93-26.31Q9.19-23.79 9.14-18.49L9.14-18.49L9.14-15.91Q9.14-10.38 10.82-7.83Q12.49-5.27 16.10-5.27L16.10-5.27Q19.36-5.27 20.96-6.76Q22.57-8.25 22.80-11.37L22.80-11.37ZM40.62-36L40.62-22.59Q43.31-25.83 47.39-25.83L47.39-25.83Q55.64-25.83 55.76-16.24L55.76-16.24L55.76 0L48.98 0L48.98-16.05Q48.98-18.23 48.05-19.28Q47.11-20.32 44.93-20.32L44.93-20.32Q41.95-20.32 40.62-18.02L40.62-18.02L40.62 0L33.84 0L33.84-36L40.62-36ZM82.41 0L75.56 0Q75.09-0.91 74.88-2.27L74.88-2.27Q72.42 0.47 68.48 0.47L68.48 0.47Q64.76 0.47 62.31-1.69Q59.86-3.84 59.86-7.13L59.86-7.13Q59.86-11.16 62.85-13.31Q65.84-15.47 71.48-15.49L71.48-15.49L74.60-15.49L74.60-16.95Q74.60-18.70 73.70-19.76Q72.80-20.81 70.85-20.81L70.85-20.81Q69.14-20.81 68.17-19.99Q67.20-19.17 67.20-17.74L67.20-17.74L60.42-17.74Q60.42-19.95 61.78-21.82Q63.14-23.70 65.63-24.76Q68.11-25.83 71.20-25.83L71.20-25.83Q75.89-25.83 78.64-23.47Q81.40-21.12 81.40-16.85L81.40-16.85L81.40-5.86Q81.42-2.25 82.41-0.40L82.41-0.40L82.41 0ZM69.96-4.71L69.96-4.71Q71.46-4.71 72.73-5.38Q73.99-6.05 74.60-7.17L74.60-7.17L74.60-11.53L72.07-11.53Q66.98-11.53 66.66-8.02L66.66-8.02L66.63-7.62Q66.63-6.35 67.52-5.53Q68.41-4.71 69.96-4.71ZM86.46-25.36L92.84-25.36L93.05-22.43Q95.77-25.83 100.34-25.83L100.34-25.83Q104.37-25.83 106.34-23.46Q108.30-21.09 108.35-16.38L108.35-16.38L108.35 0L101.58 0L101.58-16.22Q101.58-18.38 100.64-19.35Q99.70-20.32 97.52-20.32L97.52-20.32Q94.66-20.32 93.23-17.88L93.23-17.88L93.23 0L86.46 0L86.46-25.36ZM133.69-11.37L140.72-11.37Q140.32-5.86 136.65-2.70Q132.98 0.47 126.98 0.47L126.98 0.47Q120.42 0.47 116.66-3.95Q112.90-8.37 112.90-16.08L112.90-16.08L112.90-18.16Q112.90-23.09 114.63-26.84Q116.37-30.59 119.59-32.59Q122.81-34.59 127.08-34.59L127.08-34.59Q132.98-34.59 136.59-31.43Q140.20-28.27 140.77-22.55L140.77-22.55L133.73-22.55Q133.48-25.85 131.89-27.34Q130.31-28.83 127.08-28.83L127.08-28.83Q123.56-28.83 121.82-26.31Q120.07-23.79 120.02-18.49L120.02-18.49L120.02-15.91Q120.02-10.38 121.70-7.83Q123.38-5.27 126.98-5.27L126.98-5.27Q130.24-5.27 131.85-6.76Q133.45-8.25 133.69-11.37L133.69-11.37ZM152.04-36L152.04 0L145.24 0L145.24-36L152.04-36ZM179.16 0L172.31 0Q171.84-0.91 171.63-2.27L171.63-2.27Q169.17 0.47 165.23 0.47L165.23 0.47Q161.51 0.47 159.06-1.69Q156.61-3.84 156.61-7.13L156.61-7.13Q156.61-11.16 159.60-13.31Q162.59-15.47 168.23-15.49L168.23-15.49L171.35-15.49L171.35-16.95Q171.35-18.70 170.45-19.76Q169.55-20.81 167.60-20.81L167.60-20.81Q165.89-20.81 164.92-19.99Q163.95-19.17 163.95-17.74L163.95-17.74L157.17-17.74Q157.17-19.95 158.53-21.82Q159.89-23.70 162.38-24.76Q164.86-25.83 167.95-25.83L167.95-25.83Q172.64-25.83 175.39-23.47Q178.15-21.12 178.15-16.85L178.15-16.85L178.15-5.86Q178.17-2.25 179.16-0.40L179.16-0.40L179.16 0ZM166.71-4.71L166.71-4.71Q168.21-4.71 169.48-5.38Q170.74-6.05 171.35-7.17L171.35-7.17L171.35-11.53L168.82-11.53Q163.73-11.53 163.41-8.02L163.41-8.02L163.38-7.62Q163.38-6.35 164.27-5.53Q165.16-4.71 166.71-4.71ZM200.79-25.36L205.41-9.21L208.73-25.36L215.27-25.36L208.80 0L203.13 0L198.33-15.96L193.52 0L187.88 0L181.41-25.36L187.95-25.36L191.25-9.23L195.89-25.36L200.79-25.36Z" transform="translate(60, 85)" fill="#e94560" />
  <text x="1860" y="85" font-family="Arial" font-size="28" fill="#888" text-anchor="end">SLIDE 1/10</text>
  <path d="M38.01-18.95L49.73-18.95Q49.06-9.77 42.95-4.49Q36.84 0.78 26.84 0.78L26.84 0.78Q15.90 0.78 9.63-6.58Q3.36-13.95 3.36-26.80L3.36-26.80L3.36-30.27Q3.36-38.48 6.25-44.73Q9.14-50.98 14.51-54.32Q19.88-57.66 26.99-57.66L26.99-57.66Q36.84-57.66 42.85-52.38Q48.87-47.11 49.80-37.58L49.80-37.58L38.09-37.58Q37.66-43.09 35.02-45.57Q32.38-48.05 26.99-48.05L26.99-48.05Q21.13-48.05 18.22-43.85Q15.31-39.65 15.23-30.82L15.23-30.82L15.23-26.52Q15.23-17.30 18.03-13.05Q20.82-8.79 26.84-8.79L26.84-8.79Q32.27-8.79 34.94-11.27Q37.62-13.75 38.01-18.95L38.01-18.95ZM67.70-60L67.70-37.66Q72.19-43.05 78.98-43.05L78.98-43.05Q92.73-43.05 92.93-27.07L92.93-27.07L92.93 0L81.64 0L81.64-26.76Q81.64-30.39 80.08-32.13Q78.52-33.87 74.88-33.87L74.88-33.87Q69.92-33.87 67.70-30.04L67.70-30.04L67.70 0L56.41 0L56.41-60L67.70-60ZM137.34 0L125.94 0Q125.16-1.52 124.80-3.79L124.80-3.79Q120.70 0.78 114.14 0.78L114.14 0.78Q107.93 0.78 103.85-2.81Q99.77-6.41 99.77-11.88L99.77-11.88Q99.77-18.59 104.75-22.19Q109.73-25.78 119.14-25.82L119.14-25.82L124.34-25.82L124.34-28.24Q124.34-31.17 122.83-32.93Q121.33-34.69 118.09-34.69L118.09-34.69Q115.23-34.69 113.61-33.32Q111.99-31.95 111.99-29.57L111.99-29.57L100.70-29.57Q100.70-33.24 102.97-36.37Q105.23-39.49 109.38-41.27Q113.52-43.05 118.67-43.05L118.67-43.05Q126.48-43.05 131.07-39.12Q135.66-35.20 135.66-28.09L135.66-28.09L135.66-9.77Q135.70-3.75 137.34-0.66L137.34-0.66L137.34 0ZM116.60-7.85L116.60-7.85Q119.10-7.85 121.21-8.96Q123.32-10.08 124.34-11.95L124.34-11.95L124.34-19.22L120.12-19.22Q111.64-19.22 111.09-13.36L111.09-13.36L111.05-12.70Q111.05-10.59 112.54-9.22Q114.02-7.85 116.60-7.85ZM144.10-42.27L154.73-42.27L155.08-37.38Q159.61-43.05 167.23-43.05L167.23-43.05Q173.95-43.05 177.23-39.10Q180.51-35.16 180.59-27.30L180.59-27.30L180.59 0L169.30 0L169.30-27.03Q169.30-30.63 167.73-32.25Q166.17-33.87 162.54-33.87L162.54-33.87Q157.77-33.87 155.39-29.80L155.39-29.80L155.39 0L144.10 0L144.10-42.27ZM222.81-18.95L234.53-18.95Q233.87-9.77 227.75-4.49Q221.64 0.78 211.64 0.78L211.64 0.78Q200.70 0.78 194.43-6.58Q188.16-13.95 188.16-26.80L188.16-26.80L188.16-30.27Q188.16-38.48 191.05-44.73Q193.95-50.98 199.32-54.32Q204.69-57.66 211.80-57.66L211.80-57.66Q221.64-57.66 227.66-52.38Q233.67-47.11 234.61-37.58L234.61-37.58L222.89-37.58Q222.46-43.09 219.82-45.57Q217.19-48.05 211.80-48.05L211.80-48.05Q205.94-48.05 203.03-43.85Q200.12-39.65 200.04-30.82L200.04-30.82L200.04-26.52Q200.04-17.30 202.83-13.05Q205.63-8.79 211.64-8.79L211.64-8.79Q217.07-8.79 219.75-11.27Q222.42-13.75 222.81-18.95L222.81-18.95ZM253.40-60L253.40 0L242.07 0L242.07-60L253.40-60ZM298.59 0L287.19 0Q286.41-1.52 286.05-3.79L286.05-3.79Q281.95 0.78 275.39 0.78L275.39 0.78Q269.18 0.78 265.10-2.81Q261.02-6.41 261.02-11.88L261.02-11.88Q261.02-18.59 266.00-22.19Q270.98-25.78 280.39-25.82L280.39-25.82L285.59-25.82L285.59-28.24Q285.59-31.17 284.08-32.93Q282.58-34.69 279.34-34.69L279.34-34.69Q276.48-34.69 274.86-33.32Q273.24-31.95 273.24-29.57L273.24-29.57L261.95-29.57Q261.95-33.24 264.22-36.37Q266.48-39.49 270.63-41.27Q274.77-43.05 279.92-43.05L279.92-43.05Q287.73-43.05 292.32-39.12Q296.91-35.20 296.91-28.09L296.91-28.09L296.91-9.77Q296.95-3.75 298.59-0.66L298.59-0.66L298.59 0ZM277.85-7.85L277.85-7.85Q280.35-7.85 282.46-8.96Q284.57-10.08 285.59-11.95L285.59-11.95L285.59-19.22L281.37-19.22Q272.89-19.22 272.34-13.36L272.34-13.36L272.30-12.70Q272.30-10.59 273.79-9.22Q275.27-7.85 277.85-7.85ZM334.65-42.27L342.34-15.35L347.89-42.27L358.79-42.27L348.01 0L338.55 0L330.55-26.60L322.54 0L313.13 0L302.34-42.27L313.24-42.27L318.75-15.39L326.48-42.27L334.65-42.27Z" transform="translate(779.98046875, 420)" fill="#ffffff" />
  <line x1="660" y1="480" x2="1260" y2="480" stroke="#e94560" stroke-width="6"/>
  <circle cx="620" cy="535" r="8" fill="#e94560" /><path d="M6.46-28.44L12.34-15.63L18.26-28.44L24.67-28.44L15.33-10.31L15.33 0L9.38 0L9.38-10.31L0.04-28.44L6.46-28.44ZM26.02-10.51L26.02-10.76Q26.02-13.91 27.23-16.37Q28.44-18.83 30.71-20.18Q32.99-21.52 36.00-21.52L36.00-21.52Q40.27-21.52 42.98-18.91Q45.68-16.29 46.00-11.80L46.00-11.80L46.04-10.35Q46.04-5.49 43.32-2.55Q40.61 0.39 36.04 0.39Q31.46 0.39 28.74-2.54Q26.02-5.47 26.02-10.51L26.02-10.51ZM31.66-10.35L31.66-10.35Q31.66-7.34 32.79-5.75Q33.93-4.16 36.04-4.16L36.04-4.16Q38.09-4.16 39.24-5.73Q40.39-7.30 40.39-10.76L40.39-10.76Q40.39-13.71 39.24-15.33Q38.09-16.95 36.00-16.95L36.00-16.95Q33.93-16.95 32.79-15.34Q31.66-13.73 31.66-10.35ZM62.32 0L62.17-2.15Q60.08 0.39 56.39 0.39L56.39 0.39Q52.99 0.39 51.20-1.56Q49.41-3.52 49.38-7.29L49.38-7.29L49.38-21.13L55.02-21.13L55.02-7.48Q55.02-4.18 58.03-4.18L58.03-4.18Q60.90-4.18 61.97-6.17L61.97-6.17L61.97-21.13L67.64-21.13L67.64 0L62.32 0ZM83.85-21.27L83.77-15.84Q82.62-16.00 81.74-16.00L81.74-16.00Q78.54-16.00 77.54-13.83L77.54-13.83L77.54 0L71.89 0L71.89-21.13L77.23-21.13L77.38-18.61Q79.08-21.52 82.09-21.52L82.09-21.52Q83.03-21.52 83.85-21.27L83.85-21.27ZM114.84 0L112.87-5.86L102.60-5.86L100.64 0L94.41 0L105-28.44L110.43-28.44L121.07 0L114.84 0ZM107.71-21.25L104.18-10.61L111.29-10.61L107.71-21.25ZM129.96-28.44L129.96 0L124.10 0L124.10-28.44L129.96-28.44ZM146.00-14.45L146.00-9.90L135-9.90L135-14.45L146.00-14.45ZM161.89-10.02L156.76-10.02L156.76 0L150.90 0L150.90-28.44L161.99-28.44Q165.20-28.44 167.63-27.27Q170.06-26.09 171.37-23.94Q172.68-21.78 172.68-19.02L172.68-19.02Q172.68-14.84 169.81-12.43Q166.95-10.02 161.89-10.02L161.89-10.02ZM156.76-23.69L156.76-14.77L161.99-14.77Q164.32-14.77 165.54-15.86Q166.76-16.95 166.76-18.98L166.76-18.98Q166.76-21.07 165.53-22.36Q164.30-23.65 162.13-23.69L162.13-23.69L156.76-23.69ZM175.45-10.51L175.45-10.76Q175.45-13.91 176.66-16.37Q177.87-18.83 180.15-20.18Q182.42-21.52 185.43-21.52L185.43-21.52Q189.71-21.52 192.41-18.91Q195.12-16.29 195.43-11.80L195.43-11.80L195.47-10.35Q195.47-5.49 192.75-2.55Q190.04 0.39 185.47 0.39Q180.90 0.39 178.17-2.54Q175.45-5.47 175.45-10.51L175.45-10.51ZM181.09-10.35L181.09-10.35Q181.09-7.34 182.23-5.75Q183.36-4.16 185.47-4.16L185.47-4.16Q187.52-4.16 188.67-5.73Q189.82-7.30 189.82-10.76L189.82-10.76Q189.82-13.71 188.67-15.33Q187.52-16.95 185.43-16.95L185.43-16.95Q183.36-16.95 182.23-15.34Q181.09-13.73 181.09-10.35ZM213.48-21.13L217.32-7.68L220.10-21.13L225.55-21.13L220.16 0L215.43 0L211.43-13.30L207.42 0L202.71 0L197.32-21.13L202.77-21.13L205.53-7.70L209.39-21.13L213.48-21.13ZM238.07 0.39L238.07 0.39Q233.42 0.39 230.50-2.46Q227.58-5.31 227.58-10.06L227.58-10.06L227.58-10.61Q227.58-13.79 228.81-16.30Q230.04-18.81 232.29-20.17Q234.55-21.52 237.44-21.52L237.44-21.52Q241.78-21.52 244.27-18.79Q246.76-16.05 246.76-11.04L246.76-11.04L246.76-8.73L233.30-8.73Q233.57-6.66 234.95-5.41Q236.33-4.16 238.44-4.16L238.44-4.16Q241.70-4.16 243.54-6.52L243.54-6.52L246.31-3.42Q245.04-1.62 242.87-0.62Q240.70 0.39 238.07 0.39ZM237.42-16.95L237.42-16.95Q235.74-16.95 234.70-15.82Q233.65-14.69 233.36-12.58L233.36-12.58L241.21-12.58L241.21-13.03Q241.17-14.90 240.20-15.93Q239.22-16.95 237.42-16.95ZM261.91-21.27L261.84-15.84Q260.68-16.00 259.80-16.00L259.80-16.00Q256.60-16.00 255.61-13.83L255.61-13.83L255.61 0L249.96 0L249.96-21.13L255.29-21.13L255.45-18.61Q257.15-21.52 260.16-21.52L260.16-21.52Q261.09-21.52 261.91-21.27L261.91-21.27ZM274.28 0.39L274.28 0.39Q269.63 0.39 266.71-2.46Q263.79-5.31 263.79-10.06L263.79-10.06L263.79-10.61Q263.79-13.79 265.02-16.30Q266.25-18.81 268.51-20.17Q270.76-21.52 273.65-21.52L273.65-21.52Q277.99-21.52 280.48-18.79Q282.97-16.05 282.97-11.04L282.97-11.04L282.97-8.73L269.51-8.73Q269.79-6.66 271.16-5.41Q272.54-4.16 274.65-4.16L274.65-4.16Q277.91-4.16 279.75-6.52L279.75-6.52L282.52-3.42Q281.25-1.62 279.08-0.62Q276.91 0.39 274.28 0.39ZM273.63-16.95L273.63-16.95Q271.95-16.95 270.91-15.82Q269.86-14.69 269.57-12.58L269.57-12.58L277.42-12.58L277.42-13.03Q277.38-14.90 276.41-15.93Q275.43-16.95 273.63-16.95ZM285.29-10.72L285.29-10.72Q285.29-15.66 287.51-18.59Q289.73-21.52 293.57-21.52L293.57-21.52Q296.66-21.52 298.67-19.22L298.67-19.22L298.67-30L304.34-30L304.34 0L299.24 0L298.96-2.25Q296.86 0.39 293.54 0.39L293.54 0.39Q289.80 0.39 287.55-2.55Q285.29-5.49 285.29-10.72ZM290.94-10.31L290.94-10.31Q290.94-7.34 291.97-5.76Q293.01-4.18 294.98-4.18L294.98-4.18Q297.60-4.18 298.67-6.39L298.67-6.39L298.67-14.73Q297.62-16.93 295.02-16.93L295.02-16.93Q290.94-16.93 290.94-10.31ZM330.04-10.02L324.90-10.02L324.90 0L319.04 0L319.04-28.44L330.14-28.44Q333.34-28.44 335.77-27.27Q338.20-26.09 339.51-23.94Q340.82-21.78 340.82-19.02L340.82-19.02Q340.82-14.84 337.96-12.43Q335.10-10.02 330.04-10.02L330.04-10.02ZM324.90-23.69L324.90-14.77L330.14-14.77Q332.46-14.77 333.68-15.86Q334.90-16.95 334.90-18.98L334.90-18.98Q334.90-21.07 333.67-22.36Q332.44-23.65 330.27-23.69L330.27-23.69L324.90-23.69ZM354.20 0.39L354.20 0.39Q349.55 0.39 346.63-2.46Q343.71-5.31 343.71-10.06L343.71-10.06L343.71-10.61Q343.71-13.79 344.94-16.30Q346.17-18.81 348.43-20.17Q350.68-21.52 353.57-21.52L353.57-21.52Q357.91-21.52 360.40-18.79Q362.89-16.05 362.89-11.04L362.89-11.04L362.89-8.73L349.43-8.73Q349.71-6.66 351.08-5.41Q352.46-4.16 354.57-4.16L354.57-4.16Q357.83-4.16 359.67-6.52L359.67-6.52L362.44-3.42Q361.17-1.62 359.00-0.62Q356.84 0.39 354.20 0.39ZM353.55-16.95L353.55-16.95Q351.88-16.95 350.83-15.82Q349.79-14.69 349.49-12.58L349.49-12.58L357.34-12.58L357.34-13.03Q357.30-14.90 356.33-15.93Q355.35-16.95 353.55-16.95ZM378.05-21.27L377.97-15.84Q376.82-16.00 375.94-16.00L375.94-16.00Q372.73-16.00 371.74-13.83L371.74-13.83L371.74 0L366.09 0L366.09-21.13L371.43-21.13L371.58-18.61Q373.28-21.52 376.29-21.52L376.29-21.52Q377.23-21.52 378.05-21.27L378.05-21.27ZM392.13-5.84L392.13-5.84Q392.13-6.88 391.10-7.47Q390.08-8.07 387.81-8.54L387.81-8.54Q380.27-10.12 380.27-14.94L380.27-14.94Q380.27-17.75 382.61-19.64Q384.94-21.52 388.71-21.52L388.71-21.52Q392.73-21.52 395.15-19.63Q397.56-17.73 397.56-14.71L397.56-14.71L391.91-14.71Q391.91-15.92 391.13-16.71Q390.35-17.50 388.69-17.50L388.69-17.50Q387.27-17.50 386.48-16.86Q385.70-16.21 385.70-15.21L385.70-15.21Q385.70-14.28 386.59-13.70Q387.48-13.13 389.59-12.71Q391.70-12.29 393.14-11.76L393.14-11.76Q397.62-10.12 397.62-6.07L397.62-6.07Q397.62-3.18 395.14-1.40Q392.66 0.39 388.73 0.39L388.73 0.39Q386.07 0.39 384.01-0.56Q381.95-1.50 380.78-3.15Q379.61-4.80 379.61-6.72L379.61-6.72L384.96-6.72Q385.04-5.21 386.07-4.41Q387.11-3.61 388.85-3.61L388.85-3.61Q390.47-3.61 391.30-4.23Q392.13-4.84 392.13-5.84ZM400.37-10.51L400.37-10.76Q400.37-13.91 401.58-16.37Q402.79-18.83 405.07-20.18Q407.34-21.52 410.35-21.52L410.35-21.52Q414.63-21.52 417.33-18.91Q420.04-16.29 420.35-11.80L420.35-11.80L420.39-10.35Q420.39-5.49 417.68-2.55Q414.96 0.39 410.39 0.39Q405.82 0.39 403.10-2.54Q400.37-5.47 400.37-10.51L400.37-10.51ZM406.02-10.35L406.02-10.35Q406.02-7.34 407.15-5.75Q408.28-4.16 410.39-4.16L410.39-4.16Q412.44-4.16 413.59-5.73Q414.75-7.30 414.75-10.76L414.75-10.76Q414.75-13.71 413.59-15.33Q412.44-16.95 410.35-16.95L410.35-16.95Q408.28-16.95 407.15-15.34Q406.02-13.73 406.02-10.35ZM423.75-21.13L429.06-21.13L429.24-18.69Q431.50-21.52 435.31-21.52L435.31-21.52Q438.67-21.52 440.31-19.55Q441.95-17.58 441.99-13.65L441.99-13.65L441.99 0L436.35 0L436.35-13.52Q436.35-15.31 435.57-16.12Q434.79-16.93 432.97-16.93L432.97-16.93Q430.59-16.93 429.39-14.90L429.39-14.90L429.39 0L423.75 0L423.75-21.13ZM464.22 0L458.52 0Q458.13-0.76 457.95-1.89L457.95-1.89Q455.90 0.39 452.62 0.39L452.62 0.39Q449.51 0.39 447.47-1.41Q445.43-3.20 445.43-5.94L445.43-5.94Q445.43-9.30 447.92-11.09Q450.41-12.89 455.12-12.91L455.12-12.91L457.71-12.91L457.71-14.12Q457.71-15.59 456.96-16.46Q456.21-17.34 454.59-17.34L454.59-17.34Q453.16-17.34 452.35-16.66Q451.54-15.98 451.54-14.79L451.54-14.79L445.90-14.79Q445.90-16.62 447.03-18.18Q448.16-19.75 450.23-20.63Q452.30-21.52 454.88-21.52L454.88-21.52Q458.79-21.52 461.08-19.56Q463.38-17.60 463.38-14.04L463.38-14.04L463.38-4.88Q463.40-1.88 464.22-0.33L464.22-0.33L464.22 0ZM453.85-3.93L453.85-3.93Q455.10-3.93 456.15-4.48Q457.21-5.04 457.71-5.98L457.71-5.98L457.71-9.61L455.61-9.61Q451.37-9.61 451.09-6.68L451.09-6.68L451.07-6.35Q451.07-5.29 451.82-4.61Q452.56-3.93 453.85-3.93ZM473.67-30L473.67 0L468.01 0L468.01-30L473.67-30ZM506.68 0L504.71-5.86L494.43-5.86L492.48 0L486.25 0L496.84-28.44L502.27-28.44L512.91 0L506.68 0ZM499.55-21.25L496.02-10.61L503.13-10.61L499.55-21.25ZM526.64-5.84L526.64-5.84Q526.64-6.88 525.62-7.47Q524.59-8.07 522.32-8.54L522.32-8.54Q514.79-10.12 514.79-14.94L514.79-14.94Q514.79-17.75 517.12-19.64Q519.45-21.52 523.22-21.52L523.22-21.52Q527.25-21.52 529.66-19.63Q532.07-17.73 532.07-14.71L532.07-14.71L526.43-14.71Q526.43-15.92 525.64-16.71Q524.86-17.50 523.20-17.50L523.20-17.50Q521.78-17.50 521.00-16.86Q520.21-16.21 520.21-15.21L520.21-15.21Q520.21-14.28 521.10-13.70Q521.99-13.13 524.10-12.71Q526.21-12.29 527.66-11.76L527.66-11.76Q532.13-10.12 532.13-6.07L532.13-6.07Q532.13-3.18 529.65-1.40Q527.17 0.39 523.24 0.39L523.24 0.39Q520.59 0.39 518.53-0.56Q516.46-1.50 515.29-3.15Q514.12-4.80 514.12-6.72L514.12-6.72L519.47-6.72Q519.55-5.21 520.59-4.41Q521.62-3.61 523.36-3.61L523.36-3.61Q524.98-3.61 525.81-4.23Q526.64-4.84 526.64-5.84ZM547.21-5.84L547.21-5.84Q547.21-6.88 546.18-7.47Q545.16-8.07 542.89-8.54L542.89-8.54Q535.35-10.12 535.35-14.94L535.35-14.94Q535.35-17.75 537.69-19.64Q540.02-21.52 543.79-21.52L543.79-21.52Q547.81-21.52 550.22-19.63Q552.64-17.73 552.64-14.71L552.64-14.71L546.99-14.71Q546.99-15.92 546.21-16.71Q545.43-17.50 543.77-17.50L543.77-17.50Q542.34-17.50 541.56-16.86Q540.78-16.21 540.78-15.21L540.78-15.21Q540.78-14.28 541.67-13.70Q542.56-13.13 544.67-12.71Q546.78-12.29 548.22-11.76L548.22-11.76Q552.70-10.12 552.70-6.07L552.70-6.07Q552.70-3.18 550.21-1.40Q547.73 0.39 543.81 0.39L543.81 0.39Q541.15 0.39 539.09-0.56Q537.03-1.50 535.86-3.15Q534.69-4.80 534.69-6.72L534.69-6.72L540.04-6.72Q540.12-5.21 541.15-4.41Q542.19-3.61 543.93-3.61L543.93-3.61Q545.55-3.61 546.38-4.23Q547.21-4.84 547.21-5.84ZM562.29-21.13L562.29 0L556.62 0L556.62-21.13L562.29-21.13ZM556.29-26.60L556.29-26.60Q556.29-27.87 557.14-28.69Q557.99-29.51 559.45-29.51L559.45-29.51Q560.90-29.51 561.76-28.69Q562.62-27.87 562.62-26.60L562.62-26.60Q562.62-25.31 561.75-24.49Q560.88-23.67 559.45-23.67Q558.03-23.67 557.16-24.49Q556.29-25.31 556.29-26.60ZM578.38-5.84L578.38-5.84Q578.38-6.88 577.35-7.47Q576.33-8.07 574.06-8.54L574.06-8.54Q566.52-10.12 566.52-14.94L566.52-14.94Q566.52-17.75 568.86-19.64Q571.19-21.52 574.96-21.52L574.96-21.52Q578.98-21.52 581.40-19.63Q583.81-17.73 583.81-14.71L583.81-14.71L578.16-14.71Q578.16-15.92 577.38-16.71Q576.60-17.50 574.94-17.50L574.94-17.50Q573.52-17.50 572.73-16.86Q571.95-16.21 571.95-15.21L571.95-15.21Q571.95-14.28 572.84-13.70Q573.73-13.13 575.84-12.71Q577.95-12.29 579.39-11.76L579.39-11.76Q583.87-10.12 583.87-6.07L583.87-6.07Q583.87-3.18 581.39-1.40Q578.91 0.39 574.98 0.39L574.98 0.39Q572.32 0.39 570.26-0.56Q568.20-1.50 567.03-3.15Q565.86-4.80 565.86-6.72L565.86-6.72L571.21-6.72Q571.29-5.21 572.32-4.41Q573.36-3.61 575.10-3.61L575.10-3.61Q576.72-3.61 577.55-4.23Q578.38-4.84 578.38-5.84ZM588.61-26.33L594.26-26.33L594.26-21.13L597.87-21.13L597.87-16.99L594.26-16.99L594.26-6.45Q594.26-5.27 594.71-4.77Q595.16-4.26 596.43-4.26L596.43-4.26Q597.36-4.26 598.09-4.39L598.09-4.39L598.09-0.12Q596.43 0.39 594.67 0.39L594.67 0.39Q588.73 0.39 588.61-5.61L588.61-5.61L588.61-16.99L585.53-16.99L585.53-21.13L588.61-21.13L588.61-26.33ZM618.96 0L613.26 0Q612.87-0.76 612.70-1.89L612.70-1.89Q610.64 0.39 607.36 0.39L607.36 0.39Q604.26 0.39 602.22-1.41Q600.18-3.20 600.18-5.94L600.18-5.94Q600.18-9.30 602.67-11.09Q605.16-12.89 609.86-12.91L609.86-12.91L612.46-12.91L612.46-14.12Q612.46-15.59 611.71-16.46Q610.96-17.34 609.34-17.34L609.34-17.34Q607.91-17.34 607.10-16.66Q606.29-15.98 606.29-14.79L606.29-14.79L600.64-14.79Q600.64-16.62 601.78-18.18Q602.91-19.75 604.98-20.63Q607.05-21.52 609.63-21.52L609.63-21.52Q613.54-21.52 615.83-19.56Q618.13-17.60 618.13-14.04L618.13-14.04L618.13-4.88Q618.14-1.88 618.96-0.33L618.96-0.33L618.96 0ZM608.59-3.93L608.59-3.93Q609.84-3.93 610.90-4.48Q611.95-5.04 612.46-5.98L612.46-5.98L612.46-9.61L610.35-9.61Q606.11-9.61 605.84-6.68L605.84-6.68L605.82-6.35Q605.82-5.29 606.56-4.61Q607.30-3.93 608.59-3.93ZM622.34-21.13L627.66-21.13L627.83-18.69Q630.10-21.52 633.91-21.52L633.91-21.52Q637.27-21.52 638.91-19.55Q640.55-17.58 640.59-13.65L640.59-13.65L640.59 0L634.94 0L634.94-13.52Q634.94-15.31 634.16-16.12Q633.38-16.93 631.56-16.93L631.56-16.93Q629.18-16.93 627.99-14.90L627.99-14.90L627.99 0L622.34 0L622.34-21.13ZM645.98-26.33L651.62-26.33L651.62-21.13L655.23-21.13L655.23-16.99L651.62-16.99L651.62-6.45Q651.62-5.27 652.07-4.77Q652.52-4.26 653.79-4.26L653.79-4.26Q654.73-4.26 655.45-4.39L655.45-4.39L655.45-0.12Q653.79 0.39 652.03 0.39L652.03 0.39Q646.09 0.39 645.98-5.61L645.98-5.61L645.98-16.99L642.89-16.99L642.89-21.13L645.98-21.13L645.98-26.33Z" transform="translate(660, 535)" fill="#ffffff" /><circle cx="620" cy="605" r="8" fill="#e94560" /><path d="M6.46-28.44L12.34-15.63L18.26-28.44L24.67-28.44L15.33-10.31L15.33 0L9.38 0L9.38-10.31L0.04-28.44L6.46-28.44ZM26.02-10.51L26.02-10.76Q26.02-13.91 27.23-16.37Q28.44-18.83 30.71-20.18Q32.99-21.52 36.00-21.52L36.00-21.52Q40.27-21.52 42.98-18.91Q45.68-16.29 46.00-11.80L46.00-11.80L46.04-10.35Q46.04-5.49 43.32-2.55Q40.61 0.39 36.04 0.39Q31.46 0.39 28.74-2.54Q26.02-5.47 26.02-10.51L26.02-10.51ZM31.66-10.35L31.66-10.35Q31.66-7.34 32.79-5.75Q33.93-4.16 36.04-4.16L36.04-4.16Q38.09-4.16 39.24-5.73Q40.39-7.30 40.39-10.76L40.39-10.76Q40.39-13.71 39.24-15.33Q38.09-16.95 36.00-16.95L36.00-16.95Q33.93-16.95 32.79-15.34Q31.66-13.73 31.66-10.35ZM62.32 0L62.17-2.15Q60.08 0.39 56.39 0.39L56.39 0.39Q52.99 0.39 51.20-1.56Q49.41-3.52 49.38-7.29L49.38-7.29L49.38-21.13L55.02-21.13L55.02-7.48Q55.02-4.18 58.03-4.18L58.03-4.18Q60.90-4.18 61.97-6.17L61.97-6.17L61.97-21.13L67.64-21.13L67.64 0L62.32 0ZM83.85-21.27L83.77-15.84Q82.62-16.00 81.74-16.00L81.74-16.00Q78.54-16.00 77.54-13.83L77.54-13.83L77.54 0L71.89 0L71.89-21.13L77.23-21.13L77.38-18.61Q79.08-21.52 82.09-21.52L82.09-21.52Q83.03-21.52 83.85-21.27L83.85-21.27ZM114.84 0L112.87-5.86L102.60-5.86L100.64 0L94.41 0L105-28.44L110.43-28.44L121.07 0L114.84 0ZM107.71-21.25L104.18-10.61L111.29-10.61L107.71-21.25ZM129.96-28.44L129.96 0L124.10 0L124.10-28.44L129.96-28.44ZM136.48 7.13L136.48 7.13L133.54 5.59L134.24 4.32Q135.55 1.93 135.59-0.43L135.59-0.43L135.59-4.80L140.35-4.80L140.33-0.90Q140.31 1.27 139.24 3.48Q138.16 5.68 136.48 7.13ZM153.87-10.51L153.87-10.76Q153.87-13.91 155.08-16.37Q156.29-18.83 158.56-20.18Q160.84-21.52 163.85-21.52L163.85-21.52Q168.13-21.52 170.83-18.91Q173.54-16.29 173.85-11.80L173.85-11.80L173.89-10.35Q173.89-5.49 171.17-2.55Q168.46 0.39 163.89 0.39Q159.32 0.39 156.59-2.54Q153.87-5.47 153.87-10.51L153.87-10.51ZM159.51-10.35L159.51-10.35Q159.51-7.34 160.64-5.75Q161.78-4.16 163.89-4.16L163.89-4.16Q165.94-4.16 167.09-5.73Q168.24-7.30 168.24-10.76L168.24-10.76Q168.24-13.71 167.09-15.33Q165.94-16.95 163.85-16.95L163.85-16.95Q161.78-16.95 160.64-15.34Q159.51-13.73 159.51-10.35ZM177.25-21.13L182.56-21.13L182.73-18.69Q185-21.52 188.81-21.52L188.81-21.52Q192.17-21.52 193.81-19.55Q195.45-17.58 195.49-13.65L195.49-13.65L195.49 0L189.84 0L189.84-13.52Q189.84-15.31 189.06-16.12Q188.28-16.93 186.46-16.93L186.46-16.93Q184.08-16.93 182.89-14.90L182.89-14.90L182.89 0L177.25 0L177.25-21.13ZM213.69-21.13L217.62-7.99L221.52-21.13L227.58-21.13L219.08 3.28L218.61 4.39Q216.72 8.54 212.36 8.54L212.36 8.54Q211.13 8.54 209.86 8.16L209.86 8.16L209.86 3.89L210.72 3.91Q212.32 3.91 213.12 3.42Q213.91 2.93 214.36 1.80L214.36 1.80L215.02 0.06L207.62-21.13L213.69-21.13ZM228.93-10.51L228.93-10.76Q228.93-13.91 230.14-16.37Q231.35-18.83 233.62-20.18Q235.90-21.52 238.91-21.52L238.91-21.52Q243.18-21.52 245.89-18.91Q248.59-16.29 248.91-11.80L248.91-11.80L248.95-10.35Q248.95-5.49 246.23-2.55Q243.52 0.39 238.95 0.39Q234.38 0.39 231.65-2.54Q228.93-5.47 228.93-10.51L228.93-10.51ZM234.57-10.35L234.57-10.35Q234.57-7.34 235.70-5.75Q236.84-4.16 238.95-4.16L238.95-4.16Q241.00-4.16 242.15-5.73Q243.30-7.30 243.30-10.76L243.30-10.76Q243.30-13.71 242.15-15.33Q241.00-16.95 238.91-16.95L238.91-16.95Q236.84-16.95 235.70-15.34Q234.57-13.73 234.57-10.35ZM265.23 0L265.08-2.15Q262.99 0.39 259.30 0.39L259.30 0.39Q255.90 0.39 254.11-1.56Q252.32-3.52 252.29-7.29L252.29-7.29L252.29-21.13L257.93-21.13L257.93-7.48Q257.93-4.18 260.94-4.18L260.94-4.18Q263.81-4.18 264.88-6.17L264.88-6.17L264.88-21.13L270.55-21.13L270.55 0L265.23 0ZM286.76-21.27L286.68-15.84Q285.53-16.00 284.65-16.00L284.65-16.00Q281.45-16.00 280.45-13.83L280.45-13.83L280.45 0L274.80 0L274.80-21.13L280.14-21.13L280.29-18.61Q281.99-21.52 285-21.52L285-21.52Q285.94-21.52 286.76-21.27L286.76-21.27ZM300.47-26.33L306.11-26.33L306.11-21.13L309.73-21.13L309.73-16.99L306.11-16.99L306.11-6.45Q306.11-5.27 306.56-4.77Q307.01-4.26 308.28-4.26L308.28-4.26Q309.22-4.26 309.94-4.39L309.94-4.39L309.94-0.12Q308.28 0.39 306.52 0.39L306.52 0.39Q300.59 0.39 300.47-5.61L300.47-5.61L300.47-16.99L297.38-16.99L297.38-21.13L300.47-21.13L300.47-26.33ZM322.60 0.39L322.60 0.39Q317.95 0.39 315.03-2.46Q312.11-5.31 312.11-10.06L312.11-10.06L312.11-10.61Q312.11-13.79 313.34-16.30Q314.57-18.81 316.83-20.17Q319.08-21.52 321.97-21.52L321.97-21.52Q326.31-21.52 328.80-18.79Q331.29-16.05 331.29-11.04L331.29-11.04L331.29-8.73L317.83-8.73Q318.11-6.66 319.48-5.41Q320.86-4.16 322.97-4.16L322.97-4.16Q326.23-4.16 328.07-6.52L328.07-6.52L330.84-3.42Q329.57-1.62 327.40-0.62Q325.23 0.39 322.60 0.39ZM321.95-16.95L321.95-16.95Q320.27-16.95 319.23-15.82Q318.18-14.69 317.89-12.58L317.89-12.58L325.74-12.58L325.74-13.03Q325.70-14.90 324.73-15.93Q323.75-16.95 321.95-16.95ZM346.45-21.27L346.37-15.84Q345.21-16.00 344.34-16.00L344.34-16.00Q341.13-16.00 340.14-13.83L340.14-13.83L340.14 0L334.49 0L334.49-21.13L339.82-21.13L339.98-18.61Q341.68-21.52 344.69-21.52L344.69-21.52Q345.63-21.52 346.45-21.27L346.45-21.27ZM349.08-21.13L354.38-21.13L354.55-18.77Q356.80-21.52 360.63-21.52L360.63-21.52Q364.71-21.52 366.23-18.30L366.23-18.30Q368.46-21.52 372.58-21.52L372.58-21.52Q376.02-21.52 377.70-19.52Q379.38-17.52 379.38-13.50L379.38-13.50L379.38 0L373.71 0L373.71-13.48Q373.71-15.27 373.01-16.10Q372.30-16.93 370.53-16.93L370.53-16.93Q367.99-16.93 367.01-14.51L367.01-14.51L367.03 0L361.39 0L361.39-13.46Q361.39-15.29 360.66-16.11Q359.94-16.93 358.20-16.93L358.20-16.93Q355.80-16.93 354.73-14.94L354.73-14.94L354.73 0L349.08 0L349.08-21.13ZM395.16-5.84L395.16-5.84Q395.16-6.88 394.13-7.47Q393.11-8.07 390.84-8.54L390.84-8.54Q383.30-10.12 383.30-14.94L383.30-14.94Q383.30-17.75 385.63-19.64Q387.97-21.52 391.74-21.52L391.74-21.52Q395.76-21.52 398.17-19.63Q400.59-17.73 400.59-14.71L400.59-14.71L394.94-14.71Q394.94-15.92 394.16-16.71Q393.38-17.50 391.72-17.50L391.72-17.50Q390.29-17.50 389.51-16.86Q388.73-16.21 388.73-15.21L388.73-15.21Q388.73-14.28 389.62-13.70Q390.51-13.13 392.62-12.71Q394.73-12.29 396.17-11.76L396.17-11.76Q400.64-10.12 400.64-6.07L400.64-6.07Q400.64-3.18 398.16-1.40Q395.68 0.39 391.76 0.39L391.76 0.39Q389.10 0.39 387.04-0.56Q384.98-1.50 383.81-3.15Q382.64-4.80 382.64-6.72L382.64-6.72L387.99-6.72Q388.07-5.21 389.10-4.41Q390.14-3.61 391.88-3.61L391.88-3.61Q393.50-3.61 394.33-4.23Q395.16-4.84 395.16-5.84Z" transform="translate(660, 605)" fill="#ffffff" />
  <text x="960" y="1030" font-family="Arial" font-size="24" fill="#666" text-anchor="middle">OpenClaw Documentation</text>
  <line x1="880" y1="1045" x2="1040" y2="1045" stroke="#e94560" stroke-width="3" opacity="0.6"/>
</svg>