<?xml version="1.0" encoding="UTF-8"?>
<svg width="1920" height="1080" xmlns="http://www.w3.org/2000/svg">
  <defs>
    <linearGradient id="bg" x1="0%" y1="0%" x2="100%" y2="100%">
      <stop offset="0%" style="stop-color:#1a1a2e;stop-opacity:1" />
      <stop offset="100%" style="stop-color:#0f0f1a;stop-opacity:1" />
    </linearGradient>
  </defs>
  <rect width="100%" height="100%" fill="url(#bg)"/>
  <circle cx="1920" cy="0" r="600" fill="#e94560" opacity="0.1"/>
  <circle cx="0" cy="1080" r="400" fill="#e94560" opacity="0.1"/>
  <rect width="1920" height="15" fill="#e94560"/>
  <path d="M22.80-11.37L29.84-11.37Q29.44-5.86 25.77-2.70Q22.10 0.47 16.10 0.47L16.10 0.47Q9.54 0.47 5.78-3.95Q2.02-8.37 2.02-16.08L2.02-16.08L2.02-18.16Q2.02-23.09 3.75-26.84Q5.48-30.59 8.71-32.59Q11.93-34.59 16.20-34.59L16.20-34.59Q22.10-34.59 25.71-31.43Q29.32-28.27 29.88-22.55L29.88-22.55L22.85-22.55Q22.59-25.85 21.01-27.34Q19.43-28.83 16.20-28.83L16.20-28.83Q12.68-28.83 10.93-26.31Q9.19-23.79 9.14-18.49L9.14-18.49L9.14-15.91Q9.14-10.38 10.82-7.83Q12.49-5.27 16.10-5.27L16.10-5.27Q19.36-5.27 20.96-6.76Q22.57-8.25 22.80-11.37L22.80-11.37ZM40.62-36L40.62-22.59Q43.31-25.83 47.39-25.83L47.39-25.83Q55.64-25.83 55.76-16.24L55.76-16.24L55.76 0L48.98 0L48.98-16.05Q48.98-18.23 48.05-19.28Q47.11-20.32 44.93-20.32L44.93-20.32Q41.95-20.32 40.62-18.02L40.62-18.02L40.62 0L33.84 0L33.84-36L40.62-36ZM82.41 0L75.56 0Q75.09-0.91 74.88-2.27L74.88-2.27Q72.42 0.47 68.48 0.47L68.48 0.47Q64.76 0.47 62.31-1.69Q59.86-3.84 59.86-7.13L59.86-7.13Q59.86-11.16 62.85-13.31Q65.84-15.47 71.48-15.49L71.48-15.49L74.60-15.49L74.60-16.95Q74.60-18.70 73.70-19.76Q72.80-20.81 70.85-20.81L70.85-20.81Q69.14-20.81 68.17-19.99Q67.20-19.17 67.20-17.74L67.20-17.74L60.42-17.74Q60.42-19.95 61.78-21.82Q63.14-23.70 65.63-24.76Q68.11-25.83 71.20-25.83L71.20-25.83Q75.89-25.83 78.64-23.47Q81.40-21.12 81.40-16.85L81.40-16.85L81.40-5.86Q81.42-2.25 82.41-0.40L82.41-0.40L82.41 0ZM69.96-4.71L69.96-4.71Q71.46-4.71 72.73-5.38Q73.99-6.05 74.60-7.17L74.60-7.17L74.60-11.53L72.07-11.53Q66.98-11.53 66.66-8.02L66.66-8.02L66.63-7.62Q66.63-6.35 67.52-5.53Q68.41-4.71 69.96-4.71ZM86.46-25.36L92.84-25.36L93.05-22.43Q95.77-25.83 100.34-25.83L100.34-25.83Q104.37-25.83 106.34-23.46Q108.30-21.09 108.35-16.38L108.35-16.38L108.35 0L101.58 0L101.58-16.22Q101.58-18.38 100.64-19.35Q99.70-20.32 97.52-20.32L97.52-20.32Q94.66-20.32 93.23-17.88L93.23-17.88L93.23 0L86.46 0L86.46-25.36ZM133.69-11.37L140.72-11.37Q140.32-5.86 136.65-2.70Q132.98 0.47 126.98 0.47L126.98 0.47Q120.42 0.47 116.66-3.95Q112.90-8.37 112.90-16.08L112.90-16.08L112.90-18.16Q112.90-23.09 114.63-26.84Q116.37-30.59 119.59-32.59Q122.81-34.59 127.08-34.59L127.08-34.59Q132.98-34.59 136.59-31.43Q140.20-28.27 140.77-22.55L140.77-22.55L133.73-22.55Q133.48-25.85 131.89-27.34Q130.31-28.83 127.08-28.83L127.08-28.83Q123.56-28.83 121.82-26.31Q120.07-23.79 120.02-18.49L120.02-18.49L120.02-15.91Q120.02-10.38 121.70-7.83Q123.38-5.27 126.98-5.27L126.98-5.27Q130.24-5.27 131.85-6.76Q133.45-8.25 133.69-11.37L133.69-11.37ZM152.04-36L152.04 0L145.24 0L145.24-36L152.04-36ZM179.16 0L172.31 0Q171.84-0.91 171.63-2.27L171.63-2.27Q169.17 0.47 165.23 0.47L165.23 0.47Q161.51 0.47 159.06-1.69Q156.61-3.84 156.61-7.13L156.61-7.13Q156.61-11.16 159.60-13.31Q162.59-15.47 168.23-15.49L168.23-15.49L171.35-15.49L171.35-16.95Q171.35-18.70 170.45-19.76Q169.55-20.81 167.60-20.81L167.60-20.81Q165.89-20.81 164.92-19.99Q163.95-19.17 163.95-17.74L163.95-17.74L157.17-17.74Q157.17-19.95 158.53-21.82Q159.89-23.70 162.38-24.76Q164.86-25.83 167.95-25.83L167.95-25.83Q172.64-25.83 175.39-23.47Q178.15-21.12 178.15-16.85L178.15-16.85L178.15-5.86Q178.17-2.25 179.16-0.40L179.16-0.40L179.16 0ZM166.71-4.71L166.71-4.71Q168.21-4.71 169.48-5.38Q170.74-6.05 171.35-7.17L171.35-7.17L171.35-11.53L168.82-11.53Q163.73-11.53 163.41-8.02L163.41-8.02L163.38-7.62Q163.38-6.35 164.27-5.53Q165.16-4.71 166.71-4.71ZM200.79-25.36L205.41-9.21L208.73-25.36L215.27-25.36L208.80 0L203.13 0L198.33-15.96L193.52 0L187.88 0L181.41-25.36L187.95-25.36L191.25-9.23L195.89-25.36L200.79-25.36Z" transform="translate(60, 85)" fill="#e94560" />
  <text x="1860" y="85" font-family="Arial" font-size="28" fill="#888" text-anchor="end">SLIDE 3/10</text>
  <path d="M38.01-18.95L49.73-18.95Q49.06-9.77 42.95-4.49Q36.84 0.78 26.84 0.78L26.84 0.78Q15.90 0.78 9.63-6.58Q3.36-13.95 3.36-26.80L3.36-26.80L3.36-30.27Q3.36-38.48 6.25-44.73Q9.14-50.98 14.51-54.32Q19.88-57.66 26.99-57.66L26.99-57.66Q36.84-57.66 42.85-52.38Q48.87-47.11 49.80-37.58L49.80-37.58L38.09-37.58Q37.66-43.09 35.02-45.57Q32.38-48.05 26.99-48.05L26.99-48.05Q21.13-48.05 18.22-43.85Q15.31-39.65 15.23-30.82L15.23-30.82L15.23-26.52Q15.23-17.30 18.03-13.05Q20.82-8.79 26.84-8.79L26.84-8.79Q32.27-8.79 34.94-11.27Q37.62-13.75 38.01-18.95L38.01-18.95ZM54.92-21.02L54.92-21.52Q54.92-27.81 57.34-32.73Q59.77-37.66 64.32-40.35Q68.87-43.05 74.88-43.05L74.88-43.05Q83.44-43.05 88.85-37.81Q94.26-32.58 94.88-23.59L94.88-23.59L94.96-20.70Q94.96-10.98 89.53-5.10Q84.10 0.78 74.96 0.78Q65.82 0.78 60.37-5.08Q54.92-10.94 54.92-21.02L54.92-21.02ZM66.21-20.70L66.21-20.70Q66.21-14.69 68.48-11.50Q70.74-8.32 74.96-8.32L74.96-8.32Q79.06-8.32 81.37-11.46Q83.67-14.61 83.67-21.52L83.67-21.52Q83.67-27.42 81.37-30.66Q79.06-33.91 74.88-33.91L74.88-33.91Q70.74-33.91 68.48-30.68Q66.21-27.46 66.21-20.70ZM125.82-42.54L125.66-31.68Q123.36-31.99 121.60-31.99L121.60-31.99Q115.20-31.99 113.20-27.66L113.20-27.66L113.20 0L101.91 0L101.91-42.27L112.58-42.27L112.89-37.23Q116.29-43.05 122.30-43.05L122.30-43.05Q124.18-43.05 125.82-42.54L125.82-42.54ZM150.55 0.78L150.55 0.78Q141.25 0.78 135.41-4.92Q129.57-10.63 129.57-20.12L129.57-20.12L129.57-21.21Q129.57-27.58 132.03-32.60Q134.49-37.62 139.00-40.33Q143.52-43.05 149.30-43.05L149.30-43.05Q157.97-43.05 162.95-37.58Q167.93-32.11 167.93-22.07L167.93-22.07L167.93-17.46L141.02-17.46Q141.56-13.32 144.32-10.82Q147.07-8.32 151.29-8.32L151.29-8.32Q157.81-8.32 161.48-13.05L161.48-13.05L167.03-6.84Q164.49-3.24 160.16-1.23Q155.82 0.78 150.55 0.78ZM149.26-33.91L149.26-33.91Q145.90-33.91 143.81-31.64Q141.72-29.38 141.13-25.16L141.13-25.16L156.84-25.16L156.84-26.05Q156.76-29.80 154.80-31.86Q152.85-33.91 149.26-33.91ZM227.93-18.95L239.65-18.95Q238.98-9.77 232.87-4.49Q226.76 0.78 216.76 0.78L216.76 0.78Q205.82 0.78 199.55-6.58Q193.28-13.95 193.28-26.80L193.28-26.80L193.28-30.27Q193.28-38.48 196.17-44.73Q199.06-50.98 204.43-54.32Q209.80-57.66 216.91-57.66L216.91-57.66Q226.76-57.66 232.77-52.38Q238.79-47.11 239.73-37.58L239.73-37.58L228.01-37.58Q227.58-43.09 224.94-45.57Q222.30-48.05 216.91-48.05L216.91-48.05Q211.05-48.05 208.14-43.85Q205.23-39.65 205.16-30.82L205.16-30.82L205.16-26.52Q205.16-17.30 207.95-13.05Q210.74-8.79 216.76-8.79L216.76-8.79Q222.19-8.79 224.86-11.27Q227.54-13.75 227.93-18.95L227.93-18.95ZM282.50 0L271.09 0Q270.31-1.52 269.96-3.79L269.96-3.79Q265.86 0.78 259.30 0.78L259.30 0.78Q253.09 0.78 249.00-2.81Q244.92-6.41 244.92-11.88L244.92-11.88Q244.92-18.59 249.90-22.19Q254.88-25.78 264.30-25.82L264.30-25.82L269.49-25.82L269.49-28.24Q269.49-31.17 267.99-32.93Q266.48-34.69 263.24-34.69L263.24-34.69Q260.39-34.69 258.77-33.32Q257.15-31.95 257.15-29.57L257.15-29.57L245.86-29.57Q245.86-33.24 248.13-36.37Q250.39-39.49 254.53-41.27Q258.67-43.05 263.83-43.05L263.83-43.05Q271.64-43.05 276.23-39.12Q280.82-35.20 280.82-28.09L280.82-28.09L280.82-9.77Q280.86-3.75 282.50-0.66L282.50-0.66L282.50 0ZM261.76-7.85L261.76-7.85Q264.26-7.85 266.37-8.96Q268.48-10.08 269.49-11.95L269.49-11.95L269.49-19.22L265.27-19.22Q256.80-19.22 256.25-13.36L256.25-13.36L256.21-12.70Q256.21-10.59 257.70-9.22Q259.18-7.85 261.76-7.85ZM327.54-21.33L327.54-20.74Q327.54-10.98 323.11-5.10Q318.67 0.78 311.13 0.78L311.13 0.78Q304.73 0.78 300.78-3.67L300.78-3.67L300.78 16.25L289.49 16.25L289.49-42.27L299.96-42.27L300.35-38.13Q304.45-43.05 311.05-43.05L311.05-43.05Q318.87-43.05 323.20-37.27Q327.54-31.48 327.54-21.33L327.54-21.33ZM316.25-21.56L316.25-21.56Q316.25-27.46 314.16-30.66Q312.07-33.87 308.09-33.87L308.09-33.87Q302.77-33.87 300.78-29.80L300.78-29.80L300.78-12.50Q302.85-8.32 308.16-8.32L308.16-8.32Q316.25-8.32 316.25-21.56ZM370.43 0L359.02 0Q358.24-1.52 357.89-3.79L357.89-3.79Q353.79 0.78 347.23 0.78L347.23 0.78Q341.02 0.78 336.93-2.81Q332.85-6.41 332.85-11.88L332.85-11.88Q332.85-18.59 337.83-22.19Q342.81-25.78 352.23-25.82L352.23-25.82L357.42-25.82L357.42-28.24Q357.42-31.17 355.92-32.93Q354.41-34.69 351.17-34.69L351.17-34.69Q348.32-34.69 346.70-33.32Q345.08-31.95 345.08-29.57L345.08-29.57L333.79-29.57Q333.79-33.24 336.05-36.37Q338.32-39.49 342.46-41.27Q346.60-43.05 351.76-43.05L351.76-43.05Q359.57-43.05 364.16-39.12Q368.75-35.20 368.75-28.09L368.75-28.09L368.75-9.77Q368.79-3.75 370.43-0.66L370.43-0.66L370.43 0ZM349.69-7.85L349.69-7.85Q352.19-7.85 354.30-8.96Q356.41-10.08 357.42-11.95L357.42-11.95L357.42-19.22L353.20-19.22Q344.73-19.22 344.18-13.36L344.18-13.36L344.14-12.70Q344.14-10.59 345.63-9.22Q347.11-7.85 349.69-7.85ZM415.51-21.37L415.51-20.74Q415.51-10.59 411.17-4.90Q406.84 0.78 399.06 0.78L399.06 0.78Q392.19 0.78 388.09-4.49L388.09-4.49L387.58 0L377.42 0L377.42-60L388.71-60L388.71-38.48Q392.62-43.05 398.98-43.05L398.98-43.05Q406.72-43.05 411.11-37.36Q415.51-31.68 415.51-21.37L415.51-21.37ZM404.22-21.56L404.22-21.56Q404.22-27.97 402.19-30.92Q400.16-33.87 396.13-33.87L396.13-33.87Q390.74-33.87 388.71-29.45L388.71-29.45L388.71-12.77Q390.78-8.32 396.21-8.32L396.21-8.32Q401.68-8.32 403.40-13.71L403.40-13.71Q404.22-16.29 404.22-21.56ZM434.38-42.27L434.38 0L423.05 0L423.05-42.27L434.38-42.27ZM422.38-53.20L422.38-53.20Q422.38-55.74 424.08-57.38Q425.78-59.02 428.71-59.02L428.71-59.02Q431.60-59.02 433.32-57.38Q435.04-55.74 435.04-53.20L435.04-53.20Q435.04-50.63 433.30-48.98Q431.56-47.34 428.71-47.34Q425.86-47.34 424.12-48.98Q422.38-50.63 422.38-53.20ZM455.59-60L455.59 0L444.26 0L444.26-60L455.59-60ZM476.80-42.27L476.80 0L465.47 0L465.47-42.27L476.80-42.27ZM464.80-53.20L464.80-53.20Q464.80-55.74 466.50-57.38Q468.20-59.02 471.13-59.02L471.13-59.02Q474.02-59.02 475.74-57.38Q477.46-55.74 477.46-53.20L477.46-53.20Q477.46-50.63 475.72-48.98Q473.98-47.34 471.13-47.34Q468.28-47.34 466.54-48.98Q464.80-50.63 464.80-53.20ZM488.32-52.66L499.61-52.66L499.61-42.27L506.84-42.27L506.84-33.98L499.61-33.98L499.61-12.89Q499.61-10.55 500.51-9.53Q501.41-8.52 503.95-8.52L503.95-8.52Q505.82-8.52 507.27-8.79L507.27-8.79L507.27-0.23Q503.95 0.78 500.43 0.78L500.43 0.78Q488.55 0.78 488.32-11.21L488.32-11.21L488.32-33.98L482.15-33.98L482.15-42.27L488.32-42.27L488.32-52.66ZM525.04-42.27L525.04 0L513.71 0L513.71-42.27L525.04-42.27ZM513.05-53.20L513.05-53.20Q513.05-55.74 514.75-57.38Q516.45-59.02 519.38-59.02L519.38-59.02Q522.27-59.02 523.98-57.38Q525.70-55.74 525.70-53.20L525.70-53.20Q525.70-50.63 523.96-48.98Q522.23-47.34 519.38-47.34Q516.52-47.34 514.79-48.98Q513.05-50.63 513.05-53.20ZM553.79 0.78L553.79 0.78Q544.49 0.78 538.65-4.92Q532.81-10.63 532.81-20.12L532.81-20.12L532.81-21.21Q532.81-27.58 535.27-32.60Q537.73-37.62 542.25-40.33Q546.76-43.05 552.54-43.05L552.54-43.05Q561.21-43.05 566.19-37.58Q571.17-32.11 571.17-22.07L571.17-22.07L571.17-17.46L544.26-17.46Q544.80-13.32 547.56-10.82Q550.31-8.32 554.53-8.32L554.53-8.32Q561.05-8.32 564.73-13.05L564.73-13.05L570.27-6.84Q567.73-3.24 563.40-1.23Q559.06 0.78 553.79 0.78ZM552.50-33.91L552.50-33.91Q549.14-33.91 547.05-31.64Q544.96-29.38 544.38-25.16L544.38-25.16L560.08-25.16L560.08-26.05Q560-29.80 558.05-31.86Q556.09-33.91 552.50-33.91ZM600.47-11.68L600.47-11.68Q600.47-13.75 598.42-14.94Q596.37-16.13 591.84-17.07L591.84-17.07Q576.76-20.23 576.76-29.88L576.76-29.88Q576.76-35.51 581.43-39.28Q586.09-43.05 593.63-43.05L593.63-43.05Q601.68-43.05 606.50-39.26Q611.33-35.47 611.33-29.41L611.33-29.41L600.04-29.41Q600.04-31.84 598.48-33.42Q596.91-35 593.59-35L593.59-35Q590.74-35 589.18-33.71Q587.62-32.42 587.62-30.43L587.62-30.43Q587.62-28.55 589.39-27.40Q591.17-26.25 595.39-25.41Q599.61-24.57 602.50-23.52L602.50-23.52Q611.45-20.23 611.45-12.15L611.45-12.15Q611.45-6.37 606.48-2.79Q601.52 0.78 593.67 0.78L593.67 0.78Q588.36 0.78 584.24-1.11Q580.12-3.01 577.77-6.31Q575.43-9.61 575.43-13.44L575.43-13.44L586.13-13.44Q586.29-10.43 588.36-8.83Q590.43-7.23 593.91-7.23L593.91-7.23Q597.15-7.23 598.81-8.46Q600.47-9.69 600.47-11.68Z" transform="translate(652.8125, 420)" fill="#ffffff" />
  <line x1="660" y1="480" x2="1260" y2="480" stroke="#e94560" stroke-width="6"/>
  <circle cx="620" cy="535" r="8" fill="#e94560" /><path d="M2.54-28.44L10.20-28.44L17.50-7.81L24.77-28.44L32.46-28.44L32.46 0L26.58 0L26.58-7.77L27.17-21.19L19.49 0L15.47 0L7.81-21.17L8.40-7.77L8.40 0L2.54 0L2.54-28.44ZM50.02 0L49.86-2.15Q47.77 0.39 44.08 0.39L44.08 0.39Q40.68 0.39 38.90-1.56Q37.11-3.52 37.07-7.29L37.07-7.29L37.07-21.13L42.71-21.13L42.71-7.48Q42.71-4.18 45.72-4.18L45.72-4.18Q48.59-4.18 49.67-6.17L49.67-6.17L49.67-21.13L55.33-21.13L55.33 0L50.02 0ZM65.55-30L65.55 0L59.88 0L59.88-30L65.55-30ZM71.31-26.33L76.95-26.33L76.95-21.13L80.57-21.13L80.57-16.99L76.95-16.99L76.95-6.45Q76.95-5.27 77.40-4.77Q77.85-4.26 79.12-4.26L79.12-4.26Q80.06-4.26 80.78-4.39L80.78-4.39L80.78-0.12Q79.12 0.39 77.36 0.39L77.36 0.39Q71.43 0.39 71.31-5.61L71.31-5.61L71.31-16.99L68.22-16.99L68.22-21.13L71.31-21.13L71.31-26.33ZM89.67-21.13L89.67 0L84.00 0L84.00-21.13L89.67-21.13ZM83.67-26.60L83.67-26.60Q83.67-27.87 84.52-28.69Q85.37-29.51 86.84-29.51L86.84-29.51Q88.28-29.51 89.14-28.69Q90-27.87 90-26.60L90-26.60Q90-25.31 89.13-24.49Q88.26-23.67 86.84-23.67Q85.41-23.67 84.54-24.49Q83.67-25.31 83.67-26.60ZM105.29-14.45L105.29-9.90L94.30-9.90L94.30-14.45L105.29-14.45ZM118.61-4.16L118.61-4.16Q120.18-4.16 121.15-5.02Q122.13-5.88 122.17-7.30L122.17-7.30L127.46-7.30Q127.44-5.16 126.29-3.37Q125.14-1.58 123.13-0.60Q121.13 0.39 118.71 0.39L118.71 0.39Q114.18 0.39 111.56-2.49Q108.95-5.37 108.95-10.45L108.95-10.45L108.95-10.82Q108.95-15.70 111.54-18.61Q114.14-21.52 118.67-21.52L118.67-21.52Q122.64-21.52 125.03-19.27Q127.42-17.01 127.46-13.26L127.46-13.26L122.17-13.26Q122.13-14.90 121.15-15.93Q120.18-16.95 118.57-16.95L118.57-16.95Q116.60-16.95 115.60-15.52Q114.59-14.08 114.59-10.86L114.59-10.86L114.59-10.27Q114.59-7.01 115.59-5.59Q116.58-4.16 118.61-4.16ZM136.19-30L136.19-18.83Q138.44-21.52 141.84-21.52L141.84-21.52Q148.71-21.52 148.81-13.54L148.81-13.54L148.81 0L143.16 0L143.16-13.38Q143.16-15.20 142.38-16.06Q141.60-16.93 139.79-16.93L139.79-16.93Q137.30-16.93 136.19-15.02L136.19-15.02L136.19 0L130.55 0L130.55-30L136.19-30ZM171.02 0L165.31 0Q164.92-0.76 164.75-1.89L164.75-1.89Q162.70 0.39 159.41 0.39L159.41 0.39Q156.31 0.39 154.27-1.41Q152.23-3.20 152.23-5.94L152.23-5.94Q152.23-9.30 154.72-11.09Q157.21-12.89 161.91-12.91L161.91-12.91L164.51-12.91L164.51-14.12Q164.51-15.59 163.76-16.46Q163.01-17.34 161.39-17.34L161.39-17.34Q159.96-17.34 159.15-16.66Q158.34-15.98 158.34-14.79L158.34-14.79L152.70-14.79Q152.70-16.62 153.83-18.18Q154.96-19.75 157.03-20.63Q159.10-21.52 161.68-21.52L161.68-21.52Q165.59-21.52 167.88-19.56Q170.18-17.60 170.18-14.04L170.18-14.04L170.18-4.88Q170.20-1.88 171.02-0.33L171.02-0.33L171.02 0ZM160.64-3.93L160.64-3.93Q161.89-3.93 162.95-4.48Q164.00-5.04 164.51-5.98L164.51-5.98L164.51-9.61L162.40-9.61Q158.16-9.61 157.89-6.68L157.89-6.68L157.87-6.35Q157.87-5.29 158.61-4.61Q159.36-3.93 160.64-3.93ZM174.39-21.13L179.71-21.13L179.88-18.69Q182.15-21.52 185.96-21.52L185.96-21.52Q189.32-21.52 190.96-19.55Q192.60-17.58 192.64-13.65L192.64-13.65L192.64 0L186.99 0L186.99-13.52Q186.99-15.31 186.21-16.12Q185.43-16.93 183.61-16.93L183.61-16.93Q181.23-16.93 180.04-14.90L180.04-14.90L180.04 0L174.39 0L174.39-21.13ZM196.80-21.13L202.11-21.13L202.29-18.69Q204.55-21.52 208.36-21.52L208.36-21.52Q211.72-21.52 213.36-19.55Q215-17.58 215.04-13.65L215.04-13.65L215.04 0L209.39 0L209.39-13.52Q209.39-15.31 208.61-16.12Q207.83-16.93 206.02-16.93L206.02-16.93Q203.63-16.93 202.44-14.90L202.44-14.90L202.44 0L196.80 0L196.80-21.13ZM229.04 0.39L229.04 0.39Q224.39 0.39 221.47-2.46Q218.55-5.31 218.55-10.06L218.55-10.06L218.55-10.61Q218.55-13.79 219.79-16.30Q221.02-18.81 223.27-20.17Q225.53-21.52 228.42-21.52L228.42-21.52Q232.75-21.52 235.24-18.79Q237.73-16.05 237.73-11.04L237.73-11.04L237.73-8.73L224.28-8.73Q224.55-6.66 225.93-5.41Q227.30-4.16 229.41-4.16L229.41-4.16Q232.68-4.16 234.51-6.52L234.51-6.52L237.29-3.42Q236.02-1.62 233.85-0.62Q231.68 0.39 229.04 0.39ZM228.40-16.95L228.40-16.95Q226.72-16.95 225.67-15.82Q224.63-14.69 224.34-12.58L224.34-12.58L232.19-12.58L232.19-13.03Q232.15-14.90 231.17-15.93Q230.20-16.95 228.40-16.95ZM246.89-30L246.89 0L241.23 0L241.23-30L246.89-30ZM261.50-21.13L266.80-21.13L266.97-18.77Q269.22-21.52 273.05-21.52L273.05-21.52Q277.13-21.52 278.65-18.30L278.65-18.30Q280.88-21.52 285-21.52L285-21.52Q288.44-21.52 290.12-19.52Q291.80-17.52 291.80-13.50L291.80-13.50L291.80 0L286.13 0L286.13-13.48Q286.13-15.27 285.43-16.10Q284.73-16.93 282.95-16.93L282.95-16.93Q280.41-16.93 279.43-14.51L279.43-14.51L279.45 0L273.81 0L273.81-13.46Q273.81-15.29 273.09-16.11Q272.36-16.93 270.63-16.93L270.63-16.93Q268.22-16.93 267.15-14.94L267.15-14.94L267.15 0L261.50 0L261.50-21.13ZM305.86 0.39L305.86 0.39Q301.21 0.39 298.29-2.46Q295.37-5.31 295.37-10.06L295.37-10.06L295.37-10.61Q295.37-13.79 296.60-16.30Q297.83-18.81 300.09-20.17Q302.34-21.52 305.23-21.52L305.23-21.52Q309.57-21.52 312.06-18.79Q314.55-16.05 314.55-11.04L314.55-11.04L314.55-8.73L301.09-8.73Q301.37-6.66 302.74-5.41Q304.12-4.16 306.23-4.16L306.23-4.16Q309.49-4.16 311.33-6.52L311.33-6.52L314.10-3.42Q312.83-1.62 310.66-0.62Q308.50 0.39 305.86 0.39ZM305.21-16.95L305.21-16.95Q303.54-16.95 302.49-15.82Q301.45-14.69 301.15-12.58L301.15-12.58L309.00-12.58L309.00-13.03Q308.96-14.90 307.99-15.93Q307.01-16.95 305.21-16.95ZM329.20-5.84L329.20-5.84Q329.20-6.88 328.17-7.47Q327.15-8.07 324.88-8.54L324.88-8.54Q317.34-10.12 317.34-14.94L317.34-14.94Q317.34-17.75 319.68-19.64Q322.01-21.52 325.78-21.52L325.78-21.52Q329.80-21.52 332.22-19.63Q334.63-17.73 334.63-14.71L334.63-14.71L328.98-14.71Q328.98-15.92 328.20-16.71Q327.42-17.50 325.76-17.50L325.76-17.50Q324.34-17.50 323.55-16.86Q322.77-16.21 322.77-15.21L322.77-15.21Q322.77-14.28 323.66-13.70Q324.55-13.13 326.66-12.71Q328.77-12.29 330.21-11.76L330.21-11.76Q334.69-10.12 334.69-6.07L334.69-6.07Q334.69-3.18 332.21-1.40Q329.73 0.39 325.80 0.39L325.80 0.39Q323.14 0.39 321.08-0.56Q319.02-1.50 317.85-3.15Q316.68-4.80 316.68-6.72L316.68-6.72L322.03-6.72Q322.11-5.21 323.14-4.41Q324.18-3.61 325.92-3.61L325.92-3.61Q327.54-3.61 328.37-4.23Q329.20-4.84 329.20-5.84ZM349.77-5.84L349.77-5.84Q349.77-6.88 348.74-7.47Q347.71-8.07 345.45-8.54L345.45-8.54Q337.91-10.12 337.91-14.94L337.91-14.94Q337.91-17.75 340.24-19.64Q342.58-21.52 346.35-21.52L346.35-21.52Q350.37-21.52 352.78-19.63Q355.20-17.73 355.20-14.71L355.20-14.71L349.55-14.71Q349.55-15.92 348.77-16.71Q347.99-17.50 346.33-17.50L346.33-17.50Q344.90-17.50 344.12-16.86Q343.34-16.21 343.34-15.21L343.34-15.21Q343.34-14.28 344.23-13.70Q345.12-13.13 347.23-12.71Q349.34-12.29 350.78-11.76L350.78-11.76Q355.25-10.12 355.25-6.07L355.25-6.07Q355.25-3.18 352.77-1.40Q350.29 0.39 346.37 0.39L346.37 0.39Q343.71 0.39 341.65-0.56Q339.59-1.50 338.42-3.15Q337.25-4.80 337.25-6.72L337.25-6.72L342.60-6.72Q342.68-5.21 343.71-4.41Q344.75-3.61 346.48-3.61L346.48-3.61Q348.11-3.61 348.94-4.23Q349.77-4.84 349.77-5.84ZM376.84 0L371.13 0Q370.74-0.76 370.57-1.89L370.57-1.89Q368.52 0.39 365.23 0.39L365.23 0.39Q362.13 0.39 360.09-1.41Q358.05-3.20 358.05-5.94L358.05-5.94Q358.05-9.30 360.54-11.09Q363.03-12.89 367.73-12.91L367.73-12.91L370.33-12.91L370.33-14.12Q370.33-15.59 369.58-16.46Q368.83-17.34 367.21-17.34L367.21-17.34Q365.78-17.34 364.97-16.66Q364.16-15.98 364.16-14.79L364.16-14.79L358.52-14.79Q358.52-16.62 359.65-18.18Q360.78-19.75 362.85-20.63Q364.92-21.52 367.50-21.52L367.50-21.52Q371.41-21.52 373.70-19.56Q376.00-17.60 376.00-14.04L376.00-14.04L376.00-4.88Q376.02-1.88 376.84-0.33L376.84-0.33L376.84 0ZM366.46-3.93L366.46-3.93Q367.71-3.93 368.77-4.48Q369.82-5.04 370.33-5.98L370.33-5.98L370.33-9.61L368.22-9.61Q363.98-9.61 363.71-6.68L363.71-6.68L363.69-6.35Q363.69-5.29 364.43-4.61Q365.18-3.93 366.46-3.93ZM379.51-10.49L379.51-10.72Q379.51-15.59 381.83-18.55Q384.14-21.52 388.07-21.52L388.07-21.52Q391.54-21.52 393.48-19.14L393.48-19.14L393.71-21.13L398.83-21.13L398.83-0.70Q398.83 2.07 397.57 4.12Q396.31 6.17 394.02 7.25Q391.74 8.32 388.67 8.32L388.67 8.32Q386.35 8.32 384.14 7.39Q381.93 6.46 380.80 5L380.80 5L383.30 1.56Q385.41 3.93 388.42 3.93L388.42 3.93Q390.66 3.93 391.91 2.72Q393.16 1.52 393.16-0.68L393.16-0.68L393.16-1.82Q391.21 0.39 388.03 0.39L388.03 0.39Q384.22 0.39 381.87-2.59Q379.51-5.57 379.51-10.49L379.51-10.49ZM385.16-10.31L385.16-10.31Q385.16-7.44 386.31-5.81Q387.46-4.18 389.47-4.18L389.47-4.18Q392.05-4.18 393.16-6.11L393.16-6.11L393.16-15Q392.03-16.93 389.51-16.93L389.51-16.93Q387.48-16.93 386.32-15.27Q385.16-13.61 385.16-10.31ZM409.12-21.13L409.12 0L403.46 0L403.46-21.13L409.12-21.13ZM403.13-26.60L403.13-26.60Q403.13-27.87 403.97-28.69Q404.82-29.51 406.29-29.51L406.29-29.51Q407.73-29.51 408.59-28.69Q409.45-27.87 409.45-26.60L409.45-26.60Q409.45-25.31 408.58-24.49Q407.71-23.67 406.29-23.67Q404.86-23.67 403.99-24.49Q403.13-25.31 403.13-26.60ZM413.65-21.13L418.96-21.13L419.14-18.69Q421.41-21.52 425.21-21.52L425.21-21.52Q428.57-21.52 430.21-19.55Q431.86-17.58 431.89-13.65L431.89-13.65L431.89 0L426.25 0L426.25-13.52Q426.25-15.31 425.47-16.12Q424.69-16.93 422.87-16.93L422.87-16.93Q420.49-16.93 419.30-14.90L419.30-14.90L419.30 0L413.65 0L413.65-21.13ZM435.35-10.49L435.35-10.72Q435.35-15.59 437.67-18.55Q439.98-21.52 443.91-21.52L443.91-21.52Q447.38-21.52 449.32-19.14L449.32-19.14L449.55-21.13L454.67-21.13L454.67-0.70Q454.67 2.07 453.41 4.12Q452.15 6.17 449.86 7.25Q447.58 8.32 444.51 8.32L444.51 8.32Q442.19 8.32 439.98 7.39Q437.77 6.46 436.64 5L436.64 5L439.14 1.56Q441.25 3.93 444.26 3.93L444.26 3.93Q446.50 3.93 447.75 2.72Q449.00 1.52 449.00-0.68L449.00-0.68L449.00-1.82Q447.05 0.39 443.87 0.39L443.87 0.39Q440.06 0.39 437.71-2.59Q435.35-5.57 435.35-10.49L435.35-10.49ZM441.00-10.31L441.00-10.31Q441.00-7.44 442.15-5.81Q443.30-4.18 445.31-4.18L445.31-4.18Q447.89-4.18 449.00-6.11L449.00-6.11L449.00-15Q447.87-16.93 445.35-16.93L445.35-16.93Q443.32-16.93 442.16-15.27Q441.00-13.61 441.00-10.31Z" transform="translate(660, 535)" fill="#ffffff" /><circle cx="620" cy="605" r="8" fill="#e94560" /><path d="M19.65-16.35L19.65-11.62L8.40-11.62L8.40 0L2.54 0L2.54-28.44L21.05-28.44L21.05-23.69L8.40-23.69L8.40-16.35L19.65-16.35ZM30.04-21.13L30.04 0L24.38 0L24.38-21.13L30.04-21.13ZM24.04-26.60L24.04-26.60Q24.04-27.87 24.89-28.69Q25.74-29.51 27.21-29.51L27.21-29.51Q28.65-29.51 29.51-28.69Q30.37-27.87 30.37-26.60L30.37-26.60Q30.37-25.31 29.50-24.49Q28.63-23.67 27.21-23.67Q25.78-23.67 24.91-24.49Q24.04-25.31 24.04-26.60ZM40.64-30L40.64 0L34.98 0L34.98-30L40.64-30ZM55.02 0.39L55.02 0.39Q50.37 0.39 47.45-2.46Q44.53-5.31 44.53-10.06L44.53-10.06L44.53-10.61Q44.53-13.79 45.76-16.30Q46.99-18.81 49.25-20.17Q51.50-21.52 54.39-21.52L54.39-21.52Q58.73-21.52 61.22-18.79Q63.71-16.05 63.71-11.04L63.71-11.04L63.71-8.73L50.25-8.73Q50.53-6.66 51.90-5.41Q53.28-4.16 55.39-4.16L55.39-4.16Q58.65-4.16 60.49-6.52L60.49-6.52L63.26-3.42Q61.99-1.62 59.82-0.62Q57.66 0.39 55.02 0.39ZM54.38-16.95L54.38-16.95Q52.70-16.95 51.65-15.82Q50.61-14.69 50.31-12.58L50.31-12.58L58.16-12.58L58.16-13.03Q58.13-14.90 57.15-15.93Q56.17-16.95 54.38-16.95ZM76.88-21.13L82.17-21.13L82.34-18.77Q84.59-21.52 88.42-21.52L88.42-21.52Q92.50-21.52 94.02-18.30L94.02-18.30Q96.25-21.52 100.37-21.52L100.37-21.52Q103.81-21.52 105.49-19.52Q107.17-17.52 107.17-13.50L107.17-13.50L107.17 0L101.50 0L101.50-13.48Q101.50-15.27 100.80-16.10Q100.10-16.93 98.32-16.93L98.32-16.93Q95.78-16.93 94.80-14.51L94.80-14.51L94.82 0L89.18 0L89.18-13.46Q89.18-15.29 88.46-16.11Q87.73-16.93 86.00-16.93L86.00-16.93Q83.59-16.93 82.52-14.94L82.52-14.94L82.52 0L76.88 0L76.88-21.13ZM129.45 0L123.75 0Q123.36-0.76 123.18-1.89L123.18-1.89Q121.13 0.39 117.85 0.39L117.85 0.39Q114.75 0.39 112.71-1.41Q110.66-3.20 110.66-5.94L110.66-5.94Q110.66-9.30 113.15-11.09Q115.64-12.89 120.35-12.91L120.35-12.91L122.95-12.91L122.95-14.12Q122.95-15.59 122.20-16.46Q121.45-17.34 119.82-17.34L119.82-17.34Q118.40-17.34 117.59-16.66Q116.78-15.98 116.78-14.79L116.78-14.79L111.13-14.79Q111.13-16.62 112.27-18.18Q113.40-19.75 115.47-20.63Q117.54-21.52 120.12-21.52L120.12-21.52Q124.02-21.52 126.32-19.56Q128.61-17.60 128.61-14.04L128.61-14.04L128.61-4.88Q128.63-1.88 129.45-0.33L129.45-0.33L129.45 0ZM119.08-3.93L119.08-3.93Q120.33-3.93 121.39-4.48Q122.44-5.04 122.95-5.98L122.95-5.98L122.95-9.61L120.84-9.61Q116.60-9.61 116.33-6.68L116.33-6.68L116.31-6.35Q116.31-5.29 117.05-4.61Q117.79-3.93 119.08-3.93ZM132.83-21.13L138.14-21.13L138.32-18.69Q140.59-21.52 144.39-21.52L144.39-21.52Q147.75-21.52 149.39-19.55Q151.04-17.58 151.07-13.65L151.07-13.65L151.07 0L145.43 0L145.43-13.52Q145.43-15.31 144.65-16.12Q143.87-16.93 142.05-16.93L142.05-16.93Q139.67-16.93 138.48-14.90L138.48-14.90L138.48 0L132.83 0L132.83-21.13ZM173.30 0L167.60 0Q167.21-0.76 167.03-1.89L167.03-1.89Q164.98 0.39 161.70 0.39L161.70 0.39Q158.59 0.39 156.55-1.41Q154.51-3.20 154.51-5.94L154.51-5.94Q154.51-9.30 157.00-11.09Q159.49-12.89 164.20-12.91L164.20-12.91L166.80-12.91L166.80-14.12Q166.80-15.59 166.04-16.46Q165.29-17.34 163.67-17.34L163.67-17.34Q162.25-17.34 161.44-16.66Q160.63-15.98 160.63-14.79L160.63-14.79L154.98-14.79Q154.98-16.62 156.11-18.18Q157.25-19.75 159.32-20.63Q161.39-21.52 163.96-21.52L163.96-21.52Q167.87-21.52 170.17-19.56Q172.46-17.60 172.46-14.04L172.46-14.04L172.46-4.88Q172.48-1.88 173.30-0.33L173.30-0.33L173.30 0ZM162.93-3.93L162.93-3.93Q164.18-3.93 165.23-4.48Q166.29-5.04 166.80-5.98L166.80-5.98L166.80-9.61L164.69-9.61Q160.45-9.61 160.18-6.68L160.18-6.68L160.16-6.35Q160.16-5.29 160.90-4.61Q161.64-3.93 162.93-3.93ZM175.98-10.49L175.98-10.72Q175.98-15.59 178.29-18.55Q180.61-21.52 184.53-21.52L184.53-21.52Q188.01-21.52 189.94-19.14L189.94-19.14L190.18-21.13L195.29-21.13L195.29-0.70Q195.29 2.07 194.03 4.12Q192.77 6.17 190.49 7.25Q188.20 8.32 185.14 8.32L185.14 8.32Q182.81 8.32 180.61 7.39Q178.40 6.46 177.27 5L177.27 5L179.77 1.56Q181.88 3.93 184.88 3.93L184.88 3.93Q187.13 3.93 188.38 2.72Q189.63 1.52 189.63-0.68L189.63-0.68L189.63-1.82Q187.68 0.39 184.49 0.39L184.49 0.39Q180.68 0.39 178.33-2.59Q175.98-5.57 175.98-10.49L175.98-10.49ZM181.62-10.31L181.62-10.31Q181.62-7.44 182.77-5.81Q183.93-4.18 185.94-4.18L185.94-4.18Q188.52-4.18 189.63-6.11L189.63-6.11L189.63-15Q188.50-16.93 185.98-16.93L185.98-16.93Q183.95-16.93 182.78-15.27Q181.62-13.61 181.62-10.31ZM209.36 0.39L209.36 0.39Q204.71 0.39 201.79-2.46Q198.87-5.31 198.87-10.06L198.87-10.06L198.87-10.61Q198.87-13.79 200.10-16.30Q201.33-18.81 203.58-20.17Q205.84-21.52 208.73-21.52L208.73-21.52Q213.07-21.52 215.56-18.79Q218.05-16.05 218.05-11.04L218.05-11.04L218.05-8.73L204.59-8.73Q204.86-6.66 206.24-5.41Q207.62-4.16 209.73-4.16L209.73-4.16Q212.99-4.16 214.82-6.52L214.82-6.52L217.60-3.42Q216.33-1.62 214.16-0.62Q211.99 0.39 209.36 0.39ZM208.71-16.95L208.71-16.95Q207.03-16.95 205.99-15.82Q204.94-14.69 204.65-12.58L204.65-12.58L212.50-12.58L212.50-13.03Q212.46-14.90 211.48-15.93Q210.51-16.95 208.71-16.95ZM221.25-21.13L226.54-21.13L226.72-18.77Q228.96-21.52 232.79-21.52L232.79-21.52Q236.88-21.52 238.40-18.30L238.40-18.30Q240.63-21.52 244.75-21.52L244.75-21.52Q248.18-21.52 249.86-19.52Q251.54-17.52 251.54-13.50L251.54-13.50L251.54 0L245.88 0L245.88-13.48Q245.88-15.27 245.18-16.10Q244.47-16.93 242.70-16.93L242.70-16.93Q240.16-16.93 239.18-14.51L239.18-14.51L239.20 0L233.55 0L233.55-13.46Q233.55-15.29 232.83-16.11Q232.11-16.93 230.37-16.93L230.37-16.93Q227.97-16.93 226.89-14.94L226.89-14.94L226.89 0L221.25 0L221.25-21.13ZM265.61 0.39L265.61 0.39Q260.96 0.39 258.04-2.46Q255.12-5.31 255.12-10.06L255.12-10.06L255.12-10.61Q255.12-13.79 256.35-16.30Q257.58-18.81 259.83-20.17Q262.09-21.52 264.98-21.52L264.98-21.52Q269.32-21.52 271.81-18.79Q274.30-16.05 274.30-11.04L274.30-11.04L274.30-8.73L260.84-8.73Q261.11-6.66 262.49-5.41Q263.87-4.16 265.98-4.16L265.98-4.16Q269.24-4.16 271.07-6.52L271.07-6.52L273.85-3.42Q272.58-1.62 270.41-0.62Q268.24 0.39 265.61 0.39ZM264.96-16.95L264.96-16.95Q263.28-16.95 262.24-15.82Q261.19-14.69 260.90-12.58L260.90-12.58L268.75-12.58L268.75-13.03Q268.71-14.90 267.73-15.93Q266.76-16.95 264.96-16.95ZM277.38-21.13L282.70-21.13L282.87-18.69Q285.14-21.52 288.95-21.52L288.95-21.52Q292.30-21.52 293.95-19.55Q295.59-17.58 295.63-13.65L295.63-13.65L295.63 0L289.98 0L289.98-13.52Q289.98-15.31 289.20-16.12Q288.42-16.93 286.60-16.93L286.60-16.93Q284.22-16.93 283.03-14.90L283.03-14.90L283.03 0L277.38 0L277.38-21.13ZM301.02-26.33L306.66-26.33L306.66-21.13L310.27-21.13L310.27-16.99L306.66-16.99L306.66-6.45Q306.66-5.27 307.11-4.77Q307.56-4.26 308.83-4.26L308.83-4.26Q309.77-4.26 310.49-4.39L310.49-4.39L310.49-0.12Q308.83 0.39 307.07 0.39L307.07 0.39Q301.13 0.39 301.02-5.61L301.02-5.61L301.02-16.99L297.93-16.99L297.93-21.13L301.02-21.13L301.02-26.33ZM322.60-7.66L322.60-7.66Q322.60-9.63 323.70-11.31Q324.80-12.99 327.75-15.04L327.75-15.04Q326.48-16.74 325.76-18.23Q325.04-19.73 325.04-21.35L325.04-21.35Q325.04-24.67 327.14-26.75Q329.24-28.83 332.79-28.83L332.79-28.83Q335.98-28.83 338.02-26.93Q340.06-25.04 340.06-22.21L340.06-22.21Q340.06-18.81 336.62-16.21L336.62-16.21L334.43-14.63L339.34-8.93Q340.49-11.19 340.49-13.93L340.49-13.93L345.29-13.93Q345.29-8.38 342.73-4.94L342.73-4.94L346.99 0L340.59 0L339.12-1.68Q335.98 0.39 331.89 0.39L331.89 0.39Q327.68 0.39 325.14-1.83Q322.60-4.04 322.60-7.66ZM332.17-4.14L332.17-4.14Q334.20-4.14 336.02-5.27L336.02-5.27L330.41-11.76L330-11.46Q328.26-9.98 328.26-7.97L328.26-7.97Q328.26-6.27 329.35-5.21Q330.43-4.14 332.17-4.14ZM330.10-21.43L330.10-21.43Q330.10-19.96 331.82-17.73L331.82-17.73L333.32-18.73Q334.47-19.47 334.91-20.18Q335.35-20.88 335.35-21.86Q335.35-22.83 334.63-23.55Q333.91-24.28 332.77-24.28L332.77-24.28Q331.56-24.28 330.83-23.50Q330.10-22.71 330.10-21.43ZM368.38-4.16L368.38-4.16Q369.94-4.16 370.92-5.02Q371.89-5.88 371.93-7.30L371.93-7.30L377.23-7.30Q377.21-5.16 376.05-3.37Q374.90-1.58 372.90-0.60Q370.90 0.39 368.48 0.39L368.48 0.39Q363.95 0.39 361.33-2.49Q358.71-5.37 358.71-10.45L358.71-10.45L358.71-10.82Q358.71-15.70 361.31-18.61Q363.91-21.52 368.44-21.52L368.44-21.52Q372.40-21.52 374.79-19.27Q377.19-17.01 377.23-13.26L377.23-13.26L371.93-13.26Q371.89-14.90 370.92-15.93Q369.94-16.95 368.34-16.95L368.34-16.95Q366.37-16.95 365.36-15.52Q364.36-14.08 364.36-10.86L364.36-10.86L364.36-10.27Q364.36-7.01 365.35-5.59Q366.35-4.16 368.38-4.16ZM379.57-10.51L379.57-10.76Q379.57-13.91 380.78-16.37Q381.99-18.83 384.27-20.18Q386.54-21.52 389.55-21.52L389.55-21.52Q393.83-21.52 396.53-18.91Q399.24-16.29 399.55-11.80L399.55-11.80L399.59-10.35Q399.59-5.49 396.88-2.55Q394.16 0.39 389.59 0.39Q385.02 0.39 382.29-2.54Q379.57-5.47 379.57-10.51L379.57-10.51ZM385.21-10.35L385.21-10.35Q385.21-7.34 386.35-5.75Q387.48-4.16 389.59-4.16L389.59-4.16Q391.64-4.16 392.79-5.73Q393.95-7.30 393.95-10.76L393.95-10.76Q393.95-13.71 392.79-15.33Q391.64-16.95 389.55-16.95L389.55-16.95Q387.48-16.95 386.35-15.34Q385.21-13.73 385.21-10.35ZM402.19-10.72L402.19-10.72Q402.19-15.66 404.40-18.59Q406.62-21.52 410.47-21.52L410.47-21.52Q413.55-21.52 415.57-19.22L415.57-19.22L415.57-30L421.23-30L421.23 0L416.13 0L415.86-2.25Q413.75 0.39 410.43 0.39L410.43 0.39Q406.70 0.39 404.44-2.55Q402.19-5.49 402.19-10.72ZM407.83-10.31L407.83-10.31Q407.83-7.34 408.87-5.76Q409.90-4.18 411.88-4.18L411.88-4.18Q414.49-4.18 415.57-6.39L415.57-6.39L415.57-14.73Q414.51-16.93 411.91-16.93L411.91-16.93Q407.83-16.93 407.83-10.31ZM435.33 0.39L435.33 0.39Q430.68 0.39 427.76-2.46Q424.84-5.31 424.84-10.06L424.84-10.06L424.84-10.61Q424.84-13.79 426.07-16.30Q427.30-18.81 429.56-20.17Q431.82-21.52 434.71-21.52L434.71-21.52Q439.04-21.52 441.53-18.79Q444.02-16.05 444.02-11.04L444.02-11.04L444.02-8.73L430.57-8.73Q430.84-6.66 432.22-5.41Q433.59-4.16 435.70-4.16L435.70-4.16Q438.96-4.16 440.80-6.52L440.80-6.52L443.57-3.42Q442.30-1.62 440.14-0.62Q437.97 0.39 435.33 0.39ZM434.69-16.95L434.69-16.95Q433.01-16.95 431.96-15.82Q430.92-14.69 430.63-12.58L430.63-12.58L438.48-12.58L438.48-13.03Q438.44-14.90 437.46-15.93Q436.48-16.95 434.69-16.95ZM466.91 0.39L466.91 0.39Q462.27 0.39 459.35-2.46Q456.43-5.31 456.43-10.06L456.43-10.06L456.43-10.61Q456.43-13.79 457.66-16.30Q458.89-18.81 461.14-20.17Q463.40-21.52 466.29-21.52L466.29-21.52Q470.63-21.52 473.12-18.79Q475.61-16.05 475.61-11.04L475.61-11.04L475.61-8.73L462.15-8.73Q462.42-6.66 463.80-5.41Q465.18-4.16 467.29-4.16L467.29-4.16Q470.55-4.16 472.38-6.52L472.38-6.52L475.16-3.42Q473.89-1.62 471.72-0.62Q469.55 0.39 466.91 0.39ZM466.27-16.95L466.27-16.95Q464.59-16.95 463.54-15.82Q462.50-14.69 462.21-12.58L462.21-12.58L470.06-12.58L470.06-13.03Q470.02-14.90 469.04-15.93Q468.07-16.95 466.27-16.95ZM483.38-21.13L486.86-14.82L490.41-21.13L496.45-21.13L490.43-10.78L496.70 0L490.64 0L486.88-6.64L483.13 0L477.05 0L483.32-10.78L477.32-21.13L483.38-21.13ZM508.89 0.39L508.89 0.39Q504.24 0.39 501.32-2.46Q498.40-5.31 498.40-10.06L498.40-10.06L498.40-10.61Q498.40-13.79 499.63-16.30Q500.86-18.81 503.12-20.17Q505.37-21.52 508.26-21.52L508.26-21.52Q512.60-21.52 515.09-18.79Q517.58-16.05 517.58-11.04L517.58-11.04L517.58-8.73L504.12-8.73Q504.39-6.66 505.77-5.41Q507.15-4.16 509.26-4.16L509.26-4.16Q512.52-4.16 514.36-6.52L514.36-6.52L517.13-3.42Q515.86-1.62 513.69-0.62Q511.52 0.39 508.89 0.39ZM508.24-16.95L508.24-16.95Q506.56-16.95 505.52-15.82Q504.47-14.69 504.18-12.58L504.18-12.58L512.03-12.58L512.03-13.03Q511.99-14.90 511.02-15.93Q510.04-16.95 508.24-16.95ZM529.57-4.16L529.57-4.16Q531.13-4.16 532.11-5.02Q533.09-5.88 533.13-7.30L533.13-7.30L538.42-7.30Q538.40-5.16 537.25-3.37Q536.09-1.58 534.09-0.60Q532.09 0.39 529.67 0.39L529.67 0.39Q525.14 0.39 522.52-2.49Q519.90-5.37 519.90-10.45L519.90-10.45L519.90-10.82Q519.90-15.70 522.50-18.61Q525.10-21.52 529.63-21.52L529.63-21.52Q533.59-21.52 535.99-19.27Q538.38-17.01 538.42-13.26L538.42-13.26L533.13-13.26Q533.09-14.90 532.11-15.93Q531.13-16.95 529.53-16.95L529.53-16.95Q527.56-16.95 526.55-15.52Q525.55-14.08 525.55-10.86L525.55-10.86L525.55-10.27Q525.55-7.01 526.54-5.59Q527.54-4.16 529.57-4.16ZM554.45 0L554.30-2.15Q552.21 0.39 548.52 0.39L548.52 0.39Q545.12 0.39 543.33-1.56Q541.54-3.52 541.50-7.29L541.50-7.29L541.50-21.13L547.15-21.13L547.15-7.48Q547.15-4.18 550.16-4.18L550.16-4.18Q553.03-4.18 554.10-6.17L554.10-6.17L554.10-21.13L559.77-21.13L559.77 0L554.45 0ZM565.14-26.33L570.78-26.33L570.78-21.13L574.39-21.13L574.39-16.99L570.78-16.99L570.78-6.45Q570.78-5.27 571.23-4.77Q571.68-4.26 572.95-4.26L572.95-4.26Q573.89-4.26 574.61-4.39L574.61-4.39L574.61-0.12Q572.95 0.39 571.19 0.39L571.19 0.39Q565.25 0.39 565.14-5.61L565.14-5.61L565.14-16.99L562.05-16.99L562.05-21.13L565.14-21.13L565.14-26.33ZM583.50-21.13L583.50 0L577.83 0L577.83-21.13L583.50-21.13ZM577.50-26.60L577.50-26.60Q577.50-27.87 578.35-28.69Q579.20-29.51 580.66-29.51L580.66-29.51Q582.11-29.51 582.97-28.69Q583.83-27.87 583.83-26.60L583.83-26.60Q583.83-25.31 582.96-24.49Q582.09-23.67 580.66-23.67Q579.24-23.67 578.37-24.49Q577.50-25.31 577.50-26.60ZM587.27-10.51L587.27-10.76Q587.27-13.91 588.48-16.37Q589.69-18.83 591.96-20.18Q594.24-21.52 597.25-21.52L597.25-21.52Q601.52-21.52 604.23-18.91Q606.93-16.29 607.25-11.80L607.25-11.80L607.29-10.35Q607.29-5.49 604.57-2.55Q601.86 0.39 597.29 0.39Q592.71 0.39 589.99-2.54Q587.27-5.47 587.27-10.51L587.27-10.51ZM592.91-10.35L592.91-10.35Q592.91-7.34 594.04-5.75Q595.18-4.16 597.29-4.16L597.29-4.16Q599.34-4.16 600.49-5.73Q601.64-7.30 601.64-10.76L601.64-10.76Q601.64-13.71 600.49-15.33Q599.34-16.95 597.25-16.95L597.25-16.95Q595.18-16.95 594.04-15.34Q592.91-13.73 592.91-10.35ZM610.64-21.13L615.96-21.13L616.13-18.69Q618.40-21.52 622.21-21.52L622.21-21.52Q625.57-21.52 627.21-19.55Q628.85-17.58 628.89-13.65L628.89-13.65L628.89 0L623.24 0L623.24-13.52Q623.24-15.31 622.46-16.12Q621.68-16.93 619.86-16.93L619.86-16.93Q617.48-16.93 616.29-14.90L616.29-14.90L616.29 0L610.64 0L610.64-21.13Z" transform="translate(660, 605)" fill="#ffffff" /><circle cx="620" cy="675" r="8" fill="#e94560" /><path d="M20.02-28.44L24.69-8.20L28.52-28.44L34.36-28.44L28.05 0L22.15 0L17.52-19.02L12.89 0L6.99 0L0.68-28.44L6.52-28.44L10.37-8.24L15.06-28.44L20.02-28.44ZM46.88 0.39L46.88 0.39Q42.23 0.39 39.31-2.46Q36.39-5.31 36.39-10.06L36.39-10.06L36.39-10.61Q36.39-13.79 37.62-16.30Q38.85-18.81 41.10-20.17Q43.36-21.52 46.25-21.52L46.25-21.52Q50.59-21.52 53.08-18.79Q55.57-16.05 55.57-11.04L55.57-11.04L55.57-8.73L42.11-8.73Q42.38-6.66 43.76-5.41Q45.14-4.16 47.25-4.16L47.25-4.16Q50.51-4.16 52.34-6.52L52.34-6.52L55.12-3.42Q53.85-1.62 51.68-0.62Q49.51 0.39 46.88 0.39ZM46.23-16.95L46.23-16.95Q44.55-16.95 43.51-15.82Q42.46-14.69 42.17-12.58L42.17-12.58L50.02-12.58L50.02-13.03Q49.98-14.90 49.00-15.93Q48.03-16.95 46.23-16.95ZM77.81-10.68L77.81-10.37Q77.81-5.29 75.64-2.45Q73.48 0.39 69.59 0.39L69.59 0.39Q66.15 0.39 64.10-2.25L64.10-2.25L63.85 0L58.77 0L58.77-30L64.41-30L64.41-19.24Q66.37-21.52 69.55-21.52L69.55-21.52Q73.42-21.52 75.62-18.68Q77.81-15.84 77.81-10.68L77.81-10.68ZM72.17-10.78L72.17-10.78Q72.17-13.98 71.15-15.46Q70.14-16.93 68.13-16.93L68.13-16.93Q65.43-16.93 64.41-14.73L64.41-14.73L64.41-6.39Q65.45-4.16 68.16-4.16L68.16-4.16Q70.90-4.16 71.76-6.86L71.76-6.86Q72.17-8.14 72.17-10.78ZM110.29-10.68L110.29-10.37Q110.29-5.29 108.13-2.45Q105.96 0.39 102.07 0.39L102.07 0.39Q98.63 0.39 96.58-2.25L96.58-2.25L96.33 0L91.25 0L91.25-30L96.89-30L96.89-19.24Q98.85-21.52 102.03-21.52L102.03-21.52Q105.90-21.52 108.10-18.68Q110.29-15.84 110.29-10.68L110.29-10.68ZM104.65-10.78L104.65-10.78Q104.65-13.98 103.63-15.46Q102.62-16.93 100.61-16.93L100.61-16.93Q97.91-16.93 96.89-14.73L96.89-14.73L96.89-6.39Q97.93-4.16 100.64-4.16L100.64-4.16Q103.38-4.16 104.24-6.86L104.24-6.86Q104.65-8.14 104.65-10.78ZM125.72-21.27L125.64-15.84Q124.49-16.00 123.61-16.00L123.61-16.00Q120.41-16.00 119.41-13.83L119.41-13.83L119.41 0L113.77 0L113.77-21.13L119.10-21.13L119.26-18.61Q120.96-21.52 123.96-21.52L123.96-21.52Q124.90-21.52 125.72-21.27L125.72-21.27ZM127.48-10.51L127.48-10.76Q127.48-13.91 128.69-16.37Q129.90-18.83 132.18-20.18Q134.45-21.52 137.46-21.52L137.46-21.52Q141.74-21.52 144.44-18.91Q147.15-16.29 147.46-11.80L147.46-11.80L147.50-10.35Q147.50-5.49 144.79-2.55Q142.07 0.39 137.50 0.39Q132.93 0.39 130.21-2.54Q127.48-5.47 127.48-10.51L127.48-10.51ZM133.13-10.35L133.13-10.35Q133.13-7.34 134.26-5.75Q135.39-4.16 137.50-4.16L137.50-4.16Q139.55-4.16 140.70-5.73Q141.86-7.30 141.86-10.76L141.86-10.76Q141.86-13.71 140.70-15.33Q139.55-16.95 137.46-16.95L137.46-16.95Q135.39-16.95 134.26-15.34Q133.13-13.73 133.13-10.35ZM165.51-21.13L169.36-7.68L172.13-21.13L177.58-21.13L172.19 0L167.46 0L163.46-13.30L159.45 0L154.75 0L149.36-21.13L154.80-21.13L157.56-7.70L161.43-21.13L165.51-21.13ZM191.82-5.84L191.82-5.84Q191.82-6.88 190.79-7.47Q189.77-8.07 187.50-8.54L187.50-8.54Q179.96-10.12 179.96-14.94L179.96-14.94Q179.96-17.75 182.29-19.64Q184.63-21.52 188.40-21.52L188.40-21.52Q192.42-21.52 194.83-19.63Q197.25-17.73 197.25-14.71L197.25-14.71L191.60-14.71Q191.60-15.92 190.82-16.71Q190.04-17.50 188.38-17.50L188.38-17.50Q186.95-17.50 186.17-16.86Q185.39-16.21 185.39-15.21L185.39-15.21Q185.39-14.28 186.28-13.70Q187.17-13.13 189.28-12.71Q191.39-12.29 192.83-11.76L192.83-11.76Q197.30-10.12 197.30-6.07L197.30-6.07Q197.30-3.18 194.82-1.40Q192.34 0.39 188.42 0.39L188.42 0.39Q185.76 0.39 183.70-0.56Q181.64-1.50 180.47-3.15Q179.30-4.80 179.30-6.72L179.30-6.72L184.65-6.72Q184.73-5.21 185.76-4.41Q186.80-3.61 188.54-3.61L188.54-3.61Q190.16-3.61 190.99-4.23Q191.82-4.84 191.82-5.84ZM206.89-21.13L206.89 0L201.23 0L201.23-21.13L206.89-21.13ZM200.90-26.60L200.90-26.60Q200.90-27.87 201.75-28.69Q202.60-29.51 204.06-29.51L204.06-29.51Q205.51-29.51 206.37-28.69Q207.23-27.87 207.23-26.60L207.23-26.60Q207.23-25.31 206.36-24.49Q205.49-23.67 204.06-23.67Q202.64-23.67 201.77-24.49Q200.90-25.31 200.90-26.60ZM211.43-21.13L216.74-21.13L216.91-18.69Q219.18-21.52 222.99-21.52L222.99-21.52Q226.35-21.52 227.99-19.55Q229.63-17.58 229.67-13.65L229.67-13.65L229.67 0L224.02 0L224.02-13.52Q224.02-15.31 223.24-16.12Q222.46-16.93 220.64-16.93L220.64-16.93Q218.26-16.93 217.07-14.90L217.07-14.90L217.07 0L211.43 0L211.43-21.13ZM233.13-10.49L233.13-10.72Q233.13-15.59 235.44-18.55Q237.75-21.52 241.68-21.52L241.68-21.52Q245.16-21.52 247.09-19.14L247.09-19.14L247.32-21.13L252.44-21.13L252.44-0.70Q252.44 2.07 251.18 4.12Q249.92 6.17 247.64 7.25Q245.35 8.32 242.29 8.32L242.29 8.32Q239.96 8.32 237.75 7.39Q235.55 6.46 234.41 5L234.41 5L236.91 1.56Q239.02 3.93 242.03 3.93L242.03 3.93Q244.28 3.93 245.53 2.72Q246.78 1.52 246.78-0.68L246.78-0.68L246.78-1.82Q244.82 0.39 241.64 0.39L241.64 0.39Q237.83 0.39 235.48-2.59Q233.13-5.57 233.13-10.49L233.13-10.49ZM238.77-10.31L238.77-10.31Q238.77-7.44 239.92-5.81Q241.07-4.18 243.09-4.18L243.09-4.18Q245.66-4.18 246.78-6.11L246.78-6.11L246.78-15Q245.64-16.93 243.13-16.93L243.13-16.93Q241.09-16.93 239.93-15.27Q238.77-13.61 238.77-10.31ZM265.96-7.66L265.96-7.66Q265.96-9.63 267.06-11.31Q268.16-12.99 271.11-15.04L271.11-15.04Q269.84-16.74 269.12-18.23Q268.40-19.73 268.40-21.35L268.40-21.35Q268.40-24.67 270.50-26.75Q272.60-28.83 276.15-28.83L276.15-28.83Q279.34-28.83 281.38-26.93Q283.42-25.04 283.42-22.21L283.42-22.21Q283.42-18.81 279.98-16.21L279.98-16.21L277.79-14.63L282.70-8.93Q283.85-11.19 283.85-13.93L283.85-13.93L288.65-13.93Q288.65-8.38 286.09-4.94L286.09-4.94L290.35 0L283.95 0L282.48-1.68Q279.34 0.39 275.25 0.39L275.25 0.39Q271.04 0.39 268.50-1.83Q265.96-4.04 265.96-7.66ZM275.53-4.14L275.53-4.14Q277.56-4.14 279.38-5.27L279.38-5.27L273.77-11.76L273.36-11.46Q271.62-9.98 271.62-7.97L271.62-7.97Q271.62-6.27 272.71-5.21Q273.79-4.14 275.53-4.14ZM273.46-21.43L273.46-21.43Q273.46-19.96 275.18-17.73L275.18-17.73L276.68-18.73Q277.83-19.47 278.27-20.18Q278.71-20.88 278.71-21.86Q278.71-22.83 277.99-23.55Q277.27-24.28 276.13-24.28L276.13-24.28Q274.92-24.28 274.19-23.50Q273.46-22.71 273.46-21.43ZM314.90-21.27L314.82-15.84Q313.67-16.00 312.79-16.00L312.79-16.00Q309.59-16.00 308.59-13.83L308.59-13.83L308.59 0L302.95 0L302.95-21.13L308.28-21.13L308.44-18.61Q310.14-21.52 313.14-21.52L313.14-21.52Q314.08-21.52 314.90-21.27L314.90-21.27ZM327.27 0.39L327.27 0.39Q322.62 0.39 319.70-2.46Q316.78-5.31 316.78-10.06L316.78-10.06L316.78-10.61Q316.78-13.79 318.01-16.30Q319.24-18.81 321.49-20.17Q323.75-21.52 326.64-21.52L326.64-21.52Q330.98-21.52 333.47-18.79Q335.96-16.05 335.96-11.04L335.96-11.04L335.96-8.73L322.50-8.73Q322.77-6.66 324.15-5.41Q325.53-4.16 327.64-4.16L327.64-4.16Q330.90-4.16 332.73-6.52L332.73-6.52L335.51-3.42Q334.24-1.62 332.07-0.62Q329.90 0.39 327.27 0.39ZM326.62-16.95L326.62-16.95Q324.94-16.95 323.90-15.82Q322.85-14.69 322.56-12.58L322.56-12.58L330.41-12.58L330.41-13.03Q330.37-14.90 329.39-15.93Q328.42-16.95 326.62-16.95ZM350.61-5.84L350.61-5.84Q350.61-6.88 349.58-7.47Q348.55-8.07 346.29-8.54L346.29-8.54Q338.75-10.12 338.75-14.94L338.75-14.94Q338.75-17.75 341.08-19.64Q343.42-21.52 347.19-21.52L347.19-21.52Q351.21-21.52 353.62-19.63Q356.04-17.73 356.04-14.71L356.04-14.71L350.39-14.71Q350.39-15.92 349.61-16.71Q348.83-17.50 347.17-17.50L347.17-17.50Q345.74-17.50 344.96-16.86Q344.18-16.21 344.18-15.21L344.18-15.21Q344.18-14.28 345.07-13.70Q345.96-13.13 348.07-12.71Q350.18-12.29 351.62-11.76L351.62-11.76Q356.09-10.12 356.09-6.07L356.09-6.07Q356.09-3.18 353.61-1.40Q351.13 0.39 347.21 0.39L347.21 0.39Q344.55 0.39 342.49-0.56Q340.43-1.50 339.26-3.15Q338.09-4.80 338.09-6.72L338.09-6.72L343.44-6.72Q343.52-5.21 344.55-4.41Q345.59-3.61 347.32-3.61L347.32-3.61Q348.95-3.61 349.78-4.23Q350.61-4.84 350.61-5.84ZM369.45 0.39L369.45 0.39Q364.80 0.39 361.88-2.46Q358.96-5.31 358.96-10.06L358.96-10.06L358.96-10.61Q358.96-13.79 360.20-16.30Q361.43-18.81 363.68-20.17Q365.94-21.52 368.83-21.52L368.83-21.52Q373.16-21.52 375.65-18.79Q378.14-16.05 378.14-11.04L378.14-11.04L378.14-8.73L364.69-8.73Q364.96-6.66 366.34-5.41Q367.71-4.16 369.82-4.16L369.82-4.16Q373.09-4.16 374.92-6.52L374.92-6.52L377.70-3.42Q376.43-1.62 374.26-0.62Q372.09 0.39 369.45 0.39ZM368.81-16.95L368.81-16.95Q367.13-16.95 366.08-15.82Q365.04-14.69 364.75-12.58L364.75-12.58L372.60-12.58L372.60-13.03Q372.56-14.90 371.58-15.93Q370.61-16.95 368.81-16.95ZM399.30 0L393.59 0Q393.20-0.76 393.03-1.89L393.03-1.89Q390.98 0.39 387.70 0.39L387.70 0.39Q384.59 0.39 382.55-1.41Q380.51-3.20 380.51-5.94L380.51-5.94Q380.51-9.30 383.00-11.09Q385.49-12.89 390.20-12.91L390.20-12.91L392.79-12.91L392.79-14.12Q392.79-15.59 392.04-16.46Q391.29-17.34 389.67-17.34L389.67-17.34Q388.24-17.34 387.43-16.66Q386.62-15.98 386.62-14.79L386.62-14.79L380.98-14.79Q380.98-16.62 382.11-18.18Q383.24-19.75 385.31-20.63Q387.38-21.52 389.96-21.52L389.96-21.52Q393.87-21.52 396.16-19.56Q398.46-17.60 398.46-14.04L398.46-14.04L398.46-4.88Q398.48-1.88 399.30-0.33L399.30-0.33L399.30 0ZM388.93-3.93L388.93-3.93Q390.18-3.93 391.23-4.48Q392.29-5.04 392.79-5.98L392.79-5.98L392.79-9.61L390.68-9.61Q386.45-9.61 386.17-6.68L386.17-6.68L386.15-6.35Q386.15-5.29 386.89-4.61Q387.64-3.93 388.93-3.93ZM414.75-21.27L414.67-15.84Q413.52-16.00 412.64-16.00L412.64-16.00Q409.43-16.00 408.44-13.83L408.44-13.83L408.44 0L402.79 0L402.79-21.13L408.13-21.13L408.28-18.61Q409.98-21.52 412.99-21.52L412.99-21.52Q413.93-21.52 414.75-21.27L414.75-21.27ZM426.17-4.16L426.17-4.16Q427.73-4.16 428.71-5.02Q429.69-5.88 429.73-7.30L429.73-7.30L435.02-7.30Q435-5.16 433.85-3.37Q432.70-1.58 430.69-0.60Q428.69 0.39 426.27 0.39L426.27 0.39Q421.74 0.39 419.12-2.49Q416.50-5.37 416.50-10.45L416.50-10.45L416.50-10.82Q416.50-15.70 419.10-18.61Q421.70-21.52 426.23-21.52L426.23-21.52Q430.20-21.52 432.59-19.27Q434.98-17.01 435.02-13.26L435.02-13.26L429.73-13.26Q429.69-14.90 428.71-15.93Q427.73-16.95 426.13-16.95L426.13-16.95Q424.16-16.95 423.15-15.52Q422.15-14.08 422.15-10.86L422.15-10.86L422.15-10.27Q422.15-7.01 423.14-5.59Q424.14-4.16 426.17-4.16ZM443.75-30L443.75-18.83Q446.00-21.52 449.39-21.52L449.39-21.52Q456.27-21.52 456.37-13.54L456.37-13.54L456.37 0L450.72 0L450.72-13.38Q450.72-15.20 449.94-16.06Q449.16-16.93 447.34-16.93L447.34-16.93Q444.86-16.93 443.75-15.02L443.75-15.02L443.75 0L438.11 0L438.11-30L443.75-30Z" transform="translate(660, 675)" fill="#ffffff" /><circle cx="620" cy="745" r="8" fill="#e94560" /><path d="M6.64-28.44L13.05-7.05L19.49-28.44L26.02-28.44L16.11 0L10 0L0.14-28.44L6.64-28.44ZM27.44-10.51L27.44-10.76Q27.44-13.91 28.65-16.37Q29.86-18.83 32.14-20.18Q34.41-21.52 37.42-21.52L37.42-21.52Q41.70-21.52 44.40-18.91Q47.11-16.29 47.42-11.80L47.42-11.80L47.46-10.35Q47.46-5.49 44.75-2.55Q42.03 0.39 37.46 0.39Q32.89 0.39 30.17-2.54Q27.44-5.47 27.44-10.51L27.44-10.51ZM33.09-10.35L33.09-10.35Q33.09-7.34 34.22-5.75Q35.35-4.16 37.46-4.16L37.46-4.16Q39.51-4.16 40.66-5.73Q41.82-7.30 41.82-10.76L41.82-10.76Q41.82-13.71 40.66-15.33Q39.51-16.95 37.42-16.95L37.42-16.95Q35.35-16.95 34.22-15.34Q33.09-13.73 33.09-10.35ZM56.89-21.13L56.89 0L51.23 0L51.23-21.13L56.89-21.13ZM50.90-26.60L50.90-26.60Q50.90-27.87 51.75-28.69Q52.60-29.51 54.06-29.51L54.06-29.51Q55.51-29.51 56.37-28.69Q57.23-27.87 57.23-26.60L57.23-26.60Q57.23-25.31 56.36-24.49Q55.49-23.67 54.06-23.67Q52.64-23.67 51.77-24.49Q50.90-25.31 50.90-26.60ZM70.33-4.16L70.33-4.16Q71.89-4.16 72.87-5.02Q73.85-5.88 73.89-7.30L73.89-7.30L79.18-7.30Q79.16-5.16 78.01-3.37Q76.86-1.58 74.85-0.60Q72.85 0.39 70.43 0.39L70.43 0.39Q65.90 0.39 63.28-2.49Q60.66-5.37 60.66-10.45L60.66-10.45L60.66-10.82Q60.66-15.70 63.26-18.61Q65.86-21.52 70.39-21.52L70.39-21.52Q74.36-21.52 76.75-19.27Q79.14-17.01 79.18-13.26L79.18-13.26L73.89-13.26Q73.85-14.90 72.87-15.93Q71.89-16.95 70.29-16.95L70.29-16.95Q68.32-16.95 67.31-15.52Q66.31-14.08 66.31-10.86L66.31-10.86L66.31-10.27Q66.31-7.01 67.30-5.59Q68.30-4.16 70.33-4.16ZM92.13 0.39L92.13 0.39Q87.48 0.39 84.56-2.46Q81.64-5.31 81.64-10.06L81.64-10.06L81.64-10.61Q81.64-13.79 82.87-16.30Q84.10-18.81 86.36-20.17Q88.61-21.52 91.50-21.52L91.50-21.52Q95.84-21.52 98.33-18.79Q100.82-16.05 100.82-11.04L100.82-11.04L100.82-8.73L87.36-8.73Q87.64-6.66 89.01-5.41Q90.39-4.16 92.50-4.16L92.50-4.16Q95.76-4.16 97.60-6.52L97.60-6.52L100.37-3.42Q99.10-1.62 96.93-0.62Q94.77 0.39 92.13 0.39ZM91.48-16.95L91.48-16.95Q89.80-16.95 88.76-15.82Q87.71-14.69 87.42-12.58L87.42-12.58L95.27-12.58L95.27-13.03Q95.23-14.90 94.26-15.93Q93.28-16.95 91.48-16.95ZM125.43-5.84L125.43-5.84Q125.43-6.88 124.40-7.47Q123.38-8.07 121.11-8.54L121.11-8.54Q113.57-10.12 113.57-14.94L113.57-14.94Q113.57-17.75 115.91-19.64Q118.24-21.52 122.01-21.52L122.01-21.52Q126.04-21.52 128.45-19.63Q130.86-17.73 130.86-14.71L130.86-14.71L125.21-14.71Q125.21-15.92 124.43-16.71Q123.65-17.50 121.99-17.50L121.99-17.50Q120.57-17.50 119.79-16.86Q119.00-16.21 119.00-15.21L119.00-15.21Q119.00-14.28 119.89-13.70Q120.78-13.13 122.89-12.71Q125-12.29 126.45-11.76L126.45-11.76Q130.92-10.12 130.92-6.07L130.92-6.07Q130.92-3.18 128.44-1.40Q125.96 0.39 122.03 0.39L122.03 0.39Q119.38 0.39 117.31-0.56Q115.25-1.50 114.08-3.15Q112.91-4.80 112.91-6.72L112.91-6.72L118.26-6.72Q118.34-5.21 119.38-4.41Q120.41-3.61 122.15-3.61L122.15-3.61Q123.77-3.61 124.60-4.23Q125.43-4.84 125.43-5.84ZM138.52-21.13L142.44-7.99L146.35-21.13L152.40-21.13L143.91 3.28L143.44 4.39Q141.54 8.54 137.19 8.54L137.19 8.54Q135.96 8.54 134.69 8.16L134.69 8.16L134.69 3.89L135.55 3.91Q137.15 3.91 137.94 3.42Q138.73 2.93 139.18 1.80L139.18 1.80L139.84 0.06L132.44-21.13L138.52-21.13ZM154.51-21.13L159.82-21.13L160-18.69Q162.27-21.52 166.07-21.52L166.07-21.52Q169.43-21.52 171.07-19.55Q172.71-17.58 172.75-13.65L172.75-13.65L172.75 0L167.11 0L167.11-13.52Q167.11-15.31 166.33-16.12Q165.55-16.93 163.73-16.93L163.73-16.93Q161.35-16.93 160.16-14.90L160.16-14.90L160.16 0L154.51 0L154.51-21.13ZM178.14-26.33L183.79-26.33L183.79-21.13L187.40-21.13L187.40-16.99L183.79-16.99L183.79-6.45Q183.79-5.27 184.24-4.77Q184.69-4.26 185.96-4.26L185.96-4.26Q186.89-4.26 187.62-4.39L187.62-4.39L187.62-0.12Q185.96 0.39 184.20 0.39L184.20 0.39Q178.26 0.39 178.14-5.61L178.14-5.61L178.14-16.99L175.06-16.99L175.06-21.13L178.14-21.13L178.14-26.33ZM196.05-30L196.05-18.83Q198.30-21.52 201.70-21.52L201.70-21.52Q208.57-21.52 208.67-13.54L208.67-13.54L208.67 0L203.03 0L203.03-13.38Q203.03-15.20 202.25-16.06Q201.46-16.93 199.65-16.93L199.65-16.93Q197.17-16.93 196.05-15.02L196.05-15.02L196.05 0L190.41 0L190.41-30L196.05-30ZM222.66 0.39L222.66 0.39Q218.01 0.39 215.09-2.46Q212.17-5.31 212.17-10.06L212.17-10.06L212.17-10.61Q212.17-13.79 213.40-16.30Q214.63-18.81 216.88-20.17Q219.14-21.52 222.03-21.52L222.03-21.52Q226.37-21.52 228.86-18.79Q231.35-16.05 231.35-11.04L231.35-11.04L231.35-8.73L217.89-8.73Q218.16-6.66 219.54-5.41Q220.92-4.16 223.03-4.16L223.03-4.16Q226.29-4.16 228.13-6.52L228.13-6.52L230.90-3.42Q229.63-1.62 227.46-0.62Q225.29 0.39 222.66 0.39ZM222.01-16.95L222.01-16.95Q220.33-16.95 219.29-15.82Q218.24-14.69 217.95-12.58L217.95-12.58L225.80-12.58L225.80-13.03Q225.76-14.90 224.79-15.93Q223.81-16.95 222.01-16.95ZM246.00-5.84L246.00-5.84Q246.00-6.88 244.97-7.47Q243.95-8.07 241.68-8.54L241.68-8.54Q234.14-10.12 234.14-14.94L234.14-14.94Q234.14-17.75 236.47-19.64Q238.81-21.52 242.58-21.52L242.58-21.52Q246.60-21.52 249.01-19.63Q251.43-17.73 251.43-14.71L251.43-14.71L245.78-14.71Q245.78-15.92 245-16.71Q244.22-17.50 242.56-17.50L242.56-17.50Q241.13-17.50 240.35-16.86Q239.57-16.21 239.57-15.21L239.57-15.21Q239.57-14.28 240.46-13.70Q241.35-13.13 243.46-12.71Q245.57-12.29 247.01-11.76L247.01-11.76Q251.48-10.12 251.48-6.07L251.48-6.07Q251.48-3.18 249.00-1.40Q246.52 0.39 242.60 0.39L242.60 0.39Q239.94 0.39 237.88-0.56Q235.82-1.50 234.65-3.15Q233.48-4.80 233.48-6.72L233.48-6.72L238.83-6.72Q238.91-5.21 239.94-4.41Q240.98-3.61 242.71-3.61L242.71-3.61Q244.34-3.61 245.17-4.23Q246.00-4.84 246.00-5.84ZM261.07-21.13L261.07 0L255.41 0L255.41-21.13L261.07-21.13ZM255.08-26.60L255.08-26.60Q255.08-27.87 255.93-28.69Q256.78-29.51 258.24-29.51L258.24-29.51Q259.69-29.51 260.55-28.69Q261.41-27.87 261.41-26.60L261.41-26.60Q261.41-25.31 260.54-24.49Q259.67-23.67 258.24-23.67Q256.82-23.67 255.95-24.49Q255.08-25.31 255.08-26.60ZM277.17-5.84L277.17-5.84Q277.17-6.88 276.14-7.47Q275.12-8.07 272.85-8.54L272.85-8.54Q265.31-10.12 265.31-14.94L265.31-14.94Q265.31-17.75 267.65-19.64Q269.98-21.52 273.75-21.52L273.75-21.52Q277.77-21.52 280.19-19.63Q282.60-17.73 282.60-14.71L282.60-14.71L276.95-14.71Q276.95-15.92 276.17-16.71Q275.39-17.50 273.73-17.50L273.73-17.50Q272.30-17.50 271.52-16.86Q270.74-16.21 270.74-15.21L270.74-15.21Q270.74-14.28 271.63-13.70Q272.52-13.13 274.63-12.71Q276.74-12.29 278.18-11.76L278.18-11.76Q282.66-10.12 282.66-6.07L282.66-6.07Q282.66-3.18 280.18-1.40Q277.70 0.39 273.77 0.39L273.77 0.39Q271.11 0.39 269.05-0.56Q266.99-1.50 265.82-3.15Q264.65-4.80 264.65-6.72L264.65-6.72L270-6.72Q270.08-5.21 271.11-4.41Q272.15-3.61 273.89-3.61L273.89-3.61Q275.51-3.61 276.34-4.23Q277.17-4.84 277.17-5.84ZM296.50-10.53L296.50-11.56Q296.50-16.04 297.70-20.08Q298.89-24.12 301.21-27.24Q303.54-30.35 306.25-31.56L306.25-31.56L307.34-28.52Q304.49-26.41 302.89-21.99Q301.29-17.58 301.29-11.68L301.29-11.68L301.29-11.07Q301.29-5.16 302.87-0.72Q304.45 3.71 307.34 5.90L307.34 5.90L306.25 8.89Q303.59 7.70 301.30 4.68Q299.00 1.66 297.79-2.29Q296.58-6.23 296.50-10.53L296.50-10.53ZM332.07-28.44L332.07-23.69L323.36-23.69L323.36 0L317.50 0L317.50-23.69L308.91-23.69L308.91-28.44L332.07-28.44ZM356.82-28.44L356.82-23.69L348.11-23.69L348.11 0L342.25 0L342.25-23.69L333.65-23.69L333.65-28.44L356.82-28.44ZM374.90-7.46L374.90-7.46Q374.90-9.12 373.73-10.01Q372.56-10.90 369.51-11.88Q366.46-12.87 364.69-13.83L364.69-13.83Q359.84-16.45 359.84-20.88L359.84-20.88Q359.84-23.18 361.14-24.99Q362.44-26.80 364.87-27.81Q367.30-28.83 370.33-28.83L370.33-28.83Q373.38-28.83 375.76-27.72Q378.14-26.62 379.46-24.61Q380.78-22.60 380.78-20.04L380.78-20.04L374.92-20.04Q374.92-21.99 373.69-23.08Q372.46-24.16 370.23-24.16L370.23-24.16Q368.09-24.16 366.89-23.25Q365.70-22.34 365.70-20.86L365.70-20.86Q365.70-19.47 367.10-18.54Q368.50-17.60 371.21-16.78L371.21-16.78Q376.21-15.27 378.50-13.05Q380.78-10.82 380.78-7.50L380.78-7.50Q380.78-3.81 377.99-1.71Q375.20 0.39 370.47 0.39L370.47 0.39Q367.19 0.39 364.49-0.81Q361.80-2.01 360.38-4.10Q358.96-6.19 358.96-8.95L358.96-8.95L364.84-8.95Q364.84-4.24 370.47-4.24L370.47-4.24Q372.56-4.24 373.73-5.09Q374.90-5.94 374.90-7.46ZM394.10-11.99L394.10-11.11Q394.10-6.70 392.83-2.62Q391.56 1.46 389.18 4.59Q386.80 7.71 384.08 8.89L384.08 8.89L382.99 5.90Q385.76 3.81 387.36-0.55Q388.96-4.90 389.02-10.57L389.02-10.57L389.02-11.60Q389.02-17.44 387.43-21.89Q385.84-26.35 382.99-28.57L382.99-28.57L384.08-31.56Q386.74-30.41 389.09-27.38Q391.45-24.36 392.74-20.33Q394.04-16.31 394.10-11.99L394.10-11.99Z" transform="translate(660, 745)" fill="#ffffff" /><circle cx="620" cy="815" r="8" fill="#e94560" /><path d="M17.29-7.46L17.29-7.46Q17.29-9.12 16.11-10.01Q14.94-10.90 11.89-11.88Q8.85-12.87 7.07-13.83L7.07-13.83Q2.23-16.45 2.23-20.88L2.23-20.88Q2.23-23.18 3.53-24.99Q4.82-26.80 7.26-27.81Q9.69-28.83 12.71-28.83L12.71-28.83Q15.76-28.83 18.14-27.72Q20.53-26.62 21.85-24.61Q23.16-22.60 23.16-20.04L23.16-20.04L17.30-20.04Q17.30-21.99 16.07-23.08Q14.84-24.16 12.62-24.16L12.62-24.16Q10.47-24.16 9.28-23.25Q8.09-22.34 8.09-20.86L8.09-20.86Q8.09-19.47 9.48-18.54Q10.88-17.60 13.59-16.78L13.59-16.78Q18.59-15.27 20.88-13.05Q23.16-10.82 23.16-7.50L23.16-7.50Q23.16-3.81 20.37-1.71Q17.58 0.39 12.85 0.39L12.85 0.39Q9.57 0.39 6.88-0.81Q4.18-2.01 2.76-4.10Q1.35-6.19 1.35-8.95L1.35-8.95L7.23-8.95Q7.23-4.24 12.85-4.24L12.85-4.24Q14.94-4.24 16.11-5.09Q17.29-5.94 17.29-7.46ZM39.57 0L39.41-2.15Q37.32 0.39 33.63 0.39L33.63 0.39Q30.23 0.39 28.45-1.56Q26.66-3.52 26.62-7.29L26.62-7.29L26.62-21.13L32.27-21.13L32.27-7.48Q32.27-4.18 35.27-4.18L35.27-4.18Q38.14-4.18 39.22-6.17L39.22-6.17L39.22-21.13L44.88-21.13L44.88 0L39.57 0ZM68.18-10.68L68.18-10.37Q68.18-5.29 66.02-2.45Q63.85 0.39 59.96 0.39L59.96 0.39Q56.52 0.39 54.47-2.25L54.47-2.25L54.22 0L49.14 0L49.14-30L54.79-30L54.79-19.24Q56.74-21.52 59.92-21.52L59.92-21.52Q63.79-21.52 65.99-18.68Q68.18-15.84 68.18-10.68L68.18-10.68ZM62.54-10.78L62.54-10.78Q62.54-13.98 61.52-15.46Q60.51-16.93 58.50-16.93L58.50-16.93Q55.80-16.93 54.79-14.73L54.79-14.73L54.79-6.39Q55.82-4.16 58.54-4.16L58.54-4.16Q61.27-4.16 62.13-6.86L62.13-6.86Q62.54-8.14 62.54-10.78ZM82.64-14.45L82.64-9.90L71.64-9.90L71.64-14.45L82.64-14.45ZM105.12 0L99.41 0Q99.02-0.76 98.85-1.89L98.85-1.89Q96.80 0.39 93.52 0.39L93.52 0.39Q90.41 0.39 88.37-1.41Q86.33-3.20 86.33-5.94L86.33-5.94Q86.33-9.30 88.82-11.09Q91.31-12.89 96.02-12.91L96.02-12.91L98.61-12.91L98.61-14.12Q98.61-15.59 97.86-16.46Q97.11-17.34 95.49-17.34L95.49-17.34Q94.06-17.34 93.25-16.66Q92.44-15.98 92.44-14.79L92.44-14.79L86.80-14.79Q86.80-16.62 87.93-18.18Q89.06-19.75 91.13-20.63Q93.20-21.52 95.78-21.52L95.78-21.52Q99.69-21.52 101.98-19.56Q104.28-17.60 104.28-14.04L104.28-14.04L104.28-4.88Q104.30-1.88 105.12-0.33L105.12-0.33L105.12 0ZM94.75-3.93L94.75-3.93Q96.00-3.93 97.05-4.48Q98.11-5.04 98.61-5.98L98.61-5.98L98.61-9.61L96.50-9.61Q92.27-9.61 91.99-6.68L91.99-6.68L91.97-6.35Q91.97-5.29 92.71-4.61Q93.46-3.93 94.75-3.93ZM107.79-10.49L107.79-10.72Q107.79-15.59 110.11-18.55Q112.42-21.52 116.35-21.52L116.35-21.52Q119.82-21.52 121.76-19.14L121.76-19.14L121.99-21.13L127.11-21.13L127.11-0.70Q127.11 2.07 125.85 4.12Q124.59 6.17 122.30 7.25Q120.02 8.32 116.95 8.32L116.95 8.32Q114.63 8.32 112.42 7.39Q110.21 6.46 109.08 5L109.08 5L111.58 1.56Q113.69 3.93 116.70 3.93L116.70 3.93Q118.95 3.93 120.20 2.72Q121.45 1.52 121.45-0.68L121.45-0.68L121.45-1.82Q119.49 0.39 116.31 0.39L116.31 0.39Q112.50 0.39 110.15-2.59Q107.79-5.57 107.79-10.49L107.79-10.49ZM113.44-10.31L113.44-10.31Q113.44-7.44 114.59-5.81Q115.74-4.18 117.75-4.18L117.75-4.18Q120.33-4.18 121.45-6.11L121.45-6.11L121.45-15Q120.31-16.93 117.79-16.93L117.79-16.93Q115.76-16.93 114.60-15.27Q113.44-13.61 113.44-10.31ZM141.17 0.39L141.17 0.39Q136.52 0.39 133.60-2.46Q130.68-5.31 130.68-10.06L130.68-10.06L130.68-10.61Q130.68-13.79 131.91-16.30Q133.14-18.81 135.40-20.17Q137.66-21.52 140.55-21.52L140.55-21.52Q144.88-21.52 147.37-18.79Q149.86-16.05 149.86-11.04L149.86-11.04L149.86-8.73L136.41-8.73Q136.68-6.66 138.06-5.41Q139.43-4.16 141.54-4.16L141.54-4.16Q144.80-4.16 146.64-6.52L146.64-6.52L149.41-3.42Q148.14-1.62 145.98-0.62Q143.81 0.39 141.17 0.39ZM140.53-16.95L140.53-16.95Q138.85-16.95 137.80-15.82Q136.76-14.69 136.46-12.58L136.46-12.58L144.32-12.58L144.32-13.03Q144.28-14.90 143.30-15.93Q142.32-16.95 140.53-16.95ZM152.95-21.13L158.26-21.13L158.44-18.69Q160.70-21.52 164.51-21.52L164.51-21.52Q167.87-21.52 169.51-19.55Q171.15-17.58 171.19-13.65L171.19-13.65L171.19 0L165.55 0L165.55-13.52Q165.55-15.31 164.77-16.12Q163.98-16.93 162.17-16.93L162.17-16.93Q159.79-16.93 158.59-14.90L158.59-14.90L158.59 0L152.95 0L152.95-21.13ZM176.58-26.33L182.23-26.33L182.23-21.13L185.84-21.13L185.84-16.99L182.23-16.99L182.23-6.45Q182.23-5.27 182.68-4.77Q183.13-4.26 184.39-4.26L184.39-4.26Q185.33-4.26 186.05-4.39L186.05-4.39L186.05-0.12Q184.39 0.39 182.64 0.39L182.64 0.39Q176.70 0.39 176.58-5.61L176.58-5.61L176.58-16.99L173.50-16.99L173.50-21.13L176.58-21.13L176.58-26.33ZM210.39-5.84L210.39-5.84Q210.39-6.88 209.37-7.47Q208.34-8.07 206.07-8.54L206.07-8.54Q198.54-10.12 198.54-14.94L198.54-14.94Q198.54-17.75 200.87-19.64Q203.20-21.52 206.97-21.52L206.97-21.52Q211.00-21.52 213.41-19.63Q215.82-17.73 215.82-14.71L215.82-14.71L210.18-14.71Q210.18-15.92 209.39-16.71Q208.61-17.50 206.95-17.50L206.95-17.50Q205.53-17.50 204.75-16.86Q203.96-16.21 203.96-15.21L203.96-15.21Q203.96-14.28 204.85-13.70Q205.74-13.13 207.85-12.71Q209.96-12.29 211.41-11.76L211.41-11.76Q215.88-10.12 215.88-6.07L215.88-6.07Q215.88-3.18 213.40-1.40Q210.92 0.39 206.99 0.39L206.99 0.39Q204.34 0.39 202.28-0.56Q200.21-1.50 199.04-3.15Q197.87-4.80 197.87-6.72L197.87-6.72L203.22-6.72Q203.30-5.21 204.34-4.41Q205.37-3.61 207.11-3.61L207.11-3.61Q208.73-3.61 209.56-4.23Q210.39-4.84 210.39-5.84ZM229.24 0.39L229.24 0.39Q224.59 0.39 221.67-2.46Q218.75-5.31 218.75-10.06L218.75-10.06L218.75-10.61Q218.75-13.79 219.98-16.30Q221.21-18.81 223.47-20.17Q225.72-21.52 228.61-21.52L228.61-21.52Q232.95-21.52 235.44-18.79Q237.93-16.05 237.93-11.04L237.93-11.04L237.93-8.73L224.47-8.73Q224.75-6.66 226.12-5.41Q227.50-4.16 229.61-4.16L229.61-4.16Q232.87-4.16 234.71-6.52L234.71-6.52L237.48-3.42Q236.21-1.62 234.04-0.62Q231.88 0.39 229.24 0.39ZM228.59-16.95L228.59-16.95Q226.91-16.95 225.87-15.82Q224.82-14.69 224.53-12.58L224.53-12.58L232.38-12.58L232.38-13.03Q232.34-14.90 231.37-15.93Q230.39-16.95 228.59-16.95ZM252.58-5.84L252.58-5.84Q252.58-6.88 251.55-7.47Q250.53-8.07 248.26-8.54L248.26-8.54Q240.72-10.12 240.72-14.94L240.72-14.94Q240.72-17.75 243.06-19.64Q245.39-21.52 249.16-21.52L249.16-21.52Q253.18-21.52 255.60-19.63Q258.01-17.73 258.01-14.71L258.01-14.71L252.36-14.71Q252.36-15.92 251.58-16.71Q250.80-17.50 249.14-17.50L249.14-17.50Q247.71-17.50 246.93-16.86Q246.15-16.21 246.15-15.21L246.15-15.21Q246.15-14.28 247.04-13.70Q247.93-13.13 250.04-12.71Q252.15-12.29 253.59-11.76L253.59-11.76Q258.07-10.12 258.07-6.07L258.07-6.07Q258.07-3.18 255.59-1.40Q253.11 0.39 249.18 0.39L249.18 0.39Q246.52 0.39 244.46-0.56Q242.40-1.50 241.23-3.15Q240.06-4.80 240.06-6.72L240.06-6.72L245.41-6.72Q245.49-5.21 246.52-4.41Q247.56-3.61 249.30-3.61L249.30-3.61Q250.92-3.61 251.75-4.23Q252.58-4.84 252.58-5.84ZM273.14-5.84L273.14-5.84Q273.14-6.88 272.12-7.47Q271.09-8.07 268.83-8.54L268.83-8.54Q261.29-10.12 261.29-14.94L261.29-14.94Q261.29-17.75 263.62-19.64Q265.96-21.52 269.73-21.52L269.73-21.52Q273.75-21.52 276.16-19.63Q278.57-17.73 278.57-14.71L278.57-14.71L272.93-14.71Q272.93-15.92 272.15-16.71Q271.37-17.50 269.71-17.50L269.71-17.50Q268.28-17.50 267.50-16.86Q266.72-16.21 266.72-15.21L266.72-15.21Q266.72-14.28 267.61-13.70Q268.50-13.13 270.61-12.71Q272.71-12.29 274.16-11.76L274.16-11.76Q278.63-10.12 278.63-6.07L278.63-6.07Q278.63-3.18 276.15-1.40Q273.67 0.39 269.75 0.39L269.75 0.39Q267.09 0.39 265.03-0.56Q262.97-1.50 261.80-3.15Q260.63-4.80 260.63-6.72L260.63-6.72L265.98-6.72Q266.05-5.21 267.09-4.41Q268.13-3.61 269.86-3.61L269.86-3.61Q271.48-3.61 272.31-4.23Q273.14-4.84 273.14-5.84ZM288.22-21.13L288.22 0L282.56 0L282.56-21.13L288.22-21.13ZM282.23-26.60L282.23-26.60Q282.23-27.87 283.08-28.69Q283.93-29.51 285.39-29.51L285.39-29.51Q286.84-29.51 287.70-28.69Q288.55-27.87 288.55-26.60L288.55-26.60Q288.55-25.31 287.69-24.49Q286.82-23.67 285.39-23.67Q283.96-23.67 283.10-24.49Q282.23-25.31 282.23-26.60ZM291.99-10.51L291.99-10.76Q291.99-13.91 293.20-16.37Q294.41-18.83 296.69-20.18Q298.96-21.52 301.97-21.52L301.97-21.52Q306.25-21.52 308.96-18.91Q311.66-16.29 311.97-11.80L311.97-11.80L312.01-10.35Q312.01-5.49 309.30-2.55Q306.58 0.39 302.01 0.39Q297.44 0.39 294.72-2.54Q291.99-5.47 291.99-10.51L291.99-10.51ZM297.64-10.35L297.64-10.35Q297.64-7.34 298.77-5.75Q299.90-4.16 302.01-4.16L302.01-4.16Q304.06-4.16 305.21-5.73Q306.37-7.30 306.37-10.76L306.37-10.76Q306.37-13.71 305.21-15.33Q304.06-16.95 301.97-16.95L301.97-16.95Q299.90-16.95 298.77-15.34Q297.64-13.73 297.64-10.35ZM315.37-21.13L320.68-21.13L320.86-18.69Q323.13-21.52 326.93-21.52L326.93-21.52Q330.29-21.52 331.93-19.55Q333.57-17.58 333.61-13.65L333.61-13.65L333.61 0L327.97 0L327.97-13.52Q327.97-15.31 327.19-16.12Q326.41-16.93 324.59-16.93L324.59-16.93Q322.21-16.93 321.02-14.90L321.02-14.90L321.02 0L315.37 0L315.37-21.13ZM349.34-5.84L349.34-5.84Q349.34-6.88 348.31-7.47Q347.29-8.07 345.02-8.54L345.02-8.54Q337.48-10.12 337.48-14.94L337.48-14.94Q337.48-17.75 339.81-19.64Q342.15-21.52 345.92-21.52L345.92-21.52Q349.94-21.52 352.35-19.63Q354.77-17.73 354.77-14.71L354.77-14.71L349.12-14.71Q349.12-15.92 348.34-16.71Q347.56-17.50 345.90-17.50L345.90-17.50Q344.47-17.50 343.69-16.86Q342.91-16.21 342.91-15.21L342.91-15.21Q342.91-14.28 343.80-13.70Q344.69-13.13 346.80-12.71Q348.91-12.29 350.35-11.76L350.35-11.76Q354.82-10.12 354.82-6.07L354.82-6.07Q354.82-3.18 352.34-1.40Q349.86 0.39 345.94 0.39L345.94 0.39Q343.28 0.39 341.22-0.56Q339.16-1.50 337.99-3.15Q336.82-4.80 336.82-6.72L336.82-6.72L342.17-6.72Q342.25-5.21 343.28-4.41Q344.32-3.61 346.05-3.61L346.05-3.61Q347.68-3.61 348.51-4.23Q349.34-4.84 349.34-5.84Z" transform="translate(660, 815)" fill="#ffffff" />
  <text x="960" y="1030" font-family="Arial" font-size="24" fill="#666" text-anchor="middle">OpenClaw Documentation</text>
  <line x1="880" y1="1045" x2="1040" y2="1045" stroke="#e94560" stroke-width="3" opacity="0.6"/>
</svg>