<?xml version="1.0" encoding="UTF-8"?>
<svg width="1920" height="1080" xmlns="http://www.w3.org/2000/svg">
  <defs>
    <linearGradient id="bg" x1="0%" y1="0%" x2="100%" y2="100%">
      <stop offset="0%" style="stop-color:#1a1a2e;stop-opacity:1" />
      <stop offset="100%" style="stop-color:#0f0f1a;stop-opacity:1" />
    </linearGradient>
  </defs>
  <rect width="100%" height="100%" fill="url(#bg)"/>
  <circle cx="1920" cy="0" r="600" fill="#e94560" opacity="0.1"/>
  <circle cx="0" cy="1080" r="400" fill="#e94560" opacity="0.1"/>
  <rect width="1920" height="15" fill="#e94560"/>
  <path d="M22.80-11.37L29.84-11.37Q29.44-5.86 25.77-2.70Q22.10 0.47 16.10 0.47L16.10 0.47Q9.54 0.47 5.78-3.95Q2.02-8.37 2.02-16.08L2.02-16.08L2.02-18.16Q2.02-23.09 3.75-26.84Q5.48-30.59 8.71-32.59Q11.93-34.59 16.20-34.59L16.20-34.59Q22.10-34.59 25.71-31.43Q29.32-28.27 29.88-22.55L29.88-22.55L22.85-22.55Q22.59-25.85 21.01-27.34Q19.43-28.83 16.20-28.83L16.20-28.83Q12.68-28.83 10.93-26.31Q9.19-23.79 9.14-18.49L9.14-18.49L9.14-15.91Q9.14-10.38 10.82-7.83Q12.49-5.27 16.10-5.27L16.10-5.27Q19.36-5.27 20.96-6.76Q22.57-8.25 22.80-11.37L22.80-11.37ZM40.62-36L40.62-22.59Q43.31-25.83 47.39-25.83L47.39-25.83Q55.64-25.83 55.76-16.24L55.76-16.24L55.76 0L48.98 0L48.98-16.05Q48.98-18.23 48.05-19.28Q47.11-20.32 44.93-20.32L44.93-20.32Q41.95-20.32 40.62-18.02L40.62-18.02L40.62 0L33.84 0L33.84-36L40.62-36ZM82.41 0L75.56 0Q75.09-0.91 74.88-2.27L74.88-2.27Q72.42 0.47 68.48 0.47L68.48 0.47Q64.76 0.47 62.31-1.69Q59.86-3.84 59.86-7.13L59.86-7.13Q59.86-11.16 62.85-13.31Q65.84-15.47 71.48-15.49L71.48-15.49L74.60-15.49L74.60-16.95Q74.60-18.70 73.70-19.76Q72.80-20.81 70.85-20.81L70.85-20.81Q69.14-20.81 68.17-19.99Q67.20-19.17 67.20-17.74L67.20-17.74L60.42-17.74Q60.42-19.95 61.78-21.82Q63.14-23.70 65.63-24.76Q68.11-25.83 71.20-25.83L71.20-25.83Q75.89-25.83 78.64-23.47Q81.40-21.12 81.40-16.85L81.40-16.85L81.40-5.86Q81.42-2.25 82.41-0.40L82.41-0.40L82.41 0ZM69.96-4.71L69.96-4.71Q71.46-4.71 72.73-5.38Q73.99-6.05 74.60-7.17L74.60-7.17L74.60-11.53L72.07-11.53Q66.98-11.53 66.66-8.02L66.66-8.02L66.63-7.62Q66.63-6.35 67.52-5.53Q68.41-4.71 69.96-4.71ZM86.46-25.36L92.84-25.36L93.05-22.43Q95.77-25.83 100.34-25.83L100.34-25.83Q104.37-25.83 106.34-23.46Q108.30-21.09 108.35-16.38L108.35-16.38L108.35 0L101.58 0L101.58-16.22Q101.58-18.38 100.64-19.35Q99.70-20.32 97.52-20.32L97.52-20.32Q94.66-20.32 93.23-17.88L93.23-17.88L93.23 0L86.46 0L86.46-25.36ZM133.69-11.37L140.72-11.37Q140.32-5.86 136.65-2.70Q132.98 0.47 126.98 0.47L126.98 0.47Q120.42 0.47 116.66-3.95Q112.90-8.37 112.90-16.08L112.90-16.08L112.90-18.16Q112.90-23.09 114.63-26.84Q116.37-30.59 119.59-32.59Q122.81-34.59 127.08-34.59L127.08-34.59Q132.98-34.59 136.59-31.43Q140.20-28.27 140.77-22.55L140.77-22.55L133.73-22.55Q133.48-25.85 131.89-27.34Q130.31-28.83 127.08-28.83L127.08-28.83Q123.56-28.83 121.82-26.31Q120.07-23.79 120.02-18.49L120.02-18.49L120.02-15.91Q120.02-10.38 121.70-7.83Q123.38-5.27 126.98-5.27L126.98-5.27Q130.24-5.27 131.85-6.76Q133.45-8.25 133.69-11.37L133.69-11.37ZM152.04-36L152.04 0L145.24 0L145.24-36L152.04-36ZM179.16 0L172.31 0Q171.84-0.91 171.63-2.27L171.63-2.27Q169.17 0.47 165.23 0.47L165.23 0.47Q161.51 0.47 159.06-1.69Q156.61-3.84 156.61-7.13L156.61-7.13Q156.61-11.16 159.60-13.31Q162.59-15.47 168.23-15.49L168.23-15.49L171.35-15.49L171.35-16.95Q171.35-18.70 170.45-19.76Q169.55-20.81 167.60-20.81L167.60-20.81Q165.89-20.81 164.92-19.99Q163.95-19.17 163.95-17.74L163.95-17.74L157.17-17.74Q157.17-19.95 158.53-21.82Q159.89-23.70 162.38-24.76Q164.86-25.83 167.95-25.83L167.95-25.83Q172.64-25.83 175.39-23.47Q178.15-21.12 178.15-16.85L178.15-16.85L178.15-5.86Q178.17-2.25 179.16-0.40L179.16-0.40L179.16 0ZM166.71-4.71L166.71-4.71Q168.21-4.71 169.48-5.38Q170.74-6.05 171.35-7.17L171.35-7.17L171.35-11.53L168.82-11.53Q163.73-11.53 163.41-8.02L163.41-8.02L163.38-7.62Q163.38-6.35 164.27-5.53Q165.16-4.71 166.71-4.71ZM200.79-25.36L205.41-9.21L208.73-25.36L215.27-25.36L208.80 0L203.13 0L198.33-15.96L193.52 0L187.88 0L181.41-25.36L187.95-25.36L191.25-9.23L195.89-25.36L200.79-25.36Z" transform="translate(60, 85)" fill="#e94560" />
  <text x="1860" y="85" font-family="Arial" font-size="28" fill="#888" text-anchor="end">SLIDE 5/10</text>
  <path d="M34.57-14.92L34.57-14.92Q34.57-18.24 32.23-20.02Q29.88-21.80 23.79-23.77Q17.70-25.74 14.14-27.66L14.14-27.66Q4.45-32.89 4.45-41.76L4.45-41.76Q4.45-46.37 7.05-49.98Q9.65-53.59 14.51-55.63Q19.38-57.66 25.43-57.66L25.43-57.66Q31.52-57.66 36.29-55.45Q41.05-53.24 43.69-49.22Q46.33-45.20 46.33-40.08L46.33-40.08L34.61-40.08Q34.61-43.98 32.15-46.15Q29.69-48.32 25.23-48.32L25.23-48.32Q20.94-48.32 18.55-46.50Q16.17-44.69 16.17-41.72L16.17-41.72Q16.17-38.95 18.96-37.07Q21.76-35.20 27.19-33.55L27.19-33.55Q37.19-30.55 41.76-26.09Q46.33-21.64 46.33-15L46.33-15Q46.33-7.62 40.74-3.42Q35.16 0.78 25.70 0.78L25.70 0.78Q19.14 0.78 13.75-1.62Q8.36-4.02 5.53-8.20Q2.70-12.38 2.70-17.89L2.70-17.89L14.45-17.89Q14.45-8.48 25.70-8.48L25.70-8.48Q29.88-8.48 32.23-10.18Q34.57-11.88 34.57-14.92ZM79.73 0L68.87-16.95L64.80-12.89L64.80 0L53.52 0L53.52-60L64.80-60L64.80-26.76L66.99-29.57L77.81-42.27L91.37-42.27L76.09-24.65L92.70 0L79.73 0ZM108.16-42.27L108.16 0L96.84 0L96.84-42.27L108.16-42.27ZM96.17-53.20L96.17-53.20Q96.17-55.74 97.87-57.38Q99.57-59.02 102.50-59.02L102.50-59.02Q105.39-59.02 107.11-57.38Q108.83-55.74 108.83-53.20L108.83-53.20Q108.83-50.63 107.09-48.98Q105.35-47.34 102.50-47.34Q99.65-47.34 97.91-48.98Q96.17-50.63 96.17-53.20ZM129.38-60L129.38 0L118.05 0L118.05-60L129.38-60ZM150.59-60L150.59 0L139.26 0L139.26-60L150.59-60ZM182.77-11.68L182.77-11.68Q182.77-13.75 180.72-14.94Q178.67-16.13 174.14-17.07L174.14-17.07Q159.06-20.23 159.06-29.88L159.06-29.88Q159.06-35.51 163.73-39.28Q168.40-43.05 175.94-43.05L175.94-43.05Q183.98-43.05 188.81-39.26Q193.63-35.47 193.63-29.41L193.63-29.41L182.34-29.41Q182.34-31.84 180.78-33.42Q179.22-35 175.90-35L175.90-35Q173.05-35 171.48-33.71Q169.92-32.42 169.92-30.43L169.92-30.43Q169.92-28.55 171.70-27.40Q173.48-26.25 177.70-25.41Q181.91-24.57 184.80-23.52L184.80-23.52Q193.75-20.23 193.75-12.15L193.75-12.15Q193.75-6.37 188.79-2.79Q183.83 0.78 175.98 0.78L175.98 0.78Q170.66 0.78 166.54-1.11Q162.42-3.01 160.08-6.31Q157.73-9.61 157.73-13.44L157.73-13.44L168.44-13.44Q168.59-10.43 170.66-8.83Q172.73-7.23 176.21-7.23L176.21-7.23Q179.45-7.23 181.11-8.46Q182.77-9.69 182.77-11.68ZM251.17-14.92L251.17-14.92Q251.17-18.24 248.83-20.02Q246.48-21.80 240.39-23.77Q234.30-25.74 230.74-27.66L230.74-27.66Q221.05-32.89 221.05-41.76L221.05-41.76Q221.05-46.37 223.65-49.98Q226.25-53.59 231.11-55.63Q235.98-57.66 242.03-57.66L242.03-57.66Q248.13-57.66 252.89-55.45Q257.66-53.24 260.29-49.22Q262.93-45.20 262.93-40.08L262.93-40.08L251.21-40.08Q251.21-43.98 248.75-46.15Q246.29-48.32 241.84-48.32L241.84-48.32Q237.54-48.32 235.16-46.50Q232.77-44.69 232.77-41.72L232.77-41.72Q232.77-38.95 235.57-37.07Q238.36-35.20 243.79-33.55L243.79-33.55Q253.79-30.55 258.36-26.09Q262.93-21.64 262.93-15L262.93-15Q262.93-7.62 257.34-3.42Q251.76 0.78 242.30 0.78L242.30 0.78Q235.74 0.78 230.35-1.62Q224.96-4.02 222.13-8.20Q219.30-12.38 219.30-17.89L219.30-17.89L231.05-17.89Q231.05-8.48 242.30-8.48L242.30-8.48Q246.48-8.48 248.83-10.18Q251.17-11.88 251.17-14.92ZM278.05-42.27L285.90-15.98L293.71-42.27L305.82-42.27L288.83 6.56L287.89 8.79Q284.10 17.07 275.39 17.07L275.39 17.07Q272.93 17.07 270.39 16.33L270.39 16.33L270.39 7.77L272.11 7.81Q275.31 7.81 276.89 6.84Q278.48 5.86 279.38 3.59L279.38 3.59L280.70 0.12L265.90-42.27L278.05-42.27ZM333.16-11.68L333.16-11.68Q333.16-13.75 331.11-14.94Q329.06-16.13 324.53-17.07L324.53-17.07Q309.45-20.23 309.45-29.88L309.45-29.88Q309.45-35.51 314.12-39.28Q318.79-43.05 326.33-43.05L326.33-43.05Q334.38-43.05 339.20-39.26Q344.02-35.47 344.02-29.41L344.02-29.41L332.73-29.41Q332.73-31.84 331.17-33.42Q329.61-35 326.29-35L326.29-35Q323.44-35 321.88-33.71Q320.31-32.42 320.31-30.43L320.31-30.43Q320.31-28.55 322.09-27.40Q323.87-26.25 328.09-25.41Q332.30-24.57 335.20-23.52L335.20-23.52Q344.14-20.23 344.14-12.15L344.14-12.15Q344.14-6.37 339.18-2.79Q334.22 0.78 326.37 0.78L326.37 0.78Q321.05 0.78 316.93-1.11Q312.81-3.01 310.47-6.31Q308.13-9.61 308.13-13.44L308.13-13.44L318.83-13.44Q318.98-10.43 321.05-8.83Q323.13-7.23 326.60-7.23L326.60-7.23Q329.84-7.23 331.50-8.46Q333.16-9.69 333.16-11.68ZM353.63-52.66L364.92-52.66L364.92-42.27L372.15-42.27L372.15-33.98L364.92-33.98L364.92-12.89Q364.92-10.55 365.82-9.53Q366.72-8.52 369.26-8.52L369.26-8.52Q371.13-8.52 372.58-8.79L372.58-8.79L372.58-0.23Q369.26 0.78 365.74 0.78L365.74 0.78Q353.87 0.78 353.63-11.21L353.63-11.21L353.63-33.98L347.46-33.98L347.46-42.27L353.63-42.27L353.63-52.66ZM397.89 0.78L397.89 0.78Q388.59 0.78 382.75-4.92Q376.91-10.63 376.91-20.12L376.91-20.12L376.91-21.21Q376.91-27.58 379.38-32.60Q381.84-37.62 386.35-40.33Q390.86-43.05 396.64-43.05L396.64-43.05Q405.31-43.05 410.29-37.58Q415.27-32.11 415.27-22.07L415.27-22.07L415.27-17.46L388.36-17.46Q388.91-13.32 391.66-10.82Q394.41-8.32 398.63-8.32L398.63-8.32Q405.16-8.32 408.83-13.05L408.83-13.05L414.38-6.84Q411.84-3.24 407.50-1.23Q403.16 0.78 397.89 0.78ZM396.60-33.91L396.60-33.91Q393.24-33.91 391.15-31.64Q389.06-29.38 388.48-25.16L388.48-25.16L404.18-25.16L404.18-26.05Q404.10-29.80 402.15-31.86Q400.20-33.91 396.60-33.91ZM421.68-42.27L432.27-42.27L432.62-37.54Q437.11-43.05 444.77-43.05L444.77-43.05Q452.93-43.05 455.98-36.60L455.98-36.60Q460.43-43.05 468.67-43.05L468.67-43.05Q475.55-43.05 478.91-39.04Q482.27-35.04 482.27-26.99L482.27-26.99L482.27 0L470.94 0L470.94-26.95Q470.94-30.55 469.53-32.21Q468.13-33.87 464.57-33.87L464.57-33.87Q459.49-33.87 457.54-29.02L457.54-29.02L457.58 0L446.29 0L446.29-26.91Q446.29-30.59 444.84-32.23Q443.40-33.87 439.92-33.87L439.92-33.87Q435.12-33.87 432.97-29.88L432.97-29.88L432.97 0L421.68 0L421.68-42.27Z" transform="translate(716.69921875, 420)" fill="#ffffff" />
  <line x1="660" y1="480" x2="1260" y2="480" stroke="#e94560" stroke-width="6"/>
  <circle cx="620" cy="535" r="8" fill="#e94560" /><path d="M2.54-28.44L10.20-28.44L17.50-7.81L24.77-28.44L32.46-28.44L32.46 0L26.58 0L26.58-7.77L27.17-21.19L19.49 0L15.47 0L7.81-21.17L8.40-7.77L8.40 0L2.54 0L2.54-28.44ZM36.33-10.51L36.33-10.76Q36.33-13.91 37.54-16.37Q38.75-18.83 41.03-20.18Q43.30-21.52 46.31-21.52L46.31-21.52Q50.59-21.52 53.29-18.91Q56.00-16.29 56.31-11.80L56.31-11.80L56.35-10.35Q56.35-5.49 53.63-2.55Q50.92 0.39 46.35 0.39Q41.78 0.39 39.05-2.54Q36.33-5.47 36.33-10.51L36.33-10.51ZM41.97-10.35L41.97-10.35Q41.97-7.34 43.11-5.75Q44.24-4.16 46.35-4.16L46.35-4.16Q48.40-4.16 49.55-5.73Q50.70-7.30 50.70-10.76L50.70-10.76Q50.70-13.71 49.55-15.33Q48.40-16.95 46.31-16.95L46.31-16.95Q44.24-16.95 43.11-15.34Q41.97-13.73 41.97-10.35ZM58.95-10.72L58.95-10.72Q58.95-15.66 61.16-18.59Q63.38-21.52 67.23-21.52L67.23-21.52Q70.31-21.52 72.32-19.22L72.32-19.22L72.32-30L77.99-30L77.99 0L72.89 0L72.62-2.25Q70.51 0.39 67.19 0.39L67.19 0.39Q63.46 0.39 61.20-2.55Q58.95-5.49 58.95-10.72ZM64.59-10.31L64.59-10.31Q64.59-7.34 65.63-5.76Q66.66-4.18 68.63-4.18L68.63-4.18Q71.25-4.18 72.32-6.39L72.32-6.39L72.32-14.73Q71.27-16.93 68.67-16.93L68.67-16.93Q64.59-16.93 64.59-10.31ZM95.18 0L95.02-2.15Q92.93 0.39 89.24 0.39L89.24 0.39Q85.84 0.39 84.05-1.56Q82.27-3.52 82.23-7.29L82.23-7.29L82.23-21.13L87.87-21.13L87.87-7.48Q87.87-4.18 90.88-4.18L90.88-4.18Q93.75-4.18 94.82-6.17L94.82-6.17L94.82-21.13L100.49-21.13L100.49 0L95.18 0ZM110.70-30L110.70 0L105.04 0L105.04-30L110.70-30ZM133.30 0L127.60 0Q127.21-0.76 127.03-1.89L127.03-1.89Q124.98 0.39 121.70 0.39L121.70 0.39Q118.59 0.39 116.55-1.41Q114.51-3.20 114.51-5.94L114.51-5.94Q114.51-9.30 117.00-11.09Q119.49-12.89 124.20-12.91L124.20-12.91L126.80-12.91L126.80-14.12Q126.80-15.59 126.04-16.46Q125.29-17.34 123.67-17.34L123.67-17.34Q122.25-17.34 121.44-16.66Q120.63-15.98 120.63-14.79L120.63-14.79L114.98-14.79Q114.98-16.62 116.11-18.18Q117.25-19.75 119.32-20.63Q121.39-21.52 123.96-21.52L123.96-21.52Q127.87-21.52 130.17-19.56Q132.46-17.60 132.46-14.04L132.46-14.04L132.46-4.88Q132.48-1.88 133.30-0.33L133.30-0.33L133.30 0ZM122.93-3.93L122.93-3.93Q124.18-3.93 125.23-4.48Q126.29-5.04 126.80-5.98L126.80-5.98L126.80-9.61L124.69-9.61Q120.45-9.61 120.18-6.68L120.18-6.68L120.16-6.35Q120.16-5.29 120.90-4.61Q121.64-3.93 122.93-3.93ZM148.75-21.27L148.67-15.84Q147.52-16.00 146.64-16.00L146.64-16.00Q143.44-16.00 142.44-13.83L142.44-13.83L142.44 0L136.80 0L136.80-21.13L142.13-21.13L142.29-18.61Q143.98-21.52 146.99-21.52L146.99-21.52Q147.93-21.52 148.75-21.27L148.75-21.27ZM180.37-10.66L180.37-10.37Q180.37-5.49 178.15-2.55Q175.94 0.39 172.17 0.39L172.17 0.39Q168.96 0.39 166.99-1.84L166.99-1.84L166.99 8.13L161.35 8.13L161.35-21.13L166.58-21.13L166.78-19.06Q168.83-21.52 172.13-21.52L172.13-21.52Q176.04-21.52 178.20-18.63Q180.37-15.74 180.37-10.66L180.37-10.66ZM174.73-10.78L174.73-10.78Q174.73-13.73 173.68-15.33Q172.64-16.93 170.64-16.93L170.64-16.93Q167.99-16.93 166.99-14.90L166.99-14.90L166.99-6.25Q168.03-4.16 170.68-4.16L170.68-4.16Q174.73-4.16 174.73-10.78ZM189.82-30L189.82 0L184.16 0L184.16-30L189.82-30ZM207.29 0L207.13-2.15Q205.04 0.39 201.35 0.39L201.35 0.39Q197.95 0.39 196.16-1.56Q194.38-3.52 194.34-7.29L194.34-7.29L194.34-21.13L199.98-21.13L199.98-7.48Q199.98-4.18 202.99-4.18L202.99-4.18Q205.86-4.18 206.93-6.17L206.93-6.17L206.93-21.13L212.60-21.13L212.60 0L207.29 0ZM216.04-10.49L216.04-10.72Q216.04-15.59 218.35-18.55Q220.66-21.52 224.59-21.52L224.59-21.52Q228.07-21.52 230-19.14L230-19.14L230.23-21.13L235.35-21.13L235.35-0.70Q235.35 2.07 234.09 4.12Q232.83 6.17 230.55 7.25Q228.26 8.32 225.20 8.32L225.20 8.32Q222.87 8.32 220.66 7.39Q218.46 6.46 217.32 5L217.32 5L219.82 1.56Q221.93 3.93 224.94 3.93L224.94 3.93Q227.19 3.93 228.44 2.72Q229.69 1.52 229.69-0.68L229.69-0.68L229.69-1.82Q227.73 0.39 224.55 0.39L224.55 0.39Q220.74 0.39 218.39-2.59Q216.04-5.57 216.04-10.49L216.04-10.49ZM221.68-10.31L221.68-10.31Q221.68-7.44 222.83-5.81Q223.98-4.18 226.00-4.18L226.00-4.18Q228.57-4.18 229.69-6.11L229.69-6.11L229.69-15Q228.55-16.93 226.04-16.93L226.04-16.93Q224.00-16.93 222.84-15.27Q221.68-13.61 221.68-10.31ZM245.64-21.13L245.64 0L239.98 0L239.98-21.13L245.64-21.13ZM239.65-26.60L239.65-26.60Q239.65-27.87 240.50-28.69Q241.35-29.51 242.81-29.51L242.81-29.51Q244.26-29.51 245.12-28.69Q245.98-27.87 245.98-26.60L245.98-26.60Q245.98-25.31 245.11-24.49Q244.24-23.67 242.81-23.67Q241.39-23.67 240.52-24.49Q239.65-25.31 239.65-26.60ZM250.18-21.13L255.49-21.13L255.66-18.69Q257.93-21.52 261.74-21.52L261.74-21.52Q265.10-21.52 266.74-19.55Q268.38-17.58 268.42-13.65L268.42-13.65L268.42 0L262.77 0L262.77-13.52Q262.77-15.31 261.99-16.12Q261.21-16.93 259.39-16.93L259.39-16.93Q257.01-16.93 255.82-14.90L255.82-14.90L255.82 0L250.18 0L250.18-21.13ZM300.61 0L294.90 0Q294.51-0.76 294.34-1.89L294.34-1.89Q292.29 0.39 289.00 0.39L289.00 0.39Q285.90 0.39 283.86-1.41Q281.82-3.20 281.82-5.94L281.82-5.94Q281.82-9.30 284.31-11.09Q286.80-12.89 291.50-12.91L291.50-12.91L294.10-12.91L294.10-14.12Q294.10-15.59 293.35-16.46Q292.60-17.34 290.98-17.34L290.98-17.34Q289.55-17.34 288.74-16.66Q287.93-15.98 287.93-14.79L287.93-14.79L282.29-14.79Q282.29-16.62 283.42-18.18Q284.55-19.75 286.62-20.63Q288.69-21.52 291.27-21.52L291.27-21.52Q295.18-21.52 297.47-19.56Q299.77-17.60 299.77-14.04L299.77-14.04L299.77-4.88Q299.79-1.88 300.61-0.33L300.61-0.33L300.61 0ZM290.23-3.93L290.23-3.93Q291.48-3.93 292.54-4.48Q293.59-5.04 294.10-5.98L294.10-5.98L294.10-9.61L291.99-9.61Q287.75-9.61 287.48-6.68L287.48-6.68L287.46-6.35Q287.46-5.29 288.20-4.61Q288.95-3.93 290.23-3.93ZM316.05-21.27L315.98-15.84Q314.82-16.00 313.95-16.00L313.95-16.00Q310.74-16.00 309.75-13.83L309.75-13.83L309.75 0L304.10 0L304.10-21.13L309.43-21.13L309.59-18.61Q311.29-21.52 314.30-21.52L314.30-21.52Q315.23-21.52 316.05-21.27L316.05-21.27ZM327.48-4.16L327.48-4.16Q329.04-4.16 330.02-5.02Q331.00-5.88 331.04-7.30L331.04-7.30L336.33-7.30Q336.31-5.16 335.16-3.37Q334.00-1.58 332.00-0.60Q330 0.39 327.58 0.39L327.58 0.39Q323.05 0.39 320.43-2.49Q317.81-5.37 317.81-10.45L317.81-10.45L317.81-10.82Q317.81-15.70 320.41-18.61Q323.01-21.52 327.54-21.52L327.54-21.52Q331.50-21.52 333.90-19.27Q336.29-17.01 336.33-13.26L336.33-13.26L331.04-13.26Q331.00-14.90 330.02-15.93Q329.04-16.95 327.44-16.95L327.44-16.95Q325.47-16.95 324.46-15.52Q323.46-14.08 323.46-10.86L323.46-10.86L323.46-10.27Q323.46-7.01 324.45-5.59Q325.45-4.16 327.48-4.16ZM345.06-30L345.06-18.83Q347.30-21.52 350.70-21.52L350.70-21.52Q357.58-21.52 357.68-13.54L357.68-13.54L357.68 0L352.03 0L352.03-13.38Q352.03-15.20 351.25-16.06Q350.47-16.93 348.65-16.93L348.65-16.93Q346.17-16.93 345.06-15.02L345.06-15.02L345.06 0L339.41 0L339.41-30L345.06-30ZM367.89-21.13L367.89 0L362.23 0L362.23-21.13L367.89-21.13ZM361.89-26.60L361.89-26.60Q361.89-27.87 362.74-28.69Q363.59-29.51 365.06-29.51L365.06-29.51Q366.50-29.51 367.36-28.69Q368.22-27.87 368.22-26.60L368.22-26.60Q368.22-25.31 367.35-24.49Q366.48-23.67 365.06-23.67Q363.63-23.67 362.76-24.49Q361.89-25.31 361.89-26.60ZM373.65-26.33L379.30-26.33L379.30-21.13L382.91-21.13L382.91-16.99L379.30-16.99L379.30-6.45Q379.30-5.27 379.75-4.77Q380.20-4.26 381.46-4.26L381.46-4.26Q382.40-4.26 383.13-4.39L383.13-4.39L383.13-0.12Q381.46 0.39 379.71 0.39L379.71 0.39Q373.77 0.39 373.65-5.61L373.65-5.61L373.65-16.99L370.57-16.99L370.57-21.13L373.65-21.13L373.65-26.33ZM395.78 0.39L395.78 0.39Q391.13 0.39 388.21-2.46Q385.29-5.31 385.29-10.06L385.29-10.06L385.29-10.61Q385.29-13.79 386.52-16.30Q387.75-18.81 390.01-20.17Q392.27-21.52 395.16-21.52L395.16-21.52Q399.49-21.52 401.98-18.79Q404.47-16.05 404.47-11.04L404.47-11.04L404.47-8.73L391.02-8.73Q391.29-6.66 392.67-5.41Q394.04-4.16 396.15-4.16L396.15-4.16Q399.41-4.16 401.25-6.52L401.25-6.52L404.02-3.42Q402.75-1.62 400.59-0.62Q398.42 0.39 395.78 0.39ZM395.14-16.95L395.14-16.95Q393.46-16.95 392.41-15.82Q391.37-14.69 391.07-12.58L391.07-12.58L398.93-12.58L398.93-13.03Q398.89-14.90 397.91-15.93Q396.93-16.95 395.14-16.95ZM416.46-4.16L416.46-4.16Q418.03-4.16 419.00-5.02Q419.98-5.88 420.02-7.30L420.02-7.30L425.31-7.30Q425.29-5.16 424.14-3.37Q422.99-1.58 420.99-0.60Q418.98 0.39 416.56 0.39L416.56 0.39Q412.03 0.39 409.41-2.49Q406.80-5.37 406.80-10.45L406.80-10.45L406.80-10.82Q406.80-15.70 409.39-18.61Q411.99-21.52 416.52-21.52L416.52-21.52Q420.49-21.52 422.88-19.27Q425.27-17.01 425.31-13.26L425.31-13.26L420.02-13.26Q419.98-14.90 419.00-15.93Q418.03-16.95 416.43-16.95L416.43-16.95Q414.45-16.95 413.45-15.52Q412.44-14.08 412.44-10.86L412.44-10.86L412.44-10.27Q412.44-7.01 413.44-5.59Q414.43-4.16 416.46-4.16ZM429.65-26.33L435.29-26.33L435.29-21.13L438.91-21.13L438.91-16.99L435.29-16.99L435.29-6.45Q435.29-5.27 435.74-4.77Q436.19-4.26 437.46-4.26L437.46-4.26Q438.40-4.26 439.12-4.39L439.12-4.39L439.12-0.12Q437.46 0.39 435.70 0.39L435.70 0.39Q429.77 0.39 429.65-5.61L429.65-5.61L429.65-16.99L426.56-16.99L426.56-21.13L429.65-21.13L429.65-26.33ZM454.86 0L454.71-2.15Q452.62 0.39 448.93 0.39L448.93 0.39Q445.53 0.39 443.74-1.56Q441.95-3.52 441.91-7.29L441.91-7.29L441.91-21.13L447.56-21.13L447.56-7.48Q447.56-4.18 450.57-4.18L450.57-4.18Q453.44-4.18 454.51-6.17L454.51-6.17L454.51-21.13L460.18-21.13L460.18 0L454.86 0ZM476.39-21.27L476.31-15.84Q475.16-16.00 474.28-16.00L474.28-16.00Q471.07-16.00 470.08-13.83L470.08-13.83L470.08 0L464.43 0L464.43-21.13L469.77-21.13L469.92-18.61Q471.62-21.52 474.63-21.52L474.63-21.52Q475.57-21.52 476.39-21.27L476.39-21.27ZM488.75 0.39L488.75 0.39Q484.10 0.39 481.18-2.46Q478.26-5.31 478.26-10.06L478.26-10.06L478.26-10.61Q478.26-13.79 479.49-16.30Q480.72-18.81 482.98-20.17Q485.23-21.52 488.13-21.52L488.13-21.52Q492.46-21.52 494.95-18.79Q497.44-16.05 497.44-11.04L497.44-11.04L497.44-8.73L483.98-8.73Q484.26-6.66 485.63-5.41Q487.01-4.16 489.12-4.16L489.12-4.16Q492.38-4.16 494.22-6.52L494.22-6.52L496.99-3.42Q495.72-1.62 493.55-0.62Q491.39 0.39 488.75 0.39ZM488.11-16.95L488.11-16.95Q486.43-16.95 485.38-15.82Q484.34-14.69 484.04-12.58L484.04-12.58L491.89-12.58L491.89-13.03Q491.86-14.90 490.88-15.93Q489.90-16.95 488.11-16.95Z" transform="translate(660, 535)" fill="#ffffff" /><circle cx="620" cy="605" r="8" fill="#e94560" /><path d="M8.77-28.44L8.77 0L2.91 0L2.91-28.44L8.77-28.44ZM13.71-21.13L19.02-21.13L19.20-18.69Q21.46-21.52 25.27-21.52L25.27-21.52Q28.63-21.52 30.27-19.55Q31.91-17.58 31.95-13.65L31.95-13.65L31.95 0L26.31 0L26.31-13.52Q26.31-15.31 25.53-16.12Q24.75-16.93 22.93-16.93L22.93-16.93Q20.55-16.93 19.36-14.90L19.36-14.90L19.36 0L13.71 0L13.71-21.13ZM47.68-5.84L47.68-5.84Q47.68-6.88 46.65-7.47Q45.63-8.07 43.36-8.54L43.36-8.54Q35.82-10.12 35.82-14.94L35.82-14.94Q35.82-17.75 38.15-19.64Q40.49-21.52 44.26-21.52L44.26-21.52Q48.28-21.52 50.69-19.63Q53.11-17.73 53.11-14.71L53.11-14.71L47.46-14.71Q47.46-15.92 46.68-16.71Q45.90-17.50 44.24-17.50L44.24-17.50Q42.81-17.50 42.03-16.86Q41.25-16.21 41.25-15.21L41.25-15.21Q41.25-14.28 42.14-13.70Q43.03-13.13 45.14-12.71Q47.25-12.29 48.69-11.76L48.69-11.76Q53.16-10.12 53.16-6.07L53.16-6.07Q53.16-3.18 50.68-1.40Q48.20 0.39 44.28 0.39L44.28 0.39Q41.62 0.39 39.56-0.56Q37.50-1.50 36.33-3.15Q35.16-4.80 35.16-6.72L35.16-6.72L40.51-6.72Q40.59-5.21 41.62-4.41Q42.66-3.61 44.39-3.61L44.39-3.61Q46.02-3.61 46.85-4.23Q47.68-4.84 47.68-5.84ZM57.91-26.33L63.55-26.33L63.55-21.13L67.17-21.13L67.17-16.99L63.55-16.99L63.55-6.45Q63.55-5.27 64.00-4.77Q64.45-4.26 65.72-4.26L65.72-4.26Q66.66-4.26 67.38-4.39L67.38-4.39L67.38-0.12Q65.72 0.39 63.96 0.39L63.96 0.39Q58.03 0.39 57.91-5.61L57.91-5.61L57.91-16.99L54.82-16.99L54.82-21.13L57.91-21.13L57.91-26.33ZM88.26 0L82.56 0Q82.17-0.76 81.99-1.89L81.99-1.89Q79.94 0.39 76.66 0.39L76.66 0.39Q73.55 0.39 71.51-1.41Q69.47-3.20 69.47-5.94L69.47-5.94Q69.47-9.30 71.96-11.09Q74.45-12.89 79.16-12.91L79.16-12.91L81.76-12.91L81.76-14.12Q81.76-15.59 81.01-16.46Q80.25-17.34 78.63-17.34L78.63-17.34Q77.21-17.34 76.40-16.66Q75.59-15.98 75.59-14.79L75.59-14.79L69.94-14.79Q69.94-16.62 71.07-18.18Q72.21-19.75 74.28-20.63Q76.35-21.52 78.93-21.52L78.93-21.52Q82.83-21.52 85.13-19.56Q87.42-17.60 87.42-14.04L87.42-14.04L87.42-4.88Q87.44-1.88 88.26-0.33L88.26-0.33L88.26 0ZM77.89-3.93L77.89-3.93Q79.14-3.93 80.20-4.48Q81.25-5.04 81.76-5.98L81.76-5.98L81.76-9.61L79.65-9.61Q75.41-9.61 75.14-6.68L75.14-6.68L75.12-6.35Q75.12-5.29 75.86-4.61Q76.60-3.93 77.89-3.93ZM97.71-30L97.71 0L92.05 0L92.05-30L97.71-30ZM108.32-30L108.32 0L102.66 0L102.66-30L108.32-30ZM126.91-21.13L130.84-6.89L134.77-21.13L140.66-21.13L133.54 0L128.14 0L121.02-21.13L126.91-21.13ZM149.10-21.13L149.10 0L143.44 0L143.44-21.13L149.10-21.13ZM143.11-26.60L143.11-26.60Q143.11-27.87 143.96-28.69Q144.80-29.51 146.27-29.51L146.27-29.51Q147.71-29.51 148.57-28.69Q149.43-27.87 149.43-26.60L149.43-26.60Q149.43-25.31 148.56-24.49Q147.70-23.67 146.27-23.67Q144.84-23.67 143.97-24.49Q143.11-25.31 143.11-26.60ZM171.70 0L166.00 0Q165.61-0.76 165.43-1.89L165.43-1.89Q163.38 0.39 160.10 0.39L160.10 0.39Q156.99 0.39 154.95-1.41Q152.91-3.20 152.91-5.94L152.91-5.94Q152.91-9.30 155.40-11.09Q157.89-12.89 162.60-12.91L162.60-12.91L165.20-12.91L165.20-14.12Q165.20-15.59 164.44-16.46Q163.69-17.34 162.07-17.34L162.07-17.34Q160.64-17.34 159.83-16.66Q159.02-15.98 159.02-14.79L159.02-14.79L153.38-14.79Q153.38-16.62 154.51-18.18Q155.64-19.75 157.71-20.63Q159.79-21.52 162.36-21.52L162.36-21.52Q166.27-21.52 168.56-19.56Q170.86-17.60 170.86-14.04L170.86-14.04L170.86-4.88Q170.88-1.88 171.70-0.33L171.70-0.33L171.70 0ZM161.33-3.93L161.33-3.93Q162.58-3.93 163.63-4.48Q164.69-5.04 165.20-5.98L165.20-5.98L165.20-9.61L163.09-9.61Q158.85-9.61 158.57-6.68L158.57-6.68L158.55-6.35Q158.55-5.29 159.30-4.61Q160.04-3.93 161.33-3.93ZM201.99-9.47L207.85-9.47Q207.52-4.88 204.46-2.25Q201.41 0.39 196.41 0.39L196.41 0.39Q190.94 0.39 187.80-3.29Q184.67-6.97 184.67-13.40L184.67-13.40L184.67-15.14Q184.67-19.24 186.11-22.36Q187.56-25.49 190.24-27.16Q192.93-28.83 196.48-28.83L196.48-28.83Q201.41-28.83 204.41-26.19Q207.42-23.55 207.89-18.79L207.89-18.79L202.03-18.79Q201.82-21.54 200.50-22.78Q199.18-24.02 196.48-24.02L196.48-24.02Q193.55-24.02 192.10-21.92Q190.64-19.82 190.61-15.41L190.61-15.41L190.61-13.26Q190.61-8.65 192.00-6.52Q193.40-4.39 196.41-4.39L196.41-4.39Q199.12-4.39 200.46-5.63Q201.80-6.88 201.99-9.47L201.99-9.47ZM217.29-30L217.29 0L211.62 0L211.62-30L217.29-30ZM239.88 0L234.18 0Q233.79-0.76 233.61-1.89L233.61-1.89Q231.56 0.39 228.28 0.39L228.28 0.39Q225.18 0.39 223.13-1.41Q221.09-3.20 221.09-5.94L221.09-5.94Q221.09-9.30 223.58-11.09Q226.07-12.89 230.78-12.91L230.78-12.91L233.38-12.91L233.38-14.12Q233.38-15.59 232.63-16.46Q231.88-17.34 230.25-17.34L230.25-17.34Q228.83-17.34 228.02-16.66Q227.21-15.98 227.21-14.79L227.21-14.79L221.56-14.79Q221.56-16.62 222.70-18.18Q223.83-19.75 225.90-20.63Q227.97-21.52 230.55-21.52L230.55-21.52Q234.45-21.52 236.75-19.56Q239.04-17.60 239.04-14.04L239.04-14.04L239.04-4.88Q239.06-1.88 239.88-0.33L239.88-0.33L239.88 0ZM229.51-3.93L229.51-3.93Q230.76-3.93 231.82-4.48Q232.87-5.04 233.38-5.98L233.38-5.98L233.38-9.61L231.27-9.61Q227.03-9.61 226.76-6.68L226.76-6.68L226.74-6.35Q226.74-5.29 227.48-4.61Q228.22-3.93 229.51-3.93ZM257.91-21.13L261.76-7.68L264.53-21.13L269.98-21.13L264.59 0L259.86 0L255.86-13.30L251.86 0L247.15 0L241.76-21.13L247.21-21.13L249.96-7.70L253.83-21.13L257.91-21.13ZM296.29-28.44L296.29 0L290.43 0L290.43-12.19L279.00-12.19L279.00 0L273.14 0L273.14-28.44L279.00-28.44L279.00-16.91L290.43-16.91L290.43-28.44L296.29-28.44ZM313.85 0L313.69-2.15Q311.60 0.39 307.91 0.39L307.91 0.39Q304.51 0.39 302.72-1.56Q300.94-3.52 300.90-7.29L300.90-7.29L300.90-21.13L306.54-21.13L306.54-7.48Q306.54-4.18 309.55-4.18L309.55-4.18Q312.42-4.18 313.50-6.17L313.50-6.17L313.50-21.13L319.16-21.13L319.16 0L313.85 0ZM342.46-10.68L342.46-10.37Q342.46-5.29 340.29-2.45Q338.13 0.39 334.24 0.39L334.24 0.39Q330.80 0.39 328.75-2.25L328.75-2.25L328.50 0L323.42 0L323.42-30L329.06-30L329.06-19.24Q331.02-21.52 334.20-21.52L334.20-21.52Q338.07-21.52 340.26-18.68Q342.46-15.84 342.46-10.68L342.46-10.68ZM336.82-10.78L336.82-10.78Q336.82-13.98 335.80-15.46Q334.79-16.93 332.77-16.93L332.77-16.93Q330.08-16.93 329.06-14.73L329.06-14.73L329.06-6.39Q330.10-4.16 332.81-4.16L332.81-4.16Q335.55-4.16 336.41-6.86L336.41-6.86Q336.82-8.14 336.82-10.78Z" transform="translate(660, 605)" fill="#ffffff" /><circle cx="620" cy="675" r="8" fill="#e94560" /><path d="M13.59 0L2.54 0L2.54-28.44L12.50-28.44Q17.68-28.44 20.35-26.46Q23.03-24.47 23.03-20.64L23.03-20.64Q23.03-18.55 21.95-16.96Q20.88-15.37 18.96-14.63L18.96-14.63Q21.15-14.08 22.41-12.42Q23.67-10.76 23.67-8.36L23.67-8.36Q23.67-4.26 21.05-2.15Q18.44-0.04 13.59 0L13.59 0ZM13.77-12.38L8.40-12.38L8.40-4.71L13.42-4.71Q15.49-4.71 16.65-5.69Q17.81-6.68 17.81-8.42L17.81-8.42Q17.81-12.32 13.77-12.38L13.77-12.38ZM8.40-23.69L8.40-16.52L12.73-16.52Q17.17-16.60 17.17-20.06L17.17-20.06Q17.17-21.99 16.04-22.84Q14.92-23.69 12.50-23.69L12.50-23.69L8.40-23.69ZM40.51 0L40.35-2.15Q38.26 0.39 34.57 0.39L34.57 0.39Q31.17 0.39 29.38-1.56Q27.60-3.52 27.56-7.29L27.56-7.29L27.56-21.13L33.20-21.13L33.20-7.48Q33.20-4.18 36.21-4.18L36.21-4.18Q39.08-4.18 40.16-6.17L40.16-6.17L40.16-21.13L45.82-21.13L45.82 0L40.51 0ZM56.04-21.13L56.04 0L50.37 0L50.37-21.13L56.04-21.13ZM50.04-26.60L50.04-26.60Q50.04-27.87 50.89-28.69Q51.74-29.51 53.20-29.51L53.20-29.51Q54.65-29.51 55.51-28.69Q56.37-27.87 56.37-26.60L56.37-26.60Q56.37-25.31 55.50-24.49Q54.63-23.67 53.20-23.67Q51.78-23.67 50.91-24.49Q50.04-25.31 50.04-26.60ZM66.64-30L66.64 0L60.98 0L60.98-30L66.64-30ZM72.40-26.33L78.05-26.33L78.05-21.13L81.66-21.13L81.66-16.99L78.05-16.99L78.05-6.45Q78.05-5.27 78.50-4.77Q78.95-4.26 80.21-4.26L80.21-4.26Q81.15-4.26 81.88-4.39L81.88-4.39L81.88-0.12Q80.21 0.39 78.46 0.39L78.46 0.39Q72.52 0.39 72.40-5.61L72.40-5.61L72.40-16.99L69.32-16.99L69.32-21.13L72.40-21.13L72.40-26.33ZM95.78-14.45L95.78-9.90L84.79-9.90L84.79-14.45L95.78-14.45ZM106.27-21.13L106.27 0L100.61 0L100.61-21.13L106.27-21.13ZM100.27-26.60L100.27-26.60Q100.27-27.87 101.12-28.69Q101.97-29.51 103.44-29.51L103.44-29.51Q104.88-29.51 105.74-28.69Q106.60-27.87 106.60-26.60L106.60-26.60Q106.60-25.31 105.73-24.49Q104.86-23.67 103.44-23.67Q102.01-23.67 101.14-24.49Q100.27-25.31 100.27-26.60ZM110.80-21.13L116.11-21.13L116.29-18.69Q118.55-21.52 122.36-21.52L122.36-21.52Q125.72-21.52 127.36-19.55Q129.00-17.58 129.04-13.65L129.04-13.65L129.04 0L123.40 0L123.40-13.52Q123.40-15.31 122.62-16.12Q121.84-16.93 120.02-16.93L120.02-16.93Q117.64-16.93 116.45-14.90L116.45-14.90L116.45 0L110.80 0L110.80-21.13ZM133.59-2.77L133.59-2.77Q133.59-4.12 134.50-4.96Q135.41-5.80 136.78-5.80L136.78-5.80Q138.16-5.80 139.07-4.96Q139.98-4.12 139.98-2.77L139.98-2.77Q139.98-1.45 139.08-0.62Q138.18 0.21 136.78 0.21L136.78 0.21Q135.39 0.21 134.49-0.62Q133.59-1.45 133.59-2.77ZM133.59-18.77L133.59-18.77Q133.59-20.12 134.50-20.96Q135.41-21.80 136.78-21.80L136.78-21.80Q138.16-21.80 139.07-20.96Q139.98-20.12 139.98-18.77L139.98-18.77Q139.98-17.44 139.08-16.61Q138.18-15.78 136.78-15.78L136.78-15.78Q135.39-15.78 134.49-16.61Q133.59-17.44 133.59-18.77ZM163.36-4.16L163.36-4.16Q164.92-4.16 165.90-5.02Q166.88-5.88 166.91-7.30L166.91-7.30L172.21-7.30Q172.19-5.16 171.04-3.37Q169.88-1.58 167.88-0.60Q165.88 0.39 163.46 0.39L163.46 0.39Q158.93 0.39 156.31-2.49Q153.69-5.37 153.69-10.45L153.69-10.45L153.69-10.82Q153.69-15.70 156.29-18.61Q158.89-21.52 163.42-21.52L163.42-21.52Q167.38-21.52 169.78-19.27Q172.17-17.01 172.21-13.26L172.21-13.26L166.91-13.26Q166.88-14.90 165.90-15.93Q164.92-16.95 163.32-16.95L163.32-16.95Q161.35-16.95 160.34-15.52Q159.34-14.08 159.34-10.86L159.34-10.86L159.34-10.27Q159.34-7.01 160.33-5.59Q161.33-4.16 163.36-4.16ZM174.55-10.51L174.55-10.76Q174.55-13.91 175.76-16.37Q176.97-18.83 179.25-20.18Q181.52-21.52 184.53-21.52L184.53-21.52Q188.81-21.52 191.51-18.91Q194.22-16.29 194.53-11.80L194.53-11.80L194.57-10.35Q194.57-5.49 191.86-2.55Q189.14 0.39 184.57 0.39Q180 0.39 177.28-2.54Q174.55-5.47 174.55-10.51L174.55-10.51ZM180.20-10.35L180.20-10.35Q180.20-7.34 181.33-5.75Q182.46-4.16 184.57-4.16L184.57-4.16Q186.62-4.16 187.77-5.73Q188.93-7.30 188.93-10.76L188.93-10.76Q188.93-13.71 187.77-15.33Q186.62-16.95 184.53-16.95L184.53-16.95Q182.46-16.95 181.33-15.34Q180.20-13.73 180.20-10.35ZM197.17-10.72L197.17-10.72Q197.17-15.66 199.38-18.59Q201.60-21.52 205.45-21.52L205.45-21.52Q208.54-21.52 210.55-19.22L210.55-19.22L210.55-30L216.21-30L216.21 0L211.11 0L210.84-2.25Q208.73 0.39 205.41 0.39L205.41 0.39Q201.68 0.39 199.42-2.55Q197.17-5.49 197.17-10.72ZM202.81-10.31L202.81-10.31Q202.81-7.34 203.85-5.76Q204.88-4.18 206.86-4.18L206.86-4.18Q209.47-4.18 210.55-6.39L210.55-6.39L210.55-14.73Q209.49-16.93 206.89-16.93L206.89-16.93Q202.81-16.93 202.81-10.31ZM226.54-21.13L226.54 0L220.88 0L220.88-21.13L226.54-21.13ZM220.55-26.60L220.55-26.60Q220.55-27.87 221.40-28.69Q222.25-29.51 223.71-29.51L223.71-29.51Q225.16-29.51 226.02-28.69Q226.88-27.87 226.88-26.60L226.88-26.60Q226.88-25.31 226.01-24.49Q225.14-23.67 223.71-23.67Q222.29-23.67 221.42-24.49Q220.55-25.31 220.55-26.60ZM231.07-21.13L236.39-21.13L236.56-18.69Q238.83-21.52 242.64-21.52L242.64-21.52Q246.00-21.52 247.64-19.55Q249.28-17.58 249.32-13.65L249.32-13.65L249.32 0L243.67 0L243.67-13.52Q243.67-15.31 242.89-16.12Q242.11-16.93 240.29-16.93L240.29-16.93Q237.91-16.93 236.72-14.90L236.72-14.90L236.72 0L231.07 0L231.07-21.13ZM252.77-10.49L252.77-10.72Q252.77-15.59 255.09-18.55Q257.40-21.52 261.33-21.52L261.33-21.52Q264.80-21.52 266.74-19.14L266.74-19.14L266.97-21.13L272.09-21.13L272.09-0.70Q272.09 2.07 270.83 4.12Q269.57 6.17 267.29 7.25Q265 8.32 261.93 8.32L261.93 8.32Q259.61 8.32 257.40 7.39Q255.20 6.46 254.06 5L254.06 5L256.56 1.56Q258.67 3.93 261.68 3.93L261.68 3.93Q263.93 3.93 265.18 2.72Q266.43 1.52 266.43-0.68L266.43-0.68L266.43-1.82Q264.47 0.39 261.29 0.39L261.29 0.39Q257.48 0.39 255.13-2.59Q252.77-5.57 252.77-10.49L252.77-10.49ZM258.42-10.31L258.42-10.31Q258.42-7.44 259.57-5.81Q260.72-4.18 262.73-4.18L262.73-4.18Q265.31-4.18 266.43-6.11L266.43-6.11L266.43-15Q265.29-16.93 262.77-16.93L262.77-16.93Q260.74-16.93 259.58-15.27Q258.42-13.61 258.42-10.31ZM287.40-14.45L287.40-9.90L276.41-9.90L276.41-14.45L287.40-14.45ZM309.88 0L304.18 0Q303.79-0.76 303.61-1.89L303.61-1.89Q301.56 0.39 298.28 0.39L298.28 0.39Q295.18 0.39 293.13-1.41Q291.09-3.20 291.09-5.94L291.09-5.94Q291.09-9.30 293.58-11.09Q296.07-12.89 300.78-12.91L300.78-12.91L303.38-12.91L303.38-14.12Q303.38-15.59 302.63-16.46Q301.88-17.34 300.25-17.34L300.25-17.34Q298.83-17.34 298.02-16.66Q297.21-15.98 297.21-14.79L297.21-14.79L291.56-14.79Q291.56-16.62 292.70-18.18Q293.83-19.75 295.90-20.63Q297.97-21.52 300.55-21.52L300.55-21.52Q304.45-21.52 306.75-19.56Q309.04-17.60 309.04-14.04L309.04-14.04L309.04-4.88Q309.06-1.88 309.88-0.33L309.88-0.33L309.88 0ZM299.51-3.93L299.51-3.93Q300.76-3.93 301.82-4.48Q302.87-5.04 303.38-5.98L303.38-5.98L303.38-9.61L301.27-9.61Q297.03-9.61 296.76-6.68L296.76-6.68L296.74-6.35Q296.74-5.29 297.48-4.61Q298.22-3.93 299.51-3.93ZM312.56-10.49L312.56-10.72Q312.56-15.59 314.87-18.55Q317.19-21.52 321.11-21.52L321.11-21.52Q324.59-21.52 326.52-19.14L326.52-19.14L326.76-21.13L331.88-21.13L331.88-0.70Q331.88 2.07 330.62 4.12Q329.36 6.17 327.07 7.25Q324.79 8.32 321.72 8.32L321.72 8.32Q319.39 8.32 317.19 7.39Q314.98 6.46 313.85 5L313.85 5L316.35 1.56Q318.46 3.93 321.46 3.93L321.46 3.93Q323.71 3.93 324.96 2.72Q326.21 1.52 326.21-0.68L326.21-0.68L326.21-1.82Q324.26 0.39 321.07 0.39L321.07 0.39Q317.27 0.39 314.91-2.59Q312.56-5.57 312.56-10.49L312.56-10.49ZM318.20-10.31L318.20-10.31Q318.20-7.44 319.36-5.81Q320.51-4.18 322.52-4.18L322.52-4.18Q325.10-4.18 326.21-6.11L326.21-6.11L326.21-15Q325.08-16.93 322.56-16.93L322.56-16.93Q320.53-16.93 319.37-15.27Q318.20-13.61 318.20-10.31ZM345.94 0.39L345.94 0.39Q341.29 0.39 338.37-2.46Q335.45-5.31 335.45-10.06L335.45-10.06L335.45-10.61Q335.45-13.79 336.68-16.30Q337.91-18.81 340.17-20.17Q342.42-21.52 345.31-21.52L345.31-21.52Q349.65-21.52 352.14-18.79Q354.63-16.05 354.63-11.04L354.63-11.04L354.63-8.73L341.17-8.73Q341.45-6.66 342.82-5.41Q344.20-4.16 346.31-4.16L346.31-4.16Q349.57-4.16 351.41-6.52L351.41-6.52L354.18-3.42Q352.91-1.62 350.74-0.62Q348.57 0.39 345.94 0.39ZM345.29-16.95L345.29-16.95Q343.61-16.95 342.57-15.82Q341.52-14.69 341.23-12.58L341.23-12.58L349.08-12.58L349.08-13.03Q349.04-14.90 348.07-15.93Q347.09-16.95 345.29-16.95ZM357.71-21.13L363.03-21.13L363.20-18.69Q365.47-21.52 369.28-21.52L369.28-21.52Q372.64-21.52 374.28-19.55Q375.92-17.58 375.96-13.65L375.96-13.65L375.96 0L370.31 0L370.31-13.52Q370.31-15.31 369.53-16.12Q368.75-16.93 366.93-16.93L366.93-16.93Q364.55-16.93 363.36-14.90L363.36-14.90L363.36 0L357.71 0L357.71-21.13ZM381.35-26.33L386.99-26.33L386.99-21.13L390.61-21.13L390.61-16.99L386.99-16.99L386.99-6.45Q386.99-5.27 387.44-4.77Q387.89-4.26 389.16-4.26L389.16-4.26Q390.10-4.26 390.82-4.39L390.82-4.39L390.82-0.12Q389.16 0.39 387.40 0.39L387.40 0.39Q381.46 0.39 381.35-5.61L381.35-5.61L381.35-16.99L378.26-16.99L378.26-21.13L381.35-21.13L381.35-26.33ZM395.21 7.13L395.21 7.13L392.27 5.59L392.97 4.32Q394.28 1.93 394.32-0.43L394.32-0.43L394.32-4.80L399.08-4.80L399.06-0.90Q399.04 1.27 397.97 3.48Q396.89 5.68 395.21 7.13ZM422.27-4.16L422.27-4.16Q423.83-4.16 424.80-5.02Q425.78-5.88 425.82-7.30L425.82-7.30L431.11-7.30Q431.09-5.16 429.94-3.37Q428.79-1.58 426.79-0.60Q424.79 0.39 422.36 0.39L422.36 0.39Q417.83 0.39 415.21-2.49Q412.60-5.37 412.60-10.45L412.60-10.45L412.60-10.82Q412.60-15.70 415.20-18.61Q417.79-21.52 422.32-21.52L422.32-21.52Q426.29-21.52 428.68-19.27Q431.07-17.01 431.11-13.26L431.11-13.26L425.82-13.26Q425.78-14.90 424.80-15.93Q423.83-16.95 422.23-16.95L422.23-16.95Q420.25-16.95 419.25-15.52Q418.24-14.08 418.24-10.86L418.24-10.86L418.24-10.27Q418.24-7.01 419.24-5.59Q420.23-4.16 422.27-4.16ZM452.29 0L446.58 0Q446.19-0.76 446.02-1.89L446.02-1.89Q443.96 0.39 440.68 0.39L440.68 0.39Q437.58 0.39 435.54-1.41Q433.50-3.20 433.50-5.94L433.50-5.94Q433.50-9.30 435.99-11.09Q438.48-12.89 443.18-12.91L443.18-12.91L445.78-12.91L445.78-14.12Q445.78-15.59 445.03-16.46Q444.28-17.34 442.66-17.34L442.66-17.34Q441.23-17.34 440.42-16.66Q439.61-15.98 439.61-14.79L439.61-14.79L433.96-14.79Q433.96-16.62 435.10-18.18Q436.23-19.75 438.30-20.63Q440.37-21.52 442.95-21.52L442.95-21.52Q446.86-21.52 449.15-19.56Q451.45-17.60 451.45-14.04L451.45-14.04L451.45-4.88Q451.46-1.88 452.29-0.33L452.29-0.33L452.29 0ZM441.91-3.93L441.91-3.93Q443.16-3.93 444.22-4.48Q445.27-5.04 445.78-5.98L445.78-5.98L445.78-9.61L443.67-9.61Q439.43-9.61 439.16-6.68L439.16-6.68L439.14-6.35Q439.14-5.29 439.88-4.61Q440.63-3.93 441.91-3.93ZM455.66-21.13L460.98-21.13L461.15-18.69Q463.42-21.52 467.23-21.52L467.23-21.52Q470.59-21.52 472.23-19.55Q473.87-17.58 473.91-13.65L473.91-13.65L473.91 0L468.26 0L468.26-13.52Q468.26-15.31 467.48-16.12Q466.70-16.93 464.88-16.93L464.88-16.93Q462.50-16.93 461.31-14.90L461.31-14.90L461.31 0L455.66 0L455.66-21.13ZM482.17-21.13L486.09-6.89L490.02-21.13L495.92-21.13L488.79 0L483.40 0L476.27-21.13L482.17-21.13ZM516.35 0L510.64 0Q510.25-0.76 510.08-1.89L510.08-1.89Q508.03 0.39 504.75 0.39L504.75 0.39Q501.64 0.39 499.60-1.41Q497.56-3.20 497.56-5.94L497.56-5.94Q497.56-9.30 500.05-11.09Q502.54-12.89 507.25-12.91L507.25-12.91L509.84-12.91L509.84-14.12Q509.84-15.59 509.09-16.46Q508.34-17.34 506.72-17.34L506.72-17.34Q505.29-17.34 504.48-16.66Q503.67-15.98 503.67-14.79L503.67-14.79L498.03-14.79Q498.03-16.62 499.16-18.18Q500.29-19.75 502.36-20.63Q504.43-21.52 507.01-21.52L507.01-21.52Q510.92-21.52 513.21-19.56Q515.51-17.60 515.51-14.04L515.51-14.04L515.51-4.88Q515.53-1.88 516.35-0.33L516.35-0.33L516.35 0ZM505.98-3.93L505.98-3.93Q507.23-3.93 508.28-4.48Q509.34-5.04 509.84-5.98L509.84-5.98L509.84-9.61L507.73-9.61Q503.50-9.61 503.22-6.68L503.22-6.68L503.20-6.35Q503.20-5.29 503.95-4.61Q504.69-3.93 505.98-3.93ZM531.29-5.84L531.29-5.84Q531.29-6.88 530.26-7.47Q529.24-8.07 526.97-8.54L526.97-8.54Q519.43-10.12 519.43-14.94L519.43-14.94Q519.43-17.75 521.77-19.64Q524.10-21.52 527.87-21.52L527.87-21.52Q531.89-21.52 534.31-19.63Q536.72-17.73 536.72-14.71L536.72-14.71L531.07-14.71Q531.07-15.92 530.29-16.71Q529.51-17.50 527.85-17.50L527.85-17.50Q526.43-17.50 525.64-16.86Q524.86-16.21 524.86-15.21L524.86-15.21Q524.86-14.28 525.75-13.70Q526.64-13.13 528.75-12.71Q530.86-12.29 532.30-11.76L532.30-11.76Q536.78-10.12 536.78-6.07L536.78-6.07Q536.78-3.18 534.30-1.40Q531.82 0.39 527.89 0.39L527.89 0.39Q525.23 0.39 523.17-0.56Q521.11-1.50 519.94-3.15Q518.77-4.80 518.77-6.72L518.77-6.72L524.12-6.72Q524.20-5.21 525.23-4.41Q526.27-3.61 528.01-3.61L528.01-3.61Q529.63-3.61 530.46-4.23Q531.29-4.84 531.29-5.84ZM541.88 7.13L541.88 7.13L538.93 5.59L539.63 4.32Q540.94 1.93 540.98-0.43L540.98-0.43L540.98-4.80L545.74-4.80L545.72-0.90Q545.70 1.27 544.63 3.48Q543.55 5.68 541.88 7.13ZM568.93-4.16L568.93-4.16Q570.49-4.16 571.46-5.02Q572.44-5.88 572.48-7.30L572.48-7.30L577.77-7.30Q577.75-5.16 576.60-3.37Q575.45-1.58 573.45-0.60Q571.45 0.39 569.02 0.39L569.02 0.39Q564.49 0.39 561.88-2.49Q559.26-5.37 559.26-10.45L559.26-10.45L559.26-10.82Q559.26-15.70 561.86-18.61Q564.45-21.52 568.98-21.52L568.98-21.52Q572.95-21.52 575.34-19.27Q577.73-17.01 577.77-13.26L577.77-13.26L572.48-13.26Q572.44-14.90 571.46-15.93Q570.49-16.95 568.89-16.95L568.89-16.95Q566.91-16.95 565.91-15.52Q564.90-14.08 564.90-10.86L564.90-10.86L564.90-10.27Q564.90-7.01 565.90-5.59Q566.89-4.16 568.93-4.16ZM580.12-10.51L580.12-10.76Q580.12-13.91 581.33-16.37Q582.54-18.83 584.81-20.18Q587.09-21.52 590.10-21.52L590.10-21.52Q594.38-21.52 597.08-18.91Q599.79-16.29 600.10-11.80L600.10-11.80L600.14-10.35Q600.14-5.49 597.42-2.55Q594.71 0.39 590.14 0.39Q585.57 0.39 582.84-2.54Q580.12-5.47 580.12-10.51L580.12-10.51ZM585.76-10.35L585.76-10.35Q585.76-7.34 586.89-5.75Q588.03-4.16 590.14-4.16L590.14-4.16Q592.19-4.16 593.34-5.73Q594.49-7.30 594.49-10.76L594.49-10.76Q594.49-13.71 593.34-15.33Q592.19-16.95 590.10-16.95L590.10-16.95Q588.03-16.95 586.89-15.34Q585.76-13.73 585.76-10.35ZM602.73-10.72L602.73-10.72Q602.73-15.66 604.95-18.59Q607.17-21.52 611.02-21.52L611.02-21.52Q614.10-21.52 616.11-19.22L616.11-19.22L616.11-30L621.78-30L621.78 0L616.68 0L616.41-2.25Q614.30 0.39 610.98 0.39L610.98 0.39Q607.25 0.39 604.99-2.55Q602.73-5.49 602.73-10.72ZM608.38-10.31L608.38-10.31Q608.38-7.34 609.41-5.76Q610.45-4.18 612.42-4.18L612.42-4.18Q615.04-4.18 616.11-6.39L616.11-6.39L616.11-14.73Q615.06-16.93 612.46-16.93L612.46-16.93Q608.38-16.93 608.38-10.31ZM635.88 0.39L635.88 0.39Q631.23 0.39 628.31-2.46Q625.39-5.31 625.39-10.06L625.39-10.06L625.39-10.61Q625.39-13.79 626.62-16.30Q627.85-18.81 630.11-20.17Q632.36-21.52 635.25-21.52L635.25-21.52Q639.59-21.52 642.08-18.79Q644.57-16.05 644.57-11.04L644.57-11.04L644.57-8.73L631.11-8.73Q631.39-6.66 632.76-5.41Q634.14-4.16 636.25-4.16L636.25-4.16Q639.51-4.16 641.35-6.52L641.35-6.52L644.12-3.42Q642.85-1.62 640.68-0.62Q638.52 0.39 635.88 0.39ZM635.23-16.95L635.23-16.95Q633.55-16.95 632.51-15.82Q631.46-14.69 631.17-12.58L631.17-12.58L639.02-12.58L639.02-13.03Q638.98-14.90 638.01-15.93Q637.03-16.95 635.23-16.95ZM659.22-5.84L659.22-5.84Q659.22-6.88 658.19-7.47Q657.17-8.07 654.90-8.54L654.90-8.54Q647.36-10.12 647.36-14.94L647.36-14.94Q647.36-17.75 649.70-19.64Q652.03-21.52 655.80-21.52L655.80-21.52Q659.82-21.52 662.24-19.63Q664.65-17.73 664.65-14.71L664.65-14.71L659.00-14.71Q659.00-15.92 658.22-16.71Q657.44-17.50 655.78-17.50L655.78-17.50Q654.36-17.50 653.57-16.86Q652.79-16.21 652.79-15.21L652.79-15.21Q652.79-14.28 653.68-13.70Q654.57-13.13 656.68-12.71Q658.79-12.29 660.23-11.76L660.23-11.76Q664.71-10.12 664.71-6.07L664.71-6.07Q664.71-3.18 662.23-1.40Q659.75 0.39 655.82 0.39L655.82 0.39Q653.16 0.39 651.10-0.56Q649.04-1.50 647.87-3.15Q646.70-4.80 646.70-6.72L646.70-6.72L652.05-6.72Q652.13-5.21 653.16-4.41Q654.20-3.61 655.94-3.61L655.94-3.61Q657.56-3.61 658.39-4.23Q659.22-4.84 659.22-5.84ZM678.07 0.39L678.07 0.39Q673.42 0.39 670.50-2.46Q667.58-5.31 667.58-10.06L667.58-10.06L667.58-10.61Q667.58-13.79 668.81-16.30Q670.04-18.81 672.29-20.17Q674.55-21.52 677.44-21.52L677.44-21.52Q681.78-21.52 684.27-18.79Q686.76-16.05 686.76-11.04L686.76-11.04L686.76-8.73L673.30-8.73Q673.57-6.66 674.95-5.41Q676.33-4.16 678.44-4.16L678.44-4.16Q681.70-4.16 683.54-6.52L683.54-6.52L686.31-3.42Q685.04-1.62 682.87-0.62Q680.70 0.39 678.07 0.39ZM677.42-16.95L677.42-16.95Q675.74-16.95 674.70-15.82Q673.65-14.69 673.36-12.58L673.36-12.58L681.21-12.58L681.21-13.03Q681.17-14.90 680.20-15.93Q679.22-16.95 677.42-16.95ZM701.41-5.84L701.41-5.84Q701.41-6.88 700.38-7.47Q699.36-8.07 697.09-8.54L697.09-8.54Q689.55-10.12 689.55-14.94L689.55-14.94Q689.55-17.75 691.88-19.64Q694.22-21.52 697.99-21.52L697.99-21.52Q702.01-21.52 704.42-19.63Q706.84-17.73 706.84-14.71L706.84-14.71L701.19-14.71Q701.19-15.92 700.41-16.71Q699.63-17.50 697.97-17.50L697.97-17.50Q696.54-17.50 695.76-16.86Q694.98-16.21 694.98-15.21L694.98-15.21Q694.98-14.28 695.87-13.70Q696.76-13.13 698.87-12.71Q700.98-12.29 702.42-11.76L702.42-11.76Q706.89-10.12 706.89-6.07L706.89-6.07Q706.89-3.18 704.41-1.40Q701.93 0.39 698.01 0.39L698.01 0.39Q695.35 0.39 693.29-0.56Q691.23-1.50 690.06-3.15Q688.89-4.80 688.89-6.72L688.89-6.72L694.24-6.72Q694.32-5.21 695.35-4.41Q696.39-3.61 698.13-3.61L698.13-3.61Q699.75-3.61 700.58-4.23Q701.41-4.84 701.41-5.84ZM721.97-5.84L721.97-5.84Q721.97-6.88 720.95-7.47Q719.92-8.07 717.66-8.54L717.66-8.54Q710.12-10.12 710.12-14.94L710.12-14.94Q710.12-17.75 712.45-19.64Q714.79-21.52 718.55-21.52L718.55-21.52Q722.58-21.52 724.99-19.63Q727.40-17.73 727.40-14.71L727.40-14.71L721.76-14.71Q721.76-15.92 720.98-16.71Q720.20-17.50 718.54-17.50L718.54-17.50Q717.11-17.50 716.33-16.86Q715.55-16.21 715.55-15.21L715.55-15.21Q715.55-14.28 716.44-13.70Q717.32-13.13 719.43-12.71Q721.54-12.29 722.99-11.76L722.99-11.76Q727.46-10.12 727.46-6.07L727.46-6.07Q727.46-3.18 724.98-1.40Q722.50 0.39 718.57 0.39L718.57 0.39Q715.92 0.39 713.86-0.56Q711.80-1.50 710.63-3.15Q709.45-4.80 709.45-6.72L709.45-6.72L714.80-6.72Q714.88-5.21 715.92-4.41Q716.95-3.61 718.69-3.61L718.69-3.61Q720.31-3.61 721.14-4.23Q721.97-4.84 721.97-5.84ZM737.05-21.13L737.05 0L731.39 0L731.39-21.13L737.05-21.13ZM731.05-26.60L731.05-26.60Q731.05-27.87 731.90-28.69Q732.75-29.51 734.22-29.51L734.22-29.51Q735.66-29.51 736.52-28.69Q737.38-27.87 737.38-26.60L737.38-26.60Q737.38-25.31 736.51-24.49Q735.64-23.67 734.22-23.67Q732.79-23.67 731.92-24.49Q731.05-25.31 731.05-26.60ZM740.82-10.51L740.82-10.76Q740.82-13.91 742.03-16.37Q743.24-18.83 745.52-20.18Q747.79-21.52 750.80-21.52L750.80-21.52Q755.08-21.52 757.78-18.91Q760.49-16.29 760.80-11.80L760.80-11.80L760.84-10.35Q760.84-5.49 758.13-2.55Q755.41 0.39 750.84 0.39Q746.27 0.39 743.54-2.54Q740.82-5.47 740.82-10.51L740.82-10.51ZM746.46-10.35L746.46-10.35Q746.46-7.34 747.60-5.75Q748.73-4.16 750.84-4.16L750.84-4.16Q752.89-4.16 754.04-5.73Q755.20-7.30 755.20-10.76L755.20-10.76Q755.20-13.71 754.04-15.33Q752.89-16.95 750.80-16.95L750.80-16.95Q748.73-16.95 747.60-15.34Q746.46-13.73 746.46-10.35ZM764.20-21.13L769.51-21.13L769.69-18.69Q771.95-21.52 775.76-21.52L775.76-21.52Q779.12-21.52 780.76-19.55Q782.40-17.58 782.44-13.65L782.44-13.65L782.44 0L776.80 0L776.80-13.52Q776.80-15.31 776.02-16.12Q775.23-16.93 773.42-16.93L773.42-16.93Q771.04-16.93 769.84-14.90L769.84-14.90L769.84 0L764.20 0L764.20-21.13Z" transform="translate(660, 675)" fill="#ffffff" /><circle cx="620" cy="745" r="8" fill="#e94560" /><path d="M19.00-9.47L24.86-9.47Q24.53-4.88 21.47-2.25Q18.42 0.39 13.42 0.39L13.42 0.39Q7.95 0.39 4.81-3.29Q1.68-6.97 1.68-13.40L1.68-13.40L1.68-15.14Q1.68-19.24 3.13-22.36Q4.57-25.49 7.26-27.16Q9.94-28.83 13.50-28.83L13.50-28.83Q18.42-28.83 21.43-26.19Q24.43-23.55 24.90-18.79L24.90-18.79L19.04-18.79Q18.83-21.54 17.51-22.78Q16.19-24.02 13.50-24.02L13.50-24.02Q10.57-24.02 9.11-21.92Q7.66-19.82 7.62-15.41L7.62-15.41L7.62-13.26Q7.62-8.65 9.01-6.52Q10.41-4.39 13.42-4.39L13.42-4.39Q16.13-4.39 17.47-5.63Q18.81-6.88 19.00-9.47L19.00-9.47ZM41.15 0L41.00-2.15Q38.91 0.39 35.21 0.39L35.21 0.39Q31.82 0.39 30.03-1.56Q28.24-3.52 28.20-7.29L28.20-7.29L28.20-21.13L33.85-21.13L33.85-7.48Q33.85-4.18 36.86-4.18L36.86-4.18Q39.73-4.18 40.80-6.17L40.80-6.17L40.80-21.13L46.46-21.13L46.46 0L41.15 0ZM62.17-5.84L62.17-5.84Q62.17-6.88 61.14-7.47Q60.12-8.07 57.85-8.54L57.85-8.54Q50.31-10.12 50.31-14.94L50.31-14.94Q50.31-17.75 52.65-19.64Q54.98-21.52 58.75-21.52L58.75-21.52Q62.77-21.52 65.19-19.63Q67.60-17.73 67.60-14.71L67.60-14.71L61.95-14.71Q61.95-15.92 61.17-16.71Q60.39-17.50 58.73-17.50L58.73-17.50Q57.30-17.50 56.52-16.86Q55.74-16.21 55.74-15.21L55.74-15.21Q55.74-14.28 56.63-13.70Q57.52-13.13 59.63-12.71Q61.74-12.29 63.18-11.76L63.18-11.76Q67.66-10.12 67.66-6.07L67.66-6.07Q67.66-3.18 65.18-1.40Q62.70 0.39 58.77 0.39L58.77 0.39Q56.11 0.39 54.05-0.56Q51.99-1.50 50.82-3.15Q49.65-4.80 49.65-6.72L49.65-6.72L55-6.72Q55.08-5.21 56.11-4.41Q57.15-3.61 58.89-3.61L58.89-3.61Q60.51-3.61 61.34-4.23Q62.17-4.84 62.17-5.84ZM72.40-26.33L78.05-26.33L78.05-21.13L81.66-21.13L81.66-16.99L78.05-16.99L78.05-6.45Q78.05-5.27 78.50-4.77Q78.95-4.26 80.21-4.26L80.21-4.26Q81.15-4.26 81.88-4.39L81.88-4.39L81.88-0.12Q80.21 0.39 78.46 0.39L78.46 0.39Q72.52 0.39 72.40-5.61L72.40-5.61L72.40-16.99L69.32-16.99L69.32-21.13L72.40-21.13L72.40-26.33ZM83.93-10.51L83.93-10.76Q83.93-13.91 85.14-16.37Q86.35-18.83 88.62-20.18Q90.90-21.52 93.91-21.52L93.91-21.52Q98.18-21.52 100.89-18.91Q103.59-16.29 103.91-11.80L103.91-11.80L103.95-10.35Q103.95-5.49 101.23-2.55Q98.52 0.39 93.95 0.39Q89.38 0.39 86.65-2.54Q83.93-5.47 83.93-10.51L83.93-10.51ZM89.57-10.35L89.57-10.35Q89.57-7.34 90.70-5.75Q91.84-4.16 93.95-4.16L93.95-4.16Q96.00-4.16 97.15-5.73Q98.30-7.30 98.30-10.76L98.30-10.76Q98.30-13.71 97.15-15.33Q96.00-16.95 93.91-16.95L93.91-16.95Q91.84-16.95 90.70-15.34Q89.57-13.73 89.57-10.35ZM107.42-21.13L112.71-21.13L112.89-18.77Q115.14-21.52 118.96-21.52L118.96-21.52Q123.05-21.52 124.57-18.30L124.57-18.30Q126.80-21.52 130.92-21.52L130.92-21.52Q134.36-21.52 136.04-19.52Q137.71-17.52 137.71-13.50L137.71-13.50L137.71 0L132.05 0L132.05-13.48Q132.05-15.27 131.35-16.10Q130.64-16.93 128.87-16.93L128.87-16.93Q126.33-16.93 125.35-14.51L125.35-14.51L125.37 0L119.73 0L119.73-13.46Q119.73-15.29 119.00-16.11Q118.28-16.93 116.54-16.93L116.54-16.93Q114.14-16.93 113.07-14.94L113.07-14.94L113.07 0L107.42 0L107.42-21.13ZM163.46-5.84L163.46-5.84Q163.46-6.88 162.43-7.47Q161.41-8.07 159.14-8.54L159.14-8.54Q151.60-10.12 151.60-14.94L151.60-14.94Q151.60-17.75 153.94-19.64Q156.27-21.52 160.04-21.52L160.04-21.52Q164.06-21.52 166.47-19.63Q168.89-17.73 168.89-14.71L168.89-14.71L163.24-14.71Q163.24-15.92 162.46-16.71Q161.68-17.50 160.02-17.50L160.02-17.50Q158.59-17.50 157.81-16.86Q157.03-16.21 157.03-15.21L157.03-15.21Q157.03-14.28 157.92-13.70Q158.81-13.13 160.92-12.71Q163.03-12.29 164.47-11.76L164.47-11.76Q168.95-10.12 168.95-6.07L168.95-6.07Q168.95-3.18 166.46-1.40Q163.98 0.39 160.06 0.39L160.06 0.39Q157.40 0.39 155.34-0.56Q153.28-1.50 152.11-3.15Q150.94-4.80 150.94-6.72L150.94-6.72L156.29-6.72Q156.37-5.21 157.40-4.41Q158.44-3.61 160.18-3.61L160.18-3.61Q161.80-3.61 162.63-4.23Q163.46-4.84 163.46-5.84ZM185.68 0L180.25-8.48L178.22-6.45L178.22 0L172.58 0L172.58-30L178.22-30L178.22-13.38L179.32-14.79L184.73-21.13L191.50-21.13L183.87-12.32L192.17 0L185.68 0ZM199.90-21.13L199.90 0L194.24 0L194.24-21.13L199.90-21.13ZM193.91-26.60L193.91-26.60Q193.91-27.87 194.76-28.69Q195.61-29.51 197.07-29.51L197.07-29.51Q198.52-29.51 199.38-28.69Q200.23-27.87 200.23-26.60L200.23-26.60Q200.23-25.31 199.37-24.49Q198.50-23.67 197.07-23.67Q195.64-23.67 194.78-24.49Q193.91-25.31 193.91-26.60ZM210.51-30L210.51 0L204.84 0L204.84-30L210.51-30ZM221.11-30L221.11 0L215.45 0L215.45-30L221.11-30ZM237.21-5.84L237.21-5.84Q237.21-6.88 236.18-7.47Q235.16-8.07 232.89-8.54L232.89-8.54Q225.35-10.12 225.35-14.94L225.35-14.94Q225.35-17.75 227.69-19.64Q230.02-21.52 233.79-21.52L233.79-21.52Q237.81-21.52 240.22-19.63Q242.64-17.73 242.64-14.71L242.64-14.71L236.99-14.71Q236.99-15.92 236.21-16.71Q235.43-17.50 233.77-17.50L233.77-17.50Q232.34-17.50 231.56-16.86Q230.78-16.21 230.78-15.21L230.78-15.21Q230.78-14.28 231.67-13.70Q232.56-13.13 234.67-12.71Q236.78-12.29 238.22-11.76L238.22-11.76Q242.70-10.12 242.70-6.07L242.70-6.07Q242.70-3.18 240.21-1.40Q237.73 0.39 233.81 0.39L233.81 0.39Q231.15 0.39 229.09-0.56Q227.03-1.50 225.86-3.15Q224.69-4.80 224.69-6.72L224.69-6.72L230.04-6.72Q230.12-5.21 231.15-4.41Q232.19-3.61 233.93-3.61L233.93-3.61Q235.55-3.61 236.38-4.23Q237.21-4.84 237.21-5.84ZM274.24 0L268.54 0Q268.14-0.76 267.97-1.89L267.97-1.89Q265.92 0.39 262.64 0.39L262.64 0.39Q259.53 0.39 257.49-1.41Q255.45-3.20 255.45-5.94L255.45-5.94Q255.45-9.30 257.94-11.09Q260.43-12.89 265.14-12.91L265.14-12.91L267.73-12.91L267.73-14.12Q267.73-15.59 266.98-16.46Q266.23-17.34 264.61-17.34L264.61-17.34Q263.18-17.34 262.37-16.66Q261.56-15.98 261.56-14.79L261.56-14.79L255.92-14.79Q255.92-16.62 257.05-18.18Q258.18-19.75 260.25-20.63Q262.32-21.52 264.90-21.52L264.90-21.52Q268.81-21.52 271.10-19.56Q273.40-17.60 273.40-14.04L273.40-14.04L273.40-4.88Q273.42-1.88 274.24-0.33L274.24-0.33L274.24 0ZM263.87-3.93L263.87-3.93Q265.12-3.93 266.17-4.48Q267.23-5.04 267.73-5.98L267.73-5.98L267.73-9.61L265.63-9.61Q261.39-9.61 261.11-6.68L261.11-6.68L261.09-6.35Q261.09-5.29 261.84-4.61Q262.58-3.93 263.87-3.93ZM281.72-21.13L285.64-6.89L289.57-21.13L295.47-21.13L288.34 0L282.95 0L275.82-21.13L281.72-21.13ZM315.90 0L310.20 0Q309.80-0.76 309.63-1.89L309.63-1.89Q307.58 0.39 304.30 0.39L304.30 0.39Q301.19 0.39 299.15-1.41Q297.11-3.20 297.11-5.94L297.11-5.94Q297.11-9.30 299.60-11.09Q302.09-12.89 306.80-12.91L306.80-12.91L309.39-12.91L309.39-14.12Q309.39-15.59 308.64-16.46Q307.89-17.34 306.27-17.34L306.27-17.34Q304.84-17.34 304.03-16.66Q303.22-15.98 303.22-14.79L303.22-14.79L297.58-14.79Q297.58-16.62 298.71-18.18Q299.84-19.75 301.91-20.63Q303.98-21.52 306.56-21.52L306.56-21.52Q310.47-21.52 312.76-19.56Q315.06-17.60 315.06-14.04L315.06-14.04L315.06-4.88Q315.08-1.88 315.90-0.33L315.90-0.33L315.90 0ZM305.53-3.93L305.53-3.93Q306.78-3.93 307.83-4.48Q308.89-5.04 309.39-5.98L309.39-5.98L309.39-9.61L307.29-9.61Q303.05-9.61 302.77-6.68L302.77-6.68L302.75-6.35Q302.75-5.29 303.50-4.61Q304.24-3.93 305.53-3.93ZM325.35-21.13L325.35 0L319.69 0L319.69-21.13L325.35-21.13ZM319.36-26.60L319.36-26.60Q319.36-27.87 320.21-28.69Q321.05-29.51 322.52-29.51L322.52-29.51Q323.96-29.51 324.82-28.69Q325.68-27.87 325.68-26.60L325.68-26.60Q325.68-25.31 324.81-24.49Q323.95-23.67 322.52-23.67Q321.09-23.67 320.22-24.49Q319.36-25.31 319.36-26.60ZM335.96-30L335.96 0L330.29 0L330.29-30L335.96-30ZM358.55 0L352.85 0Q352.46-0.76 352.29-1.89L352.29-1.89Q350.23 0.39 346.95 0.39L346.95 0.39Q343.85 0.39 341.81-1.41Q339.77-3.20 339.77-5.94L339.77-5.94Q339.77-9.30 342.26-11.09Q344.75-12.89 349.45-12.91L349.45-12.91L352.05-12.91L352.05-14.12Q352.05-15.59 351.30-16.46Q350.55-17.34 348.93-17.34L348.93-17.34Q347.50-17.34 346.69-16.66Q345.88-15.98 345.88-14.79L345.88-14.79L340.23-14.79Q340.23-16.62 341.37-18.18Q342.50-19.75 344.57-20.63Q346.64-21.52 349.22-21.52L349.22-21.52Q353.13-21.52 355.42-19.56Q357.71-17.60 357.71-14.04L357.71-14.04L357.71-4.88Q357.73-1.88 358.55-0.33L358.55-0.33L358.55 0ZM348.18-3.93L348.18-3.93Q349.43-3.93 350.49-4.48Q351.54-5.04 352.05-5.98L352.05-5.98L352.05-9.61L349.94-9.61Q345.70-9.61 345.43-6.68L345.43-6.68L345.41-6.35Q345.41-5.29 346.15-4.61Q346.89-3.93 348.18-3.93ZM381.09-10.68L381.09-10.37Q381.09-5.29 378.93-2.45Q376.76 0.39 372.87 0.39L372.87 0.39Q369.43 0.39 367.38-2.25L367.38-2.25L367.13 0L362.05 0L362.05-30L367.70-30L367.70-19.24Q369.65-21.52 372.83-21.52L372.83-21.52Q376.70-21.52 378.90-18.68Q381.09-15.84 381.09-10.68L381.09-10.68ZM375.45-10.78L375.45-10.78Q375.45-13.98 374.43-15.46Q373.42-16.93 371.41-16.93L371.41-16.93Q368.71-16.93 367.70-14.73L367.70-14.73L367.70-6.39Q368.73-4.16 371.45-4.16L371.45-4.16Q374.18-4.16 375.04-6.86L375.04-6.86Q375.45-8.14 375.45-10.78ZM390.53-30L390.53 0L384.86 0L384.86-30L390.53-30ZM404.90 0.39L404.90 0.39Q400.25 0.39 397.33-2.46Q394.41-5.31 394.41-10.06L394.41-10.06L394.41-10.61Q394.41-13.79 395.64-16.30Q396.88-18.81 399.13-20.17Q401.39-21.52 404.28-21.52L404.28-21.52Q408.61-21.52 411.10-18.79Q413.59-16.05 413.59-11.04L413.59-11.04L413.59-8.73L400.14-8.73Q400.41-6.66 401.79-5.41Q403.16-4.16 405.27-4.16L405.27-4.16Q408.54-4.16 410.37-6.52L410.37-6.52L413.14-3.42Q411.88-1.62 409.71-0.62Q407.54 0.39 404.90 0.39ZM404.26-16.95L404.26-16.95Q402.58-16.95 401.53-15.82Q400.49-14.69 400.20-12.58L400.20-12.58L408.05-12.58L408.05-13.03Q408.01-14.90 407.03-15.93Q406.05-16.95 404.26-16.95Z" transform="translate(660, 745)" fill="#ffffff" />
  <text x="960" y="1030" font-family="Arial" font-size="24" fill="#666" text-anchor="middle">OpenClaw Documentation</text>
  <line x1="880" y1="1045" x2="1040" y2="1045" stroke="#e94560" stroke-width="3" opacity="0.6"/>
</svg>